<svg xmlns="http://www.w3.org/2000/svg" version="1.1" width="229" height="394"><defs><filter id="bevelFilter" x0="-50%" y0="-50%" width="200%" height="200%"><feGaussianBlur result="blur-1" in="SourceAlpha" stdDeviation="1 1"/><feFlood result="flood-2" in="undefined" flood-color="#fff" flood-opacity="0.15"/><feOffset result="offset-3" in="blur-1" dx="1" dy="1"/><feComposite result="comp-4" operator="arithmetic" in="SourceAlpha" in2="offset-3" k2="1" k3="-1"/><feComposite result="comp-5" operator="in" in="flood-2" in2="comp-4"/><feFlood result="flood-6" in="undefined" flood-color="#000" flood-opacity="0.7"/><feOffset result="offset-7" in="blur-1" dx="-1" dy="-1"/><feComposite result="comp-8" operator="arithmetic" in="SourceAlpha" in2="offset-7" k2="1" k3="-1"/><feComposite result="comp-9" operator="in" in="flood-6" in2="comp-8"/><feMerge result="merge-10"><feMergeNode in="SourceGraphic"/><feMergeNode in="comp-5"/><feMergeNode in="comp-9"/></feMerge></filter><filter id="inputBevelFilter" x0="-50%" y0="-50%" width="200%" height="200%"><feGaussianBlur result="blur-1" in="SourceAlpha" stdDeviation="1 1"/><feFlood result="flood-2" in="undefined" flood-color="#fff" flood-opacity="0.15"/><feOffset result="offset-3" in="blur-1" dx="-1" dy="-1"/><feComposite result="comp-4" operator="arithmetic" in="SourceAlpha" in2="offset-3" k2="1" k3="-1"/><feComposite result="comp-5" operator="in" in="flood-2" in2="comp-4"/><feFlood result="flood-6" in="undefined" flood-color="#000" flood-opacity="0.7"/><feOffset result="offset-7" in="blur-1" dx="1" dy="1"/><feComposite result="comp-8" operator="arithmetic" in="SourceAlpha" in2="offset-7" k2="1" k3="-1"/><feComposite result="comp-9" operator="in" in="flood-6" in2="comp-8"/><feMerge result="merge-10"><feMergeNode in="SourceGraphic"/><feMergeNode in="comp-5"/><feMergeNode in="comp-9"/></feMerge></filter><filter id="inputDarkFilter" x0="-50%" y0="-50%" width="200%" height="200%"><feFlood result="flood-1" in="undefined" flood-color="#000" flood-opacity="0.2"/><feComposite result="comp-2" operator="in" in="flood-1" in2="SourceAlpha"/><feMerge result="merge-3"><feMergeNode in="SourceGraphic"/><feMergeNode in="comp-2"/></feMerge></filter><path d="M1.504 21L0 19.493 4.567 0h1.948l-.5 2.418s1.002-.502 3.006 0c2.006.503 3.008 2.01 6.517 2.01 3.508 0 4.463-.545 4.463-.545l-.823 9.892s-2.137 1.005-5.144.696c-3.007-.307-3.007-2.007-6.014-2.51-3.008-.502-4.512.503-4.512.503L1.504 21z" fill="#3f8d15" id="greenFlag"/><path d="M6.724 0C3.01 0 0 2.91 0 6.5c0 2.316 1.253 4.35 3.14 5.5H5.17v-1.256C3.364 10.126 2.07 8.46 2.07 6.5 2.07 4.015 4.152 2 6.723 2c1.14 0 2.184.396 2.993 1.053L8.31 4.13c-.45.344-.398.826.11 1.08L15 8.5 13.858.992c-.083-.547-.514-.714-.963-.37l-1.532 1.172A6.825 6.825 0 0 0 6.723 0z" fill="#fff" id="turnRight"/><path d="M3.637 1.794A6.825 6.825 0 0 1 8.277 0C11.99 0 15 2.91 15 6.5c0 2.316-1.253 4.35-3.14 5.5H9.83v-1.256c1.808-.618 3.103-2.285 3.103-4.244 0-2.485-2.083-4.5-4.654-4.5-1.14 0-2.184.396-2.993 1.053L6.69 4.13c.45.344.398.826-.11 1.08L0 8.5 1.142.992c.083-.547.514-.714.963-.37l1.532 1.172z" fill="#fff" id="turnLeft"/><path d="M0 0L4 4L0 8Z" fill="#111" id="addInput"/><path d="M4 0L4 8L0 4Z" fill="#111" id="delInput"/><g id="loopArrow"><path d="M8 0l2 -2l0 -3l3 0l-4 -5l-4 5l3 0l0 3l-8 0l0 2" fill="#000" opacity="0.3"/><path d="M8 0l2 -2l0 -3l3 0l-4 -5l-4 5l3 0l0 3l-8 0l0 2" fill="#fff" opacity="0.9" transform="translate(-1 -1)"/></g><style><![CDATA[.sb-label{font-family:Lucida Grande,Verdana,Arial,DejaVu Sans,sans-serif;font-weight:700;fill:#fff;font-size:10px;word-spacing:+1px}.sb-obsolete{fill:#d42828}.sb-motion{fill:#4a6cd4}.sb-looks{fill:#8a55d7}.sb-sound{fill:#bb42c3}.sb-pen{fill:#0e9a6c}.sb-events{fill:#c88330}.sb-control{fill:#e1a91a}.sb-sensing{fill:#2ca5e2}.sb-operators{fill:#5cb712}.sb-variables{fill:#ee7d16}.sb-list{fill:#cc5b22}.sb-custom{fill:#632d99}.sb-custom-arg{fill:#5947b1}.sb-extension{fill:#4b4a60}.sb-grey{fill:#969696}.sb-bevel{filter:url(#bevelFilter)}.sb-input{filter:url(#inputBevelFilter)}.sb-input-number,.sb-input-number-dropdown,.sb-input-string{fill:#fff}.sb-literal-dropdown,.sb-literal-number,.sb-literal-number-dropdown,.sb-literal-string{font-weight:400;font-size:9px;word-spacing:0}.sb-literal-number,.sb-literal-number-dropdown,.sb-literal-string{fill:#000}.sb-darker{filter:url(#inputDarkFilter)}.sb-outline{stroke:#fff;stroke-opacity:.2;stroke-width:2;fill:none}.sb-define-hat-cap{stroke:#632d99;stroke-width:1;fill:#8e2ec2}.sb-comment{fill:#ffffa5;stroke:#d0d1d2;stroke-width:1}.sb-comment-line{fill:#ffff80}.sb-comment-label{font-family:Helevetica,Arial,DejaVu Sans,sans-serif;font-weight:700;fill:#5c5d5f;word-spacing:0;font-size:12px}]]></style></defs><g><g transform="translate(0 0)"><g transform="translate(2 0)"><path d="M 0 12 L 0 12 A 80 80 0 0 1 80 10 L 167 10 L 170 13 L 170 30 L 167 33 L 27 33 L 24 36 L 16 36 L 13 33 L 3 33 L 0 30 Z" class="sb-events sb-bevel"/><text x="0" y="10" class="sb-label " transform="translate(6 16)">when</text><text x="0" y="10" class="sb-label " transform="translate(41 16)">I</text><text x="0" y="10" class="sb-label " transform="translate(50 16)">receive</text><g transform="translate(95 15)"><g width="69" height="14" class="sb-input sb-input-dropdown"><rect x="0" y="0" width="69" height="14" class="sb-events sb-darker"/></g><text x="0" y="10" class="sb-label sb-literal-dropdown" transform="translate(4 0)">setup-level</text><polygon points="7 0 3.5 4 0 0" fill="#000" opacity="0.6" transform="translate(59 5)"/></g></g><g transform="translate(2 33)"><path d="M 0 3 L 3 0 L 13 0 L 16 3 L 24 3 L 27 0 L 36 0 L 39 3 L 39 19 L 36 22 L 27 22 L 24 25 L 16 25 L 13 22 L 3 22 L 0 19 Z" class="sb-looks sb-bevel"/><text x="0" y="10" class="sb-label " transform="translate(6 5)">hide</text></g><g transform="translate(2 55)"><path d="M 0 3 L 3 0 L 13 0 L 16 3 L 24 3 L 27 0 L 217 0 L 220 3 L 220 19 L 217 22 L 27 22 L 24 25 L 16 25 L 13 22 L 3 22 L 0 19 Z" class="sb-events sb-bevel"/><text x="0" y="10" class="sb-label " transform="translate(6 5)">broadcast</text><g transform="translate(66 4)"><g width="95" height="14" class="sb-input sb-input-dropdown"><rect x="0" y="0" width="95" height="14" class="sb-events sb-darker"/></g><text x="0" y="10" class="sb-label sb-literal-dropdown" transform="translate(4 0)">delete old clones</text><polygon points="7 0 3.5 4 0 0" fill="#000" opacity="0.6" transform="translate(85 5)"/></g><text x="0" y="10" class="sb-label " transform="translate(165 5)">and</text><text x="0" y="10" class="sb-label " transform="translate(190 5)">wait</text></g><g transform="translate(2 77)"><path d="M 0 3 L 3 0 L 13 0 L 16 3 L 24 3 L 27 0 L 124 0 L 127 3 L 127 19 L 124 22 L 27 22 L 24 25 L 16 25 L 13 22 L 3 22 L 0 19 Z" class="sb-variables sb-bevel"/><text x="0" y="10" class="sb-label " transform="translate(6 5)">set</text><g transform="translate(30 4)"><g width="58" height="14" class="sb-input sb-input-dropdown"><rect x="0" y="0" width="58" height="14" class="sb-variables sb-darker"/></g><text x="0" y="10" class="sb-label sb-literal-dropdown" transform="translate(4 0)">touching</text><polygon points="7 0 3.5 4 0 0" fill="#000" opacity="0.6" transform="translate(48 5)"/></g><text x="0" y="10" class="sb-label " transform="translate(92 5)">to</text><g transform="translate(107 4)"><rect x="0" y="0" width="14" height="14" class="sb-input sb-input-string"/><text x="0" y="10" class="sb-label sb-literal-string" transform="translate(4 0)">0</text></g></g><g transform="translate(2 99)"><path d="M 0 3 L 3 0 L 13 0 L 16 3 L 24 3 L 27 0 L 109 0 L 112 3 L 112 19 L 109 22 L 27 22 L 24 25 L 16 25 L 13 22 L 3 22 L 0 19 Z" class="sb-variables sb-bevel"/><text x="0" y="10" class="sb-label " transform="translate(6 5)">set</text><g transform="translate(30 4)"><g width="43" height="14" class="sb-input sb-input-dropdown"><rect x="0" y="0" width="43" height="14" class="sb-variables sb-darker"/></g><text x="0" y="10" class="sb-label sb-literal-dropdown" transform="translate(4 0)">spots</text><polygon points="7 0 3.5 4 0 0" fill="#000" opacity="0.6" transform="translate(33 5)"/></g><text x="0" y="10" class="sb-label " transform="translate(77 5)">to</text><g transform="translate(92 4)"><rect x="0" y="0" width="14" height="14" class="sb-input sb-input-string"/><text x="0" y="10" class="sb-label sb-literal-string" transform="translate(4 0)">0</text></g></g><g transform="translate(2 121)"><path d="M 0 3 L 3 0 L 13 0 L 16 3 L 24 3 L 27 0 L 132 0 L 135 3 L 135 19 L 132 22 L 27 22 L 24 25 L 16 25 L 13 22 L 3 22 L 0 19 Z" class="sb-motion sb-bevel"/><text x="0" y="10" class="sb-label " transform="translate(6 5)">go</text><text x="0" y="10" class="sb-label " transform="translate(24 5)">to</text><text x="0" y="10" class="sb-label " transform="translate(39 5)">x:</text><g transform="translate(54 4)"><path d="M 6.5 0 L 23.5 0 A 6.5 6.5 0 0 1 23.5 13 L 6.5 13 A 6.5 6.5 0 0 1 6.5 0 Z" class="sb-input sb-input-number"/><text x="0" y="10" class="sb-label sb-literal-number" transform="translate(5 0)">-225</text></g><text x="0" y="10" class="sb-label " transform="translate(88 5)">y:</text><g transform="translate(103 4)"><path d="M 6.5 0 L 19.5 0 A 6.5 6.5 0 0 1 19.5 13 L 6.5 13 A 6.5 6.5 0 0 1 6.5 0 Z" class="sb-input sb-input-number"/><text x="0" y="10" class="sb-label sb-literal-number" transform="translate(5 0)">165</text></g></g><g transform="translate(2 143)"><path d="M 0 3 L 3 0 L 13 0 L 16 3 L 24 3 L 27 0 L 138 0 L 141 3 L 141 19 L 138 22 L 27 22 L 24 25 L 16 25 L 13 22 L 3 22 L 0 19 Z" class="sb-motion sb-bevel"/><text x="0" y="10" class="sb-label " transform="translate(6 5)">point</text><text x="0" y="10" class="sb-label " transform="translate(39 5)">in</text><text x="0" y="10" class="sb-label " transform="translate(54 5)">direction</text><g transform="translate(108 4)"><path d="M 6.5 0 L 20.5 0 A 6.5 6.5 0 0 1 20.5 13 L 6.5 13 A 6.5 6.5 0 0 1 6.5 0 Z" class="sb-input sb-input-number-dropdown"/><text x="0" y="10" class="sb-label sb-literal-number-dropdown" transform="translate(5 0)">90</text><polygon points="7 0 3.5 4 0 0" fill="#000" opacity="0.6" transform="translate(17 4)"/></g></g><g transform="translate(2 165)"><path d="M 0 3 L 3 0 L 13 0 L 16 3 L 24 3 L 27 0 L 80 0 L 83 3 L 83 18 L 80 21 L 42 21 L 39 24 L 31 24 L 28 21 L 17 21 L 15 23 L 15 208 L 17 210 L 80 210 L 83 213 L 83 223 L 80 226 L 27 226 L 24 229 L 16 229 L 13 226 L 3 226 L 0 223" class="sb-control sb-bevel"/><text x="0" y="10" class="sb-label " transform="translate(6 4)">repeat</text><g transform="translate(46 3)"><path d="M 6.5 0 L 13.5 0 A 6.5 6.5 0 0 1 13.5 13 L 6.5 13 A 6.5 6.5 0 0 1 6.5 0 Z" class="sb-input sb-input-number"/><text x="0" y="10" class="sb-label sb-literal-number" transform="translate(5 0)">12</text></g><use xmlns:xlink="http://www.w3.org/1999/xlink" xlink:href="#loopArrow" transform="translate(68 223)"/><g transform="translate(15 21)"><g transform="translate(0 0)"><path d="M 0 3 L 3 0 L 13 0 L 16 3 L 24 3 L 27 0 L 86 0 L 89 3 L 89 19 L 86 22 L 27 22 L 24 25 L 16 25 L 13 22 L 3 22 L 0 19 Z" class="sb-motion sb-bevel"/><text x="0" y="10" class="sb-label " transform="translate(6 5)">set</text><text x="0" y="10" class="sb-label " transform="translate(27 5)">x</text><text x="0" y="10" class="sb-label " transform="translate(38 5)">to</text><g transform="translate(53 4)"><path d="M 6.5 0 L 23.5 0 A 6.5 6.5 0 0 1 23.5 13 L 6.5 13 A 6.5 6.5 0 0 1 6.5 0 Z" class="sb-input sb-input-number"/><text x="0" y="10" class="sb-label sb-literal-number" transform="translate(5 0)">-225</text></g></g><g transform="translate(0 22)"><path d="M 0 3 L 3 0 L 13 0 L 16 3 L 24 3 L 27 0 L 80 0 L 83 3 L 83 18 L 80 21 L 42 21 L 39 24 L 31 24 L 28 21 L 17 21 L 15 23 L 15 127 L 17 129 L 80 129 L 83 132 L 83 142 L 80 145 L 27 145 L 24 148 L 16 148 L 13 145 L 3 145 L 0 142" class="sb-control sb-bevel"/><text x="0" y="10" class="sb-label " transform="translate(6 4)">repeat</text><g transform="translate(46 3)"><path d="M 6.5 0 L 13.5 0 A 6.5 6.5 0 0 1 13.5 13 L 6.5 13 A 6.5 6.5 0 0 1 6.5 0 Z" class="sb-input sb-input-number"/><text x="0" y="10" class="sb-label sb-literal-number" transform="translate(5 0)">16</text></g><use xmlns:xlink="http://www.w3.org/1999/xlink" xlink:href="#loopArrow" transform="translate(68 142)"/><g transform="translate(15 21)"><g transform="translate(0 0)"><path d="M 0 3 L 3 0 L 13 0 L 16 3 L 24 3 L 27 0 L 192 0 L 195 3 L 195 23 L 192 26 L 42 26 L 39 29 L 31 29 L 28 26 L 17 26 L 15 28 L 15 68 L 17 70 L 192 70 L 195 73 L 195 83 L 192 86 L 27 86 L 24 89 L 16 89 L 13 86 L 3 86 L 0 83" class="sb-control sb-bevel"/><text x="0" y="10" class="sb-label " transform="translate(6 6)">if</text><g transform="translate(30 2)"><path d="M 10.5 0 L 119.5 0 130 10.5 L 130 10.5 119.5 21 L 10.5 21 0 10.5 L 0 10.5 10.5 0 Z" class="sb-sensing sb-bevel"/><text x="0" y="10" class="sb-label " transform="translate(11 4)">touching</text><text x="0" y="10" class="sb-label " transform="translate(64 4)">color</text><g transform="translate(96 3)"><rect x="0" y="0" width="13" height="13" fill="#ccd8ff" class="sb-input sb-input-color"/></g><text x="0" y="10" class="sb-label " transform="translate(113 4)">?</text></g><text x="0" y="10" class="sb-label " transform="translate(164 6)">then</text><g transform="translate(15 26)"><g transform="translate(0 0)"><path d="M 0 3 L 3 0 L 13 0 L 16 3 L 24 3 L 27 0 L 146 0 L 149 3 L 149 19 L 146 22 L 27 22 L 24 25 L 16 25 L 13 22 L 3 22 L 0 19 Z" class="sb-control sb-bevel"/><text x="0" y="10" class="sb-label " transform="translate(6 5)">create</text><text x="0" y="10" class="sb-label " transform="translate(45 5)">clone</text><text x="0" y="10" class="sb-label " transform="translate(79 5)">of</text><g transform="translate(94 4)"><g width="49" height="14" class="sb-input sb-input-dropdown"><rect x="0" y="0" width="49" height="14" class="sb-control sb-darker"/></g><text x="0" y="10" class="sb-label sb-literal-dropdown" transform="translate(4 0)">myself</text><polygon points="7 0 3.5 4 0 0" fill="#000" opacity="0.6" transform="translate(39 5)"/></g></g><g transform="translate(0 22)"><path d="M 0 3 L 3 0 L 13 0 L 16 3 L 24 3 L 27 0 L 133 0 L 136 3 L 136 19 L 133 22 L 27 22 L 24 25 L 16 25 L 13 22 L 3 22 L 0 19 Z" class="sb-variables sb-bevel"/><text x="0" y="10" class="sb-label " transform="translate(6 5)">change</text><g transform="translate(50 4)"><g width="43" height="14" class="sb-input sb-input-dropdown"><rect x="0" y="0" width="43" height="14" class="sb-variables sb-darker"/></g><text x="0" y="10" class="sb-label sb-literal-dropdown" transform="translate(4 0)">spots</text><polygon points="7 0 3.5 4 0 0" fill="#000" opacity="0.6" transform="translate(33 5)"/></g><text x="0" y="10" class="sb-label " transform="translate(97 5)">by</text><g transform="translate(115 4)"><path d="M 6.5 0 L 8.5 0 A 6.5 6.5 0 0 1 8.5 13 L 6.5 13 A 6.5 6.5 0 0 1 6.5 0 Z" class="sb-input sb-input-number"/><text x="0" y="10" class="sb-label sb-literal-number" transform="translate(5 0)">1</text></g></g></g></g><g transform="translate(0 86)"><path d="M 0 3 L 3 0 L 13 0 L 16 3 L 24 3 L 27 0 L 98 0 L 101 3 L 101 19 L 98 22 L 27 22 L 24 25 L 16 25 L 13 22 L 3 22 L 0 19 Z" class="sb-motion sb-bevel"/><text x="0" y="10" class="sb-label " transform="translate(6 5)">move</text><g transform="translate(41 4)"><path d="M 6.5 0 L 13.5 0 A 6.5 6.5 0 0 1 13.5 13 L 6.5 13 A 6.5 6.5 0 0 1 6.5 0 Z" class="sb-input sb-input-number"/><text x="0" y="10" class="sb-label sb-literal-number" transform="translate(5 0)">30</text></g><text x="0" y="10" class="sb-label " transform="translate(65 5)">steps</text></g></g></g><g transform="translate(0 167)"><path d="M 0 3 L 3 0 L 13 0 L 16 3 L 24 3 L 27 0 L 107 0 L 110 3 L 110 19 L 107 22 L 27 22 L 24 25 L 16 25 L 13 22 L 3 22 L 0 19 Z" class="sb-motion sb-bevel"/><text x="0" y="10" class="sb-label " transform="translate(6 5)">change</text><text x="0" y="10" class="sb-label " transform="translate(50 5)">y</text><text x="0" y="10" class="sb-label " transform="translate(61 5)">by</text><g transform="translate(79 4)"><path d="M 6.5 0 L 18.5 0 A 6.5 6.5 0 0 1 18.5 13 L 6.5 13 A 6.5 6.5 0 0 1 6.5 0 Z" class="sb-input sb-input-number"/><text x="0" y="10" class="sb-label sb-literal-number" transform="translate(5 0)">-30</text></g></g></g></g></g></g></svg>