<svg version="1.1" width="482" height="362" viewBox="-1 -1 482 362" xmlns="http://www.w3.org/2000/svg" xmlns:xlink="http://www.w3.org/1999/xlink">
  <!-- Exported by Scratch - http://scratch.mit.edu/ -->
  <g id="dp_dp001">
    <g id="clip">
      <path id="dp_path002" fill="white" stroke="#13b5eb" stroke-width="1.33333" d="M 0.749 0.749 L 479.248 0.749 L 479.248 359.248 L 0.749 359.248 L 0.749 0.749 M 30.656 0.749 L 30.656 359.248 M 60.561 0.749 L 60.561 359.248 M 90.468 0.749 L 90.468 359.248 M 120.375 0.749 L 120.375 359.248 M 150.280 0.749 L 150.280 359.248 M 180.187 0.749 L 180.187 359.248 M 210.092 0.749 L 210.092 359.248 M 239.999 0.749 L 239.999 359.248 M 269.905 0.749 L 269.905 359.248 M 299.811 0.749 L 299.811 359.248 M 329.717 0.749 L 329.717 359.248 M 359.624 0.749 L 359.624 359.248 M 389.529 0.749 L 389.529 359.248 M 419.436 0.749 L 419.436 359.248 M 449.341 0.749 L 449.341 359.248 M 0.749 30.624 L 479.248 30.624 M 0.749 60.499 L 479.248 60.499 M 0.749 90.375 L 479.248 90.375 M 0.749 120.249 L 479.248 120.249 M 0.749 150.124 L 479.248 150.124 M 0.749 179.999 L 479.248 179.999 M 0.749 209.873 L 479.248 209.873 M 0.749 239.748 L 479.248 239.748 M 0.749 269.624 L 479.248 269.624 M 0.749 299.499 L 479.248 299.499 M 0.749 329.373 L 479.248 329.373 "/>
      <path id="dp_path003" fill="none" stroke="#a7a7a7" stroke-width="1.33333" d="M 240 0.001 L 240 359.999 "/>
      <path id="dp_path004" fill="none" stroke="#a7a7a7" stroke-width="1.33333" d="M 0 180 L 479.999 180 "/>
    </g>
  </g>
  <text id="ID0.30813759891316295" fill="#FF0000" x="153.2" y="118" text-anchor="start" font-family="Marker" font-size="22" transform="matrix(3.22510027885437, 0, 0, 3.22510027885437, 51.3, 122.4)">well done</text>
  <path id="ID0.5120598236098886" fill="none" stroke="#FFCCF2" stroke-width="4" stroke-linecap="round" d="M 14.500 15.500 L 14.800 15.800 " transform="matrix(1, 0, 0, 1, 450.4, 329.6)"/>
</svg>