<svg version="1.1" width="482" height="362" viewBox="-1 -1 482 362" xmlns="http://www.w3.org/2000/svg" xmlns:xlink="http://www.w3.org/1999/xlink">
  <!-- Exported by Scratch - http://scratch.mit.edu/ -->
  <g id="dp_dp001">
    <g id="clip">
      <path id="dp_path002" fill="white" stroke="#13b5eb" stroke-width="1.33333" d="M 0.749 0.749 L 479.248 0.749 L 479.248 359.248 L 0.749 359.248 L 0.749 0.749 M 30.656 0.749 L 30.656 359.248 M 60.561 0.749 L 60.561 359.248 M 90.468 0.749 L 90.468 359.248 M 120.375 0.749 L 120.375 359.248 M 150.280 0.749 L 150.280 359.248 M 180.187 0.749 L 180.187 359.248 M 210.092 0.749 L 210.092 359.248 M 239.999 0.749 L 239.999 359.248 M 269.905 0.749 L 269.905 359.248 M 299.811 0.749 L 299.811 359.248 M 329.717 0.749 L 329.717 359.248 M 359.624 0.749 L 359.624 359.248 M 389.529 0.749 L 389.529 359.248 M 419.436 0.749 L 419.436 359.248 M 449.341 0.749 L 449.341 359.248 M 0.749 30.624 L 479.248 30.624 M 0.749 60.499 L 479.248 60.499 M 0.749 90.375 L 479.248 90.375 M 0.749 120.249 L 479.248 120.249 M 0.749 150.124 L 479.248 150.124 M 0.749 179.999 L 479.248 179.999 M 0.749 209.873 L 479.248 209.873 M 0.749 239.748 L 479.248 239.748 M 0.749 269.624 L 479.248 269.624 M 0.749 299.499 L 479.248 299.499 M 0.749 329.373 L 479.248 329.373 "/>
      <path id="dp_path003" fill="none" stroke="#a7a7a7" stroke-width="1.33333" d="M 240 0.001 L 240 359.999 "/>
      <path id="dp_path004" fill="none" stroke="#a7a7a7" stroke-width="1.33333" d="M 0 180 L 479.999 180 "/>
    </g>
  </g>
  <path id="ID0.13997297175228596" fill="#FF0000" stroke="none" d="M 392 124 L 416 124 L 416 204 L 392 204 L 392 124 Z "/>
  <path id="ID0.9158323425799608" fill="#FF0000" stroke="none" d="M 361.600 124 L 410.400 124 L 410.400 146.400 L 361.600 146.400 L 361.600 124 Z "/>
  <path id="ID0.04349489789456129" fill="#FF0000" stroke="none" d="M 360 183.200 L 415.200 183.200 L 415.200 204.800 L 360 204.800 L 360 183.200 Z " transform="matrix(0.9420289993286133, 0, 0, 1, 24.05, 0)"/>
  <path id="ID0.9131054882891476" fill="#FF0000" stroke="none" d="M 364 184 L 386.400 184 L 386.400 260.800 L 364 260.800 L 364 184 Z "/>
  <path id="ID0.8306249552406371" fill="#FF0000" stroke="none" d="M 275.200 244 L 374.400 244 L 374.400 260.800 L 275.200 260.800 L 275.200 244 Z "/>
  <path id="ID0.08948655379936099" fill="#FF0000" stroke="none" d="M 274.400 216 L 295.200 216 L 295.200 256 L 274.400 256 L 274.400 216 Z "/>
  <path id="ID0.7373897079378366" fill="#FF0000" stroke="none" d="M 124 215.200 L 294.400 215.200 L 294.400 235.200 L 124 235.200 L 124 215.200 Z "/>
  <path id="ID0.9021961716935039" fill="#FF0000" stroke="none" d="M 124 122.400 L 148 122.400 L 148 220 L 124 220 L 124 122.400 Z "/>
  <path id="ID0.3340964228846133" fill="#FF0000" stroke="none" d="M 132 124 L 173.600 124 L 173.600 144.800 L 132 144.800 L 132 124 Z "/>
  <path id="ID0.28370177606120706" fill="#FF0000" stroke="none" d="M 153.600 96 L 175.200 96 L 175.200 131.200 L 153.600 131.200 L 153.600 96 Z "/>
  <path id="ID0.10283054178580642" fill="#FF0000" stroke="none" d="M 155.200 95.200 L 233.600 95.200 L 233.600 115.200 L 155.200 115.200 L 155.200 95.200 Z "/>
  <path id="ID0.5829629711806774" fill="#FF0000" stroke="none" d="M 214.400 68 L 234.400 68 L 234.400 108 L 214.400 108 L 214.400 68 Z "/>
  <path id="ID0.8635333646088839" fill="#FF0000" stroke="none" d="M 362.400 64 L 385.600 64 L 385.600 134.400 L 362.400 134.400 L 362.400 64 Z "/>
  <path id="ID0.06906120060011744" fill="#FF0000" stroke="none" d="M 214.400 64 L 368 64 L 368 88 L 214.400 88 L 214.400 64 Z "/>
  <path id="ID0.13021951727569103" fill="#00CC44" stroke="none" d="M 137.500 154 C 140.397 154 143.022 155.289 144.923 157.370 C 146.823 159.452 148 162.327 148 165.500 C 148 168.673 146.823 171.548 144.923 173.630 C 143.022 175.711 140.397 177 137.500 177 C 134.603 177 131.978 175.711 130.077 173.630 C 128.177 171.548 127 168.673 127 165.500 C 127 162.327 128.177 159.452 130.077 157.370 C 131.978 155.289 134.603 154 137.500 154 Z " transform="matrix(1, 0, 0, 1, 57.7, -31.8)"/>
  <path id="ID0.13021951727569103" fill="#00CC44" stroke="none" d="M 137.500 154 C 140.397 154 143.022 155.289 144.923 157.370 C 146.823 159.452 148 162.327 148 165.500 C 148 168.673 146.823 171.548 144.923 173.630 C 143.022 175.711 140.397 177 137.500 177 C 134.603 177 131.978 175.711 130.077 173.630 C 128.177 171.548 127 168.673 127 165.500 C 127 162.327 128.177 159.452 130.077 157.370 C 131.978 155.289 134.603 154 137.500 154 Z " transform="matrix(1, 0, 0, 1, 58.25, 0.25)"/>
  <path id="ID0.13021951727569103" fill="#00CC44" stroke="none" d="M 137.500 154 C 140.397 154 143.022 155.289 144.923 157.370 C 146.823 159.452 148 162.327 148 165.500 C 148 168.673 146.823 171.548 144.923 173.630 C 143.022 175.711 140.397 177 137.500 177 C 134.603 177 131.978 175.711 130.077 173.630 C 128.177 171.548 127 168.673 127 165.500 C 127 162.327 128.177 159.452 130.077 157.370 C 131.978 155.289 134.603 154 137.500 154 Z " transform="matrix(1, 0, 0, 1, 57.55, 30.1)"/>
  <path id="ID0.13021951727569103" fill="#00CC44" stroke="none" d="M 137.500 154 C 140.397 154 143.022 155.289 144.923 157.370 C 146.823 159.452 148 162.327 148 165.500 C 148 168.673 146.823 171.548 144.923 173.630 C 143.022 175.711 140.397 177 137.500 177 C 134.603 177 131.978 175.711 130.077 173.630 C 128.177 171.548 127 168.673 127 165.500 C 127 162.327 128.177 159.452 130.077 157.370 C 131.978 155.289 134.603 154 137.500 154 Z " transform="matrix(1, 0, 0, 1, 26.55, 0.6)"/>
  <path id="ID0.13021951727569103" fill="#00CC44" stroke="none" d="M 137.500 154 C 140.397 154 143.022 155.289 144.923 157.370 C 146.823 159.452 148 162.327 148 165.500 C 148 168.673 146.823 171.548 144.923 173.630 C 143.022 175.711 140.397 177 137.500 177 C 134.603 177 131.978 175.711 130.077 173.630 C 128.177 171.548 127 168.673 127 165.500 C 127 162.327 128.177 159.452 130.077 157.370 C 131.978 155.289 134.603 154 137.500 154 Z " transform="matrix(1, 0, 0, 1, 27.15, 28.35)"/>
  <path id="ID0.41484959004446864" fill="#FF0000" stroke="none" d="M 274.400 126.400 L 324 126.400 L 324 146.400 L 274.400 146.400 L 274.400 126.400 Z " transform="matrix(1.048387050628662, 0, 0, 1.1200000047683716, -13.25, -17.5)"/>
  <path id="ID0.6087651834823191" fill="none" stroke="#CCD8FF" stroke-width="4" stroke-linecap="round" d="M 254 135.500 L 254.300 135.800 "/>
  <path id="ID0.8384545939043164" fill="none" stroke="#CCD8FF" stroke-width="4" stroke-linecap="round" d="M 224.500 165 L 224.800 165.300 "/>
  <path id="ID0.9362399787642062" fill="none" stroke="#CCD8FF" stroke-width="4" stroke-linecap="round" d="M 286 165 L 286.300 165.300 "/>
  <path id="ID0.47165131103247404" fill="none" stroke="#CCD8FF" stroke-width="4" stroke-linecap="round" d="M 257 195.500 L 257.300 195.800 "/>
  <path id="ID0.037822254467755556" fill="none" stroke="#CCD8FF" stroke-width="4" stroke-linecap="round" d="M 315 194.500 L 315.300 194.800 "/>
  <path id="ID0.8108375053852797" fill="none" stroke="#FFCCF2" stroke-width="4" stroke-linecap="round" d="M 254.500 105.500 L 254.800 105.800 "/>
</svg>