<svg version="1.1" width="482" height="362" viewBox="-1 -1 482 362" xmlns="http://www.w3.org/2000/svg" xmlns:xlink="http://www.w3.org/1999/xlink">
  <!-- Exported by Scratch - http://scratch.mit.edu/ -->
  <g id="dp_dp001">
    <g id="clip">
      <path id="dp_path002" fill="white" stroke="#13b5eb" stroke-width="1.33333" d="M 0.749 0.749 L 479.248 0.749 L 479.248 359.248 L 0.749 359.248 L 0.749 0.749 M 30.656 0.749 L 30.656 359.248 M 60.561 0.749 L 60.561 359.248 M 90.468 0.749 L 90.468 359.248 M 120.375 0.749 L 120.375 359.248 M 150.280 0.749 L 150.280 359.248 M 180.187 0.749 L 180.187 359.248 M 210.092 0.749 L 210.092 359.248 M 239.999 0.749 L 239.999 359.248 M 269.905 0.749 L 269.905 359.248 M 299.811 0.749 L 299.811 359.248 M 329.717 0.749 L 329.717 359.248 M 359.624 0.749 L 359.624 359.248 M 389.529 0.749 L 389.529 359.248 M 419.436 0.749 L 419.436 359.248 M 449.341 0.749 L 449.341 359.248 M 0.749 30.624 L 479.248 30.624 M 0.749 60.499 L 479.248 60.499 M 0.749 90.375 L 479.248 90.375 M 0.749 120.249 L 479.248 120.249 M 0.749 150.124 L 479.248 150.124 M 0.749 179.999 L 479.248 179.999 M 0.749 209.873 L 479.248 209.873 M 0.749 239.748 L 479.248 239.748 M 0.749 269.624 L 479.248 269.624 M 0.749 299.499 L 479.248 299.499 M 0.749 329.373 L 479.248 329.373 "/>
      <path id="dp_path003" fill="none" stroke="#a7a7a7" stroke-width="1.33333" d="M 240 0.001 L 240 359.999 "/>
      <path id="dp_path004" fill="none" stroke="#a7a7a7" stroke-width="1.33333" d="M 0 180 L 479.999 180 "/>
    </g>
  </g>
  <path id="ID0.7728548557497561" fill="#FF0000" stroke="none" d="M 63 93 L 412 93 L 412 114 L 63 114 L 63 93 Z " transform="matrix(0.23209169507026672, 0, 0, 1.0049331188201904, 108.35, -28.5)"/>
  <path id="ID0.17562009673565626" fill="#FF0000" stroke="none" d="M 72 169 L 85 169 L 85 256 L 72 256 L 72 169 Z " transform="matrix(1.7692307233810425, 0, 0, 1.0689655542373657, -3.3, -98.6)"/>
  <path id="ID0.8118392624892294" fill="#FF0000" stroke="none" d="M 63 242 L 416 242 L 416 264 L 63 264 L 63 242 Z " transform="matrix(0.22662889957427979, 0, 0, 1, 49.7, -88)"/>
  <path id="ID0.1924379630945623" fill="#FF0000" stroke="none" d="M 392 93 L 412 93 L 412 258 L 392 258 L 392 93 Z " transform="matrix(1.2000000476837158, 0, 0, 0.4909090995788574, -406.35, 107.3)"/>
  <path id="ID0.13021951727569103" fill="#00CC44" stroke="none" d="M 137.500 154 C 140.397 154 143.022 155.289 144.923 157.370 C 146.823 159.452 148 162.327 148 165.500 C 148 168.673 146.823 171.548 144.923 173.630 C 143.022 175.711 140.397 177 137.500 177 C 134.603 177 131.978 175.711 130.077 173.630 C 128.177 171.548 127 168.673 127 165.500 C 127 162.327 128.177 159.452 130.077 157.370 C 131.978 155.289 134.603 154 137.500 154 Z " transform="matrix(1, 0, 0, 1, 27, -61)"/>
  <path id="ID0.13021951727569103" fill="#00CC44" stroke="none" d="M 137.500 154 C 140.397 154 143.022 155.289 144.923 157.370 C 146.823 159.452 148 162.327 148 165.500 C 148 168.673 146.823 171.548 144.923 173.630 C 143.022 175.711 140.397 177 137.500 177 C 134.603 177 131.978 175.711 130.077 173.630 C 128.177 171.548 127 168.673 127 165.500 C 127 162.327 128.177 159.452 130.077 157.370 C 131.978 155.289 134.603 154 137.500 154 Z " transform="matrix(1, 0, 0, 1, 118.5, -1.5)"/>
  <path id="ID0.8118392624892294" fill="#FF0000" stroke="none" d="M 63 242 L 416 242 L 416 264 L 63 264 L 63 242 Z " transform="matrix(0.3144476115703583, 0, 0, 1, 45.15, -30)"/>
  <path id="ID0.17562009673565626" fill="#FF0000" stroke="none" d="M 72 169 L 85 169 L 85 256 L 72 256 L 72 169 Z " transform="matrix(1.7692307233810425, 0, 0, 0.8965517282485962, 54.2, -83.95)"/>
  <path id="ID0.7728548557497561" fill="#FF0000" stroke="none" d="M 63 93 L 412 93 L 412 114 L 63 114 L 63 93 Z " transform="matrix(0.2779369652271271, 0, 0, 1.0049331188201904, 179.6, 30)"/>
  <path id="ID0.1924379630945623" fill="#FF0000" stroke="none" d="M 392 93 L 412 93 L 412 258 L 392 258 L 392 93 Z " transform="matrix(1.2000000476837158, 0, 0, 0.4909090995788574, -198.05, 78.3)"/>
  <path id="ID0.7728548557497561" fill="#FF0000" stroke="none" d="M 63 93 L 412 93 L 412 114 L 63 114 L 63 93 Z " transform="matrix(0.2349570244550705, 0, 0, 1.0049331188201904, 198.65, 91)"/>
  <path id="ID0.17562009673565626" fill="#FF0000" stroke="none" d="M 72 169 L 85 169 L 85 256 L 72 256 L 72 169 Z " transform="matrix(1.7692307233810425, 0, 0, 1.2643678188323975, 85.1, -29.85)"/>
  <path id="ID0.7728548557497561" fill="#FF0000" stroke="none" d="M 63 93 L 412 93 L 412 114 L 63 114 L 63 93 Z " transform="matrix(0.23209169507026672, 0, 0, 1.0049331188201904, 138.4, 181)"/>
  <path id="ID0.17562009673565626" fill="#FF0000" stroke="none" d="M 72 169 L 85 169 L 85 256 L 72 256 L 72 169 Z " transform="matrix(1.7692307233810425, 0, 0, 0.8965517282485962, 25, 67.65)"/>
  <path id="ID0.13021951727569103" fill="#00CC44" stroke="none" d="M 137.500 154 C 140.397 154 143.022 155.289 144.923 157.370 C 146.823 159.452 148 162.327 148 165.500 C 148 168.673 146.823 171.548 144.923 173.630 C 143.022 175.711 140.397 177 137.500 177 C 134.603 177 131.978 175.711 130.077 173.630 C 128.177 171.548 127 168.673 127 165.500 C 127 162.327 128.177 159.452 130.077 157.370 C 131.978 155.289 134.603 154 137.500 154 Z " transform="matrix(1, 0, 0, 1, -32.5, 28.5)"/>
  <path id="ID0.13021951727569103" fill="#00CC44" stroke="none" d="M 137.500 154 C 140.397 154 143.022 155.289 144.923 157.370 C 146.823 159.452 148 162.327 148 165.500 C 148 168.673 146.823 171.548 144.923 173.630 C 143.022 175.711 140.397 177 137.500 177 C 134.603 177 131.978 175.711 130.077 173.630 C 128.177 171.548 127 168.673 127 165.500 C 127 162.327 128.177 159.452 130.077 157.370 C 131.978 155.289 134.603 154 137.500 154 Z " transform="matrix(1, 0, 0, 1, 57.5, 88.5)"/>
  <path id="ID0.8119510011747479" fill="none" stroke="#FFCCF2" stroke-width="4" stroke-linecap="round" d="M 195 195 L 195.300 195.300 "/>
  <path id="ID0.9979278799146414" fill="none" stroke="#CCD8FF" stroke-width="4" stroke-linecap="round" d="M 224.500 165 L 224.800 165.300 "/>
  <path id="ID0.1590651455335319" fill="none" stroke="#CCD8FF" stroke-width="4" stroke-linecap="round" d="M 163.500 164.500 L 163.800 164.800 "/>
  <path id="ID0.3885385091416538" fill="none" stroke="#CCD8FF" stroke-width="4" stroke-linecap="round" d="M 164 194.500 L 164.300 194.800 "/>
  <path id="ID0.9591608461923897" fill="none" stroke="#CCD8FF" stroke-width="4" stroke-linecap="round" d="M 193.500 224.500 L 193.800 224.800 "/>
</svg>