<?xml version="1.0" encoding="UTF-8" standalone="no"?>
<!-- Generator: Adobe Illustrator 14.0.0, SVG Export Plug-In . SVG Version: 6.00 Build 43363)  -->

<svg
   xmlns:dc="http://purl.org/dc/elements/1.1/"
   xmlns:cc="http://creativecommons.org/ns#"
   xmlns:rdf="http://www.w3.org/1999/02/22-rdf-syntax-ns#"
   xmlns:svg="http://www.w3.org/2000/svg"
   xmlns="http://www.w3.org/2000/svg"
   xmlns:xlink="http://www.w3.org/1999/xlink"
   xmlns:sodipodi="http://sodipodi.sourceforge.net/DTD/sodipodi-0.dtd"
   xmlns:inkscape="http://www.inkscape.org/namespaces/inkscape"
   enable-background="new 0 0 432 357"
   xml:space="preserve"
   version="1.1"
   y="0px"
   x="0px"
   viewBox="0 0 332.24612 309.21103"
   id="svg85"
   sodipodi:docname="bee.svg"
   width="332.24612"
   height="309.21103"
   inkscape:version="0.92.1 r15371"
   inkscape:export-filename="/home/ale/src/dojo-resources/cards-lua-love/first-asset/bee.png"
   inkscape:export-xdpi="96"
   inkscape:export-ydpi="96"><defs
     id="defs89"><linearGradient
       x1="48.227001"
       y1="124.05"
       x2="165"
       gradientUnits="userSpaceOnUse"
       y2="124.05"
       id="SVGID_2_"
       xlink:href="#SVGID_1_"><stop
         id="stop14"
         offset="0"
         style="stop-color:#E6D0E5" /><stop
         id="stop16"
         offset=".9448"
         style="stop-color:#AFE0ED" /></linearGradient><linearGradient
       x1="255"
       y1="142.69"
       x2="370.51999"
       gradientUnits="userSpaceOnUse"
       y2="142.69"
       id="SVGID_1_"><stop
         id="stop6"
         offset=".092"
         style="stop-color:#AFE0ED" /><stop
         id="stop8"
         offset="1"
         style="stop-color:#E6D0E5" /></linearGradient><linearGradient
       x1="175"
       y1="196.87"
       x2="228.33"
       gradientUnits="userSpaceOnUse"
       y2="196.87"
       id="SVGID_3_"
       gradientTransform="translate(-43.340638,-35.789983)"><stop
         id="stop44"
         offset="0"
         style="stop-color:#FFF1E8" /><stop
         id="stop46"
         offset=".1963"
         style="stop-color:#FFE474" /><stop
         id="stop48"
         offset=".6626"
         style="stop-color:#FED500" /></linearGradient><linearGradient
       x1="125.67"
       y1="217.58"
       x2="282.32999"
       gradientUnits="userSpaceOnUse"
       y2="217.58"
       id="SVGID_4_"
       gradientTransform="translate(-43.340638,-35.789983)"><stop
         id="stop53"
         offset="0"
         style="stop-color:#FFF1E8" /><stop
         id="stop55"
         offset=".1963"
         style="stop-color:#FFE474" /><stop
         id="stop57"
         offset=".6626"
         style="stop-color:#FED500" /></linearGradient><linearGradient
       x1="125.67"
       y1="246.5"
       x2="294"
       gradientUnits="userSpaceOnUse"
       y2="246.5"
       id="SVGID_5_"
       gradientTransform="translate(-43.340638,-35.789983)"><stop
         id="stop62"
         offset="0"
         style="stop-color:#FFF1E8" /><stop
         id="stop64"
         offset=".1963"
         style="stop-color:#FFE474" /><stop
         id="stop66"
         offset=".6626"
         style="stop-color:#FED500" /></linearGradient><linearGradient
       x1="145.64999"
       y1="278.01999"
       x2="281"
       gradientUnits="userSpaceOnUse"
       y2="278.01999"
       id="SVGID_6_"
       gradientTransform="translate(-43.340638,-35.789983)"><stop
         id="stop71"
         offset="0"
         style="stop-color:#FFF1E8" /><stop
         id="stop73"
         offset=".1963"
         style="stop-color:#FFE474" /><stop
         id="stop75"
         offset=".6626"
         style="stop-color:#FED500" /></linearGradient></defs><sodipodi:namedview
     pagecolor="#ffffff"
     bordercolor="#666666"
     borderopacity="1"
     objecttolerance="10"
     gridtolerance="10"
     guidetolerance="10"
     inkscape:pageopacity="0"
     inkscape:pageshadow="2"
     inkscape:window-width="2238"
     inkscape:window-height="1776"
     id="namedview87"
     showgrid="false"
     fit-margin-top="0"
     fit-margin-left="0"
     fit-margin-right="0"
     fit-margin-bottom="0"
     inkscape:zoom="1.8697726"
     inkscape:cx="-5.9044195"
     inkscape:cy="230.10775"
     inkscape:window-x="0"
     inkscape:window-y="22"
     inkscape:window-maximized="0"
     inkscape:current-layer="svg85" /><path
     inkscape:connector-curvature="0"
     id="path2"
     d="m 20.900362,1.9010167 c 0,0 -28.4480005,41.3800003 -18.9650005,143.1000033 3.724,5.71 25.2240005,27.71 70.7240005,25.21 -3,9 -13.5,69.5 59.499998,86 5.5,6 9.5,-5.5 12.5,53 3.5,-13.5 5.5,-25.5 5.5,-25.5 0,0 12.5,-18.5 18.5,-23.5 8,-2.5 28,-11 47.5,-5.5 8,-2.5 33,-16 36,-33.5 3,-17.5 2.5,-30.5 2.5,-30.5 l -16,-23 c 0,0 26,10 51.5,3 25.5,-7 34,-10.5 37,-19 3,-8.5 13,-81.500003 -7.5,-112.500003 -8.5,0.5 -72,4 -120.5,63.000003 -5.5,-0.5 -18,-3.000003 -29,-8.000003 -1,-2.5 -2.5,-5 -2.5,-5 0,0 -5.5,-4 -10,-9 -3.5,-1 -14.5,8 -31.5,10.5 -5.5,-10.5 -22,-57.5 -87.999998,-89.0000003 -6.5,-2.00000003 -11.018,-2.61700003 -17.259,0.191 z" /><path
     inkscape:connector-curvature="0"
     style="fill:#d5e5ff"
     id="path11"
     d="m 211.65936,103.88002 c 0,0 14.666,-44.000003 101.33,-58.667003 5.334,12 9.334,27.333 12.667,39.333 1.333,13.333 4,30.000003 -4,62.000003 -6,6 -16.001,14.666 -20.667,16 -4.666,1.334 -34.666,13.334 -58.666,-0.666 2.666,-2 3.999,-2.666 4.666,-6 0,-7.334 -0.666,-15.334 -3.333,-26 -1.333,-6.667 -1.333,-14 -1.333,-14 l -3.34,-8.67 c 0,0 -11.33,3.33 -27.33,-3.33 z" /><path
     inkscape:connector-curvature="0"
     style="fill:#d7e3f4;fill-opacity:1"
     id="path19"
     d="m 121.65936,91.880017 c 0,0 -9.333,4 -18,8.667003 -3.333,0.667 -6.666998,0 -6.666998,0 l -2,4.667 v 2.667 c 0,0 -5.334,4.667 -8.667,10.667 -1.333,8 -0.667,27.333 5.333,33.333 -3.333,6 -9.333,9.333 -9.333,9.333 0,0 -38,6.666 -70.667,-19.333 -4.0000005,-12 -10.0000005,-37.333 -4.6670005,-66.000003 5.3330005,-28.667 12.0070005,-60.68 24.6740005,-61.347 12.667,2 40.67,3.333 89.999998,77.337 z" /><path
     style="fill:#ffffff"
     inkscape:connector-curvature="0"
     id="path32"
     d="m 173.65936,102.54002 c 0,0 13.333,5.333 21.333,6.667 8,1.334 10.666,0 26,5.333 8,-0.66 10.67,-3.33 10.67,-3.33 0,0 4.666,2 5.333,8.667 0.667,6.667 7.333,33.333 0,40.667 -4,2.667 -6,4.667 -8,6.667 -6,2 -12,-1.333 -18,-4 -6.666,0.667 -20,5.334 -25.333,-1.333 -4,-9.334 -6.667,-16.667 -12,-23.333 5.333,-6.667 4,-10 4,-10 0,0 1.33,-10.02 -4,-26.02 z" /><path
     style="fill:#ffffff"
     inkscape:connector-curvature="0"
     id="path35"
     d="m 162.98936,93.210017 c 0,0 12,18.667003 9.333,34.000003 -5.334,13.333 -10.667,24 -21.333,28 -11.333,4.667 -14,10.667 -23.333,8.667 -9.333,-2 -26,-6.001 -32.666998,-20.667 0,-10 -3.333,-17.333 0.667,-28.667 5.999998,-6.667 15.332998,-10.667 23.332998,-14 8,-3.333003 22,-8.000003 26,-12.000003 7.34,-2 12,-2 18,4.67 z" /><path
     inkscape:connector-curvature="0"
     id="path38"
     d="m 195.65936,127.88002 c 0,0 -5.334,1.334 -6.667,8.667 2,4.667 4.667,5.333 4.667,5.333 l -4,2 c 0,0 1.333,-0.666 3.333,2 6,1.333 14,-1.333 16,-3.333 0,-5.333 -0.666,-9.333 -2.666,-11.333 -2,-2 -9.33,-0.68 -10.66,-3.34 z" /><path
     inkscape:connector-curvature="0"
     id="path40"
     d="m 120.98936,113.88002 c 0,0 4.667,3.333 8,2 2,2.667 2,3.334 4,8.667 -1.333,6.667 -2,8 -8.667,8 -4.667,-2 -6,-3.333 -8,-3.333 -1.333,-4.667 0,-8.667 0,-8.667 0,0 2.67,0.66 4.67,-6.67 z" /><path
     inkscape:connector-curvature="0"
     style="fill:url(#SVGID_3_)"
     id="path51"
     d="m 167.65936,149.88002 c 0,0 5.333,2.666 10,13.333 2.667,2.667 7.333,4 7.333,4 0,0 -7.999,8.666 -53.333,3.333 10.667,-2 12.667,-3.332 20.667,-8.666 8,-5.334 12.66,-7.99 15.33,-11.99 z" /><path
     inkscape:connector-curvature="0"
     style="fill:url(#SVGID_4_)"
     id="path60"
     d="m 234.98936,169.21002 c 0,0 0.666,4.001 4,8.667 -8.666,3.333 -33.332,13.332 -42.666,14.666 -9.334,1.334 -46,3.333 -67.333,0 -21.333,-3.333 -41.999998,-8 -46.666998,-12 0.667,-4.666 1.333,-9.332 5.333,-10.666 4,-1.334 27.999998,9.332 56.666998,10.666 28.667,1.334 56.67,0.66 90.67,-11.34 z" /><path
     inkscape:connector-curvature="0"
     style="fill:url(#SVGID_5_)"
     id="path69"
     d="m 244.32936,196.54002 6,6.667 c 0,0 1.332,5.333 -1.334,10 -8.666,4 -32,4.667 -44,10.667 -13.333,1.333 -92,2.666 -113.999998,-5.334 -5.34,-8.67 -8.67,-11.34 -8.67,-21.34 11.33,5.33 95.329998,26.67 161.999998,-0.67 z" /><path
     inkscape:connector-curvature="0"
     style="fill:url(#SVGID_6_)"
     id="path78"
     d="m 237.65936,229.88002 c 0,0 -19.333,25.999 -37.333,16.666 -12,2 -25.333,8.666 -32,8 -6.667,-0.666 -24,-1.999 -29.333,-0.666 -7.34,-2.67 -13.34,-8.67 -21.34,-10.67 -8,-2 -14.667,-5.333 -15.333,-8 -0.666,-2.667 26.667,2.667 45.333,4.667 18.666,2 24.667,-1.333 40,-2 15.333,-0.667 29.33,-1.34 50,-8 z" /><metadata
     id="metadata83"><rdf:RDF><cc:Work><dc:format>image/svg+xml</dc:format><dc:type
           rdf:resource="http://purl.org/dc/dcmitype/StillImage" /><cc:license
           rdf:resource="http://creativecommons.org/publicdomain/zero/1.0/" /><dc:publisher><cc:Agent
             rdf:about="http://openclipart.org/"><dc:title>Openclipart</dc:title></cc:Agent></dc:publisher><dc:title>Bee</dc:title><dc:date>2010-05-27T02:46:12</dc:date><dc:description>A bee, completed for the Spring 2010 Clip Art Package Release</dc:description><dc:source>https://openclipart.org/detail/63127/bee-by-pianobrad</dc:source><dc:creator><cc:Agent><dc:title>pianoBrad</dc:title></cc:Agent></dc:creator><dc:subject><rdf:Bag><rdf:li>animal</rdf:li><rdf:li>bee</rdf:li><rdf:li>bug</rdf:li><rdf:li>environment</rdf:li><rdf:li>hive</rdf:li><rdf:li>honey</rdf:li><rdf:li>spring</rdf:li><rdf:li>spring2010</rdf:li></rdf:Bag></dc:subject></cc:Work><cc:License
         rdf:about="http://creativecommons.org/publicdomain/zero/1.0/"><cc:permits
           rdf:resource="http://creativecommons.org/ns#Reproduction" /><cc:permits
           rdf:resource="http://creativecommons.org/ns#Distribution" /><cc:permits
           rdf:resource="http://creativecommons.org/ns#DerivativeWorks" /></cc:License></rdf:RDF></metadata></svg>