<?xml version="1.0" encoding="UTF-8" standalone="no"?>
<!-- Created with Inkscape (http://www.inkscape.org/) -->

<svg
   xmlns:dc="http://purl.org/dc/elements/1.1/"
   xmlns:cc="http://creativecommons.org/ns#"
   xmlns:rdf="http://www.w3.org/1999/02/22-rdf-syntax-ns#"
   xmlns:svg="http://www.w3.org/2000/svg"
   xmlns="http://www.w3.org/2000/svg"
   xmlns:sodipodi="http://sodipodi.sourceforge.net/DTD/sodipodi-0.dtd"
   xmlns:inkscape="http://www.inkscape.org/namespaces/inkscape"
   width="210mm"
   height="297mm"
   viewBox="0 0 210 297"
   version="1.1"
   id="svg8"
   inkscape:version="0.92.1 r15371"
   sodipodi:docname="dx-dy.svg">
  <defs
     id="defs2">
    <marker
       inkscape:stockid="Arrow1Mend"
       orient="auto"
       refY="0.0"
       refX="0.0"
       id="marker5640"
       style="overflow:visible;"
       inkscape:isstock="true">
      <path
         id="path5638"
         d="M 0.0,0.0 L 5.0,-5.0 L -12.5,0.0 L 5.0,5.0 L 0.0,0.0 z "
         style="fill-rule:evenodd;stroke:#000000;stroke-width:1pt;stroke-opacity:1;fill:#000000;fill-opacity:1"
         transform="scale(0.4) rotate(180) translate(10,0)" />
    </marker>
    <marker
       inkscape:stockid="EmptyTriangleOutL"
       orient="auto"
       refY="0.0"
       refX="0.0"
       id="EmptyTriangleOutL"
       style="overflow:visible"
       inkscape:isstock="true">
      <path
         id="path5362"
         d="M 5.77,0.0 L -2.88,5.0 L -2.88,-5.0 L 5.77,0.0 z "
         style="fill-rule:evenodd;fill:#ffffff;stroke:#000000;stroke-width:1pt;stroke-opacity:1"
         transform="scale(0.8) translate(-6,0)" />
    </marker>
    <marker
       inkscape:stockid="Arrow1Mend"
       orient="auto"
       refY="0.0"
       refX="0.0"
       id="Arrow1Mend"
       style="overflow:visible;"
       inkscape:isstock="true">
      <path
         id="path5211"
         d="M 0.0,0.0 L 5.0,-5.0 L -12.5,0.0 L 5.0,5.0 L 0.0,0.0 z "
         style="fill-rule:evenodd;stroke:#000000;stroke-width:1pt;stroke-opacity:1;fill:#000000;fill-opacity:1"
         transform="scale(0.4) rotate(180) translate(10,0)" />
    </marker>
    <marker
       inkscape:stockid="Arrow1Lend"
       orient="auto"
       refY="0.0"
       refX="0.0"
       id="Arrow1Lend"
       style="overflow:visible;"
       inkscape:isstock="true">
      <path
         id="path5205"
         d="M 0.0,0.0 L 5.0,-5.0 L -12.5,0.0 L 5.0,5.0 L 0.0,0.0 z "
         style="fill-rule:evenodd;stroke:#000000;stroke-width:1pt;stroke-opacity:1;fill:#000000;fill-opacity:1"
         transform="scale(0.8) rotate(180) translate(12.5,0)" />
    </marker>
    <linearGradient
       id="linearGradient7607"
       y2="471.38"
       spreadMethod="reflect"
       gradientUnits="userSpaceOnUse"
       y1="45.132999"
       gradientTransform="matrix(0.75592,0,0,1.3229,-36,0)"
       x2="1370.6"
       x1="-526.85999"
       inkscape:collect="always">
      <stop
         id="stop7603"
         style="stop-color:#000000"
         offset="0" />
      <stop
         id="stop7605"
         style="stop-color:#000000;stop-opacity:0"
         offset="1" />
    </linearGradient>
  </defs>
  <sodipodi:namedview
     id="base"
     pagecolor="#ffffff"
     bordercolor="#666666"
     borderopacity="1.0"
     inkscape:pageopacity="0.0"
     inkscape:pageshadow="2"
     inkscape:zoom="7.9195959"
     inkscape:cx="379.68308"
     inkscape:cy="844.62508"
     inkscape:document-units="mm"
     inkscape:current-layer="layer1"
     showgrid="false"
     inkscape:window-width="2238"
     inkscape:window-height="1776"
     inkscape:window-x="0"
     inkscape:window-y="22"
     inkscape:window-maximized="0" />
  <metadata
     id="metadata5">
    <rdf:RDF>
      <cc:Work
         rdf:about="">
        <dc:format>image/svg+xml</dc:format>
        <dc:type
           rdf:resource="http://purl.org/dc/dcmitype/StillImage" />
        <dc:title></dc:title>
      </cc:Work>
    </rdf:RDF>
  </metadata>
  <g
     inkscape:label="Layer 1"
     inkscape:groupmode="layer"
     id="layer1">
    <text
       xml:space="preserve"
       style="font-style:normal;font-variant:normal;font-weight:normal;font-stretch:normal;font-size:10.58333302px;line-height:6.61458302px;font-family:Inconsolata;-inkscape-font-specification:Inconsolata;letter-spacing:0px;word-spacing:0px;fill:#000000;fill-opacity:1;stroke:none;stroke-width:0.26458332px;stroke-linecap:butt;stroke-linejoin:miter;stroke-opacity:1"
       x="115.19317"
       y="14.763378"
       id="text4487"><tspan
         sodipodi:role="line"
         id="tspan4485"
         x="115.19317"
         y="21.457336"
         style="stroke-width:0.26458332px" /></text>
    <text
       xml:space="preserve"
       style="font-style:normal;font-variant:normal;font-weight:normal;font-stretch:normal;font-size:4.58611107px;line-height:6.61458302px;font-family:Inconsolata;-inkscape-font-specification:Inconsolata;letter-spacing:0px;word-spacing:0px;fill:#000000;fill-opacity:1;stroke:none;stroke-width:0.26458332px;stroke-linecap:butt;stroke-linejoin:miter;stroke-opacity:1"
       x="84.424744"
       y="97.04982"
       id="text4491"><tspan
         sodipodi:role="line"
         id="tspan4489"
         x="84.424744"
         y="97.04982"
         style="font-size:4.58611107px;stroke-width:0.26458332px">dx</tspan></text>
    <text
       xml:space="preserve"
       style="font-style:normal;font-variant:normal;font-weight:normal;font-stretch:normal;font-size:4.58611107px;line-height:6.61458302px;font-family:Inconsolata;-inkscape-font-specification:Inconsolata;letter-spacing:0px;word-spacing:0px;fill:#000000;fill-opacity:1;stroke:none;stroke-width:0.26458332px;stroke-linecap:butt;stroke-linejoin:miter;stroke-opacity:1"
       x="97.820656"
       y="77.43808"
       id="text4495"><tspan
         sodipodi:role="line"
         id="tspan4493"
         x="97.820656"
         y="77.43808"
         style="stroke-width:0.26458332px">dy</tspan></text>
    <g
       transform="matrix(0.00690709,0,0,0.00690709,95.027077,58.320909)"
       id="g1317">
      <path
         id="path6080"
         style="fill:url(#linearGradient7607)"
         inkscape:connector-curvature="0"
         d="m 70.29,24.826 v 602.34 h 35.44 v -35.44 h 35.44 v -35.4 h 35.4 v -35.44 h 70.88 v 70.84 h 35.43 v 70.88 h 35.44 v 70.87 h 35.44 v 35.44 h 70.84 v -35.44 h 35.44 v -70.87 H 424.6 v -70.88 h -35.4 v -70.84 h -35.44 v -70.88 h 141.72 v -35.43 h -35.44 v -35.44 H 424.6 v -35.44 h -35.4 v -35.41 h -35.44 v -35.43 h -35.44 v -35.44 h -35.44 v -35.44 h -35.43 v -35.44 h -35.44 v -35.43 h -35.44 v -35.44 h -35.4 V 60.256 H 105.73 V 24.818 H 70.29 Z" />
      <path
         id="rect1430"
         style="fill:#000000;fill-rule:evenodd"
         inkscape:connector-curvature="0"
         d="m 35.438,24.812 v 602.35 h 35.437 v -35.44 h 35.435 v -35.41 H 70.875 V 95.662 L 106.31,95.66 V 60.254 H 70.875 V 24.816 H 35.438 Z m 70.872,70.844 v 35.434 h 35.41 V 95.656 Z m 35.41,35.434 v 35.44 h 35.44 v -35.44 z m 35.44,35.44 v 35.44 h 35.43 v -35.44 z m 35.43,35.44 v 35.44 h 35.44 v -35.44 z m 35.44,35.44 v 35.43 h 35.44 v -35.43 z m 35.44,35.43 v 35.44 h 35.44 v -35.44 z m 35.44,35.44 v 35.41 h 35.43 v -35.41 z m 35.43,35.41 v 35.43 h 35.41 v -35.43 z m 35.41,35.43 v 35.44 H 283.47 v 106.32 h 35.44 V 450 h 141.71 v -35.44 h -35.43 v -35.44 z m -70.84,141.76 v 70.84 h 35.43 v -70.84 z m 35.43,70.84 v 70.87 h 35.41 v -70.87 z m 35.41,70.87 v 70.88 h 35.44 v -70.88 z m 0,70.88 h -70.84 v 35.44 h 70.84 z m -70.84,0 v -70.88 h -35.44 v 70.88 z m -35.44,-70.88 v -70.87 h -35.44 v 70.87 z m -35.44,-70.87 v -70.84 h -35.44 v 70.84 z M 212.59,520.88 V 450 h -35.43 v 35.44 h -35.44 v 35.44 z m -70.87,0 h -35.41 v 35.43 h 35.41 z" />
      <path
         id="rect3779"
         style="fill:#ffffff"
         inkscape:connector-curvature="0"
         d="m 70.875,95.656 v 460.65 h 35.435 v -35.43 h 35.41 v -35.44 h 35.44 v -35.44 h 35.43 v 70.88 h 35.44 v 70.84 h 35.44 v 70.87 h 35.44 v 70.88 h 70.84 v -70.88 h -35.41 v -70.87 h -35.43 v -70.84 h -35.44 v -106.32 h 106.28 v -35.44 h -35.41 v -35.43 h -35.43 v -35.41 h -35.44 v -35.44 h -35.44 v -35.43 h -35.44 v -35.44 h -35.43 v -35.44 h -35.44 v -35.44 H 106.31 V 95.648 H 70.875 Z" />
    </g>
    <text
       xml:space="preserve"
       style="font-style:normal;font-variant:normal;font-weight:normal;font-stretch:normal;font-size:4.58611107px;line-height:6.61458302px;font-family:Inconsolata;-inkscape-font-specification:Inconsolata;letter-spacing:0px;word-spacing:0px;fill:#000000;fill-opacity:1;stroke:none;stroke-width:0.26458332px;stroke-linecap:butt;stroke-linejoin:miter;stroke-opacity:1"
       x="78.31665"
       y="93.696014"
       id="text5158"><tspan
         sodipodi:role="line"
         id="tspan5156"
         x="78.31665"
         y="93.696014"
         style="stroke-width:0.26458332px">*</tspan></text>
    <path
       style="fill:none;fill-rule:evenodd;stroke:#000000;stroke-width:0.26458332px;stroke-linecap:butt;stroke-linejoin:miter;stroke-opacity:1"
       d="M 81.075891,92.514879 H 96.00595 V 63.221726"
       id="path5160"
       inkscape:connector-curvature="0" />
    <path
       style="fill:none;fill-rule:evenodd;stroke:#000000;stroke-width:0.26499999;stroke-linecap:butt;stroke-linejoin:miter;stroke-opacity:1;stroke-miterlimit:4;stroke-dasharray:0.52999997,0.52999997;stroke-dashoffset:0;marker-end:url(#marker5640)"
       d="M 81.075891,92.514879 96.00595,63.221726"
       id="path5162"
       inkscape:connector-curvature="0"
       sodipodi:nodetypes="cc" />
  </g>
</svg>
