<?xml version="1.0" encoding="UTF-8" standalone="no"?>
<svg
   xmlns:dc="http://purl.org/dc/elements/1.1/"
   xmlns:cc="http://creativecommons.org/ns#"
   xmlns:rdf="http://www.w3.org/1999/02/22-rdf-syntax-ns#"
   xmlns:svg="http://www.w3.org/2000/svg"
   xmlns="http://www.w3.org/2000/svg"
   xmlns:sodipodi="http://sodipodi.sourceforge.net/DTD/sodipodi-0.dtd"
   xmlns:inkscape="http://www.inkscape.org/namespaces/inkscape"
   version="1.1"
   id="Layer_1"
   x="0px"
   y="0px"
   viewBox="0 0 1057.6038 290.29672"
   enable-background="new 0 0 1280 1191"
   xml:space="preserve"
   sodipodi:docname="frog-feet.svg"
   width="1057.6038"
   height="290.29672"
   inkscape:version="0.92.4 (5da689c313, 2019-01-14)"><metadata
   id="metadata913"><rdf:RDF><cc:Work
       rdf:about=""><dc:format>image/svg+xml</dc:format><dc:type
         rdf:resource="http://purl.org/dc/dcmitype/StillImage" /><dc:title></dc:title></cc:Work></rdf:RDF></metadata><defs
   id="defs911" /><sodipodi:namedview
   pagecolor="#ffffff"
   bordercolor="#666666"
   borderopacity="1"
   objecttolerance="10"
   gridtolerance="10"
   guidetolerance="10"
   inkscape:pageopacity="0"
   inkscape:pageshadow="2"
   inkscape:window-width="2238"
   inkscape:window-height="1776"
   id="namedview909"
   showgrid="false"
   showguides="true"
   inkscape:guide-bbox="true"
   fit-margin-top="0"
   fit-margin-left="0"
   fit-margin-right="0"
   fit-margin-bottom="0"
   inkscape:zoom="1"
   inkscape:cx="787.36832"
   inkscape:cy="75.831954"
   inkscape:window-x="0"
   inkscape:window-y="22"
   inkscape:window-maximized="0"
   inkscape:current-layer="Layer_1" />

<path
   id="path834-6"
   d="m 779.14068,0.0323698 c -9.43,12.4046002 -18.9524,22.7257002 -29.4973,34.1622002 -3.35,3.73 -7.04,7.16 -10.17,11.07 6.98,14.47 20.28,25.26 34.99,31.31 0.98,0.41 1.98,0.8 2.99,1.18 4.04,1.36 8.35,3.59 12.66,1.92 29.1,-9.25 58.23,-18.38 87.36,-27.55 2.54,-0.83 5.02,-1.82 7.5,-2.82 3.77,-0.57 7.58,-0.53 11.38,-0.52 9.07,1.59 17.03,6.75 24.21,12.28 8.44,6.52 16.24,15.09 18.35,25.87 0.19,3.57 0.14,7.16 -0.14,10.74 -0.21,1.14 -0.47,2.28 -0.7,3.43 4.74,0.62 9.78,1.98 14.3799,-0.07 18.48,-7.4 38.21,-13.16 58.32002,-12.12 2.96,0.29 5.92,0.63 8.89,1.06 8.61,1.33 17.1801,4.46 23.84,10.21 7.39,6.44 11.41,16.07 12.3301,25.71 0.02,5.15 0,10.3 0.07,15.46 -0.8199,12.03 -5.02,23.4501 -8.86,34.76 3.0601,13.76 7.5,27.22 10.5601,40.99 0.06,17.1901 -8.5801,33.04 -18.65,46.4501 -8.64,11.5099 -20.5701,22.0299 -35.39,23.7799 -8.68002,1.3101 -17.13002,-1.7899 -24.89002,-5.3199 -46.36,-20.76 -92.83,-41.27 -139.24,-61.91 l -1.04,0.96 c -1,1.03 -1.44,2.4801 -0.66,3.8101 2.98,7.99 6.37,15.8199 9.46,23.78 1.77,4.1599 0.19,8.78 -1.42,12.75 -3.36,7.45 -9.64,13.12 -16.25,17.6799 -8.29,5.73 -17.78,10.14 -27.91,11.03 -13.2,1.04 -26.56,-2.4299 -37.97,-9.02 -3.35,-2.1899 -6.58,-4.5499 -9.88,-6.7999 -1.39,-1.36 -2.73,-2.75 -4.1299,-4.0801 -4.51,-4.65 -8.4901,-9.77 -12.01,-15.2 -7.73,-11.22 -15.64,-22.3101 -23.63,-33.33 -2.33,-3.3401 -5.13,-6.38 -7.01,-10 -1.74,-6.25 1.54,-13.63 -2.85,-19.16 -13.29,-19.66 -30.28,-36.4501 -47.51,-52.63 -24.23,-22.56 -49.94,-43.45 -75.94,-63.93 -32.4166,-25.8865 -61.22588,-48.3861 -92.19257,-75.9323002 m 0,0 c -0.12747,-0.1134 0.24111,0.1169 0.11355,0 m -103.06531,0 C 325.04448,35.53327 269.56385,69.24777 211.59362,108.73157 c -1.47,1.01 -2.91,2.08 -4.34,3.17 12.56,1.68 25.15,3.14 37.71,4.8199 12.16,1.58 24.36,3.26 36.64,3.17 7.73,-0.01 15.32,-1.62 22.93,-2.82 65.95,-10.75 131.91,-21.44 197.86,-32.14 8.07,-1.31 16.21,-3.19 24.4301,-2.07 1.81,0.25 3.6299,0.54 5.45,0.79 10.67996,3.75 20.43996,10.31 28.11996,18.62 8.05,8.68 12.12,21.38 8.7401,32.96 -0.27,0.9 -0.57,1.8 -0.88,2.71 -0.13,0.33 -0.41,0.99 -0.54,1.32 15.19,3.37 30.03,8.09 44.79,12.99 7.48,3.1 14.75,6.6899 22.1,10.09 14.33,8.16 28.89,19 34.47,35.2101 1.37,4.98 3.37,10.7799 0.47,15.59 -5.4,10.73 -10.82,21.4399 -16.09,32.23 -25.89,0.17 -51.77,0.03 -77.66,0.07 -9.18,12.9401 -20.19,25.1901 -34.50996,32.4801 -8.81,4.6699 -18.78,7.0399 -28.74,6.9099 -27.19,-0.11 -54.23,-3.47 -81.1,-7.2799 -45,-6.3101 -89.34,-16.52 -134.27,-23.25 -26.75,-4.14 -53.66,-7.4301 -80.71,-8.63 -15.26,-0.25 -30.54,-0.37 -45.75,-1.8201 -41.28,-3.2999 -82.030002,-11.0699 -123.170002,-15.6799 -10.36,-0.8401 -20.39,-5.99 -26.86,-14.1801 -4.78,-6.03 -7.65,-13.24 -10.9299998,-20.13 -3.44,-7.8199 -7.26,-15.5599 -9.75000004,-23.73 -0.17,-16.25 5.36000004,-31.98 11.94999984,-46.64 12.3,-26.24 29.54,-49.8 47.82,-72.16 17.02,-20.71 28.45189,-32.2392 47.281892,-51.2992002 m 40.39048,0 C 100.49668,56.41617 57.200488,112.57437 24.393518,165.10147 c 5.14,10.29 9.71,20.9 15.07,31.0801 11.98,2.11 24.19,3.08 36.25,4.84 54.500002,6.6899 109.000002,13.6799 163.780002,17.65 13.02,1 26.12,0.4199 39.12,1.6699 22.31,2.1 44.31,6.63 66.11,11.6901 24.58,5.75 48.76,13.0699 73.39,18.58 23.52,5.28 47.31,10.08 71.46,11 5.3199,0.4401 10.3,-1.76 15.31,-3.2 12.67,-3.87 25.31,-7.8201 38.01996,-11.5601 -5.43996,-8.88 -11.70996,-17.21 -17.44996,-25.89 -29.3199,-0.71 -58.59,-2.9399 -87.87,-4.63 -24.69,-0.95 -49.38,-2.48 -74.11,-2.2 -2.77,-4.95 -5.57,-9.88 -8.09,-14.96 21.33,-2.04 42.72,-3.5801 64.11,-4.9801 23.98,-1.5599 48.03,-2.83 72.07,-2.0599 6.35,0.08 12.57,1.72 18.94,1.61 16.14,0.13 32.07996,6.54 43.81996,17.61 4.64,4.0701 8.34,9.02 12.16,13.8301 1.61,0.5199 3.27,0.99 5,0.98 20.04,-0.08 40.08,-0.12 60.11,0.02 1.71,-0.02 3.44,-0.29 4.97,-1.1001 l 0.72,-0.02 c 2.66,-6.1499 6.17,-11.8799 9.27,-17.8099 -5.67,-5.1 -11.56,-9.97 -17.81,-14.34 -25.67,-18.41 -56.79,-28.6801 -88.27996,-30.27 -23.72,-1.23 -47.36,1.98 -70.91,4.4399 -29.23,3.49 -58.52,7.27 -88,7.48 -4.31,-0.12 -8.96,-0.22 -12.69,-2.6699 -3.26,-2.09 -4.89,-6.4401 -3.75,-10.14 0.61,-2.5601 3.39,-3.46 5.4,-4.66 21.23,-10.75 45.28,-14.15 68.77,-15.6 29.06,-1.76 58.19,0.32 87.12,2.96 6.82,-3.8 12.82,-9.06 19.35996,-13.38 -10.58996,-6.48 -21.26996,-12.81 -31.90996,-19.2 -4.28,-2.37 -9.23,0.38 -13.73,0.75 -32.2,6.03 -64.35,12.32 -96.51,18.56 -26.81,5.31 -53.77,10.03 -81,12.57 -14.66,1.23 -29.45,2.05 -44.12,0.5 -30.92,-2.93 -61.89,-5.37 -92.8,-8.49 -7.03,-1.36 -12.86,-5.96 -18.35,-10.3 22.97,-22.6201 49.38,-41.31 75.64,-59.86 28.06,-19.51 65.115,-47.2892 93.995,-65.5692002 m 190.01657,0 C 537.90256,11.65877 552.57218,25.58337 564.54348,36.12197 c 14.37,12.86 30.15,23.97 45.88,35.09 30.83,22.22 61.21,45.21 89.22,70.96 5.89,6.07 13.07,11.22 17.05,18.8701 12.15,22.0399 23.31,44.61 34.99,66.8999 8.26,14.6801 19.51,29.5801 36.24,34.8301 9.5,3.33 19.42,0.14 28.97,-1.17 0.4301,-7.1799 2.19,-14.21 2.44,-21.39 -0.89,-7.6799 -5.3,-14.2999 -8.96,-20.9099 -4.95,-8.77 -8.22,-18.9901 -6.9,-29.14 0.55,-4.41 4.47,-7.63 8.69,-8.3501 4.33,-1.1699 8.71,0.3301 12.7,1.9601 36.97,15.59 70.84,37.6 107.83,53.14 17.92,7.4199 36.5099,13.7899 55.87,16.02 6.58,0.5199 13.46002,1.23 19.84002,-0.9701 7.11,-2.46 13.27,-7.12 18.47,-12.48 4.99,-5.21 8.89,-11.97 8.9501,-19.35 0.37,-8.02 -3.38,-15.75 -8.9601,-21.33 -7.62,-7.67 -17.5099,-12.6001 -27.45002,-16.53 -17.34,-6.87 -35.78,-9.98 -53.87,-14.12 -21.18,-5.01 -42.52,-10 -62.65,-18.41 -5.48,-2.11 -10.27,-5.47 -14.89,-9 -4.79,-0.47 -9.66,0.28 -14.42,-0.66 -4.34,-0.66 -9.21,-2.79 -10.6,-7.32 -1.69,-6.51 1.58,-13.49 6.87,-17.36 6.81,-4.9301 15.24,-7.38 23.58,-7.97 11.04,-0.72 22.01,-2.18 32.99,-3.55 2.88,-4.52 5.57,-9.16 8.33,-13.75 -3.05,-4.29 -6.6,-8.37 -11.27,-10.92 -7.79,-4.45 -17.23,-4.71 -25.83,-2.97 -28.86,5.51 -53.83,22.27 -81.98,29.99 -5.51,1.51 -11.42,2.42 -17.01,0.77 -10.54,-2.65 -18.94,-9.84 -27.44,-16.19 l 0.11,-0.54 c -9.74,-8.21 -18.11,-17.9 -26.29,-27.63 -16.9232,-20.6724 -26.5711,-40.1378 -41.0078,-62.6097002 m 35.9078,17.9996002 c 10.93,-3.87 20.53,-10.3496002 29.12,-17.9996002 0,0 -41.795,18.9696002 -32.975,5.7796 m 226.565,118.3800002 c -6.5,2.67 -13.22,4.91 -19.36,8.37 17.28,5.31 34.63,10.43 52.23,14.61 18.34,4.15 36.99002,8.3701 55.89002,8.15 2.45,-2.76 3.15,-6.7599 4.0699,-10.27 1.3401,-10.06 -1.5199,-21.58 -10.0199,-27.85 -8.25,-6.05 -18.99,-6.82 -28.87012,-6.43 -18.6399,1.01 -36.5899,6.9 -53.9399,13.42 z"
   inkscape:connector-curvature="0"
   style="fill:#571f3b"
   sodipodi:nodetypes="ccccccccccccccccccccccccccccccccccccccccccccccccccccccccccccccccccccccccccccccccccccccccccccccccccccccccccccccccccccccccccccccccccccccccccccccccccccccccccccccccccccccc" /><path
   id="path854-7"
   d="M 488.50893,0.0323698 C 518.58152,26.58877 549.33768,50.93307 580.68348,75.96457 c 26,20.48 51.71,41.37 75.94,63.93 -0.33,0.36 -1,1.09 -1.33,1.46 -25.78,-24.05 -53.09,-46.38 -80.8,-68.14 -21.56,-17.07 -42.92996,-34.3701 -64.00996,-52.02 -8.48456,-7.1756 -16.45675,-13.8287002 -24.81959,-21.1622002 z"
   enable-background="new    "
   inkscape:connector-curvature="0"
   style="opacity:0.95999995;fill:#77da1c"
   sodipodi:nodetypes="cccccccc" /><path
   id="path856-0"
   d="M 211.59352,108.73457 C 268.04841,70.28297 325.45886,34.68837 384.32359,0.0323698 h 5.38788 C 332.3619,33.70467 276.14683,68.39217 221.16352,105.82107 c -1.31,0.96 -2.51,2.06 -3.7,3.18 9.34,1.27 18.73,2.65 28.18,2.63 -1.73,0.37 -3.45,0.73 -5.18,1.07 8.74,-0.36 17.34,1.82 26.08,1.93 8.33,0.07 16.68,0.33 25,-0.14 8.55,-0.9 16.96,-2.81 25.5,-3.84 0,-0.25 0.01,-0.75 0.01,-1.01 9.91,-0.01 19.58,-2.51 29.34,-3.9 7.39,-0.92 14.67,-2.61 22.09,-3.22 -0.96,-0.34 -1.91,-0.66 -2.85,-0.96 9.04,0.43 17.82,-2.18 26.76,-3.01 -0.57,-0.33 -1.13,-0.65 -1.68,-0.96 4.95,0.19 9.83,-0.78 14.76,-1.04 -0.95,-0.34 -1.9,-0.68 -2.84,-0.99 11.1,0.45 21.79,-3.2 32.79,-4.01 -0.58,-0.31 -1.14,-0.61 -1.71,-0.89 10.96,-0.7599 21.78,-2.77 32.67,-4.09 -0.56,-0.34 -1.12,-0.67 -1.68,-0.99 13.03,-0.17 25.74,-3.76 38.69,-5.03 -0.5699,-0.33 -1.13,-0.65 -1.69,-0.96 6.31,0.2401 12.59,-1.55 18.89,-0.41 4.92,0.39 9.28,2.94 14.1,3.85 -0.61,0.15 -1.82,0.47 -2.42,0.6201 -1.82,-0.25 -3.64,-0.54 -5.45,-0.79 -9.46,-2.28 -19.19,-1.12 -28.59,0.78 -66.8,10.89 -133.61,21.75 -200.42,32.61 -21.46,4.09 -43.18,-0.44 -64.54,-2.93 -7.3,-1.1001 -15.06,-0.8601 -21.68,-4.5901 z"
   enable-background="new    "
   inkscape:connector-curvature="0"
   style="opacity:0.45;fill:#52703e"
   sodipodi:nodetypes="ccccccccccccccccccccccccccccccccc" /><path
   id="path858-9"
   d="m 485.66482,0.0323698 c 8.31052,7.2842 16.389,14.0330002 24.8187,21.1622002 21.08,17.65 42.44996,34.95 64.00996,52.02 27.71,21.7599 55.02,44.09 80.8,68.14 13.19,12.86 26.43,25.8301 37.21,40.85 2.5099,3.6001 5.7599,7.24 5.74,11.91 0.36,5.17 -0.61,11.03 2.87,15.4 10.71,14.38 21.05,29.04 31.23,43.8099 4.83,6.4501 10.15,12.9 17.29,16.89 1.4,1.3301 2.74,2.7201 4.1299,4.0801 -8.45,-3.67 -15.28,-10.3201 -20.97,-17.41 -10.73,-14.9401 -20.94,-30.26 -32.06,-44.91 -1.68,-2.35 -3.69,-4.78 -3.79,-7.7999 -0.45,-5.3501 1.0099,-11.3301 -2.42,-15.9801 -12.44,-18.5099 -28.21,-34.49 -44.38,-49.7299 -27.39,-25.4901 -56.62,-48.88 -86.06,-71.92 -27.11339,-21.8404 -54.04312,-43.5567 -80.22797,-66.5123002 z"
   enable-background="new    "
   inkscape:connector-curvature="0"
   style="opacity:0.56000001;fill:#5b8a3d"
   sodipodi:nodetypes="ccccccccccccccccccc" /><path
   id="path860-3"
   d="m 856.40348,51.84457 c 6.48,-1.56 12.46,-4.8199 19.09,-5.81 7.12,-1.27 13.84,2.36 20.86,2.75 -3.8,-0.01 -7.61,-0.05 -11.38,0.52 -6.91,-1.3 -13.94,-0.25 -20.55,1.94 -23.81,7.59 -47.68,15.01 -71.48,22.64 -5.09,1.53 -10.09,3.78 -15.4901,3.87 -1.0099,-0.38 -2.0099,-0.77 -2.99,-1.18 4.39,-0.03 8.56,-1.57 12.68,-2.9 23.1101,-7.22 46.1101,-14.75 69.2601,-21.83 z"
   enable-background="new    "
   inkscape:connector-curvature="0"
   style="opacity:0.56000001;fill:#5b8a3d"
   sodipodi:nodetypes="cccccccccc" /><path
   id="path862-6"
   d="m 838.39348,221.06447 1.04,-0.96 c 46.41,20.64 92.88,41.15 139.24,61.91 -7.38,-0.97 -13.89,-4.77 -20.64,-7.61 -39.86,-17.8199 -79.89,-35.2799 -119.64,-53.34 z"
   enable-background="new    "
   inkscape:connector-curvature="0"
   style="opacity:0.56000001;fill:#5b8a3d"
   sodipodi:nodetypes="ccccc" /><path
   id="path864-0"
   d="m 483.81788,0.0323698 c 26.14173,22.9111002 53.20023,44.7104002 80.2656,66.5122002 29.44,23.04 58.67,46.43 86.06,71.92 16.17,15.2399 31.94,31.22 44.38,49.7299 3.43,4.65 1.97,10.63 2.42,15.9801 0.1,3.0199 2.11,5.45 3.79,7.7999 11.12,14.65 21.33,29.97 32.06,44.91 5.69,7.09 12.52,13.74 20.97,17.41 3.3,2.25 6.53,4.61 9.88,6.7999 -6.65,-1.47 -12.3,-5.47 -17.75,-9.33 -6.75,-5.1901 -12.89,-11.29 -17.59,-18.41 -9.09,-13.1799 -18.31,-26.26 -27.83,-39.13 -1.56,-2.11 -3.27,-4.15 -4.36,-6.5499 -2.58,-5.8201 0.67,-12.75 -2.73,-18.3201 -8.25,-13.38 -19.51,-24.49 -30.02,-36.0499 -5.83,-6.1901 -12.52,-11.4601 -18.43,-17.5701 -27.52,-25.38 -56.97,-48.53 -86.31,-71.74 -61.5888,-47.4721 -74.8056,-63.9620002 -74.8056,-63.9620002 z"
   enable-background="new    "
   inkscape:connector-curvature="0"
   style="opacity:0.36000001;fill:#46573a"
   sodipodi:nodetypes="cccccccccccccccccc" /><path
   id="path866-6"
   d="m 939.53348,95.95457 c 18.25,-7.46 38.01,-12.67 57.87,-11.2 7.61002,0.69 15.09002,2.55 22.26002,5.22 -2.97,-0.43 -5.9301,-0.77 -8.89,-1.06 -14.92002,-1.95 -30.23002,-2.07 -45.02002,0.88 -9.25,1.72 -17.91,5.52 -26.98,7.88 0.28,-3.58 0.33,-7.17 0.14,-10.74 0.56,2.97 0.61,5.99 0.62,9.02 z"
   enable-background="new    "
   inkscape:connector-curvature="0"
   style="opacity:0.36000001;fill:#46573a"
   sodipodi:nodetypes="cccccccc" /><path
   id="path868-2"
   d="m 568.25348,137.94457 c 0.31,-0.91 0.61,-1.81 0.88,-2.71 3.39,1.72 7.0699,2.73 10.75,3.68 13.79,3.8 27.3199,8.6 40.3,14.6401 4.95,2.6399 10.47,4.6399 14.42,8.7899 -7.35,-3.4 -14.62,-6.99 -22.1,-10.09 -14.27,-6.12 -29.29,-10.28 -44.25,-14.31 z"
   enable-background="new    "
   inkscape:connector-curvature="0"
   style="opacity:0.36000001;fill:#46573a"
   sodipodi:nodetypes="ccccccc" /><path
   id="path870-6"
   d="m 864.42348,51.24457 c 6.61,-2.19 13.64,-3.24 20.55,-1.94 -2.48,1 -4.96,1.99 -7.5,2.82 -29.13,9.17 -58.26,18.3 -87.36,27.55 -4.31,1.67 -8.62,-0.56 -12.66,-1.92 5.4,-0.09 10.4,-2.34 15.4901,-3.87 23.7999,-7.63 47.6699,-15.05 71.4799,-22.64 z"
   enable-background="new    "
   inkscape:connector-curvature="0"
   style="opacity:0.93000034;fill:#62de0f"
   sodipodi:nodetypes="ccccccc" /><path
   id="path872-1"
   d="m 567.71348,139.26457 c 0.13,-0.33 0.41,-0.99 0.54,-1.32 14.96,4.03 29.98,8.19 44.25,14.31 -14.76,-4.9 -29.6,-9.62 -44.79,-12.99 z"
   enable-background="new    "
   inkscape:connector-curvature="0"
   style="opacity:0.93000034;fill:#62de0f"
   sodipodi:nodetypes="cccc" /><path
   id="path874-8"
   d="m 1055.8335,125.89457 c 1,5.07 1.1899,10.38 0.07,15.46 -0.07,-5.16 -0.05,-10.31 -0.07,-15.46 z"
   enable-background="new    "
   inkscape:connector-curvature="0"
   style="opacity:0.6;fill:#4e2e3e"
   sodipodi:nodetypes="ccc" /><path
   style="fill:#6bdd02"
   inkscape:connector-curvature="0"
   d="M 144.40364,0.0323698 C 99.918178,54.00957 61.141058,105.53907 24.393518,165.10457 c 5.14,10.29 9.71,20.9 15.07,31.0801 11.98,2.11 24.19,3.08 36.25,4.84 54.500002,6.6899 109.000002,13.6799 163.780002,17.65 13.02,1 26.12,0.4199 39.12,1.6699 22.31,2.1 44.31,6.63 66.11,11.6901 24.58,5.75 48.7599,13.0699 73.3901,18.58 23.52,5.28 47.3099,10.08 71.46,11 5.3199,0.4401 10.3,-1.76 15.3101,-3.2 12.6699,-3.87 25.3099,-7.8201 38.01986,-11.5601 -5.44006,-8.88 -11.70996,-17.21 -17.45006,-25.89 -29.3198,-0.71 -58.5898,-2.9399 -87.8699,-4.63 -24.6899,-0.95 -49.38,-2.48 -74.1101,-2.2 -2.7699,-4.95 -5.5699,-9.88 -8.0899,-14.96 21.33,-2.04 42.72,-3.5801 64.1099,-4.9801 23.98,-1.5599 48.03,-2.83 72.0701,-2.0599 6.35,0.08 12.5701,1.72 18.9399,1.61 16.14,0.13 32.08006,6.54 43.82006,17.61 4.6399,4.0701 8.34,9.02 12.1599,13.8301 23.3601,-0.29 46.72,-0.1201 70.0801,-0.1001 l 0.72,-0.02 c 2.66,-6.1499 6.1699,-11.8799 9.27,-17.8099 -5.6699,-5.1 -11.5601,-9.97 -17.8101,-14.34 -25.6699,-18.41 -56.79,-28.6801 -88.27996,-30.27 -23.72,-1.23 -47.3599,1.98 -70.9099,4.4399 -29.23,3.49 -58.52,7.27 -88,7.48 -4.3101,-0.12 -8.96,-0.22 -12.6899,-2.6699 -3.26,-2.09 -4.8901,-6.4401 -3.75,-10.14 0.6099,-2.5601 3.3899,-3.46 5.3999,-4.66 21.23,-10.75 45.28,-14.15 68.77,-15.6 29.0601,-1.76 58.1899,0.32 87.12,2.96 6.8199,-3.8 12.8199,-9.06 19.35996,-13.38 -10.58996,-6.48 -21.26996,-12.81 -31.90986,-19.2 -4.28,-2.37 -9.23,0.38 -13.73,0.75 -32.2001,6.03 -64.3501,12.32 -96.51,18.56 -26.8101,5.31 -53.7701,10.03 -81.0001,12.57 -14.66,1.23 -29.45,2.05 -44.12,0.5 -30.92,-2.93 -61.89,-5.37 -92.8,-8.49 -7.03,-1.36 -12.86,-5.96 -18.35,-10.3 22.97,-22.6201 49.38,-41.31 75.64,-59.86 28.06,-19.51 70.1332,-47.2923 99.0132,-65.5723002 z"
   id="path876-9"
   sodipodi:nodetypes="ccccccccccccccccccccccccccccccccccccccccccc" /><path
   style="fill:#6bdd02"
   inkscape:connector-curvature="0"
   d="m 708.10158,0.0323698 c 4.1011,6.4497 7.7417,11.5524002 11.8417,18.0022002 10.9301,-3.87 20.5299,-10.3522002 29.12,-18.0022002 z"
   id="path886-7"
   sodipodi:nodetypes="cccc" /><path
   style="fill:#6bdd02"
   inkscape:connector-curvature="0"
   d="m 999.41348,182.27457 c -17.34,-6.87 -35.7799,-9.98 -53.87,-14.12 -21.1799,-5.01 -42.52,-10 -62.65,-18.41 -5.48,-2.11 -10.2699,-5.47 -14.89,-9 -4.79,-0.47 -9.6599,0.28 -14.4199,-0.66 -4.3401,-0.66 -9.21,-2.79 -10.6001,-7.32 -1.6899,-6.51 1.5801,-13.49 6.8701,-17.36 6.8099,-4.9301 15.24,-7.38 23.58,-7.97 11.0399,-0.72 22.01,-2.18 32.99,-3.55 2.88,-4.52 5.5699,-9.16 8.33,-13.75 -3.05,-4.29 -6.6,-8.37 -11.27,-10.92 -7.7899,-4.45 -17.23,-4.71 -25.83,-2.97 -28.86,5.51 -53.83,22.27 -81.98,29.99 -5.51,1.51 -11.42,2.42 -17.01,0.77 -10.5399,-2.65 -18.9401,-9.84 -27.4401,-16.19 l 0.1101,-0.54 c -9.74,-8.21 -17.856,-17.5243 -26.0359,-27.2543 -16.504,-20.1602 -29.3148,-41.0358 -43.3361,-62.9879002 H 526.99509 C 539.51136,13.76577 550.59148,23.84227 564.54348,36.12457 c 14.37,12.86 30.15,23.97 45.88,35.09 30.83,22.22 61.2101,45.21 89.22,70.96 5.89,6.07 13.0699,11.22 17.05,18.8701 12.15,22.0399 23.3099,44.61 34.99,66.8999 8.26,14.6801 19.51,29.5801 36.24,34.8301 9.5,3.33 19.42,0.14 28.97,-1.17 0.4301,-7.1799 2.1901,-14.21 2.4401,-21.39 -0.89,-7.6799 -5.3,-14.2999 -8.96,-20.9099 -4.9501,-8.77 -8.2201,-18.9901 -6.9001,-29.14 0.55,-4.41 4.4701,-7.63 8.6901,-8.3501 4.33,-1.1699 8.7101,0.3301 12.7001,1.9601 36.97,15.59 70.8398,37.6 107.83,53.14 17.92,7.4199 36.5099,13.7899 55.87,16.02 6.58,0.5199 13.46002,1.23 19.84002,-0.9701 7.11,-2.46 13.27,-7.12 18.47,-12.48 4.99,-5.21 8.89,-11.97 8.9501,-19.35 0.37,-8.02 -3.38,-15.75 -8.9601,-21.33 -7.6202,-7.6701 -17.5101,-12.6001 -27.45022,-16.5301 z"
   id="path892-2"
   sodipodi:nodetypes="cccccccccccccccccccccccccccccccccccccc" /><path
   style="fill:#6bdd02"
   inkscape:connector-curvature="0"
   d="m 297.81352,116.25457 c -21.46,4.09 -43.18,-0.44 -64.54,-2.93 -7.3,-1.1 -15.0601,-0.86 -21.6801,-4.59 -1.47,1.01 -2.91,2.08 -4.34,3.17 12.56,1.68 25.15,3.14 37.71,4.8199 12.16,1.58 24.36,3.26 36.64,3.17 7.73,-0.01 15.32,-1.62 22.93,-2.82 65.95,-10.75 131.91,-21.44 197.86,-32.14 8.0699,-1.31 16.2101,-3.19 24.4301,-2.07 -9.46,-2.28 -19.1899,-1.12 -28.5901,0.78 -66.7999,10.8901 -133.6098,21.7501 -200.4199,32.6101 z"
   id="path894-2"
   sodipodi:nodetypes="ccccccccccc" /><path
   style="fill:#6bdd02"
   inkscape:connector-curvature="0"
   d="m 952.45338,101.03457 c 18.4801,-7.4 38.2101,-13.16 58.32012,-12.12 -14.91992,-1.95 -30.23002,-2.07 -45.02002,0.88 -9.25,1.72 -17.9099,5.52 -26.98,7.88 -0.21,1.14 -0.47,2.28 -0.7,3.43 4.74,0.62 9.7801,1.98 14.3799,-0.07 z"
   id="path896-8"
   sodipodi:nodetypes="cccccc" /><path
   style="fill:#6bdd02"
   inkscape:connector-curvature="0"
   d="m 975.52348,147.17457 c 18.3401,4.15 36.99002,8.3701 55.89002,8.15 2.45,-2.76 3.15,-6.7599 4.0699,-10.27 1.3401,-10.06 -1.5199,-21.58 -10.0199,-27.85 -8.25,-6.05 -18.99,-6.82 -28.87002,-6.43 -18.6401,1.0099 -36.5901,6.9 -53.9401,13.42 -6.5,2.67 -13.22,4.91 -19.36,8.37 17.2801,5.31 34.6301,10.43 52.2301,14.61 z"
   id="path898-9"
   sodipodi:nodetypes="cccccccc" /><path
   style="fill:#6bdd02"
   inkscape:connector-curvature="0"
   d="m 713.99348,221.68467 c -2.33,-3.3401 -5.1299,-6.38 -7.01,-10 -1.74,-6.25 1.54,-13.63 -2.8499,-19.16 -13.29,-19.66 -30.28,-36.4501 -47.51,-52.63 -0.3301,0.36 -1,1.09 -1.3301,1.46 13.1899,12.86 26.4299,25.8301 37.21,40.85 2.51,3.6001 5.76,7.24 5.74,11.91 0.3601,5.17 -0.6099,11.03 2.8701,15.4 10.71,14.38 21.0499,29.04 31.23,43.8099 4.83,6.4501 10.1499,12.9 17.29,16.89 -4.51,-4.65 -8.4901,-9.77 -12.01,-15.2 -7.7301,-11.22 -15.6402,-22.31 -23.6301,-33.3299 z"
   id="path900-7"
   sodipodi:nodetypes="cccccccccccc" /><path
   id="path904-3"
   d="m 566.48348,225.18467 c 23.36,-0.29 46.72,-0.1201 70.08,-0.1001 -1.53,0.8101 -3.26,1.0801 -4.97,1.1001 -20.03,-0.14 -40.07,-0.1001 -60.11,-0.02 -1.73,0.01 -3.39,-0.4601 -5,-0.98 z"
   inkscape:connector-curvature="0"
   style="fill:#540442"
   sodipodi:nodetypes="ccccc" /></svg>