<?xml version="1.0" encoding="UTF-8"?>
<!DOCTYPE svg PUBLIC "-//W3C//DTD SVG 1.1//EN" "http://www.w3.org/Graphics/SVG/1.1/DTD/svg11.dtd">
<svg version="1.1" id="Layer_1" xmlns="http://www.w3.org/2000/svg" xmlns:xlink="http://www.w3.org/1999/xlink" x="0px" y="0px" viewBox="0 0 1280 1191" enable-background="new 0 0 1280 1191" xml:space="preserve">
<g>
	<path fill="#571F3B" d="M804.23,31.44c22.08-7.87,46.43-6.45,68.78-0.49c32.51,8.77,60.65,29.33,83.11,53.94   c23.74,25.54,40.49,57.63,46.75,92.01c32.37-6.52,66.21-0.02,96.1,13.17c33.1901,14.81,62.01,37.84,87.4,63.55   c23.34,23.92,44.21,51.03,56.78,82.24c7.52,18.74,11.84,38.89,11.49,59.13c-0.13,39.98-12.29,79.25-31.5601,114.05   c-17.59,32.05-40.6699,60.79-66.0599,86.98c-25.03,25.82-52.7001,48.9-81.02,71.01c-32.79,25.42-67.43,48.62-104.38,67.59   c-7.2,3.51-14.24,7.48-21.77,10.26c-0.47,0.23-1.41,0.7-1.88,0.93c-1.5099,1.17-3.4,1.68-5.23,2.05c-1.47,0.13-2.79,0.78-3.91,1.69   c-0.85,0.59-1.75,1.06-2.7,1.42c-7.61,2.21-14.91,5.34-22.45,7.73c-11.63,3.86-23.52,6.87-35.51,9.39   c-1.48-0.64-3.13-0.3-4.16,0.94l-0.78,0.17c-8.02,0.75-16.06,1.57-24.02,2.86c-0.06,0.51-0.18,1.52-0.2401,2.03l-0.1,0.99   c-0.66,20.8-8.29,40.69-17.91,58.9c-14.87,27.57-34.69,52.13-55.86,75.09c-3.35,3.73-7.04,7.16-10.17,11.07   c6.98,14.47,20.28,25.26,34.99,31.31c0.98,0.41,1.98,0.8,2.99,1.18c4.04,1.36,8.35,3.59,12.66,1.92   c29.1-9.25,58.23-18.38,87.36-27.55c2.54-0.83,5.02-1.82,7.5-2.82c3.77-0.57,7.58-0.53,11.38-0.52   c9.07,1.59,17.03,6.75,24.21,12.28c8.44,6.52,16.24,15.09,18.35,25.87c0.19,3.57,0.14,7.16-0.14,10.74   c-0.21,1.14-0.47,2.28-0.7,3.43c4.74,0.62,9.78,1.98,14.3799-0.07c18.48-7.4,38.21-13.16,58.32-12.12   c2.96,0.29,5.92,0.63,8.89,1.06c8.61,1.33,17.1801,4.46,23.84,10.21c7.39,6.44,11.41,16.07,12.3301,25.71   c0.02,5.15,0,10.3,0.0699,15.46c-0.8199,12.03-5.02,23.4501-8.86,34.76c3.0601,13.76,7.5,27.22,10.5601,40.99   c0.0599,17.1901-8.5801,33.04-18.65,46.4501c-8.64,11.5099-20.5701,22.0299-35.39,23.7799c-8.68,1.3101-17.13-1.7899-24.89-5.3199   c-46.36-20.76-92.83-41.27-139.24-61.91c-0.26,0.24-0.78,0.72-1.04,0.96c-1,1.03-1.44,2.4801-0.66,3.8101   c2.98,7.99,6.37,15.8199,9.46,23.78c1.77,4.1599,0.19,8.78-1.42,12.75c-3.36,7.45-9.64,13.12-16.25,17.6799   c-8.29,5.73-17.78,10.14-27.91,11.03c-13.2,1.04-26.56-2.4299-37.97-9.02c-3.35-2.1899-6.58-4.5499-9.88-6.7999   c-1.39-1.36-2.73-2.75-4.1299-4.0801c-4.51-4.65-8.4901-9.77-12.01-15.2c-7.73-11.22-15.64-22.3101-23.63-33.33   c-2.33-3.3401-5.13-6.38-7.01-10c-1.74-6.25,1.54-13.63-2.85-19.16c-13.29-19.66-30.28-36.4501-47.51-52.63   c-24.23-22.56-49.94-43.45-75.94-63.93c-38.82-31-77.79-61.9301-114.12-95.86c-6-5.72-11.94-11.52-17.34-17.82   c-1.26,0.7-2.52,1.42-3.77,2.15c-79.71,45.17-158.13,92.72-233.86,144.3c-1.47,1.01-2.91,2.08-4.34,3.17   c12.56,1.68,25.15,3.14,37.71,4.8199c12.16,1.58,24.36,3.26,36.64,3.17c7.73-0.01,15.32-1.62,22.93-2.82   c65.95-10.75,131.91-21.44,197.86-32.14c8.07-1.31,16.21-3.19,24.4301-2.07c1.81,0.25,3.6299,0.54,5.45,0.79   c10.68,3.75,20.44,10.31,28.12,18.62c8.05,8.68,12.12,21.38,8.7401,32.96c-0.27,0.9-0.57,1.8-0.88,2.71   c-0.13,0.33-0.41,0.99-0.54,1.32c15.19,3.37,30.03,8.09,44.79,12.99c7.48,3.1,14.75,6.6899,22.1,10.09   c14.33,8.16,28.89,19,34.47,35.2101c1.37,4.98,3.37,10.7799,0.47,15.59c-5.4,10.73-10.82,21.4399-16.09,32.23   c-25.89,0.17-51.77,0.03-77.66,0.0699c-9.18,12.9401-20.19,25.1901-34.51,32.4801c-8.81,4.6699-18.78,7.0399-28.74,6.9099   c-27.19-0.11-54.23-3.47-81.1-7.2799c-45-6.3101-89.34-16.52-134.27-23.25c-26.75-4.14-53.66-7.4301-80.71-8.63   c-15.26-0.25-30.54-0.37-45.75-1.8201c-41.28-3.2999-82.03-11.0699-123.17-15.6799c-10.36-0.8401-20.39-5.99-26.86-14.1801   c-4.78-6.03-7.65-13.24-10.93-20.13c-3.44-7.8199-7.26-15.5599-9.75-23.73c-0.17-16.25,5.36-31.98,11.95-46.64   c12.3-26.24,29.54-49.8,47.82-72.16c17.02-20.71,35.46-40.19,54.29-59.25c-13.28-36.37-17.84-75.4-17.49-113.95   c0.36-10.06-0.14-20.21,1.43-30.18c0.47-1.8,0.69-3.65,0.52-5.49c0.79-15.67,3.98-31.2,8.04-46.34   c4.57-16.57,11.54-32.53,21.17-46.8c19.64-30.3,42.93-58.08,67.78-84.22c55.6-58.02,118.63-108.34,183.66-155.32   c60.68-43.24,120.78-87.39,178.26-134.82c27.08-22.44,53.6-45.6,78.41-70.54c11.31-11.74,22.81-23.44,32.12-36.88   c12.49-17.25,24.53-34.82,36.81-52.22C740.34,76.84,751.18,63.86,764,53C775.64,42.97,789.89,36.57,804.23,31.44 M761.24,84.24   c-13.37,14.82-23.85,31.91-33.84,49.11c-9.14,16.15-17.08,33.12-21.9901,51.06c-4.23,15.1-5.96,31-3.94,46.6   c-0.02,1.29,0.63,2.97-0.49,3.98c-3.23,3.14-6.81,5.9-10.16,8.91c-5.91-0.73-12.13-3.2-14.9-8.86   c-5.18-10.08-2.88-21.84-1.62-32.58c-18.04,15.97-36.75,31.14-55.39,46.39C558.03,298.4,496.64,347.3,435.3,396.27   c-59.12,47.42-118.37,94.72-175.82,144.17c-13.71,12.26-28.16,23.94-39.69,38.36c-9.87,10.49-17.79,22.64-24.61,35.28   c-9.99,18.7-17.89,38.44-24.66,58.51c-12.97,38.0699-21.63,78.04-21.27,118.42c0.23,18.59,2.81,37.79,12.06,54.23   c14-13.65,27.42-27.88,41.26-41.68c25.63-26.03,51.39-51.93,77.18-77.81c27.51-27.83,55.64-55.05,84.77-81.18   c24-21.24,48.44-42.3,75.79-59.16c3.52,3.88,6.64,8.09,9.75,12.29c-47.02,37.81-92.45,77.61-136,119.38   c-100.59,96.47-190.95,204.15-264.21,322.9c5.14,10.29,9.71,20.9,15.07,31.0801c11.98,2.11,24.19,3.08,36.25,4.84   c54.5,6.6899,109,13.6799,163.78,17.65c13.02,1,26.12,0.4199,39.12,1.6699c22.31,2.1,44.31,6.63,66.11,11.6901   c24.58,5.75,48.76,13.0699,73.39,18.58c23.52,5.28,47.31,10.08,71.46,11c5.3199,0.4401,10.3-1.76,15.31-3.2   c12.67-3.87,25.31-7.8201,38.02-11.5601c-5.44-8.88-11.71-17.21-17.45-25.89c-29.3199-0.71-58.59-2.9399-87.87-4.63   c-24.69-0.95-49.38-2.48-74.11-2.2c-2.77-4.95-5.57-9.88-8.09-14.96c21.33-2.04,42.72-3.5801,64.11-4.9801   c23.98-1.5599,48.03-2.83,72.07-2.0599c6.35,0.08,12.57,1.72,18.94,1.61c16.14,0.13,32.08,6.54,43.82,17.61   c4.64,4.0701,8.34,9.02,12.16,13.8301c1.61,0.5199,3.27,0.99,5,0.98c20.04-0.0801,40.08-0.12,60.11,0.02   c1.71-0.02,3.44-0.29,4.97-1.1001l0.72-0.02c2.66-6.1499,6.17-11.8799,9.27-17.8099c-5.67-5.1-11.56-9.97-17.81-14.34   c-25.67-18.41-56.79-28.6801-88.28-30.27c-23.72-1.23-47.36,1.98-70.91,4.4399c-29.23,3.49-58.52,7.27-88,7.48   c-4.31-0.12-8.96-0.22-12.69-2.6699c-3.26-2.09-4.89-6.4401-3.75-10.14c0.61-2.5601,3.39-3.46,5.4-4.66   c21.23-10.75,45.28-14.15,68.77-15.6c29.06-1.76,58.19,0.32,87.12,2.96c6.82-3.8,12.82-9.06,19.36-13.38   c-10.59-6.48-21.27-12.81-31.91-19.2c-4.28-2.37-9.23,0.38-13.73,0.75c-32.2,6.03-64.35,12.32-96.51,18.56   c-26.81,5.31-53.77,10.03-81,12.57c-14.66,1.23-29.45,2.05-44.12,0.5c-30.92-2.93-61.89-5.37-92.8-8.49   c-7.03-1.36-12.86-5.96-18.35-10.3c22.97-22.6201,49.38-41.31,75.64-59.86c28.06-19.51,56.74-38.11,85.62-56.39   c31.19-19.63,62.06-39.79,92.54-60.5c26.78-18.34,53.28-37.13,78.75-57.27c28.7-22.68,55.8-47.67,78.84-76.17   c18.24-22.7401,33.87-48,43.07-75.8c6.22-19.17,9.56-39.5,8.01-59.67c-1.33-16.44-8.63-32.82-21.92-43   c-17.0699-13.28-39.24-17.25-60.3-18.57c-25.67-0.79-51.38,0.22-76.94,2.64c-44.51,4.04-88.59,14.16-129.83,31.53   c-35.03,14.79-68.27,33.45-100.6,53.39c-3.16,1.76-6,4.5-9.67,5.08c-4.04-0.15-8.21-1.81-10.99-4.78   c-1.92-2.12,0.21-4.64,1.91-6.03c28.81-24.81,61.19-45.42,95.78-61.18c38.85-17.79,80.32-29.46,122.41-36.57   c47.74-8.1,96.02-12.48,144.31-15.7c10.22-20.24,25.63-38.92,46.71-48.33c17.76-8.26,37.94-8.45,57.04-6.28   c9.72,1.42,20.1,3.53,27.6,10.34c4.11,3.61,5.93,9.05,6.16,14.4c-7.73,4.86-16.26,10.47-25.83,9.22   c-7.37-1.04-11.76-7.68-18.01-10.93c-3.25-1.83-8.18-1.07-10.29,1.99c10.53,14.67,25.73,25.31,41.57,33.61   c16.01,8.25,33.07,14.43,50.62,18.48c21.93,5.34,44.43,8.35,67,8.75c20.31,0.46,40.57-2.23,60.43-6.32   c48.87-10.4,95.65-28.62,141.2401-48.74c40.8999-18.58,81.58-37.66,123.0399-54.99c15.37-6.27,30.7101-12.93,46.9-16.85   c0.72-3.27,2.99-6.62,1.65-10c-2.5601-7.55-5.6801-14.9-9.09-22.1c-3.13-5.98-5.7201-12.39-9.9701-17.69   c-5-10.2-12.25-19.12-19.1899-28.06c-4.5601-5.2-8.55-11.07-14.13-15.25c-2.55-4.2-6.53-7.22-9.92-10.69   c-21.7899-20.47-45.5-39.46-72.7-52.25c-30.26-14.61-65.1-20.16-98.22-13.72c-16.73-27.05-33.0099-54.37-49.56-81.53   c-8.09-14.28-19.23-26.76-32.09-36.92C884.53,57.15,850.54,49,818,50.83C795.24,53.05,776.04,67.72,761.24,84.24 M1205.39,405.38   c-15.9401,3.84-31.33,9.62-46.6801,15.34c-41.6599,15.89-82.51,33.81-123.39,51.6C990.02,491.43,943.17,507.96,894.4,515.4   c-21.59,3.39-43.53,3.89-65.32,2.71c-22.83-1.21-45.78-3.77-67.71-10.49c-12.1-3.88-23.91-8.82-35.04-14.98   c-17.97-9.97-34.2-22.81-49.16-36.84c-5.68-5.01-10.52-10.93-16.27-15.83c-7.7401,2.73-14.6,7.78-19.89,14.03   c-5.33,6.25-10.92,12.28-16.54,18.27c8.04,5.99,16.2,11.86,23.39,18.89c14.52,13.78,26.34,30.95,31.55,50.45   c5.29,18.95,3.84,39.02,0.33,58.14c-6.64,34.39-24.09,65.73-45.67,92.96c9.07,3.99,13.68,13.41,17.15,22.12   c5.5601,14.08,7.21,29.68,15.15,42.79c2.32,3.67,5.77,7.79,10.59,7.38c14.1-0.62,27.92-3.91,41.98-4.97   c14.31-0.73,28.67-0.4,42.95-1.6801c77.2-5.22,152-30.79,219.39-68.16c34.04-18.89,66.71-40.37,96.88-64.99   c50.38-40.98,93.58-91.76,121.36-150.75c8.41-17.48,14.6799-35.86,22.21-53.71c2.88-5.28-0.34-11.01-1.0599-16.43   C1215.5601,404.24,1210.38,404.07,1205.39,405.38 M504.66,815.26c24.99,34.75,53.17,67.42,85.34,95.74   c14.37,12.86,30.15,23.97,45.88,35.09c30.83,22.22,61.21,45.21,89.22,70.96c5.89,6.07,13.07,11.22,17.05,18.8701   c12.15,22.0399,23.31,44.61,34.99,66.8999c8.26,14.6801,19.51,29.5801,36.24,34.8301c9.5,3.33,19.42,0.14,28.97-1.17   c0.4301-7.1799,2.19-14.21,2.44-21.39c-0.89-7.6799-5.3-14.2999-8.96-20.9099c-4.95-8.77-8.22-18.9901-6.9-29.14   c0.55-4.41,4.47-7.63,8.69-8.3501c4.33-1.1699,8.71,0.3301,12.7,1.9601c36.97,15.59,70.84,37.6,107.83,53.14   c17.92,7.4199,36.5099,13.7899,55.87,16.02c6.58,0.5199,13.46,1.23,19.84-0.9701c7.11-2.46,13.27-7.12,18.47-12.48   c4.99-5.21,8.89-11.97,8.9501-19.35c0.37-8.02-3.38-15.75-8.9601-21.33c-7.62-7.67-17.5099-12.6001-27.45-16.53   c-17.34-6.87-35.78-9.98-53.87-14.12c-21.18-5.01-42.52-10-62.65-18.41c-5.48-2.11-10.27-5.47-14.89-9   c-4.79-0.47-9.66,0.28-14.42-0.66c-4.34-0.66-9.21-2.79-10.6-7.32c-1.69-6.51,1.58-13.49,6.87-17.36   c6.81-4.9301,15.24-7.38,23.58-7.97c11.04-0.72,22.01-2.18,32.99-3.55c2.88-4.52,5.57-9.16,8.33-13.75   c-3.05-4.29-6.6-8.37-11.27-10.92c-7.79-4.45-17.23-4.71-25.83-2.97c-28.86,5.51-53.83,22.27-81.98,29.99   c-5.51,1.51-11.42,2.42-17.01,0.77c-10.54-2.65-18.94-9.84-27.44-16.19l0.11-0.54c-9.74-8.21-18.11-17.9-26.29-27.63   c-24.33-29.72-45.04-62.19-65.15-94.85c-15.95-26.27-31.2-53.04-43.95-81.03c-7.95-17.62-14.95-35.82-18.47-54.89   C587.8,747.28,547.58,783.17,504.66,815.26 M782.71,777.71c-19.46,1.97-38.91,4.23-58.13,7.88c-9.83,1.94-19.75,3.97-28.99,7.95   c-3.14,1.2401-5.76,3.47-7.61,6.29c18.09,31.66,37.86,62.31,57.42,93.08c10.93-3.87,20.53-10.72,29.12-18.37   c11.76-10.7,21.83-23.16,30.65-36.35c9.52-14.73,17.58-31.38,17.9-49.24c0.34-5.03-2.51-9.75-6.41-12.7   C805.36,775.43,793.99,776.89,782.71,777.71 M968.11,999.07c-6.5,2.67-13.22,4.91-19.36,8.37c17.28,5.31,34.63,10.43,52.23,14.61   c18.34,4.15,36.99,8.3701,55.89,8.15c2.45-2.76,3.15-6.7599,4.0699-10.27c1.3401-10.06-1.5199-21.58-10.0199-27.85   c-8.25-6.05-18.99-6.82-28.8701-6.43C1003.41,986.66,985.46,992.55,968.11,999.07z"/>
	<path fill="#571F3B" d="M795.09,106.06c10.64-11.53,24.4-20.89,40.11-23.49c14.09-2.04,28.63,0.1,41.81,5.4   c14.11,5.72,26.44,15.19,36.73,26.3c12.81,13.81,22.82,29.96,31.28,46.73c14.89,29.82,26.09,62.36,26.39,96.01   c0.38,18.88-4.5099,37.46-11.54,54.85c-9.71,23.8-23.54,45.67-38.55,66.45c-11.03,15.05-23.26,29.45-38.05,40.95   c-12.16,9.44-26.6,16.81-42.21,17.71c-7.42,0.71-14.07-3.3-20.24-6.83c-13.44-8.2-25.72-18.1-37.89-28.02   c-9.11-7.53-18.04-15.32-26.11-23.97c-1.43-1.61-3.04-3.27-3.34-5.49c-0.9-5.37-1.92-10.8-4.39-15.7   c-4.09-8.78-11.65-15.65-20.44-19.57c-11.44-5.14-24.1801-6.63-36.61-6.43c-5.11-5.21-4.42-13.45-1.72-19.66   c2.71-5.99,9.5-8.66,15.7-9c4.13-0.39,7.93,1.55,11.7,2.94c9.3101,3.58,18.45,7.6,27.7,11.33c1.99,1.08,3.79-0.88,5.3-1.97   c-3.66-33.61-9.77-67.7-4.58-101.51c3.38-22.84,11.11-44.88,21.42-65.48C775.09,132.77,783.67,118.27,795.09,106.06 M823.76,111.75   c-13.22,8.9-22.4,22.48-29.6,36.43c-16.3,32.81-27.42,68.98-26.84,105.89c0.01,6.44,1.81,12.76,5.06,18.3   c4.74-3.03,7.6-8.08,9.96-13.03c6.08-13.17,7.56-27.96,14.1-40.96c3.72-8.34,10.15-15.41,18.24-19.7   c13.17-7.08,28.58-8.43,43.29-7.85c19.1201,0.83,37.3,10.02,50.39,23.79c12.23,12.28,19.94,29.03,20.77,46.39   c0.42,18.54,1.19,37.09,3.04,55.55c4.06-6.62,5.99-14.27,7.61-21.79c2.6899-14.08,3.42-28.49,3.08-42.8   c-0.67-13.29-2.31-27.42-10.33-38.5c-1.25-1.65-2.13-3.54-2.27-5.62c-1.36-11.63-4-23.06-6.64-34.45   c-0.67-3.06-1.78-6.01-3.34-8.72c-7.97-14.47-16.89-28.63-28.45-40.53c-7.77-7.95-16.95-14.94-27.65-18.38   C850.74,101.36,835.4,103.78,823.76,111.75 M810.95,238.27c-1.14,8.14-1.82,16.33-2.84,24.49c1.32,0.04,2.64,0.08,3.98,0.13   c1.49-8.21,2.95-16.43,4.0699-24.7C814.41,238.21,812.68,238.24,810.95,238.27 M860.01,271c1.76,1.99,4.3,2.99,6.65,4.12   c0.05-4.49,0.08-8.98-0.05-13.47C864,264.44,861.6,267.51,860.01,271 M810.59,275.91c-0.78,15.46-1.88,30.91-2.9901,46.35   c-0.3199,6.31-1.5,12.76,0.09,18.99c1.95,7.53,5.03,14.72,8.23,21.79c6.78,14.58,14.28,28.82,22.31,42.75   c11.67-1.48,23.16-5.72,32.17-13.43c13.95-11.7,21.91-28.85,26.91-46c5.75-20.34,8.11-41.53,8.68-62.61   c-5.17,7.49-10.18,15.15-16.54,21.72c-7.88,8.38-17.84,15.99-29.67,17.08c-11.09,0.62-22.8701-1.64-31.77-8.62   c-7.44-5.81-12.03-14.53-14.5-23.49C812.1,285.68,811.91,280.68,810.59,275.91 M779.7,298.06c0.61,11.9,1.7,23.77,2.55,35.65   c1.84-0.05,3.68-0.08,5.53-0.1c-1.04-11.81-1.84-23.65-2.85-35.46C783.18,298.12,781.43,298.09,779.7,298.06z"/>
	<path fill="#571F3B" d="M1116.75,305.79c6.4399-6.79,16.25-8.93,25.29-8.91c7.2-0.3,13.5599,3.8,19.0599,8   c4.37,3.56,8.9,7.45,11.13,12.78c1.86,4.35,0.38,10.48-4.37,12.22c-5.4,2.21-11.12,0.05-16.46-1.18c-4.14-1.1-8.42-0.32-12.51,0.58   c6.46,6.34,15,10.03,21.46,16.35c2.84,2.6,1.61,6.96,0.49,10.11c-1.6,4.35-6.37,6.52-10.7799,6.35   c-10.4901,0.09-21.75-1.35-30.39-7.78c-6.9401-5.14-10.3-13.8-10.63-22.22C1108.6,322.87,1110.17,312.74,1116.75,305.79z"/>
	<path fill="#85DF2A" d="M1172.88,272.74c5.58,4.18,9.5699,10.05,14.13,15.25c6.9399,8.94,14.1899,17.86,19.1899,28.06   c-6.72-7.21-11.1499-16.19-17.6399-23.62C1183.74,285.53,1176.9399,280.16,1172.88,272.74z"/>
	<path opacity="0.5" fill="#432A37" enable-background="new    " d="M123.46,722.83c-1.31-1.25-1.53-5.2,0.52-5.49   C124.15,719.18,123.93,721.03,123.46,722.83z"/>
	<path opacity="0.44" fill="#4E473D" enable-background="new    " d="M947.97,745.81c0.47-0.23,1.41-0.7,1.88-0.93l-0.12,0.9   l-0.97,0.48L947.97,745.81z"/>
	<path opacity="0.53" fill="#50443E" enable-background="new    " d="M938.83,749.55c1.12-0.91,2.44-1.56,3.91-1.69   C943.23,749.64,939.93,750.85,938.83,749.55z"/>
	<path opacity="0.41" fill="#52573F" enable-background="new    " d="M913.68,758.7c7.54-2.39,14.84-5.52,22.45-7.73   c-5.51,3.34-11.8,5.03-17.71,7.47c-22.41,8.22-45.73,14.53-69.55,16.64l0.1-0.99c8.03-1.96,16.46-1.96,24.26-4.89l0.78-0.17   c1.45,0.6299,3.1,0.27,4.16-0.94C890.16,765.57,902.05,762.56,913.68,758.7z"/>
	<path opacity="0.74" fill="#6C6F4B" enable-background="new    " d="M874.01,769.03c1.03-1.2401,2.68-1.58,4.16-0.94   C877.11,769.3,875.46,769.66,874.01,769.03z"/>
	<path opacity="0.7" fill="#748D4B" enable-background="new    " d="M849.21,772.06c7.96-1.29,16-2.11,24.02-2.86   c-7.8,2.93-16.23,2.93-24.26,4.89C849.03,773.58,849.15,772.57,849.21,772.06z"/>
	<path opacity="0.96" fill="#77DA1C" enable-background="new    " d="M470.91,839.31c1.25-0.73,2.51-1.45,3.77-2.15   c5.4,6.3,11.34,12.1,17.34,17.82c36.33,33.93,75.3,64.86,114.12,95.86c26,20.48,51.71,41.37,75.94,63.93   c-0.33,0.36-1,1.09-1.33,1.46c-25.78-24.05-53.09-46.38-80.8-68.14c-21.56-17.07-42.93-34.3701-64.01-52.02   c-19.64-16.61-39.36-33.25-57.28-51.74c-1.49-1.38-3.27-2.37-5-3.37C472.74,840.39,471.82,839.85,470.91,839.31z"/>
	<path opacity="0.45" fill="#52703E" enable-background="new    " d="M237.05,983.61c75.73-51.58,154.15-99.13,233.86-144.3   c0.91,0.54,1.83,1.08,2.75,1.65l0.55,0.52l-1.11,0.36c-3.85,1.25-7.27,3.5-10.78,5.48c-73.46,41.85-145.79,85.79-215.7,133.38   c-1.31,0.96-2.51,2.06-3.7,3.18c9.34,1.27,18.73,2.65,28.18,2.63c-1.73,0.37-3.45,0.73-5.18,1.07c8.74-0.36,17.34,1.82,26.08,1.93   c8.33,0.07,16.68,0.33,25-0.14c8.55-0.9,16.96-2.81,25.5-3.84c0-0.25,0.01-0.75,0.01-1.01c9.91-0.01,19.58-2.51,29.34-3.9   c7.39-0.92,14.67-2.61,22.09-3.22c-0.96-0.34-1.91-0.66-2.85-0.96c9.04,0.43,17.82-2.18,26.76-3.01c-0.57-0.33-1.13-0.65-1.68-0.96   c4.95,0.19,9.83-0.78,14.76-1.04c-0.95-0.34-1.9-0.68-2.84-0.99c11.1,0.45,21.79-3.2,32.79-4.01c-0.58-0.31-1.14-0.61-1.71-0.89   c10.96-0.7599,21.78-2.77,32.67-4.09c-0.56-0.34-1.12-0.67-1.68-0.99c13.03-0.17,25.74-3.76,38.69-5.03   c-0.5699-0.33-1.13-0.65-1.69-0.96c6.31,0.2401,12.59-1.55,18.89-0.41c4.92,0.39,9.28,2.94,14.1,3.85   c-0.61,0.15-1.82,0.47-2.42,0.6201c-1.82-0.25-3.64-0.54-5.45-0.79c-9.46-2.28-19.19-1.12-28.59,0.78   c-66.8,10.89-133.61,21.75-200.42,32.61c-21.46,4.09-43.18-0.44-64.54-2.93C251.43,987.1,243.67,987.34,237.05,983.61z"/>
	<path opacity="0.56" fill="#5B8A3D" enable-background="new    " d="M473.66,840.96c1.73,1,3.51,1.99,5,3.37   c17.92,18.49,37.64,35.13,57.28,51.74c21.08,17.65,42.45,34.95,64.01,52.02c27.71,21.7599,55.02,44.09,80.8,68.14   c13.19,12.86,26.43,25.8301,37.21,40.85c2.5099,3.6001,5.7599,7.24,5.74,11.91c0.36,5.17-0.61,11.03,2.87,15.4   c10.71,14.38,21.05,29.04,31.23,43.8099c4.83,6.4501,10.15,12.9,17.29,16.89c1.4,1.3301,2.74,2.7201,4.1299,4.0801   c-8.45-3.67-15.28-10.3201-20.97-17.41c-10.73-14.9401-20.94-30.26-32.06-44.91c-1.68-2.35-3.69-4.78-3.79-7.7999   c-0.45-5.3501,1.0099-11.3301-2.42-15.9801c-12.44-18.5099-28.21-34.49-44.38-49.7299c-27.39-25.4901-56.62-48.88-86.06-71.92   c-32.6-26.26-65.19-52.59-96.18-80.76c-6.47-6.31-12.83-12.72-19.15-19.18L473.66,840.96z"/>
	<path opacity="0.56" fill="#5B8A3D" enable-background="new    " d="M881.86,926.72c6.48-1.56,12.46-4.8199,19.09-5.81   c7.12-1.27,13.84,2.36,20.86,2.75c-3.8-0.0099-7.61-0.05-11.38,0.52c-6.91-1.3-13.94-0.25-20.55,1.94   c-23.81,7.59-47.68,15.01-71.48,22.64c-5.09,1.53-10.09,3.78-15.4901,3.87c-1.0099-0.38-2.0099-0.77-2.99-1.18   c4.39-0.03,8.56-1.57,12.68-2.9C835.71,941.33,858.71,933.8,881.86,926.72z"/>
	<path opacity="0.56" fill="#5B8A3D" enable-background="new    " d="M863.85,1095.9399c0.26-0.24,0.78-0.72,1.04-0.96   c46.41,20.64,92.88,41.15,139.24,61.91c-7.38-0.97-13.89-4.77-20.64-7.61C943.63,1131.46,903.6,1114,863.85,1095.9399z"/>
	<path opacity="0.36" fill="#46573A" enable-background="new    " d="M473.1,841.84l1.11-0.36c6.32,6.46,12.68,12.87,19.15,19.18   c30.99,28.17,63.58,54.5,96.18,80.76c29.44,23.04,58.67,46.43,86.06,71.92c16.17,15.2399,31.94,31.22,44.38,49.7299   c3.43,4.65,1.97,10.63,2.42,15.9801c0.1,3.0199,2.11,5.45,3.79,7.7999c11.12,14.65,21.33,29.97,32.06,44.91   c5.69,7.09,12.52,13.74,20.97,17.41c3.3,2.25,6.53,4.61,9.88,6.7999c-6.65-1.47-12.3-5.47-17.75-9.33   c-6.75-5.1901-12.89-11.29-17.59-18.41c-9.09-13.1799-18.31-26.26-27.83-39.13c-1.56-2.11-3.27-4.15-4.36-6.5499   c-2.58-5.8201,0.67-12.75-2.73-18.3201c-8.25-13.38-19.51-24.49-30.02-36.0499c-5.83-6.1901-12.52-11.4601-18.43-17.5701   c-27.52-25.38-56.97-48.53-86.31-71.74c-35.87-28.95-71.92-57.82-105.17-89.79C476.67,846.93,474.3,844.77,473.1,841.84z"/>
	<path opacity="0.36" fill="#46573A" enable-background="new    " d="M964.99,970.83c18.25-7.46,38.01-12.67,57.87-11.2   c7.61,0.69,15.09,2.55,22.26,5.22c-2.97-0.43-5.9301-0.77-8.89-1.06c-14.92-1.95-30.23-2.07-45.02,0.88   c-9.25,1.72-17.91,5.52-26.98,7.88c0.28-3.58,0.33-7.17,0.14-10.74C964.93,964.78,964.98,967.8,964.99,970.83z"/>
	<path opacity="0.36" fill="#46573A" enable-background="new    " d="M593.71,1012.82c0.31-0.91,0.61-1.81,0.88-2.71   c3.39,1.72,7.0699,2.73,10.75,3.68c13.79,3.8,27.3199,8.6,40.3,14.6401c4.95,2.6399,10.47,4.6399,14.42,8.7899   c-7.35-3.4-14.62-6.99-22.1-10.09C623.69,1021.01,608.67,1016.85,593.71,1012.82z"/>
	<path opacity="0.93" fill="#62DE0F" enable-background="new    " d="M889.88,926.12c6.61-2.19,13.64-3.24,20.55-1.94   c-2.48,1-4.96,1.99-7.5,2.82c-29.13,9.17-58.26,18.3-87.36,27.55c-4.31,1.67-8.62-0.56-12.66-1.92c5.4-0.09,10.4-2.34,15.4901-3.87   C842.2,941.13,866.07,933.71,889.88,926.12z"/>
	<path opacity="0.93" fill="#62DE0F" enable-background="new    " d="M593.17,1014.14c0.13-0.33,0.41-0.99,0.54-1.32   c14.96,4.03,29.98,8.19,44.25,14.31C623.2,1022.23,608.36,1017.51,593.17,1014.14z"/>
	<path opacity="0.6" fill="#4E2E3E" enable-background="new    " d="M1081.29,1000.77c1,5.07,1.1899,10.38,0.0699,15.46   C1081.29,1011.07,1081.3101,1005.92,1081.29,1000.77z"/>
	<g>
		<path fill="#6BDD02" d="M1225.26,355.84c-2.5601-7.5499-5.6801-14.9-9.09-22.1c-3.13-5.98-5.7201-12.39-9.9701-17.6899    c-6.72-7.2101-11.1499-16.1901-17.6399-23.6201c-4.8201-6.8999-11.6201-12.27-15.6801-19.6899c-2.55-4.2-6.53-7.22-9.92-10.6899    c-21.7899-20.47-45.5-39.4601-72.7-52.25c-30.26-14.6101-65.1-20.16-98.22-13.72c-16.73-27.05-33.01-54.3701-49.5601-81.53    c-8.09-14.28-19.23-26.76-32.09-36.92C884.53,57.15,850.54,49,818,50.8301C795.24,53.05,776.04,67.72,761.24,84.24    c-13.37,14.8201-23.85,31.91-33.84,49.11c-9.14,16.15-17.08,33.12-21.9901,51.0599c-4.23,15.1001-5.96,31-3.9399,46.6001    c-0.02,1.29,0.63,2.97-0.49,3.98c-3.23,3.14-6.8101,5.9-10.1599,8.9099c-5.9102-0.73-12.1301-3.2-14.9001-8.8599    C670.74,224.96,673.04,213.2,674.3,202.46c-18.04,15.97-36.75,31.14-55.3901,46.39C558.03,298.3999,496.64,347.3,435.3,396.27    C376.18,443.69,316.93,490.99,259.48,540.44c-13.71,12.26-28.16,23.94-39.6901,38.36c-9.87,10.49-17.79,22.64-24.61,35.28    c-9.99,18.7-17.89,38.44-24.66,58.51c-12.97,38.0699-21.63,78.04-21.27,118.42c0.23,18.59,2.81,37.79,12.06,54.23    c14-13.65,27.42-27.88,41.26-41.68c25.63-26.03,51.39-51.93,77.18-77.81c27.51-27.83,55.64-55.05,84.77-81.18    c24-21.24,48.4399-42.3,75.79-59.16c3.52,3.88,6.6399,8.09,9.75,12.29C403.04,635.51,357.61,675.31,314.06,717.08    c-100.59,96.47-190.95,204.15-264.21,322.9c5.14,10.29,9.71,20.9,15.07,31.0801c11.98,2.11,24.19,3.08,36.25,4.84    c54.5,6.6899,109,13.6799,163.78,17.65c13.02,1,26.12,0.4199,39.12,1.6699c22.31,2.1,44.31,6.63,66.11,11.6901    c24.58,5.75,48.7599,13.0699,73.3901,18.58c23.52,5.28,47.3099,10.08,71.46,11c5.3199,0.4401,10.3-1.76,15.3101-3.2    c12.6699-3.87,25.3099-7.8201,38.0199-11.5601c-5.4401-8.88-11.71-17.21-17.4501-25.89c-29.3198-0.71-58.5898-2.9399-87.8699-4.63    c-24.6899-0.95-49.38-2.48-74.1101-2.2c-2.7699-4.95-5.5699-9.88-8.0899-14.96c21.33-2.04,42.72-3.5801,64.1099-4.9801    c23.98-1.5599,48.03-2.83,72.0701-2.0599c6.35,0.08,12.5701,1.72,18.9399,1.61c16.14,0.13,32.0801,6.54,43.8201,17.61    c4.6399,4.0701,8.34,9.02,12.1599,13.8301c23.3601-0.29,46.72-0.1201,70.0801-0.1001l0.72-0.02    c2.66-6.1499,6.1699-11.8799,9.27-17.8099c-5.6699-5.1-11.5601-9.97-17.8101-14.34c-25.6699-18.41-56.79-28.6801-88.28-30.27    c-23.72-1.23-47.3599,1.98-70.9099,4.4399c-29.23,3.49-58.52,7.27-88,7.48c-4.3101-0.12-8.96-0.22-12.6899-2.6699    c-3.26-2.09-4.8901-6.4401-3.75-10.14c0.6099-2.5601,3.3899-3.46,5.3999-4.66c21.23-10.75,45.28-14.15,68.77-15.6    c29.0601-1.76,58.1899,0.32,87.12,2.96c6.8199-3.8,12.8199-9.06,19.36-13.38c-10.59-6.48-21.27-12.81-31.9099-19.2    c-4.28-2.37-9.23,0.38-13.73,0.75c-32.2001,6.03-64.3501,12.32-96.51,18.56c-26.8101,5.31-53.7701,10.03-81.0001,12.57    c-14.66,1.23-29.45,2.05-44.12,0.5c-30.92-2.93-61.89-5.37-92.8-8.49c-7.03-1.36-12.86-5.96-18.35-10.3    c22.97-22.6201,49.38-41.31,75.64-59.86c28.06-19.51,56.74-38.11,85.62-56.39c31.19-19.63,62.06-39.79,92.5401-60.5    c26.7799-18.34,53.2799-37.13,78.7499-57.27c28.7001-22.68,55.8-47.67,78.84-76.17c18.24-22.7401,33.8701-48,43.0701-75.8    c6.22-19.17,9.5601-39.5,8.01-59.67c-1.3301-16.44-8.63-32.82-21.92-43c-17.0699-13.28-39.24-17.25-60.2999-18.57    c-25.67-0.79-51.3801,0.22-76.9401,2.64c-44.5099,4.04-88.59,14.16-129.83,31.53c-35.03,14.79-68.27,33.45-100.6,53.39    c-3.16,1.76-6,4.5-9.67,5.08c-4.04-0.15-8.21-1.81-10.99-4.78c-1.92-2.12,0.21-4.64,1.91-6.03    c28.81-24.81,61.19-45.42,95.78-61.18c38.85-17.79,80.32-29.46,122.41-36.57c47.74-8.1,96.02-12.48,144.3099-15.7    c10.2201-20.24,25.6301-38.92,46.7101-48.33c17.76-8.26,37.9401-8.45,57.0399-6.28c9.7201,1.42,20.1001,3.53,27.6001,10.34    c4.11,3.61,5.9299,9.05,6.1599,14.4c-7.73,4.86-16.26,10.47-25.83,9.22c-7.37-1.04-11.76-7.68-18.01-10.93    c-3.25-1.83-8.1801-1.07-10.2899,1.99c10.53,14.67,25.73,25.31,41.5699,33.61c16.01,8.25,33.0699,14.43,50.62,18.48    c21.9299,5.34,44.4299,8.35,67,8.75c20.3101,0.46,40.5701-2.23,60.4299-6.32c48.8701-10.4,95.6501-28.62,141.2401-48.74    c40.8999-18.58,81.58-37.66,123.0399-54.99c15.37-6.27,30.7101-12.93,46.9-16.85C1224.33,362.5701,1226.6,359.22,1225.26,355.84z     M959.87,311.86c-9.7101,23.7999-23.5399,45.67-38.5499,66.45c-11.03,15.05-23.26,29.45-38.05,40.95    c-12.16,9.44-26.6001,16.81-42.21,17.71c-7.42,0.71-14.0701-3.3-20.24-6.83c-13.4401-8.2-25.7201-18.1-37.8901-28.02    c-9.1099-7.53-18.0399-15.32-26.1099-23.97c-1.4301-1.61-3.04-3.27-3.3401-5.49c-0.8999-5.3699-1.9199-10.8-4.3899-15.7    c-4.0901-8.78-11.6501-15.6499-20.4401-19.5699c-11.4401-5.14-24.1801-6.63-36.61-6.4301c-5.1101-5.21-4.42-13.45-1.72-19.6599    c2.71-5.99,9.5-8.66,15.7-9c4.13-0.3901,7.9299,1.5499,11.7,2.9399c9.3101,3.5801,18.45,7.6,27.7,11.3301    c1.99,1.0798,3.79-0.8801,5.3-1.9701c-3.6599-33.61-9.77-67.7001-4.58-101.51c3.38-22.84,11.11-44.88,21.42-65.48    c7.53-14.84,16.1099-29.34,27.53-41.5499C805.73,94.53,819.49,85.1699,835.2,82.5701c14.0901-2.04,28.6301,0.0999,41.8101,5.3999    c14.11,5.72,26.4399,15.1899,36.73,26.3c12.8101,13.8101,22.8201,29.96,31.28,46.73c14.8899,29.8201,26.09,62.36,26.3899,96.01    C971.79,275.89,966.9,294.47,959.87,311.86z M1167.86,329.88c-5.4,2.21-11.12,0.0499-16.46-1.1801    c-4.14-1.1-8.42-0.3199-12.51,0.5801c6.46,6.34,15,10.03,21.46,16.35c2.84,2.6,1.61,6.96,0.49,10.11    c-1.6,4.35-6.37,6.52-10.7799,6.35c-10.4901,0.09-21.75-1.35-30.39-7.7799c-6.9401-5.1401-10.3-13.8-10.63-22.2201    c-0.4401-9.22,1.13-19.35,7.71-26.2999c6.4399-6.79,16.25-8.9301,25.29-8.91c7.2-0.3,13.5599,3.7999,19.0599,8    c4.37,3.5599,8.9,7.45,11.13,12.7799C1174.09,322.01,1172.61,328.14,1167.86,329.88z"/>
		<path fill="#6BDD02" d="M1205.39,405.38c-15.9401,3.84-31.33,9.62-46.6801,15.34c-41.6599,15.89-82.51,33.81-123.39,51.6    c-45.2999,19.11-92.15,35.64-140.9199,43.08c-21.59,3.39-43.53,3.89-65.3199,2.71c-22.8301-1.21-45.78-3.77-67.7101-10.49    c-12.1-3.88-23.91-8.82-35.0399-14.98C708.36,482.67,692.13,469.83,677.1699,455.8c-5.6799-5.01-10.5199-10.93-16.2699-15.83    c-7.7401,2.73-14.6,7.78-19.89,14.03c-5.3301,6.25-10.9199,12.28-16.54,18.27c8.04,5.9901,16.2,11.86,23.39,18.89    c14.52,13.78,26.34,30.95,31.5499,50.45c5.29,18.95,3.8401,39.02,0.3301,58.14c-6.64,34.39-24.09,65.73-45.6699,92.96    c9.0699,3.99,13.6799,13.41,17.1499,22.12c5.5601,14.08,7.21,29.68,15.15,42.79c2.3199,3.67,5.77,7.79,10.59,7.38    c14.1001-0.62,27.92-3.91,41.98-4.97c14.3101-0.73,28.67-0.4,42.9501-1.6801c77.2001-5.22,152-30.79,219.39-68.16    c34.04-18.89,66.71-40.37,96.88-64.99c50.38-40.98,93.58-91.76,121.36-150.75c8.41-17.48,14.6799-35.86,22.21-53.71    c2.88-5.28-0.34-11.01-1.0599-16.43C1215.5601,404.24,1210.38,404.07,1205.39,405.38z"/>
		<path fill="#6BDD02" d="M932.53,213.47c-1.25-1.6499-2.13-3.54-2.27-5.62c-1.36-11.63-4-23.0599-6.64-34.4501    c-0.67-3.0599-1.7799-6.0099-3.34-8.72c-7.97-14.47-16.89-28.6299-28.45-40.5299c-7.77-7.9501-16.9501-14.9401-27.6501-18.38    c-13.4399-4.41-28.7799-1.99-40.4199,5.98c-13.22,8.9-22.4,22.48-29.6001,36.4299    c-16.2999,32.8101-27.4199,68.98-26.8398,105.8901c0.01,6.4399,1.8099,12.7599,5.0599,18.2999c4.74-3.03,7.6-8.08,9.9601-13.03    c6.0798-13.17,7.5599-27.96,14.0999-40.96c3.72-8.34,10.1501-15.41,18.24-19.7001c13.17-7.08,28.5801-8.4299,43.29-7.8499    c19.1201,0.8298,37.3,10.0199,50.39,23.7899c12.2301,12.2799,19.9401,29.0299,20.77,46.39c0.42,18.54,1.1901,37.09,3.0399,55.55    c4.0601-6.6201,5.99-14.27,7.6101-21.79c2.6899-14.0801,3.4199-28.49,3.08-42.8C942.1899,238.6799,940.55,224.55,932.53,213.47z"/>
		<path fill="#6BDD02" d="M779.7,298.0601c0.6101,11.8999,1.7001,23.7699,2.55,35.6499c1.8401-0.05,3.6799-0.08,5.53-0.1    c-1.04-11.8099-1.8401-23.65-2.8501-35.4601C783.1799,298.12,781.4299,298.09,779.7,298.0601z"/>
		<path fill="#6BDD02" d="M816.1599,238.1899c-1.75,0.02-3.48,0.05-5.21,0.0801c-1.1399,8.1399-1.8199,16.33-2.84,24.49    c1.3199,0.04,2.64,0.08,3.9801,0.13C813.5801,254.6799,815.04,246.46,816.1599,238.1899z"/>
		<path fill="#6BDD02" d="M805.1699,838.19c9.52-14.73,17.5801-31.38,17.9001-49.24c0.3398-5.03-2.51-9.75-6.4102-12.7    c-11.2999-0.82-22.6699,0.64-33.95,1.46c-19.46,1.97-38.9099,4.23-58.1299,7.88c-9.8301,1.94-19.75,3.97-28.99,7.95    c-3.1401,1.2401-5.76,3.47-7.6101,6.29c18.0901,31.66,37.8601,62.31,57.42,93.08c10.9301-3.87,20.5299-10.72,29.12-18.37    C786.28,863.84,796.35,851.38,805.1699,838.19z"/>
		<path fill="#6BDD02" d="M866.61,261.6499c-2.61,2.79-5.01,5.8601-6.6,9.3501c1.76,1.99,4.3,2.99,6.6499,4.12    C866.71,270.63,866.74,266.14,866.61,261.6499z"/>
		<path fill="#6BDD02" d="M859.78,322.55c-11.0901,0.6199-22.8701-1.6401-31.77-8.6201c-7.4399-5.8099-12.03-14.53-14.5-23.49    c-1.41-4.76-1.6001-9.76-2.9199-14.53c-0.78,15.4601-1.8801,30.9102-2.9901,46.3501c-0.3199,6.3101-1.5,12.76,0.09,18.99    c1.9501,7.53,5.03,14.72,8.23,21.79C822.7,377.62,830.2,391.86,838.23,405.79c11.67-1.48,23.16-5.72,32.17-13.43    c13.95-11.7,21.91-28.85,26.91-46c5.75-20.34,8.1099-41.53,8.6799-62.61c-5.1699,7.49-10.1799,15.1499-16.54,21.72    C881.5701,313.85,871.61,321.46,859.78,322.55z"/>
		<path fill="#6BDD02" d="M1024.87,1057.15c-17.34-6.87-35.7799-9.98-53.87-14.12c-21.1799-5.01-42.52-10-62.65-18.41    c-5.48-2.11-10.2699-5.47-14.89-9c-4.79-0.47-9.6599,0.28-14.4199-0.66c-4.3401-0.66-9.21-2.79-10.6001-7.32    c-1.6899-6.51,1.5801-13.49,6.8701-17.36c6.8099-4.9301,15.24-7.38,23.58-7.97c11.0399-0.72,22.01-2.18,32.99-3.55    c2.88-4.52,5.5699-9.16,8.33-13.75c-3.05-4.29-6.6-8.37-11.27-10.92c-7.7899-4.45-17.23-4.71-25.83-2.97    c-28.86,5.51-53.83,22.27-81.98,29.99c-5.51,1.51-11.42,2.42-17.01,0.77c-10.5399-2.65-18.9401-9.84-27.4401-16.19l0.1101-0.54    c-9.74-8.21-18.1101-17.9-26.29-27.63c-24.3301-29.72-45.04-62.19-65.15-94.85c-15.95-26.27-31.2-53.04-43.95-81.03    c-7.9501-17.62-14.9501-35.82-18.4701-54.89C587.8,747.28,547.5801,783.17,504.66,815.26c24.99,34.75,53.17,67.42,85.34,95.74    c14.37,12.86,30.15,23.97,45.88,35.09c30.83,22.22,61.2101,45.21,89.22,70.96c5.89,6.07,13.0699,11.22,17.05,18.8701    c12.15,22.0399,23.3099,44.61,34.99,66.8999c8.26,14.6801,19.51,29.5801,36.24,34.8301c9.5,3.33,19.42,0.14,28.97-1.17    c0.4301-7.1799,2.1901-14.21,2.4401-21.39c-0.89-7.6799-5.3-14.2999-8.96-20.9099c-4.9501-8.77-8.2201-18.9901-6.9001-29.14    c0.55-4.41,4.4701-7.63,8.6901-8.3501c4.33-1.1699,8.7101,0.3301,12.7001,1.9601c36.97,15.59,70.8398,37.6,107.83,53.14    c17.92,7.4199,36.5099,13.7899,55.87,16.02c6.58,0.5199,13.46,1.23,19.84-0.9701c7.11-2.46,13.27-7.12,18.47-12.48    c4.99-5.21,8.89-11.97,8.9501-19.35c0.37-8.02-3.38-15.75-8.9601-21.33C1044.7,1066.01,1034.8101,1061.08,1024.87,1057.15z"/>
		<path fill="#6BDD02" d="M323.27,991.13c-21.46,4.09-43.18-0.44-64.54-2.93c-7.3-1.1-15.0601-0.86-21.6801-4.59    c-1.47,1.01-2.91,2.08-4.34,3.17c12.56,1.68,25.15,3.14,37.71,4.8199c12.16,1.58,24.36,3.26,36.64,3.17    c7.73-0.01,15.32-1.62,22.93-2.82c65.95-10.75,131.91-21.44,197.86-32.14c8.0699-1.31,16.2101-3.19,24.4301-2.07    c-9.46-2.28-19.1899-1.12-28.5901,0.78C456.89,969.41,390.0801,980.27,323.27,991.13z"/>
		<path fill="#6BDD02" d="M977.9099,975.91c18.4801-7.4,38.2101-13.16,58.3201-12.12c-14.9199-1.95-30.23-2.07-45.02,0.88    c-9.25,1.72-17.9099,5.52-26.98,7.88c-0.21,1.14-0.47,2.28-0.7,3.43C968.27,976.6,973.3101,977.96,977.9099,975.91z"/>
		<path fill="#6BDD02" d="M1000.98,1022.05c18.3401,4.15,36.99,8.3701,55.89,8.15c2.45-2.76,3.15-6.7599,4.0699-10.27    c1.3401-10.06-1.5199-21.58-10.0199-27.85c-8.25-6.05-18.99-6.82-28.87-6.43c-18.6401,1.0099-36.5901,6.9-53.9401,13.42    c-6.5,2.67-13.22,4.91-19.36,8.37C966.03,1012.75,983.38,1017.87,1000.98,1022.05z"/>
		<path fill="#6BDD02" d="M739.45,1096.5601c-2.33-3.3401-5.1299-6.38-7.01-10c-1.74-6.25,1.54-13.63-2.8499-19.16    c-13.29-19.66-30.28-36.4501-47.51-52.63c-0.3301,0.36-1,1.09-1.3301,1.46c13.1899,12.86,26.4299,25.8301,37.21,40.85    c2.51,3.6001,5.76,7.24,5.74,11.91c0.3601,5.17-0.6099,11.03,2.8701,15.4c10.71,14.38,21.0499,29.04,31.23,43.8099    c4.83,6.4501,10.1499,12.9,17.29,16.89c-4.51-4.65-8.4901-9.77-12.01-15.2C755.35,1118.67,747.4399,1107.58,739.45,1096.5601z"/>
	</g>
	<path fill="#540442" d="M591.94,1100.0601c23.36-0.29,46.72-0.1201,70.08-0.1001c-1.53,0.8101-3.26,1.0801-4.97,1.1001   c-20.03-0.14-40.07-0.1001-60.11-0.02C595.21,1101.05,593.55,1100.58,591.94,1100.0601z"/>
</g>
</svg>