<?xml version="1.0" encoding="UTF-8" standalone="no"?>
<svg
   xmlns:dc="http://purl.org/dc/elements/1.1/"
   xmlns:cc="http://creativecommons.org/ns#"
   xmlns:rdf="http://www.w3.org/1999/02/22-rdf-syntax-ns#"
   xmlns:svg="http://www.w3.org/2000/svg"
   xmlns="http://www.w3.org/2000/svg"
   xmlns:xlink="http://www.w3.org/1999/xlink"
   xml:space="preserve"
   style="enable-background:new 0 0 256 256;"
   viewBox="0 0 256 256"
   y="0px"
   x="0px"
   id="Layer_1"
   version="1.1"><metadata
     id="metadata35"><rdf:RDF><cc:Work
         rdf:about=""><dc:format>image/svg+xml</dc:format><dc:type
           rdf:resource="http://purl.org/dc/dcmitype/StillImage" /><dc:title></dc:title></cc:Work></rdf:RDF></metadata><defs
     id="defs33"><defs
       id="defs5"><circle
         id="SVGID_1_"
         cx="127.7"
         cy="127.7"
         r="123.9" /></defs><clipPath
       id="SVGID_2_"><use
         xlink:href="#SVGID_1_"
         style="overflow:visible;"
         id="use9" /></clipPath></defs><style
     id="style2"
     type="text/css">
	.st0{clip-path:url(#SVGID_2_);}
	.st1{fill:#C93827;}
	.st2{fill:#346E9A;}
	.st3{fill:#FBBE4D;}
	.st4{fill:#FFFFFF;}
</style><circle
     r="123.9"
     cy="127.7"
     cx="127.7"
     id="path1132"
     style="opacity:1;vector-effect:none;fill:#1a1a1a;fill-opacity:1;stroke:#000000;stroke-width:0.1;stroke-linecap:butt;stroke-linejoin:miter;stroke-miterlimit:4;stroke-dasharray:none;stroke-dashoffset:0;stroke-opacity:1" /><path
     id="path12"
     d="M 143.90039 65.099609 C 132.60039 65.099609 96.099219 66.000781 84.699219 67.800781 C 66.699219 70.800781 51.5 84.300781 51.5 102.30078 L 51.5 165.59961 C 51.5 167.19703 51.219065 190.6339 50.785156 224.67188 A 123.9 123.9 0 0 0 118.62891 251.14648 L 117.90039 136.09961 L 117.90039 127.69922 L 208.90039 127.69922 L 208.90039 102.30078 C 208.90039 83.100781 203.79922 72.800781 175.69922 67.800781 C 166.19922 66.100781 155.30039 65.199609 143.90039 65.099609 z M 179.90039 85.5 C 186.80039 85.5 192.40039 91.199219 192.40039 98.199219 C 192.40039 105.19922 185.80039 107.90078 179.90039 110.80078 C 173.80039 113.90078 167.40039 105.09922 167.40039 98.199219 C 167.40039 91.199219 173.00039 85.5 179.90039 85.5 z "
     style="fill:#c93827" /><path
     style="fill:#ffffff"
     id="path18"
     d="m 195.7,97.8 c 0,8.6 -7,15.6 -15.5,15.6 -8.6,0 -15.5,-7 -15.5,-15.6 0,-8.6 7,-15.5 15.5,-15.5 8.5,0 15.5,7 15.5,15.5 z"
     class="st4" /><path
     id="path1039"
     d="M 78.480469 -321.73828 L 79.71875 -278.4043 A 39.59798 37.476658 0 0 0 100.05469 -311.09961 A 39.59798 37.476658 0 0 0 99.960938 -313.64453 L 78.480469 -321.73828 z "
     style="fill:none;fill-rule:evenodd;stroke:#000000;stroke-width:1px;stroke-linecap:butt;stroke-linejoin:miter;stroke-opacity:1" /></svg>