<?xml version="1.0" encoding="UTF-8" standalone="no"?>
<svg
   xmlns:dc="http://purl.org/dc/elements/1.1/"
   xmlns:cc="http://creativecommons.org/ns#"
   xmlns:rdf="http://www.w3.org/1999/02/22-rdf-syntax-ns#"
   xmlns:svg="http://www.w3.org/2000/svg"
   xmlns="http://www.w3.org/2000/svg"
   xmlns:sodipodi="http://sodipodi.sourceforge.net/DTD/sodipodi-0.dtd"
   xmlns:inkscape="http://www.inkscape.org/namespaces/inkscape"
   height="300px"
   width="300px"
   fill="#000000"
   viewBox="0 0 512 512"
   x="0px"
   y="0px"
   version="1.1"
   id="svg12"
   sodipodi:docname="octopus-try.svg"
   inkscape:version="0.92.3 (2405546, 2018-03-11)">
  <metadata
     id="metadata18">
    <rdf:RDF>
      <cc:Work
         rdf:about="">
        <dc:format>image/svg+xml</dc:format>
        <dc:type
           rdf:resource="http://purl.org/dc/dcmitype/StillImage" />
      </cc:Work>
    </rdf:RDF>
  </metadata>
  <defs
     id="defs16" />
  <sodipodi:namedview
     pagecolor="#ffffff"
     bordercolor="#666666"
     borderopacity="1"
     objecttolerance="10"
     gridtolerance="10"
     guidetolerance="10"
     inkscape:pageopacity="0"
     inkscape:pageshadow="2"
     inkscape:window-width="2078"
     inkscape:window-height="1776"
     id="namedview14"
     showgrid="false"
     inkscape:zoom="2.4460417"
     inkscape:cx="99.034131"
     inkscape:cy="146.25164"
     inkscape:window-x="0"
     inkscape:window-y="22"
     inkscape:window-maximized="0"
     inkscape:current-layer="svg12" />
  <title
     id="title2">Laughing-Emoji-Emotion-Face-Expression-Feeling_1</title>
  <path
     d="M338.92,225.62H170a8.12,8.12,0,0,0-8.12,8.12,92.58,92.58,0,0,0,185.15,0A8.11,8.11,0,0,0,338.92,225.62Zm-84.45,85.23a84.09,84.09,0,0,1-54.16-19.65,69,69,0,0,1,108.31,0A84.07,84.07,0,0,1,254.47,310.85Z"
     id="path4"
     style="fill:#d45500;fill-opacity:1" />
  <path
     d="M506,326.41c3.09-5.81,6.05-14.6,3.05-24.08s-9.74-15.48-14.64-18.8c-.74-5.2-2.59-12.82-7.16-19.22-6-8.38-15.11-12.38-19.37-13.87-8-6.05-15.51-8.05-22.09-5.77-17.51,6.05-16.22,25.69-15.18,41.47,1.25,19,1.22,30.88-9.78,35.28-4.36,1.74-10.18.22-16-4.15-9.78-7.36-12.67-21.53-6.71-33C414.48,253,434.79,214,434.79,176.65c0-46.42-19.35-89.75-54.48-122a183.87,183.87,0,0,0-248.62,0c-35.13,32.28-54.48,75.61-54.48,122,0,37.37,20.31,76.34,36.63,107.66,6,11.43,3.07,25.6-6.72,33-5.8,4.38-11.63,5.88-16,4.15-7.34-2.94-11.66-6.78-9.78-35.28,1-15.78,2.33-35.42-15.18-41.47-6.58-2.28-14.13-.28-22.09,5.77-4.26,1.49-13.38,5.49-19.37,13.87-4.57,6.4-6.42,14-7.16,19.22-4.9,3.32-11.66,9.37-14.64,18.8s0,18.27,3.05,24.08c-3.6,5.77-7.3,14.74-4.64,24.8,2.42,9.17,8.66,15.07,13.91,18.57a32.41,32.41,0,0,0,9.06,26.39A30.93,30.93,0,0,0,46,405.88a24.71,24.71,0,0,0,15.6,15.62,32.71,32.71,0,0,0,10.85,1.94c-14.67,8.52-27.8,17.19-27.8,34.94,0,12.91,7.09,23.61,20,30.11,1.33.67,2.71,1.29,4.15,1.88a32.21,32.21,0,0,0,28.09,16A39.61,39.61,0,0,0,121.44,498a49,49,0,0,0,26.85,3.08A45.46,45.46,0,0,0,174.55,487c7.68,2.56,19.64,4,33.19-3.51,11.46-6.37,17.06-14.65,19.75-20.47.26-.56.49-1.11.71-1.64A41.78,41.78,0,0,0,253,453.63a24.25,24.25,0,0,0,3-2.51,24.25,24.25,0,0,0,3,2.51,41.7,41.7,0,0,0,24.82,7.73c.22.53.45,1.08.71,1.64,2.69,5.82,8.29,14.1,19.75,20.47,13.55,7.53,25.51,6.07,33.19,3.51a45.46,45.46,0,0,0,26.26,14.14A49,49,0,0,0,390.56,498a39.61,39.61,0,0,0,24.61,8.34,32.21,32.21,0,0,0,28.09-16c1.44-.59,2.82-1.21,4.15-1.88,12.87-6.5,20-17.2,20-30.11,0-17.75-13.13-26.42-27.8-34.94a32.71,32.71,0,0,0,10.85-1.94A24.71,24.71,0,0,0,466,405.88a30.93,30.93,0,0,0,21.68-9.71,32.41,32.41,0,0,0,9.06-26.39c5.25-3.5,11.49-9.4,13.91-18.57C513.33,341.15,509.63,332.18,506,326.41Zm-58.66,132c0,3.59-1,8.24-9,12.26-7.33,3.7-18.33,5.66-31.79,5.66-3.64,0-7.39-.15-11.22-.43a9.88,9.88,0,0,0-1.54-.37,9.06,9.06,0,0,0-2.8,0,215.56,215.56,0,0,1-46.3-10,11.26,11.26,0,0,0-2.07-.72l-.14,0c-16.07-5.53-31.38-12.87-44-21.66a11,11,0,0,0-1.25-1.1,9.38,9.38,0,0,0-1.59-.92C277.85,428,266,411.87,266,393.92a10,10,0,0,0-20,0c0,18.07-12,34.25-30,47.38a11.47,11.47,0,0,0-1.06.64,9.32,9.32,0,0,0-1.13.93c-12.65,8.83-28,16.21-44.08,21.77l-.32.05a9.06,9.06,0,0,0-2.4.87,216.14,216.14,0,0,1-46,9.94,9.06,9.06,0,0,0-2.8,0,9.88,9.88,0,0,0-1.54.37c-3.83.28-7.58.43-11.22.43-13.46,0-24.46-2-31.79-5.66-8-4-9-8.67-9-12.26,0-6.73,5.68-10.64,20.71-19.31,19.83-11.44,47-27.11,64.54-67.37a10,10,0,0,0-18.34-8c-7,16.07-15.76,27.51-25,36.21-4.56-.2-26-1.79-45.45-13.36l-.17-.16a9.24,9.24,0,0,0-2.11-1.25A65.62,65.62,0,0,1,36.1,360.94c-.06-.16-.11-.33-.18-.49a9.14,9.14,0,0,0-.89-1.59,67.23,67.23,0,0,1-3.53-8.72,68.09,68.09,0,0,1-3.31-22.27,9.4,9.4,0,0,0,0-1.5c.74-20.84,10.14-37.76,13.83-43.63C50,270.19,57.47,265,60.23,263.94c2.39,2.34,1.67,13.4,1.17,20.89-.61,9.28-1.3,19.81.86,29.37C65.1,326.75,72.32,335.43,83.72,340c11,4.39,23.91,1.94,35.44-6.74,17.5-13.18,22.84-38.19,12.42-58.18-15.31-29.38-34.37-65.95-34.37-98.42,0-40.75,17.05-78.86,48-107.3a163.86,163.86,0,0,1,221.56,0c31,28.44,48,66.55,48,107.3,0,32.47-19.06,69-34.37,98.42-10.42,20-5.08,45,12.42,58.18,11.53,8.68,24.45,11.13,35.44,6.74,11.4-4.56,18.62-13.24,21.46-25.79,2.16-9.56,1.47-20.09.86-29.37-.5-7.49-1.22-18.55,1.17-20.89,2.76,1,10.27,6.25,18.17,18.8,3.69,5.86,13.08,22.77,13.83,43.59a9.75,9.75,0,0,0,0,1.53,67.1,67.1,0,0,1-7.05,31.39c-.22.37-.43.75-.62,1.14l-.2.51A64.51,64.51,0,0,1,454,384.66a9.47,9.47,0,0,0-3,1.54,8.85,8.85,0,0,0-1.07.95,88.62,88.62,0,0,1-12.47,5.9,109.2,109.2,0,0,1-32.06,6.87c-9.23-8.71-18-20.14-25-36.21a10,10,0,0,0-18.34,8c17.54,40.26,44.71,55.93,64.54,67.37C441.69,447.74,447.37,451.65,447.37,458.38Z"
     id="path6"
     style="stroke:#ff6600;fill:#d45500" />
  <circle
     cx="199.45"
     cy="181.28"
     r="20.61"
     id="circle8"
     style="fill:#d45500;fill-opacity:1" />
  <circle
     cx="310.22"
     cy="181.28"
     r="20.61"
     id="circle10"
     style="fill:#d45500;fill-opacity:1" />
</svg>
