<?xml version="1.0" encoding="UTF-8" standalone="no"?>
<!-- Created with Inkscape (http://www.inkscape.org/) -->

<svg
   xmlns:dc="http://purl.org/dc/elements/1.1/"
   xmlns:cc="http://creativecommons.org/ns#"
   xmlns:rdf="http://www.w3.org/1999/02/22-rdf-syntax-ns#"
   xmlns:svg="http://www.w3.org/2000/svg"
   xmlns="http://www.w3.org/2000/svg"
   xmlns:sodipodi="http://sodipodi.sourceforge.net/DTD/sodipodi-0.dtd"
   xmlns:inkscape="http://www.inkscape.org/namespaces/inkscape"
   width="140.38498mm"
   height="102.36548mm"
   viewBox="0 0 497.42709 362.71232"
   id="svg2"
   version="1.1"
   inkscape:version="0.91 r13725"
   sodipodi:docname="meetup.svg">
  <defs
     id="defs4" />
  <sodipodi:namedview
     id="base"
     pagecolor="#ffffff"
     bordercolor="#666666"
     borderopacity="1.0"
     inkscape:pageopacity="0.0"
     inkscape:pageshadow="2"
     inkscape:zoom="0.7"
     inkscape:cx="393.28485"
     inkscape:cy="231.8768"
     inkscape:document-units="px"
     inkscape:current-layer="layer1"
     showgrid="false"
     fit-margin-top="0"
     fit-margin-left="0"
     fit-margin-right="0"
     fit-margin-bottom="0"
     inkscape:window-width="1364"
     inkscape:window-height="662"
     inkscape:window-x="0"
     inkscape:window-y="30"
     inkscape:window-maximized="0" />
  <metadata
     id="metadata7">
    <rdf:RDF>
      <cc:Work
         rdf:about="">
        <dc:format>image/svg+xml</dc:format>
        <dc:type
           rdf:resource="http://purl.org/dc/dcmitype/StillImage" />
        <dc:title></dc:title>
      </cc:Work>
    </rdf:RDF>
  </metadata>
  <g
     inkscape:label="Layer 1"
     inkscape:groupmode="layer"
     id="layer1"
     transform="translate(-570.06569,-206.07847)">
    <path
       style="fill:#f30017;fill-opacity:1"
       d="m 618.73623,565.71519 c -3.70129,-1.8495 -7.54338,-4.77023 -9.6385,-7.32705 -6.68581,-8.15915 -3.74234,11.13335 -31.59203,-207.06422 -5.23616,-41.02446 -7.81358,-64.3723 -7.39628,-67 0.73713,-4.64162 4.5017,-13.09514 7.15121,-16.05839 3.30229,-3.69331 8.97816,-7.48327 13.42339,-8.96323 7.00875,-2.33344 410.23508,-53.74523 417.40688,-53.21983 11.0534,0.80976 22.1921,8.99017 25.9268,19.04101 1.2685,3.41388 12.4791,88.44283 31.0171,235.25588 3.2355,25.6234 3.2635,32.32638 0.1625,38.9114 -1.295,2.75 -4.0731,6.75018 -6.1736,8.8893 -8.088,8.23663 5.951,5.99975 -217.0615,34.58519 -111.67251,14.31403 -206.19776,26.02554 -210.05611,26.02554 -5.83216,0 -8.05312,-0.5187 -13.16986,-3.0756 z m 174.8352,-58.42197 c 257.67777,-32.94138 268.12797,-34.2909 268.44537,-34.66671 0.2489,-0.29459 -23.4942,-187.05196 -23.8396,-187.51676 -0.074,-0.0996 -71.678,8.98252 -159.12011,20.18239 -87.44211,11.19988 -189.81066,24.2934 -227.48566,29.09673 -37.67499,4.80333 -68.96693,9.08454 -69.53764,9.51381 -0.69927,0.52598 2.81425,30.8807 10.77438,93.08429 6.49661,50.76708 11.99058,92.81067 12.20883,93.43018 0.21824,0.61952 1.44478,0.94824 2.72562,0.7305 1.28085,-0.21775 84.90381,-10.95224 185.82881,-23.85443 z"
       id="path3461"
       inkscape:connector-curvature="0"
       sodipodi:nodetypes="csssssssssssscsccsssscss" />
    <path
       style="fill:#000000;fill-opacity:1"
       d="m 965.26406,470.30832 c -2.9956,-4.08948 -9.46079,-25.85529 -10.89797,-36.68929 -0.5448,-4.10685 -1.26127,-5.44992 -4.03655,-7.56673 -4.32329,-3.29754 -4.78466,-8.07972 -0.87418,-9.06119 2.47791,-0.62191 2.50113,-0.73033 2.62762,-12.26905 0.0702,-6.40287 0.22882,-12.54159 0.3525,-13.64159 1.72719,-15.36118 4.59101,-25.21402 9.09637,-31.29563 4.98966,-6.73535 11.25124,-12.08143 14.96675,-12.77846 1.94516,-0.36491 5.43116,-0.18203 7.74666,0.40641 2.3156,0.58843 6.6248,1.64033 9.5761,2.33755 5.6031,1.3237 7.75274,3.30296 11.76234,10.83013 1.5433,2.89739 1.865,5.73825 1.868,16.5 0,12.81294 -0.042,13.07914 -3.1942,18.5 -4.58714,7.88922 -15.93744,21.72327 -20.58594,25.09065 -2.1851,1.58284 -5.7626,3.66754 -7.95017,4.63268 l -3.97734,1.75479 0.67522,7.01094 c 1.01301,10.51821 4.25156,24.01593 7.12069,29.678 1.4024,2.76749 2.4071,5.17229 2.2326,5.344 -0.1745,0.17171 -2.5672,0.42649 -5.3172,0.5662 -2.75,0.1397 -5.45,0.50395 -6,0.80944 -2.0013,1.1116 -4.31247,1.04088 -5.1913,-0.15885 z m 9.81578,-63.47785 c 9.87342,-10.4877 13.87552,-19.02248 13.87552,-29.59095 0,-5.8822 -2.6129,-17.65905 -3.918,-17.65905 -1.5542,0 -8.264,11.84943 -10.12902,17.88765 -1.11996,3.626 -2.47361,11.32215 -3.00811,17.10254 -0.53449,5.7804 -1.1795,11.74731 -1.43334,13.25981 -0.61907,3.68868 0.4086,3.4659 4.61295,-1 z m -331.85339,61.81247 c -3.17731,-5.08768 -9.35969,-35.93759 -10.73402,-53.56247 -0.3431,-4.4 -0.85767,-9.20389 -1.14349,-10.67531 -0.4671,-2.40466 -0.0327,-2.89311 4.29337,-4.82804 2.64718,-1.184 7.10631,-2.39842 9.90917,-2.69871 l 5.09612,-0.54598 4.47487,5.87402 c 2.46118,3.23071 7.74954,10.71223 11.75192,16.62559 4.00237,5.91337 7.6775,10.99907 8.16694,11.30156 0.50118,0.30975 0.62904,-1.35325 0.2927,-3.80708 -1.30456,-9.5178 4.65872,-44.97702 8.18555,-48.67338 0.88859,-0.9313 4.27962,-1.58046 9.75792,-1.868 l 8.39606,-0.44068 2.5152,3.368 c 1.38336,1.85241 3.30845,5.84301 4.27798,8.86801 0.96954,3.025 2.55027,7.075 3.51275,9 0.96247,1.925 4.45864,11.375 7.76926,21 6.77895,19.70849 8.96436,25.36663 13.80815,35.75 1.97751,4.23908 2.89906,7.25 2.21901,7.25 -0.63969,0 -1.8735,0.58291 -2.74181,1.29536 -2.23542,1.83417 -11.80334,4.99288 -12.95944,4.27837 -0.53099,-0.32817 -1.25014,-1.89298 -1.59813,-3.47736 -0.34799,-1.58438 -2.0002,-5.037 -3.67158,-7.67249 -3.10612,-4.89784 -11.65289,-23.93665 -15.79954,-35.19513 -1.27039,-3.44918 -2.73183,-6.53208 -3.24766,-6.85088 -1.01643,-0.62819 -0.31591,13.99672 1.26667,26.44449 1.06142,8.34862 1.18507,16.62735 0.29779,19.93858 -0.37232,1.38948 -1.61974,2.47427 -3.23634,2.8144 -1.44678,0.30441 -5.52208,1.28768 -9.05621,2.18505 l -6.4257,1.63157 -5.92215,-6.4389 c -3.25718,-3.5414 -7.96795,-9.14209 -10.46837,-12.44598 -4.99731,-6.60309 -5.00142,-6.57996 -1.30152,7.31864 2.63562,9.90067 2.28045,10.65798 -6.59051,14.0527 -6.87181,2.6297 -9.53999,2.67396 -11.09496,0.18405 z m 112.72891,-9.18104 c -4.3241,-0.72928 -10.4929,-3.49512 -16.20089,-7.26383 -3.88461,-2.56482 -6.45266,-8.81143 -7.85946,-19.1176 -3.9061,-28.61597 -1.18587,-40.33159 12.40577,-53.42979 4.53023,-4.36576 4.68742,-4.42641 10.87562,-4.19578 11.06288,0.41229 13.97016,1.28878 16.04209,4.83641 2.85561,4.88949 6.84134,26.43983 6.51395,35.22018 -0.2724,7.30553 -0.32774,7.44581 -3.27708,8.30669 -1.65,0.48162 -7.66815,0.92438 -13.37367,0.98392 l -10.37367,0.10824 0.50856,6.08507 c 0.72163,8.63458 3.2639,14.22851 8.03818,17.68698 5.00485,3.6255 7.11256,3.6266 13.99288,0.007 4.76953,-2.50892 6.07073,-2.78283 9.85154,-2.07377 4.68125,0.87792 9.85618,2.63906 9.85618,3.35425 0,1.17318 -9.92827,5.76478 -16.3152,7.5454 -8.61462,2.4017 -14.62903,2.9676 -20.6848,1.94628 z m 2,-48.51613 c 0,-4.92019 -2.16471,-16.3653 -3.0953,-16.3653 -1.03877,0 -2.77857,5.58082 -3.91329,12.55276 -1.05557,6.48567 -0.52862,7.40527 4.25859,7.43193 2.49841,0.0139 2.75,-0.31722 2.75,-3.61939 z m 46.96922,38.27746 c -2.49193,-0.67224 -5.45252,-1.87937 -6.57909,-2.68251 -3.59255,-2.56114 -11.34465,-11.91251 -11.79381,-14.22688 -2.40815,-12.40845 -2.57716,-16.61784 -1.12692,-28.0677 0.82441,-6.50888 1.95476,-13.48388 2.5119,-15.5 2.08947,-7.56126 13.14662,-23.90869 16.78998,-24.82311 3.57746,-0.89789 19.04936,2.7492 20.30898,4.7873 1.35554,2.19331 1.85056,9.79339 1.75061,26.877 -0.0531,9.07878 0.22409,17.96689 0.61603,19.75135 0.6883,3.13385 0.54791,3.31609 -4.11715,5.34405 -4.00154,1.73952 -6.15873,2.01272 -12.57975,1.59321 l -7.75,-0.50635 0,3.43756 c 0,5.17206 2.19857,9.4082 7.33004,14.12332 3.86592,3.55226 5.29625,4.25 8.71224,4.25 5.61841,0 13.41172,-3.50625 14.86041,-6.68577 1.00239,-2.20001 1.60533,-2.46565 4.37986,-1.92971 3.03284,0.58584 6.71745,3.73885 6.71745,5.74829 0,1.50519 -9.15283,6.83408 -14.4315,8.4022 -5.89722,1.75187 -19.29563,1.80827 -25.59928,0.10775 z m 6.85,-41.63273 c 0.39147,-5.50613 -1.77853,-21.49801 -2.76065,-20.34472 -1.8398,2.16044 -6.39964,22.97381 -5.39078,24.60618 0.28491,0.46099 2.16371,0.70099 4.17511,0.53334 3.56604,-0.29724 3.66505,-0.41663 3.97632,-4.7948 z m 48.25594,30.28661 c -1.22301,-6.48815 -2.91515,-14.89502 -3.76033,-18.68193 l -1.53668,-6.88529 -7.91072,0.54221 c -8.65588,0.59329 -10.86743,-0.36075 -10.86743,-4.68807 0,-3.60049 3.03555,-5.58162 8.57874,-5.59887 8.33244,-0.0259 8.24253,0.57494 3.08572,-20.62201 -7.21184,-29.64411 -9.68618,-45.62256 -7.818,-50.48597 1.34809,-3.50946 5.12322,-4.31832 11.49936,-2.46385 8.76542,2.54937 8.91607,2.79186 9.75745,15.70599 0.40782,6.25963 2.1503,18.58115 3.87217,27.38115 1.72187,8.8 2.88425,17.28146 2.58308,18.84768 -0.79407,4.12948 0.35301,7.81699 2.31244,7.43379 1.1331,-0.22159 1.53099,-1.15128 1.30699,-3.05376 -0.39269,-3.33506 1.85346,-4.49006 5.50042,-2.82839 2.80117,1.2763 13.32163,9.25635 13.32163,10.10482 0,0.90642 -11.27718,4.87304 -15.74476,5.53805 -5.10927,0.76052 -5.46907,1.22545 -4.2467,5.48759 0.68044,2.37255 0.60115,3.74646 -0.27897,4.83433 -0.99274,1.22707 -0.972,1.36477 0.10764,0.71493 1.00848,-0.60701 1.28049,-0.10107 1.10649,2.05804 -0.12689,1.57461 0.0233,3.53792 0.33373,4.36292 0.31045,0.825 1.06936,4.65 1.68646,8.5 0.61711,3.85 1.33237,8.31719 1.58948,9.92708 0.2571,1.6099 0.18072,2.64035 -0.16974,2.28989 -0.35046,-0.35046 -1.81765,-0.0344 -3.26041,0.70247 -1.44277,0.73683 -4.01849,1.63987 -5.72382,2.00676 l -3.1006,0.66708 z m 44.86246,-3.24155 c -5.26572,-5.53542 -11.29205,-22.68398 -14.24751,-40.54279 -1.52566,-9.21901 -1.20878,-12.21291 1.37958,-13.03442 2.27462,-0.72193 15.28697,3.04202 16.79396,4.85782 0.60256,0.72605 1.75406,5.78503 2.55889,11.24219 1.90968,12.94863 4.97803,27.52857 6.28479,29.86363 0.92574,1.6542 1.31133,1.38251 3.61153,-2.5448 6.27249,-10.70951 6.95389,-13.36926 6.48441,-25.31117 -0.23969,-6.09705 -0.98892,-12.10665 -1.66495,-13.35466 -0.98049,-1.81007 -0.96518,-2.82155 0.0756,-5 1.45972,-3.0552 4.56344,-3.92063 8.63098,-2.40662 1.46029,0.54354 3.55506,1.32908 4.65506,1.74563 1.1,0.41655 2.225,0.80798 2.5,0.86985 3.23089,0.72681 4.06318,2.56779 4.66004,10.3077 0.68235,8.84852 -0.72312,16.22969 -3.63949,19.11365 -0.91152,0.9014 -2.22926,3.62537 -2.92832,6.05328 -0.76569,2.65933 -1.56409,3.94017 -2.00818,3.22162 -0.49144,-0.79517 -1.13255,-0.32498 -1.92331,1.41056 -0.65238,1.43182 -0.92691,3.02277 -0.61006,3.53544 0.31685,0.51267 -0.11383,1.19687 -0.95706,1.52045 -0.84323,0.32358 -2.07524,2.08745 -2.73779,3.91971 -1.37692,3.80779 -5.2526,5.91857 -13.74232,7.48438 -8.19169,1.51084 -9.13122,1.30038 -13.17589,-2.95145 z"
       id="path3461-1"
       inkscape:connector-curvature="0"
       sodipodi:nodetypes="ssssssssssscssscsssssssssssssssssscsssssscsssssssssssssssscssssscsssssssscsscsssccsssssssssssssssscssssssssssssssscsssssssssssssssssscssscscscsssssssscsscssssssssscc" />
  </g>
</svg>
