<?xml version="1.0" encoding="UTF-8" standalone="no"?>
<svg
   xmlns:dc="http://purl.org/dc/elements/1.1/"
   xmlns:cc="http://creativecommons.org/ns#"
   xmlns:rdf="http://www.w3.org/1999/02/22-rdf-syntax-ns#"
   xmlns:svg="http://www.w3.org/2000/svg"
   xmlns="http://www.w3.org/2000/svg"
   xmlns:sodipodi="http://sodipodi.sourceforge.net/DTD/sodipodi-0.dtd"
   xmlns:inkscape="http://www.inkscape.org/namespaces/inkscape"
   version="1.1"
   id="Layer_1"
   x="0px"
   y="0px"
   viewBox="0 0 1223.258 1548.6474"
   enable-background="new 0 0 1337.518 1676.061"
   xml:space="preserve"
   sodipodi:docname="parachute-02.svg"
   inkscape:version="0.92.3 (2405546, 2018-03-11)"
   width="1223.2579"
   height="1548.6475"><metadata
   id="metadata1141"><rdf:RDF><cc:Work
       rdf:about=""><dc:format>image/svg+xml</dc:format><dc:type
         rdf:resource="http://purl.org/dc/dcmitype/StillImage" /><dc:title /></cc:Work></rdf:RDF></metadata><defs
   id="defs1139">
</defs><sodipodi:namedview
   pagecolor="#ffffff"
   bordercolor="#666666"
   borderopacity="1"
   objecttolerance="10"
   gridtolerance="10"
   guidetolerance="10"
   inkscape:pageopacity="0"
   inkscape:pageshadow="2"
   inkscape:window-width="2078"
   inkscape:window-height="1776"
   id="namedview1137"
   showgrid="false"
   inkscape:zoom="0.41130558"
   inkscape:cx="1287.0224"
   inkscape:cy="604.33656"
   inkscape:window-x="0"
   inkscape:window-y="22"
   inkscape:window-maximized="0"
   inkscape:current-layer="layer2"
   fit-margin-top="0"
   fit-margin-left="0"
   fit-margin-right="0"
   fit-margin-bottom="0" />

<g
   inkscape:groupmode="layer"
   id="layer1"
   inkscape:label="Layer 1"
   style="display:none"
   transform="translate(-2384.5606,-142.5245)"><path
     d="m 521.55752,1084.9065 c -136.95775,446.8412 490.35978,442.2527 300.772,4.042 2.173,-1.459 6.454,-2.189 5.804,-5.612 -0.273,-3.688 -1.026,-7.352 -0.745,-11.048 2.475,-2.993 442.34998,-604.74597 442.95398,-605.54897 1.885,-1.12 12.438,-15.986 13.012,-16.788 1.574,-1.848 3.666,-44.956 -16.093,-99.436 -6.174,-20.359 -32.444,-68.602 -37.688,-71.328 -19.238,-30.829 -63.507,-75.931 -95.059,-98.915 -38.089,-27.609 -39.22,-29.561 -95.291,-59.527 C 921.87552,62.126532 813.49752,51.037532 792.88052,46.770532 l 0.722,-0.104 c -6.582,-0.204 -22.478,-3.191 -25.478,-2.469 -1.609,-0.859 -35.25,-3.754 -47.349,-3.503 0.401,-0.257 0.81,-0.521 1.235,-0.786 -0.803,0.031 -86.84,-2.552 -110.099,0.2 -0.802,0.126 -90.757,6.892 -103.092,13.06 C 239.20252,101.18253 89.413513,259.58553 65.664513,375.84953 c -1.299,3.039 -1.636,6.349 -2.782,9.444 0,4.057 -1.996,7.736 -1.98,11.785 -1.541,4.467 -3.68,23.653 -3.704,26.497 -1.484,0.837 -0.964,23.961 -0.874,25.422 11.932,15.326 463.735007,633.50597 465.233007,635.90897 z m 2.645,-8.521 c -21.041,-27.948 -455.447007,-623.37297 -459.853007,-627.64497 -0.034,-5.695 -1.655,-15.902 8.322,-34.802 8.896,-18.668 31.661007,-34.138 34.361007,-36.35 58.51,-37.087 140.683,-36.306 192.996,-9.821 56.589,27.706 58.808,66.463 61.066,71.409 -0.261,17.532 29.556,83.664 30.513,93.704 0.361,-0.289 0.73,-0.577 1.098,-0.858 1.199,7.852 31.049,84.549 32.533,92.365 0.176,-0.289 0.361,-0.569 0.553,-0.842 4.019,13.836 66.143,179.242 65.981,183.536 0.377,-0.329 0.754,-0.649 1.146,-0.946 0.555,6.331 69.221,188.241 68.484,191.321 -11.255,15.29197 -17.43,14.63297 -27.09,41.62497 -4.915,11.978 -6.446,24.957 -10.11,37.304 m 140.372,-255.41797 c -8.723,0.312 -27.787,12.135 -32.293,16.828 -11.242,10.853 -14.357,41.985 -16.756,51.302 -2.332,8.503 -7.667,14.592 11.104,15.425 1.932,3.063 3.143,6.502 4.931,9.637 1.171,0.826 2.686,0.914 4.033,1.379 0.361,6.39 3.8,11.97 6.71,17.477 0.738,3.704 -0.12,7.544 0.056,11.312 -1.86,5.878 -8.742,7.305 -15.425,11.729 -1.459,0.914 -2.798,2.036 -4.353,2.798 -4.514,-0.265 -9.091,-0.569 -13.549,0.329 -2.028,0.497 -4.089,-0.088 -6.125,0.072 -1.924,0.89 -3.367,2.589 -5.347,3.391 -9.261,3.578 -12.456,1.803 -16.595,7.592 2.068,1.523 4.081,3.143 5.925,4.963 -15.202,9.703 -9.951,7.114 -19.602,15.802 -3.112,-11.067 -18.423,-49.481 -19.658,-55.703 -0.168,0.321 -0.337,0.657 -0.489,1.002 -0.652,-5.163 -34.071,-92.432 -36.141,-101.168 -0.257,0.257 -0.513,0.529 -0.754,0.81 -1.623,-9.467 -139.349,-379.806 -140.532,-387.828 1.059,-89.474 156.108,-132.022 253.838,-70.238 24.084,18.269 29.122,26.923 36.093,40.831 6.209,32.676 5.076,-65.876 4.929,402.258 z m 11.697,3.744 c -1.693,-5.484 -0.406,-386.048 -0.417,-386.85 0.471,-9.113 5.331,-21.09 9.701,-29.078 0.655,-0.592 14.658,-17.506 14.784,-17.678 55.025,-49.804 145.017,-49.444 196.604,-29.455 62.56,27.012 77.904,65.887 72.94,90.593 -1.462,3.639 -19.698,51.339 -19.754,55.118 -0.273,-0.345 -0.529,-0.682 -0.778,-1.01 -0.562,5.209 -92.114,251.174 -93.055,256.756 -0.176,-0.305 -0.345,-0.601 -0.497,-0.882 -3.133,12.078 -27.79,74.258 -27.499,78.616 -0.289,-0.337 -0.569,-0.657 -0.85,-0.97 -0.778,3.247 -2.181,6.366 -2.405,9.741 -0.345,-0.313 -0.673,-0.617 -0.986,-0.914 -3.334,13.379 -23.494,62.767 -24.148,69.3 -0.377,-0.361 -0.746,-0.714 -1.098,-1.05 -0.441,6.831 -4.874,12.611 -5.877,19.345 -0.168,-0.329 -0.329,-0.657 -0.473,-0.962 -0.628,3.704 -17.564,48.781 -21.125,59.062 -7.608,-4.105 -14.351,-10.583 -23.298,-11.617 -2.897,-5.878 -1.541,-2 -2.261,-18.455 -9.252,-5.78 -20.668,-4.898 -31.09,-5.909 -5.42,-3.568 -9.276,-9.468 -15.457,-11.897 -1.813,-11.853 4.863,-12.549 7.985,-32.165 1.299,1.09 2.453,3.119 4.441,2.574 4.312,-0.978 2.803,-6.88 4.914,-14.279 4.049,0.601 8.418,1.627 12.242,-0.465 -1.711,-17.938 -0.861,-14.131 -2.469,-19.466 -13.019,-40.691 -15.371,-60.112 -50.074,-58.003 z m 147.155,241.07497 c -9.122,-16.428 -1.778,-6.672 -18.263,-24.661 -6.224,-19.063 -23.578,-36.895 -27.354,-41.45597 -0.313,-4.43 85.727,-233.036 86.176,-239.223 0.369,0.297 0.754,0.617 1.138,0.938 -0.13,-5.681 55.65,-150.522 55.527,-156.534 0.168,0.722 0.353,1.435 0.561,2.165 0.786,-3.576 2.237,-6.983 2.758,-10.615 0.353,0.273 0.706,0.537 1.074,0.826 1.366,-6.636 53.972,-150.097 53.971,-150.393 0.237,-50.277 59.68998,-90.472 121.55498,-96.334 2.62,-0.149 27.923,-3.339 42.362,-1.219 7.219,0.981 47.753,2.013 84.124,24.508 8.1,4.279 19.493,12.906 32.533,27.787 11.776,14.057 15.259,31.991 15.898,34.097 0.577,3.407 0.329,6.911 0.425,10.358 0.29,2.616 -451.13898,618.27497 -452.48498,619.75597 z"
     id="path1134"
     inkscape:connector-curvature="0"
     style="fill:#1b1b1b"
     sodipodi:nodetypes="cccccccccccccccccccccccccccccccccccccccccccccccccccccccccccccccccccccccccccccccccccccccccccccccccccccccccccc" /></g><g
   inkscape:groupmode="layer"
   id="layer2"
   inkscape:label="Layer 2"
   transform="translate(-2384.5606,-142.5245)">

<text
   xml:space="preserve"
   style="font-style:normal;font-variant:normal;font-weight:normal;font-stretch:normal;font-size:55.67392731px;line-height:80.29893494px;font-family:Cantarell;-inkscape-font-specification:Cantarell;letter-spacing:0px;word-spacing:0px;fill:#000000;fill-opacity:1;stroke:none;stroke-width:3.21195722px;stroke-linecap:butt;stroke-linejoin:miter;stroke-opacity:1"
   x="2394.4792"
   y="-90.630592"
   id="text6732"><tspan
     sodipodi:role="line"
     id="tspan6730"
     x="2394.4792"
     y="-90.630592"
     style="stroke-width:3.21195722px">https://openclipart.org/detail/285121/paratrooper-silhouette</tspan><tspan
     sodipodi:role="line"
     x="2394.4792"
     y="-10.331657"
     id="tspan6734"
     style="stroke-width:3.21195722px">https://openclipart.org/detail/193005/parachute-on-box-of-bibles</tspan></text>
<g
   id="g4056"><g
     transform="rotate(-23.465685,4238.3087,4270.8736)"
     id="g7384"
     style="fill:#ffffff"><rect
       transform="matrix(0.87830019,0.47810958,-0.47718383,0.8788035,0,0)"
       id="rect7282"
       style="fill:#ffffff;stroke:#000000;stroke-width:3.00130129"
       rx="30.624422"
       ry="30.641031"
       height="479.69632"
       width="479.36896"
       y="-1221.2625"
       x="3911.8237" /><rect
       transform="matrix(0.87830019,0.47810958,-0.47718383,0.8788035,0,0)"
       id="rect7284"
       style="fill:#ffffff;stroke:#000000;stroke-width:3.00130129"
       rx="0"
       ry="0"
       height="351.78006"
       width="351.53998"
       y="-1157.3743"
       x="3975.7087" /><path
       id="path7286"
       style="fill:#ffffff;stroke:#000000;stroke-width:3.00130033"
       d="m 4045.4539,882.55122 -22.4006,-75.87218"
       inkscape:connector-curvature="0" /><path
       id="path7288"
       style="fill:#ffffff;stroke:#000000;stroke-width:3.00130033"
       d="m 4348.198,1050.1684 75.0513,-22.214"
       inkscape:connector-curvature="0" /><path
       id="path7290"
       style="fill:#ffffff;stroke:#000000;stroke-width:3.00130033"
       d="m 4185.2295,1364.1094 20.6772,70.0345"
       inkscape:connector-curvature="0" /><path
       id="path7292"
       style="fill:#ffffff;stroke:#000000;stroke-width:3.00130033"
       d="m 3876.5006,1193.7034 -75.7775,22.4288"
       inkscape:connector-curvature="0" /><path
       id="path7294"
       style="fill:#ffffff;stroke:#000000;stroke-width:3.00130033"
       d="m 4016.3443,936.16071 303.9749,165.47119"
       inkscape:connector-curvature="0" /><path
       id="path7296"
       d="m 3989.005,986.51034 303.9749,165.47116"
       style="fill:#ffffff;stroke:#000000;stroke-width:3.00130033"
       inkscape:connector-curvature="0" /><path
       id="path7298"
       style="fill:#ffffff;stroke:#000000;stroke-width:3.00130033"
       d="m 3989.005,986.51034 303.9749,165.47116"
       inkscape:connector-curvature="0" /><path
       id="path7300"
       d="m 3933.9327,1087.9334 303.9749,165.4715"
       style="fill:#ffffff;stroke:#000000;stroke-width:3.00130033"
       inkscape:connector-curvature="0" /><path
       id="path7302"
       style="fill:#ffffff;stroke:#000000;stroke-width:3.00130033"
       d="m 3906.5935,1138.283 303.9749,165.4712"
       inkscape:connector-curvature="0" /><path
       id="path7304"
       style="fill:#ffffff;stroke:#000000;stroke-width:3.00130033"
       d="m 4018.1668,939.96878 57.5684,194.99912 57.5682,194.9991 54.4751,29.8886 20.7458,-52.1505 -58.1794,-197.0591 -58.1829,-197.06077 -45.4543,-20.79561 z"
       inkscape:connector-curvature="0" /><rect
       transform="matrix(-0.98201101,0.18882365,-0.47718383,0.8788035,0,0)"
       id="rect7306"
       style="fill:#ffffff;stroke:#000000;stroke-width:3.37968922"
       rx="13.322106"
       ry="30.030052"
       height="470.13116"
       width="208.53304"
       y="2388.5945"
       x="-5887.5513" /><rect
       transform="matrix(-0.98201101,0.18882365,-0.47718383,0.8788035,0,0)"
       id="rect7308"
       style="fill:#ffffff;stroke:#000000;stroke-width:3.37968922"
       rx="0"
       ry="0"
       height="344.76556"
       width="152.92543"
       y="2451.2097"
       x="-5859.7603" /><path
       id="path7310"
       d="m 4585.2063,1046.2923 50.0322,-52.76139"
       style="fill:#ffffff;stroke:#000000;stroke-width:2.97122788"
       inkscape:connector-curvature="0" /><path
       id="path7312"
       d="m 4436.226,1076.8462 2.2583,-43.162"
       style="fill:#ffffff;stroke:#000000;stroke-width:2.97122788"
       inkscape:connector-curvature="0" /><path
       id="path7314"
       d="m 4268.0189,1381.9801 -46.1825,48.7019"
       style="fill:#ffffff;stroke:#000000;stroke-width:2.97122788"
       inkscape:connector-curvature="0" /><path
       id="path7316"
       d="m 4419.6219,1351.2401 -2.2803,43.5794"
       style="fill:#ffffff;stroke:#000000;stroke-width:2.97122788"
       inkscape:connector-curvature="0" /><path
       id="path7318"
       d="m 4556.6772,1098.8325 -147.8481,28.4289"
       style="fill:#ffffff;stroke:#000000;stroke-width:2.97122788"
       inkscape:connector-curvature="0" /><path
       id="path7320"
       style="fill:#ffffff;stroke:#000000;stroke-width:2.97122788"
       d="m 4529.8831,1148.1781 -147.8483,28.4288"
       inkscape:connector-curvature="0" /><path
       id="path7322"
       d="m 4502.8959,1197.8787 -147.8481,28.4285"
       style="fill:#ffffff;stroke:#000000;stroke-width:2.97122788"
       inkscape:connector-curvature="0" /><path
       id="path7324"
       style="fill:#ffffff;stroke:#000000;stroke-width:2.97122788"
       d="m 4475.9092,1247.579 -147.8486,28.4288"
       inkscape:connector-curvature="0" /><path
       id="path7326"
       d="m 4449.1148,1296.9245 -147.8485,28.4288"
       style="fill:#ffffff;stroke:#000000;stroke-width:2.97122788"
       inkscape:connector-curvature="0" /><path
       id="path7328"
       d="m 4554.06,1101.2436 -128.5867,135.6026 -128.5872,135.6029 -26.6398,5.2814 28.9024,-48.5395 129.9455,-137.0342 129.9474,-137.0341 19.6819,-1.1103 z"
       style="fill:#ffffff;stroke:#000000;stroke-width:2.97122788"
       inkscape:connector-curvature="0" /><rect
       transform="matrix(-0.87830019,-0.47810958,-0.97558314,0.21963047,0,0)"
       id="rect7330"
       style="fill:#ffffff;stroke:#000000;stroke-width:3.69618297"
       rx="30.624422"
       ry="13.617358"
       height="213.1846"
       width="479.36896"
       y="-2066.9077"
       x="-2998.748" /><rect
       transform="matrix(-0.87830019,-0.47810958,-0.97558314,0.21963047,0,0)"
       id="rect7332"
       style="fill:#ffffff;stroke:#000000;stroke-width:3.69618297"
       rx="0"
       ry="0"
       height="156.33661"
       width="351.53998"
       y="-2038.5148"
       x="-2934.8638" /><path
       id="path7334"
       d="m 4566.6491,955.0343 73.3377,21.26292"
       style="fill:#ffffff;stroke:#000000;stroke-width:3.00128531"
       inkscape:connector-curvature="0" /><path
       id="path7336"
       d="m 4261.6528,789.83215 -24.6024,-31.87258"
       style="fill:#ffffff;stroke:#000000;stroke-width:3.00128531"
       inkscape:connector-curvature="0" /><path
       id="path7338"
       d="M 4102.5337,821.20016 4034.8385,801.5733"
       style="fill:#ffffff;stroke:#000000;stroke-width:3.00128531"
       inkscape:connector-curvature="0" /><path
       id="path7340"
       d="m 4413.1399,989.59355 24.84,32.18095"
       style="fill:#ffffff;stroke:#000000;stroke-width:3.00128531"
       inkscape:connector-curvature="0" /><path
       id="path7342"
       d="M 4540.2006,960.98879 4236.2255,795.51752"
       style="fill:#ffffff;stroke:#000000;stroke-width:3.00128531"
       inkscape:connector-curvature="0" /><path
       id="path7344"
       d="M 4490.3413,972.21348 4186.3664,806.74219"
       style="fill:#ffffff;stroke:#000000;stroke-width:3.00128531"
       inkscape:connector-curvature="0" /><path
       id="path7346"
       d="M 4440.4822,983.43818 4136.5068,817.96689"
       style="fill:#ffffff;stroke:#000000;stroke-width:3.00128531"
       inkscape:connector-curvature="0" /><path
       id="path7348"
       d="m 4536.1258,959.59536 -188.4833,-54.64603 -188.4828,-54.64604 -54.6628,-29.68715 30.0038,-2.25767 190.4756,55.22451 190.4788,55.22699 42.2966,24.18086 z"
       style="fill:#ffffff;stroke:#000000;stroke-width:3.00128531"
       inkscape:connector-curvature="0" /></g><path
     style="fill:#ffffff;fill-opacity:1;fill-rule:evenodd;stroke:#000000;stroke-width:3;stroke-linecap:butt;stroke-linejoin:miter;stroke-miterlimit:4;stroke-dasharray:none;stroke-opacity:1"
     d="m 2386.0508,549.49557 c 54.6943,-147.87484 272.6977,-119.30148 311.4037,-0.75758 9.5868,-107.79537 253.471,-159.3151 300.3502,-0.73069 40.0475,-140.59665 272.3361,-132.25998 306.0769,-0.74462 37.3926,-136.1836 279.4924,-121.43964 301.7562,-0.73411 33.1085,-475.526207 -1150.9705,-595.63103 -1219.587,2.967 z"
     id="path7123"
     inkscape:connector-curvature="0"
     sodipodi:nodetypes="cccccc" /><path
     style="fill:#ffffff;fill-rule:evenodd;stroke:#000000;stroke-width:3;stroke-linecap:butt;stroke-linejoin:miter;stroke-miterlimit:4;stroke-dasharray:none;stroke-opacity:1"
     d="m 2697.4545,548.73799 270.4428,557.16481"
     id="path7195"
     inkscape:connector-curvature="0"
     sodipodi:nodetypes="cc" /><path
     style="fill:#ffffff;fill-rule:evenodd;stroke:#000000;stroke-width:3;stroke-linecap:butt;stroke-linejoin:miter;stroke-miterlimit:4;stroke-dasharray:none;stroke-opacity:0.7372549"
     d="M 3605.6378,546.52857 3033.2009,1133.4457"
     id="path7197"
     inkscape:connector-curvature="0"
     sodipodi:nodetypes="cc" /><path
     style="fill:#ffffff;fill-rule:evenodd;stroke:#000000;stroke-width:3;stroke-linecap:butt;stroke-linejoin:miter;stroke-miterlimit:4;stroke-dasharray:none;stroke-opacity:1"
     d="m 2997.8047,548.0073 2.7148,557.8374"
     id="path7199"
     inkscape:connector-curvature="0"
     sodipodi:nodetypes="cc" /><path
     style="fill:#ffffff;fill-rule:evenodd;stroke:#000000;stroke-width:3;stroke-linecap:butt;stroke-linejoin:miter;stroke-miterlimit:4;stroke-dasharray:none;stroke-opacity:1"
     d="M 3303.8816,547.26268 3026.7723,1108.9989"
     id="path7201"
     inkscape:connector-curvature="0"
     sodipodi:nodetypes="cc" /><path
     style="fill:#ffffff;fill-rule:evenodd;stroke:#000000;stroke-width:3;stroke-linecap:butt;stroke-linejoin:miter;stroke-miterlimit:4;stroke-dasharray:none;stroke-opacity:1"
     d="m 2386.0508,549.49557 558.2859,572.94683"
     id="path7203"
     inkscape:connector-curvature="0"
     sodipodi:nodetypes="cc" /></g></g></svg>