<svg xmlns="http://www.w3.org/2000/svg" version="1.1" width="303" height="607"><defs><filter id="bevelFilter" x0="-50%" y0="-50%" width="200%" height="200%"><feGaussianBlur result="blur-1" in="SourceAlpha" stdDeviation="1 1"/><feFlood result="flood-2" in="undefined" flood-color="#fff" flood-opacity="0.15"/><feOffset result="offset-3" in="blur-1" dx="1" dy="1"/><feComposite result="comp-4" operator="arithmetic" in="SourceAlpha" in2="offset-3" k2="1" k3="-1"/><feComposite result="comp-5" operator="in" in="flood-2" in2="comp-4"/><feFlood result="flood-6" in="undefined" flood-color="#000" flood-opacity="0.7"/><feOffset result="offset-7" in="blur-1" dx="-1" dy="-1"/><feComposite result="comp-8" operator="arithmetic" in="SourceAlpha" in2="offset-7" k2="1" k3="-1"/><feComposite result="comp-9" operator="in" in="flood-6" in2="comp-8"/><feMerge result="merge-10"><feMergeNode in="SourceGraphic"/><feMergeNode in="comp-5"/><feMergeNode in="comp-9"/></feMerge></filter><filter id="inputBevelFilter" x0="-50%" y0="-50%" width="200%" height="200%"><feGaussianBlur result="blur-1" in="SourceAlpha" stdDeviation="1 1"/><feFlood result="flood-2" in="undefined" flood-color="#fff" flood-opacity="0.15"/><feOffset result="offset-3" in="blur-1" dx="-1" dy="-1"/><feComposite result="comp-4" operator="arithmetic" in="SourceAlpha" in2="offset-3" k2="1" k3="-1"/><feComposite result="comp-5" operator="in" in="flood-2" in2="comp-4"/><feFlood result="flood-6" in="undefined" flood-color="#000" flood-opacity="0.7"/><feOffset result="offset-7" in="blur-1" dx="1" dy="1"/><feComposite result="comp-8" operator="arithmetic" in="SourceAlpha" in2="offset-7" k2="1" k3="-1"/><feComposite result="comp-9" operator="in" in="flood-6" in2="comp-8"/><feMerge result="merge-10"><feMergeNode in="SourceGraphic"/><feMergeNode in="comp-5"/><feMergeNode in="comp-9"/></feMerge></filter><filter id="inputDarkFilter" x0="-50%" y0="-50%" width="200%" height="200%"><feFlood result="flood-1" in="undefined" flood-color="#000" flood-opacity="0.2"/><feComposite result="comp-2" operator="in" in="flood-1" in2="SourceAlpha"/><feMerge result="merge-3"><feMergeNode in="SourceGraphic"/><feMergeNode in="comp-2"/></feMerge></filter><path d="M1.504 21L0 19.493 4.567 0h1.948l-.5 2.418s1.002-.502 3.006 0c2.006.503 3.008 2.01 6.517 2.01 3.508 0 4.463-.545 4.463-.545l-.823 9.892s-2.137 1.005-5.144.696c-3.007-.307-3.007-2.007-6.014-2.51-3.008-.502-4.512.503-4.512.503L1.504 21z" fill="#3f8d15" id="greenFlag"/><path d="M6.724 0C3.01 0 0 2.91 0 6.5c0 2.316 1.253 4.35 3.14 5.5H5.17v-1.256C3.364 10.126 2.07 8.46 2.07 6.5 2.07 4.015 4.152 2 6.723 2c1.14 0 2.184.396 2.993 1.053L8.31 4.13c-.45.344-.398.826.11 1.08L15 8.5 13.858.992c-.083-.547-.514-.714-.963-.37l-1.532 1.172A6.825 6.825 0 0 0 6.723 0z" fill="#fff" id="turnRight"/><path d="M3.637 1.794A6.825 6.825 0 0 1 8.277 0C11.99 0 15 2.91 15 6.5c0 2.316-1.253 4.35-3.14 5.5H9.83v-1.256c1.808-.618 3.103-2.285 3.103-4.244 0-2.485-2.083-4.5-4.654-4.5-1.14 0-2.184.396-2.993 1.053L6.69 4.13c.45.344.398.826-.11 1.08L0 8.5 1.142.992c.083-.547.514-.714.963-.37l1.532 1.172z" fill="#fff" id="turnLeft"/><path d="M0 0L4 4L0 8Z" fill="#111" id="addInput"/><path d="M4 0L4 8L0 4Z" fill="#111" id="delInput"/><g id="loopArrow"><path d="M8 0l2 -2l0 -3l3 0l-4 -5l-4 5l3 0l0 3l-8 0l0 2" fill="#000" opacity="0.3"/><path d="M8 0l2 -2l0 -3l3 0l-4 -5l-4 5l3 0l0 3l-8 0l0 2" fill="#fff" opacity="0.9" transform="translate(-1 -1)"/></g><style><![CDATA[.sb-label{font-family:Lucida Grande,Verdana,Arial,DejaVu Sans,sans-serif;font-weight:700;fill:#fff;font-size:10px;word-spacing:+1px}.sb-obsolete{fill:#d42828}.sb-motion{fill:#4a6cd4}.sb-looks{fill:#8a55d7}.sb-sound{fill:#bb42c3}.sb-pen{fill:#0e9a6c}.sb-events{fill:#c88330}.sb-control{fill:#e1a91a}.sb-sensing{fill:#2ca5e2}.sb-operators{fill:#5cb712}.sb-variables{fill:#ee7d16}.sb-list{fill:#cc5b22}.sb-custom{fill:#632d99}.sb-custom-arg{fill:#5947b1}.sb-extension{fill:#4b4a60}.sb-grey{fill:#969696}.sb-bevel{filter:url(#bevelFilter)}.sb-input{filter:url(#inputBevelFilter)}.sb-input-number,.sb-input-number-dropdown,.sb-input-string{fill:#fff}.sb-literal-dropdown,.sb-literal-number,.sb-literal-number-dropdown,.sb-literal-string{font-weight:400;font-size:9px;word-spacing:0}.sb-literal-number,.sb-literal-number-dropdown,.sb-literal-string{fill:#000}.sb-darker{filter:url(#inputDarkFilter)}.sb-outline{stroke:#fff;stroke-opacity:.2;stroke-width:2;fill:none}.sb-define-hat-cap{stroke:#632d99;stroke-width:1;fill:#8e2ec2}.sb-comment{fill:#ffffa5;stroke:#d0d1d2;stroke-width:1}.sb-comment-line{fill:#ffff80}.sb-comment-label{font-family:Helevetica,Arial,DejaVu Sans,sans-serif;font-weight:700;fill:#5c5d5f;word-spacing:0;font-size:12px}]]></style></defs><g><g transform="translate(0 0)"><g transform="translate(2 0)"><path d="M 0 3 L 3 0 L 13 0 L 16 3 L 24 3 L 27 0 L 190 0 L 193 3 L 193 23 L 190 26 L 27 26 L 24 29 L 16 29 L 13 26 L 3 26 L 0 23 Z" class="sb-variables sb-bevel"/><text x="0" y="10" class="sb-label " transform="translate(6 7)">set</text><g transform="translate(30 6)"><g width="75" height="14" class="sb-input sb-input-dropdown"><rect x="0" y="0" width="75" height="14" class="sb-variables sb-darker"/></g><text x="0" y="10" class="sb-label sb-literal-dropdown" transform="translate(4 0)">Bonus Start X</text><polygon points="7 0 3.5 4 0 0" fill="#000" opacity="0.6" transform="translate(65 5)"/></g><text x="0" y="10" class="sb-label " transform="translate(109 7)">to</text><g transform="translate(122 3)"><path d="M 10 0 L 55 0 A 10 10 0 0 1 55 20 L 10 20 A 10 10 0 0 1 10 0 Z" class="sb-motion sb-bevel"/><text x="0" y="10" class="sb-label " transform="translate(8 4)">x</text><text x="0" y="10" class="sb-label " transform="translate(18 4)">position</text></g></g><g transform="translate(2 26)"><path d="M 0 3 L 3 0 L 13 0 L 16 3 L 24 3 L 27 0 L 190 0 L 193 3 L 193 23 L 190 26 L 27 26 L 24 29 L 16 29 L 13 26 L 3 26 L 0 23 Z" class="sb-variables sb-bevel"/><text x="0" y="10" class="sb-label " transform="translate(6 7)">set</text><g transform="translate(30 6)"><g width="75" height="14" class="sb-input sb-input-dropdown"><rect x="0" y="0" width="75" height="14" class="sb-variables sb-darker"/></g><text x="0" y="10" class="sb-label sb-literal-dropdown" transform="translate(4 0)">Bonus Start Y</text><polygon points="7 0 3.5 4 0 0" fill="#000" opacity="0.6" transform="translate(65 5)"/></g><text x="0" y="10" class="sb-label " transform="translate(109 7)">to</text><g transform="translate(122 3)"><path d="M 10 0 L 55 0 A 10 10 0 0 1 55 20 L 10 20 A 10 10 0 0 1 10 0 Z" class="sb-motion sb-bevel"/><text x="0" y="10" class="sb-label " transform="translate(8 4)">y</text><text x="0" y="10" class="sb-label " transform="translate(18 4)">position</text></g></g><g transform="translate(2 52)"><path d="M 0 3 L 3 0 L 13 0 L 16 3 L 24 3 L 27 0 L 128 0 L 131 3 L 131 19 L 128 22 L 27 22 L 24 25 L 16 25 L 13 22 L 3 22 L 0 19 Z" class="sb-events sb-bevel"/><text x="0" y="10" class="sb-label " transform="translate(6 5)">broadcast</text><g transform="translate(58 4)"><g width="67" height="14" class="sb-input sb-input-dropdown"><rect x="0" y="0" width="67" height="14" class="sb-events sb-darker"/></g><text x="0" y="10" class="sb-label sb-literal-dropdown" transform="translate(4 0)">Drop Bonus</text><polygon points="7 0 3.5 4 0 0" fill="#000" opacity="0.6" transform="translate(57 5)"/></g></g></g><g transform="translate(0 87)"><g transform="translate(2 0)"><path d="M 0 12 L 0 12 A 80 80 0 0 1 80 10 L 97 10 L 100 13 L 100 35 L 97 38 L 27 38 L 24 41 L 16 41 L 13 38 L 3 38 L 0 35 Z" class="sb-events sb-bevel"/><text x="0" y="10" class="sb-label " transform="translate(6 18)">when</text><use xmlns:xlink="http://www.w3.org/1999/xlink" xlink:href="#greenFlag" transform="translate(36 12)"/><text x="0" y="10" class="sb-label " transform="translate(60 18)">clicked</text></g><g transform="translate(2 38)"><path d="M 0 3 L 3 0 L 13 0 L 16 3 L 24 3 L 27 0 L 36 0 L 39 3 L 39 19 L 36 22 L 27 22 L 24 25 L 16 25 L 13 22 L 3 22 L 0 19 Z" class="sb-looks sb-bevel"/><text x="0" y="10" class="sb-label " transform="translate(6 5)">hide</text></g></g><g transform="translate(0 160)"><g transform="translate(2 0)"><path d="M 0 12 L 0 12 A 80 80 0 0 1 80 10 L 151 10 L 154 13 L 154 30 L 151 33 L 27 33 L 24 36 L 16 36 L 13 33 L 3 33 L 0 30 Z" class="sb-events sb-bevel"/><text x="0" y="10" class="sb-label " transform="translate(6 16)">when</text><text x="0" y="10" class="sb-label " transform="translate(36 16)">I</text><text x="0" y="10" class="sb-label " transform="translate(43 16)">receive</text><g transform="translate(81 15)"><g width="67" height="14" class="sb-input sb-input-dropdown"><rect x="0" y="0" width="67" height="14" class="sb-events sb-darker"/></g><text x="0" y="10" class="sb-label sb-literal-dropdown" transform="translate(4 0)">Drop Bonus</text><polygon points="7 0 3.5 4 0 0" fill="#000" opacity="0.6" transform="translate(57 5)"/></g></g><g transform="translate(2 33)"><path d="M 0 3 L 3 0 L 13 0 L 16 3 L 24 3 L 27 0 L 130 0 L 133 3 L 133 19 L 130 22 L 27 22 L 24 25 L 16 25 L 13 22 L 3 22 L 0 19 Z" class="sb-control sb-bevel"/><text x="0" y="10" class="sb-label " transform="translate(6 5)">create</text><text x="0" y="10" class="sb-label " transform="translate(39 5)">clone</text><text x="0" y="10" class="sb-label " transform="translate(69 5)">of</text><g transform="translate(82 4)"><g width="45" height="14" class="sb-input sb-input-dropdown"><rect x="0" y="0" width="45" height="14" class="sb-control sb-darker"/></g><text x="0" y="10" class="sb-label sb-literal-dropdown" transform="translate(4 0)">myself</text><polygon points="7 0 3.5 4 0 0" fill="#000" opacity="0.6" transform="translate(35 5)"/></g></g></g><g transform="translate(0 228)"><g transform="translate(2 0)"><path d="M 0 12 L 0 12 A 80 80 0 0 1 80 10 L 123 10 L 126 13 L 126 30 L 123 33 L 27 33 L 24 36 L 16 36 L 13 33 L 3 33 L 0 30 Z" class="sb-control sb-bevel"/><text x="0" y="10" class="sb-label " transform="translate(6 16)">when</text><text x="0" y="10" class="sb-label " transform="translate(36 16)">I</text><text x="0" y="10" class="sb-label " transform="translate(43 16)">start</text><text x="0" y="10" class="sb-label " transform="translate(69 16)">as</text><text x="0" y="10" class="sb-label " transform="translate(84 16)">a</text><text x="0" y="10" class="sb-label " transform="translate(94 16)">clone</text></g><g transform="translate(2 33)"><path d="M 0 3 L 3 0 L 13 0 L 16 3 L 24 3 L 27 0 L 238 0 L 241 3 L 241 23 L 238 26 L 27 26 L 24 29 L 16 29 L 13 26 L 3 26 L 0 23 Z" class="sb-motion sb-bevel"/><text x="0" y="10" class="sb-label " transform="translate(6 7)">go</text><text x="0" y="10" class="sb-label " transform="translate(22 7)">to</text><text x="0" y="10" class="sb-label " transform="translate(35 7)">x:</text><g transform="translate(48 3)"><path d="M 10 0 L 75 0 A 10 10 0 0 1 75 20 L 10 20 A 10 10 0 0 1 10 0 Z" class="sb-variables sb-bevel"/><text x="0" y="10" class="sb-label " transform="translate(8 4)">Bonus</text><text x="0" y="10" class="sb-label " transform="translate(43 4)">Start</text><text x="0" y="10" class="sb-label " transform="translate(70 4)">X</text></g><text x="0" y="10" class="sb-label " transform="translate(137 7)">y:</text><g transform="translate(150 3)"><path d="M 10 0 L 75 0 A 10 10 0 0 1 75 20 L 10 20 A 10 10 0 0 1 10 0 Z" class="sb-variables sb-bevel"/><text x="0" y="10" class="sb-label " transform="translate(8 4)">Bonus</text><text x="0" y="10" class="sb-label " transform="translate(43 4)">Start</text><text x="0" y="10" class="sb-label " transform="translate(70 4)">Y</text></g></g><g transform="translate(2 59)"><path d="M 0 3 L 3 0 L 13 0 L 16 3 L 24 3 L 27 0 L 217 0 L 220 3 L 220 23 L 217 26 L 27 26 L 24 29 L 16 29 L 13 26 L 3 26 L 0 23 Z" class="sb-variables sb-bevel"/><text x="0" y="10" class="sb-label " transform="translate(6 7)">set</text><g transform="translate(30 6)"><g width="45" height="14" class="sb-input sb-input-dropdown"><rect x="0" y="0" width="45" height="14" class="sb-variables sb-darker"/></g><text x="0" y="10" class="sb-label sb-literal-dropdown" transform="translate(4 0)">Bonus</text><polygon points="7 0 3.5 4 0 0" fill="#000" opacity="0.6" transform="translate(35 5)"/></g><text x="0" y="10" class="sb-label " transform="translate(79 7)">to</text><g transform="translate(92 3)"><path d="M 10 0 L 112 0 A 10 10 0 0 1 112 20 L 10 20 A 10 10 0 0 1 10 0 Z" class="sb-operators sb-bevel"/><text x="0" y="10" class="sb-label " transform="translate(8 4)">pick</text><text x="0" y="10" class="sb-label " transform="translate(32 4)">random</text><g transform="translate(73 3)"><path d="M 6.5 0 L 7.5 0 A 6.5 6.5 0 0 1 7.5 13 L 6.5 13 A 6.5 6.5 0 0 1 6.5 0 Z" class="sb-input sb-input-number"/><text x="0" y="10" class="sb-label sb-literal-number" transform="translate(5 0)">1</text></g><text x="0" y="10" class="sb-label " transform="translate(91 4)">to</text><g transform="translate(104 3)"><path d="M 6.5 0 L 7.5 0 A 6.5 6.5 0 0 1 7.5 13 L 6.5 13 A 6.5 6.5 0 0 1 6.5 0 Z" class="sb-input sb-input-number"/><text x="0" y="10" class="sb-label sb-literal-number" transform="translate(5 0)">6</text></g></g></g><g transform="translate(2 85)"><path d="M 0 3 L 3 0 L 13 0 L 16 3 L 24 3 L 27 0 L 151 0 L 154 3 L 154 27 L 151 30 L 42 30 L 39 33 L 31 33 L 28 30 L 17 30 L 15 32 L 15 54 L 17 56 L 151 56 L 154 59 L 154 71 L 151 74 L 42 74 L 39 77 L 31 77 L 28 74 L 17 74 L 15 76 L 15 96 L 17 98 L 151 98 L 154 101 L 154 111 L 151 114 L 27 114 L 24 117 L 16 117 L 13 114 L 3 114 L 0 111" class="sb-control sb-bevel"/><text x="0" y="10" class="sb-label " transform="translate(6 8)">if</text><g transform="translate(30 2)"><path d="M 12.5 0 L 80.5 0 93 12.5 L 93 12.5 80.5 25 L 12.5 25 0 12.5 L 0 12.5 12.5 0 Z" class="sb-operators sb-bevel"/><g transform="translate(9 2)"><path d="M 10 0 L 37 0 A 10 10 0 0 1 37 20 L 10 20 A 10 10 0 0 1 10 0 Z" class="sb-variables sb-bevel"/><text x="0" y="10" class="sb-label " transform="translate(8 4)">Bonus</text></g><text x="0" y="10" class="sb-label " transform="translate(60 6)">&lt;</text><g transform="translate(70 5)"><rect x="0" y="0" width="14" height="14" class="sb-input sb-input-string"/><text x="0" y="10" class="sb-label sb-literal-string" transform="translate(4 0)">4</text></g></g><text x="0" y="10" class="sb-label " transform="translate(127 8)">then</text><g transform="translate(15 30)"><g transform="translate(0 0)"><path d="M 0 3 L 3 0 L 13 0 L 16 3 L 24 3 L 27 0 L 149 0 L 152 3 L 152 23 L 149 26 L 27 26 L 24 29 L 16 29 L 13 26 L 3 26 L 0 23 Z" class="sb-looks sb-bevel"/><text x="0" y="10" class="sb-label " transform="translate(6 7)">switch</text><text x="0" y="10" class="sb-label " transform="translate(41 7)">costume</text><text x="0" y="10" class="sb-label " transform="translate(86 7)">to</text><g transform="translate(99 3)"><path d="M 10 0 L 37 0 A 10 10 0 0 1 37 20 L 10 20 A 10 10 0 0 1 10 0 Z" class="sb-variables sb-bevel"/><text x="0" y="10" class="sb-label " transform="translate(8 4)">Bonus</text></g></g></g><text x="0" y="10" class="sb-label " transform="translate(6 59)">else</text><g transform="translate(15 74)"><g transform="translate(0 0)"><path d="M 0 3 L 3 0 L 13 0 L 16 3 L 24 3 L 27 0 L 90 0 L 93 3 L 93 21 L 90 24 L 3 24 L 0 21 Z" class="sb-control sb-bevel"/><text x="0" y="10" class="sb-label " transform="translate(6 7)">delete</text><text x="0" y="10" class="sb-label " transform="translate(39 7)">this</text><text x="0" y="10" class="sb-label " transform="translate(61 7)">clone</text></g></g></g><g transform="translate(2 199)"><path d="M 0 3 L 3 0 L 13 0 L 16 3 L 24 3 L 27 0 L 36 0 L 39 3 L 39 19 L 36 22 L 27 22 L 24 25 L 16 25 L 13 22 L 3 22 L 0 19 Z" class="sb-looks sb-bevel"/><text x="0" y="10" class="sb-label " transform="translate(6 5)">show</text></g><g transform="translate(2 221)"><path d="M 0 3 L 3 0 L 13 0 L 16 3 L 24 3 L 27 0 L 296 0 L 299 3 L 299 27 L 296 30 L 42 30 L 39 33 L 31 33 L 28 30 L 17 30 L 15 32 L 15 116 L 17 118 L 296 118 L 299 121 L 299 131 L 296 134 L 27 134 L 24 137 L 16 137 L 13 134 L 3 134 L 0 131" class="sb-control sb-bevel"/><text x="0" y="10" class="sb-label " transform="translate(6 8)">repeat</text><text x="0" y="10" class="sb-label " transform="translate(40 8)">until</text><g transform="translate(65 2)"><path d="M 12.5 0 L 215.5 0 228 12.5 L 228 12.5 215.5 25 L 12.5 25 0 12.5 L 0 12.5 12.5 0 Z" class="sb-operators sb-bevel"/><g transform="translate(9 2)"><path d="M 10 0 L 55 0 A 10 10 0 0 1 55 20 L 10 20 A 10 10 0 0 1 10 0 Z" class="sb-motion sb-bevel"/><text x="0" y="10" class="sb-label " transform="translate(8 4)">y</text><text x="0" y="10" class="sb-label " transform="translate(18 4)">position</text></g><text x="0" y="10" class="sb-label " transform="translate(78 6)">&lt;</text><g transform="translate(88 2)"><path d="M 10 0 L 121 0 A 10 10 0 0 1 121 20 L 10 20 A 10 10 0 0 1 10 0 Z" class="sb-sensing sb-bevel"/><g transform="translate(5 3)"><g width="57" height="14" class="sb-input sb-input-dropdown"><rect x="0" y="0" width="57" height="14" class="sb-sensing sb-darker"/></g><text x="0" y="10" class="sb-label sb-literal-dropdown" transform="translate(4 0)">y position</text><polygon points="7 0 3.5 4 0 0" fill="#000" opacity="0.6" transform="translate(47 5)"/></g><text x="0" y="10" class="sb-label " transform="translate(66 4)">of</text><g transform="translate(79 3)"><g width="47" height="14" class="sb-input sb-input-dropdown"><rect x="0" y="0" width="47" height="14" class="sb-sensing sb-darker"/></g><text x="0" y="10" class="sb-label sb-literal-dropdown" transform="translate(4 0)">Paddle</text><polygon points="7 0 3.5 4 0 0" fill="#000" opacity="0.6" transform="translate(37 5)"/></g></g></g><use xmlns:xlink="http://www.w3.org/1999/xlink" xlink:href="#loopArrow" transform="translate(284 131)"/><g transform="translate(15 30)"><g transform="translate(0 0)"><path d="M 0 3 L 3 0 L 13 0 L 16 3 L 24 3 L 27 0 L 91 0 L 94 3 L 94 19 L 91 22 L 27 22 L 24 25 L 16 25 L 13 22 L 3 22 L 0 19 Z" class="sb-motion sb-bevel"/><text x="0" y="10" class="sb-label " transform="translate(6 5)">change</text><text x="0" y="10" class="sb-label " transform="translate(45 5)">y</text><text x="0" y="10" class="sb-label " transform="translate(55 5)">by</text><g transform="translate(71 4)"><path d="M 6.5 0 L 10.5 0 A 6.5 6.5 0 0 1 10.5 13 L 6.5 13 A 6.5 6.5 0 0 1 6.5 0 Z" class="sb-input sb-input-number"/><text x="0" y="10" class="sb-label sb-literal-number" transform="translate(5 0)">-6</text></g></g><g transform="translate(0 22)"><path d="M 0 3 L 3 0 L 13 0 L 16 3 L 24 3 L 27 0 L 183 0 L 186 3 L 186 23 L 183 26 L 42 26 L 39 29 L 31 29 L 28 26 L 17 26 L 15 28 L 15 48 L 17 50 L 183 50 L 186 53 L 186 63 L 183 66 L 27 66 L 24 69 L 16 69 L 13 66 L 3 66 L 0 63" class="sb-control sb-bevel"/><text x="0" y="10" class="sb-label " transform="translate(6 6)">if</text><g transform="translate(30 2)"><path d="M 10.5 0 L 114.5 0 125 10.5 L 125 10.5 114.5 21 L 10.5 21 0 10.5 L 0 10.5 10.5 0 Z" class="sb-sensing sb-bevel"/><text x="0" y="10" class="sb-label " transform="translate(11 4)">touching</text><g transform="translate(57 3)"><g width="47" height="14" class="sb-input sb-input-dropdown"><rect x="0" y="0" width="47" height="14" class="sb-sensing sb-darker"/></g><text x="0" y="10" class="sb-label sb-literal-dropdown" transform="translate(4 0)">Paddle</text><polygon points="7 0 3.5 4 0 0" fill="#000" opacity="0.6" transform="translate(37 5)"/></g><text x="0" y="10" class="sb-label " transform="translate(108 4)">?</text></g><text x="0" y="10" class="sb-label " transform="translate(159 6)">then</text><g transform="translate(15 26)"><g transform="translate(0 0)"><path d="M 0 3 L 3 0 L 13 0 L 16 3 L 24 3 L 27 0 L 90 0 L 93 3 L 93 21 L 90 24 L 3 24 L 0 21 Z" class="sb-control sb-bevel"/><text x="0" y="10" class="sb-label " transform="translate(6 7)">delete</text><text x="0" y="10" class="sb-label " transform="translate(39 7)">this</text><text x="0" y="10" class="sb-label " transform="translate(61 7)">clone</text></g></g></g></g></g><g transform="translate(2 355)"><path d="M 0 3 L 3 0 L 13 0 L 16 3 L 24 3 L 27 0 L 90 0 L 93 3 L 93 21 L 90 24 L 3 24 L 0 21 Z" class="sb-control sb-bevel"/><text x="0" y="10" class="sb-label " transform="translate(6 7)">delete</text><text x="0" y="10" class="sb-label " transform="translate(39 7)">this</text><text x="0" y="10" class="sb-label " transform="translate(61 7)">clone</text></g></g></g></svg>