<svg xmlns="http://www.w3.org/2000/svg" version="1.1" width="437" height="466"><defs><filter id="bevelFilter" x0="-50%" y0="-50%" width="200%" height="200%"><feGaussianBlur result="blur-1" in="SourceAlpha" stdDeviation="1 1"/><feFlood result="flood-2" in="undefined" flood-color="#fff" flood-opacity="0.15"/><feOffset result="offset-3" in="blur-1" dx="1" dy="1"/><feComposite result="comp-4" operator="arithmetic" in="SourceAlpha" in2="offset-3" k2="1" k3="-1"/><feComposite result="comp-5" operator="in" in="flood-2" in2="comp-4"/><feFlood result="flood-6" in="undefined" flood-color="#000" flood-opacity="0.7"/><feOffset result="offset-7" in="blur-1" dx="-1" dy="-1"/><feComposite result="comp-8" operator="arithmetic" in="SourceAlpha" in2="offset-7" k2="1" k3="-1"/><feComposite result="comp-9" operator="in" in="flood-6" in2="comp-8"/><feMerge result="merge-10"><feMergeNode in="SourceGraphic"/><feMergeNode in="comp-5"/><feMergeNode in="comp-9"/></feMerge></filter><filter id="inputBevelFilter" x0="-50%" y0="-50%" width="200%" height="200%"><feGaussianBlur result="blur-1" in="SourceAlpha" stdDeviation="1 1"/><feFlood result="flood-2" in="undefined" flood-color="#fff" flood-opacity="0.15"/><feOffset result="offset-3" in="blur-1" dx="-1" dy="-1"/><feComposite result="comp-4" operator="arithmetic" in="SourceAlpha" in2="offset-3" k2="1" k3="-1"/><feComposite result="comp-5" operator="in" in="flood-2" in2="comp-4"/><feFlood result="flood-6" in="undefined" flood-color="#000" flood-opacity="0.7"/><feOffset result="offset-7" in="blur-1" dx="1" dy="1"/><feComposite result="comp-8" operator="arithmetic" in="SourceAlpha" in2="offset-7" k2="1" k3="-1"/><feComposite result="comp-9" operator="in" in="flood-6" in2="comp-8"/><feMerge result="merge-10"><feMergeNode in="SourceGraphic"/><feMergeNode in="comp-5"/><feMergeNode in="comp-9"/></feMerge></filter><filter id="inputDarkFilter" x0="-50%" y0="-50%" width="200%" height="200%"><feFlood result="flood-1" in="undefined" flood-color="#000" flood-opacity="0.2"/><feComposite result="comp-2" operator="in" in="flood-1" in2="SourceAlpha"/><feMerge result="merge-3"><feMergeNode in="SourceGraphic"/><feMergeNode in="comp-2"/></feMerge></filter><path d="M1.504 21L0 19.493 4.567 0h1.948l-.5 2.418s1.002-.502 3.006 0c2.006.503 3.008 2.01 6.517 2.01 3.508 0 4.463-.545 4.463-.545l-.823 9.892s-2.137 1.005-5.144.696c-3.007-.307-3.007-2.007-6.014-2.51-3.008-.502-4.512.503-4.512.503L1.504 21z" fill="#3f8d15" id="greenFlag"/><path d="M6.724 0C3.01 0 0 2.91 0 6.5c0 2.316 1.253 4.35 3.14 5.5H5.17v-1.256C3.364 10.126 2.07 8.46 2.07 6.5 2.07 4.015 4.152 2 6.723 2c1.14 0 2.184.396 2.993 1.053L8.31 4.13c-.45.344-.398.826.11 1.08L15 8.5 13.858.992c-.083-.547-.514-.714-.963-.37l-1.532 1.172A6.825 6.825 0 0 0 6.723 0z" fill="#fff" id="turnRight"/><path d="M3.637 1.794A6.825 6.825 0 0 1 8.277 0C11.99 0 15 2.91 15 6.5c0 2.316-1.253 4.35-3.14 5.5H9.83v-1.256c1.808-.618 3.103-2.285 3.103-4.244 0-2.485-2.083-4.5-4.654-4.5-1.14 0-2.184.396-2.993 1.053L6.69 4.13c.45.344.398.826-.11 1.08L0 8.5 1.142.992c.083-.547.514-.714.963-.37l1.532 1.172z" fill="#fff" id="turnLeft"/><path d="M0 0L4 4L0 8Z" fill="#111" id="addInput"/><path d="M4 0L4 8L0 4Z" fill="#111" id="delInput"/><g id="loopArrow"><path d="M8 0l2 -2l0 -3l3 0l-4 -5l-4 5l3 0l0 3l-8 0l0 2" fill="#000" opacity="0.3"/><path d="M8 0l2 -2l0 -3l3 0l-4 -5l-4 5l3 0l0 3l-8 0l0 2" fill="#fff" opacity="0.9" transform="translate(-1 -1)"/></g><style><![CDATA[.sb-label{font-family:Lucida Grande,Verdana,Arial,DejaVu Sans,sans-serif;font-weight:700;fill:#fff;font-size:10px;word-spacing:+1px}.sb-obsolete{fill:#d42828}.sb-motion{fill:#4a6cd4}.sb-looks{fill:#8a55d7}.sb-sound{fill:#bb42c3}.sb-pen{fill:#0e9a6c}.sb-events{fill:#c88330}.sb-control{fill:#e1a91a}.sb-sensing{fill:#2ca5e2}.sb-operators{fill:#5cb712}.sb-variables{fill:#ee7d16}.sb-list{fill:#cc5b22}.sb-custom{fill:#632d99}.sb-custom-arg{fill:#5947b1}.sb-extension{fill:#4b4a60}.sb-grey{fill:#969696}.sb-bevel{filter:url(#bevelFilter)}.sb-input{filter:url(#inputBevelFilter)}.sb-input-number,.sb-input-number-dropdown,.sb-input-string{fill:#fff}.sb-literal-dropdown,.sb-literal-number,.sb-literal-number-dropdown,.sb-literal-string{font-weight:400;font-size:9px;word-spacing:0}.sb-literal-number,.sb-literal-number-dropdown,.sb-literal-string{fill:#000}.sb-darker{filter:url(#inputDarkFilter)}.sb-outline{stroke:#fff;stroke-opacity:.2;stroke-width:2;fill:none}.sb-define-hat-cap{stroke:#632d99;stroke-width:1;fill:#8e2ec2}.sb-comment{fill:#ffffa5;stroke:#d0d1d2;stroke-width:1}.sb-comment-line{fill:#ffff80}.sb-comment-label{font-family:Helevetica,Arial,DejaVu Sans,sans-serif;font-weight:700;fill:#5c5d5f;word-spacing:0;font-size:12px}]]></style></defs><g><g transform="translate(0 0)"><g transform="translate(2 0)"><g transform="translate(0 -1)"><path d="M 0 15 Q 53 -6 105 15 L 105 49 L 102 52 L 27 52 L 24 55 L 16 55 L 13 52 L 3 52 L 0 49 M -1 13 Q 53 -8 106 13 Q 107 15 105 16 Q 53 -5 0 16 Q -2 15 -1 13 Z" class="sb-custom sb-bevel"/><path d="M -1 13 Q 53 -8 106 13 Q 107 15 105 16 Q 53 -5 0 16 Q -2 15 -1 13 Z" class="sb-define-hat-cap"/></g><text x="0" y="10" class="sb-label " transform="translate(8 27)">define</text><g transform="translate(41 19)"><path d="M 0 3 L 3 0 L 13 0 L 16 3 L 24 3 L 27 0 L 53 0 L 56 3 L 56 19 L 53 22 L 27 22 L 24 25 L 16 25 L 13 22 L 3 22 L 0 19 Z" class="sb-outline"/><text x="0" y="10" class="sb-label " transform="translate(6 5)">Set</text><text x="0" y="10" class="sb-label " transform="translate(26 5)">Style</text></g></g><g transform="translate(2 51)"><path d="M 0 3 L 3 0 L 13 0 L 16 3 L 24 3 L 27 0 L 175 0 L 178 3 L 178 27 L 175 30 L 27 30 L 24 33 L 16 33 L 13 30 L 3 30 L 0 27 Z" class="sb-looks sb-bevel"/><text x="0" y="10" class="sb-label " transform="translate(6 9)">switch</text><text x="0" y="10" class="sb-label " transform="translate(41 9)">costume</text><text x="0" y="10" class="sb-label " transform="translate(86 9)">to</text><g transform="translate(99 3)"><path d="M 12 0 L 61 0 A 12 12 0 0 1 61 24 L 12 24 A 12 12 0 0 1 12 0 Z" class="sb-operators sb-bevel"/><g transform="translate(4 2)"><path d="M 10 0 L 27 0 A 10 10 0 0 1 27 20 L 10 20 A 10 10 0 0 1 10 0 Z" class="sb-variables sb-bevel"/><text x="0" y="10" class="sb-label " transform="translate(8 4)">Row</text></g><text x="0" y="10" class="sb-label " transform="translate(45 6)">+</text><g transform="translate(55 5)"><path d="M 6.5 0 L 7.5 0 A 6.5 6.5 0 0 1 7.5 13 L 6.5 13 A 6.5 6.5 0 0 1 6.5 0 Z" class="sb-input sb-input-number"/><text x="0" y="10" class="sb-label sb-literal-number" transform="translate(5 0)">1</text></g></g></g><g transform="translate(2 81)"><path d="M 0 3 L 3 0 L 13 0 L 16 3 L 24 3 L 27 0 L 141 0 L 144 3 L 144 27 L 141 30 L 42 30 L 39 33 L 31 33 L 28 30 L 17 30 L 15 32 L 15 106 L 17 108 L 141 108 L 144 111 L 144 121 L 141 124 L 27 124 L 24 127 L 16 127 L 13 124 L 3 124 L 0 121" class="sb-control sb-bevel"/><text x="0" y="10" class="sb-label " transform="translate(6 8)">if</text><g transform="translate(30 2)"><path d="M 12.5 0 L 70.5 0 83 12.5 L 83 12.5 70.5 25 L 12.5 25 0 12.5 L 0 12.5 12.5 0 Z" class="sb-operators sb-bevel"/><g transform="translate(9 2)"><path d="M 10 0 L 27 0 A 10 10 0 0 1 27 20 L 10 20 A 10 10 0 0 1 10 0 Z" class="sb-variables sb-bevel"/><text x="0" y="10" class="sb-label " transform="translate(8 4)">Row</text></g><text x="0" y="10" class="sb-label " transform="translate(50 6)">=</text><g transform="translate(60 5)"><rect x="0" y="0" width="14" height="14" class="sb-input sb-input-string"/><text x="0" y="10" class="sb-label sb-literal-string" transform="translate(4 0)">1</text></g></g><text x="0" y="10" class="sb-label " transform="translate(117 8)">then</text><g transform="translate(15 30)"><g transform="translate(0 0)"><path d="M 0 3 L 3 0 L 13 0 L 16 3 L 24 3 L 27 0 L 415 0 L 418 3 L 418 37 L 415 40 L 42 40 L 39 43 L 31 43 L 28 40 L 17 40 L 15 42 L 15 60 L 17 62 L 415 62 L 418 65 L 418 75 L 415 78 L 27 78 L 24 81 L 16 81 L 13 78 L 3 78 L 0 75" class="sb-control sb-bevel"/><text x="0" y="10" class="sb-label " transform="translate(6 13)">if</text><g transform="translate(30 2)"><path d="M 17.5 0 L 339.5 0 357 17.5 L 357 17.5 339.5 35 L 17.5 35 0 17.5 L 0 17.5 17.5 0 Z" class="sb-operators sb-bevel"/><g transform="translate(5 4)"><path d="M 12.5 0 L 88.5 0 101 12.5 L 101 12.5 88.5 25 L 12.5 25 0 12.5 L 0 12.5 12.5 0 Z" class="sb-operators sb-bevel"/><g transform="translate(9 2)"><path d="M 10 0 L 43 0 A 10 10 0 0 1 43 20 L 10 20 A 10 10 0 0 1 10 0 Z" class="sb-variables sb-bevel"/><text x="0" y="10" class="sb-label " transform="translate(8 4)">Column</text></g><text x="0" y="10" class="sb-label " transform="translate(66 6)">=</text><g transform="translate(76 5)"><rect x="0" y="0" width="16" height="14" class="sb-input sb-input-string"/><text x="0" y="10" class="sb-label sb-literal-string" transform="translate(4 0)"> 3 </text></g></g><text x="0" y="10" class="sb-label " transform="translate(110 11)">or</text><g transform="translate(124 2)"><path d="M 15 0 L 213 0 228 15 L 228 15 213 30 L 15 30 0 15 L 0 15 15 0 Z" class="sb-operators sb-bevel"/><g transform="translate(5 2)"><path d="M 12.5 0 L 88.5 0 101 12.5 L 101 12.5 88.5 25 L 12.5 25 0 12.5 L 0 12.5 12.5 0 Z" class="sb-operators sb-bevel"/><g transform="translate(9 2)"><path d="M 10 0 L 43 0 A 10 10 0 0 1 43 20 L 10 20 A 10 10 0 0 1 10 0 Z" class="sb-variables sb-bevel"/><text x="0" y="10" class="sb-label " transform="translate(8 4)">Column</text></g><text x="0" y="10" class="sb-label " transform="translate(66 6)">=</text><g transform="translate(76 5)"><rect x="0" y="0" width="16" height="14" class="sb-input sb-input-string"/><text x="0" y="10" class="sb-label sb-literal-string" transform="translate(4 0)"> 6 </text></g></g><text x="0" y="10" class="sb-label " transform="translate(110 8)">or</text><g transform="translate(124 2)"><path d="M 12.5 0 L 86.5 0 99 12.5 L 99 12.5 86.5 25 L 12.5 25 0 12.5 L 0 12.5 12.5 0 Z" class="sb-operators sb-bevel"/><g transform="translate(9 2)"><path d="M 10 0 L 43 0 A 10 10 0 0 1 43 20 L 10 20 A 10 10 0 0 1 10 0 Z" class="sb-variables sb-bevel"/><text x="0" y="10" class="sb-label " transform="translate(8 4)">Column</text></g><text x="0" y="10" class="sb-label " transform="translate(66 6)">=</text><g transform="translate(76 5)"><rect x="0" y="0" width="14" height="14" class="sb-input sb-input-string"/><text x="0" y="10" class="sb-label sb-literal-string" transform="translate(4 0)">9</text></g></g></g></g><text x="0" y="10" class="sb-label " transform="translate(391 13)">then</text><g transform="translate(15 40)"><g transform="translate(0 0)"><path d="M 0 3 L 3 0 L 13 0 L 16 3 L 24 3 L 27 0 L 141 0 L 144 3 L 144 19 L 141 22 L 27 22 L 24 25 L 16 25 L 13 22 L 3 22 L 0 19 Z" class="sb-looks sb-bevel"/><text x="0" y="10" class="sb-label " transform="translate(6 5)">switch</text><text x="0" y="10" class="sb-label " transform="translate(41 5)">costume</text><text x="0" y="10" class="sb-label " transform="translate(86 5)">to</text><g transform="translate(99 4)"><g width="39" height="14" class="sb-input sb-input-dropdown"><rect x="0" y="0" width="39" height="14" class="sb-looks sb-darker"/></g><text x="0" y="10" class="sb-label sb-literal-dropdown" transform="translate(4 0)">Gray</text><polygon points="7 0 3.5 4 0 0" fill="#000" opacity="0.6" transform="translate(29 5)"/></g></g></g></g></g></g></g><g transform="translate(0 218)"><g transform="translate(2 0)"><path d="M 0 12 L 0 12 A 80 80 0 0 1 80 10 L 123 10 L 126 13 L 126 30 L 123 33 L 27 33 L 24 36 L 16 36 L 13 33 L 3 33 L 0 30 Z" class="sb-control sb-bevel"/><text x="0" y="10" class="sb-label " transform="translate(6 16)">when</text><text x="0" y="10" class="sb-label " transform="translate(36 16)">I</text><text x="0" y="10" class="sb-label " transform="translate(43 16)">start</text><text x="0" y="10" class="sb-label " transform="translate(69 16)">as</text><text x="0" y="10" class="sb-label " transform="translate(84 16)">a</text><text x="0" y="10" class="sb-label " transform="translate(94 16)">clone</text></g><g transform="translate(2 33)"><path d="M 0 3 L 3 0 L 13 0 L 16 3 L 24 3 L 27 0 L 36 0 L 39 3 L 39 19 L 36 22 L 27 22 L 24 25 L 16 25 L 13 22 L 3 22 L 0 19 Z" class="sb-grey sb-bevel"/><text x="0" y="10" class="sb-label " transform="translate(6 5)">. . .</text></g><g transform="translate(2 55)"><path d="M 0 3 L 3 0 L 13 0 L 16 3 L 24 3 L 27 0 L 53 0 L 56 3 L 56 19 L 53 22 L 27 22 L 24 25 L 16 25 L 13 22 L 3 22 L 0 19 Z" class="sb-custom sb-bevel"/><text x="0" y="10" class="sb-label " transform="translate(6 5)">Set</text><text x="0" y="10" class="sb-label " transform="translate(26 5)">Style</text></g><g transform="translate(2 77)"><path d="M 0 3 L 3 0 L 13 0 L 16 3 L 24 3 L 27 0 L 36 0 L 39 3 L 39 19 L 36 22 L 27 22 L 24 25 L 16 25 L 13 22 L 3 22 L 0 19 Z" class="sb-looks sb-bevel"/><text x="0" y="10" class="sb-label " transform="translate(6 5)">show</text></g><g transform="translate(2 99)"><path d="M 0 3 L 3 0 L 13 0 L 16 3 L 24 3 L 27 0 L 36 0 L 39 3 L 39 19 L 36 22 L 27 22 L 24 25 L 16 25 L 13 22 L 3 22 L 0 19 Z" class="sb-grey sb-bevel"/><text x="0" y="10" class="sb-label " transform="translate(6 5)">. . .</text></g><g transform="translate(2 121)"><path d="M 0 3 L 3 0 L 13 0 L 16 3 L 24 3 L 27 0 L 207 0 L 210 3 L 210 32 L 207 35 L 42 35 L 39 38 L 31 38 L 28 35 L 17 35 L 15 37 L 15 106 L 17 108 L 207 108 L 210 111 L 210 121 L 207 124 L 27 124 L 24 127 L 16 127 L 13 124 L 3 124 L 0 121" class="sb-control sb-bevel"/><text x="0" y="10" class="sb-label " transform="translate(6 11)">if</text><g transform="translate(30 2)"><path d="M 15 0 L 134 0 149 15 L 149 15 134 30 L 15 30 0 15 L 0 15 15 0 Z" class="sb-operators sb-bevel"/><text x="0" y="10" class="sb-label " transform="translate(11 8)">not</text><g transform="translate(31 2)"><path d="M 12.5 0 L 100.5 0 113 12.5 L 113 12.5 100.5 25 L 12.5 25 0 12.5 L 0 12.5 12.5 0 Z" class="sb-operators sb-bevel"/><g transform="translate(9 2)"><path d="M 10 0 L 57 0 A 10 10 0 0 1 57 20 L 10 20 A 10 10 0 0 1 10 0 Z" class="sb-looks sb-bevel"/><text x="0" y="10" class="sb-label " transform="translate(8 4)">costume</text><text x="0" y="10" class="sb-label " transform="translate(53 4)">#</text></g><text x="0" y="10" class="sb-label " transform="translate(80 6)">=</text><g transform="translate(90 5)"><rect x="0" y="0" width="14" height="14" class="sb-input sb-input-string"/><text x="0" y="10" class="sb-label sb-literal-string" transform="translate(4 0)">4</text></g></g></g><text x="0" y="10" class="sb-label " transform="translate(183 11)">then</text><g transform="translate(15 35)"><g transform="translate(0 0)"><path d="M 0 3 L 3 0 L 13 0 L 16 3 L 24 3 L 27 0 L 169 0 L 172 3 L 172 24 L 169 27 L 27 27 L 24 30 L 16 30 L 13 27 L 3 27 L 0 24 Z" class="sb-control sb-bevel"/><text x="0" y="10" class="sb-label " transform="translate(6 7)">wait</text><text x="0" y="10" class="sb-label " transform="translate(29 7)">until</text><g transform="translate(54 3)"><path d="M 10.5 0 L 101.5 0 112 10.5 L 112 10.5 101.5 21 L 10.5 21 0 10.5 L 0 10.5 10.5 0 Z" class="sb-sensing sb-bevel"/><text x="0" y="10" class="sb-label " transform="translate(11 4)">touching</text><g transform="translate(57 3)"><g width="34" height="14" class="sb-input sb-input-dropdown"><rect x="0" y="0" width="34" height="14" class="sb-sensing sb-darker"/></g><text x="0" y="10" class="sb-label sb-literal-dropdown" transform="translate(4 0)">Ball</text><polygon points="7 0 3.5 4 0 0" fill="#000" opacity="0.6" transform="translate(24 5)"/></g><text x="0" y="10" class="sb-label " transform="translate(95 4)">?</text></g></g><g transform="translate(0 27)"><path d="M 0 3 L 3 0 L 13 0 L 16 3 L 24 3 L 27 0 L 36 0 L 39 3 L 39 19 L 36 22 L 27 22 L 24 25 L 16 25 L 13 22 L 3 22 L 0 19 Z" class="sb-grey sb-bevel"/><text x="0" y="10" class="sb-label " transform="translate(6 5)">. . .</text></g><g transform="translate(0 49)"><path d="M 0 3 L 3 0 L 13 0 L 16 3 L 24 3 L 27 0 L 90 0 L 93 3 L 93 21 L 90 24 L 3 24 L 0 21 Z" class="sb-control sb-bevel"/><text x="0" y="10" class="sb-label " transform="translate(6 7)">delete</text><text x="0" y="10" class="sb-label " transform="translate(39 7)">this</text><text x="0" y="10" class="sb-label " transform="translate(61 7)">clone</text></g></g></g></g></g></svg>