<?xml version="1.0" encoding="UTF-8" standalone="no"?>
<svg
   xmlns:dc="http://purl.org/dc/elements/1.1/"
   xmlns:cc="http://creativecommons.org/ns#"
   xmlns:rdf="http://www.w3.org/1999/02/22-rdf-syntax-ns#"
   xmlns:svg="http://www.w3.org/2000/svg"
   xmlns="http://www.w3.org/2000/svg"
   xmlns:xlink="http://www.w3.org/1999/xlink"
   xmlns:sodipodi="http://sodipodi.sourceforge.net/DTD/sodipodi-0.dtd"
   xmlns:inkscape="http://www.inkscape.org/namespaces/inkscape"
   version="1.1"
   width="465.06595"
   height="728"
   id="svg866"
   sodipodi:docname="can-forever-move-de.svg"
   inkscape:version="0.92.3 (2405546, 2018-03-11)">
  <metadata
     id="metadata870">
    <rdf:RDF>
      <cc:Work
         rdf:about="">
        <dc:format>image/svg+xml</dc:format>
        <dc:type
           rdf:resource="http://purl.org/dc/dcmitype/StillImage" />
        <dc:title></dc:title>
      </cc:Work>
    </rdf:RDF>
  </metadata>
  <sodipodi:namedview
     pagecolor="#ffffff"
     bordercolor="#666666"
     borderopacity="1"
     objecttolerance="10"
     gridtolerance="10"
     guidetolerance="10"
     inkscape:pageopacity="0"
     inkscape:pageshadow="2"
     inkscape:window-width="2238"
     inkscape:window-height="1776"
     id="namedview868"
     showgrid="false"
     inkscape:zoom="3.3913974"
     inkscape:cx="106.63471"
     inkscape:cy="508.28361"
     inkscape:window-x="0"
     inkscape:window-y="22"
     inkscape:window-maximized="0"
     inkscape:current-layer="svg866"
     fit-margin-top="0"
     fit-margin-left="0"
     fit-margin-right="0"
     fit-margin-bottom="0" />
  <defs
     id="defs638">
    <filter
       id="bevelFilter"
       x0="-50%"
       y0="-50%"
       width="2"
       height="2">
      <feGaussianBlur
         result="blur-1"
         in="SourceAlpha"
         stdDeviation="1 1"
         id="feGaussianBlur561" />
      <feFlood
         result="flood-2"
         flood-color="#fff"
         flood-opacity="0.15"
         id="feFlood563" />
      <feOffset
         result="offset-3"
         in="blur-1"
         dx="1"
         dy="1"
         id="feOffset565" />
      <feComposite
         result="comp-4"
         operator="arithmetic"
         in="SourceAlpha"
         in2="offset-3"
         k2="1"
         k3="-1"
         id="feComposite567"
         k1="0"
         k4="0" />
      <feComposite
         result="comp-5"
         operator="in"
         in="flood-2"
         in2="comp-4"
         id="feComposite569" />
      <feFlood
         result="flood-6"
         flood-color="#000"
         flood-opacity="0.7"
         id="feFlood571" />
      <feOffset
         result="offset-7"
         in="blur-1"
         dx="-1"
         dy="-1"
         id="feOffset573" />
      <feComposite
         result="comp-8"
         operator="arithmetic"
         in="SourceAlpha"
         in2="offset-7"
         k2="1"
         k3="-1"
         id="feComposite575"
         k1="0"
         k4="0" />
      <feComposite
         result="comp-9"
         operator="in"
         in="flood-6"
         in2="comp-8"
         id="feComposite577" />
      <feMerge
         result="merge-10"
         id="feMerge585">
        <feMergeNode
           in="SourceGraphic"
           id="feMergeNode579" />
        <feMergeNode
           in="comp-5"
           id="feMergeNode581" />
        <feMergeNode
           in="comp-9"
           id="feMergeNode583" />
      </feMerge>
    </filter>
    <filter
       id="inputBevelFilter"
       x0="-50%"
       y0="-50%"
       width="2"
       height="2">
      <feGaussianBlur
         result="blur-1"
         in="SourceAlpha"
         stdDeviation="1 1"
         id="feGaussianBlur588" />
      <feFlood
         result="flood-2"
         flood-color="#fff"
         flood-opacity="0.15"
         id="feFlood590" />
      <feOffset
         result="offset-3"
         in="blur-1"
         dx="-1"
         dy="-1"
         id="feOffset592" />
      <feComposite
         result="comp-4"
         operator="arithmetic"
         in="SourceAlpha"
         in2="offset-3"
         k2="1"
         k3="-1"
         id="feComposite594"
         k1="0"
         k4="0" />
      <feComposite
         result="comp-5"
         operator="in"
         in="flood-2"
         in2="comp-4"
         id="feComposite596" />
      <feFlood
         result="flood-6"
         flood-color="#000"
         flood-opacity="0.7"
         id="feFlood598" />
      <feOffset
         result="offset-7"
         in="blur-1"
         dx="1"
         dy="1"
         id="feOffset600" />
      <feComposite
         result="comp-8"
         operator="arithmetic"
         in="SourceAlpha"
         in2="offset-7"
         k2="1"
         k3="-1"
         id="feComposite602"
         k1="0"
         k4="0" />
      <feComposite
         result="comp-9"
         operator="in"
         in="flood-6"
         in2="comp-8"
         id="feComposite604" />
      <feMerge
         result="merge-10"
         id="feMerge612">
        <feMergeNode
           in="SourceGraphic"
           id="feMergeNode606" />
        <feMergeNode
           in="comp-5"
           id="feMergeNode608" />
        <feMergeNode
           in="comp-9"
           id="feMergeNode610" />
      </feMerge>
    </filter>
    <filter
       id="inputDarkFilter"
       x0="-50%"
       y0="-50%"
       width="2"
       height="2">
      <feFlood
         result="flood-1"
         flood-color="#000"
         flood-opacity="0.2"
         id="feFlood615" />
      <feComposite
         result="comp-2"
         operator="in"
         in="flood-1"
         in2="SourceAlpha"
         id="feComposite617" />
      <feMerge
         result="merge-3"
         id="feMerge623">
        <feMergeNode
           in="SourceGraphic"
           id="feMergeNode619" />
        <feMergeNode
           in="comp-2"
           id="feMergeNode621" />
      </feMerge>
    </filter>
    <path
       d="M 1.504,21 0,19.493 4.567,0 h 1.948 l -0.5,2.418 c 0,0 1.002,-0.502 3.006,0 2.006,0.503 3.008,2.01 6.517,2.01 3.508,0 4.463,-0.545 4.463,-0.545 l -0.823,9.892 c 0,0 -2.137,1.005 -5.144,0.696 -3.007,-0.307 -3.007,-2.007 -6.014,-2.51 -3.008,-0.502 -4.512,0.503 -4.512,0.503 z"
       id="greenFlag"
       inkscape:connector-curvature="0"
       style="fill:#3f8d15" />
    <path
       d="M 6.724,0 C 3.01,0 0,2.91 0,6.5 0,8.816 1.253,10.85 3.14,12 H 5.17 V 10.744 C 3.364,10.126 2.07,8.46 2.07,6.5 2.07,4.015 4.152,2 6.723,2 7.863,2 8.907,2.396 9.716,3.053 L 8.31,4.13 C 7.86,4.474 7.912,4.956 8.42,5.21 L 15,8.5 13.858,0.992 C 13.775,0.445 13.344,0.278 12.895,0.622 L 11.363,1.794 A 6.825,6.825 0 0 0 6.723,0 Z"
       id="turnRight"
       inkscape:connector-curvature="0"
       style="fill:#ffffff" />
    <path
       d="M 3.637,1.794 A 6.825,6.825 0 0 1 8.277,0 C 11.99,0 15,2.91 15,6.5 15,8.816 13.747,10.85 11.86,12 H 9.83 V 10.744 C 11.638,10.126 12.933,8.459 12.933,6.5 12.933,4.015 10.85,2 8.279,2 7.139,2 6.095,2.396 5.286,3.053 L 6.69,4.13 C 7.14,4.474 7.088,4.956 6.58,5.21 L 0,8.5 1.142,0.992 C 1.225,0.445 1.656,0.278 2.105,0.622 Z"
       id="turnLeft"
       inkscape:connector-curvature="0"
       style="fill:#ffffff" />
    <path
       d="M 0,0 4,4 0,8 Z"
       id="addInput"
       inkscape:connector-curvature="0"
       style="fill:#111111" />
    <path
       d="M 4,0 V 8 L 0,4 Z"
       id="delInput"
       inkscape:connector-curvature="0"
       style="fill:#111111" />
    <g
       id="loopArrow">
      <path
         d="m 8,0 2,-2 v -3 h 3 l -4,-5 -4,5 h 3 v 3 H 0 v 2"
         id="path631"
         inkscape:connector-curvature="0"
         style="opacity:0.3;fill:#000000" />
      <path
         d="m 8,0 2,-2 v -3 h 3 l -4,-5 -4,5 h 3 v 3 H 0 v 2"
         transform="translate(-1,-1)"
         id="path633"
         inkscape:connector-curvature="0"
         style="opacity:0.9;fill:#ffffff" />
    </g>
    <style
       id="style636"><![CDATA[.sb-label{font-family:Lucida Grande,Verdana,Arial,DejaVu Sans,sans-serif;font-weight:700;fill:#fff;font-size:10px;word-spacing:+1px}.sb-obsolete{fill:#d42828}.sb-motion{fill:#4a6cd4}.sb-looks{fill:#8a55d7}.sb-sound{fill:#bb42c3}.sb-pen{fill:#0e9a6c}.sb-events{fill:#c88330}.sb-control{fill:#e1a91a}.sb-sensing{fill:#2ca5e2}.sb-operators{fill:#5cb712}.sb-variables{fill:#ee7d16}.sb-list{fill:#cc5b22}.sb-custom{fill:#632d99}.sb-custom-arg{fill:#5947b1}.sb-extension{fill:#4b4a60}.sb-grey{fill:#969696}.sb-bevel{filter:url(#bevelFilter)}.sb-input{filter:url(#inputBevelFilter)}.sb-input-number,.sb-input-number-dropdown,.sb-input-string{fill:#fff}.sb-literal-dropdown,.sb-literal-number,.sb-literal-number-dropdown,.sb-literal-string{font-weight:400;font-size:9px;word-spacing:0}.sb-literal-number,.sb-literal-number-dropdown,.sb-literal-string{fill:#000}.sb-darker{filter:url(#inputDarkFilter)}.sb-outline{stroke:#fff;stroke-opacity:.2;stroke-width:2;fill:none}.sb-define-hat-cap{stroke:#632d99;stroke-width:1;fill:#8e2ec2}.sb-comment{fill:#ffffa5;stroke:#d0d1d2;stroke-width:1}.sb-comment-line{fill:#ffff80}.sb-comment-label{font-family:Helevetica,Arial,DejaVu Sans,sans-serif;font-weight:700;fill:#5c5d5f;word-spacing:0;font-size:12px}]]></style>
    <filter
       id="bevelFilter-3"
       x0="-50%"
       y0="-50%"
       width="2"
       height="2">
      <feGaussianBlur
         result="blur-1"
         in="SourceAlpha"
         stdDeviation="1 1"
         id="feGaussianBlur460" />
      <feFlood
         result="flood-2"
         flood-color="#fff"
         flood-opacity="0.15"
         id="feFlood462" />
      <feOffset
         result="offset-3"
         in="blur-1"
         dx="1"
         dy="1"
         id="feOffset464" />
      <feComposite
         k4="0"
         k1="0"
         result="comp-4"
         operator="arithmetic"
         in="SourceAlpha"
         in2="offset-3"
         k2="1"
         k3="-1"
         id="feComposite466" />
      <feComposite
         result="comp-5"
         operator="in"
         in="flood-2"
         in2="comp-4"
         id="feComposite468" />
      <feFlood
         result="flood-6"
         flood-color="#000"
         flood-opacity="0.7"
         id="feFlood470" />
      <feOffset
         result="offset-7"
         in="blur-1"
         dx="-1"
         dy="-1"
         id="feOffset472" />
      <feComposite
         k4="0"
         k1="0"
         result="comp-8"
         operator="arithmetic"
         in="SourceAlpha"
         in2="offset-7"
         k2="1"
         k3="-1"
         id="feComposite474" />
      <feComposite
         result="comp-9"
         operator="in"
         in="flood-6"
         in2="comp-8"
         id="feComposite476" />
      <feMerge
         result="merge-10"
         id="feMerge484">
        <feMergeNode
           in="SourceGraphic"
           id="feMergeNode478" />
        <feMergeNode
           in="comp-5"
           id="feMergeNode480" />
        <feMergeNode
           in="comp-9"
           id="feMergeNode482" />
      </feMerge>
    </filter>
  </defs>
  <g
     id="g864"
     transform="translate(35.765951,68.759681)">
    <g
       id="g792">
      <g
         transform="translate(2)"
         id="g706">
        <path
           d="M 0,3 3,0 h 10 l 3,3 h 8 l 3,-3 h 141 l 3,3 v 24 l -3,3 H 42 l -3,3 H 31 L 28,30 H 17 l -2,2 v 30 l 2,2 h 151 l 3,3 v 10 l -3,3 H 27 l -3,3 H 16 L 13,80 H 3 L 0,77"
           class="sb-control sb-bevel"
           id="path640"
           inkscape:connector-curvature="0"
           style="fill:#e1a91a;filter:url(#bevelFilter)" />
        <text
           x="0"
           y="10"
           class="sb-label "
           transform="translate(6,8)"
           id="text642"
           style="font-weight:700;font-size:10px;font-family:'Lucida Grande', Verdana, Arial, 'DejaVu Sans', sans-serif;word-spacing:1px;fill:#ffffff">falls</text>
        <g
           transform="translate(30,2)"
           id="g660">
          <path
             d="m 12.5,0 h 82 L 107,12.5 v 0 L 94.5,25 h -82 L 0,12.5 v 0 z"
             class="sb-operators sb-bevel"
             id="path644"
             inkscape:connector-curvature="0"
             style="fill:#5cb712;filter:url(#bevelFilter)" />
          <g
             transform="translate(9,2)"
             id="g650">
            <path
               d="m 10,0 h 39 a 10,10 0 0 1 0,20 H 10 A 10,10 0 0 1 10,0 Z"
               class="sb-motion sb-bevel"
               id="path646"
               inkscape:connector-curvature="0"
               style="fill:#4a6cd4;filter:url(#bevelFilter)" />
            <text
               x="0"
               y="10"
               class="sb-label "
               transform="translate(8,4)"
               id="text648"
               style="font-weight:700;font-size:10px;font-family:'Lucida Grande', Verdana, Arial, 'DejaVu Sans', sans-serif;word-spacing:1px;fill:#ffffff">Richtung</text>
          </g>
          <text
             x="0"
             y="10"
             class="sb-label "
             transform="translate(72,6)"
             id="text652"
             style="font-weight:700;font-size:10px;font-family:'Lucida Grande', Verdana, Arial, 'DejaVu Sans', sans-serif;word-spacing:1px;fill:#ffffff">&lt;</text>
          <g
             transform="translate(82,5)"
             id="g658">
            <rect
               x="0"
               y="0"
               width="16"
               height="14"
               class="sb-input sb-input-string"
               id="rect654"
               style="fill:#ffffff;filter:url(#inputBevelFilter)" />
            <text
               x="0"
               y="10"
               class="sb-label sb-literal-string"
               transform="translate(4)"
               id="text656"
               style="font-weight:400;font-size:9px;font-family:'Lucida Grande', Verdana, Arial, 'DejaVu Sans', sans-serif;word-spacing:0;fill:#000000">90</text>
          </g>
        </g>
        <text
           x="0"
           y="10"
           class="sb-label "
           transform="translate(141,8)"
           id="text662"
           style="font-weight:700;font-size:10px;font-family:'Lucida Grande', Verdana, Arial, 'DejaVu Sans', sans-serif;word-spacing:1px;fill:#ffffff">dann</text>
        <g
           transform="translate(15,30)"
           id="g704">
          <g
             id="g702">
            <path
               d="M 0,3 3,0 h 10 l 3,3 h 8 l 3,-3 h 187 l 3,3 v 28 l -3,3 H 27 l -3,3 H 16 L 13,34 H 3 L 0,31 Z"
               class="sb-motion sb-bevel"
               id="path664"
               inkscape:connector-curvature="0"
               style="fill:#4a6cd4;filter:url(#bevelFilter)" />
            <text
               x="0"
               y="10"
               class="sb-label "
               transform="translate(6,11)"
               id="text666"
               style="font-weight:700;font-size:10px;font-family:'Lucida Grande', Verdana, Arial, 'DejaVu Sans', sans-serif;word-spacing:1px;fill:#ffffff">채ndere</text>
            <text
               x="0"
               y="10"
               class="sb-label "
               transform="translate(43,11)"
               id="text668"
               style="font-weight:700;font-size:10px;font-family:'Lucida Grande', Verdana, Arial, 'DejaVu Sans', sans-serif;word-spacing:1px;fill:#ffffff">x</text>
            <text
               x="0"
               y="10"
               class="sb-label "
               transform="translate(53,11)"
               id="text670"
               style="font-weight:700;font-size:10px;font-family:'Lucida Grande', Verdana, Arial, 'DejaVu Sans', sans-serif;word-spacing:1px;fill:#ffffff">um</text>
            <g
               transform="translate(72,3)"
               id="g700">
              <path
                 d="m 14,0 h 111 a 14,14 0 0 1 0,28 H 14 A 14,14 0 0 1 14,0 Z"
                 class="sb-operators sb-bevel"
                 id="path672"
                 inkscape:connector-curvature="0"
                 style="fill:#5cb712;filter:url(#bevelFilter)" />
              <g
                 transform="translate(4,7)"
                 id="g678">
                <path
                   d="m 6.5,0 h 4 a 6.5,6.5 0 0 1 0,13 h -4 a 6.5,6.5 0 0 1 0,-13 z"
                   class="sb-input sb-input-number"
                   id="path674"
                   inkscape:connector-curvature="0"
                   style="fill:#ffffff;filter:url(#inputBevelFilter)" />
                <text
                   x="0"
                   y="10"
                   class="sb-label sb-literal-number"
                   transform="translate(5)"
                   id="text676"
                   style="font-weight:400;font-size:9px;font-family:'Lucida Grande', Verdana, Arial, 'DejaVu Sans', sans-serif;word-spacing:0;fill:#000000">-1</text>
              </g>
              <text
                 x="0"
                 y="10"
                 class="sb-label "
                 transform="translate(25,8)"
                 id="text680"
                 style="font-weight:700;font-size:10px;font-family:'Lucida Grande', Verdana, Arial, 'DejaVu Sans', sans-serif;word-spacing:1px;fill:#ffffff">*</text>
              <g
                 transform="translate(33,2)"
                 id="g698">
                <path
                   d="m 12,0 h 78 a 12,12 0 0 1 0,24 H 12 A 12,12 0 0 1 12,0 Z"
                   class="sb-operators sb-bevel"
                   id="path682"
                   inkscape:connector-curvature="0"
                   style="fill:#5cb712;filter:url(#bevelFilter)" />
                <g
                   transform="translate(4,2)"
                   id="g688">
                  <path
                     d="m 10,0 h 39 a 10,10 0 0 1 0,20 H 10 A 10,10 0 0 1 10,0 Z"
                     class="sb-motion sb-bevel"
                     id="path684"
                     inkscape:connector-curvature="0"
                     style="fill:#4a6cd4;filter:url(#bevelFilter)" />
                  <text
                     x="0"
                     y="10"
                     class="sb-label "
                     transform="translate(8,4)"
                     id="text686"
                     style="font-weight:700;font-size:10px;font-family:'Lucida Grande', Verdana, Arial, 'DejaVu Sans', sans-serif;word-spacing:1px;fill:#ffffff">Richtung</text>
                </g>
                <text
                   x="0"
                   y="10"
                   class="sb-label "
                   transform="translate(67,6)"
                   id="text690"
                   style="font-weight:700;font-size:10px;font-family:'Lucida Grande', Verdana, Arial, 'DejaVu Sans', sans-serif;word-spacing:1px;fill:#ffffff">/</text>
                <g
                   transform="translate(74,5)"
                   id="g696">
                  <path
                     d="m 6.5,0 h 11 a 6.5,6.5 0 0 1 0,13 h -11 a 6.5,6.5 0 0 1 0,-13 z"
                     class="sb-input sb-input-number"
                     id="path692"
                     inkscape:connector-curvature="0"
                     style="fill:#ffffff;filter:url(#inputBevelFilter)" />
                  <text
                     x="0"
                     y="10"
                     class="sb-label sb-literal-number"
                     transform="translate(5)"
                     id="text694"
                     style="font-weight:400;font-size:9px;font-family:'Lucida Grande', Verdana, Arial, 'DejaVu Sans', sans-serif;word-spacing:0;fill:#000000">100</text>
                </g>
              </g>
            </g>
          </g>
        </g>
      </g>
      <g
         transform="translate(2,80)"
         id="g762">
        <path
           d="M 0,3 3,0 h 10 l 3,3 h 8 l 3,-3 h 141 l 3,3 v 24 l -3,3 H 42 l -3,3 H 31 L 28,30 H 17 l -2,2 v 26 l 2,2 h 151 l 3,3 v 10 l -3,3 H 27 l -3,3 H 16 L 13,76 H 3 L 0,73"
           class="sb-control sb-bevel"
           id="path708"
           inkscape:connector-curvature="0"
           style="fill:#e1a91a;filter:url(#bevelFilter)" />
        <text
           x="0"
           y="10"
           class="sb-label "
           transform="translate(6,8)"
           id="text710"
           style="font-weight:700;font-size:10px;font-family:'Lucida Grande', Verdana, Arial, 'DejaVu Sans', sans-serif;word-spacing:1px;fill:#ffffff">falls</text>
        <g
           transform="translate(30,2)"
           id="g728">
          <path
             d="m 12.5,0 h 82 L 107,12.5 v 0 L 94.5,25 h -82 L 0,12.5 v 0 z"
             class="sb-operators sb-bevel"
             id="path712"
             inkscape:connector-curvature="0"
             style="fill:#5cb712;filter:url(#bevelFilter)" />
          <g
             transform="translate(9,2)"
             id="g718">
            <path
               d="m 10,0 h 39 a 10,10 0 0 1 0,20 H 10 A 10,10 0 0 1 10,0 Z"
               class="sb-motion sb-bevel"
               id="path714"
               inkscape:connector-curvature="0"
               style="fill:#4a6cd4;filter:url(#bevelFilter)" />
            <text
               x="0"
               y="10"
               class="sb-label "
               transform="translate(8,4)"
               id="text716"
               style="font-weight:700;font-size:10px;font-family:'Lucida Grande', Verdana, Arial, 'DejaVu Sans', sans-serif;word-spacing:1px;fill:#ffffff">Richtung</text>
          </g>
          <text
             x="0"
             y="10"
             class="sb-label "
             transform="translate(72,6)"
             id="text720"
             style="font-weight:700;font-size:10px;font-family:'Lucida Grande', Verdana, Arial, 'DejaVu Sans', sans-serif;word-spacing:1px;fill:#ffffff">&lt;</text>
          <g
             transform="translate(82,5)"
             id="g726">
            <rect
               x="0"
               y="0"
               width="16"
               height="14"
               class="sb-input sb-input-string"
               id="rect722"
               style="fill:#ffffff;filter:url(#inputBevelFilter)" />
            <text
               x="0"
               y="10"
               class="sb-label sb-literal-string"
               transform="translate(4)"
               id="text724"
               style="font-weight:400;font-size:9px;font-family:'Lucida Grande', Verdana, Arial, 'DejaVu Sans', sans-serif;word-spacing:0;fill:#000000">90</text>
          </g>
        </g>
        <text
           x="0"
           y="10"
           class="sb-label "
           transform="translate(141,8)"
           id="text730"
           style="font-weight:700;font-size:10px;font-family:'Lucida Grande', Verdana, Arial, 'DejaVu Sans', sans-serif;word-spacing:1px;fill:#ffffff">dann</text>
        <g
           transform="translate(15,30)"
           id="g760">
          <g
             id="g758">
            <path
               d="M 0,3 3,0 h 10 l 3,3 h 8 l 3,-3 h 150 l 3,3 v 24 l -3,3 H 27 l -3,3 H 16 L 13,30 H 3 L 0,27 Z"
               class="sb-motion sb-bevel"
               id="path732"
               inkscape:connector-curvature="0"
               style="fill:#4a6cd4;filter:url(#bevelFilter)" />
            <text
               x="0"
               y="10"
               class="sb-label "
               transform="translate(6,9)"
               id="text734"
               style="font-weight:700;font-size:10px;font-family:'Lucida Grande', Verdana, Arial, 'DejaVu Sans', sans-serif;word-spacing:1px;fill:#ffffff">채ndere</text>
            <text
               x="0"
               y="10"
               class="sb-label "
               transform="translate(43,9)"
               id="text736"
               style="font-weight:700;font-size:10px;font-family:'Lucida Grande', Verdana, Arial, 'DejaVu Sans', sans-serif;word-spacing:1px;fill:#ffffff">x</text>
            <text
               x="0"
               y="10"
               class="sb-label "
               transform="translate(53,9)"
               id="text738"
               style="font-weight:700;font-size:10px;font-family:'Lucida Grande', Verdana, Arial, 'DejaVu Sans', sans-serif;word-spacing:1px;fill:#ffffff">um</text>
            <g
               transform="translate(72,3)"
               id="g756">
              <path
                 d="m 12,0 h 78 a 12,12 0 0 1 0,24 H 12 A 12,12 0 0 1 12,0 Z"
                 class="sb-operators sb-bevel"
                 id="path740"
                 inkscape:connector-curvature="0"
                 style="fill:#5cb712;filter:url(#bevelFilter)" />
              <g
                 transform="translate(4,2)"
                 id="g746">
                <path
                   d="m 10,0 h 39 a 10,10 0 0 1 0,20 H 10 A 10,10 0 0 1 10,0 Z"
                   class="sb-motion sb-bevel"
                   id="path742"
                   inkscape:connector-curvature="0"
                   style="fill:#4a6cd4;filter:url(#bevelFilter)" />
                <text
                   x="0"
                   y="10"
                   class="sb-label "
                   transform="translate(8,4)"
                   id="text744"
                   style="font-weight:700;font-size:10px;font-family:'Lucida Grande', Verdana, Arial, 'DejaVu Sans', sans-serif;word-spacing:1px;fill:#ffffff">Richtung</text>
              </g>
              <text
                 x="0"
                 y="10"
                 class="sb-label "
                 transform="translate(67,6)"
                 id="text748"
                 style="font-weight:700;font-size:10px;font-family:'Lucida Grande', Verdana, Arial, 'DejaVu Sans', sans-serif;word-spacing:1px;fill:#ffffff">/</text>
              <g
                 transform="translate(74,5)"
                 id="g754">
                <path
                   d="m 6.5,0 h 11 a 6.5,6.5 0 0 1 0,13 h -11 a 6.5,6.5 0 0 1 0,-13 z"
                   class="sb-input sb-input-number"
                   id="path750"
                   inkscape:connector-curvature="0"
                   style="fill:#ffffff;filter:url(#inputBevelFilter)" />
                <text
                   x="0"
                   y="10"
                   class="sb-label sb-literal-number"
                   transform="translate(5)"
                   id="text752"
                   style="font-weight:400;font-size:9px;font-family:'Lucida Grande', Verdana, Arial, 'DejaVu Sans', sans-serif;word-spacing:0;fill:#000000">100</text>
              </g>
            </g>
          </g>
        </g>
      </g>
      <g
         transform="translate(2,156)"
         id="g778">
        <path
           d="M 0,3 3,0 h 10 l 3,3 h 8 l 3,-3 h 65 l 3,3 v 16 l -3,3 H 27 l -3,3 H 16 L 13,22 H 3 L 0,19 Z"
           class="sb-motion sb-bevel"
           id="path764"
           inkscape:connector-curvature="0"
           style="fill:#4a6cd4;filter:url(#bevelFilter)" />
        <text
           x="0"
           y="10"
           class="sb-label "
           transform="translate(6,5)"
           id="text766"
           style="font-weight:700;font-size:10px;font-family:'Lucida Grande', Verdana, Arial, 'DejaVu Sans', sans-serif;word-spacing:1px;fill:#ffffff">채ndere</text>
        <text
           x="0"
           y="10"
           class="sb-label "
           transform="translate(43,5)"
           id="text768"
           style="font-weight:700;font-size:10px;font-family:'Lucida Grande', Verdana, Arial, 'DejaVu Sans', sans-serif;word-spacing:1px;fill:#ffffff">y</text>
        <text
           x="0"
           y="10"
           class="sb-label "
           transform="translate(53,5)"
           id="text770"
           style="font-weight:700;font-size:10px;font-family:'Lucida Grande', Verdana, Arial, 'DejaVu Sans', sans-serif;word-spacing:1px;fill:#ffffff">um</text>
        <g
           transform="translate(72,4)"
           id="g776">
          <path
             d="m 6.5,0 h 4 a 6.5,6.5 0 0 1 0,13 h -4 a 6.5,6.5 0 0 1 0,-13 z"
             class="sb-input sb-input-number"
             id="path772"
             inkscape:connector-curvature="0"
             style="fill:#ffffff;filter:url(#inputBevelFilter)" />
          <text
             x="0"
             y="10"
             class="sb-label sb-literal-number"
             transform="translate(5)"
             id="text774"
             style="font-weight:400;font-size:9px;font-family:'Lucida Grande', Verdana, Arial, 'DejaVu Sans', sans-serif;word-spacing:0;fill:#000000">-3</text>
        </g>
      </g>
      <g
         transform="translate(2,178)"
         id="g790">
        <path
           d="M 0,3 3,0 h 10 l 3,3 h 8 l 3,-3 h 79 l 3,3 v 16 l -3,3 H 27 l -3,3 H 16 L 13,22 H 3 L 0,19 Z"
           class="sb-motion sb-bevel"
           id="path780"
           inkscape:connector-curvature="0"
           style="fill:#4a6cd4;filter:url(#bevelFilter)" />
        <text
           x="0"
           y="10"
           class="sb-label "
           transform="translate(6,5)"
           id="text782"
           style="font-weight:700;font-size:10px;font-family:'Lucida Grande', Verdana, Arial, 'DejaVu Sans', sans-serif;word-spacing:1px;fill:#ffffff">pralle</text>
        <text
           x="0"
           y="10"
           class="sb-label "
           transform="translate(37,5)"
           id="text784"
           style="font-weight:700;font-size:10px;font-family:'Lucida Grande', Verdana, Arial, 'DejaVu Sans', sans-serif;word-spacing:1px;fill:#ffffff">vom</text>
        <text
           x="0"
           y="10"
           class="sb-label "
           transform="translate(62,5)"
           id="text786"
           style="font-weight:700;font-size:10px;font-family:'Lucida Grande', Verdana, Arial, 'DejaVu Sans', sans-serif;word-spacing:1px;fill:#ffffff">Rand</text>
        <text
           x="0"
           y="10"
           class="sb-label "
           transform="translate(91,5)"
           id="text788"
           style="font-weight:700;font-size:10px;font-family:'Lucida Grande', Verdana, Arial, 'DejaVu Sans', sans-serif;word-spacing:1px;fill:#ffffff">ab</text>
      </g>
    </g>
    <g
       transform="translate(0,213)"
       id="g862">
      <g
         transform="translate(2)"
         id="g860">
        <path
           d="M 0,3 3,0 h 10 l 3,3 h 8 l 3,-3 h 154 l 3,3 v 24 l -3,3 H 42 l -3,3 H 31 L 28,30 H 17 l -2,2 v 40 l 2,2 h 164 l 3,3 v 10 l -3,3 H 27 l -3,3 H 16 L 13,90 H 3 L 0,87"
           class="sb-control sb-bevel"
           id="path794"
           inkscape:connector-curvature="0"
           style="fill:#e1a91a;filter:url(#bevelFilter)" />
        <text
           x="0"
           y="10"
           class="sb-label "
           transform="translate(6,8)"
           id="text796"
           style="font-weight:700;font-size:10px;font-family:'Lucida Grande', Verdana, Arial, 'DejaVu Sans', sans-serif;word-spacing:1px;fill:#ffffff">falls</text>
        <g
           transform="translate(30,2)"
           id="g814">
          <path
             d="m 12.5,0 h 95 L 120,12.5 v 0 L 107.5,25 h -95 L 0,12.5 v 0 z"
             class="sb-operators sb-bevel"
             id="path798"
             inkscape:connector-curvature="0"
             style="fill:#5cb712;filter:url(#bevelFilter)" />
          <g
             transform="translate(9,2)"
             id="g804">
            <path
               d="m 10,0 h 44 a 10,10 0 0 1 0,20 H 10 A 10,10 0 0 1 10,0 Z"
               class="sb-motion sb-bevel"
               id="path800"
               inkscape:connector-curvature="0"
               style="fill:#4a6cd4;filter:url(#bevelFilter)" />
            <text
               x="0"
               y="10"
               class="sb-label "
               transform="translate(8,4)"
               id="text802"
               style="font-weight:700;font-size:10px;font-family:'Lucida Grande', Verdana, Arial, 'DejaVu Sans', sans-serif;word-spacing:1px;fill:#ffffff">y-Position</text>
          </g>
          <text
             x="0"
             y="10"
             class="sb-label "
             transform="translate(77,6)"
             id="text806"
             style="font-weight:700;font-size:10px;font-family:'Lucida Grande', Verdana, Arial, 'DejaVu Sans', sans-serif;word-spacing:1px;fill:#ffffff">&lt;</text>
          <g
             transform="translate(87,5)"
             id="g812">
            <rect
               x="0"
               y="0"
               width="24"
               height="14"
               class="sb-input sb-input-string"
               id="rect808"
               style="fill:#ffffff;filter:url(#inputBevelFilter)" />
            <text
               x="0"
               y="10"
               class="sb-label sb-literal-string"
               transform="translate(4)"
               id="text810"
               style="font-weight:400;font-size:9px;font-family:'Lucida Grande', Verdana, Arial, 'DejaVu Sans', sans-serif;word-spacing:0;fill:#000000">-150</text>
          </g>
        </g>
        <text
           x="0"
           y="10"
           class="sb-label "
           transform="translate(154,8)"
           id="text816"
           style="font-weight:700;font-size:10px;font-family:'Lucida Grande', Verdana, Arial, 'DejaVu Sans', sans-serif;word-spacing:1px;fill:#ffffff">dann</text>
        <g
           transform="translate(15,30)"
           id="g858">
          <g
             id="g832">
            <path
               d="M 0,3 3,0 h 10 l 3,3 h 8 l 3,-3 h 67 l 3,3 v 16 l -3,3 H 27 l -3,3 H 16 L 13,22 H 3 L 0,19 Z"
               class="sb-motion sb-bevel"
               id="path818"
               inkscape:connector-curvature="0"
               style="fill:#4a6cd4;filter:url(#bevelFilter)" />
            <text
               x="0"
               y="10"
               class="sb-label "
               transform="translate(6,5)"
               id="text820"
               style="font-weight:700;font-size:10px;font-family:'Lucida Grande', Verdana, Arial, 'DejaVu Sans', sans-serif;word-spacing:1px;fill:#ffffff">setze</text>
            <text
               x="0"
               y="10"
               class="sb-label "
               transform="translate(35,5)"
               id="text822"
               style="font-weight:700;font-size:10px;font-family:'Lucida Grande', Verdana, Arial, 'DejaVu Sans', sans-serif;word-spacing:1px;fill:#ffffff">y</text>
            <text
               x="0"
               y="10"
               class="sb-label "
               transform="translate(45,5)"
               id="text824"
               style="font-weight:700;font-size:10px;font-family:'Lucida Grande', Verdana, Arial, 'DejaVu Sans', sans-serif;word-spacing:1px;fill:#ffffff">auf</text>
            <g
               transform="translate(64,4)"
               id="g830">
              <path
                 d="m 6.5,0 h 14 a 6.5,6.5 0 0 1 0,13 h -14 a 6.5,6.5 0 0 1 0,-13 z"
                 class="sb-input sb-input-number"
                 id="path826"
                 inkscape:connector-curvature="0"
                 style="fill:#ffffff;filter:url(#inputBevelFilter)" />
              <text
                 x="0"
                 y="10"
                 class="sb-label sb-literal-number"
                 transform="translate(5)"
                 id="text828"
                 style="font-weight:400;font-size:9px;font-family:'Lucida Grande', Verdana, Arial, 'DejaVu Sans', sans-serif;word-spacing:0;fill:#000000">-120</text>
            </g>
          </g>
          <g
             transform="translate(0,22)"
             id="g856">
            <path
               d="M 0,3 3,0 h 10 l 3,3 h 8 l 3,-3 h 106 l 3,3 v 16 l -3,3 H 27 l -3,3 H 16 L 13,22 H 3 L 0,19 Z"
               class="sb-variables sb-bevel"
               id="path834"
               inkscape:connector-curvature="0"
               style="fill:#ee7d16;filter:url(#bevelFilter)" />
            <text
               x="0"
               y="10"
               class="sb-label "
               transform="translate(6,5)"
               id="text836"
               style="font-weight:700;font-size:10px;font-family:'Lucida Grande', Verdana, Arial, 'DejaVu Sans', sans-serif;word-spacing:1px;fill:#ffffff">채ndere</text>
            <g
               transform="translate(43,4)"
               id="g846">
              <g
                 width="47"
                 height="14"
                 class="sb-input sb-input-dropdown"
                 id="g840"
                 style="filter:url(#inputBevelFilter)">
                <rect
                   x="0"
                   y="0"
                   width="47"
                   height="14"
                   class="sb-variables sb-darker"
                   id="rect838"
                   style="fill:#ee7d16;filter:url(#inputDarkFilter)" />
              </g>
              <text
                 x="0"
                 y="10"
                 class="sb-label sb-literal-dropdown"
                 transform="translate(4)"
                 id="text842"
                 style="font-weight:400;font-size:9px;font-family:'Lucida Grande', Verdana, Arial, 'DejaVu Sans', sans-serif;word-spacing:0;fill:#ffffff">Punkte</text>
              <polygon
                 points="0,0 7,0 3.5,4 "
                 transform="translate(37,5)"
                 id="polygon844"
                 style="opacity:0.6;fill:#000000" />
            </g>
            <text
               x="0"
               y="10"
               class="sb-label "
               transform="translate(94,5)"
               id="text848"
               style="font-weight:700;font-size:10px;font-family:'Lucida Grande', Verdana, Arial, 'DejaVu Sans', sans-serif;word-spacing:1px;fill:#ffffff">um</text>
            <g
               transform="translate(113,4)"
               id="g854">
              <path
                 d="m 6.5,0 h 4 a 6.5,6.5 0 0 1 0,13 h -4 a 6.5,6.5 0 0 1 0,-13 z"
                 class="sb-input sb-input-number"
                 id="path850"
                 inkscape:connector-curvature="0"
                 style="fill:#ffffff;filter:url(#inputBevelFilter)" />
              <text
                 x="0"
                 y="10"
                 class="sb-label sb-literal-number"
                 transform="translate(5)"
                 id="text852"
                 style="font-weight:400;font-size:9px;font-family:'Lucida Grande', Verdana, Arial, 'DejaVu Sans', sans-serif;word-spacing:0;fill:#000000">-1</text>
            </g>
          </g>
        </g>
      </g>
    </g>
  </g>
  <path
     sodipodi:nodetypes="cccccccccccccccccccccccc"
     style="fill:#e1a91a;filter:url(#bevelFilter)"
     id="path539"
     class="sb-control sb-bevel"
     d="m 12,39.400002 3,-3 h 10 l 3,3 h 8 l 3,-3 h 90 l 3,3 v 16 l -3,3 H 54 l -3,3 h -8 l -3,-3 H 29 l -2,2 V 382.4 l 2,2 h 100 l 3,3 v 10 l -3,3 H 15 l -3,-3"
     inkscape:connector-curvature="0" />
  <text
     style="font-weight:700;font-size:10px;font-family:'Lucida Grande', Verdana, Arial, 'DejaVu Sans', sans-serif;word-spacing:1px;fill:#ffffff"
     id="text541"
     class="sb-label "
     y="51.400002"
     x="18"
     inkscape:export-xdpi="300"
     inkscape:export-ydpi="300">wiederhole</text>
  <text
     style="font-weight:700;font-size:10px;font-family:'Lucida Grande', Verdana, Arial, 'DejaVu Sans', sans-serif;word-spacing:1px;fill:#ffffff"
     id="text543"
     class="sb-label "
     y="51.400002"
     x="74"
     inkscape:export-xdpi="300"
     inkscape:export-ydpi="300">fortlaufend</text>
  <use
     id="use545"
     transform="translate(117,397.817)"
     xlink:href="#loopArrow"
     x="0"
     y="0"
     width="100%"
     height="100%"
     inkscape:export-xdpi="300"
     inkscape:export-ydpi="300" />
  <rect
     style="opacity:1;vector-effect:none;fill:none;fill-opacity:1;stroke:none;stroke-width:0.9996196;stroke-linecap:butt;stroke-linejoin:miter;stroke-miterlimit:4;stroke-dasharray:none;stroke-dashoffset:0;stroke-opacity:1"
     id="rect1364"
     width="262.17288"
     height="368.00513"
     x="9.3970871"
     y="34.46582"
     inkscape:export-xdpi="300"
     inkscape:export-ydpi="300" />
</svg>
