<?xml version="1.0" encoding="UTF-8" standalone="no"?>
<svg
   xmlns:dc="http://purl.org/dc/elements/1.1/"
   xmlns:cc="http://creativecommons.org/ns#"
   xmlns:rdf="http://www.w3.org/1999/02/22-rdf-syntax-ns#"
   xmlns:svg="http://www.w3.org/2000/svg"
   xmlns="http://www.w3.org/2000/svg"
   xmlns:sodipodi="http://sodipodi.sourceforge.net/DTD/sodipodi-0.dtd"
   xmlns:inkscape="http://www.inkscape.org/namespaces/inkscape"
   version="1.1"
   width="234"
   height="306"
   id="svg309"
   sodipodi:docname="can-move-en.svg"
   inkscape:version="0.92.2 (5c3e80d, 2017-08-06)">
  <metadata
     id="metadata313">
    <rdf:RDF>
      <cc:Work
         rdf:about="">
        <dc:format>image/svg+xml</dc:format>
        <dc:type
           rdf:resource="http://purl.org/dc/dcmitype/StillImage" />
        <dc:title></dc:title>
      </cc:Work>
    </rdf:RDF>
  </metadata>
  <sodipodi:namedview
     pagecolor="#ffffff"
     bordercolor="#666666"
     borderopacity="1"
     objecttolerance="10"
     gridtolerance="10"
     guidetolerance="10"
     inkscape:pageopacity="0"
     inkscape:pageshadow="2"
     inkscape:window-width="2238"
     inkscape:window-height="1776"
     id="namedview311"
     showgrid="false"
     inkscape:zoom="3.3913974"
     inkscape:cx="156.37818"
     inkscape:cy="190.80464"
     inkscape:window-x="0"
     inkscape:window-y="22"
     inkscape:window-maximized="0"
     inkscape:current-layer="svg309" />
  <defs
     id="defs79">
    <filter
       id="bevelFilter"
       x0="-50%"
       y0="-50%"
       width="200%"
       height="200%">
      <feGaussianBlur
         result="blur-1"
         in="SourceAlpha"
         stdDeviation="1 1"
         id="feGaussianBlur2" />
      <feFlood
         result="flood-2"
         flood-color="#fff"
         flood-opacity="0.15"
         id="feFlood4"
         in="undefined" />
      <feOffset
         result="offset-3"
         in="blur-1"
         dx="1"
         dy="1"
         id="feOffset6" />
      <feComposite
         result="comp-4"
         operator="arithmetic"
         in="SourceAlpha"
         in2="offset-3"
         k2="1"
         k3="-1"
         id="feComposite8" />
      <feComposite
         result="comp-5"
         operator="in"
         in="flood-2"
         in2="comp-4"
         id="feComposite10" />
      <feFlood
         result="flood-6"
         flood-color="#000"
         flood-opacity="0.7"
         id="feFlood12"
         in="undefined" />
      <feOffset
         result="offset-7"
         in="blur-1"
         dx="-1"
         dy="-1"
         id="feOffset14" />
      <feComposite
         result="comp-8"
         operator="arithmetic"
         in="SourceAlpha"
         in2="offset-7"
         k2="1"
         k3="-1"
         id="feComposite16" />
      <feComposite
         result="comp-9"
         operator="in"
         in="flood-6"
         in2="comp-8"
         id="feComposite18" />
      <feMerge
         result="merge-10"
         id="feMerge26">
        <feMergeNode
           in="SourceGraphic"
           id="feMergeNode20" />
        <feMergeNode
           in="comp-5"
           id="feMergeNode22" />
        <feMergeNode
           in="comp-9"
           id="feMergeNode24" />
      </feMerge>
    </filter>
    <filter
       id="inputBevelFilter"
       x0="-50%"
       y0="-50%"
       width="200%"
       height="200%">
      <feGaussianBlur
         result="blur-1"
         in="SourceAlpha"
         stdDeviation="1 1"
         id="feGaussianBlur29" />
      <feFlood
         result="flood-2"
         flood-color="#fff"
         flood-opacity="0.15"
         id="feFlood31"
         in="undefined" />
      <feOffset
         result="offset-3"
         in="blur-1"
         dx="-1"
         dy="-1"
         id="feOffset33" />
      <feComposite
         result="comp-4"
         operator="arithmetic"
         in="SourceAlpha"
         in2="offset-3"
         k2="1"
         k3="-1"
         id="feComposite35" />
      <feComposite
         result="comp-5"
         operator="in"
         in="flood-2"
         in2="comp-4"
         id="feComposite37" />
      <feFlood
         result="flood-6"
         flood-color="#000"
         flood-opacity="0.7"
         id="feFlood39"
         in="undefined" />
      <feOffset
         result="offset-7"
         in="blur-1"
         dx="1"
         dy="1"
         id="feOffset41" />
      <feComposite
         result="comp-8"
         operator="arithmetic"
         in="SourceAlpha"
         in2="offset-7"
         k2="1"
         k3="-1"
         id="feComposite43" />
      <feComposite
         result="comp-9"
         operator="in"
         in="flood-6"
         in2="comp-8"
         id="feComposite45" />
      <feMerge
         result="merge-10"
         id="feMerge53">
        <feMergeNode
           in="SourceGraphic"
           id="feMergeNode47" />
        <feMergeNode
           in="comp-5"
           id="feMergeNode49" />
        <feMergeNode
           in="comp-9"
           id="feMergeNode51" />
      </feMerge>
    </filter>
    <filter
       id="inputDarkFilter"
       x0="-50%"
       y0="-50%"
       width="200%"
       height="200%">
      <feFlood
         result="flood-1"
         flood-color="#000"
         flood-opacity="0.2"
         id="feFlood56"
         in="undefined" />
      <feComposite
         result="comp-2"
         operator="in"
         in="flood-1"
         in2="SourceAlpha"
         id="feComposite58" />
      <feMerge
         result="merge-3"
         id="feMerge64">
        <feMergeNode
           in="SourceGraphic"
           id="feMergeNode60" />
        <feMergeNode
           in="comp-2"
           id="feMergeNode62" />
      </feMerge>
    </filter>
    <path
       d="M1.504 21L0 19.493 4.567 0h1.948l-.5 2.418s1.002-.502 3.006 0c2.006.503 3.008 2.01 6.517 2.01 3.508 0 4.463-.545 4.463-.545l-.823 9.892s-2.137 1.005-5.144.696c-3.007-.307-3.007-2.007-6.014-2.51-3.008-.502-4.512.503-4.512.503L1.504 21z"
       id="greenFlag"
       fill="#3f8d15" />
    <path
       d="M6.724 0C3.01 0 0 2.91 0 6.5c0 2.316 1.253 4.35 3.14 5.5H5.17v-1.256C3.364 10.126 2.07 8.46 2.07 6.5 2.07 4.015 4.152 2 6.723 2c1.14 0 2.184.396 2.993 1.053L8.31 4.13c-.45.344-.398.826.11 1.08L15 8.5 13.858.992c-.083-.547-.514-.714-.963-.37l-1.532 1.172A6.825 6.825 0 0 0 6.723 0z"
       id="turnRight"
       fill="#fff" />
    <path
       d="M3.637 1.794A6.825 6.825 0 0 1 8.277 0C11.99 0 15 2.91 15 6.5c0 2.316-1.253 4.35-3.14 5.5H9.83v-1.256c1.808-.618 3.103-2.285 3.103-4.244 0-2.485-2.083-4.5-4.654-4.5-1.14 0-2.184.396-2.993 1.053L6.69 4.13c.45.344.398.826-.11 1.08L0 8.5 1.142.992c.083-.547.514-.714.963-.37l1.532 1.172z"
       id="turnLeft"
       fill="#fff" />
    <path
       d="M0 0L4 4L0 8Z"
       id="addInput"
       fill="#111" />
    <path
       d="M4 0L4 8L0 4Z"
       id="delInput"
       fill="#111" />
    <g
       id="loopArrow">
      <path
         d="M8 0l2 -2l0 -3l3 0l-4 -5l-4 5l3 0l0 3l-8 0l0 2"
         id="path72"
         fill="#000"
         opacity="0.3" />
      <path
         d="M8 0l2 -2l0 -3l3 0l-4 -5l-4 5l3 0l0 3l-8 0l0 2"
         transform="translate(-1 -1)"
         id="path74"
         fill="#fff"
         opacity="0.9" />
    </g>
    <style
       id="style77"><![CDATA[.sb-label{font-family:Lucida Grande,Verdana,Arial,DejaVu Sans,sans-serif;font-weight:700;fill:#fff;font-size:10px;word-spacing:+1px}.sb-obsolete{fill:#d42828}.sb-motion{fill:#4a6cd4}.sb-looks{fill:#8a55d7}.sb-sound{fill:#bb42c3}.sb-pen{fill:#0e9a6c}.sb-events{fill:#c88330}.sb-control{fill:#e1a91a}.sb-sensing{fill:#2ca5e2}.sb-operators{fill:#5cb712}.sb-variables{fill:#ee7d16}.sb-list{fill:#cc5b22}.sb-custom{fill:#632d99}.sb-custom-arg{fill:#5947b1}.sb-extension{fill:#4b4a60}.sb-grey{fill:#969696}.sb-bevel{filter:url(#bevelFilter)}.sb-input{filter:url(#inputBevelFilter)}.sb-input-number,.sb-input-number-dropdown,.sb-input-string{fill:#fff}.sb-literal-dropdown,.sb-literal-number,.sb-literal-number-dropdown,.sb-literal-string{font-weight:400;font-size:9px;word-spacing:0}.sb-literal-number,.sb-literal-number-dropdown,.sb-literal-string{fill:#000}.sb-darker{filter:url(#inputDarkFilter)}.sb-outline{stroke:#fff;stroke-opacity:.2;stroke-width:2;fill:none}.sb-define-hat-cap{stroke:#632d99;stroke-width:1;fill:#8e2ec2}.sb-comment{fill:#ffffa5;stroke:#d0d1d2;stroke-width:1}.sb-comment-line{fill:#ffff80}.sb-comment-label{font-family:Helevetica,Arial,DejaVu Sans,sans-serif;font-weight:700;fill:#5c5d5f;word-spacing:0;font-size:12px}]]></style>
  </defs>
  <g
     id="g307">
    <g
       id="g233"
       transform="translate(0 0)">
      <g
         transform="translate(2 0)"
         id="g147">
        <path
           d="M 0 3 L 3 0 L 13 0 L 16 3 L 24 3 L 27 0 L 164 0 L 167 3 L 167 27 L 164 30 L 42 30 L 39 33 L 31 33 L 28 30 L 17 30 L 15 32 L 15 62 L 17 64 L 164 64 L 167 67 L 167 77 L 164 80 L 27 80 L 24 83 L 16 83 L 13 80 L 3 80 L 0 77"
           class="sb-control sb-bevel"
           id="path81" />
        <text
           x="0"
           y="10"
           class="sb-label "
           transform="translate(6 8)"
           id="text83">if</text>
        <g
           transform="translate(30 2)"
           id="g101">
          <path
             d="M 12.5 0 L 93.5 0 106 12.5 L 106 12.5 93.5 25 L 12.5 25 0 12.5 L 0 12.5 12.5 0 Z"
             class="sb-operators sb-bevel"
             id="path85" />
          <g
             transform="translate(9 2)"
             id="g91">
            <path
               d="M 10 0 L 48 0 A 10 10 0 0 1 48 20 L 10 20 A 10 10 0 0 1 10 0 Z"
               class="sb-motion sb-bevel"
               id="path87" />
            <text
               x="0"
               y="10"
               class="sb-label "
               transform="translate(8 4)"
               id="text89">direction</text>
          </g>
          <text
             x="0"
             y="10"
             class="sb-label "
             transform="translate(71 6)"
             id="text93">&lt;</text>
          <g
             transform="translate(81 5)"
             id="g99">
            <rect
               x="0"
               y="0"
               width="16"
               height="14"
               class="sb-input sb-input-string"
               id="rect95" />
            <text
               x="0"
               y="10"
               class="sb-label sb-literal-string"
               transform="translate(4 0)"
               id="text97">90</text>
          </g>
        </g>
        <text
           x="0"
           y="10"
           class="sb-label "
           transform="translate(140 8)"
           id="text103">then</text>
        <g
           transform="translate(15 30)"
           id="g145">
          <g
             id="g143"
             transform="translate(0 0)">
            <path
               d="M 0 3 L 3 0 L 13 0 L 16 3 L 24 3 L 27 0 L 212 0 L 215 3 L 215 31 L 212 34 L 27 34 L 24 37 L 16 37 L 13 34 L 3 34 L 0 31 Z"
               class="sb-motion sb-bevel"
               id="path105" />
            <text
               x="0"
               y="10"
               class="sb-label "
               transform="translate(6 11)"
               id="text107">change</text>
            <text
               x="0"
               y="10"
               class="sb-label "
               transform="translate(45 11)"
               id="text109">x</text>
            <text
               x="0"
               y="10"
               class="sb-label "
               transform="translate(55 11)"
               id="text111">by</text>
            <g
               transform="translate(71 3)"
               id="g141">
              <path
                 d="M 14 0 L 124 0 A 14 14 0 0 1 124 28 L 14 28 A 14 14 0 0 1 14 0 Z"
                 class="sb-operators sb-bevel"
                 id="path113" />
              <g
                 transform="translate(4 7)"
                 id="g119">
                <path
                   d="M 6.5 0 L 10.5 0 A 6.5 6.5 0 0 1 10.5 13 L 6.5 13 A 6.5 6.5 0 0 1 6.5 0 Z"
                   class="sb-input sb-input-number"
                   id="path115" />
                <text
                   x="0"
                   y="10"
                   class="sb-label sb-literal-number"
                   transform="translate(5 0)"
                   id="text117">-1</text>
              </g>
              <text
                 x="0"
                 y="10"
                 class="sb-label "
                 transform="translate(25 8)"
                 id="text121">*</text>
              <g
                 transform="translate(33 2)"
                 id="g139">
                <path
                   d="M 12 0 L 89 0 A 12 12 0 0 1 89 24 L 12 24 A 12 12 0 0 1 12 0 Z"
                   class="sb-operators sb-bevel"
                   id="path123" />
                <g
                   transform="translate(4 2)"
                   id="g129">
                  <path
                     d="M 10 0 L 48 0 A 10 10 0 0 1 48 20 L 10 20 A 10 10 0 0 1 10 0 Z"
                     class="sb-motion sb-bevel"
                     id="path125" />
                  <text
                     x="0"
                     y="10"
                     class="sb-label "
                     transform="translate(8 4)"
                     id="text127">direction</text>
                </g>
                <text
                   x="0"
                   y="10"
                   class="sb-label "
                   transform="translate(66 6)"
                   id="text131">/</text>
                <g
                   transform="translate(73 5)"
                   id="g137">
                  <path
                     d="M 6.5 0 L 17.5 0 A 6.5 6.5 0 0 1 17.5 13 L 6.5 13 A 6.5 6.5 0 0 1 6.5 0 Z"
                     class="sb-input sb-input-number"
                     id="path133" />
                  <text
                     x="0"
                     y="10"
                     class="sb-label sb-literal-number"
                     transform="translate(5 0)"
                     id="text135">100</text>
                </g>
              </g>
            </g>
          </g>
        </g>
      </g>
      <g
         transform="translate(2 80)"
         id="g203">
        <path
           d="M 0 3 L 3 0 L 13 0 L 16 3 L 24 3 L 27 0 L 164 0 L 167 3 L 167 27 L 164 30 L 42 30 L 39 33 L 31 33 L 28 30 L 17 30 L 15 32 L 15 58 L 17 60 L 164 60 L 167 63 L 167 73 L 164 76 L 27 76 L 24 79 L 16 79 L 13 76 L 3 76 L 0 73"
           class="sb-control sb-bevel"
           id="path149" />
        <text
           x="0"
           y="10"
           class="sb-label "
           transform="translate(6 8)"
           id="text151">if</text>
        <g
           transform="translate(30 2)"
           id="g169">
          <path
             d="M 12.5 0 L 93.5 0 106 12.5 L 106 12.5 93.5 25 L 12.5 25 0 12.5 L 0 12.5 12.5 0 Z"
             class="sb-operators sb-bevel"
             id="path153" />
          <g
             transform="translate(9 2)"
             id="g159">
            <path
               d="M 10 0 L 48 0 A 10 10 0 0 1 48 20 L 10 20 A 10 10 0 0 1 10 0 Z"
               class="sb-motion sb-bevel"
               id="path155" />
            <text
               x="0"
               y="10"
               class="sb-label "
               transform="translate(8 4)"
               id="text157">direction</text>
          </g>
          <text
             x="0"
             y="10"
             class="sb-label "
             transform="translate(71 6)"
             id="text161">&lt;</text>
          <g
             transform="translate(81 5)"
             id="g167">
            <rect
               x="0"
               y="0"
               width="16"
               height="14"
               class="sb-input sb-input-string"
               id="rect163" />
            <text
               x="0"
               y="10"
               class="sb-label sb-literal-string"
               transform="translate(4 0)"
               id="text165">90</text>
          </g>
        </g>
        <text
           x="0"
           y="10"
           class="sb-label "
           transform="translate(140 8)"
           id="text171">then</text>
        <g
           transform="translate(15 30)"
           id="g201">
          <g
             id="g199"
             transform="translate(0 0)">
            <path
               d="M 0 3 L 3 0 L 13 0 L 16 3 L 24 3 L 27 0 L 175 0 L 178 3 L 178 27 L 175 30 L 27 30 L 24 33 L 16 33 L 13 30 L 3 30 L 0 27 Z"
               class="sb-motion sb-bevel"
               id="path173" />
            <text
               x="0"
               y="10"
               class="sb-label "
               transform="translate(6 9)"
               id="text175">change</text>
            <text
               x="0"
               y="10"
               class="sb-label "
               transform="translate(45 9)"
               id="text177">x</text>
            <text
               x="0"
               y="10"
               class="sb-label "
               transform="translate(55 9)"
               id="text179">by</text>
            <g
               transform="translate(71 3)"
               id="g197">
              <path
                 d="M 12 0 L 89 0 A 12 12 0 0 1 89 24 L 12 24 A 12 12 0 0 1 12 0 Z"
                 class="sb-operators sb-bevel"
                 id="path181" />
              <g
                 transform="translate(4 2)"
                 id="g187">
                <path
                   d="M 10 0 L 48 0 A 10 10 0 0 1 48 20 L 10 20 A 10 10 0 0 1 10 0 Z"
                   class="sb-motion sb-bevel"
                   id="path183" />
                <text
                   x="0"
                   y="10"
                   class="sb-label "
                   transform="translate(8 4)"
                   id="text185">direction</text>
              </g>
              <text
                 x="0"
                 y="10"
                 class="sb-label "
                 transform="translate(66 6)"
                 id="text189">/</text>
              <g
                 transform="translate(73 5)"
                 id="g195">
                <path
                   d="M 6.5 0 L 17.5 0 A 6.5 6.5 0 0 1 17.5 13 L 6.5 13 A 6.5 6.5 0 0 1 6.5 0 Z"
                   class="sb-input sb-input-number"
                   id="path191" />
                <text
                   x="0"
                   y="10"
                   class="sb-label sb-literal-number"
                   transform="translate(5 0)"
                   id="text193">100</text>
              </g>
            </g>
          </g>
        </g>
      </g>
      <g
         transform="translate(2 156)"
         id="g219">
        <path
           d="M 0 3 L 3 0 L 13 0 L 16 3 L 24 3 L 27 0 L 91 0 L 94 3 L 94 19 L 91 22 L 27 22 L 24 25 L 16 25 L 13 22 L 3 22 L 0 19 Z"
           class="sb-motion sb-bevel"
           id="path205" />
        <text
           x="0"
           y="10"
           class="sb-label "
           transform="translate(6 5)"
           id="text207">change</text>
        <text
           x="0"
           y="10"
           class="sb-label "
           transform="translate(45 5)"
           id="text209">y</text>
        <text
           x="0"
           y="10"
           class="sb-label "
           transform="translate(55 5)"
           id="text211">by</text>
        <g
           transform="translate(71 4)"
           id="g217">
          <path
             d="M 6.5 0 L 10.5 0 A 6.5 6.5 0 0 1 10.5 13 L 6.5 13 A 6.5 6.5 0 0 1 6.5 0 Z"
             class="sb-input sb-input-number"
             id="path213" />
          <text
             x="0"
             y="10"
             class="sb-label sb-literal-number"
             transform="translate(5 0)"
             id="text215">-3</text>
        </g>
      </g>
      <g
         transform="translate(2 178)"
         id="g231">
        <path
           d="M 0 3 L 3 0 L 13 0 L 16 3 L 24 3 L 27 0 L 101 0 L 104 3 L 104 19 L 101 22 L 27 22 L 24 25 L 16 25 L 13 22 L 3 22 L 0 19 Z"
           class="sb-motion sb-bevel"
           id="path221" />
        <text
           x="0"
           y="10"
           class="sb-label "
           transform="translate(6 5)"
           id="text223">if</text>
        <text
           x="0"
           y="10"
           class="sb-label "
           transform="translate(16 5)"
           id="text225">on</text>
        <text
           x="0"
           y="10"
           class="sb-label "
           transform="translate(32 5)"
           id="text227">edge,</text>
        <text
           x="0"
           y="10"
           class="sb-label "
           transform="translate(62 5)"
           id="text229">bounce</text>
      </g>
    </g>
    <g
       transform="translate(0 213)"
       id="g305">
      <g
         transform="translate(2 0)"
         id="g303">
        <path
           d="M 0 3 L 3 0 L 13 0 L 16 3 L 24 3 L 27 0 L 179 0 L 182 3 L 182 27 L 179 30 L 42 30 L 39 33 L 31 33 L 28 30 L 17 30 L 15 32 L 15 72 L 17 74 L 179 74 L 182 77 L 182 87 L 179 90 L 27 90 L 24 93 L 16 93 L 13 90 L 3 90 L 0 87"
           class="sb-control sb-bevel"
           id="path235" />
        <text
           x="0"
           y="10"
           class="sb-label "
           transform="translate(6 8)"
           id="text237">if</text>
        <g
           transform="translate(30 2)"
           id="g257">
          <path
             d="M 12.5 0 L 108.5 0 121 12.5 L 121 12.5 108.5 25 L 12.5 25 0 12.5 L 0 12.5 12.5 0 Z"
             class="sb-operators sb-bevel"
             id="path239" />
          <g
             transform="translate(9 2)"
             id="g247">
            <path
               d="M 10 0 L 55 0 A 10 10 0 0 1 55 20 L 10 20 A 10 10 0 0 1 10 0 Z"
               class="sb-motion sb-bevel"
               id="path241" />
            <text
               x="0"
               y="10"
               class="sb-label "
               transform="translate(8 4)"
               id="text243">y</text>
            <text
               x="0"
               y="10"
               class="sb-label "
               transform="translate(18 4)"
               id="text245">position</text>
          </g>
          <text
             x="0"
             y="10"
             class="sb-label "
             transform="translate(78 6)"
             id="text249">&lt;</text>
          <g
             transform="translate(88 5)"
             id="g255">
            <rect
               x="0"
               y="0"
               width="24"
               height="14"
               class="sb-input sb-input-string"
               id="rect251" />
            <text
               x="0"
               y="10"
               class="sb-label sb-literal-string"
               transform="translate(4 0)"
               id="text253">-150</text>
          </g>
        </g>
        <text
           x="0"
           y="10"
           class="sb-label "
           transform="translate(155 8)"
           id="text259">then</text>
        <g
           transform="translate(15 30)"
           id="g301">
          <g
             id="g275"
             transform="translate(0 0)">
            <path
               d="M 0 3 L 3 0 L 13 0 L 16 3 L 24 3 L 27 0 L 77 0 L 80 3 L 80 19 L 77 22 L 27 22 L 24 25 L 16 25 L 13 22 L 3 22 L 0 19 Z"
               class="sb-motion sb-bevel"
               id="path261" />
            <text
               x="0"
               y="10"
               class="sb-label "
               transform="translate(6 5)"
               id="text263">set</text>
            <text
               x="0"
               y="10"
               class="sb-label "
               transform="translate(24 5)"
               id="text265">y</text>
            <text
               x="0"
               y="10"
               class="sb-label "
               transform="translate(34 5)"
               id="text267">to</text>
            <g
               transform="translate(47 4)"
               id="g273">
              <path
                 d="M 6.5 0 L 20.5 0 A 6.5 6.5 0 0 1 20.5 13 L 6.5 13 A 6.5 6.5 0 0 1 6.5 0 Z"
                 class="sb-input sb-input-number"
                 id="path269" />
              <text
                 x="0"
                 y="10"
                 class="sb-label sb-literal-number"
                 transform="translate(5 0)"
                 id="text271">-120</text>
            </g>
          </g>
          <g
             transform="translate(0 22)"
             id="g299">
            <path
               d="M 0 3 L 3 0 L 13 0 L 16 3 L 24 3 L 27 0 L 128 0 L 131 3 L 131 19 L 128 22 L 27 22 L 24 25 L 16 25 L 13 22 L 3 22 L 0 19 Z"
               class="sb-variables sb-bevel"
               id="path277" />
            <text
               x="0"
               y="10"
               class="sb-label "
               transform="translate(6 5)"
               id="text279">change</text>
            <g
               transform="translate(45 4)"
               id="g289">
              <g
                 width="43"
                 height="14"
                 class="sb-input sb-input-dropdown"
                 id="g283">
                <rect
                   x="0"
                   y="0"
                   width="43"
                   height="14"
                   class="sb-variables sb-darker"
                   id="rect281" />
              </g>
              <text
                 x="0"
                 y="10"
                 class="sb-label sb-literal-dropdown"
                 transform="translate(4 0)"
                 id="text285">points</text>
              <polygon
                 points="7 0 3.5 4 0 0"
                 transform="translate(33 5)"
                 id="polygon287"
                 fill="#000"
                 opacity="0.6" />
            </g>
            <text
               x="0"
               y="10"
               class="sb-label "
               transform="translate(92 5)"
               id="text291">by</text>
            <g
               transform="translate(108 4)"
               id="g297">
              <path
                 d="M 6.5 0 L 10.5 0 A 6.5 6.5 0 0 1 10.5 13 L 6.5 13 A 6.5 6.5 0 0 1 6.5 0 Z"
                 class="sb-input sb-input-number"
                 id="path293" />
              <text
                 x="0"
                 y="10"
                 class="sb-label sb-literal-number"
                 transform="translate(5 0)"
                 id="text295">-1</text>
            </g>
          </g>
        </g>
      </g>
    </g>
  </g>
</svg>
