<svg xmlns="http://www.w3.org/2000/svg" version="1.1" width="235" height="268"><defs><filter id="bevelFilter" x0="-50%" y0="-50%" width="200%" height="200%"><feGaussianBlur result="blur-1" in="SourceAlpha" stdDeviation="1 1"/><feFlood result="flood-2" in="undefined" flood-color="#fff" flood-opacity="0.15"/><feOffset result="offset-3" in="blur-1" dx="1" dy="1"/><feComposite result="comp-4" operator="arithmetic" in="SourceAlpha" in2="offset-3" k2="1" k3="-1"/><feComposite result="comp-5" operator="in" in="flood-2" in2="comp-4"/><feFlood result="flood-6" in="undefined" flood-color="#000" flood-opacity="0.7"/><feOffset result="offset-7" in="blur-1" dx="-1" dy="-1"/><feComposite result="comp-8" operator="arithmetic" in="SourceAlpha" in2="offset-7" k2="1" k3="-1"/><feComposite result="comp-9" operator="in" in="flood-6" in2="comp-8"/><feMerge result="merge-10"><feMergeNode in="SourceGraphic"/><feMergeNode in="comp-5"/><feMergeNode in="comp-9"/></feMerge></filter><filter id="inputBevelFilter" x0="-50%" y0="-50%" width="200%" height="200%"><feGaussianBlur result="blur-1" in="SourceAlpha" stdDeviation="1 1"/><feFlood result="flood-2" in="undefined" flood-color="#fff" flood-opacity="0.15"/><feOffset result="offset-3" in="blur-1" dx="-1" dy="-1"/><feComposite result="comp-4" operator="arithmetic" in="SourceAlpha" in2="offset-3" k2="1" k3="-1"/><feComposite result="comp-5" operator="in" in="flood-2" in2="comp-4"/><feFlood result="flood-6" in="undefined" flood-color="#000" flood-opacity="0.7"/><feOffset result="offset-7" in="blur-1" dx="1" dy="1"/><feComposite result="comp-8" operator="arithmetic" in="SourceAlpha" in2="offset-7" k2="1" k3="-1"/><feComposite result="comp-9" operator="in" in="flood-6" in2="comp-8"/><feMerge result="merge-10"><feMergeNode in="SourceGraphic"/><feMergeNode in="comp-5"/><feMergeNode in="comp-9"/></feMerge></filter><filter id="inputDarkFilter" x0="-50%" y0="-50%" width="200%" height="200%"><feFlood result="flood-1" in="undefined" flood-color="#000" flood-opacity="0.2"/><feComposite result="comp-2" operator="in" in="flood-1" in2="SourceAlpha"/><feMerge result="merge-3"><feMergeNode in="SourceGraphic"/><feMergeNode in="comp-2"/></feMerge></filter><path d="M1.504 21L0 19.493 4.567 0h1.948l-.5 2.418s1.002-.502 3.006 0c2.006.503 3.008 2.01 6.517 2.01 3.508 0 4.463-.545 4.463-.545l-.823 9.892s-2.137 1.005-5.144.696c-3.007-.307-3.007-2.007-6.014-2.51-3.008-.502-4.512.503-4.512.503L1.504 21z" fill="#3f8d15" id="greenFlag"/><path d="M6.724 0C3.01 0 0 2.91 0 6.5c0 2.316 1.253 4.35 3.14 5.5H5.17v-1.256C3.364 10.126 2.07 8.46 2.07 6.5 2.07 4.015 4.152 2 6.723 2c1.14 0 2.184.396 2.993 1.053L8.31 4.13c-.45.344-.398.826.11 1.08L15 8.5 13.858.992c-.083-.547-.514-.714-.963-.37l-1.532 1.172A6.825 6.825 0 0 0 6.723 0z" fill="#fff" id="turnRight"/><path d="M3.637 1.794A6.825 6.825 0 0 1 8.277 0C11.99 0 15 2.91 15 6.5c0 2.316-1.253 4.35-3.14 5.5H9.83v-1.256c1.808-.618 3.103-2.285 3.103-4.244 0-2.485-2.083-4.5-4.654-4.5-1.14 0-2.184.396-2.993 1.053L6.69 4.13c.45.344.398.826-.11 1.08L0 8.5 1.142.992c.083-.547.514-.714.963-.37l1.532 1.172z" fill="#fff" id="turnLeft"/><path d="M0 0L4 4L0 8Z" fill="#111" id="addInput"/><path d="M4 0L4 8L0 4Z" fill="#111" id="delInput"/><g id="loopArrow"><path d="M8 0l2 -2l0 -3l3 0l-4 -5l-4 5l3 0l0 3l-8 0l0 2" fill="#000" opacity="0.3"/><path d="M8 0l2 -2l0 -3l3 0l-4 -5l-4 5l3 0l0 3l-8 0l0 2" fill="#fff" opacity="0.9" transform="translate(-1 -1)"/></g><style><![CDATA[.sb-label{font-family:Lucida Grande,Verdana,Arial,DejaVu Sans,sans-serif;font-weight:700;fill:#fff;font-size:10px;word-spacing:+1px}.sb-obsolete{fill:#d42828}.sb-motion{fill:#4a6cd4}.sb-looks{fill:#8a55d7}.sb-sound{fill:#bb42c3}.sb-pen{fill:#0e9a6c}.sb-events{fill:#c88330}.sb-control{fill:#e1a91a}.sb-sensing{fill:#2ca5e2}.sb-operators{fill:#5cb712}.sb-variables{fill:#ee7d16}.sb-list{fill:#cc5b22}.sb-custom{fill:#632d99}.sb-custom-arg{fill:#5947b1}.sb-extension{fill:#4b4a60}.sb-grey{fill:#969696}.sb-bevel{filter:url(#bevelFilter)}.sb-input{filter:url(#inputBevelFilter)}.sb-input-number,.sb-input-number-dropdown,.sb-input-string{fill:#fff}.sb-literal-dropdown,.sb-literal-number,.sb-literal-number-dropdown,.sb-literal-string{font-weight:400;font-size:9px;word-spacing:0}.sb-literal-number,.sb-literal-number-dropdown,.sb-literal-string{fill:#000}.sb-darker{filter:url(#inputDarkFilter)}.sb-outline{stroke:#fff;stroke-opacity:.2;stroke-width:2;fill:none}.sb-define-hat-cap{stroke:#632d99;stroke-width:1;fill:#8e2ec2}.sb-comment{fill:#ffffa5;stroke:#d0d1d2;stroke-width:1}.sb-comment-line{fill:#ffff80}.sb-comment-label{font-family:Helevetica,Arial,DejaVu Sans,sans-serif;font-weight:700;fill:#5c5d5f;word-spacing:0;font-size:12px}]]></style></defs><g><g transform="translate(0 0)"><g transform="translate(2 0)"><path d="M 0 12 L 0 12 A 80 80 0 0 1 80 10 L 114 10 L 117 13 L 117 30 L 114 33 L 27 33 L 24 36 L 16 36 L 13 33 L 3 33 L 0 30 Z" class="sb-events sb-bevel"/><text x="0" y="10" class="sb-label " transform="translate(6 16)">When</text><text x="0" y="10" class="sb-label " transform="translate(37 16)">I</text><text x="0" y="10" class="sb-label " transform="translate(44 16)">receive</text><g transform="translate(82 15)"><g width="29" height="14" class="sb-input sb-input-dropdown"><rect x="0" y="0" width="29" height="14" class="sb-events sb-darker"/></g><text x="0" y="10" class="sb-label sb-literal-dropdown" transform="translate(4 0)">hit</text><polygon points="7 0 3.5 4 0 0" fill="#000" opacity="0.6" transform="translate(19 5)"/></g></g><g transform="translate(2 33)"><path d="M 0 3 L 3 0 L 13 0 L 16 3 L 24 3 L 27 0 L 125 0 L 128 3 L 128 19 L 125 22 L 27 22 L 24 25 L 16 25 L 13 22 L 3 22 L 0 19 Z" class="sb-variables sb-bevel"/><text x="0" y="10" class="sb-label " transform="translate(6 5)">change</text><g transform="translate(45 4)"><g width="43" height="14" class="sb-input sb-input-dropdown"><rect x="0" y="0" width="43" height="14" class="sb-variables sb-darker"/></g><text x="0" y="10" class="sb-label sb-literal-dropdown" transform="translate(4 0)">points</text><polygon points="7 0 3.5 4 0 0" fill="#000" opacity="0.6" transform="translate(33 5)"/></g><text x="0" y="10" class="sb-label " transform="translate(92 5)">by</text><g transform="translate(108 4)"><path d="M 6.5 0 L 7.5 0 A 6.5 6.5 0 0 1 7.5 13 L 6.5 13 A 6.5 6.5 0 0 1 6.5 0 Z" class="sb-input sb-input-number"/><text x="0" y="10" class="sb-label sb-literal-number" transform="translate(5 0)">1</text></g></g><g transform="translate(2 55)"><path d="M 0 3 L 3 0 L 13 0 L 16 3 L 24 3 L 27 0 L 228 0 L 231 3 L 231 23 L 228 26 L 27 26 L 24 29 L 16 29 L 13 26 L 3 26 L 0 23 Z" class="sb-motion sb-bevel"/><text x="0" y="10" class="sb-label " transform="translate(6 7)">point</text><text x="0" y="10" class="sb-label " transform="translate(34 7)">in</text><text x="0" y="10" class="sb-label " transform="translate(47 7)">direction</text><g transform="translate(93 3)"><path d="M 10 0 L 122 0 A 10 10 0 0 1 122 20 L 10 20 A 10 10 0 0 1 10 0 Z" class="sb-operators sb-bevel"/><text x="0" y="10" class="sb-label " transform="translate(8 4)">pick</text><text x="0" y="10" class="sb-label " transform="translate(32 4)">random</text><g transform="translate(73 3)"><path d="M 6.5 0 L 7.5 0 A 6.5 6.5 0 0 1 7.5 13 L 6.5 13 A 6.5 6.5 0 0 1 6.5 0 Z" class="sb-input sb-input-number"/><text x="0" y="10" class="sb-label sb-literal-number" transform="translate(5 0)">1</text></g><text x="0" y="10" class="sb-label " transform="translate(91 4)">to</text><g transform="translate(104 3)"><path d="M 6.5 0 L 17.5 0 A 6.5 6.5 0 0 1 17.5 13 L 6.5 13 A 6.5 6.5 0 0 1 6.5 0 Z" class="sb-input sb-input-number"/><text x="0" y="10" class="sb-label sb-literal-number" transform="translate(5 0)">360</text></g></g></g><g transform="translate(2 81)"><path d="M 0 3 L 3 0 L 13 0 L 16 3 L 24 3 L 27 0 L 161 0 L 164 3 L 164 27 L 161 30 L 27 30 L 24 33 L 16 33 L 13 30 L 3 30 L 0 27 Z" class="sb-motion sb-bevel"/><text x="0" y="10" class="sb-label " transform="translate(6 9)">set</text><text x="0" y="10" class="sb-label " transform="translate(24 9)">y</text><text x="0" y="10" class="sb-label " transform="translate(34 9)">to</text><g transform="translate(47 3)"><path d="M 12 0 L 99 0 A 12 12 0 0 1 99 24 L 12 24 A 12 12 0 0 1 12 0 Z" class="sb-operators sb-bevel"/><g transform="translate(4 2)"><path d="M 10 0 L 55 0 A 10 10 0 0 1 55 20 L 10 20 A 10 10 0 0 1 10 0 Z" class="sb-motion sb-bevel"/><text x="0" y="10" class="sb-label " transform="translate(8 4)">y</text><text x="0" y="10" class="sb-label " transform="translate(18 4)">position</text></g><text x="0" y="10" class="sb-label " transform="translate(73 6)">+</text><g transform="translate(83 5)"><path d="M 6.5 0 L 17.5 0 A 6.5 6.5 0 0 1 17.5 13 L 6.5 13 A 6.5 6.5 0 0 1 6.5 0 Z" class="sb-input sb-input-number"/><text x="0" y="10" class="sb-label sb-literal-number" transform="translate(5 0)">100</text></g></g></g><g transform="translate(2 111)"><path d="M 0 3 L 3 0 L 13 0 L 16 3 L 24 3 L 27 0 L 209 0 L 212 3 L 212 23 L 209 26 L 27 26 L 24 29 L 16 29 L 13 26 L 3 26 L 0 23 Z" class="sb-motion sb-bevel"/><text x="0" y="10" class="sb-label " transform="translate(6 7)">change</text><text x="0" y="10" class="sb-label " transform="translate(45 7)">x</text><text x="0" y="10" class="sb-label " transform="translate(55 7)">by</text><g transform="translate(71 3)"><path d="M 10 0 L 125 0 A 10 10 0 0 1 125 20 L 10 20 A 10 10 0 0 1 10 0 Z" class="sb-operators sb-bevel"/><text x="0" y="10" class="sb-label " transform="translate(8 4)">pick</text><text x="0" y="10" class="sb-label " transform="translate(32 4)">random</text><g transform="translate(73 3)"><path d="M 6.5 0 L 15.5 0 A 6.5 6.5 0 0 1 15.5 13 L 6.5 13 A 6.5 6.5 0 0 1 6.5 0 Z" class="sb-input sb-input-number"/><text x="0" y="10" class="sb-label sb-literal-number" transform="translate(5 0)">-50</text></g><text x="0" y="10" class="sb-label " transform="translate(99 4)">to</text><g transform="translate(112 3)"><path d="M 6.5 0 L 12.5 0 A 6.5 6.5 0 0 1 12.5 13 L 6.5 13 A 6.5 6.5 0 0 1 6.5 0 Z" class="sb-input sb-input-number"/><text x="0" y="10" class="sb-label sb-literal-number" transform="translate(5 0)">50</text></g></g></g><g transform="translate(2 137)"><path d="M 0 3 L 3 0 L 13 0 L 16 3 L 24 3 L 27 0 L 166 0 L 169 3 L 169 27 L 166 30 L 42 30 L 39 33 L 31 33 L 28 30 L 17 30 L 15 32 L 15 62 L 17 64 L 166 64 L 169 67 L 169 79 L 166 82 L 42 82 L 39 85 L 31 85 L 28 82 L 17 82 L 15 84 L 15 110 L 17 112 L 166 112 L 169 115 L 169 125 L 166 128 L 27 128 L 24 131 L 16 131 L 13 128 L 3 128 L 0 125" class="sb-control sb-bevel"/><text x="0" y="10" class="sb-label " transform="translate(6 8)">if</text><g transform="translate(30 2)"><path d="M 12.5 0 L 95.5 0 108 12.5 L 108 12.5 95.5 25 L 12.5 25 0 12.5 L 0 12.5 12.5 0 Z" class="sb-operators sb-bevel"/><g transform="translate(9 2)"><path d="M 10 0 L 48 0 A 10 10 0 0 1 48 20 L 10 20 A 10 10 0 0 1 10 0 Z" class="sb-motion sb-bevel"/><text x="0" y="10" class="sb-label " transform="translate(8 4)">direction</text></g><text x="0" y="10" class="sb-label " transform="translate(71 6)">&lt;</text><g transform="translate(81 5)"><path d="M 6.5 0 L 12.5 0 A 6.5 6.5 0 0 1 12.5 13 L 6.5 13 A 6.5 6.5 0 0 1 6.5 0 Z" class="sb-input sb-input-number"/><text x="0" y="10" class="sb-label sb-literal-number" transform="translate(5 0)">90</text></g></g><text x="0" y="10" class="sb-label " transform="translate(142 8)">then</text><g transform="translate(15 30)"><g transform="translate(0 0)"><path d="M 0 3 L 3 0 L 13 0 L 16 3 L 24 3 L 27 0 L 207 0 L 210 3 L 210 31 L 207 34 L 27 34 L 24 37 L 16 37 L 13 34 L 3 34 L 0 31 Z" class="sb-motion sb-bevel"/><text x="0" y="10" class="sb-label " transform="translate(6 11)">change</text><text x="0" y="10" class="sb-label " transform="translate(45 11)">x</text><text x="0" y="10" class="sb-label " transform="translate(55 11)">by</text><g transform="translate(71 3)"><path d="M 14 0 L 119 0 A 14 14 0 0 1 119 28 L 14 28 A 14 14 0 0 1 14 0 Z" class="sb-operators sb-bevel"/><g transform="translate(4 7)"><path d="M 6.5 0 L 10.5 0 A 6.5 6.5 0 0 1 10.5 13 L 6.5 13 A 6.5 6.5 0 0 1 6.5 0 Z" class="sb-input sb-input-number"/><text x="0" y="10" class="sb-label sb-literal-number" transform="translate(5 0)">-1</text></g><text x="0" y="10" class="sb-label " transform="translate(25 8)">*</text><g transform="translate(33 2)"><path d="M 12 0 L 84 0 A 12 12 0 0 1 84 24 L 12 24 A 12 12 0 0 1 12 0 Z" class="sb-operators sb-bevel"/><g transform="translate(4 2)"><path d="M 10 0 L 48 0 A 10 10 0 0 1 48 20 L 10 20 A 10 10 0 0 1 10 0 Z" class="sb-motion sb-bevel"/><text x="0" y="10" class="sb-label " transform="translate(8 4)">direction</text></g><text x="0" y="10" class="sb-label " transform="translate(66 6)">/</text><g transform="translate(73 5)"><path d="M 6.5 0 L 12.5 0 A 6.5 6.5 0 0 1 12.5 13 L 6.5 13 A 6.5 6.5 0 0 1 6.5 0 Z" class="sb-input sb-input-number"/><text x="0" y="10" class="sb-label sb-literal-number" transform="translate(5 0)">90</text></g></g></g></g></g><text x="0" y="10" class="sb-label " transform="translate(6 67)">else</text><g transform="translate(15 82)"><g transform="translate(0 0)"><path d="M 0 3 L 3 0 L 13 0 L 16 3 L 24 3 L 27 0 L 170 0 L 173 3 L 173 27 L 170 30 L 27 30 L 24 33 L 16 33 L 13 30 L 3 30 L 0 27 Z" class="sb-motion sb-bevel"/><text x="0" y="10" class="sb-label " transform="translate(6 9)">change</text><text x="0" y="10" class="sb-label " transform="translate(45 9)">x</text><text x="0" y="10" class="sb-label " transform="translate(55 9)">by</text><g transform="translate(71 3)"><path d="M 12 0 L 84 0 A 12 12 0 0 1 84 24 L 12 24 A 12 12 0 0 1 12 0 Z" class="sb-operators sb-bevel"/><g transform="translate(4 2)"><path d="M 10 0 L 48 0 A 10 10 0 0 1 48 20 L 10 20 A 10 10 0 0 1 10 0 Z" class="sb-motion sb-bevel"/><text x="0" y="10" class="sb-label " transform="translate(8 4)">direction</text></g><text x="0" y="10" class="sb-label " transform="translate(66 6)">/</text><g transform="translate(73 5)"><path d="M 6.5 0 L 12.5 0 A 6.5 6.5 0 0 1 12.5 13 L 6.5 13 A 6.5 6.5 0 0 1 6.5 0 Z" class="sb-input sb-input-number"/><text x="0" y="10" class="sb-label sb-literal-number" transform="translate(5 0)">90</text></g></g></g></g></g></g></g></svg>