<?xml version="1.0" encoding="UTF-8" standalone="no"?>
<svg
   xmlns:dc="http://purl.org/dc/elements/1.1/"
   xmlns:cc="http://creativecommons.org/ns#"
   xmlns:rdf="http://www.w3.org/1999/02/22-rdf-syntax-ns#"
   xmlns:svg="http://www.w3.org/2000/svg"
   xmlns="http://www.w3.org/2000/svg"
   xmlns:xlink="http://www.w3.org/1999/xlink"
   xmlns:sodipodi="http://sodipodi.sourceforge.net/DTD/sodipodi-0.dtd"
   xmlns:inkscape="http://www.inkscape.org/namespaces/inkscape"
   version="1.1"
   width="371"
   height="133"
   id="svg195"
   sodipodi:docname="lightning-init-en.svg"
   inkscape:export-filename="/home/ale/src/dojo-resources/cards-games/dose/images/lightning-init-en.png"
   inkscape:export-xdpi="300"
   inkscape:export-ydpi="300"
   inkscape:version="0.92.2 (5c3e80d, 2017-08-06)">
  <metadata
     id="metadata199">
    <rdf:RDF>
      <cc:Work
         rdf:about="">
        <dc:format>image/svg+xml</dc:format>
        <dc:type
           rdf:resource="http://purl.org/dc/dcmitype/StillImage" />
      </cc:Work>
    </rdf:RDF>
  </metadata>
  <sodipodi:namedview
     pagecolor="#ffffff"
     bordercolor="#666666"
     borderopacity="1"
     objecttolerance="10"
     gridtolerance="10"
     guidetolerance="10"
     inkscape:pageopacity="0"
     inkscape:pageshadow="2"
     inkscape:window-width="2238"
     inkscape:window-height="1776"
     id="namedview197"
     showgrid="false"
     inkscape:zoom="2.6253543"
     inkscape:cx="107.0344"
     inkscape:cy="66.5"
     inkscape:window-x="0"
     inkscape:window-y="22"
     inkscape:window-maximized="0"
     inkscape:current-layer="svg195" />
  <defs
     id="defs79">
    <filter
       id="bevelFilter"
       x0="-50%"
       y0="-50%"
       width="200%"
       height="200%">
      <feGaussianBlur
         result="blur-1"
         in="SourceAlpha"
         stdDeviation="1 1"
         id="feGaussianBlur2" />
      <feFlood
         result="flood-2"
         in="undefined"
         flood-color="#fff"
         flood-opacity="0.15"
         id="feFlood4" />
      <feOffset
         result="offset-3"
         in="blur-1"
         dx="1"
         dy="1"
         id="feOffset6" />
      <feComposite
         result="comp-4"
         operator="arithmetic"
         in="SourceAlpha"
         in2="offset-3"
         k2="1"
         k3="-1"
         id="feComposite8" />
      <feComposite
         result="comp-5"
         operator="in"
         in="flood-2"
         in2="comp-4"
         id="feComposite10" />
      <feFlood
         result="flood-6"
         in="undefined"
         flood-color="#000"
         flood-opacity="0.7"
         id="feFlood12" />
      <feOffset
         result="offset-7"
         in="blur-1"
         dx="-1"
         dy="-1"
         id="feOffset14" />
      <feComposite
         result="comp-8"
         operator="arithmetic"
         in="SourceAlpha"
         in2="offset-7"
         k2="1"
         k3="-1"
         id="feComposite16" />
      <feComposite
         result="comp-9"
         operator="in"
         in="flood-6"
         in2="comp-8"
         id="feComposite18" />
      <feMerge
         result="merge-10"
         id="feMerge26">
        <feMergeNode
           in="SourceGraphic"
           id="feMergeNode20" />
        <feMergeNode
           in="comp-5"
           id="feMergeNode22" />
        <feMergeNode
           in="comp-9"
           id="feMergeNode24" />
      </feMerge>
    </filter>
    <filter
       id="inputBevelFilter"
       x0="-50%"
       y0="-50%"
       width="200%"
       height="200%">
      <feGaussianBlur
         result="blur-1"
         in="SourceAlpha"
         stdDeviation="1 1"
         id="feGaussianBlur29" />
      <feFlood
         result="flood-2"
         in="undefined"
         flood-color="#fff"
         flood-opacity="0.15"
         id="feFlood31" />
      <feOffset
         result="offset-3"
         in="blur-1"
         dx="-1"
         dy="-1"
         id="feOffset33" />
      <feComposite
         result="comp-4"
         operator="arithmetic"
         in="SourceAlpha"
         in2="offset-3"
         k2="1"
         k3="-1"
         id="feComposite35" />
      <feComposite
         result="comp-5"
         operator="in"
         in="flood-2"
         in2="comp-4"
         id="feComposite37" />
      <feFlood
         result="flood-6"
         in="undefined"
         flood-color="#000"
         flood-opacity="0.7"
         id="feFlood39" />
      <feOffset
         result="offset-7"
         in="blur-1"
         dx="1"
         dy="1"
         id="feOffset41" />
      <feComposite
         result="comp-8"
         operator="arithmetic"
         in="SourceAlpha"
         in2="offset-7"
         k2="1"
         k3="-1"
         id="feComposite43" />
      <feComposite
         result="comp-9"
         operator="in"
         in="flood-6"
         in2="comp-8"
         id="feComposite45" />
      <feMerge
         result="merge-10"
         id="feMerge53">
        <feMergeNode
           in="SourceGraphic"
           id="feMergeNode47" />
        <feMergeNode
           in="comp-5"
           id="feMergeNode49" />
        <feMergeNode
           in="comp-9"
           id="feMergeNode51" />
      </feMerge>
    </filter>
    <filter
       id="inputDarkFilter"
       x0="-50%"
       y0="-50%"
       width="200%"
       height="200%">
      <feFlood
         result="flood-1"
         in="undefined"
         flood-color="#000"
         flood-opacity="0.2"
         id="feFlood56" />
      <feComposite
         result="comp-2"
         operator="in"
         in="flood-1"
         in2="SourceAlpha"
         id="feComposite58" />
      <feMerge
         result="merge-3"
         id="feMerge64">
        <feMergeNode
           in="SourceGraphic"
           id="feMergeNode60" />
        <feMergeNode
           in="comp-2"
           id="feMergeNode62" />
      </feMerge>
    </filter>
    <path
       d="M1.504 21L0 19.493 4.567 0h1.948l-.5 2.418s1.002-.502 3.006 0c2.006.503 3.008 2.01 6.517 2.01 3.508 0 4.463-.545 4.463-.545l-.823 9.892s-2.137 1.005-5.144.696c-3.007-.307-3.007-2.007-6.014-2.51-3.008-.502-4.512.503-4.512.503L1.504 21z"
       fill="#3f8d15"
       id="greenFlag" />
    <path
       d="M6.724 0C3.01 0 0 2.91 0 6.5c0 2.316 1.253 4.35 3.14 5.5H5.17v-1.256C3.364 10.126 2.07 8.46 2.07 6.5 2.07 4.015 4.152 2 6.723 2c1.14 0 2.184.396 2.993 1.053L8.31 4.13c-.45.344-.398.826.11 1.08L15 8.5 13.858.992c-.083-.547-.514-.714-.963-.37l-1.532 1.172A6.825 6.825 0 0 0 6.723 0z"
       fill="#fff"
       id="turnRight" />
    <path
       d="M3.637 1.794A6.825 6.825 0 0 1 8.277 0C11.99 0 15 2.91 15 6.5c0 2.316-1.253 4.35-3.14 5.5H9.83v-1.256c1.808-.618 3.103-2.285 3.103-4.244 0-2.485-2.083-4.5-4.654-4.5-1.14 0-2.184.396-2.993 1.053L6.69 4.13c.45.344.398.826-.11 1.08L0 8.5 1.142.992c.083-.547.514-.714.963-.37l1.532 1.172z"
       fill="#fff"
       id="turnLeft" />
    <path
       d="M0 0L4 4L0 8Z"
       fill="#111"
       id="addInput" />
    <path
       d="M4 0L4 8L0 4Z"
       fill="#111"
       id="delInput" />
    <g
       id="loopArrow">
      <path
         d="M8 0l2 -2l0 -3l3 0l-4 -5l-4 5l3 0l0 3l-8 0l0 2"
         fill="#000"
         opacity="0.3"
         id="path72" />
      <path
         d="M8 0l2 -2l0 -3l3 0l-4 -5l-4 5l3 0l0 3l-8 0l0 2"
         fill="#fff"
         opacity="0.9"
         transform="translate(-1 -1)"
         id="path74" />
    </g>
    <style
       id="style77"><![CDATA[.sb-label{font-family:Lucida Grande,Verdana,Arial,DejaVu Sans,sans-serif;font-weight:700;fill:#fff;font-size:10px;word-spacing:+1px}.sb-obsolete{fill:#d42828}.sb-motion{fill:#4a6cd4}.sb-looks{fill:#8a55d7}.sb-sound{fill:#bb42c3}.sb-pen{fill:#0e9a6c}.sb-events{fill:#c88330}.sb-control{fill:#e1a91a}.sb-sensing{fill:#2ca5e2}.sb-operators{fill:#5cb712}.sb-variables{fill:#ee7d16}.sb-list{fill:#cc5b22}.sb-custom{fill:#632d99}.sb-custom-arg{fill:#5947b1}.sb-extension{fill:#4b4a60}.sb-grey{fill:#969696}.sb-bevel{filter:url(#bevelFilter)}.sb-input{filter:url(#inputBevelFilter)}.sb-input-number,.sb-input-number-dropdown,.sb-input-string{fill:#fff}.sb-literal-dropdown,.sb-literal-number,.sb-literal-number-dropdown,.sb-literal-string{font-weight:400;font-size:9px;word-spacing:0}.sb-literal-number,.sb-literal-number-dropdown,.sb-literal-string{fill:#000}.sb-darker{filter:url(#inputDarkFilter)}.sb-outline{stroke:#fff;stroke-opacity:.2;stroke-width:2;fill:none}.sb-define-hat-cap{stroke:#632d99;stroke-width:1;fill:#8e2ec2}.sb-comment{fill:#ffffa5;stroke:#d0d1d2;stroke-width:1}.sb-comment-line{fill:#ffff80}.sb-comment-label{font-family:Helevetica,Arial,DejaVu Sans,sans-serif;font-weight:700;fill:#5c5d5f;word-spacing:0;font-size:12px}]]></style>
  </defs>
  <g
     id="g193">
    <g
       transform="translate(0 0)"
       id="g191">
      <g
         transform="translate(2 0)"
         id="g89">
        <path
           d="M 0 12 L 0 12 A 80 80 0 0 1 80 10 L 113 10 L 116 13 L 116 35 L 113 38 L 27 38 L 24 41 L 16 41 L 13 38 L 3 38 L 0 35 Z"
           class="sb-events sb-bevel"
           id="path81" />
        <text
           x="0"
           y="10"
           class="sb-label "
           transform="translate(6 18)"
           id="text83">Wenn</text>
        <use
           xlink:href="#greenFlag"
           transform="translate(37 12)"
           id="use85" />
        <text
           x="0"
           y="10"
           class="sb-label "
           transform="translate(61 18)"
           id="text87">angeklickt</text>
      </g>
      <g
         transform="translate(2 38)"
         id="g107">
        <path
           d="M 0 3 L 3 0 L 13 0 L 16 3 L 24 3 L 27 0 L 122 0 L 125 3 L 125 19 L 122 22 L 27 22 L 24 25 L 16 25 L 13 22 L 3 22 L 0 19 Z"
           class="sb-looks sb-bevel"
           id="path91" />
        <text
           x="0"
           y="10"
           class="sb-label "
           transform="translate(6 5)"
           id="text93">setze</text>
        <text
           x="0"
           y="10"
           class="sb-label "
           transform="translate(35 5)"
           id="text95">Größe</text>
        <text
           x="0"
           y="10"
           class="sb-label "
           transform="translate(68 5)"
           id="text97">auf</text>
        <g
           transform="translate(87 4)"
           id="g103">
          <path
             d="M 6.5 0 L 12.5 0 A 6.5 6.5 0 0 1 12.5 13 L 6.5 13 A 6.5 6.5 0 0 1 6.5 0 Z"
             class="sb-input sb-input-number"
             id="path99" />
          <text
             x="0"
             y="10"
             class="sb-label sb-literal-number"
             transform="translate(5 0)"
             id="text101">50</text>
        </g>
        <text
           x="0"
           y="10"
           class="sb-label "
           transform="translate(110 5)"
           id="text105">%</text>
      </g>
      <g
         transform="translate(2 60)"
         id="g171">
        <path
           d="M 0 3 L 3 0 L 13 0 L 16 3 L 24 3 L 27 0 L 364 0 L 367 3 L 367 23 L 364 26 L 27 26 L 24 29 L 16 29 L 13 26 L 3 26 L 0 23 Z"
           class="sb-motion sb-bevel"
           id="path109" />
        <text
           x="0"
           y="10"
           class="sb-label "
           transform="translate(6 7)"
           id="text111">gehe</text>
        <text
           x="0"
           y="10"
           class="sb-label "
           transform="translate(33 7)"
           id="text113">zu</text>
        <text
           x="0"
           y="10"
           class="sb-label "
           transform="translate(48 7)"
           id="text115">x:</text>
        <g
           transform="translate(61 3)"
           id="g141">
          <path
             d="M 10 0 L 133 0 A 10 10 0 0 1 133 20 L 10 20 A 10 10 0 0 1 10 0 Z"
             class="sb-sensing sb-bevel"
             id="path117" />
          <g
             transform="translate(5 3)"
             id="g127">
            <g
               width="57"
               height="14"
               class="sb-input sb-input-dropdown"
               id="g121">
              <rect
                 x="0"
                 y="0"
                 width="57"
                 height="14"
                 class="sb-sensing sb-darker"
                 id="rect119" />
            </g>
            <text
               x="0"
               y="10"
               class="sb-label sb-literal-dropdown"
               transform="translate(4 0)"
               id="text123">x position</text>
            <polygon
               points="7 0 3.5 4 0 0"
               fill="#000"
               opacity="0.6"
               transform="translate(47 5)"
               id="polygon125" />
          </g>
          <text
             x="0"
             y="10"
             class="sb-label "
             transform="translate(66 4)"
             id="text129">von</text>
          <g
             transform="translate(88 3)"
             id="g139">
            <g
               width="50"
               height="14"
               class="sb-input sb-input-dropdown"
               id="g133">
              <rect
                 x="0"
                 y="0"
                 width="50"
                 height="14"
                 class="sb-sensing sb-darker"
                 id="rect131" />
            </g>
            <text
               x="0"
               y="10"
               class="sb-label sb-literal-dropdown"
               transform="translate(4 0)"
               id="text135"> Wizard</text>
            <polygon
               points="7 0 3.5 4 0 0"
               fill="#000"
               opacity="0.6"
               transform="translate(40 5)"
               id="polygon137" />
          </g>
        </g>
        <text
           x="0"
           y="10"
           class="sb-label "
           transform="translate(208 7)"
           id="text143">y:</text>
        <g
           transform="translate(221 3)"
           id="g169">
          <path
             d="M 10 0 L 130 0 A 10 10 0 0 1 130 20 L 10 20 A 10 10 0 0 1 10 0 Z"
             class="sb-sensing sb-bevel"
             id="path145" />
          <g
             transform="translate(5 3)"
             id="g155">
            <g
               width="57"
               height="14"
               class="sb-input sb-input-dropdown"
               id="g149">
              <rect
                 x="0"
                 y="0"
                 width="57"
                 height="14"
                 class="sb-sensing sb-darker"
                 id="rect147" />
            </g>
            <text
               x="0"
               y="10"
               class="sb-label sb-literal-dropdown"
               transform="translate(4 0)"
               id="text151">y position</text>
            <polygon
               points="7 0 3.5 4 0 0"
               fill="#000"
               opacity="0.6"
               transform="translate(47 5)"
               id="polygon153" />
          </g>
          <text
             x="0"
             y="10"
             class="sb-label "
             transform="translate(66 4)"
             id="text157">von</text>
          <g
             transform="translate(88 3)"
             id="g167">
            <g
               width="47"
               height="14"
               class="sb-input sb-input-dropdown"
               id="g161">
              <rect
                 x="0"
                 y="0"
                 width="47"
                 height="14"
                 class="sb-sensing sb-darker"
                 id="rect159" />
            </g>
            <text
               x="0"
               y="10"
               class="sb-label sb-literal-dropdown"
               transform="translate(4 0)"
               id="text163">Wizard</text>
            <polygon
               points="7 0 3.5 4 0 0"
               fill="#000"
               opacity="0.6"
               transform="translate(37 5)"
               id="polygon165" />
          </g>
        </g>
      </g>
      <g
         transform="translate(2 86)"
         id="g181">
        <path
           d="M 0 3 L 3 0 L 13 0 L 16 3 L 24 3 L 27 0 L 97 0 L 100 3 L 100 19 L 97 22 L 27 22 L 24 25 L 16 25 L 13 22 L 3 22 L 0 19 Z"
           class="sb-looks sb-bevel"
           id="path173" />
        <text
           x="0"
           y="10"
           class="sb-label "
           transform="translate(6 5)"
           id="text175">komme</text>
        <text
           x="0"
           y="10"
           class="sb-label "
           transform="translate(45 5)"
           id="text177">nach</text>
        <text
           x="0"
           y="10"
           class="sb-label "
           transform="translate(72 5)"
           id="text179">vorn</text>
      </g>
      <g
         transform="translate(2 108)"
         id="g189">
        <path
           d="M 0 3 L 3 0 L 13 0 L 16 3 L 24 3 L 27 0 L 59 0 L 62 3 L 62 19 L 59 22 L 27 22 L 24 25 L 16 25 L 13 22 L 3 22 L 0 19 Z"
           class="sb-looks sb-bevel"
           id="path183" />
        <text
           x="0"
           y="10"
           class="sb-label "
           transform="translate(6 5)"
           id="text185">zeige</text>
        <text
           x="0"
           y="10"
           class="sb-label "
           transform="translate(35 5)"
           id="text187">dich</text>
      </g>
    </g>
  </g>
</svg>
