<?xml version="1.0" encoding="UTF-8" standalone="no"?>
<svg
   xmlns:dc="http://purl.org/dc/elements/1.1/"
   xmlns:cc="http://creativecommons.org/ns#"
   xmlns:rdf="http://www.w3.org/1999/02/22-rdf-syntax-ns#"
   xmlns:svg="http://www.w3.org/2000/svg"
   xmlns="http://www.w3.org/2000/svg"
   xmlns:xlink="http://www.w3.org/1999/xlink"
   xmlns:sodipodi="http://sodipodi.sourceforge.net/DTD/sodipodi-0.dtd"
   xmlns:inkscape="http://www.inkscape.org/namespaces/inkscape"
   version="1.1"
   width="180"
   height="239"
   id="svg237"
   sodipodi:docname="lightning-moving-around.svg"
   inkscape:export-filename="/home/ale/src/dojo-resources/cards-games/dose/images/lightning-moving-around-en.png"
   inkscape:export-xdpi="300.0502"
   inkscape:export-ydpi="300.0502"
   inkscape:version="0.92.2 (5c3e80d, 2017-08-06)">
  <metadata
     id="metadata241">
    <rdf:RDF>
      <cc:Work
         rdf:about="">
        <dc:format>image/svg+xml</dc:format>
        <dc:type
           rdf:resource="http://purl.org/dc/dcmitype/StillImage" />
      </cc:Work>
    </rdf:RDF>
  </metadata>
  <sodipodi:namedview
     pagecolor="#ffffff"
     bordercolor="#666666"
     borderopacity="1"
     objecttolerance="10"
     gridtolerance="10"
     guidetolerance="10"
     inkscape:pageopacity="0"
     inkscape:pageshadow="2"
     inkscape:window-width="2238"
     inkscape:window-height="1776"
     id="namedview239"
     showgrid="false"
     inkscape:zoom="4.3421238"
     inkscape:cx="19.195936"
     inkscape:cy="102.48897"
     inkscape:window-x="0"
     inkscape:window-y="22"
     inkscape:window-maximized="0"
     inkscape:current-layer="svg237" />
  <defs
     id="defs79">
    <filter
       id="bevelFilter"
       x0="-50%"
       y0="-50%"
       width="200%"
       height="200%">
      <feGaussianBlur
         result="blur-1"
         in="SourceAlpha"
         stdDeviation="1 1"
         id="feGaussianBlur2" />
      <feFlood
         result="flood-2"
         in="undefined"
         flood-color="#fff"
         flood-opacity="0.15"
         id="feFlood4" />
      <feOffset
         result="offset-3"
         in="blur-1"
         dx="1"
         dy="1"
         id="feOffset6" />
      <feComposite
         result="comp-4"
         operator="arithmetic"
         in="SourceAlpha"
         in2="offset-3"
         k2="1"
         k3="-1"
         id="feComposite8" />
      <feComposite
         result="comp-5"
         operator="in"
         in="flood-2"
         in2="comp-4"
         id="feComposite10" />
      <feFlood
         result="flood-6"
         in="undefined"
         flood-color="#000"
         flood-opacity="0.7"
         id="feFlood12" />
      <feOffset
         result="offset-7"
         in="blur-1"
         dx="-1"
         dy="-1"
         id="feOffset14" />
      <feComposite
         result="comp-8"
         operator="arithmetic"
         in="SourceAlpha"
         in2="offset-7"
         k2="1"
         k3="-1"
         id="feComposite16" />
      <feComposite
         result="comp-9"
         operator="in"
         in="flood-6"
         in2="comp-8"
         id="feComposite18" />
      <feMerge
         result="merge-10"
         id="feMerge26">
        <feMergeNode
           in="SourceGraphic"
           id="feMergeNode20" />
        <feMergeNode
           in="comp-5"
           id="feMergeNode22" />
        <feMergeNode
           in="comp-9"
           id="feMergeNode24" />
      </feMerge>
    </filter>
    <filter
       id="inputBevelFilter"
       x0="-50%"
       y0="-50%"
       width="200%"
       height="200%">
      <feGaussianBlur
         result="blur-1"
         in="SourceAlpha"
         stdDeviation="1 1"
         id="feGaussianBlur29" />
      <feFlood
         result="flood-2"
         in="undefined"
         flood-color="#fff"
         flood-opacity="0.15"
         id="feFlood31" />
      <feOffset
         result="offset-3"
         in="blur-1"
         dx="-1"
         dy="-1"
         id="feOffset33" />
      <feComposite
         result="comp-4"
         operator="arithmetic"
         in="SourceAlpha"
         in2="offset-3"
         k2="1"
         k3="-1"
         id="feComposite35" />
      <feComposite
         result="comp-5"
         operator="in"
         in="flood-2"
         in2="comp-4"
         id="feComposite37" />
      <feFlood
         result="flood-6"
         in="undefined"
         flood-color="#000"
         flood-opacity="0.7"
         id="feFlood39" />
      <feOffset
         result="offset-7"
         in="blur-1"
         dx="1"
         dy="1"
         id="feOffset41" />
      <feComposite
         result="comp-8"
         operator="arithmetic"
         in="SourceAlpha"
         in2="offset-7"
         k2="1"
         k3="-1"
         id="feComposite43" />
      <feComposite
         result="comp-9"
         operator="in"
         in="flood-6"
         in2="comp-8"
         id="feComposite45" />
      <feMerge
         result="merge-10"
         id="feMerge53">
        <feMergeNode
           in="SourceGraphic"
           id="feMergeNode47" />
        <feMergeNode
           in="comp-5"
           id="feMergeNode49" />
        <feMergeNode
           in="comp-9"
           id="feMergeNode51" />
      </feMerge>
    </filter>
    <filter
       id="inputDarkFilter"
       x0="-50%"
       y0="-50%"
       width="200%"
       height="200%">
      <feFlood
         result="flood-1"
         in="undefined"
         flood-color="#000"
         flood-opacity="0.2"
         id="feFlood56" />
      <feComposite
         result="comp-2"
         operator="in"
         in="flood-1"
         in2="SourceAlpha"
         id="feComposite58" />
      <feMerge
         result="merge-3"
         id="feMerge64">
        <feMergeNode
           in="SourceGraphic"
           id="feMergeNode60" />
        <feMergeNode
           in="comp-2"
           id="feMergeNode62" />
      </feMerge>
    </filter>
    <path
       d="M1.504 21L0 19.493 4.567 0h1.948l-.5 2.418s1.002-.502 3.006 0c2.006.503 3.008 2.01 6.517 2.01 3.508 0 4.463-.545 4.463-.545l-.823 9.892s-2.137 1.005-5.144.696c-3.007-.307-3.007-2.007-6.014-2.51-3.008-.502-4.512.503-4.512.503L1.504 21z"
       fill="#3f8d15"
       id="greenFlag" />
    <path
       d="M6.724 0C3.01 0 0 2.91 0 6.5c0 2.316 1.253 4.35 3.14 5.5H5.17v-1.256C3.364 10.126 2.07 8.46 2.07 6.5 2.07 4.015 4.152 2 6.723 2c1.14 0 2.184.396 2.993 1.053L8.31 4.13c-.45.344-.398.826.11 1.08L15 8.5 13.858.992c-.083-.547-.514-.714-.963-.37l-1.532 1.172A6.825 6.825 0 0 0 6.723 0z"
       fill="#fff"
       id="turnRight" />
    <path
       d="M3.637 1.794A6.825 6.825 0 0 1 8.277 0C11.99 0 15 2.91 15 6.5c0 2.316-1.253 4.35-3.14 5.5H9.83v-1.256c1.808-.618 3.103-2.285 3.103-4.244 0-2.485-2.083-4.5-4.654-4.5-1.14 0-2.184.396-2.993 1.053L6.69 4.13c.45.344.398.826-.11 1.08L0 8.5 1.142.992c.083-.547.514-.714.963-.37l1.532 1.172z"
       fill="#fff"
       id="turnLeft" />
    <path
       d="M0 0L4 4L0 8Z"
       fill="#111"
       id="addInput" />
    <path
       d="M4 0L4 8L0 4Z"
       fill="#111"
       id="delInput" />
    <g
       id="loopArrow">
      <path
         d="M8 0l2 -2l0 -3l3 0l-4 -5l-4 5l3 0l0 3l-8 0l0 2"
         fill="#000"
         opacity="0.3"
         id="path72" />
      <path
         d="M8 0l2 -2l0 -3l3 0l-4 -5l-4 5l3 0l0 3l-8 0l0 2"
         fill="#fff"
         opacity="0.9"
         transform="translate(-1 -1)"
         id="path74" />
    </g>
    <style
       id="style77"><![CDATA[.sb-label{font-family:Lucida Grande,Verdana,Arial,DejaVu Sans,sans-serif;font-weight:700;fill:#fff;font-size:10px;word-spacing:+1px}.sb-obsolete{fill:#d42828}.sb-motion{fill:#4a6cd4}.sb-looks{fill:#8a55d7}.sb-sound{fill:#bb42c3}.sb-pen{fill:#0e9a6c}.sb-events{fill:#c88330}.sb-control{fill:#e1a91a}.sb-sensing{fill:#2ca5e2}.sb-operators{fill:#5cb712}.sb-variables{fill:#ee7d16}.sb-list{fill:#cc5b22}.sb-custom{fill:#632d99}.sb-custom-arg{fill:#5947b1}.sb-extension{fill:#4b4a60}.sb-grey{fill:#969696}.sb-bevel{filter:url(#bevelFilter)}.sb-input{filter:url(#inputBevelFilter)}.sb-input-number,.sb-input-number-dropdown,.sb-input-string{fill:#fff}.sb-literal-dropdown,.sb-literal-number,.sb-literal-number-dropdown,.sb-literal-string{font-weight:400;font-size:9px;word-spacing:0}.sb-literal-number,.sb-literal-number-dropdown,.sb-literal-string{fill:#000}.sb-darker{filter:url(#inputDarkFilter)}.sb-outline{stroke:#fff;stroke-opacity:.2;stroke-width:2;fill:none}.sb-define-hat-cap{stroke:#632d99;stroke-width:1;fill:#8e2ec2}.sb-comment{fill:#ffffa5;stroke:#d0d1d2;stroke-width:1}.sb-comment-line{fill:#ffff80}.sb-comment-label{font-family:Helevetica,Arial,DejaVu Sans,sans-serif;font-weight:700;fill:#5c5d5f;word-spacing:0;font-size:12px}]]></style>
  </defs>
  <g
     id="g235">
    <g
       transform="translate(0 0)"
       id="g233">
      <g
         transform="translate(2 0)"
         id="g231">
        <path
           d="M 0 3 L 3 0 L 13 0 L 16 3 L 24 3 L 27 0 L 173 0 L 176 3 L 176 23 L 173 26 L 42 26 L 39 29 L 31 29 L 28 26 L 17 26 L 15 28 L 15 218 L 17 220 L 173 220 L 176 223 L 176 233 L 173 236 L 27 236 L 24 239 L 16 239 L 13 236 L 3 236 L 0 233"
           class="sb-control sb-bevel"
           id="path81" />
        <text
           x="0"
           y="10"
           class="sb-label "
           transform="translate(6 6)"
           id="text83">repeat</text>
        <text
           x="0"
           y="10"
           class="sb-label "
           transform="translate(40 6)"
           id="text85">until</text>
        <g
           transform="translate(65 2)"
           id="g101">
          <path
             d="M 10.5 0 L 94.5 0 105 10.5 L 105 10.5 94.5 21 L 10.5 21 0 10.5 L 0 10.5 10.5 0 Z"
             class="sb-sensing sb-bevel"
             id="path87" />
          <text
             x="0"
             y="10"
             class="sb-label "
             transform="translate(11 4)"
             id="text89">touching</text>
          <g
             transform="translate(57 3)"
             id="g99">
            <g
               width="39"
               height="14"
               class="sb-input sb-input-dropdown"
               id="g93">
              <rect
                 x="0"
                 y="0"
                 width="39"
                 height="14"
                 class="sb-sensing sb-darker"
                 id="rect91" />
            </g>
            <text
               x="0"
               y="10"
               class="sb-label sb-literal-dropdown"
               transform="translate(4 0)"
               id="text95">edge</text>
            <polygon
               points="7 0 3.5 4 0 0"
               fill="#000"
               opacity="0.6"
               transform="translate(29 5)"
               id="polygon97" />
          </g>
        </g>
        <use
           xlink:href="#loopArrow"
           transform="translate(161 233)"
           id="use103" />
        <g
           transform="translate(15 26)"
           id="g229">
          <g
             transform="translate(0 0)"
             id="g227">
            <path
               d="M 0 3 L 3 0 L 13 0 L 16 3 L 24 3 L 27 0 L 158 0 L 161 3 L 161 23 L 158 26 L 42 26 L 39 29 L 31 29 L 28 26 L 17 26 L 15 28 L 15 136 L 17 138 L 158 138 L 161 141 L 161 153 L 158 156 L 42 156 L 39 159 L 31 159 L 28 156 L 17 156 L 15 158 L 15 176 L 17 178 L 158 178 L 161 181 L 161 191 L 158 194 L 27 194 L 24 197 L 16 197 L 13 194 L 3 194 L 0 191"
               class="sb-control sb-bevel"
               id="path105" />
            <text
               x="0"
               y="10"
               class="sb-label "
               transform="translate(6 6)"
               id="text107">if</text>
            <g
               transform="translate(30 2)"
               id="g123">
              <path
                 d="M 10.5 0 L 89.5 0 100 10.5 L 100 10.5 89.5 21 L 10.5 21 0 10.5 L 0 10.5 10.5 0 Z"
                 class="sb-sensing sb-bevel"
                 id="path109" />
              <text
                 x="0"
                 y="10"
                 class="sb-label "
                 transform="translate(11 4)"
                 id="text111">touching</text>
              <g
                 transform="translate(57 3)"
                 id="g121">
                <g
                   width="34"
                   height="14"
                   class="sb-input sb-input-dropdown"
                   id="g115">
                  <rect
                     x="0"
                     y="0"
                     width="34"
                     height="14"
                     class="sb-sensing sb-darker"
                     id="rect113" />
                </g>
                <text
                   x="0"
                   y="10"
                   class="sb-label sb-literal-dropdown"
                   transform="translate(4 0)"
                   id="text117">can</text>
                <polygon
                   points="7 0 3.5 4 0 0"
                   fill="#000"
                   opacity="0.6"
                   transform="translate(24 5)"
                   id="polygon119" />
              </g>
            </g>
            <text
               x="0"
               y="10"
               class="sb-label "
               transform="translate(134 6)"
               id="text125">then</text>
            <g
               transform="translate(15 26)"
               id="g207">
              <g
                 transform="translate(0 0)"
                 id="g141">
                <path
                   d="M 0 3 L 3 0 L 13 0 L 16 3 L 24 3 L 27 0 L 90 0 L 93 3 L 93 19 L 90 22 L 27 22 L 24 25 L 16 25 L 13 22 L 3 22 L 0 19 Z"
                   class="sb-events sb-bevel"
                   id="path127" />
                <text
                   x="0"
                   y="10"
                   class="sb-label "
                   transform="translate(6 5)"
                   id="text129">broadcast</text>
                <g
                   transform="translate(58 4)"
                   id="g139">
                  <g
                     width="29"
                     height="14"
                     class="sb-input sb-input-dropdown"
                     id="g133">
                    <rect
                       x="0"
                       y="0"
                       width="29"
                       height="14"
                       class="sb-events sb-darker"
                       id="rect131" />
                  </g>
                  <text
                     x="0"
                     y="10"
                     class="sb-label sb-literal-dropdown"
                     transform="translate(4 0)"
                     id="text135">hit</text>
                  <polygon
                     points="7 0 3.5 4 0 0"
                     fill="#000"
                     opacity="0.6"
                     transform="translate(19 5)"
                     id="polygon137" />
                </g>
              </g>
              <g
                 transform="translate(0 22)"
                 id="g147">
                <path
                   d="M 0 3 L 3 0 L 13 0 L 16 3 L 24 3 L 27 0 L 36 0 L 39 3 L 39 19 L 36 22 L 27 22 L 24 25 L 16 25 L 13 22 L 3 22 L 0 19 Z"
                   class="sb-looks sb-bevel"
                   id="path143" />
                <text
                   x="0"
                   y="10"
                   class="sb-label "
                   transform="translate(6 5)"
                   id="text145">hide</text>
              </g>
              <g
                 transform="translate(0 44)"
                 id="g171">
                <path
                   d="M 0 3 L 3 0 L 13 0 L 16 3 L 24 3 L 27 0 L 122 0 L 125 3 L 125 19 L 122 22 L 27 22 L 24 25 L 16 25 L 13 22 L 3 22 L 0 19 Z"
                   class="sb-motion sb-bevel"
                   id="path149" />
                <text
                   x="0"
                   y="10"
                   class="sb-label "
                   transform="translate(6 5)"
                   id="text151">go</text>
                <text
                   x="0"
                   y="10"
                   class="sb-label "
                   transform="translate(22 5)"
                   id="text153">to</text>
                <text
                   x="0"
                   y="10"
                   class="sb-label "
                   transform="translate(35 5)"
                   id="text155">x:</text>
                <g
                   transform="translate(48 4)"
                   id="g161">
                  <path
                     d="M 6.5 0 L 20.5 0 A 6.5 6.5 0 0 1 20.5 13 L 6.5 13 A 6.5 6.5 0 0 1 6.5 0 Z"
                     class="sb-input sb-input-number"
                     id="path157" />
                  <text
                     x="0"
                     y="10"
                     class="sb-label sb-literal-number"
                     transform="translate(5 0)"
                     id="text159">-200</text>
                </g>
                <text
                   x="0"
                   y="10"
                   class="sb-label "
                   transform="translate(79 5)"
                   id="text163">y:</text>
                <g
                   transform="translate(92 4)"
                   id="g169">
                  <path
                     d="M 6.5 0 L 20.5 0 A 6.5 6.5 0 0 1 20.5 13 L 6.5 13 A 6.5 6.5 0 0 1 6.5 0 Z"
                     class="sb-input sb-input-number"
                     id="path165" />
                  <text
                     x="0"
                     y="10"
                     class="sb-label sb-literal-number"
                     transform="translate(5 0)"
                     id="text167">-156</text>
                </g>
              </g>
              <g
                 transform="translate(0 66)"
                 id="g189">
                <path
                   d="M 0 3 L 3 0 L 13 0 L 16 3 L 24 3 L 27 0 L 120 0 L 123 3 L 123 19 L 120 22 L 27 22 L 24 25 L 16 25 L 13 22 L 3 22 L 0 19 Z"
                   class="sb-motion sb-bevel"
                   id="path173" />
                <text
                   x="0"
                   y="10"
                   class="sb-label "
                   transform="translate(6 5)"
                   id="text175">point</text>
                <text
                   x="0"
                   y="10"
                   class="sb-label "
                   transform="translate(34 5)"
                   id="text177">in</text>
                <text
                   x="0"
                   y="10"
                   class="sb-label "
                   transform="translate(47 5)"
                   id="text179">direction</text>
                <g
                   transform="translate(93 4)"
                   id="g187">
                  <path
                     d="M 6.5 0 L 17.5 0 A 6.5 6.5 0 0 1 17.5 13 L 6.5 13 A 6.5 6.5 0 0 1 6.5 0 Z"
                     class="sb-input sb-input-number-dropdown"
                     id="path181" />
                  <text
                     x="0"
                     y="10"
                     class="sb-label sb-literal-number-dropdown"
                     transform="translate(5 0)"
                     id="text183">0</text>
                  <polygon
                     points="7 0 3.5 4 0 0"
                     fill="#000"
                     opacity="0.6"
                     transform="translate(14 4)"
                     id="polygon185" />
                </g>
              </g>
              <g
                 transform="translate(0 88)"
                 id="g205">
                <path
                   d="M 0 3 L 3 0 L 13 0 L 16 3 L 24 3 L 27 0 L 91 0 L 94 3 L 94 21 L 91 24 L 3 24 L 0 21 Z"
                   class="sb-control sb-bevel"
                   id="path191" />
                <text
                   x="0"
                   y="10"
                   class="sb-label "
                   transform="translate(6 7)"
                   id="text193">stop</text>
                <g
                   transform="translate(31 6)"
                   id="g203">
                  <g
                     width="57"
                     height="14"
                     class="sb-input sb-input-dropdown"
                     id="g197">
                    <rect
                       x="0"
                       y="0"
                       width="57"
                       height="14"
                       class="sb-control sb-darker"
                       id="rect195" />
                  </g>
                  <text
                     x="0"
                     y="10"
                     class="sb-label sb-literal-dropdown"
                     transform="translate(4 0)"
                     id="text199">this script</text>
                  <polygon
                     points="7 0 3.5 4 0 0"
                     fill="#000"
                     opacity="0.6"
                     transform="translate(47 5)"
                     id="polygon201" />
                </g>
              </g>
            </g>
            <text
               x="0"
               y="10"
               class="sb-label "
               transform="translate(6 141)"
               id="text209">else</text>
            <g
               transform="translate(15 156)"
               id="g225">
              <g
                 transform="translate(0 0)"
                 id="g223">
                <path
                   d="M 0 3 L 3 0 L 13 0 L 16 3 L 24 3 L 27 0 L 88 0 L 91 3 L 91 19 L 88 22 L 27 22 L 24 25 L 16 25 L 13 22 L 3 22 L 0 19 Z"
                   class="sb-motion sb-bevel"
                   id="path211" />
                <text
                   x="0"
                   y="10"
                   class="sb-label "
                   transform="translate(6 5)"
                   id="text213">move</text>
                <g
                   transform="translate(36 4)"
                   id="g219">
                  <path
                     d="M 6.5 0 L 12.5 0 A 6.5 6.5 0 0 1 12.5 13 L 6.5 13 A 6.5 6.5 0 0 1 6.5 0 Z"
                     class="sb-input sb-input-number"
                     id="path215" />
                  <text
                     x="0"
                     y="10"
                     class="sb-label sb-literal-number"
                     transform="translate(5 0)"
                     id="text217">15</text>
                </g>
                <text
                   x="0"
                   y="10"
                   class="sb-label "
                   transform="translate(59 5)"
                   id="text221">steps</text>
              </g>
            </g>
          </g>
        </g>
      </g>
    </g>
  </g>
</svg>
