<?xml version="1.0" encoding="UTF-8" standalone="no"?>
<svg
   xmlns:dc="http://purl.org/dc/elements/1.1/"
   xmlns:cc="http://creativecommons.org/ns#"
   xmlns:rdf="http://www.w3.org/1999/02/22-rdf-syntax-ns#"
   xmlns:svg="http://www.w3.org/2000/svg"
   xmlns="http://www.w3.org/2000/svg"
   xmlns:xlink="http://www.w3.org/1999/xlink"
   xmlns:sodipodi="http://sodipodi.sourceforge.net/DTD/sodipodi-0.dtd"
   xmlns:inkscape="http://www.inkscape.org/namespaces/inkscape"
   version="1.1"
   width="149"
   height="151"
   id="svg422"
   sodipodi:docname="stage-init-en.svg"
   inkscape:export-filename="/home/ale/src/dojo-resources/cards-games/dose/images/stage-init-en.png"
   inkscape:export-xdpi="300"
   inkscape:export-ydpi="300"
   inkscape:version="0.92.2 (5c3e80d, 2017-08-06)">
  <metadata
     id="metadata426">
    <rdf:RDF>
      <cc:Work
         rdf:about="">
        <dc:format>image/svg+xml</dc:format>
        <dc:type
           rdf:resource="http://purl.org/dc/dcmitype/StillImage" />
      </cc:Work>
    </rdf:RDF>
  </metadata>
  <sodipodi:namedview
     pagecolor="#ffffff"
     bordercolor="#666666"
     borderopacity="1"
     objecttolerance="10"
     gridtolerance="10"
     guidetolerance="10"
     inkscape:pageopacity="0"
     inkscape:pageshadow="2"
     inkscape:window-width="2238"
     inkscape:window-height="1776"
     id="namedview424"
     showgrid="false"
     inkscape:zoom="9.7193709"
     inkscape:cx="53.305213"
     inkscape:cy="75.5"
     inkscape:window-x="0"
     inkscape:window-y="22"
     inkscape:window-maximized="0"
     inkscape:current-layer="svg422" />
  <defs
     id="defs292">
    <filter
       id="bevelFilter"
       x0="-50%"
       y0="-50%"
       width="200%"
       height="200%">
      <feGaussianBlur
         result="blur-1"
         in="SourceAlpha"
         stdDeviation="1 1"
         id="feGaussianBlur215" />
      <feFlood
         result="flood-2"
         in="undefined"
         flood-color="#fff"
         flood-opacity="0.15"
         id="feFlood217" />
      <feOffset
         result="offset-3"
         in="blur-1"
         dx="1"
         dy="1"
         id="feOffset219" />
      <feComposite
         result="comp-4"
         operator="arithmetic"
         in="SourceAlpha"
         in2="offset-3"
         k2="1"
         k3="-1"
         id="feComposite221" />
      <feComposite
         result="comp-5"
         operator="in"
         in="flood-2"
         in2="comp-4"
         id="feComposite223" />
      <feFlood
         result="flood-6"
         in="undefined"
         flood-color="#000"
         flood-opacity="0.7"
         id="feFlood225" />
      <feOffset
         result="offset-7"
         in="blur-1"
         dx="-1"
         dy="-1"
         id="feOffset227" />
      <feComposite
         result="comp-8"
         operator="arithmetic"
         in="SourceAlpha"
         in2="offset-7"
         k2="1"
         k3="-1"
         id="feComposite229" />
      <feComposite
         result="comp-9"
         operator="in"
         in="flood-6"
         in2="comp-8"
         id="feComposite231" />
      <feMerge
         result="merge-10"
         id="feMerge239">
        <feMergeNode
           in="SourceGraphic"
           id="feMergeNode233" />
        <feMergeNode
           in="comp-5"
           id="feMergeNode235" />
        <feMergeNode
           in="comp-9"
           id="feMergeNode237" />
      </feMerge>
    </filter>
    <filter
       id="inputBevelFilter"
       x0="-50%"
       y0="-50%"
       width="200%"
       height="200%">
      <feGaussianBlur
         result="blur-1"
         in="SourceAlpha"
         stdDeviation="1 1"
         id="feGaussianBlur242" />
      <feFlood
         result="flood-2"
         in="undefined"
         flood-color="#fff"
         flood-opacity="0.15"
         id="feFlood244" />
      <feOffset
         result="offset-3"
         in="blur-1"
         dx="-1"
         dy="-1"
         id="feOffset246" />
      <feComposite
         result="comp-4"
         operator="arithmetic"
         in="SourceAlpha"
         in2="offset-3"
         k2="1"
         k3="-1"
         id="feComposite248" />
      <feComposite
         result="comp-5"
         operator="in"
         in="flood-2"
         in2="comp-4"
         id="feComposite250" />
      <feFlood
         result="flood-6"
         in="undefined"
         flood-color="#000"
         flood-opacity="0.7"
         id="feFlood252" />
      <feOffset
         result="offset-7"
         in="blur-1"
         dx="1"
         dy="1"
         id="feOffset254" />
      <feComposite
         result="comp-8"
         operator="arithmetic"
         in="SourceAlpha"
         in2="offset-7"
         k2="1"
         k3="-1"
         id="feComposite256" />
      <feComposite
         result="comp-9"
         operator="in"
         in="flood-6"
         in2="comp-8"
         id="feComposite258" />
      <feMerge
         result="merge-10"
         id="feMerge266">
        <feMergeNode
           in="SourceGraphic"
           id="feMergeNode260" />
        <feMergeNode
           in="comp-5"
           id="feMergeNode262" />
        <feMergeNode
           in="comp-9"
           id="feMergeNode264" />
      </feMerge>
    </filter>
    <filter
       id="inputDarkFilter"
       x0="-50%"
       y0="-50%"
       width="200%"
       height="200%">
      <feFlood
         result="flood-1"
         in="undefined"
         flood-color="#000"
         flood-opacity="0.2"
         id="feFlood269" />
      <feComposite
         result="comp-2"
         operator="in"
         in="flood-1"
         in2="SourceAlpha"
         id="feComposite271" />
      <feMerge
         result="merge-3"
         id="feMerge277">
        <feMergeNode
           in="SourceGraphic"
           id="feMergeNode273" />
        <feMergeNode
           in="comp-2"
           id="feMergeNode275" />
      </feMerge>
    </filter>
    <path
       d="M1.504 21L0 19.493 4.567 0h1.948l-.5 2.418s1.002-.502 3.006 0c2.006.503 3.008 2.01 6.517 2.01 3.508 0 4.463-.545 4.463-.545l-.823 9.892s-2.137 1.005-5.144.696c-3.007-.307-3.007-2.007-6.014-2.51-3.008-.502-4.512.503-4.512.503L1.504 21z"
       fill="#3f8d15"
       id="greenFlag" />
    <path
       d="M6.724 0C3.01 0 0 2.91 0 6.5c0 2.316 1.253 4.35 3.14 5.5H5.17v-1.256C3.364 10.126 2.07 8.46 2.07 6.5 2.07 4.015 4.152 2 6.723 2c1.14 0 2.184.396 2.993 1.053L8.31 4.13c-.45.344-.398.826.11 1.08L15 8.5 13.858.992c-.083-.547-.514-.714-.963-.37l-1.532 1.172A6.825 6.825 0 0 0 6.723 0z"
       fill="#fff"
       id="turnRight" />
    <path
       d="M3.637 1.794A6.825 6.825 0 0 1 8.277 0C11.99 0 15 2.91 15 6.5c0 2.316-1.253 4.35-3.14 5.5H9.83v-1.256c1.808-.618 3.103-2.285 3.103-4.244 0-2.485-2.083-4.5-4.654-4.5-1.14 0-2.184.396-2.993 1.053L6.69 4.13c.45.344.398.826-.11 1.08L0 8.5 1.142.992c.083-.547.514-.714.963-.37l1.532 1.172z"
       fill="#fff"
       id="turnLeft" />
    <path
       d="M0 0L4 4L0 8Z"
       fill="#111"
       id="addInput" />
    <path
       d="M4 0L4 8L0 4Z"
       fill="#111"
       id="delInput" />
    <g
       id="loopArrow">
      <path
         d="M8 0l2 -2l0 -3l3 0l-4 -5l-4 5l3 0l0 3l-8 0l0 2"
         fill="#000"
         opacity="0.3"
         id="path285" />
      <path
         d="M8 0l2 -2l0 -3l3 0l-4 -5l-4 5l3 0l0 3l-8 0l0 2"
         fill="#fff"
         opacity="0.9"
         transform="translate(-1 -1)"
         id="path287" />
    </g>
    <style
       id="style290"><![CDATA[.sb-label{font-family:Lucida Grande,Verdana,Arial,DejaVu Sans,sans-serif;font-weight:700;fill:#fff;font-size:10px;word-spacing:+1px}.sb-obsolete{fill:#d42828}.sb-motion{fill:#4a6cd4}.sb-looks{fill:#8a55d7}.sb-sound{fill:#bb42c3}.sb-pen{fill:#0e9a6c}.sb-events{fill:#c88330}.sb-control{fill:#e1a91a}.sb-sensing{fill:#2ca5e2}.sb-operators{fill:#5cb712}.sb-variables{fill:#ee7d16}.sb-list{fill:#cc5b22}.sb-custom{fill:#632d99}.sb-custom-arg{fill:#5947b1}.sb-extension{fill:#4b4a60}.sb-grey{fill:#969696}.sb-bevel{filter:url(#bevelFilter)}.sb-input{filter:url(#inputBevelFilter)}.sb-input-number,.sb-input-number-dropdown,.sb-input-string{fill:#fff}.sb-literal-dropdown,.sb-literal-number,.sb-literal-number-dropdown,.sb-literal-string{font-weight:400;font-size:9px;word-spacing:0}.sb-literal-number,.sb-literal-number-dropdown,.sb-literal-string{fill:#000}.sb-darker{filter:url(#inputDarkFilter)}.sb-outline{stroke:#fff;stroke-opacity:.2;stroke-width:2;fill:none}.sb-define-hat-cap{stroke:#632d99;stroke-width:1;fill:#8e2ec2}.sb-comment{fill:#ffffa5;stroke:#d0d1d2;stroke-width:1}.sb-comment-line{fill:#ffff80}.sb-comment-label{font-family:Helevetica,Arial,DejaVu Sans,sans-serif;font-weight:700;fill:#5c5d5f;word-spacing:0;font-size:12px}]]></style>
  </defs>
  <g
     id="g420">
    <g
       transform="translate(0 0)"
       id="g418">
      <g
         transform="translate(2 0)"
         id="g302">
        <path
           d="M 0 12 L 0 12 A 80 80 0 0 1 80 10 L 97 10 L 100 13 L 100 35 L 97 38 L 27 38 L 24 41 L 16 41 L 13 38 L 3 38 L 0 35 Z"
           class="sb-events sb-bevel"
           id="path294" />
        <text
           x="0"
           y="10"
           class="sb-label "
           transform="translate(6 18)"
           id="text296">when</text>
        <use
           xlink:href="#greenFlag"
           transform="translate(36 12)"
           id="use298" />
        <text
           x="0"
           y="10"
           class="sb-label "
           transform="translate(60 18)"
           id="text300">clicked</text>
      </g>
      <g
         transform="translate(2 38)"
         id="g326">
        <path
           d="M 0 3 L 3 0 L 13 0 L 16 3 L 24 3 L 27 0 L 102 0 L 105 3 L 105 19 L 102 22 L 27 22 L 24 25 L 16 25 L 13 22 L 3 22 L 0 19 Z"
           class="sb-variables sb-bevel"
           id="path304" />
        <text
           x="0"
           y="10"
           class="sb-label "
           transform="translate(6 5)"
           id="text306">set</text>
        <g
           transform="translate(30 4)"
           id="g316">
          <g
             width="36"
             height="14"
             class="sb-input sb-input-dropdown"
             id="g310">
            <rect
               x="0"
               y="0"
               width="36"
               height="14"
               class="sb-variables sb-darker"
               id="rect308" />
          </g>
          <text
             x="0"
             y="10"
             class="sb-label sb-literal-dropdown"
             transform="translate(4 0)"
             id="text312">time</text>
          <polygon
             points="7 0 3.5 4 0 0"
             fill="#000"
             opacity="0.6"
             transform="translate(26 5)"
             id="polygon314" />
        </g>
        <text
           x="0"
           y="10"
           class="sb-label "
           transform="translate(70 5)"
           id="text318">to</text>
        <g
           transform="translate(83 4)"
           id="g324">
          <rect
             x="0"
             y="0"
             width="16"
             height="14"
             class="sb-input sb-input-string"
             id="rect320" />
          <text
             x="0"
             y="10"
             class="sb-label sb-literal-string"
             transform="translate(4 0)"
             id="text322">60</text>
        </g>
      </g>
      <g
         transform="translate(2 60)"
         id="g344">
        <path
           d="M 0 3 L 3 0 L 13 0 L 16 3 L 24 3 L 27 0 L 117 0 L 120 3 L 120 19 L 117 22 L 27 22 L 24 25 L 16 25 L 13 22 L 3 22 L 0 19 Z"
           class="sb-variables sb-bevel"
           id="path328" />
        <text
           x="0"
           y="10"
           class="sb-label "
           transform="translate(6 5)"
           id="text330">show</text>
        <text
           x="0"
           y="10"
           class="sb-label "
           transform="translate(36 5)"
           id="text332">variable</text>
        <g
           transform="translate(78 4)"
           id="g342">
          <g
             width="36"
             height="14"
             class="sb-input sb-input-dropdown"
             id="g336">
            <rect
               x="0"
               y="0"
               width="36"
               height="14"
               class="sb-variables sb-darker"
               id="rect334" />
          </g>
          <text
             x="0"
             y="10"
             class="sb-label sb-literal-dropdown"
             transform="translate(4 0)"
             id="text338">time</text>
          <polygon
             points="7 0 3.5 4 0 0"
             fill="#000"
             opacity="0.6"
             transform="translate(26 5)"
             id="polygon340" />
        </g>
      </g>
      <g
         transform="translate(2 82)"
         id="g368">
        <path
           d="M 0 3 L 3 0 L 13 0 L 16 3 L 24 3 L 27 0 L 107 0 L 110 3 L 110 19 L 107 22 L 27 22 L 24 25 L 16 25 L 13 22 L 3 22 L 0 19 Z"
           class="sb-variables sb-bevel"
           id="path346" />
        <text
           x="0"
           y="10"
           class="sb-label "
           transform="translate(6 5)"
           id="text348">set</text>
        <g
           transform="translate(30 4)"
           id="g358">
          <g
             width="43"
             height="14"
             class="sb-input sb-input-dropdown"
             id="g352">
            <rect
               x="0"
               y="0"
               width="43"
               height="14"
               class="sb-variables sb-darker"
               id="rect350" />
          </g>
          <text
             x="0"
             y="10"
             class="sb-label sb-literal-dropdown"
             transform="translate(4 0)"
             id="text354">points</text>
          <polygon
             points="7 0 3.5 4 0 0"
             fill="#000"
             opacity="0.6"
             transform="translate(33 5)"
             id="polygon356" />
        </g>
        <text
           x="0"
           y="10"
           class="sb-label "
           transform="translate(77 5)"
           id="text360">to</text>
        <g
           transform="translate(90 4)"
           id="g366">
          <rect
             x="0"
             y="0"
             width="14"
             height="14"
             class="sb-input sb-input-string"
             id="rect362" />
          <text
             x="0"
             y="10"
             class="sb-label sb-literal-string"
             transform="translate(4 0)"
             id="text364">0</text>
        </g>
      </g>
      <g
         transform="translate(2 104)"
         id="g392">
        <path
           d="M 0 3 L 3 0 L 13 0 L 16 3 L 24 3 L 27 0 L 142 0 L 145 3 L 145 19 L 142 22 L 27 22 L 24 25 L 16 25 L 13 22 L 3 22 L 0 19 Z"
           class="sb-variables sb-bevel"
           id="path370" />
        <text
           x="0"
           y="10"
           class="sb-label "
           transform="translate(6 5)"
           id="text372">set</text>
        <g
           transform="translate(30 4)"
           id="g382">
          <g
             width="70"
             height="14"
             class="sb-input sb-input-dropdown"
             id="g376">
            <rect
               x="0"
               y="0"
               width="70"
               height="14"
               class="sb-variables sb-darker"
               id="rect374" />
          </g>
          <text
             x="0"
             y="10"
             class="sb-label sb-literal-dropdown"
             transform="translate(4 0)"
             id="text378">falling speed</text>
          <polygon
             points="7 0 3.5 4 0 0"
             fill="#000"
             opacity="0.6"
             transform="translate(60 5)"
             id="polygon380" />
        </g>
        <text
           x="0"
           y="10"
           class="sb-label "
           transform="translate(104 5)"
           id="text384">to</text>
        <g
           transform="translate(117 4)"
           id="g390">
          <rect
             x="0"
             y="0"
             width="22"
             height="14"
             class="sb-input sb-input-string"
             id="rect386" />
          <text
             x="0"
             y="10"
             class="sb-label sb-literal-string"
             transform="translate(4 0)"
             id="text388">-0.2</text>
        </g>
      </g>
      <g
         transform="translate(2 126)"
         id="g416">
        <path
           d="M 0 3 L 3 0 L 13 0 L 16 3 L 24 3 L 27 0 L 115 0 L 118 3 L 118 19 L 115 22 L 27 22 L 24 25 L 16 25 L 13 22 L 3 22 L 0 19 Z"
           class="sb-variables sb-bevel"
           id="path394" />
        <text
           x="0"
           y="10"
           class="sb-label "
           transform="translate(6 5)"
           id="text396">set</text>
        <g
           transform="translate(30 4)"
           id="g406">
          <g
             width="49"
             height="14"
             class="sb-input sb-input-dropdown"
             id="g400">
            <rect
               x="0"
               y="0"
               width="49"
               height="14"
               class="sb-variables sb-darker"
               id="rect398" />
          </g>
          <text
             x="0"
             y="10"
             class="sb-label sb-literal-dropdown"
             transform="translate(4 0)"
             id="text402">velocity</text>
          <polygon
             points="7 0 3.5 4 0 0"
             fill="#000"
             opacity="0.6"
             transform="translate(39 5)"
             id="polygon404" />
        </g>
        <text
           x="0"
           y="10"
           class="sb-label "
           transform="translate(83 5)"
           id="text408">to</text>
        <g
           transform="translate(96 4)"
           id="g414">
          <rect
             x="0"
             y="0"
             width="16"
             height="14"
             class="sb-input sb-input-string"
             id="rect410" />
          <text
             x="0"
             y="10"
             class="sb-label sb-literal-string"
             transform="translate(4 0)"
             id="text412">10</text>
        </g>
      </g>
    </g>
  </g>
</svg>
