<?xml version="1.0" encoding="UTF-8" standalone="no"?>
<svg
   xmlns:dc="http://purl.org/dc/elements/1.1/"
   xmlns:cc="http://creativecommons.org/ns#"
   xmlns:rdf="http://www.w3.org/1999/02/22-rdf-syntax-ns#"
   xmlns:svg="http://www.w3.org/2000/svg"
   xmlns="http://www.w3.org/2000/svg"
   xmlns:xlink="http://www.w3.org/1999/xlink"
   xmlns:sodipodi="http://sodipodi.sourceforge.net/DTD/sodipodi-0.dtd"
   xmlns:inkscape="http://www.inkscape.org/namespaces/inkscape"
   version="1.1"
   width="169"
   height="151"
   id="svg209"
   sodipodi:docname="stage-init-de.svg"
   inkscape:export-filename="/home/ale/src/dojo-resources/cards-games/dose/images/stage-init-de.png"
   inkscape:export-xdpi="300"
   inkscape:export-ydpi="300"
   inkscape:version="0.92.2 (5c3e80d, 2017-08-06)">
  <metadata
     id="metadata213">
    <rdf:RDF>
      <cc:Work
         rdf:about="">
        <dc:format>image/svg+xml</dc:format>
        <dc:type
           rdf:resource="http://purl.org/dc/dcmitype/StillImage" />
      </cc:Work>
    </rdf:RDF>
  </metadata>
  <sodipodi:namedview
     pagecolor="#ffffff"
     bordercolor="#666666"
     borderopacity="1"
     objecttolerance="10"
     gridtolerance="10"
     guidetolerance="10"
     inkscape:pageopacity="0"
     inkscape:pageshadow="2"
     inkscape:window-width="2238"
     inkscape:window-height="1776"
     id="namedview211"
     showgrid="false"
     inkscape:zoom="9.7193709"
     inkscape:cx="63.305213"
     inkscape:cy="75.5"
     inkscape:window-x="0"
     inkscape:window-y="22"
     inkscape:window-maximized="0"
     inkscape:current-layer="svg209" />
  <defs
     id="defs79">
    <filter
       id="bevelFilter"
       x0="-50%"
       y0="-50%"
       width="200%"
       height="200%">
      <feGaussianBlur
         result="blur-1"
         in="SourceAlpha"
         stdDeviation="1 1"
         id="feGaussianBlur2" />
      <feFlood
         result="flood-2"
         in="undefined"
         flood-color="#fff"
         flood-opacity="0.15"
         id="feFlood4" />
      <feOffset
         result="offset-3"
         in="blur-1"
         dx="1"
         dy="1"
         id="feOffset6" />
      <feComposite
         result="comp-4"
         operator="arithmetic"
         in="SourceAlpha"
         in2="offset-3"
         k2="1"
         k3="-1"
         id="feComposite8" />
      <feComposite
         result="comp-5"
         operator="in"
         in="flood-2"
         in2="comp-4"
         id="feComposite10" />
      <feFlood
         result="flood-6"
         in="undefined"
         flood-color="#000"
         flood-opacity="0.7"
         id="feFlood12" />
      <feOffset
         result="offset-7"
         in="blur-1"
         dx="-1"
         dy="-1"
         id="feOffset14" />
      <feComposite
         result="comp-8"
         operator="arithmetic"
         in="SourceAlpha"
         in2="offset-7"
         k2="1"
         k3="-1"
         id="feComposite16" />
      <feComposite
         result="comp-9"
         operator="in"
         in="flood-6"
         in2="comp-8"
         id="feComposite18" />
      <feMerge
         result="merge-10"
         id="feMerge26">
        <feMergeNode
           in="SourceGraphic"
           id="feMergeNode20" />
        <feMergeNode
           in="comp-5"
           id="feMergeNode22" />
        <feMergeNode
           in="comp-9"
           id="feMergeNode24" />
      </feMerge>
    </filter>
    <filter
       id="inputBevelFilter"
       x0="-50%"
       y0="-50%"
       width="200%"
       height="200%">
      <feGaussianBlur
         result="blur-1"
         in="SourceAlpha"
         stdDeviation="1 1"
         id="feGaussianBlur29" />
      <feFlood
         result="flood-2"
         in="undefined"
         flood-color="#fff"
         flood-opacity="0.15"
         id="feFlood31" />
      <feOffset
         result="offset-3"
         in="blur-1"
         dx="-1"
         dy="-1"
         id="feOffset33" />
      <feComposite
         result="comp-4"
         operator="arithmetic"
         in="SourceAlpha"
         in2="offset-3"
         k2="1"
         k3="-1"
         id="feComposite35" />
      <feComposite
         result="comp-5"
         operator="in"
         in="flood-2"
         in2="comp-4"
         id="feComposite37" />
      <feFlood
         result="flood-6"
         in="undefined"
         flood-color="#000"
         flood-opacity="0.7"
         id="feFlood39" />
      <feOffset
         result="offset-7"
         in="blur-1"
         dx="1"
         dy="1"
         id="feOffset41" />
      <feComposite
         result="comp-8"
         operator="arithmetic"
         in="SourceAlpha"
         in2="offset-7"
         k2="1"
         k3="-1"
         id="feComposite43" />
      <feComposite
         result="comp-9"
         operator="in"
         in="flood-6"
         in2="comp-8"
         id="feComposite45" />
      <feMerge
         result="merge-10"
         id="feMerge53">
        <feMergeNode
           in="SourceGraphic"
           id="feMergeNode47" />
        <feMergeNode
           in="comp-5"
           id="feMergeNode49" />
        <feMergeNode
           in="comp-9"
           id="feMergeNode51" />
      </feMerge>
    </filter>
    <filter
       id="inputDarkFilter"
       x0="-50%"
       y0="-50%"
       width="200%"
       height="200%">
      <feFlood
         result="flood-1"
         in="undefined"
         flood-color="#000"
         flood-opacity="0.2"
         id="feFlood56" />
      <feComposite
         result="comp-2"
         operator="in"
         in="flood-1"
         in2="SourceAlpha"
         id="feComposite58" />
      <feMerge
         result="merge-3"
         id="feMerge64">
        <feMergeNode
           in="SourceGraphic"
           id="feMergeNode60" />
        <feMergeNode
           in="comp-2"
           id="feMergeNode62" />
      </feMerge>
    </filter>
    <path
       d="M1.504 21L0 19.493 4.567 0h1.948l-.5 2.418s1.002-.502 3.006 0c2.006.503 3.008 2.01 6.517 2.01 3.508 0 4.463-.545 4.463-.545l-.823 9.892s-2.137 1.005-5.144.696c-3.007-.307-3.007-2.007-6.014-2.51-3.008-.502-4.512.503-4.512.503L1.504 21z"
       fill="#3f8d15"
       id="greenFlag" />
    <path
       d="M6.724 0C3.01 0 0 2.91 0 6.5c0 2.316 1.253 4.35 3.14 5.5H5.17v-1.256C3.364 10.126 2.07 8.46 2.07 6.5 2.07 4.015 4.152 2 6.723 2c1.14 0 2.184.396 2.993 1.053L8.31 4.13c-.45.344-.398.826.11 1.08L15 8.5 13.858.992c-.083-.547-.514-.714-.963-.37l-1.532 1.172A6.825 6.825 0 0 0 6.723 0z"
       fill="#fff"
       id="turnRight" />
    <path
       d="M3.637 1.794A6.825 6.825 0 0 1 8.277 0C11.99 0 15 2.91 15 6.5c0 2.316-1.253 4.35-3.14 5.5H9.83v-1.256c1.808-.618 3.103-2.285 3.103-4.244 0-2.485-2.083-4.5-4.654-4.5-1.14 0-2.184.396-2.993 1.053L6.69 4.13c.45.344.398.826-.11 1.08L0 8.5 1.142.992c.083-.547.514-.714.963-.37l1.532 1.172z"
       fill="#fff"
       id="turnLeft" />
    <path
       d="M0 0L4 4L0 8Z"
       fill="#111"
       id="addInput" />
    <path
       d="M4 0L4 8L0 4Z"
       fill="#111"
       id="delInput" />
    <g
       id="loopArrow">
      <path
         d="M8 0l2 -2l0 -3l3 0l-4 -5l-4 5l3 0l0 3l-8 0l0 2"
         fill="#000"
         opacity="0.3"
         id="path72" />
      <path
         d="M8 0l2 -2l0 -3l3 0l-4 -5l-4 5l3 0l0 3l-8 0l0 2"
         fill="#fff"
         opacity="0.9"
         transform="translate(-1 -1)"
         id="path74" />
    </g>
    <style
       id="style77"><![CDATA[.sb-label{font-family:Lucida Grande,Verdana,Arial,DejaVu Sans,sans-serif;font-weight:700;fill:#fff;font-size:10px;word-spacing:+1px}.sb-obsolete{fill:#d42828}.sb-motion{fill:#4a6cd4}.sb-looks{fill:#8a55d7}.sb-sound{fill:#bb42c3}.sb-pen{fill:#0e9a6c}.sb-events{fill:#c88330}.sb-control{fill:#e1a91a}.sb-sensing{fill:#2ca5e2}.sb-operators{fill:#5cb712}.sb-variables{fill:#ee7d16}.sb-list{fill:#cc5b22}.sb-custom{fill:#632d99}.sb-custom-arg{fill:#5947b1}.sb-extension{fill:#4b4a60}.sb-grey{fill:#969696}.sb-bevel{filter:url(#bevelFilter)}.sb-input{filter:url(#inputBevelFilter)}.sb-input-number,.sb-input-number-dropdown,.sb-input-string{fill:#fff}.sb-literal-dropdown,.sb-literal-number,.sb-literal-number-dropdown,.sb-literal-string{font-weight:400;font-size:9px;word-spacing:0}.sb-literal-number,.sb-literal-number-dropdown,.sb-literal-string{fill:#000}.sb-darker{filter:url(#inputDarkFilter)}.sb-outline{stroke:#fff;stroke-opacity:.2;stroke-width:2;fill:none}.sb-define-hat-cap{stroke:#632d99;stroke-width:1;fill:#8e2ec2}.sb-comment{fill:#ffffa5;stroke:#d0d1d2;stroke-width:1}.sb-comment-line{fill:#ffff80}.sb-comment-label{font-family:Helevetica,Arial,DejaVu Sans,sans-serif;font-weight:700;fill:#5c5d5f;word-spacing:0;font-size:12px}]]></style>
  </defs>
  <g
     id="g207">
    <g
       transform="translate(0 0)"
       id="g205">
      <g
         transform="translate(2 0)"
         id="g89">
        <path
           d="M 0 12 L 0 12 A 80 80 0 0 1 80 10 L 113 10 L 116 13 L 116 35 L 113 38 L 27 38 L 24 41 L 16 41 L 13 38 L 3 38 L 0 35 Z"
           class="sb-events sb-bevel"
           id="path81" />
        <text
           x="0"
           y="10"
           class="sb-label "
           transform="translate(6 18)"
           id="text83">Wenn</text>
        <use
           xlink:href="#greenFlag"
           transform="translate(37 12)"
           id="use85" />
        <text
           x="0"
           y="10"
           class="sb-label "
           transform="translate(61 18)"
           id="text87">angeklickt</text>
      </g>
      <g
         transform="translate(2 38)"
         id="g113">
        <path
           d="M 0 3 L 3 0 L 13 0 L 16 3 L 24 3 L 27 0 L 111 0 L 114 3 L 114 19 L 111 22 L 27 22 L 24 25 L 16 25 L 13 22 L 3 22 L 0 19 Z"
           class="sb-variables sb-bevel"
           id="path91" />
        <text
           x="0"
           y="10"
           class="sb-label "
           transform="translate(6 5)"
           id="text93">setze</text>
        <g
           transform="translate(35 4)"
           id="g103">
          <g
             width="34"
             height="14"
             class="sb-input sb-input-dropdown"
             id="g97">
            <rect
               x="0"
               y="0"
               width="34"
               height="14"
               class="sb-variables sb-darker"
               id="rect95" />
          </g>
          <text
             x="0"
             y="10"
             class="sb-label sb-literal-dropdown"
             transform="translate(4 0)"
             id="text99">Zeit</text>
          <polygon
             points="7 0 3.5 4 0 0"
             fill="#000"
             opacity="0.6"
             transform="translate(24 5)"
             id="polygon101" />
        </g>
        <text
           x="0"
           y="10"
           class="sb-label "
           transform="translate(73 5)"
           id="text105">auf</text>
        <g
           transform="translate(92 4)"
           id="g111">
          <rect
             x="0"
             y="0"
             width="16"
             height="14"
             class="sb-input sb-input-string"
             id="rect107" />
          <text
             x="0"
             y="10"
             class="sb-label sb-literal-string"
             transform="translate(4 0)"
             id="text109">60</text>
        </g>
      </g>
      <g
         transform="translate(2 60)"
         id="g131">
        <path
           d="M 0 3 L 3 0 L 13 0 L 16 3 L 24 3 L 27 0 L 114 0 L 117 3 L 117 19 L 114 22 L 27 22 L 24 25 L 16 25 L 13 22 L 3 22 L 0 19 Z"
           class="sb-variables sb-bevel"
           id="path115" />
        <text
           x="0"
           y="10"
           class="sb-label "
           transform="translate(6 5)"
           id="text117">zeige</text>
        <text
           x="0"
           y="10"
           class="sb-label "
           transform="translate(35 5)"
           id="text119">Variable</text>
        <g
           transform="translate(77 4)"
           id="g129">
          <g
             width="34"
             height="14"
             class="sb-input sb-input-dropdown"
             id="g123">
            <rect
               x="0"
               y="0"
               width="34"
               height="14"
               class="sb-variables sb-darker"
               id="rect121" />
          </g>
          <text
             x="0"
             y="10"
             class="sb-label sb-literal-dropdown"
             transform="translate(4 0)"
             id="text125">Zeit</text>
          <polygon
             points="7 0 3.5 4 0 0"
             fill="#000"
             opacity="0.6"
             transform="translate(24 5)"
             id="polygon127" />
        </g>
      </g>
      <g
         transform="translate(2 82)"
         id="g155">
        <path
           d="M 0 3 L 3 0 L 13 0 L 16 3 L 24 3 L 27 0 L 122 0 L 125 3 L 125 19 L 122 22 L 27 22 L 24 25 L 16 25 L 13 22 L 3 22 L 0 19 Z"
           class="sb-variables sb-bevel"
           id="path133" />
        <text
           x="0"
           y="10"
           class="sb-label "
           transform="translate(6 5)"
           id="text135">setze</text>
        <g
           transform="translate(35 4)"
           id="g145">
          <g
             width="47"
             height="14"
             class="sb-input sb-input-dropdown"
             id="g139">
            <rect
               x="0"
               y="0"
               width="47"
               height="14"
               class="sb-variables sb-darker"
               id="rect137" />
          </g>
          <text
             x="0"
             y="10"
             class="sb-label sb-literal-dropdown"
             transform="translate(4 0)"
             id="text141">Punkte</text>
          <polygon
             points="7 0 3.5 4 0 0"
             fill="#000"
             opacity="0.6"
             transform="translate(37 5)"
             id="polygon143" />
        </g>
        <text
           x="0"
           y="10"
           class="sb-label "
           transform="translate(86 5)"
           id="text147">auf</text>
        <g
           transform="translate(105 4)"
           id="g153">
          <rect
             x="0"
             y="0"
             width="14"
             height="14"
             class="sb-input sb-input-string"
             id="rect149" />
          <text
             x="0"
             y="10"
             class="sb-label sb-literal-string"
             transform="translate(4 0)"
             id="text151">0</text>
        </g>
      </g>
      <g
         transform="translate(2 104)"
         id="g179">
        <path
           d="M 0 3 L 3 0 L 13 0 L 16 3 L 24 3 L 27 0 L 147 0 L 150 3 L 150 19 L 147 22 L 27 22 L 24 25 L 16 25 L 13 22 L 3 22 L 0 19 Z"
           class="sb-variables sb-bevel"
           id="path157" />
        <text
           x="0"
           y="10"
           class="sb-label "
           transform="translate(6 5)"
           id="text159">setze</text>
        <g
           transform="translate(35 4)"
           id="g169">
          <g
             width="64"
             height="14"
             class="sb-input sb-input-dropdown"
             id="g163">
            <rect
               x="0"
               y="0"
               width="64"
               height="14"
               class="sb-variables sb-darker"
               id="rect161" />
          </g>
          <text
             x="0"
             y="10"
             class="sb-label sb-literal-dropdown"
             transform="translate(4 0)"
             id="text165">runterfallen</text>
          <polygon
             points="7 0 3.5 4 0 0"
             fill="#000"
             opacity="0.6"
             transform="translate(54 5)"
             id="polygon167" />
        </g>
        <text
           x="0"
           y="10"
           class="sb-label "
           transform="translate(103 5)"
           id="text171">auf</text>
        <g
           transform="translate(122 4)"
           id="g177">
          <rect
             x="0"
             y="0"
             width="22"
             height="14"
             class="sb-input sb-input-string"
             id="rect173" />
          <text
             x="0"
             y="10"
             class="sb-label sb-literal-string"
             transform="translate(4 0)"
             id="text175">-0.2</text>
        </g>
      </g>
      <g
         transform="translate(2 126)"
         id="g203">
        <path
           d="M 0 3 L 3 0 L 13 0 L 16 3 L 24 3 L 27 0 L 162 0 L 165 3 L 165 19 L 162 22 L 27 22 L 24 25 L 16 25 L 13 22 L 3 22 L 0 19 Z"
           class="sb-variables sb-bevel"
           id="path181" />
        <text
           x="0"
           y="10"
           class="sb-label "
           transform="translate(6 5)"
           id="text183">setze</text>
        <g
           transform="translate(35 4)"
           id="g193">
          <g
             width="85"
             height="14"
             class="sb-input sb-input-dropdown"
             id="g187">
            <rect
               x="0"
               y="0"
               width="85"
               height="14"
               class="sb-variables sb-darker"
               id="rect185" />
          </g>
          <text
             x="0"
             y="10"
             class="sb-label sb-literal-dropdown"
             transform="translate(4 0)"
             id="text189">Geschwindigkeit</text>
          <polygon
             points="7 0 3.5 4 0 0"
             fill="#000"
             opacity="0.6"
             transform="translate(75 5)"
             id="polygon191" />
        </g>
        <text
           x="0"
           y="10"
           class="sb-label "
           transform="translate(124 5)"
           id="text195">auf</text>
        <g
           transform="translate(143 4)"
           id="g201">
          <rect
             x="0"
             y="0"
             width="16"
             height="14"
             class="sb-input sb-input-string"
             id="rect197" />
          <text
             x="0"
             y="10"
             class="sb-label sb-literal-string"
             transform="translate(4 0)"
             id="text199">10</text>
        </g>
      </g>
    </g>
  </g>
</svg>
