<svg version="1.1" width="453" height="406" viewBox="1 -1 453 406" xmlns="http://www.w3.org/2000/svg" xmlns:xlink="http://www.w3.org/1999/xlink">
  <!-- Exported by Scratch - http://scratch.mit.edu/ -->
  <path id="ID0.1484164772555232" fill="#003FFF" stroke="#003FFF" stroke-width="2" d="M 43 141 L 90 141 L 90 188 L 43 188 L 43 141 Z " transform="matrix(1.0193877220153809, 0, 0, 1.0193877220153809, 74.25, -86.6)"/>
  <path id="ID0.1484164772555232" fill="#003FFF" stroke="#003FFF" stroke-width="2" d="M 43 141 L 90 141 L 90 188 L 43 188 L 43 141 Z " transform="matrix(1.0193877220153809, 0, 0, 1.0193877220153809, 124.6, -86.9)"/>
  <path id="ID0.1484164772555232" fill="#003FFF" stroke="#003FFF" stroke-width="2" d="M 43 141 L 90 141 L 90 188 L 43 188 L 43 141 Z " transform="matrix(1.0193877220153809, 0, 0, 1.0193877220153809, 174.05, -87)"/>
  <path id="ID0.1484164772555232" fill="#003FFF" stroke="#003FFF" stroke-width="2" d="M 43 141 L 90 141 L 90 188 L 43 188 L 43 141 Z " transform="matrix(1.0193877220153809, 0, 0, 1.0193877220153809, 272.05, -89)"/>
  <path id="ID0.1484164772555232" fill="#003FFF" stroke="#003FFF" stroke-width="2" d="M 43 141 L 90 141 L 90 188 L 43 188 L 43 141 Z " transform="matrix(1.0193877220153809, 0, 0, 1.0193877220153809, 272, -39.1)"/>
  <path id="ID0.1484164772555232" fill="#003FFF" stroke="#003FFF" stroke-width="2" d="M 43 141 L 90 141 L 90 188 L 43 188 L 43 141 Z " transform="matrix(1.0193877220153809, 0, 0, 1.0193877220153809, 272.45, 10.8)"/>
  <path id="ID0.1484164772555232" fill="#003FFF" stroke="#003FFF" stroke-width="2" d="M 43 141 L 90 141 L 90 188 L 43 188 L 43 141 Z " transform="matrix(1.0193877220153809, 0, 0, 1.0193877220153809, 272.15, 61.2)"/>
  <path id="ID0.1484164772555232" fill="#003FFF" stroke="#003FFF" stroke-width="2" d="M 43 141 L 90 141 L 90 188 L 43 188 L 43 141 Z " transform="matrix(1.0193877220153809, 0, 0, 1.0193877220153809, 222.25, 11.4)"/>
  <path id="ID0.1484164772555232" fill="#003FFF" stroke="#003FFF" stroke-width="2" d="M 43 141 L 90 141 L 90 188 L 43 188 L 43 141 Z " transform="matrix(1.0193877220153809, 0, 0, 1.0193877220153809, 72, 12.9)"/>
  <path id="ID0.1484164772555232" fill="#003FFF" stroke="#003FFF" stroke-width="2" d="M 43 141 L 90 141 L 90 188 L 43 188 L 43 141 Z " transform="matrix(1.0193877220153809, 0, 0, 1.0193877220153809, 122.55, 13)"/>
  <path id="ID0.1484164772555232" fill="#003FFF" stroke="#003FFF" stroke-width="2" d="M 43 141 L 90 141 L 90 188 L 43 188 L 43 141 Z " transform="matrix(1.0193877220153809, 0, 0, 1.0193877220153809, 72.1, 63.1)"/>
  <path id="ID0.1484164772555232" fill="#003FFF" stroke="#003FFF" stroke-width="2" d="M 43 141 L 90 141 L 90 188 L 43 188 L 43 141 Z " transform="matrix(1.0193877220153809, 0, 0, 1.0193877220153809, 172.4, 115.1)"/>
  <path id="ID0.1484164772555232" fill="#003FFF" stroke="#003FFF" stroke-width="2" d="M 43 141 L 90 141 L 90 188 L 43 188 L 43 141 Z " transform="matrix(1.0193877220153809, 0, 0, 1.0193877220153809, 373.2, 115.3)"/>
  <path id="ID0.1484164772555232" fill="#003FFF" stroke="#003FFF" stroke-width="2" d="M 43 141 L 90 141 L 90 188 L 43 188 L 43 141 Z " transform="matrix(1.0193877220153809, 0, 0, 1.0193877220153809, 373.2, -34.7)"/>
  <path id="ID0.1484164772555232" fill="#003FFF" stroke="#003FFF" stroke-width="2" d="M 43 141 L 90 141 L 90 188 L 43 188 L 43 141 Z " transform="matrix(1.0193877220153809, 0, 0, 1.0193877220153809, 373.2, -84.7)"/>
  <path id="ID0.1484164772555232" fill="#003FFF" stroke="#003FFF" stroke-width="2" d="M 43 141 L 90 141 L 90 188 L 43 188 L 43 141 Z " transform="matrix(1.0193877220153809, 0, 0, 1.0193877220153809, 373.2, 66.3)"/>
  <path id="ID0.1484164772555232" fill="#003FFF" stroke="#003FFF" stroke-width="2" d="M 43 141 L 90 141 L 90 188 L 43 188 L 43 141 Z " transform="matrix(1.0193877220153809, 0, 0, 1.0193877220153809, 373.2, -134.7)"/>
  <path id="ID0.1484164772555232" fill="#003FFF" stroke="#003FFF" stroke-width="2" d="M 43 141 L 90 141 L 90 188 L 43 188 L 43 141 Z " transform="matrix(1.0193877220153809, 0, 0, 1.0193877220153809, -26.8, -132.7)"/>
  <path id="ID0.1484164772555232" fill="#003FFF" stroke="#003FFF" stroke-width="2" d="M 43 141 L 90 141 L 90 188 L 43 188 L 43 141 Z " transform="matrix(1.0193877220153809, 0, 0, 1.0193877220153809, -26.8, -82.7)"/>
  <path id="ID0.1484164772555232" fill="#003FFF" stroke="#003FFF" stroke-width="2" d="M 43 141 L 90 141 L 90 188 L 43 188 L 43 141 Z " transform="matrix(1.0193877220153809, 0, 0, 1.0193877220153809, -26.8, -32.7)"/>
  <path id="ID0.1484164772555232" fill="#003FFF" stroke="#003FFF" stroke-width="2" d="M 43 141 L 90 141 L 90 188 L 43 188 L 43 141 Z " transform="matrix(1.0193877220153809, 0, 0, 1.0193877220153809, -26.8, 65.3)"/>
  <path id="ID0.1484164772555232" fill="#003FFF" stroke="#003FFF" stroke-width="2" d="M 43 141 L 90 141 L 90 188 L 43 188 L 43 141 Z " transform="matrix(1.0193877220153809, 0, 0, 1.0193877220153809, -26.8, 115.3)"/>
  <path id="ID0.1484164772555232" fill="#003FFF" stroke="#003FFF" stroke-width="2" d="M 43 141 L 90 141 L 90 188 L 43 188 L 43 141 Z " transform="matrix(9.286734580993652, 0, 0, 1.0193877220153809, -377, -184.7)"/>
  <path id="ID0.1484164772555232" fill="#003FFF" stroke="#003FFF" stroke-width="2" d="M 43 141 L 90 141 L 90 188 L 43 188 L 43 141 Z " transform="matrix(9.286734580993652, 0, 0, 1.0193877220153809, -376.6, 170.3)"/>
  <path id="ID0.1484164772555232" fill="#FF9400" stroke="#FF9400" stroke-width="2" d="M 43 141 L 90 141 L 90 188 L 43 188 L 43 141 Z " transform="matrix(0.3255102038383484, 0, 0, 1.0193877220153809, 419.65, 15.3)"/>
  <path id="ID0.1484164772555232" fill="#FF9400" stroke="#FF9400" stroke-width="2" d="M 43 141 L 90 141 L 90 188 L 43 188 L 43 141 Z " transform="matrix(0.3255102038383484, 0, 0, 1.0193877220153809, 19.35, 15.3)"/>
</svg>