<svg version="1.1" width="52" height="39" viewBox="-1 -1 52 39" xmlns="http://www.w3.org/2000/svg" xmlns:xlink="http://www.w3.org/1999/xlink">
  <!-- Exported by Scratch - http://scratch.mit.edu/ -->
  <path id="ID0.5367275192402303" fill="#FF99E5" stroke="#000000" stroke-width="2" stroke-linecap="round" d="M 244.500 146 C 249.919 146.011 256.036 146.607 260.350 150 C 264.710 153.463 267.466 159.303 268.350 164.850 C 269.017 169.045 267.752 175.755 264.650 176.850 C 261.827 177.755 260.268 168.116 256.500 168.850 C 250.976 169.944 250.330 181.137 244.650 181 C 238.913 180.969 238.383 169.633 232.750 168.500 C 228.897 167.727 227.769 177.668 224.750 176.850 C 221.319 175.968 219.270 169.303 219.850 165.100 C 220.642 159.357 223.647 153.458 228.250 149.850 C 232.619 146.506 238.938 145.991 244.500 146 Z " transform="matrix(1, 0, 0, 1, -218.5, -144.5)"/>
  <path id="ID0.029886949341744184" fill="#FFFFFF" stroke="#000000" d="M 198.875 156.200 C 199.737 156.200 200.518 156.550 201.084 157.116 C 201.650 157.682 202 158.463 202 159.325 C 202 160.187 201.650 160.968 201.084 161.534 C 200.518 162.100 199.737 162.450 198.875 162.450 C 198.013 162.450 197.232 162.100 196.666 161.534 C 196.100 160.968 195.750 160.187 195.750 159.325 C 195.750 158.463 196.100 157.682 196.666 157.116 C 197.232 156.550 198.013 156.200 198.875 156.200 Z " transform="matrix(1.5609755516052246, 0, 0, 1.5609755516052246, -293.35, -236.9)"/>
  <path id="ID0.029886949341744184" fill="#FFFFFF" stroke="#000000" d="M 198.875 156.200 C 199.737 156.200 200.518 156.550 201.084 157.116 C 201.650 157.682 202 158.463 202 159.325 C 202 160.187 201.650 160.968 201.084 161.534 C 200.518 162.100 199.737 162.450 198.875 162.450 C 198.013 162.450 197.232 162.100 196.666 161.534 C 196.100 160.968 195.750 160.187 195.750 159.325 C 195.750 158.463 196.100 157.682 196.666 157.116 C 197.232 156.550 198.013 156.200 198.875 156.200 Z " transform="matrix(1.5609755516052246, 0, 0, 1.5609755516052246, -275.55, -236.65)"/>
</svg>