<?xml version="1.0" encoding="UTF-8" standalone="no"?>
<svg
   xmlns:dc="http://purl.org/dc/elements/1.1/"
   xmlns:cc="http://creativecommons.org/ns#"
   xmlns:rdf="http://www.w3.org/1999/02/22-rdf-syntax-ns#"
   xmlns:svg="http://www.w3.org/2000/svg"
   xmlns="http://www.w3.org/2000/svg"
   xmlns:sodipodi="http://sodipodi.sourceforge.net/DTD/sodipodi-0.dtd"
   xmlns:inkscape="http://www.inkscape.org/namespaces/inkscape"
   id="svg8"
   version="1.1"
   viewBox="0 0 202.13055 278.65448"
   height="278.65448mm"
   width="202.13055mm"
   sodipodi:docname="projects-output.svg"
   inkscape:version="0.92.3 (2405546, 2018-03-11)">
  <sodipodi:namedview
     pagecolor="#ffffff"
     bordercolor="#666666"
     borderopacity="1"
     objecttolerance="10"
     gridtolerance="10"
     guidetolerance="10"
     inkscape:pageopacity="0"
     inkscape:pageshadow="2"
     inkscape:window-width="2078"
     inkscape:window-height="1776"
     id="namedview6507"
     showgrid="false"
     inkscape:zoom="0.69675735"
     inkscape:cx="390.10237"
     inkscape:cy="193.90112"
     inkscape:window-x="0"
     inkscape:window-y="22"
     inkscape:window-maximized="0"
     inkscape:current-layer="svg8" />
  <defs
     id="defs2">
    <filter
       id="filter3232">
      <feGaussianBlur
         stdDeviation="4.3283459"
         id="feGaussianBlur3234" />
    </filter>
  </defs>
  <metadata
     id="metadata5">
    <rdf:RDF>
      <cc:Work
         rdf:about="">
        <dc:format>image/svg+xml</dc:format>
        <dc:type
           rdf:resource="http://purl.org/dc/dcmitype/StillImage" />
        <dc:title />
      </cc:Work>
    </rdf:RDF>
  </metadata>
  <text
     xml:space="preserve"
     style="font-style:normal;font-variant:normal;font-weight:normal;font-stretch:normal;font-size:4.58611107px;line-height:6.61458302px;font-family:NeulandFont_2017;-inkscape-font-specification:NeulandFont_2017;letter-spacing:0px;word-spacing:0px;fill:#000000;fill-opacity:1;stroke:none;stroke-width:0.26458332px;stroke-linecap:butt;stroke-linejoin:miter;stroke-opacity:1"
     x="5.2927294"
     y="38.816776"
     id="text839"><tspan
       id="tspan837"
       x="5.2927294"
       y="38.816776"
       style="font-style:normal;font-variant:normal;font-weight:normal;font-stretch:normal;font-family:NeulandFont_2017;-inkscape-font-specification:NeulandFont_2017;stroke-width:0.26458332px">Das</tspan><tspan
       x="5.2927294"
       y="45.431358"
       style="font-style:normal;font-variant:normal;font-weight:normal;font-stretch:normal;font-family:NeulandFont_2017;-inkscape-font-specification:NeulandFont_2017;stroke-width:0.26458332px"
       id="tspan86">Endprodukt</tspan></text>
  <text
     id="text847"
     y="38.901485"
     x="121.32702"
     style="font-style:normal;font-variant:normal;font-weight:normal;font-stretch:normal;font-size:4.58611107px;line-height:6.61458302px;font-family:Inconsolata;-inkscape-font-specification:Inconsolata;letter-spacing:0px;word-spacing:0px;fill:#000000;fill-opacity:1;stroke:none;stroke-width:0.26458332px;stroke-linecap:butt;stroke-linejoin:miter;stroke-opacity:1"
     xml:space="preserve"><tspan
       id="tspan845"
       style="font-style:normal;font-variant:normal;font-weight:normal;font-stretch:normal;font-family:NeulandFont_2017;-inkscape-font-specification:NeulandFont_2017;stroke-width:0.26458332px"
       y="38.901485"
       x="121.32702">Problem /</tspan><tspan
       style="font-style:normal;font-variant:normal;font-weight:normal;font-stretch:normal;font-family:NeulandFont_2017;-inkscape-font-specification:NeulandFont_2017;stroke-width:0.26458332px"
       y="45.837097"
       x="121.32702"
       id="tspan851">Fragestellung</tspan></text>
  <flowRoot
     xml:space="preserve"
     id="flowRoot853"
     style="font-style:normal;font-variant:normal;font-weight:normal;font-stretch:normal;font-size:17.33333397px;line-height:25px;font-family:Inconsolata;-inkscape-font-specification:Inconsolata;letter-spacing:0px;word-spacing:0px;fill:#000000;fill-opacity:1;stroke:none;stroke-width:1px;stroke-linecap:butt;stroke-linejoin:miter;stroke-opacity:1"
     transform="translate(-3.0671637,-3.5801775)"><flowRegion
       id="flowRegion855"><rect
         id="rect857"
         width="44.642857"
         height="42.142857"
         x="482.14285"
         y="352.87683" /></flowRegion><flowPara
       id="flowPara859" /></flowRoot>  <text
     xml:space="preserve"
     style="font-style:normal;font-variant:normal;font-weight:normal;font-stretch:normal;font-size:4.58611107px;line-height:6.61458302px;font-family:Inconsolata;-inkscape-font-specification:Inconsolata;letter-spacing:0px;word-spacing:0px;fill:#000000;fill-opacity:1;stroke:none;stroke-width:0.26458332px;stroke-linecap:butt;stroke-linejoin:miter;stroke-opacity:1"
     x="122.23927"
     y="182.77022"
     id="text874"><tspan
       x="122.23927"
       y="182.77022"
       style="font-style:normal;font-variant:normal;font-weight:normal;font-stretch:normal;font-family:NeulandFont_2017;-inkscape-font-specification:NeulandFont_2017;stroke-width:0.26458332px"
       id="tspan1590">Daten &amp;</tspan><tspan
       x="122.23927"
       y="189.3848"
       style="font-style:normal;font-variant:normal;font-weight:normal;font-stretch:normal;font-family:NeulandFont_2017;-inkscape-font-specification:NeulandFont_2017;stroke-width:0.26458332px"
       id="tspan876">Technologien</tspan></text>
  <text
     id="text890"
     y="160.77292"
     x="6.7787542"
     style="font-style:normal;font-variant:normal;font-weight:normal;font-stretch:normal;font-size:4.58611107px;line-height:6.61458302px;font-family:Inconsolata;-inkscape-font-specification:Inconsolata;letter-spacing:0px;word-spacing:0px;fill:#000000;fill-opacity:1;stroke:none;stroke-width:0.26458332px;stroke-linecap:butt;stroke-linejoin:miter;stroke-opacity:1"
     xml:space="preserve"><tspan
       id="tspan888"
       style="font-style:normal;font-variant:normal;font-weight:normal;font-stretch:normal;font-family:NeulandFont_2017;-inkscape-font-specification:NeulandFont_2017;stroke-width:0.26458332px"
       y="160.77292"
       x="6.7787542">Was brauchen</tspan><tspan
       style="font-style:normal;font-variant:normal;font-weight:normal;font-stretch:normal;font-family:NeulandFont_2017;-inkscape-font-specification:NeulandFont_2017;stroke-width:0.26458332px"
       y="167.70853"
       x="6.7787542"
       id="tspan894">wir noch?</tspan></text>
  <text
     xml:space="preserve"
     style="font-style:normal;font-variant:normal;font-weight:normal;font-stretch:normal;font-size:4.58611107px;line-height:6.61458302px;font-family:Inconsolata;-inkscape-font-specification:Inconsolata;letter-spacing:0px;word-spacing:0px;fill:#000000;fill-opacity:1;stroke:none;stroke-width:0.26458332px;stroke-linecap:butt;stroke-linejoin:miter;stroke-opacity:1"
     x="8.0449753"
     y="231.09558"
     id="text902"><tspan
       x="8.0449753"
       y="231.09558"
       style="font-style:normal;font-variant:normal;font-weight:normal;font-stretch:normal;font-family:NeulandFont_2017;-inkscape-font-specification:NeulandFont_2017;stroke-width:0.26458332px"
       id="tspan3543">Wer macht mit?</tspan></text>
  <g
     id="g2861"
     transform="translate(46.334722,12.455995)">
    <path
       inkscape:connector-curvature="0"
       id="path878"
       d="m 140.3165,167.64155 c -0.13363,0.26727 0,6.5481 0,6.5481"
       style="fill:none;fill-rule:evenodd;stroke:#000000;stroke-width:0.26458332px;stroke-linecap:butt;stroke-linejoin:miter;stroke-opacity:1" />
    <path
       inkscape:connector-curvature="0"
       id="path880"
       d="m 138.7797,173.32102 h 8.81989"
       style="fill:none;fill-rule:evenodd;stroke:#000000;stroke-width:0.26458332px;stroke-linecap:butt;stroke-linejoin:miter;stroke-opacity:1" />
    <path
       inkscape:connector-curvature="0"
       id="path882"
       d="m 140.3165,173.48807 c 0,0 0.16704,-2.60588 0.66817,-2.23839 0.50113,0.3675 0.46773,0.30068 0.53454,0.43432 0.0668,0.13363 0.60136,0.60135 0.96886,-0.13364 0.36749,-0.73499 0.43431,-2.60587 1.20271,-1.43657"
       style="fill:none;fill-rule:evenodd;stroke:#000000;stroke-width:0.26458332px;stroke-linecap:butt;stroke-linejoin:miter;stroke-opacity:1" />
    <g
       transform="matrix(0.37642051,0,0,0.37642051,96.775841,102.20407)"
       id="g1589">
      <path
         inkscape:connector-curvature="0"
         id="path995"
         d="m 138.13517,171.06589 c 0,-0.0265 0,-0.0265 0,-0.0265 -0.39687,-0.52916 -0.87312,-0.97896 -1.42875,-1.40229 v 0.0265 c -0.44979,0.34396 -0.89958,0.71437 -1.32291,1.08479 -0.18521,-0.10583 -0.34396,-0.18521 -0.50271,-0.26458 -0.21167,-0.10584 -0.42333,-0.21167 -0.66146,-0.26459 -0.0794,-0.0265 -0.15875,-0.0529 -0.23812,-0.0529 -0.0529,-0.58209 -0.10584,-1.16417 -0.18521,-1.74625 -0.26459,-0.0529 -0.52917,-0.0529 -0.82021,-0.0794 -0.0794,0 -0.15875,0 -0.21167,0 -0.0794,0 -0.15875,0 -0.21166,0 -0.26459,0.0265 -0.50271,0.0265 -0.74084,0.0794 -0.0794,0.55562 -0.13229,1.13771 -0.15875,1.71979 -0.10583,0 -0.18521,0.0265 -0.29104,0.0529 -0.0265,0 -0.0529,0 -0.0794,0.0265 -0.21167,0.0529 -0.42334,0.15875 -0.635,0.26459 -0.18521,0.0794 -0.34396,0.15875 -0.50271,0.26458 -0.44979,-0.37042 -0.87313,-0.71437 -1.32292,-1.08479 0,0 0,0 -0.0265,-0.0265 -0.10583,0.0794 -0.21166,0.15875 -0.29104,0.23813 -0.18521,0.13229 -0.34396,0.29104 -0.47625,0.44979 -0.23812,0.21166 -0.42333,0.47625 -0.635,0.74083 0,0 0,0 0.0265,0 0.34396,0.44979 0.71437,0.87313 1.08479,1.32292 -0.10583,0.15875 -0.21167,0.34396 -0.29104,0.50271 -0.10583,0.21166 -0.18521,0.44979 -0.23813,0.66145 -0.0529,0.10584 -0.0794,0.21167 -0.0794,0.29105 -0.58208,0.0529 -1.16417,0.10583 -1.71979,0.1852 -0.0529,0.26459 -0.0794,0.52917 -0.0794,0.82021 0,0.39688 0.0265,0.79375 0.10584,1.16417 0.55562,0.0529 1.11125,0.10583 1.69333,0.15875 0,0.10583 0.0265,0.21167 0.0794,0.29104 0.0529,0.23813 0.1323,0.44979 0.23813,0.68792 0.10583,0.18521 0.18521,0.37041 0.3175,0.52916 -0.37042,0.4498 -0.74083,0.87313 -1.08479,1.32292 0.39687,0.55563 0.87312,1.03188 1.42875,1.42875 v -0.0265 c 0.42333,-0.34396 0.87312,-0.71437 1.29646,-1.08479 h 0.0264 c 0.1323,0.0794 0.29105,0.15875 0.42334,0.23813 0.23812,0.10583 0.50271,0.21166 0.74083,0.26458 0.10583,0.0265 0.18521,0.0529 0.26458,0.0794 0.0529,0.55563 0.10584,1.13771 0.18521,1.7198 0.23813,0.0265 0.47625,0.0529 0.74084,0.0529 0.0529,0 0.21166,0 0.39687,0 0.29104,0 0.58208,-0.0265 0.87313,-0.0794 0.0529,-0.55563 0.10583,-1.13771 0.15875,-1.7198 0.0794,-0.0265 0.15875,-0.0529 0.23812,-0.0794 v 0 c 0.23813,-0.0529 0.44979,-0.13229 0.66146,-0.23812 0.18521,-0.0794 0.37042,-0.18521 0.55562,-0.3175 0,0.0265 0,0.0265 0.0265,0.0265 0.42334,0.37041 0.87313,0.74083 1.32292,1.08479 0.0794,-0.0529 0.15875,-0.10583 0.26458,-0.18521 0.15875,-0.13229 0.3175,-0.29104 0.44979,-0.44979 0.23813,-0.23813 0.47625,-0.50271 0.68792,-0.79375 -0.37042,-0.44979 -0.74083,-0.89958 -1.11125,-1.32292 0,-0.0265 0,-0.0265 0,-0.0265 0.0794,-0.1323 0.15875,-0.29105 0.23813,-0.4498 0.0794,-0.21166 0.1852,-0.42333 0.23812,-0.635 0,-0.0264 0,-0.0529 0.0265,-0.0529 0,-0.10584 0.0265,-0.18521 0.0529,-0.23813 0.58208,-0.0529 1.16417,-0.10583 1.71979,-0.15875 0.0529,-0.26458 0.0529,-0.52916 0.0794,-0.79375 0,-0.0794 0,-0.15875 0,-0.23812 0,-0.0529 0,-0.13229 0,-0.21167 -0.0265,-0.26458 -0.0265,-0.52916 -0.0794,-0.79374 -0.55563,-0.0529 -1.13771,-0.10584 -1.71979,-0.15875 -0.0265,-0.0794 -0.0529,-0.15875 -0.0529,-0.23813 -0.0794,-0.23812 -0.15875,-0.47625 -0.26459,-0.71437 -0.0794,-0.15875 -0.1852,-0.34396 -0.26458,-0.50271 0.34396,-0.42334 0.71438,-0.87313 1.08479,-1.32292 z m -7.06437,2.19604 c 0.47625,-0.50271 1.05833,-0.74083 1.71979,-0.71437 0.68792,-0.0265 1.24354,0.21166 1.74625,0.71437 0.47625,0.47625 0.71438,1.05834 0.71438,1.71979 0,0.68792 -0.23813,1.24355 -0.71438,1.74625 -0.50271,0.47625 -1.05833,0.71438 -1.74625,0.71438 -0.66146,0 -1.24354,-0.23813 -1.71979,-0.71438 -0.47625,-0.5027 -0.71438,-1.05833 -0.71438,-1.74625 0,-0.66145 0.23813,-1.24354 0.71438,-1.71979 z"
         style="stroke-width:0.26458332" />
      <path
         inkscape:connector-curvature="0"
         id="path997"
         d="m 132.81705,172.89152 c -0.58208,0 -1.05833,0.21166 -1.48167,0.60854 -0.39687,0.42333 -0.60854,0.89958 -0.60854,1.48166 0,0.58209 0.21167,1.05834 0.60854,1.48167 v 0 c 0.42334,0.42333 0.89959,0.635 1.48167,0.635 0.58208,0 1.05833,-0.21167 1.48167,-0.635 v 0 c 0.42333,-0.42333 0.60854,-0.89958 0.60854,-1.48167 v 0 c 0,-0.58208 -0.18521,-1.05833 -0.60854,-1.48166 -0.42334,-0.39688 -0.89959,-0.60854 -1.48167,-0.60854 z m -1.11125,0.97895 c 0.3175,-0.29104 0.68792,-0.44979 1.11125,-0.44979 0.42333,0 0.79375,0.15875 1.11125,0.44979 0.3175,0.3175 0.44979,0.66146 0.44979,1.11125 v 0 c 0,0.4498 -0.13229,0.82021 -0.44979,1.11125 -0.3175,0.3175 -0.68792,0.47625 -1.11125,0.47625 -0.42333,0 -0.79375,-0.15875 -1.11125,-0.47625 -0.29104,-0.29104 -0.44979,-0.66145 -0.44979,-1.11125 0,-0.42333 0.15875,-0.79375 0.44979,-1.11125 z"
         style="stroke-width:0.26458332" />
    </g>
  </g>
  <path
     inkscape:connector-curvature="0"
     style="fill:#f5f5f5;stroke:#000000;stroke-width:0.26458332px;stroke-linecap:butt;stroke-linejoin:miter;stroke-opacity:1"
     d="M 1.1798965,0.5146605 C 10.563236,0.6769745 191.40268,0.5800405 200.77761,0.1390495 200.3677,7.2270945 201.19516,14.25247 201.22918,21.248453 191.67742,20.7911 10.662598,21.042265 1.1046325,20.947963 0.7981475,14.148984 0.5534925,6.7321145 1.1798925,0.5146605 Z"
     id="path2985" />
  <text
     xml:space="preserve"
     style="font-style:normal;font-variant:normal;font-weight:normal;font-stretch:normal;font-size:4.58611107px;line-height:6.61458302px;font-family:Inconsolata;-inkscape-font-specification:Inconsolata;letter-spacing:0px;word-spacing:0px;fill:#000000;fill-opacity:1;stroke:none;stroke-width:0.26458332px;stroke-linecap:butt;stroke-linejoin:miter;stroke-opacity:1"
     x="23.580158"
     y="-34.285534"
     id="text2814"><tspan
       id="tspan2812"
       x="23.580158"
       y="-29.510687"
       style="stroke-width:0.26458332px" /></text>
  <path
     inkscape:connector-curvature="0"
     id="path2845"
     d="m 0.894507,32.156738 c 9.383331,0.16231 75.393575,0.0654 84.768499,-0.375611 -0.40991,7.088041 0.41755,100.896753 0.45157,107.892733 -9.551754,-0.45735 -75.737378,-0.20619 -85.295329,-0.30049 -0.30648,-6.79898 -0.55114,-100.999182 0.0753,-107.216632 z"
     style="fill:none;stroke:#000000;stroke-width:0.26458332px;stroke-linecap:butt;stroke-linejoin:miter;stroke-opacity:1" />
  <path
     inkscape:connector-curvature="0"
     style="fill:none;stroke:#000000;stroke-width:0.26458332px;stroke-linecap:butt;stroke-linejoin:miter;stroke-opacity:1"
     d="m 117.10841,31.889467 c 9.38333,0.16231 75.39358,0.0654 84.7685,-0.37561 -0.40991,7.08804 0.41755,100.896753 0.45157,107.892733 -9.55175,-0.45735 -75.73738,-0.20619 -85.29533,-0.30049 -0.30648,-6.79898 -0.55114,-100.999182 0.0753,-107.216632 z"
     id="path2851" />
  <path
     inkscape:connector-curvature="0"
     id="path2853"
     d="m 117.07083,173.11523 c 9.38333,0.16231 75.39358,0.0654 84.7685,-0.37561 -0.40991,7.08804 0.41755,98.78008 0.45157,105.77606 -9.55175,-0.45735 -75.73738,-0.20619 -85.29533,-0.30049 -0.30648,-6.79898 -0.55114,-98.88251 0.0753,-105.09996 z"
     style="fill:none;stroke:#000000;stroke-width:0.26458332px;stroke-linecap:butt;stroke-linejoin:miter;stroke-opacity:1" />
  <path
     inkscape:connector-curvature="0"
     style="fill:none;stroke:#000000;stroke-width:0.26458332px;stroke-linecap:butt;stroke-linejoin:miter;stroke-opacity:1"
     d="m 1.1617765,151.34817 c 9.3833315,0.16231 75.3935755,0.0654 84.7684995,-0.37561 -0.40991,7.08804 0.41755,52.21342 0.45157,59.2094 -9.551754,-0.45735 -75.737378,-0.20619 -85.2953295,-0.30049 -0.30648,-6.79898 -0.55114,-52.31585 0.0753,-58.5333 z"
     id="path2863" />
  <path
     inkscape:connector-curvature="0"
     id="path2865"
     d="m 0.894507,221.68295 c 9.383331,0.16231 75.393575,0.0654 84.768499,-0.37561 -0.40991,7.08804 0.41755,50.09675 0.45157,57.09273 -9.551754,-0.45735 -75.737378,-0.20619 -85.295329,-0.30049 -0.30648,-6.79898 -0.55114,-50.19918 0.0753,-56.41663 z"
     style="fill:none;stroke:#000000;stroke-width:0.26458332px;stroke-linecap:butt;stroke-linejoin:miter;stroke-opacity:1" />
  <g
     id="g3541"
     transform="matrix(0.35374038,0,0,0.35374038,44.532303,-71.275021)">
    <path
       inkscape:connector-curvature="0"
       transform="matrix(0.26458333,0,0,0.26458333,38.665216,244.01108)"
       id="path2388"
       style="fill:#8e8e8e;fill-rule:evenodd;stroke:#000000;stroke-width:6.80000019;filter:url(#filter3232)"
       d="m 385.54,459.3 c 63.33,-11.33 101.34,-9.38 125.15,0 -4.08,14 -19.27,24.52 -33.23,36.77 27.4,-13.11 55.19,-25.08 84.15,-36.07 -8.34,-34.82 -36.77,-54.13 -60.81,-78.48 3.52,8.18 8.64,17.16 12.08,25.32 1.73,4.09 2.49,7.79 1.35,10.74 -41.72,-13.9 -83.44,-13.43 -125.16,-2.83 z" />
    <path
       inkscape:connector-curvature="0"
       id="path3194"
       style="fill:#ffffff;fill-rule:evenodd;stroke:#000000;stroke-width:1.79916668"
       d="m 140.29432,362.69787 c 16.75871,-2.99508 26.81287,-2.48179 33.11525,0 -1.08215,3.70681 -5.09852,6.49023 -8.79475,9.72873 7.24958,-3.46604 14.60235,-6.63575 22.26469,-9.54088 -2.20663,-9.21543 -9.72873,-14.32454 -16.08932,-20.76714 0.93134,2.16694 2.28865,4.54025 3.19617,6.69925 0.45773,1.08214 0.65881,2.06375 0.35719,2.84162 -11.03842,-3.67506 -22.07684,-3.55335 -33.11525,-0.74877 z" />
  </g>
  <g
     id="g3537"
     transform="matrix(-0.43226159,0,0,0.43226159,194.7701,1.7657468)">
    <path
       inkscape:connector-curvature="0"
       id="path3266"
       d="m 385.54,459.3 c 63.33,-11.33 101.34,-9.38 125.15,0 -4.08,14 -19.27,24.52 -33.23,36.77 27.4,-13.11 55.19,-25.08 84.15,-36.07 -8.34,-34.82 -36.77,-54.13 -60.81,-78.48 3.52,8.18 8.64,17.16 12.08,25.32 1.73,4.09 2.49,7.79 1.35,10.74 -41.72,-13.9 -83.44,-13.43 -125.16,-2.83 z"
       style="fill:#8e8e8e;fill-rule:evenodd;stroke:#000000;stroke-width:6.80000019;filter:url(#filter3232)"
       transform="matrix(0,0.26458333,0.26458333,0,-32.925212,234.33614)" />
    <path
       inkscape:connector-curvature="0"
       id="path3268"
       style="fill:#ffffff;fill-rule:evenodd;stroke:#000000;stroke-width:1.79916668"
       d="m 85.952079,333.31967 c -2.99773,16.75606 -2.481792,26.81287 0,33.11525 3.704166,-1.08215 6.490229,-5.09852 9.728729,-8.79475 -3.468688,7.24958 -6.63575,14.60235 -9.543521,22.26469 -9.212792,-2.20663 -14.321896,-9.72873 -20.7645,-16.08932 2.166938,0.93134 4.54025,2.286 6.69925,3.19617 1.082146,0.45773 2.061104,0.65881 2.841625,0.35719 -3.677708,-11.03842 -3.553354,-22.07683 -0.748771,-33.11525 z" />
  </g>
  <flowRoot
     xml:space="preserve"
     id="flowRoot1479"
     style="font-style:normal;font-variant:normal;font-weight:normal;font-stretch:normal;font-size:17.33333397px;line-height:25px;font-family:Inconsolata;-inkscape-font-specification:Inconsolata;letter-spacing:0px;word-spacing:0px;fill:#000000;fill-opacity:1;stroke:none;stroke-width:1px;stroke-linecap:butt;stroke-linejoin:miter;stroke-opacity:1"
     transform="translate(-3.0671637,-3.5801775)"><flowRegion
       id="flowRegion1481"><rect
         id="rect1483"
         width="738.43695"
         height="50.822948"
         x="30"
         y="-36.766029" /></flowRegion><flowPara
       id="flowPara1485" /></flowRoot>  <path
     inkscape:connector-curvature="0"
     d="m 74.173315,233.66104 c 0.04723,-0.16128 -0.09056,-1.12999 0.978693,-2.12046 1.516074,-0.99555 5.491521,-0.2396 5.9389,1.1713 0.447279,1.41088 0.18939,2.33636 0.0041,2.47087 -0.521154,0.18087 -0.867405,0.19886 -1.351808,0.19017 0,0 0.149509,-1.38836 0.08299,-1.90356 -0.0037,-0.0178 0.05546,0.77624 -0.08307,1.90396 -0.320164,1.07943 -0.623193,2.07049 -0.623193,2.07049 -1.442535,-0.13306 -2.740377,-0.35602 -4.055457,-0.8183 -0.113637,-0.15314 -0.141409,-1.71713 -0.0538,-2.37876 0.107206,-0.76269 0.529112,-1.78916 0.529112,-1.78916 -0.05339,0.029 -0.497007,1.41959 -0.511779,1.78207 -0.368014,-0.0339 -0.795064,-0.47525 -0.854719,-0.57861 z"
     style="fill:#ffffff;fill-rule:evenodd;stroke:#000000;stroke-width:0.18520834;stroke-linejoin:round;stroke-miterlimit:4;stroke-dasharray:none"
     id="path884" />
  <path
     inkscape:connector-curvature="0"
     d="m 80.057444,230.31981 c -0.160103,0.82585 -1.103976,1.33841 -2.10697,1.14397 -1.002995,-0.19445 -1.687053,-1.02261 -1.52695,-1.84846 0.160121,-0.82594 1.104092,-1.33848 2.107087,-1.14404 1.00299,0.19447 1.686953,1.02258 1.526833,1.84853 z"
     style="fill:#ffffff;fill-rule:evenodd;stroke:#000000;stroke-width:0.18520834;stroke-linejoin:round;stroke-miterlimit:4;stroke-dasharray:none"
     id="path885" />
  <path
     inkscape:connector-curvature="0"
     d="m 77.031335,231.16921 c -0.08445,-0.0352 -1.304603,-0.0465 -1.842365,0.46857 -0.393687,0.14889 -0.927714,1.11503 -0.948346,1.9744 0.147816,0.17871 0.43629,0.47868 0.534796,0.44142 0.69916,-0.97167 -0.73975,-2.39547 2.255915,-2.88439 z"
     style="fill:#ffffff;fill-opacity:0.25;fill-rule:evenodd;stroke-width:0.18520834;stroke-miterlimit:4;stroke-dasharray:none"
     id="path887" />
  <path
     inkscape:connector-curvature="0"
     d="m 80.212313,235.27659 c 0,0 0.840494,-0.006 0.907215,-0.16197 0.316117,-0.59557 0.0796,-2.19908 -0.117404,-2.50004 -1.111535,-0.66594 0.813713,2.76636 -0.789811,2.66201 z"
     style="fill:#ffffff;fill-opacity:0.25;fill-rule:evenodd;stroke-width:0.18520834;stroke-miterlimit:4;stroke-dasharray:none"
     id="path890" />
  <path
     inkscape:connector-curvature="0"
     d="m 78.163375,237.28157 c 0,0 0.763243,0.2042 0.879174,0.0765 0.115927,-0.12767 0.765897,-1.31539 0.638916,-1.97804 -0.675682,-0.8441 -0.107851,2.15607 -1.518086,1.90149 z"
     style="fill:#ffffff;fill-opacity:0.23999999;fill-rule:evenodd;stroke-width:0.18520834;stroke-miterlimit:4;stroke-dasharray:none"
     id="path891" />
  <path
     inkscape:connector-curvature="0"
     d="m 77.301941,235.45463 c 0.04723,-0.16128 -0.09056,-1.12999 0.978691,-2.12045 1.516074,-0.99555 5.491523,-0.2396 5.9389,1.1713 0.44728,1.41089 0.189393,2.33635 0.0041,2.47086 -0.521153,0.18087 -0.867404,0.19886 -1.351809,0.19017 0,0 0.14951,-1.38835 0.08299,-1.90357 -0.0037,-0.0178 0.05545,0.77625 -0.08307,1.90397 -0.320163,1.07944 -0.623192,2.07049 -0.623192,2.07049 -1.442536,-0.13306 -2.74038,-0.35601 -4.055457,-0.81829 -0.113637,-0.15315 -0.141408,-1.71714 -0.05381,-2.37875 0.107199,-0.76271 0.529112,-1.78916 0.529112,-1.78916 -0.05339,0.029 -0.497006,1.41958 -0.511774,1.78205 -0.368016,-0.0339 -0.795069,-0.47524 -0.854721,-0.57861 z"
     style="fill:#ffffff;fill-rule:evenodd;stroke:#000000;stroke-width:0.18520834;stroke-linejoin:round;stroke-miterlimit:4;stroke-dasharray:none"
     id="path828" />
  <path
     inkscape:connector-curvature="0"
     d="m 83.186069,232.11341 c -0.160102,0.82584 -1.103976,1.33841 -2.106971,1.14397 -1.002994,-0.19444 -1.687051,-1.02261 -1.52695,-1.84846 0.160122,-0.82595 1.104094,-1.33849 2.107088,-1.14404 1.002991,0.19446 1.686955,1.02258 1.526833,1.84853 z"
     style="fill:#ffffff;fill-rule:evenodd;stroke:#000000;stroke-width:0.18520834;stroke-linejoin:round;stroke-miterlimit:4;stroke-dasharray:none"
     id="path827" />
  <path
     inkscape:connector-curvature="0"
     d="m 70.732469,232.34535 c 0.04723,-0.16128 -0.09056,-1.12999 0.978694,-2.12047 1.516072,-0.99553 5.491522,-0.23959 5.9389,1.17131 0.447279,1.41088 0.18939,2.33636 0.0041,2.47087 -0.521154,0.18086 -0.867404,0.19886 -1.351808,0.19016 0,0 0.149508,-1.38835 0.08299,-1.90356 -0.0037,-0.0178 0.05546,0.77625 -0.08307,1.90397 -0.320164,1.07943 -0.623193,2.07048 -0.623193,2.07048 -1.442536,-0.13305 -2.740379,-0.356 -4.055458,-0.81829 -0.113636,-0.15314 -0.141406,-1.71714 -0.0538,-2.37876 0.107208,-0.7627 0.529112,-1.78916 0.529112,-1.78916 -0.05339,0.029 -0.497007,1.41959 -0.511777,1.78206 -0.368014,-0.0339 -0.795065,-0.47524 -0.85472,-0.57861 z"
     style="fill:#ffffff;fill-rule:evenodd;stroke:#000000;stroke-width:0.18520834;stroke-linejoin:round;stroke-miterlimit:4;stroke-dasharray:none"
     id="path875" />
  <path
     inkscape:connector-curvature="0"
     d="m 76.616597,229.00413 c -0.160101,0.82584 -1.103974,1.3384 -2.106968,1.14396 -1.002995,-0.19445 -1.687054,-1.02261 -1.526952,-1.84845 0.160122,-0.82595 1.104094,-1.33849 2.107089,-1.14405 1.00299,0.19446 1.686953,1.02258 1.526831,1.84854 z"
     style="fill:#ffffff;fill-rule:evenodd;stroke:#000000;stroke-width:0.18520834;stroke-linejoin:round;stroke-miterlimit:4;stroke-dasharray:none"
     id="path876" />
  <path
     inkscape:connector-curvature="0"
     d="m 73.59049,229.85352 c -0.08445,-0.0352 -1.304605,-0.0465 -1.842365,0.46857 -0.393687,0.14889 -0.927714,1.11503 -0.948346,1.9744 0.147818,0.1787 0.43629,0.47868 0.534796,0.44141 0.699161,-0.97166 -0.73975,-2.39546 2.255915,-2.88438 z"
     style="fill:#ffffff;fill-opacity:0.25;fill-rule:evenodd;stroke-width:0.18520834;stroke-miterlimit:4;stroke-dasharray:none"
     id="path878-3" />
  <path
     inkscape:connector-curvature="0"
     d="m 72.061687,231.43382 c -0.565512,1.03522 -0.613642,3.07143 -0.353104,3.79762 0.362338,0.20158 0.8969,0.36157 1.02706,0.34926 0.284251,-0.90205 -1.305226,-1.07886 -0.673956,-4.14688 z"
     style="fill:#ffffff;fill-opacity:0.25;fill-rule:evenodd;stroke-width:0.18520834;stroke-miterlimit:4;stroke-dasharray:none"
     id="path879" />
  <path
     inkscape:connector-curvature="0"
     d="m 67.416378,234.51188 c 0.04723,-0.16129 -0.09056,-1.12999 0.978693,-2.12047 1.516074,-0.99554 5.491522,-0.23959 5.9389,1.17131 0.44728,1.41088 0.189392,2.33635 0.0041,2.47087 -0.521154,0.18086 -0.867403,0.19885 -1.351806,0.19015 0,0 0.149507,-1.38834 0.08299,-1.90355 -0.0037,-0.0178 0.05545,0.77625 -0.08307,1.90397 -0.320162,1.07942 -0.623192,2.07049 -0.623192,2.07049 -1.442536,-0.13306 -2.740378,-0.35602 -4.055458,-0.8183 -0.113635,-0.15315 -0.141407,-1.71714 -0.0538,-2.37876 0.107196,-0.7627 0.529112,-1.78916 0.529112,-1.78916 -0.05339,0.029 -0.497007,1.41959 -0.511776,1.78206 -0.368015,-0.0339 -0.795067,-0.47524 -0.85472,-0.57861 z"
     style="fill:#ffffff;fill-rule:evenodd;stroke:#000000;stroke-width:0.18520834;stroke-linejoin:round;stroke-miterlimit:4;stroke-dasharray:none"
     id="path893" />
  <path
     inkscape:connector-curvature="0"
     d="m 73.300506,231.17066 c -0.160101,0.82584 -1.103974,1.3384 -2.106969,1.14396 -1.002995,-0.19445 -1.687053,-1.02261 -1.526952,-1.84845 0.160125,-0.82596 1.104095,-1.3385 2.10709,-1.14406 1.00299,0.19447 1.686955,1.02258 1.526831,1.84855 z"
     style="fill:#ffffff;fill-rule:evenodd;stroke:#000000;stroke-width:0.18520834;stroke-linejoin:round;stroke-miterlimit:4;stroke-dasharray:none"
     id="path894" />
  <flowRoot
     xml:space="preserve"
     id="flowRoot1905"
     style="font-style:normal;font-variant:normal;font-weight:normal;font-stretch:normal;font-size:17.33333397px;line-height:25px;font-family:Cantarell;-inkscape-font-specification:Cantarell;letter-spacing:0px;word-spacing:0px;fill:#000000;fill-opacity:1;stroke:none;stroke-width:1px;stroke-linecap:butt;stroke-linejoin:miter;stroke-opacity:1"
     transform="translate(-3.0671637,-3.5801775)"><flowRegion
       id="flowRegion1907"><rect
         id="rect1909"
         width="478"
         height="36"
         x="78"
         y="-301.81772" /></flowRegion><flowPara
       id="flowPara1911" /></flowRoot>  <path
     inkscape:connector-curvature="0"
     d="m 81.288148,39.393067 -4.83832,-2.41902 -6.652223,3.32364 4.840651,2.41916 z"
     style="fill:#ffffff;fill-rule:evenodd;stroke:#000000;stroke-width:0.05291666;stroke-linecap:round;stroke-linejoin:round;stroke-miterlimit:4;stroke-dasharray:none"
     id="2" />
  <path
     inkscape:connector-curvature="0"
     d="m 81.288148,44.582976 v -5.189909 l -6.649892,3.323687 v 5.189909 z"
     style="fill:#ffffff;fill-rule:evenodd;stroke:#000000;stroke-width:0.18520834;stroke-linecap:round;stroke-linejoin:round;stroke-miterlimit:4;stroke-dasharray:none"
     id="3" />
  <path
     inkscape:connector-curvature="0"
     d="m 74.638256,42.716847 -4.840651,-2.41902 v 5.189909 l 4.840651,2.41902 z"
     style="fill:#ffffff;fill-rule:evenodd;stroke:#000000;stroke-width:0.18520834;stroke-linecap:round;stroke-linejoin:round;stroke-miterlimit:4;stroke-dasharray:none"
     id="4" />
  <path
     inkscape:connector-curvature="0"
     d="m 69.801616,40.307481 -1.894154,-2.025557 6.654088,-3.333526 1.888511,2.033531 -6.648026,3.325552 z"
     style="fill:#ffffff;fill-rule:evenodd;stroke:#000000;stroke-width:0.18520834;stroke-linecap:round;stroke-linejoin:round;stroke-miterlimit:4;stroke-dasharray:none"
     id="5" />
  <path
     inkscape:connector-curvature="0"
     d="m 76.440036,36.976053 1.469309,-2.910686 4.815004,2.409181 -1.465578,2.908727 z"
     style="fill:#ffffff;fill-rule:evenodd;stroke:#000000;stroke-width:0.18520834;stroke-linecap:round;stroke-linejoin:round;stroke-miterlimit:4;stroke-dasharray:none"
     id="6" />
  <path
     inkscape:connector-curvature="0"
     d="m 68.778788,38.256323 1.012989,2.057218 4.815004,2.407036 -1.009071,-2.056845 -4.819201,-2.407409 z"
     style="fill:#ffffff;fill-rule:evenodd;stroke:#000000;stroke-width:0.18520834;stroke-linecap:round;stroke-linejoin:round;stroke-miterlimit:4;stroke-dasharray:none"
     id="7" />
  <path
     inkscape:connector-curvature="0"
     d="m 76.463351,36.98785 v 4.952096"
     style="fill:none;stroke:#000000;stroke-width:0.18520834;stroke-linecap:round;stroke-linejoin:round;stroke-miterlimit:4;stroke-dasharray:none"
     id="8" />
  <path
     inkscape:connector-curvature="0"
     d="m 74.646183,42.697262 2.393747,0.338268 6.657818,-3.323687 -2.397663,-0.338267 -6.654088,3.323686 z"
     style="fill:#ffffff;fill-rule:evenodd;stroke:#000000;stroke-width:0.18520834;stroke-linecap:round;stroke-linejoin:round;stroke-miterlimit:4;stroke-dasharray:none"
     id="9" />
  <path
     inkscape:connector-curvature="0"
     d="M 78.870853,45.961823"
     style="fill:none;stroke:#000000;stroke-width:0.05291666;stroke-linecap:round;stroke-linejoin:round;stroke-miterlimit:4;stroke-dasharray:none"
     id="10" />
  <g
     style="stroke-width:15.81118488;stroke-miterlimit:4;stroke-dasharray:none"
     id="g7384"
     transform="matrix(0.00840301,-0.0081478,0.00814337,0.00843288,31.585792,193.06062)">
    <rect
       x="3911.8237"
       y="-1221.2625"
       width="479.36896"
       height="479.69632"
       ry="30.641031"
       rx="30.624422"
       style="fill:#ffffff;stroke:#000000;stroke-width:15.81118965;stroke-miterlimit:4;stroke-dasharray:none"
       id="rect7282"
       transform="matrix(0.87830019,0.47810958,-0.47718383,0.8788035,0,0)" />
    <rect
       x="3975.7087"
       y="-1157.3743"
       width="351.53998"
       height="351.78006"
       ry="0"
       rx="0"
       style="fill:#ffffff;stroke:#000000;stroke-width:15.81118965;stroke-miterlimit:4;stroke-dasharray:none"
       id="rect7284"
       transform="matrix(0.87830019,0.47810958,-0.47718383,0.8788035,0,0)" />
    <path
       inkscape:connector-curvature="0"
       d="m 4045.4539,882.55122 -22.4006,-75.87218"
       style="fill:#ffffff;stroke:#000000;stroke-width:15.81118488;stroke-miterlimit:4;stroke-dasharray:none"
       id="path7286" />
    <path
       inkscape:connector-curvature="0"
       d="m 4348.198,1050.1684 75.0513,-22.214"
       style="fill:#ffffff;stroke:#000000;stroke-width:15.81118488;stroke-miterlimit:4;stroke-dasharray:none"
       id="path7288" />
    <path
       inkscape:connector-curvature="0"
       d="m 4185.2295,1364.1094 20.6772,70.0345"
       style="fill:#ffffff;stroke:#000000;stroke-width:15.81118488;stroke-miterlimit:4;stroke-dasharray:none"
       id="path7290" />
    <path
       inkscape:connector-curvature="0"
       d="m 3876.5006,1193.7034 -75.7775,22.4288"
       style="fill:#ffffff;stroke:#000000;stroke-width:15.81118488;stroke-miterlimit:4;stroke-dasharray:none"
       id="path7292" />
    <path
       inkscape:connector-curvature="0"
       d="m 4016.3443,936.16071 303.9749,165.47119"
       style="fill:#ffffff;stroke:#000000;stroke-width:15.81118488;stroke-miterlimit:4;stroke-dasharray:none"
       id="path7294" />
    <path
       inkscape:connector-curvature="0"
       style="fill:#ffffff;stroke:#000000;stroke-width:15.81118488;stroke-miterlimit:4;stroke-dasharray:none"
       d="m 3989.005,986.51034 303.9749,165.47116"
       id="path7296" />
    <path
       inkscape:connector-curvature="0"
       d="m 3989.005,986.51034 303.9749,165.47116"
       style="fill:#ffffff;stroke:#000000;stroke-width:15.81118488;stroke-miterlimit:4;stroke-dasharray:none"
       id="path7298" />
    <path
       inkscape:connector-curvature="0"
       style="fill:#ffffff;stroke:#000000;stroke-width:15.81118488;stroke-miterlimit:4;stroke-dasharray:none"
       d="m 3933.9327,1087.9334 303.9749,165.4715"
       id="path7300" />
    <path
       inkscape:connector-curvature="0"
       d="m 3906.5935,1138.283 303.9749,165.4712"
       style="fill:#ffffff;stroke:#000000;stroke-width:15.81118488;stroke-miterlimit:4;stroke-dasharray:none"
       id="path7302" />
    <path
       inkscape:connector-curvature="0"
       d="m 4018.1668,939.96878 57.5684,194.99912 57.5682,194.9991 54.4751,29.8886 20.7458,-52.1505 -58.1794,-197.0591 -58.1829,-197.06077 -45.4543,-20.79561 z"
       style="fill:#ffffff;stroke:#000000;stroke-width:15.81118488;stroke-miterlimit:4;stroke-dasharray:none"
       id="path7304" />
    <rect
       x="-5887.5513"
       y="2388.5945"
       width="208.53304"
       height="470.13116"
       ry="30.030052"
       rx="13.322106"
       style="fill:#ffffff;stroke:#000000;stroke-width:17.98478508;stroke-miterlimit:4;stroke-dasharray:none"
       id="rect7306"
       transform="matrix(-0.98201101,0.18882365,-0.47718383,0.8788035,0,0)" />
    <rect
       x="-5859.7603"
       y="2451.2097"
       width="152.92543"
       height="344.76556"
       ry="0"
       rx="0"
       style="fill:#ffffff;stroke:#000000;stroke-width:17.98478508;stroke-miterlimit:4;stroke-dasharray:none"
       id="rect7308"
       transform="matrix(-0.98201101,0.18882365,-0.47718383,0.8788035,0,0)" />
    <path
       inkscape:connector-curvature="0"
       style="fill:#ffffff;stroke:#000000;stroke-width:15.81118488;stroke-miterlimit:4;stroke-dasharray:none"
       d="m 4585.2063,1046.2923 50.0322,-52.76139"
       id="path7310" />
    <path
       inkscape:connector-curvature="0"
       style="fill:#ffffff;stroke:#000000;stroke-width:15.81118488;stroke-miterlimit:4;stroke-dasharray:none"
       d="m 4436.226,1076.8462 2.2583,-43.162"
       id="path7312" />
    <path
       inkscape:connector-curvature="0"
       style="fill:#ffffff;stroke:#000000;stroke-width:15.81118488;stroke-miterlimit:4;stroke-dasharray:none"
       d="m 4268.0189,1381.9801 -46.1825,48.7019"
       id="path7314" />
    <path
       inkscape:connector-curvature="0"
       style="fill:#ffffff;stroke:#000000;stroke-width:15.81118488;stroke-miterlimit:4;stroke-dasharray:none"
       d="m 4419.6219,1351.2401 -2.2803,43.5794"
       id="path7316" />
    <path
       inkscape:connector-curvature="0"
       style="fill:#ffffff;stroke:#000000;stroke-width:15.81118488;stroke-miterlimit:4;stroke-dasharray:none"
       d="m 4556.6772,1098.8325 -147.8481,28.4289"
       id="path7318" />
    <path
       inkscape:connector-curvature="0"
       d="m 4529.8831,1148.1781 -147.8483,28.4288"
       style="fill:#ffffff;stroke:#000000;stroke-width:15.81118488;stroke-miterlimit:4;stroke-dasharray:none"
       id="path7320" />
    <path
       inkscape:connector-curvature="0"
       style="fill:#ffffff;stroke:#000000;stroke-width:15.81118488;stroke-miterlimit:4;stroke-dasharray:none"
       d="m 4502.8959,1197.8787 -147.8481,28.4285"
       id="path7322" />
    <path
       inkscape:connector-curvature="0"
       d="m 4475.9092,1247.579 -147.8486,28.4288"
       style="fill:#ffffff;stroke:#000000;stroke-width:15.81118488;stroke-miterlimit:4;stroke-dasharray:none"
       id="path7324" />
    <path
       inkscape:connector-curvature="0"
       style="fill:#ffffff;stroke:#000000;stroke-width:15.81118488;stroke-miterlimit:4;stroke-dasharray:none"
       d="m 4449.1148,1296.9245 -147.8485,28.4288"
       id="path7326" />
    <path
       inkscape:connector-curvature="0"
       style="fill:#ffffff;stroke:#000000;stroke-width:15.81118488;stroke-miterlimit:4;stroke-dasharray:none"
       d="m 4554.06,1101.2436 -128.5867,135.6026 -128.5872,135.6029 -26.6398,5.2814 28.9024,-48.5395 129.9455,-137.0342 129.9474,-137.0341 19.6819,-1.1103 z"
       id="path7328" />
    <rect
       x="-2998.748"
       y="-2066.9077"
       width="479.36896"
       height="213.1846"
       ry="13.617358"
       rx="30.624422"
       style="fill:#ffffff;stroke:#000000;stroke-width:19.47200394;stroke-miterlimit:4;stroke-dasharray:none"
       id="rect7330"
       transform="matrix(-0.87830019,-0.47810958,-0.97558314,0.21963047,0,0)" />
    <rect
       x="-2934.8638"
       y="-2038.5148"
       width="351.53998"
       height="156.33661"
       ry="0"
       rx="0"
       style="fill:#ffffff;stroke:#000000;stroke-width:19.47200394;stroke-miterlimit:4;stroke-dasharray:none"
       id="rect7332"
       transform="matrix(-0.87830019,-0.47810958,-0.97558314,0.21963047,0,0)" />
    <path
       inkscape:connector-curvature="0"
       style="fill:#ffffff;stroke:#000000;stroke-width:15.81118488;stroke-miterlimit:4;stroke-dasharray:none"
       d="m 4566.6491,955.0343 73.3377,21.26292"
       id="path7334" />
    <path
       inkscape:connector-curvature="0"
       style="fill:#ffffff;stroke:#000000;stroke-width:15.81118488;stroke-miterlimit:4;stroke-dasharray:none"
       d="m 4261.6528,789.83215 -24.6024,-31.87258"
       id="path7336" />
    <path
       inkscape:connector-curvature="0"
       style="fill:#ffffff;stroke:#000000;stroke-width:15.81118488;stroke-miterlimit:4;stroke-dasharray:none"
       d="M 4102.5337,821.20016 4034.8385,801.5733"
       id="path7338" />
    <path
       inkscape:connector-curvature="0"
       style="fill:#ffffff;stroke:#000000;stroke-width:15.81118488;stroke-miterlimit:4;stroke-dasharray:none"
       d="m 4413.1399,989.59355 24.84,32.18095"
       id="path7340" />
    <path
       inkscape:connector-curvature="0"
       style="fill:#ffffff;stroke:#000000;stroke-width:15.81118488;stroke-miterlimit:4;stroke-dasharray:none"
       d="M 4540.2006,960.98879 4236.2255,795.51752"
       id="path7342" />
    <path
       inkscape:connector-curvature="0"
       style="fill:#ffffff;stroke:#000000;stroke-width:15.81118488;stroke-miterlimit:4;stroke-dasharray:none"
       d="M 4490.3413,972.21348 4186.3664,806.74219"
       id="path7344" />
    <path
       inkscape:connector-curvature="0"
       style="fill:#ffffff;stroke:#000000;stroke-width:15.81118488;stroke-miterlimit:4;stroke-dasharray:none"
       d="M 4440.4822,983.43818 4136.5068,817.96689"
       id="path7346" />
    <path
       inkscape:connector-curvature="0"
       style="fill:#ffffff;stroke:#000000;stroke-width:15.81118488;stroke-miterlimit:4;stroke-dasharray:none"
       d="m 4536.1258,959.59536 -188.4833,-54.64603 -188.4828,-54.64604 -54.6628,-29.68715 30.0038,-2.25767 190.4756,55.22451 190.4788,55.22699 42.2966,24.18086 z"
       id="path7348" />
  </g>
  <path
     inkscape:connector-curvature="0"
     id="path7123"
     d="m 66.349702,161.30692 c -0.01087,-1.84877 2.494268,-2.43234 3.406983,-1.29005 -0.339547,-1.22305 2.118712,-2.79256 3.28605,-1.24427 -0.141246,-1.70857 2.436869,-2.57314 3.348704,-1.26799 -0.152121,-1.64919 2.559857,-2.48378 3.301432,-1.25009 -1.598426,-5.35751 -15.060283,-1.80258 -13.343169,5.0524 z"
     style="fill:none;fill-opacity:0.73790846;fill-rule:evenodd;stroke:#000000;stroke-width:0.18520841;stroke-linecap:butt;stroke-linejoin:round;stroke-miterlimit:4;stroke-dasharray:none;stroke-opacity:1" />
  <path
     inkscape:connector-curvature="0"
     id="path7195"
     d="m 69.704066,159.92917 5.259207,5.00448"
     style="fill:none;fill-rule:evenodd;stroke:#000000;stroke-width:0.18520841;stroke-linecap:butt;stroke-linejoin:miter;stroke-miterlimit:4;stroke-dasharray:none;stroke-opacity:1" />
  <path
     inkscape:connector-curvature="0"
     id="path7199"
     d="m 73.042735,158.7726 2.289229,6.06707"
     style="fill:none;fill-rule:evenodd;stroke:#000000;stroke-width:0.18520841;stroke-linecap:butt;stroke-linejoin:miter;stroke-miterlimit:4;stroke-dasharray:none;stroke-opacity:1" />
  <path
     inkscape:connector-curvature="0"
     id="path7201"
     d="m 76.387776,157.51375 -0.71439,7.29926"
     style="fill:none;fill-rule:evenodd;stroke:#000000;stroke-width:0.18520841;stroke-linecap:butt;stroke-linejoin:miter;stroke-miterlimit:4;stroke-dasharray:none;stroke-opacity:1" />
  <path
     inkscape:connector-curvature="0"
     id="path7203"
     d="m 66.300093,161.24594 8.525999,4.05399"
     style="fill:none;fill-rule:evenodd;stroke:#000000;stroke-width:0.18520841;stroke-linecap:butt;stroke-linejoin:miter;stroke-miterlimit:4;stroke-dasharray:none;stroke-opacity:1" />
  <path
     inkscape:connector-curvature="0"
     style="fill:none;fill-rule:evenodd;stroke:#000000;stroke-width:0.18520834;stroke-linecap:butt;stroke-linejoin:miter;stroke-miterlimit:4;stroke-dasharray:none;stroke-opacity:1"
     d="m 79.682607,156.27847 -3.602717,8.71805"
     id="path9654" />
  <g
     id="g1334"
     transform="translate(-3.0671637,-3.5801775)">
    <path
       inkscape:connector-curvature="0"
       style="fill:#e9ddaf;fill-opacity:1;fill-rule:evenodd;stroke:#000000;stroke-width:0.08742361px;stroke-linecap:butt;stroke-linejoin:miter;stroke-opacity:1"
       d="m 99.819254,140.441 1.092796,0.0874 c 0,0 -0.61153,-1.87138 -0.66095,-2.8431 -0.0519,-1.02158 0.38807,-2.83536 0.38807,-2.83536 l -0.917946,-0.20869 c 0,0 -0.503501,2.01675 -0.477727,3.04327 0.02356,0.93836 0.575757,2.75648 0.575757,2.75648 z"
       id="path1006" />
    <path
       inkscape:connector-curvature="0"
       style="fill:#e9ddaf;fill-opacity:1;fill-rule:evenodd;stroke:#000000;stroke-width:0.08742361px;stroke-linecap:butt;stroke-linejoin:miter;stroke-opacity:1"
       d="m 103.34004,140.56463 1.09279,0.0874 c 0,0 -0.52946,-1.9312 -0.54137,-2.92156 -0.013,-1.08459 0.51577,-1.93034 0.51577,-1.93034 l -0.91795,-0.19496 c 0,0 -0.59779,1.06601 -0.60957,2.17098 -0.01,0.94202 0.46033,2.78846 0.46033,2.78846 z"
       id="path1008" />
    <path
       inkscape:connector-curvature="0"
       style="fill:#e9ddaf;fill-opacity:1;fill-rule:evenodd;stroke:#000000;stroke-width:0.08742361px;stroke-linecap:butt;stroke-linejoin:miter;stroke-opacity:1"
       d="m 101.91735,140.81398 -0.13909,2.32468 -3.123461,-0.24663 0.381968,-2.23745 z"
       id="path1010" />
    <path
       inkscape:connector-curvature="0"
       style="fill:#e9ddaf;fill-opacity:1;fill-rule:evenodd;stroke:#000000;stroke-width:0.08742361px;stroke-linecap:butt;stroke-linejoin:miter;stroke-opacity:1"
       d="m 105.43879,141.07798 0.0795,2.23726 -3.12346,-0.24663 0.27269,-2.21559 z"
       id="path1012" />
    <path
       inkscape:connector-curvature="0"
       style="fill:none;fill-rule:evenodd;stroke:#000000;stroke-width:0.08742361;stroke-linecap:butt;stroke-linejoin:miter;stroke-miterlimit:4;stroke-dasharray:none;stroke-opacity:1"
       d="m 109.67974,129.71424 c 0,0 -0.13088,0.95579 -0.0302,1.29896 0.10064,0.34318 1.08294,0.975 1.11819,0.44104 0.0352,-0.53397 -1.72521,-0.99147 -1.9887,-0.35644 -0.2635,0.63503 1.60762,1.86834 1.72605,1.20451 0.11842,-0.66382 -1.72658,-0.79931 -1.934,-0.16514 -0.20748,0.63415 1.63473,1.74314 1.76139,1.07268 0.12667,-0.67045 -1.79553,-0.89611 -2.0152,-0.25756 -0.21974,0.63854 1.5976,1.67041 1.73726,1.03089 0.13951,-0.63955 -1.69693,-0.76846 -1.90104,-0.15631 -0.20417,0.61215 1.5215,1.68955 1.6625,1.04618 0.14138,-0.64329 -1.77921,-0.73567 -1.98462,-0.10806 -0.20539,0.62761 1.52921,1.70837 1.65368,1.07914 0.12448,-0.62923 -1.66088,-0.76594 -1.86808,-0.14748 -0.20723,0.61846 1.5927,1.6273 1.71959,1.09681 0.12729,-0.5304 -0.98455,-0.23509 -1.266,-0.0214 -0.28145,0.21368 -0.72407,0.72439 -0.72407,0.72439"
       id="path972" />
    <path
       inkscape:connector-curvature="0"
       style="fill:#e9ddaf;fill-opacity:1;fill-rule:evenodd;stroke:#000000;stroke-width:0.08742361px;stroke-linecap:butt;stroke-linejoin:miter;stroke-opacity:1"
       d="m 103.25134,122.45608 4.81323,1.29018 2.02318,-5.52185 -5.3756,-1.89346 z"
       id="path974" />
    <path
       inkscape:connector-curvature="0"
       style="fill:#e9ddaf;fill-opacity:1;fill-rule:evenodd;stroke:#000000;stroke-width:0.08742361px;stroke-linecap:butt;stroke-linejoin:miter;stroke-opacity:1"
       d="m 105.27563,125.54187 1.0329,0.36738 0.44759,-2.00701 -0.91452,-0.47141 z"
       id="path976" />
    <path
       inkscape:connector-curvature="0"
       style="fill:#e9ddaf;fill-opacity:1;fill-rule:evenodd;stroke:#000000;stroke-width:0.08742361px;stroke-linecap:butt;stroke-linejoin:miter;stroke-opacity:1"
       d="m 103.45033,125.00192 1.03291,0.36738 0.44758,-2.00701 -0.88664,-0.23767 z"
       id="path978" />
    <path
       inkscape:connector-curvature="0"
       style="fill:#4d4d4d;fill-rule:evenodd;stroke:#000000;stroke-width:0.08742361px;stroke-linecap:butt;stroke-linejoin:miter;stroke-opacity:1"
       d="m 98.096433,133.74756 7.856207,1.92482 3.28288,-8.53305 -8.41858,-2.52812 z"
       id="path980" />
    <path
       inkscape:connector-curvature="0"
       style="fill:#4d4d4d;fill-opacity:1;fill-rule:evenodd;stroke:#000000;stroke-width:0.08742361px;stroke-linecap:butt;stroke-linejoin:miter;stroke-opacity:1"
       d="m 108.68929,129.16515 2.40961,0.64589 0.56987,-2.24897 -2.2524,-0.3523 z"
       id="path982" />
    <path
       inkscape:connector-curvature="0"
       style="fill:#4d4d4d;fill-opacity:1;fill-rule:evenodd;stroke:#000000;stroke-width:0.08742361px;stroke-linecap:butt;stroke-linejoin:miter;stroke-opacity:1"
       d="m 99.903323,126.5011 -2.209401,-0.73623 0.779131,-2.19288 2.062257,0.94824 z"
       id="path984" />
    <g
       style="fill:#008080;stroke-width:3.83351564;stroke-miterlimit:4;stroke-dasharray:none"
       transform="matrix(0.02202746,0.00590442,-0.00590442,0.02202746,102.57186,128.29175)"
       id="g992">
      <path
         inkscape:connector-curvature="0"
         d="m 69.80222,-5.62101 1.75337,-0.14119 4.67522,0.76577 6.49842,2.71905 v 4.55476 l -6.49842,2.71905 -4.67522,0.76577 -1.75337,-0.14119 -0.92363,7.01566 1.73017,0.31742 4.31772,1.94971 5.57325,4.30832 -1.17886,4.39956 -6.98074,0.94449 -4.7141,-0.47036 -1.65709,-0.59019 -2.70794,6.53755 1.58906,0.75441 3.66597,3.00079 4.26828,5.60398 -2.27739,3.94453 -6.98732,-0.89444 -4.43174,-1.67443 -1.44787,-0.99897 -4.30772,5.61393 1.33967,1.13998 2.76439,3.84736 2.67242,6.51774 -3.2207,3.2207 -6.51774,-2.67242 -3.84736,-2.76439 -1.13998,-1.33967 -5.61393,4.30772 0.99897,1.44787 1.67443,4.43174 0.89444,6.98732 -3.94453,2.27739 -5.60398,-4.26828 -3.00079,-3.66597 -0.75441,-1.58906 -6.53755,2.70794 0.59019,1.65709 0.47036,4.7141 -0.94449,6.98074 -4.39956,1.17886 -4.30832,-5.57325 -1.94971,-4.31772 -0.31742,-1.73017 -7.01566,0.92363 0.14119,1.75337 -0.76577,4.67522 -2.71905,6.49842 h -4.55476 l -2.71905,-6.49842 -0.76577,-4.67522 0.14119,-1.75337 -7.01566,-0.92363 -0.31742,1.73017 -1.94971,4.31772 -4.30832,5.57325 -4.39956,-1.17886 -0.94449,-6.98074 0.47036,-4.7141 0.59019,-1.65709 -6.53755,-2.70794 -0.75441,1.58906 -3.00079,3.66597 -5.60398,4.26828 -3.94453,-2.27739 0.89444,-6.98732 1.67443,-4.43174 0.99897,-1.44787 -5.61393,-4.30772 -1.13998,1.33967 -3.84736,2.76439 -6.51774,2.67242 -3.2207,-3.2207 2.67242,-6.51774 2.76439,-3.84736 1.33967,-1.13998 -4.30772,-5.61393 -1.44787,0.99897 -4.43174,1.67443 -6.98732,0.89444 -2.27739,-3.94453 4.26828,-5.60398 3.66597,-3.00079 1.58906,-0.75441 -2.70794,-6.53755 -1.65709,0.59019 -4.7141,0.47036 -6.98074,-0.94449 -1.17886,-4.39956 5.57325,-4.30832 4.31772,-1.94971 1.73017,-0.31742 -0.92363,-7.01566 -1.75337,0.14119 -4.67522,-0.76577 -6.49842,-2.71905 v -4.55476 l 6.49842,-2.71905 4.67522,-0.76577 1.75337,0.14119 0.92363,-7.01566 -1.73017,-0.31742 -4.31772,-1.94971 -5.57325,-4.30832 1.17886,-4.39956 6.98074,-0.94449 4.7141,0.47036 1.65709,0.59019 2.70794,-6.53755 -1.58906,-0.75441 -3.66597,-3.00079 -4.26828,-5.60398 2.27739,-3.94453 6.98732,0.89444 4.43174,1.67443 1.44787,0.99897 4.30772,-5.61393 -1.33967,-1.13998 -2.76439,-3.84736 -2.67242,-6.51774 3.2207,-3.2207 6.51774,2.67242 3.84736,2.76439 1.13998,1.33967 5.61393,-4.30772 -0.99897,-1.44787 -1.67443,-4.43174 -0.89444,-6.98732 3.94453,-2.27739 5.60398,4.26828 3.00079,3.66597 0.75441,1.58906 6.53755,-2.70794 -0.59019,-1.65709 -0.47036,-4.7141 0.94449,-6.98074 4.39956,-1.17886 4.30832,5.57325 1.94971,4.31772 0.31742,1.73017 7.01566,-0.92363 -0.14119,-1.75337 0.76577,-4.67522 2.71905,-6.49842 h 4.55476 l 2.71905,6.49842 0.76577,4.67522 -0.14119,1.75337 7.01566,0.92363 0.31742,-1.73017 1.94971,-4.31772 4.30832,-5.57325 4.39956,1.17886 0.94449,6.98074 -0.47036,4.7141 -0.59019,1.65709 6.53755,2.70794 0.75441,-1.58906 3.00079,-3.66597 5.60398,-4.26828 3.94453,2.27739 -0.89444,6.98732 -1.67443,4.43174 -0.99897,1.44787 5.61393,4.30772 1.13998,-1.33967 3.84736,-2.76439 6.51774,-2.67242 3.2207,3.2207 -2.67242,6.51774 -2.76439,3.84736 -1.33967,1.13998 4.30772,5.61393 1.44787,-0.99897 4.43174,-1.67443 6.98732,-0.89444 2.27739,3.94453 -4.26828,5.60398 -3.66597,3.00079 -1.58906,0.75441 2.70794,6.53755 1.65709,-0.59019 4.7141,-0.47036 6.98074,0.94449 1.17886,4.39956 -5.57325,4.30832 -4.31772,1.94971 -1.73017,0.31742 z"
         style="fill:#008080;stroke:#000000;stroke-width:3.83351564;stroke-miterlimit:4;stroke-dasharray:none"
         id="path988" />
      <circle
         r="10"
         cy="0"
         cx="0"
         style="fill:#008080;stroke:#000000;stroke-width:3.83351564;stroke-miterlimit:4;stroke-dasharray:none"
         id="circle990" />
    </g>
    <g
       style="fill:#c83737;stroke-width:4.86301279;stroke-miterlimit:4;stroke-dasharray:none"
       transform="matrix(0.01736426,0.00465446,-0.00465446,0.01736426,103.50332,131.7187)"
       id="g998">
      <path
         inkscape:connector-curvature="0"
         d="m 69.80222,-5.62101 1.75337,-0.14119 4.67522,0.76577 6.49842,2.71905 v 4.55476 l -6.49842,2.71905 -4.67522,0.76577 -1.75337,-0.14119 -0.92363,7.01566 1.73017,0.31742 4.31772,1.94971 5.57325,4.30832 -1.17886,4.39956 -6.98074,0.94449 -4.7141,-0.47036 -1.65709,-0.59019 -2.70794,6.53755 1.58906,0.75441 3.66597,3.00079 4.26828,5.60398 -2.27739,3.94453 -6.98732,-0.89444 -4.43174,-1.67443 -1.44787,-0.99897 -4.30772,5.61393 1.33967,1.13998 2.76439,3.84736 2.67242,6.51774 -3.2207,3.2207 -6.51774,-2.67242 -3.84736,-2.76439 -1.13998,-1.33967 -5.61393,4.30772 0.99897,1.44787 1.67443,4.43174 0.89444,6.98732 -3.94453,2.27739 -5.60398,-4.26828 -3.00079,-3.66597 -0.75441,-1.58906 -6.53755,2.70794 0.59019,1.65709 0.47036,4.7141 -0.94449,6.98074 -4.39956,1.17886 -4.30832,-5.57325 -1.94971,-4.31772 -0.31742,-1.73017 -7.01566,0.92363 0.14119,1.75337 -0.76577,4.67522 -2.71905,6.49842 h -4.55476 l -2.71905,-6.49842 -0.76577,-4.67522 0.14119,-1.75337 -7.01566,-0.92363 -0.31742,1.73017 -1.94971,4.31772 -4.30832,5.57325 -4.39956,-1.17886 -0.94449,-6.98074 0.47036,-4.7141 0.59019,-1.65709 -6.53755,-2.70794 -0.75441,1.58906 -3.00079,3.66597 -5.60398,4.26828 -3.94453,-2.27739 0.89444,-6.98732 1.67443,-4.43174 0.99897,-1.44787 -5.61393,-4.30772 -1.13998,1.33967 -3.84736,2.76439 -6.51774,2.67242 -3.2207,-3.2207 2.67242,-6.51774 2.76439,-3.84736 1.33967,-1.13998 -4.30772,-5.61393 -1.44787,0.99897 -4.43174,1.67443 -6.98732,0.89444 -2.27739,-3.94453 4.26828,-5.60398 3.66597,-3.00079 1.58906,-0.75441 -2.70794,-6.53755 -1.65709,0.59019 -4.7141,0.47036 -6.98074,-0.94449 -1.17886,-4.39956 5.57325,-4.30832 4.31772,-1.94971 1.73017,-0.31742 -0.92363,-7.01566 -1.75337,0.14119 -4.67522,-0.76577 -6.49842,-2.71905 v -4.55476 l 6.49842,-2.71905 4.67522,-0.76577 1.75337,0.14119 0.92363,-7.01566 -1.73017,-0.31742 -4.31772,-1.94971 -5.57325,-4.30832 1.17886,-4.39956 6.98074,-0.94449 4.7141,0.47036 1.65709,0.59019 2.70794,-6.53755 -1.58906,-0.75441 -3.66597,-3.00079 -4.26828,-5.60398 2.27739,-3.94453 6.98732,0.89444 4.43174,1.67443 1.44787,0.99897 4.30772,-5.61393 -1.33967,-1.13998 -2.76439,-3.84736 -2.67242,-6.51774 3.2207,-3.2207 6.51774,2.67242 3.84736,2.76439 1.13998,1.33967 5.61393,-4.30772 -0.99897,-1.44787 -1.67443,-4.43174 -0.89444,-6.98732 3.94453,-2.27739 5.60398,4.26828 3.00079,3.66597 0.75441,1.58906 6.53755,-2.70794 -0.59019,-1.65709 -0.47036,-4.7141 0.94449,-6.98074 4.39956,-1.17886 4.30832,5.57325 1.94971,4.31772 0.31742,1.73017 7.01566,-0.92363 -0.14119,-1.75337 0.76577,-4.67522 2.71905,-6.49842 h 4.55476 l 2.71905,6.49842 0.76577,4.67522 -0.14119,1.75337 7.01566,0.92363 0.31742,-1.73017 1.94971,-4.31772 4.30832,-5.57325 4.39956,1.17886 0.94449,6.98074 -0.47036,4.7141 -0.59019,1.65709 6.53755,2.70794 0.75441,-1.58906 3.00079,-3.66597 5.60398,-4.26828 3.94453,2.27739 -0.89444,6.98732 -1.67443,4.43174 -0.99897,1.44787 5.61393,4.30772 1.13998,-1.33967 3.84736,-2.76439 6.51774,-2.67242 3.2207,3.2207 -2.67242,6.51774 -2.76439,3.84736 -1.33967,1.13998 4.30772,5.61393 1.44787,-0.99897 4.43174,-1.67443 6.98732,-0.89444 2.27739,3.94453 -4.26828,5.60398 -3.66597,3.00079 -1.58906,0.75441 2.70794,6.53755 1.65709,-0.59019 4.7141,-0.47036 6.98074,0.94449 1.17886,4.39956 -5.57325,4.30832 -4.31772,1.94971 -1.73017,0.31742 z"
         style="fill:#c83737;stroke:#000000;stroke-width:4.86301279;stroke-miterlimit:4;stroke-dasharray:none"
         id="path994" />
      <circle
         r="10"
         cy="0"
         cx="0"
         style="fill:#c83737;stroke:#000000;stroke-width:4.86301279;stroke-miterlimit:4;stroke-dasharray:none"
         id="circle996" />
    </g>
    <g
       style="fill:#d4aa00;stroke-width:6.84169626;stroke-miterlimit:4;stroke-dasharray:none"
       transform="matrix(0.01234236,0.00330835,-0.00330835,0.01234236,105.76585,129.60516)"
       id="g1004">
      <path
         inkscape:connector-curvature="0"
         d="m 69.80222,-5.62101 1.75337,-0.14119 4.67522,0.76577 6.49842,2.71905 v 4.55476 l -6.49842,2.71905 -4.67522,0.76577 -1.75337,-0.14119 -0.92363,7.01566 1.73017,0.31742 4.31772,1.94971 5.57325,4.30832 -1.17886,4.39956 -6.98074,0.94449 -4.7141,-0.47036 -1.65709,-0.59019 -2.70794,6.53755 1.58906,0.75441 3.66597,3.00079 4.26828,5.60398 -2.27739,3.94453 -6.98732,-0.89444 -4.43174,-1.67443 -1.44787,-0.99897 -4.30772,5.61393 1.33967,1.13998 2.76439,3.84736 2.67242,6.51774 -3.2207,3.2207 -6.51774,-2.67242 -3.84736,-2.76439 -1.13998,-1.33967 -5.61393,4.30772 0.99897,1.44787 1.67443,4.43174 0.89444,6.98732 -3.94453,2.27739 -5.60398,-4.26828 -3.00079,-3.66597 -0.75441,-1.58906 -6.53755,2.70794 0.59019,1.65709 0.47036,4.7141 -0.94449,6.98074 -4.39956,1.17886 -4.30832,-5.57325 -1.94971,-4.31772 -0.31742,-1.73017 -7.01566,0.92363 0.14119,1.75337 -0.76577,4.67522 -2.71905,6.49842 h -4.55476 l -2.71905,-6.49842 -0.76577,-4.67522 0.14119,-1.75337 -7.01566,-0.92363 -0.31742,1.73017 -1.94971,4.31772 -4.30832,5.57325 -4.39956,-1.17886 -0.94449,-6.98074 0.47036,-4.7141 0.59019,-1.65709 -6.53755,-2.70794 -0.75441,1.58906 -3.00079,3.66597 -5.60398,4.26828 -3.94453,-2.27739 0.89444,-6.98732 1.67443,-4.43174 0.99897,-1.44787 -5.61393,-4.30772 -1.13998,1.33967 -3.84736,2.76439 -6.51774,2.67242 -3.2207,-3.2207 2.67242,-6.51774 2.76439,-3.84736 1.33967,-1.13998 -4.30772,-5.61393 -1.44787,0.99897 -4.43174,1.67443 -6.98732,0.89444 -2.27739,-3.94453 4.26828,-5.60398 3.66597,-3.00079 1.58906,-0.75441 -2.70794,-6.53755 -1.65709,0.59019 -4.7141,0.47036 -6.98074,-0.94449 -1.17886,-4.39956 5.57325,-4.30832 4.31772,-1.94971 1.73017,-0.31742 -0.92363,-7.01566 -1.75337,0.14119 -4.67522,-0.76577 -6.49842,-2.71905 v -4.55476 l 6.49842,-2.71905 4.67522,-0.76577 1.75337,0.14119 0.92363,-7.01566 -1.73017,-0.31742 -4.31772,-1.94971 -5.57325,-4.30832 1.17886,-4.39956 6.98074,-0.94449 4.7141,0.47036 1.65709,0.59019 2.70794,-6.53755 -1.58906,-0.75441 -3.66597,-3.00079 -4.26828,-5.60398 2.27739,-3.94453 6.98732,0.89444 4.43174,1.67443 1.44787,0.99897 4.30772,-5.61393 -1.33967,-1.13998 -2.76439,-3.84736 -2.67242,-6.51774 3.2207,-3.2207 6.51774,2.67242 3.84736,2.76439 1.13998,1.33967 5.61393,-4.30772 -0.99897,-1.44787 -1.67443,-4.43174 -0.89444,-6.98732 3.94453,-2.27739 5.60398,4.26828 3.00079,3.66597 0.75441,1.58906 6.53755,-2.70794 -0.59019,-1.65709 -0.47036,-4.7141 0.94449,-6.98074 4.39956,-1.17886 4.30832,5.57325 1.94971,4.31772 0.31742,1.73017 7.01566,-0.92363 -0.14119,-1.75337 0.76577,-4.67522 2.71905,-6.49842 h 4.55476 l 2.71905,6.49842 0.76577,4.67522 -0.14119,1.75337 7.01566,0.92363 0.31742,-1.73017 1.94971,-4.31772 4.30832,-5.57325 4.39956,1.17886 0.94449,6.98074 -0.47036,4.7141 -0.59019,1.65709 6.53755,2.70794 0.75441,-1.58906 3.00079,-3.66597 5.60398,-4.26828 3.94453,2.27739 -0.89444,6.98732 -1.67443,4.43174 -0.99897,1.44787 5.61393,4.30772 1.13998,-1.33967 3.84736,-2.76439 6.51774,-2.67242 3.2207,3.2207 -2.67242,6.51774 -2.76439,3.84736 -1.33967,1.13998 4.30772,5.61393 1.44787,-0.99897 4.43174,-1.67443 6.98732,-0.89444 2.27739,3.94453 -4.26828,5.60398 -3.66597,3.00079 -1.58906,0.75441 2.70794,6.53755 1.65709,-0.59019 4.7141,-0.47036 6.98074,0.94449 1.17886,4.39956 -5.57325,4.30832 -4.31772,1.94971 -1.73017,0.31742 z"
         style="fill:#d4aa00;stroke:#000000;stroke-width:6.84169626;stroke-miterlimit:4;stroke-dasharray:none"
         id="path1000" />
      <circle
         r="10"
         cy="0"
         cx="0"
         style="fill:#d4aa00;stroke:#000000;stroke-width:6.84169626;stroke-miterlimit:4;stroke-dasharray:none"
         id="circle1002" />
    </g>
    <path
       inkscape:connector-curvature="0"
       style="fill:none;fill-rule:evenodd;stroke:#000000;stroke-width:0.05204241;stroke-linecap:butt;stroke-linejoin:miter;stroke-miterlimit:4;stroke-dasharray:none;stroke-opacity:1"
       d="m 109.32517,117.92151 c 0,0 -0.25697,-0.5808 -0.37984,-0.75466 -0.12286,-0.17386 -0.0543,-0.86575 0.20776,-0.68473 0.26212,0.18102 -0.17551,1.17144 -0.56918,1.05951 -0.39368,-0.11194 -0.27702,-1.44087 0.0764,-1.25063 0.35347,0.19025 -0.26557,1.10104 -0.63818,0.96326 -0.37253,-0.13777 -0.2086,-1.40722 0.15101,-1.21836 0.3596,0.18887 -0.24599,1.16899 -0.62511,1.03532 -0.37912,-0.13368 -0.1884,-1.36301 0.16158,-1.19165 0.34997,0.17136 -0.26913,1.07576 -0.63012,0.94461 -0.36106,-0.13116 -0.22548,-1.33458 0.12679,-1.16243 0.35227,0.17215 -0.31479,1.10205 -0.68353,0.96576 -0.36874,-0.13629 -0.23141,-1.34513 0.10815,-1.1705 0.33956,0.17463 -0.25695,1.05803 -0.62205,0.92597 -0.36513,-0.13205 -0.17011,-1.34476 0.12428,-1.20778 0.2944,0.13699 -0.42247,1.01236 -0.62624,1.06463 -0.20376,0.0523 -0.53428,0.28102 -0.53428,0.28102"
       id="path1014" />
    <path
       inkscape:connector-curvature="0"
       style="fill:none;fill-rule:evenodd;stroke:#000000;stroke-width:0.08742361;stroke-linecap:butt;stroke-linejoin:miter;stroke-miterlimit:4;stroke-dasharray:none;stroke-opacity:1"
       d="m 98.598203,126.56831 c 0,0 -0.431127,0.52606 -0.930957,0.90639 -0.49983,0.38033 -1.517977,-0.0857 -1.147803,-0.47867 0.370176,-0.393 1.914422,0.62466 1.52335,1.37896 -0.391074,0.75429 -2.393656,-0.15434 -2.117041,-0.56689 0.276616,-0.41256 1.834512,0.53828 1.308649,1.39258 -0.525865,0.8543 -2.334948,-0.38834 -2.026192,-0.75199 0.308755,-0.36365 1.905384,0.63498 1.299302,1.49299 -0.606081,0.85801 -2.209921,-0.43566 -1.836499,-0.97329 0.373442,-0.53763 1.499257,0.92973 0.851526,1.59444 -0.647731,0.66471 -2.106538,-0.80455 -1.598879,-1.20708 0.507658,-0.40252 1.15552,1.37495 0.359461,1.79122 -0.796059,0.41627 -1.572333,-1.07651 -1.196132,-1.59603 0.376217,-0.5195 0.971497,1.59645 -0.08135,1.73036 -1.05285,0.1339 -1.210721,-1.91553 -0.655647,-1.94218 0.555072,-0.0267 0.11597,0.90771 -0.597465,1.14578 -0.713435,0.23808 -1.017299,0.13042 -1.017299,0.13042"
       id="path986" />
  </g>
  <g
     id="g5391"
     transform="matrix(0.35249574,0.13522579,-0.13522579,0.35249574,97.304316,-29.0622)">
    <path
       inkscape:connector-curvature="0"
       id="path5377"
       style="fill:#c0c0c0;fill-rule:evenodd;stroke:#000000;stroke-width:0.35760379px;stroke-linecap:round;stroke-linejoin:round"
       d="m 298.71882,101.71617 -0.53639,-0.11927 -0.28606,-0.20276 -0.15495,-0.54864 -0.0238,-0.45322 h 0.0119 l 0.0596,-0.28625 0.17879,-0.500951 v -0.357801 l -0.26223,-1.025707 -0.28606,-0.655969 -0.27416,-0.572489 -0.17879,-0.691753 -0.0358,-0.477071 h 0.0119 l 0.0596,-0.441282 0.26223,-0.667906 0.50064,-0.763326 0.26223,-0.691756 0.0834,-0.536702 -0.0715,-0.751387 -0.15495,-0.489009 -0.71518,-0.89453 -0.0358,-0.190831 0.0238,-0.393587 0.0715,-0.27432 0.28606,-0.465158 h 11.87197 l 0.0119,0.333953 0.27415,0.524792 0.21456,0.739479 0.0119,0.512856 -0.16688,0.942226 -0.596,1.657829 -0.13112,0.620212 v 0.357802 l 0.27416,1.133065 0.1192,0.500946 0.3576,0.703691 0.14304,0.608274 -0.0119,0.477068 -0.19072,0.799113 -0.44103,1.156909 -0.22648,1.22849 -0.16687,0.11927 -0.28606,0.0238 -9.85774,0.0119 z" />
    <path
       inkscape:connector-curvature="0"
       id="path5379"
       style="fill:#000000;fill-rule:evenodd;stroke:#000000;stroke-width:0.35760379px;stroke-linecap:round;stroke-linejoin:round"
       d="m 299.02645,101.71617 2.06211,2.07529 h 4.87511 l 2.07405,-2.07529 h -9.01136 z" />
    <path
       inkscape:connector-curvature="0"
       id="path5381"
       style="fill:#ffffff;fill-rule:evenodd;stroke:#000000;stroke-width:0.35760379px;stroke-linecap:round;stroke-linejoin:round"
       d="m 309.35014,89.264529 h -11.8364 l -0.10728,-0.846808 -0.20264,-0.954165 -0.47678,-1.347753 -0.65561,-1.288118 -1.26351,-2.146865 -1.52572,-2.922129 -0.39336,-1.001861 -0.28606,-1.180761 -0.1192,-0.942227 -0.0238,-1.085342 0.11919,-1.144976 0.19072,-1.013798 0.33376,-1.109218 0.53639,-1.228486 0.69136,-1.168851 0.76287,-1.037647 0.95358,-1.037646 0.87014,-0.727541 0.95358,-0.608273 1.33502,-0.632122 1.26351,-0.453221 1.09663,-0.262393 1.02509,-0.11927 h 1.1443 l 1.4542,0.143124 1.4423,0.286258 1.00127,0.322015 1.13239,0.54864 1.14429,0.787174 1.32309,1.133066 0.75094,0.811022 0.69136,0.906442 0.61981,1.09728 0.48873,1.073432 0.40527,1.359662 0.17879,1.144976 0.0358,0.54864 -0.0238,1.204637 -0.14303,1.144976 -0.32185,1.419295 -0.33375,1.037647 -1.62109,2.671628 -1.40654,2.516576 -0.50063,1.144975 -0.44103,1.431234 -0.2384,1.288119 -0.0238,0.23854 z" />
    <path
       inkscape:connector-curvature="0"
       id="path5383"
       style="fill:none;stroke:#000000;stroke-width:0.35760379px;stroke-linecap:round;stroke-linejoin:round"
       d="m 297.51374,91.03124 11.89595,2.182623" />
    <path
       inkscape:connector-curvature="0"
       id="path5385"
       style="fill:none;stroke:#000000;stroke-width:0.35760379px;stroke-linecap:round;stroke-linejoin:round"
       d="m 297.53631,94.369928 11.90781,2.182622" />
    <path
       inkscape:connector-curvature="0"
       id="path5387"
       style="fill:none;stroke:#000000;stroke-width:0.35760379px;stroke-linecap:round;stroke-linejoin:round"
       d="m 297.53631,97.711441 11.90781,2.19456" />
    <path
       inkscape:connector-curvature="0"
       id="path5389"
       style="fill:none;stroke:#000000;stroke-width:0.35760379px;stroke-linecap:round;stroke-linejoin:round"
       d="m 300.36136,89.230662 -1.76412,-11.950701 0.0238,-1.204609 0.10728,-0.751388 0.19072,-0.536702 0.21455,-0.286258 0.298,-0.15505 0.15496,-0.03578 0.41718,0.02385 0.38142,0.178903 0.2384,0.262394 0.19071,0.465158 0.21456,1.204609 0.0954,1.311967 -0.0239,0.763326 -0.14304,0.333954 -0.21456,0.15505 -0.10727,0.03578 -0.25032,-0.02385 -0.25032,-0.15505 -0.17879,-0.333953 -0.2384,-0.989923 -0.0954,-0.727541 0.0119,-0.679845 0.15496,-0.512854 0.34566,-0.584426 0.69136,-0.739478 0.52449,-0.357802 0.3099,-0.05964 0.35761,0.131197 0.3576,0.322015 0.36952,0.596336 0.23839,0.739478 0.22648,1.335815 0.0358,0.667907 -0.0715,0.560578 -0.13112,0.286258 -0.26224,0.15505 -0.33375,0.03578 -0.298,-0.11927 -0.16688,-0.23854 -0.13112,-0.608273 -0.19071,-1.979874 0.0358,-0.584426 0.15496,-0.381649 0.32184,-0.333954 0.58406,-0.357801 0.79863,-0.286258 0.22648,-0.03578 0.38142,0.02385 0.32185,0.166977 0.39336,0.500944 0.39336,0.834898 0.1788,0.775264 0.0358,0.715603 -0.0954,0.954165 -0.15496,0.512854 -0.14303,0.214684 -0.28607,0.143124 -0.23839,0.01194 -0.21456,-0.04771 -0.20263,-0.214687 -0.16688,-0.465158 -0.10728,-0.846808 -0.0238,-1.085342 0.0715,-0.858746 0.14304,-0.465159 0.28606,-0.310106 0.39336,-0.178903 0.32184,-0.05963 0.34567,0.03578 0.34567,0.15505 0.26223,0.250466 0.21456,0.465159 0.0834,0.536702 v 0.345891 l -1.32309,13.393985" />
  </g>
</svg>
