<?xml version="1.0" encoding="UTF-8" standalone="no"?>
<!-- Created with Inkscape (http://www.inkscape.org/) -->

<svg
   xmlns:dc="http://purl.org/dc/elements/1.1/"
   xmlns:cc="http://creativecommons.org/ns#"
   xmlns:rdf="http://www.w3.org/1999/02/22-rdf-syntax-ns#"
   xmlns:svg="http://www.w3.org/2000/svg"
   xmlns="http://www.w3.org/2000/svg"
   xmlns:sodipodi="http://sodipodi.sourceforge.net/DTD/sodipodi-0.dtd"
   xmlns:inkscape="http://www.inkscape.org/namespaces/inkscape"
   width="210mm"
   height="297mm"
   viewBox="0 0 210 297"
   version="1.1"
   id="svg8"
   inkscape:version="0.92.2 (5c3e80d, 2017-08-06)"
   sodipodi:docname="projekte-plakat.svg">
  <defs
     id="defs2">
    <filter
       id="filter3232"
       inkscape:collect="always">
      <feGaussianBlur
         id="feGaussianBlur3234"
         stdDeviation="4.3283459"
         inkscape:collect="always" />
    </filter>
  </defs>
  <sodipodi:namedview
     id="base"
     pagecolor="#ffffff"
     bordercolor="#666666"
     borderopacity="1.0"
     inkscape:pageopacity="0.0"
     inkscape:pageshadow="2"
     inkscape:zoom="1.4"
     inkscape:cx="409.56965"
     inkscape:cy="597.69039"
     inkscape:document-units="mm"
     inkscape:current-layer="layer1"
     showgrid="false"
     inkscape:window-width="2238"
     inkscape:window-height="1776"
     inkscape:window-x="0"
     inkscape:window-y="22"
     inkscape:window-maximized="0" />
  <metadata
     id="metadata5">
    <rdf:RDF>
      <cc:Work
         rdf:about="">
        <dc:format>image/svg+xml</dc:format>
        <dc:type
           rdf:resource="http://purl.org/dc/dcmitype/StillImage" />
        <dc:title />
      </cc:Work>
    </rdf:RDF>
  </metadata>
  <g
     inkscape:label="Layer 1"
     inkscape:groupmode="layer"
     id="layer1">
    <g
       id="g2849"
       transform="translate(14.967094,-36.081386)">
      <path
         sodipodi:nodetypes="scsss"
         inkscape:connector-curvature="0"
         id="path829"
         d="m 72.957785,78.603796 c 0,2.584447 -1.70483,5.078586 -5.06952,9.099138 -3.272769,-4.067984 -4.28959,-6.514691 -4.28959,-9.099138 0,-2.584449 2.095109,-4.679558 4.67956,-4.679558 2.58445,10e-7 4.67955,2.09511 4.67955,4.679558 z"
         style="opacity:1;fill:none;fill-opacity:1;stroke:#000000;stroke-width:0.48635438;stroke-miterlimit:4;stroke-dasharray:none;stroke-dashoffset:0;stroke-opacity:1" />
      <circle
         r="1.3701636"
         cy="78.954979"
         cx="68.460938"
         id="path835"
         style="opacity:1;fill:#000000;fill-opacity:1;stroke:#000000;stroke-width:1;stroke-miterlimit:4;stroke-dasharray:none;stroke-dashoffset:0;stroke-opacity:1" />
    </g>
    <text
       xml:space="preserve"
       style="font-style:normal;font-variant:normal;font-weight:normal;font-stretch:normal;font-size:4.58611107px;line-height:6.61458302px;font-family:Inconsolata;-inkscape-font-specification:Inconsolata;letter-spacing:0px;word-spacing:0px;fill:#000000;fill-opacity:1;stroke:none;stroke-width:0.26458332px;stroke-linecap:butt;stroke-linejoin:miter;stroke-opacity:1"
       x="12.593223"
       y="42.396954"
       id="text839"><tspan
         sodipodi:role="line"
         id="tspan837"
         x="12.593223"
         y="42.396954"
         style="stroke-width:0.26458332px">Das</tspan><tspan
         sodipodi:role="line"
         x="12.593223"
         y="49.011536"
         style="stroke-width:0.26458332px"
         id="tspan841">Endprtodukt</tspan></text>
    <text
       id="text847"
       y="43.169121"
       x="123.86501"
       style="font-style:normal;font-variant:normal;font-weight:normal;font-stretch:normal;font-size:4.58611107px;line-height:6.61458302px;font-family:Inconsolata;-inkscape-font-specification:Inconsolata;letter-spacing:0px;word-spacing:0px;fill:#000000;fill-opacity:1;stroke:none;stroke-width:0.26458332px;stroke-linecap:butt;stroke-linejoin:miter;stroke-opacity:1"
       xml:space="preserve"><tspan
         id="tspan845"
         style="stroke-width:0.26458332px"
         y="43.169121"
         x="123.86501"
         sodipodi:role="line">Problem /</tspan><tspan
         style="stroke-width:0.26458332px"
         y="49.783707"
         x="123.86501"
         sodipodi:role="line"
         id="tspan851">Fragestellung</tspan></text>
    <flowRoot
       xml:space="preserve"
       id="flowRoot853"
       style="fill:black;stroke:none;stroke-opacity:1;stroke-width:1px;stroke-linejoin:miter;stroke-linecap:butt;fill-opacity:1;font-family:Inconsolata;font-style:normal;font-weight:normal;font-size:17.33333333px;line-height:25px;letter-spacing:0px;word-spacing:0px;-inkscape-font-specification:Inconsolata;font-stretch:normal;font-variant:normal"><flowRegion
         id="flowRegion855"><rect
           id="rect857"
           width="44.642857"
           height="42.142857"
           x="482.14285"
           y="352.87683" /></flowRegion><flowPara
         id="flowPara859" /></flowRoot>    <g
       aria-label="?"
       style="font-style:normal;font-variant:normal;font-weight:normal;font-stretch:normal;font-size:4.58611107px;line-height:6.61458302px;font-family:Inconsolata;-inkscape-font-specification:Inconsolata;letter-spacing:0px;word-spacing:0px;fill:#000000;fill-opacity:1;stroke:none;stroke-width:0.26458332px;stroke-linecap:butt;stroke-linejoin:miter;stroke-opacity:1"
       id="text863"
       transform="matrix(3.0143219,1.1133528,-1.1133528,3.0143219,-96.952485,-399.94942)">
      <path
         d="m 134.13719,99.400147 c 0,-0.142169 -0.12383,-0.261408 -0.27058,-0.261408 -0.15134,0 -0.27517,0.119239 -0.27517,0.261408 0,0.146756 0.12383,0.261409 0.27517,0.261409 0.14675,0 0.27058,-0.114653 0.27058,-0.261409 z m -1.17863,-2.366433 0.23389,0.215547 c 0.14675,-0.243064 0.38982,-0.394405 0.61912,-0.394405 0.27517,0 0.48613,0.210961 0.48613,0.481541 0,0.302684 -0.23848,0.490714 -0.37606,0.642056 -0.20637,0.220133 -0.21555,0.385233 -0.21555,0.587022 v 0.192617 h 0.2981 v -0.192617 c 0,-0.160514 0.0138,-0.298097 0.20179,-0.463197 0.15134,-0.132997 0.45402,-0.311856 0.45402,-0.74295 0,-0.426508 -0.29809,-0.807156 -0.81632,-0.807156 -0.34396,0 -0.68333,0.174273 -0.88512,0.481542 z"
         style="stroke-width:0.26458332px"
         id="path865"
         inkscape:connector-curvature="0" />
    </g>
    <text
       xml:space="preserve"
       style="font-style:normal;font-variant:normal;font-weight:normal;font-stretch:normal;font-size:4.58611107px;line-height:6.61458302px;font-family:Inconsolata;-inkscape-font-specification:Inconsolata;letter-spacing:0px;word-spacing:0px;fill:#000000;fill-opacity:1;stroke:none;stroke-width:0.26458332px;stroke-linecap:butt;stroke-linejoin:miter;stroke-opacity:1"
       x="121.0731"
       y="186.3504"
       id="text874"><tspan
         sodipodi:role="line"
         id="tspan872"
         x="121.0731"
         y="186.3504"
         style="stroke-width:0.26458332px">Daten &amp;</tspan><tspan
         sodipodi:role="line"
         x="121.0731"
         y="192.96498"
         style="stroke-width:0.26458332px"
         id="tspan876">Technologien</tspan></text>
    <text
       id="text890"
       y="161.70715"
       x="14.079247"
       style="font-style:normal;font-variant:normal;font-weight:normal;font-stretch:normal;font-size:4.58611107px;line-height:6.61458302px;font-family:Inconsolata;-inkscape-font-specification:Inconsolata;letter-spacing:0px;word-spacing:0px;fill:#000000;fill-opacity:1;stroke:none;stroke-width:0.26458332px;stroke-linecap:butt;stroke-linejoin:miter;stroke-opacity:1"
       xml:space="preserve"><tspan
         id="tspan888"
         style="stroke-width:0.26458332px"
         y="161.70715"
         x="14.079247"
         sodipodi:role="line">Was brauchen</tspan><tspan
         style="stroke-width:0.26458332px"
         y="168.32173"
         x="14.079247"
         sodipodi:role="line"
         id="tspan894">wir noch?</tspan></text>
    <text
       xml:space="preserve"
       style="font-style:normal;font-variant:normal;font-weight:normal;font-stretch:normal;font-size:4.58611107px;line-height:6.61458302px;font-family:Inconsolata;-inkscape-font-specification:Inconsolata;letter-spacing:0px;word-spacing:0px;fill:#000000;fill-opacity:1;stroke:none;stroke-width:0.26458332px;stroke-linecap:butt;stroke-linejoin:miter;stroke-opacity:1"
       x="15.345469"
       y="235.73378"
       id="text902"><tspan
         sodipodi:role="line"
         x="15.345469"
         y="235.73378"
         style="stroke-width:0.26458332px"
         id="tspan3543">Wer macht mit?</tspan></text>
    <g
       id="g2861"
       transform="translate(45.16855,16.036172)">
      <path
         inkscape:connector-curvature="0"
         id="path878"
         d="m 140.3165,167.64155 c -0.13363,0.26727 0,6.5481 0,6.5481"
         style="fill:none;fill-rule:evenodd;stroke:#000000;stroke-width:0.26458332px;stroke-linecap:butt;stroke-linejoin:miter;stroke-opacity:1" />
      <path
         inkscape:connector-curvature="0"
         id="path880"
         d="m 138.7797,173.32102 h 8.81989"
         style="fill:none;fill-rule:evenodd;stroke:#000000;stroke-width:0.26458332px;stroke-linecap:butt;stroke-linejoin:miter;stroke-opacity:1" />
      <path
         inkscape:connector-curvature="0"
         id="path882"
         d="m 140.3165,173.48807 c 0,0 0.16704,-2.60588 0.66817,-2.23839 0.50113,0.3675 0.46773,0.30068 0.53454,0.43432 0.0668,0.13363 0.60136,0.60135 0.96886,-0.13364 0.36749,-0.73499 0.43431,-2.60587 1.20271,-1.43657"
         style="fill:none;fill-rule:evenodd;stroke:#000000;stroke-width:0.26458332px;stroke-linecap:butt;stroke-linejoin:miter;stroke-opacity:1" />
      <g
         transform="matrix(0.37642051,0,0,0.37642051,96.775841,102.20407)"
         id="g1589">
        <path
           inkscape:connector-curvature="0"
           id="path995"
           d="m 138.13517,171.06589 c 0,-0.0265 0,-0.0265 0,-0.0265 -0.39687,-0.52916 -0.87312,-0.97896 -1.42875,-1.40229 v 0.0265 c -0.44979,0.34396 -0.89958,0.71437 -1.32291,1.08479 -0.18521,-0.10583 -0.34396,-0.18521 -0.50271,-0.26458 -0.21167,-0.10584 -0.42333,-0.21167 -0.66146,-0.26459 -0.0794,-0.0265 -0.15875,-0.0529 -0.23812,-0.0529 -0.0529,-0.58209 -0.10584,-1.16417 -0.18521,-1.74625 -0.26459,-0.0529 -0.52917,-0.0529 -0.82021,-0.0794 -0.0794,0 -0.15875,0 -0.21167,0 -0.0794,0 -0.15875,0 -0.21166,0 -0.26459,0.0265 -0.50271,0.0265 -0.74084,0.0794 -0.0794,0.55562 -0.13229,1.13771 -0.15875,1.71979 -0.10583,0 -0.18521,0.0265 -0.29104,0.0529 -0.0265,0 -0.0529,0 -0.0794,0.0265 -0.21167,0.0529 -0.42334,0.15875 -0.635,0.26459 -0.18521,0.0794 -0.34396,0.15875 -0.50271,0.26458 -0.44979,-0.37042 -0.87313,-0.71437 -1.32292,-1.08479 0,0 0,0 -0.0265,-0.0265 -0.10583,0.0794 -0.21166,0.15875 -0.29104,0.23813 -0.18521,0.13229 -0.34396,0.29104 -0.47625,0.44979 -0.23812,0.21166 -0.42333,0.47625 -0.635,0.74083 0,0 0,0 0.0265,0 0.34396,0.44979 0.71437,0.87313 1.08479,1.32292 -0.10583,0.15875 -0.21167,0.34396 -0.29104,0.50271 -0.10583,0.21166 -0.18521,0.44979 -0.23813,0.66145 -0.0529,0.10584 -0.0794,0.21167 -0.0794,0.29105 -0.58208,0.0529 -1.16417,0.10583 -1.71979,0.1852 -0.0529,0.26459 -0.0794,0.52917 -0.0794,0.82021 0,0.39688 0.0265,0.79375 0.10584,1.16417 0.55562,0.0529 1.11125,0.10583 1.69333,0.15875 0,0.10583 0.0265,0.21167 0.0794,0.29104 0.0529,0.23813 0.1323,0.44979 0.23813,0.68792 0.10583,0.18521 0.18521,0.37041 0.3175,0.52916 -0.37042,0.4498 -0.74083,0.87313 -1.08479,1.32292 0.39687,0.55563 0.87312,1.03188 1.42875,1.42875 v -0.0265 c 0.42333,-0.34396 0.87312,-0.71437 1.29646,-1.08479 h 0.0264 c 0.1323,0.0794 0.29105,0.15875 0.42334,0.23813 0.23812,0.10583 0.50271,0.21166 0.74083,0.26458 0.10583,0.0265 0.18521,0.0529 0.26458,0.0794 0.0529,0.55563 0.10584,1.13771 0.18521,1.7198 0.23813,0.0265 0.47625,0.0529 0.74084,0.0529 0.0529,0 0.21166,0 0.39687,0 0.29104,0 0.58208,-0.0265 0.87313,-0.0794 0.0529,-0.55563 0.10583,-1.13771 0.15875,-1.7198 0.0794,-0.0265 0.15875,-0.0529 0.23812,-0.0794 v 0 c 0.23813,-0.0529 0.44979,-0.13229 0.66146,-0.23812 0.18521,-0.0794 0.37042,-0.18521 0.55562,-0.3175 0,0.0265 0,0.0265 0.0265,0.0265 0.42334,0.37041 0.87313,0.74083 1.32292,1.08479 0.0794,-0.0529 0.15875,-0.10583 0.26458,-0.18521 0.15875,-0.13229 0.3175,-0.29104 0.44979,-0.44979 0.23813,-0.23813 0.47625,-0.50271 0.68792,-0.79375 -0.37042,-0.44979 -0.74083,-0.89958 -1.11125,-1.32292 0,-0.0265 0,-0.0265 0,-0.0265 0.0794,-0.1323 0.15875,-0.29105 0.23813,-0.4498 0.0794,-0.21166 0.1852,-0.42333 0.23812,-0.635 0,-0.0264 0,-0.0529 0.0265,-0.0529 0,-0.10584 0.0265,-0.18521 0.0529,-0.23813 0.58208,-0.0529 1.16417,-0.10583 1.71979,-0.15875 0.0529,-0.26458 0.0529,-0.52916 0.0794,-0.79375 0,-0.0794 0,-0.15875 0,-0.23812 0,-0.0529 0,-0.13229 0,-0.21167 -0.0265,-0.26458 -0.0265,-0.52916 -0.0794,-0.79374 -0.55563,-0.0529 -1.13771,-0.10584 -1.71979,-0.15875 -0.0265,-0.0794 -0.0529,-0.15875 -0.0529,-0.23813 -0.0794,-0.23812 -0.15875,-0.47625 -0.26459,-0.71437 -0.0794,-0.15875 -0.1852,-0.34396 -0.26458,-0.50271 0.34396,-0.42334 0.71438,-0.87313 1.08479,-1.32292 z m -7.06437,2.19604 c 0.47625,-0.50271 1.05833,-0.74083 1.71979,-0.71437 0.68792,-0.0265 1.24354,0.21166 1.74625,0.71437 0.47625,0.47625 0.71438,1.05834 0.71438,1.71979 0,0.68792 -0.23813,1.24355 -0.71438,1.74625 -0.50271,0.47625 -1.05833,0.71438 -1.74625,0.71438 -0.66146,0 -1.24354,-0.23813 -1.71979,-0.71438 -0.47625,-0.5027 -0.71438,-1.05833 -0.71438,-1.74625 0,-0.66145 0.23813,-1.24354 0.71438,-1.71979 z"
           style="stroke-width:0.26458332" />
        <path
           inkscape:connector-curvature="0"
           id="path997"
           d="m 132.81705,172.89152 c -0.58208,0 -1.05833,0.21166 -1.48167,0.60854 -0.39687,0.42333 -0.60854,0.89958 -0.60854,1.48166 0,0.58209 0.21167,1.05834 0.60854,1.48167 v 0 c 0.42334,0.42333 0.89959,0.635 1.48167,0.635 0.58208,0 1.05833,-0.21167 1.48167,-0.635 v 0 c 0.42333,-0.42333 0.60854,-0.89958 0.60854,-1.48167 v 0 c 0,-0.58208 -0.18521,-1.05833 -0.60854,-1.48166 -0.42334,-0.39688 -0.89959,-0.60854 -1.48167,-0.60854 z m -1.11125,0.97895 c 0.3175,-0.29104 0.68792,-0.44979 1.11125,-0.44979 0.42333,0 0.79375,0.15875 1.11125,0.44979 0.3175,0.3175 0.44979,0.66146 0.44979,1.11125 v 0 c 0,0.4498 -0.13229,0.82021 -0.44979,1.11125 -0.3175,0.3175 -0.68792,0.47625 -1.11125,0.47625 -0.42333,0 -0.79375,-0.15875 -1.11125,-0.47625 -0.29104,-0.29104 -0.44979,-0.66145 -0.44979,-1.11125 0,-0.42333 0.15875,-0.79375 0.44979,-1.11125 z"
           style="stroke-width:0.26458332" />
      </g>
    </g>
    <g
       id="g2802"
       transform="translate(-0.37797619,-31.75)">
      <path
         sodipodi:nodetypes="cccccc"
         inkscape:connector-curvature="0"
         id="path2985"
         d="m 5.6833697,35.844838 c 9.3833393,0.162314 188.6352903,0.06538 198.0102203,-0.375611 -0.40991,7.088045 0.41755,14.113421 0.45157,21.109404 -9.55176,-0.457354 -188.979089,-0.206188 -198.5370543,-0.30049 -0.306485,-6.79898 -0.55114,-14.215849 0.07526,-20.433303 z"
         style="fill:#f5f5f5;stroke:#000000;stroke-width:0.26458332px;stroke-linecap:butt;stroke-linejoin:miter;stroke-opacity:1" />
      <path
         sodipodi:nodetypes="ccccccccc"
         inkscape:connector-curvature="0"
         id="path3005"
         d="m 6.5814527,49.352029 c 0.05858,0.403556 -0.338357,0.698563 -0.704612,0.733203 -0.408371,0.07692 -0.836901,0.07682 -1.221177,0.252412 -0.324252,0.113221 -0.791403,0.157888 -0.99093,-0.187838 -0.203608,-0.341297 -0.02439,-0.814337 0.339389,-0.961893 0.306019,-0.195053 0.670165,-0.125799 1.009621,-0.136157 0.444291,-0.0258 0.899668,-0.155813 1.339601,-0.0341 0.132305,0.05596 0.220086,0.19285 0.228108,0.33437 z"
         style="fill:#ffdead;stroke:#000000;stroke-width:0.26458332px;stroke-linecap:butt;stroke-linejoin:miter;stroke-opacity:1" />
      <path
         sodipodi:nodetypes="ccccc"
         inkscape:connector-curvature="0"
         id="path3021"
         d="m 4.6235857,51.684463 c -1.047549,0.309513 -1.291783,-1.226566 -0.208523,-1.271651 0.691168,0.01175 2.009648,-0.5725 2.153626,-0.03616 0.203057,0.756423 -1.249198,1.039895 -1.945103,1.307809 z"
         style="fill:#ffdead;stroke:#000000;stroke-width:0.26458332px;stroke-linecap:butt;stroke-linejoin:miter;stroke-opacity:1" />
      <path
         sodipodi:nodetypes="scccccs"
         inkscape:connector-curvature="0"
         id="path3021-4"
         d="m 6.6575147,48.235315 c 0,0.595585 -0.690456,0.71016 -1.197083,0.703276 -0.468601,-0.03713 -1.018575,0.167476 -1.426954,-0.120933 -0.448614,-0.370737 -0.146142,-1.173631 0.416222,-1.21334 0.313488,0.0493 0.630652,0.129776 0.955812,0.09097 0.482153,-0.03239 1.252003,0.09897 1.252003,0.540025 z"
         style="fill:#ffdead;stroke:#000000;stroke-width:0.26458332px;stroke-linecap:butt;stroke-linejoin:miter;stroke-opacity:1" />
      <path
         inkscape:connector-curvature="0"
         id="path3067"
         d="m 202.41892,49.294077 c 0.16737,-0.955937 1.34417,-0.506219 1.98733,-0.770498 0.85547,-0.331962 1.51971,0.891995 0.57738,1.240316 -0.68987,0.153289 -1.40682,-0.02715 -2.10701,-0.03167 -0.23062,-0.02302 -0.47152,-0.180248 -0.4577,-0.438148 z"
         style="fill:#ffdead;stroke:#000000;stroke-width:0.26458332px;stroke-linecap:butt;stroke-linejoin:miter;stroke-opacity:1"
         sodipodi:nodetypes="ccccc" />
      <path
         inkscape:connector-curvature="0"
         id="path3069"
         d="m 204.37233,47.161623 c 0.80292,-0.344244 1.29475,1.13039 0.36473,1.240245 -0.65527,0.02883 -1.30026,0.22202 -1.9472,0.204007 -0.93852,-0.220864 -0.0322,-1.160778 0.55137,-1.158428 0.34584,-0.08787 0.69037,-0.179702 1.0311,-0.285824 z"
         style="fill:#ffdead;stroke:#000000;stroke-width:0.26458332px;stroke-linecap:butt;stroke-linejoin:miter;stroke-opacity:1"
         sodipodi:nodetypes="ccccc" />
      <path
         inkscape:connector-curvature="0"
         id="path3071"
         d="m 202.41002,50.444703 c 0.19738,-0.852088 1.23922,-0.532379 1.86497,-0.573662 0.8103,-0.167127 1.40282,0.989452 0.5485,1.33791 -0.62932,0.09843 -1.25811,-0.151849 -1.88288,-0.220897 -0.24062,-0.07422 -0.52861,-0.263655 -0.53059,-0.543351 z"
         style="fill:#ffdead;stroke:#000000;stroke-width:0.26458332px;stroke-linecap:butt;stroke-linejoin:miter;stroke-opacity:1"
         sodipodi:nodetypes="ccccc" />
    </g>
    <text
       xml:space="preserve"
       style="font-style:normal;font-variant:normal;font-weight:normal;font-stretch:normal;font-size:4.58611107px;line-height:6.61458302px;font-family:Inconsolata;-inkscape-font-specification:Inconsolata;letter-spacing:0px;word-spacing:0px;fill:#000000;fill-opacity:1;stroke:none;stroke-width:0.26458332px;stroke-linecap:butt;stroke-linejoin:miter;stroke-opacity:1"
       x="24.946428"
       y="-11.61756"
       id="text2806"><tspan
         sodipodi:role="line"
         id="tspan2804"
         x="24.946428"
         y="-11.61756"
         style="stroke-width:0.26458332px">https://openclipart.org/detail/248144/banner-with-hands</tspan></text>
    <text
       xml:space="preserve"
       style="font-style:normal;font-variant:normal;font-weight:normal;font-stretch:normal;font-size:4.58611107px;line-height:6.61458302px;font-family:Inconsolata;-inkscape-font-specification:Inconsolata;letter-spacing:0px;word-spacing:0px;fill:#000000;fill-opacity:1;stroke:none;stroke-width:0.26458332px;stroke-linecap:butt;stroke-linejoin:miter;stroke-opacity:1"
       x="26.647322"
       y="-30.705357"
       id="text2814"><tspan
         sodipodi:role="line"
         id="tspan2812"
         x="26.647322"
         y="-25.93051"
         style="stroke-width:0.26458332px" /></text>
    <text
       xml:space="preserve"
       style="font-style:normal;font-variant:normal;font-weight:normal;font-stretch:normal;font-size:4.58611107px;line-height:6.61458302px;font-family:Inconsolata;-inkscape-font-specification:Inconsolata;letter-spacing:0px;word-spacing:0px;fill:#000000;fill-opacity:1;stroke:none;stroke-width:0.26458332px;stroke-linecap:butt;stroke-linejoin:miter;stroke-opacity:1"
       x="28.537201"
       y="-27.870537"
       id="text2818"><tspan
         sodipodi:role="line"
         id="tspan2816"
         x="28.537201"
         y="-27.870537"
         style="stroke-width:0.26458332px">http://sketchnotes.de/wp-content/uploads/2014/09/barcamp-sessiondoku-print.pdf</tspan></text>
    <path
       sodipodi:nodetypes="cccccc"
       inkscape:connector-curvature="0"
       id="path2845"
       d="m 8.1950043,35.736915 c 9.3833337,0.16231 75.3935777,0.0654 84.7685017,-0.37561 -0.40991,7.08804 0.41755,98.780085 0.45157,105.776065 -9.551754,-0.45735 -75.737378,-0.20619 -85.2953317,-0.30049 -0.30648,-6.79898 -0.55114,-98.882515 0.0753,-105.099965 z"
       style="fill:none;stroke:#000000;stroke-width:0.26458332px;stroke-linecap:butt;stroke-linejoin:miter;stroke-opacity:1" />
    <path
       style="fill:none;stroke:#000000;stroke-width:0.26458332px;stroke-linecap:butt;stroke-linejoin:miter;stroke-opacity:1"
       d="m 119.6464,35.469645 c 9.38333,0.16231 75.39358,0.0654 84.7685,-0.37561 -0.40991,7.08804 0.41755,98.780085 0.45157,105.776065 -9.55175,-0.45735 -75.73738,-0.20619 -85.29533,-0.30049 -0.30648,-6.79898 -0.55114,-98.882515 0.0753,-105.099965 z"
       id="path2851"
       inkscape:connector-curvature="0"
       sodipodi:nodetypes="cccccc" />
    <path
       sodipodi:nodetypes="cccccc"
       inkscape:connector-curvature="0"
       id="path2853"
       d="m 115.90463,176.69541 c 9.38333,0.16231 75.39358,0.0654 84.7685,-0.37561 -0.40991,7.08804 0.41755,98.78008 0.45157,105.77606 -9.55175,-0.45735 -75.73738,-0.20619 -85.29533,-0.30049 -0.30648,-6.79898 -0.55114,-98.88251 0.0753,-105.09996 z"
       style="fill:none;stroke:#000000;stroke-width:0.26458332px;stroke-linecap:butt;stroke-linejoin:miter;stroke-opacity:1" />
    <path
       style="fill:none;stroke:#000000;stroke-width:0.26458332px;stroke-linecap:butt;stroke-linejoin:miter;stroke-opacity:1"
       d="m 8.4622738,153.87005 c 9.3833342,0.16231 75.3935782,0.0654 84.7685022,-0.37561 -0.40991,7.08804 0.41755,45.86341 0.45157,52.85939 -9.551754,-0.45735 -75.737378,-0.20619 -85.2953322,-0.30049 -0.30648,-6.79898 -0.55114,-45.96584 0.0753,-52.18329 z"
       id="path2863"
       inkscape:connector-curvature="0"
       sodipodi:nodetypes="cccccc" />
    <path
       sodipodi:nodetypes="cccccc"
       inkscape:connector-curvature="0"
       id="path2865"
       d="m 8.1950043,228.43825 c 9.3833337,0.16231 75.3935777,0.0654 84.7685017,-0.37561 -0.40991,7.08804 0.41755,45.86341 0.45157,52.85939 -9.551754,-0.45735 -75.737378,-0.20619 -85.2953317,-0.30049 -0.30648,-6.79898 -0.55114,-45.96584 0.0753,-52.18329 z"
       style="fill:none;stroke:#000000;stroke-width:0.26458332px;stroke-linecap:butt;stroke-linejoin:miter;stroke-opacity:1" />
    <text
       xml:space="preserve"
       style="font-style:normal;font-variant:normal;font-weight:normal;font-stretch:normal;font-size:4.58611107px;line-height:6.61458302px;font-family:Inconsolata;-inkscape-font-specification:Inconsolata;letter-spacing:0px;word-spacing:0px;fill:#000000;fill-opacity:1;stroke:none;stroke-width:0.26458332px;stroke-linecap:butt;stroke-linejoin:miter;stroke-opacity:1"
       x="24.321527"
       y="-46.708611"
       id="text2869"><tspan
         sodipodi:role="line"
         id="tspan2867"
         x="24.321527"
         y="-46.708611"
         style="stroke-width:0.26458332px">https://openclipart.org/detail/15192/arrow-set-comic</tspan></text>
    <g
       id="g3541"
       transform="matrix(0.35374038,0,0,0.35374038,48.657801,-67.694843)">
      <path
         transform="matrix(0.26458333,0,0,0.26458333,38.665216,244.01108)"
         inkscape:connector-curvature="0"
         id="path2388"
         sodipodi:nodetypes="cccccsccc"
         style="fill:#8e8e8e;fill-rule:evenodd;stroke:#000000;stroke-width:6.80000019;filter:url(#filter3232)"
         d="m 385.54,459.3 c 63.33,-11.33 101.34,-9.38 125.15,0 -4.08,14 -19.27,24.52 -33.23,36.77 27.4,-13.11 55.19,-25.08 84.15,-36.07 -8.34,-34.82 -36.77,-54.13 -60.81,-78.48 3.52,8.18 8.64,17.16 12.08,25.32 1.73,4.09 2.49,7.79 1.35,10.74 -41.72,-13.9 -83.44,-13.43 -125.16,-2.83 z" />
      <path
         inkscape:connector-curvature="0"
         id="path3194"
         sodipodi:nodetypes="cccccsccc"
         style="fill:#ffffff;fill-rule:evenodd;stroke:#000000;stroke-width:1.79916668"
         d="m 140.29432,362.69787 c 16.75871,-2.99508 26.81287,-2.48179 33.11525,0 -1.08215,3.70681 -5.09852,6.49023 -8.79475,9.72873 7.24958,-3.46604 14.60235,-6.63575 22.26469,-9.54088 -2.20663,-9.21543 -9.72873,-14.32454 -16.08932,-20.76714 0.93134,2.16694 2.28865,4.54025 3.19617,6.69925 0.45773,1.08214 0.65881,2.06375 0.35719,2.84162 -11.03842,-3.67506 -22.07684,-3.55335 -33.11525,-0.74877 z" />
    </g>
    <g
       id="g3537"
       transform="matrix(-0.43226159,0,0,0.43226159,197.83726,5.3459243)">
      <path
         inkscape:connector-curvature="0"
         id="path3266"
         d="m 385.54,459.3 c 63.33,-11.33 101.34,-9.38 125.15,0 -4.08,14 -19.27,24.52 -33.23,36.77 27.4,-13.11 55.19,-25.08 84.15,-36.07 -8.34,-34.82 -36.77,-54.13 -60.81,-78.48 3.52,8.18 8.64,17.16 12.08,25.32 1.73,4.09 2.49,7.79 1.35,10.74 -41.72,-13.9 -83.44,-13.43 -125.16,-2.83 z"
         sodipodi:nodetypes="cccccsccc"
         style="fill:#8e8e8e;fill-rule:evenodd;stroke:#000000;stroke-width:6.80000019;filter:url(#filter3232)"
         transform="matrix(0,0.26458333,0.26458333,0,-32.925212,234.33614)" />
      <path
         inkscape:connector-curvature="0"
         id="path3268"
         sodipodi:nodetypes="cccccsccc"
         style="fill:#ffffff;fill-rule:evenodd;stroke:#000000;stroke-width:1.79916668"
         d="m 85.952079,333.31967 c -2.99773,16.75606 -2.481792,26.81287 0,33.11525 3.704166,-1.08215 6.490229,-5.09852 9.728729,-8.79475 -3.468688,7.24958 -6.63575,14.60235 -9.543521,22.26469 -9.212792,-2.20663 -14.321896,-9.72873 -20.7645,-16.08932 2.166938,0.93134 4.54025,2.286 6.69925,3.19617 1.082146,0.45773 2.061104,0.65881 2.841625,0.35719 -3.677708,-11.03842 -3.553354,-22.07683 -0.748771,-33.11525 z" />
    </g>
    <flowRoot
       xml:space="preserve"
       id="flowRoot1479"
       style="fill:black;stroke:none;stroke-opacity:1;stroke-width:1px;stroke-linejoin:miter;stroke-linecap:butt;fill-opacity:1;font-family:Inconsolata;font-style:normal;font-weight:normal;font-size:17.33333333px;line-height:25px;letter-spacing:0px;word-spacing:0px;-inkscape-font-specification:Inconsolata;font-stretch:normal;font-variant:normal"><flowRegion
         id="flowRegion1481"><rect
           id="rect1483"
           width="738.43695"
           height="50.822948"
           x="30"
           y="-36.766029" /></flowRegion><flowPara
         id="flowPara1485"></flowPara></flowRoot>    <text
       xml:space="preserve"
       style="font-style:normal;font-variant:normal;font-weight:normal;font-stretch:normal;font-size:4.58611107px;line-height:6.61458302px;font-family:Inconsolata;-inkscape-font-specification:Inconsolata;letter-spacing:0px;word-spacing:0px;fill:#000000;fill-opacity:1;stroke:none;stroke-width:0.26458332px;stroke-linecap:butt;stroke-linejoin:miter;stroke-opacity:1"
       x="165.1756"
       y="-13.318453"
       id="text1489"><tspan
         sodipodi:role="line"
         id="tspan1487"
         x="165.1756"
         y="-13.318453"
         style="stroke-width:0.26458332px">https://openclipart.org/detail/15046/abstract-people</tspan></text>
    <g
       id="g1587"
       transform="rotate(10.971478,95.706587,218.59898)">
      <path
         id="path884"
         style="fill:#ffffff;fill-rule:evenodd;stroke:#000000;stroke-width:0.22690542;stroke-linejoin:round"
         d="m 85.080511,238.57028 c 0.01567,-0.16732 -0.303966,-1.0921 0.557237,-2.26797 1.298891,-1.26589 5.345549,-1.28036 6.053272,0.0196 0.707624,1.29997 0.630585,2.25761 0.474311,2.42492 -0.477205,0.27675 -0.813703,0.36031 -1.290907,0.44397 0,0 -0.117455,-1.39143 -0.280814,-1.88456 -0.007,-0.0168 0.202178,0.7515 0.280814,1.88497 -0.108873,1.12064 -0.217746,2.15125 -0.217746,2.15125 -1.441492,0.14392 -2.758046,0.17204 -4.137069,-0.0315 -0.140707,-0.12872 -0.465629,-1.65883 -0.505546,-2.32504 -0.03991,-0.76916 0.178927,-1.85716 0.178927,-1.85716 -0.0469,0.0386 -0.217746,1.48823 -0.16326,1.8469 -0.367732,0.0368 -0.870982,-0.31525 -0.949219,-0.40537 z"
         sodipodi:nodetypes="ccccccccccccc"
         inkscape:connector-curvature="0" />
      <path
         id="path885"
         inkscape:connector-curvature="0"
         style="fill:#ffffff;fill-rule:evenodd;stroke:#000000;stroke-width:0.22690542;stroke-linejoin:round"
         d="m 90.221186,234.17025 c 0,0.84123 -0.82907,1.52406 -1.850738,1.52406 -1.021669,0 -1.850839,-0.68283 -1.850839,-1.52406 0,-0.84132 0.82917,-1.52415 1.850839,-1.52415 1.021668,2e-5 1.850738,0.68283 1.850738,1.52415 z" />
      <path
         id="path887"
         style="fill:#ffffff;fill-opacity:0.25;fill-rule:evenodd;stroke-width:0.10121121pt"
         d="m 87.412047,235.58006 c -0.08961,-0.0185 -1.28961,0.20263 -1.719513,0.81064 -0.358153,0.2211 -0.698543,1.27122 -0.555242,2.11881 0.179126,0.14731 0.519417,0.38689 0.60903,0.33156 0.501454,-1.08697 -1.182134,-2.21089 1.665725,-3.26101 z"
         sodipodi:nodetypes="ccccc"
         inkscape:connector-curvature="0" />
      <path
         id="path890"
         style="fill:#ffffff;fill-opacity:0.25;fill-rule:evenodd;stroke-width:0.10121121pt"
         d="m 91.316601,239.00696 c 0,0 0.823982,-0.16589 0.859807,-0.33167 0.196989,-0.64485 -0.34039,-2.17404 -0.591067,-2.432 -1.21796,-0.44222 1.325335,2.56093 -0.26874,2.76367 z"
         sodipodi:nodetypes="cccc"
         inkscape:connector-curvature="0" />
      <path
         id="path891"
         style="fill:#ffffff;fill-opacity:0.23999999;fill-rule:evenodd;stroke-width:0.10121121pt"
         d="m 89.686702,241.36525 c 0,0 0.788155,0.0552 0.877669,-0.0922 0.08951,-0.1474 0.501553,-1.43711 0.250777,-2.06348 -0.823982,-0.70008 0.304465,2.13719 -1.128446,2.15566 z"
         sodipodi:nodetypes="cccc"
         inkscape:connector-curvature="0" />
      <path
         id="path828"
         style="fill:#ffffff;fill-rule:evenodd;stroke:#000000;stroke-width:0.22690542;stroke-linejoin:round"
         d="m 88.49331,239.73565 c 0.01567,-0.16732 -0.303966,-1.0921 0.557237,-2.26796 1.29889,-1.26589 5.345548,-1.28037 6.053272,0.0196 0.707624,1.29997 0.630585,2.2576 0.474311,2.42491 -0.477205,0.27675 -0.813703,0.36031 -1.290908,0.44397 0,0 -0.117454,-1.39143 -0.280813,-1.88457 -0.007,-0.0168 0.202178,0.75151 0.280813,1.88498 -0.108872,1.12064 -0.217745,2.15125 -0.217745,2.15125 -1.441493,0.14392 -2.758047,0.17205 -4.13707,-0.0315 -0.140706,-0.12872 -0.465629,-1.65884 -0.505545,-2.32503 -0.03992,-0.76917 0.178927,-1.85716 0.178927,-1.85716 -0.0469,0.0386 -0.217746,1.48823 -0.16326,1.84688 -0.367733,0.0368 -0.870983,-0.31523 -0.949219,-0.40536 z"
         sodipodi:nodetypes="ccccccccccccc"
         inkscape:connector-curvature="0" />
      <path
         id="path827"
         inkscape:connector-curvature="0"
         style="fill:#ffffff;fill-rule:evenodd;stroke:#000000;stroke-width:0.22690542;stroke-linejoin:round"
         d="m 93.633985,235.33563 c 0,0.84122 -0.82907,1.52406 -1.850739,1.52406 -1.021668,0 -1.850839,-0.68284 -1.850839,-1.52406 0,-0.84133 0.829171,-1.52416 1.850839,-1.52416 1.021669,2e-5 1.850739,0.68283 1.850739,1.52416 z" />
      <path
         id="path875"
         style="fill:#ffffff;fill-rule:evenodd;stroke:#000000;stroke-width:0.22690542;stroke-linejoin:round"
         d="m 81.452154,237.9335 c 0.01567,-0.16732 -0.303965,-1.0921 0.557238,-2.26797 1.298891,-1.26588 5.345549,-1.28036 6.053272,0.0196 0.707624,1.29997 0.630585,2.25761 0.474311,2.42492 -0.477205,0.27675 -0.813703,0.36031 -1.290907,0.44397 0,0 -0.117456,-1.39143 -0.280815,-1.88457 -0.007,-0.0168 0.202179,0.75151 0.280815,1.88498 -0.108873,1.12064 -0.217746,2.15125 -0.217746,2.15125 -1.441493,0.14392 -2.758046,0.17205 -4.13707,-0.0315 -0.140706,-0.12872 -0.465628,-1.65884 -0.505545,-2.32504 -0.03991,-0.76917 0.178927,-1.85716 0.178927,-1.85716 -0.0469,0.0386 -0.217746,1.48823 -0.16326,1.84689 -0.367732,0.0368 -0.870982,-0.31524 -0.94922,-0.40537 z"
         sodipodi:nodetypes="ccccccccccccc"
         inkscape:connector-curvature="0" />
      <path
         id="path876"
         inkscape:connector-curvature="0"
         style="fill:#ffffff;fill-rule:evenodd;stroke:#000000;stroke-width:0.22690542;stroke-linejoin:round"
         d="m 86.59283,233.53348 c 0,0.84122 -0.82907,1.52405 -1.850738,1.52405 -1.021669,0 -1.85084,-0.68283 -1.85084,-1.52405 0,-0.84133 0.829171,-1.52416 1.85084,-1.52416 1.021668,2e-5 1.850738,0.68283 1.850738,1.52416 z" />
      <path
         id="path878-3"
         style="fill:#ffffff;fill-opacity:0.25;fill-rule:evenodd;stroke-width:0.10121121pt"
         d="m 83.783691,234.94328 c -0.08961,-0.0185 -1.28961,0.20264 -1.719513,0.81064 -0.358153,0.2211 -0.698543,1.27122 -0.555242,2.11881 0.179126,0.1473 0.519417,0.38689 0.60903,0.33156 0.501454,-1.08697 -1.182134,-2.21089 1.665725,-3.26101 z"
         sodipodi:nodetypes="ccccc"
         inkscape:connector-curvature="0" />
      <path
         id="path879"
         style="fill:#ffffff;fill-opacity:0.25;fill-rule:evenodd;stroke-width:0.10121121pt"
         d="m 82.583595,236.78566 c -0.358153,1.12392 -0.01787,3.13208 0.376114,3.79541 0.394079,0.12893 0.94932,0.18426 1.074758,0.1474 0.107377,-0.93966 -1.486698,-0.81073 -1.450872,-3.94281 z"
         sodipodi:nodetypes="cccc"
         inkscape:connector-curvature="0" />
      <path
         id="path893"
         style="fill:#ffffff;fill-rule:evenodd;stroke:#000000;stroke-width:0.22690542;stroke-linejoin:round"
         d="m 78.609009,240.69155 c 0.01567,-0.16733 -0.303966,-1.0921 0.557237,-2.26797 1.298891,-1.26589 5.345549,-1.28036 6.053272,0.0196 0.707625,1.29997 0.630585,2.2576 0.474311,2.42492 -0.477205,0.27675 -0.813703,0.3603 -1.290907,0.44396 0,0 -0.117455,-1.39142 -0.280814,-1.88456 -0.007,-0.0168 0.202178,0.75151 0.280814,1.88498 -0.108873,1.12063 -0.217745,2.15125 -0.217745,2.15125 -1.441493,0.14392 -2.758047,0.17204 -4.13707,-0.0315 -0.140707,-0.12873 -0.465629,-1.65884 -0.505546,-2.32504 -0.03992,-0.76916 0.178927,-1.85716 0.178927,-1.85716 -0.0469,0.0386 -0.217746,1.48823 -0.163259,1.84689 -0.367733,0.0368 -0.870983,-0.31524 -0.94922,-0.40537 z"
         sodipodi:nodetypes="ccccccccccccc"
         inkscape:connector-curvature="0" />
      <path
         id="path894"
         inkscape:connector-curvature="0"
         style="fill:#ffffff;fill-rule:evenodd;stroke:#000000;stroke-width:0.22690542;stroke-linejoin:round"
         d="m 83.749685,236.29153 c 0,0.84122 -0.82907,1.52405 -1.850739,1.52405 -1.021669,0 -1.850839,-0.68283 -1.850839,-1.52405 0,-0.84134 0.82917,-1.52417 1.850839,-1.52417 1.021669,3e-5 1.850739,0.68283 1.850739,1.52417 z" />
    </g>
  </g>
</svg>
