<svg version="1.1" width="10" height="16" viewBox="-1 -1 10 16" xmlns="http://www.w3.org/2000/svg" xmlns:xlink="http://www.w3.org/1999/xlink">
  <!-- Exported by Scratch - http://scratch.mit.edu/ -->
  <path id="ID0.18814716208726168" fill="#FF9400" stroke="#FF9400" stroke-width="2" stroke-linecap="round" d="M 66.600 139.850 C 66.614 139.550 66.388 139.041 66.700 139.850 C 67.965 143.106 69.407 146.479 70.200 149.950 C 70.412 150.868 70.051 151.933 69.600 152.850 C 69.151 153.647 68.602 154.876 67.600 154.900 C 66.548 154.924 65.739 153.699 65.350 152.750 C 64.715 151.565 64.498 150.138 64.700 148.850 C 64.962 147.177 66.163 145.614 66.500 144.100 C 66.810 142.713 66.551 141.041 66.600 139.850 Z " transform="matrix(1.1717298030853271, 0, 0, 0.869210422039032, -74.15, -120.65)"/>
  <path id="ID0.6274793283082545" fill="#FFFF99" stroke="none" stroke-linecap="round" d="M 68.350 151.600 C 68.497 151.380 68.509 151.261 68.600 151.400 C 68.992 152.404 69.404 153.432 69.500 154.325 C 69.564 154.943 69.266 155.544 69.148 156.145 C 69.014 156.869 69.232 158.540 68.850 158.600 C 68.422 158.540 67.774 156.920 67.452 156.145 C 67.215 155.579 67 154.940 67.100 154.325 C 67.254 153.440 67.827 152.432 68.350 151.600 Z " transform="matrix(0.8145062327384949, 0, 0, 0.6042155623435974, -51.15, -81.4)"/>
</svg>