<?xml version="1.0" encoding="UTF-8" standalone="no"?>
<svg
   xmlns:dc="http://purl.org/dc/elements/1.1/"
   xmlns:cc="http://creativecommons.org/ns#"
   xmlns:rdf="http://www.w3.org/1999/02/22-rdf-syntax-ns#"
   xmlns:svg="http://www.w3.org/2000/svg"
   xmlns="http://www.w3.org/2000/svg"
   xmlns:sodipodi="http://sodipodi.sourceforge.net/DTD/sodipodi-0.dtd"
   xmlns:inkscape="http://www.inkscape.org/namespaces/inkscape"
   width="50"
   height="31"
   viewBox="0 0 50 31"
   version="1.1"
   id="svg50"
   sodipodi:docname="cc-by.svg"
   inkscape:version="0.92.3 (2405546, 2018-03-11)">
  <metadata
     id="metadata56">
    <rdf:RDF>
      <cc:Work
         rdf:about="">
        <dc:format>image/svg+xml</dc:format>
        <dc:type
           rdf:resource="http://purl.org/dc/dcmitype/StillImage" />
        <dc:title></dc:title>
      </cc:Work>
    </rdf:RDF>
  </metadata>
  <defs
     id="defs54" />
  <sodipodi:namedview
     pagecolor="#ffffff"
     bordercolor="#666666"
     borderopacity="1"
     objecttolerance="10"
     gridtolerance="10"
     guidetolerance="10"
     inkscape:pageopacity="0"
     inkscape:pageshadow="2"
     inkscape:window-width="2078"
     inkscape:window-height="1776"
     id="namedview52"
     showgrid="false"
     fit-margin-top="0"
     fit-margin-left="0"
     fit-margin-right="0"
     fit-margin-bottom="0"
     inkscape:zoom="12.583287"
     inkscape:cx="30.751812"
     inkscape:cy="14.262385"
     inkscape:window-x="0"
     inkscape:window-y="22"
     inkscape:window-maximized="0"
     inkscape:current-layer="svg50" />
  <path
     inkscape:connector-curvature="0"
     id="path31"
     d="M 48.351563,0 H 1.648438 C 0.738281,0 0,0.742188 0,1.65625 V 30.625 C 0,30.832031 0.167969,31 0.371094,31 H 49.628906 C 49.832031,31 50,30.832031 50,30.625 V 1.65625 C 50,0.742188 49.261719,0 48.351563,0 Z M 1.648438,0.75 h 46.703125 c 0.5,0 0.902343,0.40625 0.902343,0.90625 V 21.789063 H 26.515625 c -2.21875,4.039062 -6.492187,6.78125 -11.398437,6.78125 -4.910157,0 -9.183594,-2.738282 -11.402344,-6.78125 H 0.746094 V 1.65625 c 0,-0.5 0.402344,-0.90625 0.902344,-0.90625 z"
     style="fill:#000000;fill-opacity:1;fill-rule:nonzero;stroke:none"
     sodipodi:nodetypes="ssssssssssssccsccss" />
  <path
     inkscape:connector-curvature="0"
     id="path33"
     d="m 36.125,24.171875 c 0.234375,0 0.445313,0.01953 0.636719,0.05859 0.191406,0.04297 0.351562,0.109375 0.488281,0.203125 0.136719,0.09375 0.242188,0.21875 0.316406,0.375 0.07422,0.152344 0.113282,0.34375 0.113282,0.574219 0,0.246093 -0.05469,0.449218 -0.167969,0.613281 -0.109375,0.164062 -0.273438,0.300781 -0.492188,0.40625 0.300782,0.08594 0.523438,0.238281 0.671875,0.453125 0.148438,0.21875 0.222657,0.480469 0.222657,0.785156 0,0.246094 -0.04687,0.460938 -0.144532,0.640625 -0.09375,0.179688 -0.222656,0.328125 -0.382812,0.441406 -0.164063,0.113282 -0.347656,0.199219 -0.554688,0.253907 -0.207031,0.05469 -0.417968,0.08203 -0.636718,0.08203 H 33.835938 V 24.17187 Z m -0.136719,1.976563 c 0.191407,0 0.347657,-0.04687 0.472657,-0.136719 0.121093,-0.09375 0.183593,-0.238281 0.183593,-0.445313 0,-0.113281 -0.01953,-0.207031 -0.0625,-0.277343 -0.03906,-0.07422 -0.09375,-0.132813 -0.164062,-0.171875 -0.06641,-0.04297 -0.144531,-0.07031 -0.234375,-0.08594 -0.08594,-0.01563 -0.179688,-0.02344 -0.273438,-0.02344 H 34.90625 v 1.140625 z m 0.0625,2.074218 c 0.105469,0 0.207032,-0.01172 0.300782,-0.03125 0.09766,-0.01953 0.179687,-0.05469 0.253906,-0.101562 0.07031,-0.05078 0.128906,-0.113281 0.171875,-0.195313 0.04297,-0.08203 0.06641,-0.1875 0.06641,-0.316406 0,-0.25 -0.07031,-0.429687 -0.210937,-0.535156 -0.140625,-0.109375 -0.328125,-0.160156 -0.558594,-0.160156 H 34.90625 v 1.339843 z"
     style="fill:#ffffff;fill-opacity:1;fill-rule:nonzero;stroke:none" />
  <path
     inkscape:connector-curvature="0"
     id="path35"
     d="m 38.101563,24.171875 h 1.199218 l 1.136719,1.929688 1.128906,-1.929688 h 1.191407 l -1.800782,3.011719 v 1.875 H 39.886719 V 27.15625 Z"
     style="fill:#ffffff;fill-opacity:1;fill-rule:nonzero;stroke:none" />
  <path
     inkscape:connector-curvature="0"
     id="path37"
     d="m 25.121094,14.472656 c 0.0039,5.554688 -4.472656,10.0625 -9.996094,10.066407 -5.519531,0.0039 -10,-4.5 -10.003906,-10.054688 0,-0.0039 0,-0.0078 0,-0.01172 C 5.117188,8.914063 9.59375,4.40625 15.113281,4.402344 c 5.523438,-0.00391 10.003907,4.5 10.007813,10.058594 0,0 0,0.0078 0,0.01172 z"
     style="fill:#ffffff;fill-opacity:1;fill-rule:nonzero;stroke:none" />
  <path
     inkscape:connector-curvature="0"
     id="path39"
     d="m 23.25,6.273438 c 2.214844,2.234375 3.324219,4.964843 3.324219,8.199218 0,3.230469 -1.089844,5.933594 -3.269531,8.109375 -2.3125,2.289063 -5.042969,3.433594 -8.199219,3.433594 -3.113281,0 -5.800781,-1.136719 -8.054688,-3.40625 C 4.792969,20.339844 3.667969,17.625 3.667969,14.472656 c 0,-3.15625 1.125,-5.890625 3.382812,-8.199218 2.195313,-2.230469 4.882813,-3.347657 8.054688,-3.347657 3.210937,0 5.925781,1.117188 8.144531,3.347657 z M 8.542969,7.777344 c -1.875,1.902344 -2.8125,4.136719 -2.8125,6.695312 0,2.5625 0.929687,4.773438 2.78125,6.640625 1.855469,1.867188 4.066406,2.800782 6.628906,2.800782 2.5625,0 4.789063,-0.941407 6.683594,-2.828125 1.796875,-1.753907 2.695312,-3.957032 2.695312,-6.613282 0,-2.636718 -0.914062,-4.871093 -2.738281,-6.710937 -1.828125,-1.839844 -4.039062,-2.757813 -6.640625,-2.757813 -2.601562,0 -4.800781,0.925782 -6.597656,2.773438 z m 4.933594,5.570312 C 13.1875,12.71875 12.761719,12.40625 12.1875,12.40625 c -1.011719,0 -1.515625,0.683594 -1.515625,2.054688 0,1.367187 0.503906,2.050781 1.515625,2.050781 0.667969,0 1.144531,-0.332031 1.429688,-1 l 1.402343,0.75 c -0.667968,1.195312 -1.667968,1.792969 -3.003906,1.792969 -1.03125,0 -1.859375,-0.316407 -2.476562,-0.953125 -0.621094,-0.636719 -0.933594,-1.511719 -0.933594,-2.628907 0,-1.101562 0.320312,-1.972656 0.960937,-2.617187 0.640625,-0.644531 1.4375,-0.96875 2.390625,-0.96875 1.414063,0 2.421875,0.5625 3.035157,1.679687 z m 6.589843,0 C 19.78125,12.71875 19.359375,12.40625 18.808594,12.40625 c -1.03125,0 -1.550781,0.683594 -1.550781,2.054688 0,1.367187 0.519531,2.050781 1.550781,2.050781 0.667969,0 1.136719,-0.332031 1.402344,-1 l 1.433593,0.75 c -0.667968,1.195312 -1.667968,1.792969 -3.003906,1.792969 -1.027344,0 -1.851562,-0.316407 -2.46875,-0.953125 -0.621094,-0.636719 -0.929687,-1.511719 -0.929687,-2.628907 0,-1.101562 0.3125,-1.972656 0.941406,-2.617187 0.628906,-0.644531 1.429687,-0.96875 2.402344,-0.96875 1.410156,0 2.417968,0.5625 3.027343,1.679687 z"
     style="fill:#000000;fill-opacity:1;fill-rule:nonzero;stroke:none" />
  <path
     inkscape:connector-curvature="0"
     id="path43"
     d="m 40.207031,8.9375 c 0,-0.304687 -0.246093,-0.550781 -0.546875,-0.550781 h -3.480468 c -0.300782,0 -0.546875,0.246094 -0.546875,0.550781 v 3.5 h 0.96875 v 4.148438 h 2.636718 V 12.4375 h 0.96875 z"
     style="fill:#000000;fill-opacity:1;fill-rule:nonzero;stroke:none" />
  <path
     inkscape:connector-curvature="0"
     id="path45"
     d="m 39.109375,6.726563 c 0,0.660156 -0.53125,1.199218 -1.1875,1.199218 -0.660156,0 -1.191406,-0.539062 -1.191406,-1.199218 0,-0.660157 0.53125,-1.195313 1.191406,-1.195313 0.65625,0 1.1875,0.535156 1.1875,1.195313 z"
     style="fill:#000000;fill-opacity:1;fill-rule:nonzero;stroke:none" />
  <path
     inkscape:connector-curvature="0"
     id="path47"
     d="m 37.910156,2.5 c -2.355468,0 -4.351562,0.828125 -5.984375,2.480469 -1.671875,1.710937 -2.507812,3.738281 -2.507812,6.078125 0,2.335937 0.835937,4.347656 2.507812,6.03125 1.675782,1.683594 3.671875,2.523437 5.984375,2.523437 2.339844,0 4.371094,-0.847656 6.085938,-2.542968 1.617187,-1.613282 2.429687,-3.617188 2.429687,-6.011719 0,-2.398438 -0.824218,-4.421875 -2.46875,-6.078125 C 42.308594,3.328125 40.292969,2.5 37.910156,2.5 Z m 0.01953,1.539063 c 1.929687,0 3.570312,0.683593 4.917968,2.054687 1.363282,1.355469 2.042969,3.007813 2.042969,4.964844 0,1.964844 -0.667969,3.601562 -2,4.898437 -1.40625,1.398438 -3.058594,2.097657 -4.960937,2.097657 -1.902344,0 -3.539063,-0.691407 -4.917969,-2.078125 -1.375,-1.382813 -2.0625,-3.023438 -2.0625,-4.917969 0,-1.898438 0.695312,-3.554688 2.085937,-4.964844 C 34.367188,4.722656 36,4.039063 37.929688,4.039063 Z"
     style="fill:#000000;fill-opacity:1;fill-rule:evenodd;stroke:none" />
</svg>
