<svg xmlns="http://www.w3.org/2000/svg" version="1.1" width="399" height="440"><defs><filter id="bevelFilter" x0="-50%" y0="-50%" width="200%" height="200%"><feGaussianBlur result="blur-1" in="SourceAlpha" stdDeviation="1 1"/><feFlood result="flood-2" in="undefined" flood-color="#fff" flood-opacity="0.15"/><feOffset result="offset-3" in="blur-1" dx="1" dy="1"/><feComposite result="comp-4" operator="arithmetic" in="SourceAlpha" in2="offset-3" k2="1" k3="-1"/><feComposite result="comp-5" operator="in" in="flood-2" in2="comp-4"/><feFlood result="flood-6" in="undefined" flood-color="#000" flood-opacity="0.7"/><feOffset result="offset-7" in="blur-1" dx="-1" dy="-1"/><feComposite result="comp-8" operator="arithmetic" in="SourceAlpha" in2="offset-7" k2="1" k3="-1"/><feComposite result="comp-9" operator="in" in="flood-6" in2="comp-8"/><feMerge result="merge-10"><feMergeNode in="SourceGraphic"/><feMergeNode in="comp-5"/><feMergeNode in="comp-9"/></feMerge></filter><filter id="inputBevelFilter" x0="-50%" y0="-50%" width="200%" height="200%"><feGaussianBlur result="blur-1" in="SourceAlpha" stdDeviation="1 1"/><feFlood result="flood-2" in="undefined" flood-color="#fff" flood-opacity="0.15"/><feOffset result="offset-3" in="blur-1" dx="-1" dy="-1"/><feComposite result="comp-4" operator="arithmetic" in="SourceAlpha" in2="offset-3" k2="1" k3="-1"/><feComposite result="comp-5" operator="in" in="flood-2" in2="comp-4"/><feFlood result="flood-6" in="undefined" flood-color="#000" flood-opacity="0.7"/><feOffset result="offset-7" in="blur-1" dx="1" dy="1"/><feComposite result="comp-8" operator="arithmetic" in="SourceAlpha" in2="offset-7" k2="1" k3="-1"/><feComposite result="comp-9" operator="in" in="flood-6" in2="comp-8"/><feMerge result="merge-10"><feMergeNode in="SourceGraphic"/><feMergeNode in="comp-5"/><feMergeNode in="comp-9"/></feMerge></filter><filter id="inputDarkFilter" x0="-50%" y0="-50%" width="200%" height="200%"><feFlood result="flood-1" in="undefined" flood-color="#000" flood-opacity="0.2"/><feComposite result="comp-2" operator="in" in="flood-1" in2="SourceAlpha"/><feMerge result="merge-3"><feMergeNode in="SourceGraphic"/><feMergeNode in="comp-2"/></feMerge></filter><path d="M1.504 21L0 19.493 4.567 0h1.948l-.5 2.418s1.002-.502 3.006 0c2.006.503 3.008 2.01 6.517 2.01 3.508 0 4.463-.545 4.463-.545l-.823 9.892s-2.137 1.005-5.144.696c-3.007-.307-3.007-2.007-6.014-2.51-3.008-.502-4.512.503-4.512.503L1.504 21z" fill="#3f8d15" id="greenFlag"/><path d="M6.724 0C3.01 0 0 2.91 0 6.5c0 2.316 1.253 4.35 3.14 5.5H5.17v-1.256C3.364 10.126 2.07 8.46 2.07 6.5 2.07 4.015 4.152 2 6.723 2c1.14 0 2.184.396 2.993 1.053L8.31 4.13c-.45.344-.398.826.11 1.08L15 8.5 13.858.992c-.083-.547-.514-.714-.963-.37l-1.532 1.172A6.825 6.825 0 0 0 6.723 0z" fill="#fff" id="turnRight"/><path d="M3.637 1.794A6.825 6.825 0 0 1 8.277 0C11.99 0 15 2.91 15 6.5c0 2.316-1.253 4.35-3.14 5.5H9.83v-1.256c1.808-.618 3.103-2.285 3.103-4.244 0-2.485-2.083-4.5-4.654-4.5-1.14 0-2.184.396-2.993 1.053L6.69 4.13c.45.344.398.826-.11 1.08L0 8.5 1.142.992c.083-.547.514-.714.963-.37l1.532 1.172z" fill="#fff" id="turnLeft"/><path d="M0 0L4 4L0 8Z" fill="#111" id="addInput"/><path d="M4 0L4 8L0 4Z" fill="#111" id="delInput"/><g id="loopArrow"><path d="M8 0l2 -2l0 -3l3 0l-4 -5l-4 5l3 0l0 3l-8 0l0 2" fill="#000" opacity="0.3"/><path d="M8 0l2 -2l0 -3l3 0l-4 -5l-4 5l3 0l0 3l-8 0l0 2" fill="#fff" opacity="0.9" transform="translate(-1 -1)"/></g><style><![CDATA[.sb-label{font-family:Lucida Grande,Verdana,Arial,DejaVu Sans,sans-serif;font-weight:700;fill:#fff;font-size:10px;word-spacing:+1px}.sb-obsolete{fill:#d42828}.sb-motion{fill:#4a6cd4}.sb-looks{fill:#8a55d7}.sb-sound{fill:#bb42c3}.sb-pen{fill:#0e9a6c}.sb-events{fill:#c88330}.sb-control{fill:#e1a91a}.sb-sensing{fill:#2ca5e2}.sb-operators{fill:#5cb712}.sb-variables{fill:#ee7d16}.sb-list{fill:#cc5b22}.sb-custom{fill:#632d99}.sb-custom-arg{fill:#5947b1}.sb-extension{fill:#4b4a60}.sb-grey{fill:#969696}.sb-bevel{filter:url(#bevelFilter)}.sb-input{filter:url(#inputBevelFilter)}.sb-input-number,.sb-input-number-dropdown,.sb-input-string{fill:#fff}.sb-literal-dropdown,.sb-literal-number,.sb-literal-number-dropdown,.sb-literal-string{font-weight:400;font-size:9px;word-spacing:0}.sb-literal-number,.sb-literal-number-dropdown,.sb-literal-string{fill:#000}.sb-darker{filter:url(#inputDarkFilter)}.sb-outline{stroke:#fff;stroke-opacity:.2;stroke-width:2;fill:none}.sb-define-hat-cap{stroke:#632d99;stroke-width:1;fill:#8e2ec2}.sb-comment{fill:#ffffa5;stroke:#d0d1d2;stroke-width:1}.sb-comment-line{fill:#ffff80}.sb-comment-label{font-family:Helevetica,Arial,DejaVu Sans,sans-serif;font-weight:700;fill:#5c5d5f;word-spacing:0;font-size:12px}]]></style></defs><g><g transform="translate(0 0)"><g transform="translate(2 0)"><g transform="translate(0 0)"><path d="M 0 15 Q 57 -8 114 15 L 114 49 L 111 52 L 27 52 L 24 55 L 16 55 L 13 52 L 3 52 L 0 49 M -1 13 Q 57 -10 115 13 Q 116 15 114 16 Q 57 -7 0 16 Q -2 15 -1 13 Z" class="sb-custom sb-bevel"/><path d="M -1 13 Q 57 -10 115 13 Q 116 15 114 16 Q 57 -7 0 16 Q -2 15 -1 13 Z" class="sb-define-hat-cap"/></g><text x="0" y="10" class="sb-label " transform="translate(8 28)">define</text><g transform="translate(41 20)"><path d="M 0 3 L 3 0 L 13 0 L 16 3 L 24 3 L 27 0 L 62 0 L 65 3 L 65 19 L 62 22 L 27 22 L 24 25 L 16 25 L 13 22 L 3 22 L 0 19 Z" class="sb-outline"/><text x="0" y="10" class="sb-label " transform="translate(6 5)">pick</text><text x="0" y="10" class="sb-label " transform="translate(30 5)">player</text></g></g><g transform="translate(2 52)"><path d="M 0 3 L 3 0 L 13 0 L 16 3 L 24 3 L 27 0 L 136 0 L 139 3 L 139 19 L 136 22 L 27 22 L 24 25 L 16 25 L 13 22 L 3 22 L 0 19 Z" class="sb-variables sb-bevel"/><text x="0" y="10" class="sb-label " transform="translate(6 5)">set</text><g transform="translate(30 4)"><g width="44" height="14" class="sb-input sb-input-dropdown"><rect x="0" y="0" width="44" height="14" class="sb-variables sb-darker"/></g><text x="0" y="10" class="sb-label sb-literal-dropdown" transform="translate(4 0)">player</text><polygon points="7 0 3.5 4 0 0" fill="#000" opacity="0.6" transform="translate(34 5)"/></g><text x="0" y="10" class="sb-label " transform="translate(78 5)">to</text><g transform="translate(91 4)"><rect x="0" y="0" width="42" height="14" class="sb-input sb-input-string"/><text x="0" y="10" class="sb-label sb-literal-string" transform="translate(4 0)">waiting...</text></g></g><g transform="translate(2 74)"><path d="M 0 3 L 3 0 L 13 0 L 16 3 L 24 3 L 27 0 L 193 0 L 196 3 L 196 27 L 193 30 L 42 30 L 39 33 L 31 33 L 28 30 L 17 30 L 15 32 L 15 50 L 17 52 L 193 52 L 196 55 L 196 67 L 193 70 L 42 70 L 39 73 L 31 73 L 28 70 L 17 70 L 15 72 L 15 345 L 17 347 L 193 347 L 196 350 L 196 360 L 193 363 L 27 363 L 24 366 L 16 366 L 13 363 L 3 363 L 0 360" class="sb-control sb-bevel"/><text x="0" y="10" class="sb-label " transform="translate(6 8)">if</text><g transform="translate(30 2)"><path d="M 12.5 0 L 122.5 0 135 12.5 L 135 12.5 122.5 25 L 12.5 25 0 12.5 L 0 12.5 12.5 0 Z" class="sb-operators sb-bevel"/><g transform="translate(9 2)"><path d="M 10 0 L 79 0 A 10 10 0 0 1 79 20 L 10 20 A 10 10 0 0 1 10 0 Z" class="sb-variables sb-bevel"/><text x="0" y="10" class="sb-label " transform="translate(8 4)">☁</text><text x="0" y="10" class="sb-label " transform="translate(22 4)">keep</text><text x="0" y="10" class="sb-label " transform="translate(49 4)">alive</text><text x="0" y="10" class="sb-label " transform="translate(75 4)">1</text></g><text x="0" y="10" class="sb-label " transform="translate(102 6)">=</text><g transform="translate(112 5)"><rect x="0" y="0" width="14" height="14" class="sb-input sb-input-string"/><text x="0" y="10" class="sb-label sb-literal-string" transform="translate(4 0)">0</text></g></g><text x="0" y="10" class="sb-label " transform="translate(169 8)">then</text><g transform="translate(15 30)"><g transform="translate(0 0)"><path d="M 0 3 L 3 0 L 13 0 L 16 3 L 24 3 L 27 0 L 108 0 L 111 3 L 111 19 L 108 22 L 27 22 L 24 25 L 16 25 L 13 22 L 3 22 L 0 19 Z" class="sb-variables sb-bevel"/><text x="0" y="10" class="sb-label " transform="translate(6 5)">set</text><g transform="translate(30 4)"><g width="44" height="14" class="sb-input sb-input-dropdown"><rect x="0" y="0" width="44" height="14" class="sb-variables sb-darker"/></g><text x="0" y="10" class="sb-label sb-literal-dropdown" transform="translate(4 0)">player</text><polygon points="7 0 3.5 4 0 0" fill="#000" opacity="0.6" transform="translate(34 5)"/></g><text x="0" y="10" class="sb-label " transform="translate(78 5)">to</text><g transform="translate(91 4)"><rect x="0" y="0" width="14" height="14" class="sb-input sb-input-string"/><text x="0" y="10" class="sb-label sb-literal-string" transform="translate(4 0)">1</text></g></g></g><text x="0" y="10" class="sb-label " transform="translate(6 55)">else</text><g transform="translate(15 70)"><g transform="translate(0 0)"><path d="M 0 3 L 3 0 L 13 0 L 16 3 L 24 3 L 27 0 L 193 0 L 196 3 L 196 27 L 193 30 L 42 30 L 39 33 L 31 33 L 28 30 L 17 30 L 15 32 L 15 50 L 17 52 L 193 52 L 196 55 L 196 67 L 193 70 L 42 70 L 39 73 L 31 73 L 28 70 L 17 70 L 15 72 L 15 259 L 17 261 L 193 261 L 196 264 L 196 274 L 193 277 L 27 277 L 24 280 L 16 280 L 13 277 L 3 277 L 0 274" class="sb-control sb-bevel"/><text x="0" y="10" class="sb-label " transform="translate(6 8)">if</text><g transform="translate(30 2)"><path d="M 12.5 0 L 122.5 0 135 12.5 L 135 12.5 122.5 25 L 12.5 25 0 12.5 L 0 12.5 12.5 0 Z" class="sb-operators sb-bevel"/><g transform="translate(9 2)"><path d="M 10 0 L 79 0 A 10 10 0 0 1 79 20 L 10 20 A 10 10 0 0 1 10 0 Z" class="sb-variables sb-bevel"/><text x="0" y="10" class="sb-label " transform="translate(8 4)">☁</text><text x="0" y="10" class="sb-label " transform="translate(22 4)">keep</text><text x="0" y="10" class="sb-label " transform="translate(49 4)">alive</text><text x="0" y="10" class="sb-label " transform="translate(75 4)">2</text></g><text x="0" y="10" class="sb-label " transform="translate(102 6)">=</text><g transform="translate(112 5)"><rect x="0" y="0" width="14" height="14" class="sb-input sb-input-string"/><text x="0" y="10" class="sb-label sb-literal-string" transform="translate(4 0)">0</text></g></g><text x="0" y="10" class="sb-label " transform="translate(169 8)">then</text><g transform="translate(15 30)"><g transform="translate(0 0)"><path d="M 0 3 L 3 0 L 13 0 L 16 3 L 24 3 L 27 0 L 108 0 L 111 3 L 111 19 L 108 22 L 27 22 L 24 25 L 16 25 L 13 22 L 3 22 L 0 19 Z" class="sb-variables sb-bevel"/><text x="0" y="10" class="sb-label " transform="translate(6 5)">set</text><g transform="translate(30 4)"><g width="44" height="14" class="sb-input sb-input-dropdown"><rect x="0" y="0" width="44" height="14" class="sb-variables sb-darker"/></g><text x="0" y="10" class="sb-label sb-literal-dropdown" transform="translate(4 0)">player</text><polygon points="7 0 3.5 4 0 0" fill="#000" opacity="0.6" transform="translate(34 5)"/></g><text x="0" y="10" class="sb-label " transform="translate(78 5)">to</text><g transform="translate(91 4)"><rect x="0" y="0" width="14" height="14" class="sb-input sb-input-string"/><text x="0" y="10" class="sb-label sb-literal-string" transform="translate(4 0)">2</text></g></g></g><text x="0" y="10" class="sb-label " transform="translate(6 55)">else</text><g transform="translate(15 70)"><g transform="translate(0 0)"><path d="M 0 3 L 3 0 L 13 0 L 16 3 L 24 3 L 27 0 L 362 0 L 365 3 L 365 36 L 362 39 L 27 39 L 24 42 L 16 42 L 13 39 L 3 39 L 0 36 Z" class="sb-control sb-bevel"/><text x="0" y="10" class="sb-label " transform="translate(6 13)">wait</text><text x="0" y="10" class="sb-label " transform="translate(29 13)">until</text><g transform="translate(54 3)"><path d="M 16.5 0 L 288.5 0 305 16.5 L 305 16.5 288.5 33 L 16.5 33 0 16.5 L 0 16.5 16.5 0 Z" class="sb-operators sb-bevel"/><g transform="translate(11 2)"><path d="M 14 0 L 243 0 A 14 14 0 0 1 243 28 L 14 28 A 14 14 0 0 1 14 0 Z" class="sb-operators sb-bevel"/><g transform="translate(5 7)"><g width="34" height="14" class="sb-input sb-input-dropdown"><rect x="0" y="0" width="34" height="14" class="sb-operators sb-darker"/></g><text x="0" y="10" class="sb-label sb-literal-dropdown" transform="translate(4 0)">abs</text><polygon points="7 0 3.5 4 0 0" fill="#000" opacity="0.6" transform="translate(24 5)"/></g><text x="0" y="10" class="sb-label " transform="translate(43 8)">of</text><g transform="translate(56 2)"><path d="M 12 0 L 185 0 A 12 12 0 0 1 185 24 L 12 24 A 12 12 0 0 1 12 0 Z" class="sb-operators sb-bevel"/><g transform="translate(4 2)"><path d="M 10 0 L 79 0 A 10 10 0 0 1 79 20 L 10 20 A 10 10 0 0 1 10 0 Z" class="sb-variables sb-bevel"/><text x="0" y="10" class="sb-label " transform="translate(8 4)">☁</text><text x="0" y="10" class="sb-label " transform="translate(22 4)">keep</text><text x="0" y="10" class="sb-label " transform="translate(49 4)">alive</text><text x="0" y="10" class="sb-label " transform="translate(75 4)">1</text></g><text x="0" y="10" class="sb-label " transform="translate(97 6)">-</text><g transform="translate(104 2)"><path d="M 10 0 L 79 0 A 10 10 0 0 1 79 20 L 10 20 A 10 10 0 0 1 10 0 Z" class="sb-variables sb-bevel"/><text x="0" y="10" class="sb-label " transform="translate(8 4)">☁</text><text x="0" y="10" class="sb-label " transform="translate(22 4)">keep</text><text x="0" y="10" class="sb-label " transform="translate(49 4)">alive</text><text x="0" y="10" class="sb-label " transform="translate(75 4)">2</text></g></g></g><text x="0" y="10" class="sb-label " transform="translate(272 10)">&gt;</text><g transform="translate(282 9)"><rect x="0" y="0" width="14" height="14" class="sb-input sb-input-string"/><text x="0" y="10" class="sb-label sb-literal-string" transform="translate(4 0)">5</text></g></g></g><g transform="translate(0 39)"><path d="M 0 3 L 3 0 L 13 0 L 16 3 L 24 3 L 27 0 L 268 0 L 271 3 L 271 27 L 268 30 L 42 30 L 39 33 L 31 33 L 28 30 L 17 30 L 15 32 L 15 50 L 17 52 L 268 52 L 271 55 L 271 67 L 268 70 L 42 70 L 39 73 L 31 73 L 28 70 L 17 70 L 15 72 L 15 90 L 17 92 L 268 92 L 271 95 L 271 105 L 268 108 L 27 108 L 24 111 L 16 111 L 13 108 L 3 108 L 0 105" class="sb-control sb-bevel"/><text x="0" y="10" class="sb-label " transform="translate(6 8)">if</text><g transform="translate(30 2)"><path d="M 12.5 0 L 197.5 0 210 12.5 L 210 12.5 197.5 25 L 12.5 25 0 12.5 L 0 12.5 12.5 0 Z" class="sb-operators sb-bevel"/><g transform="translate(9 2)"><path d="M 10 0 L 79 0 A 10 10 0 0 1 79 20 L 10 20 A 10 10 0 0 1 10 0 Z" class="sb-variables sb-bevel"/><text x="0" y="10" class="sb-label " transform="translate(8 4)">☁</text><text x="0" y="10" class="sb-label " transform="translate(22 4)">keep</text><text x="0" y="10" class="sb-label " transform="translate(49 4)">alive</text><text x="0" y="10" class="sb-label " transform="translate(75 4)">1</text></g><text x="0" y="10" class="sb-label " transform="translate(102 6)">&lt;</text><g transform="translate(112 2)"><path d="M 10 0 L 79 0 A 10 10 0 0 1 79 20 L 10 20 A 10 10 0 0 1 10 0 Z" class="sb-variables sb-bevel"/><text x="0" y="10" class="sb-label " transform="translate(8 4)">☁</text><text x="0" y="10" class="sb-label " transform="translate(22 4)">keep</text><text x="0" y="10" class="sb-label " transform="translate(49 4)">alive</text><text x="0" y="10" class="sb-label " transform="translate(75 4)">2</text></g></g><text x="0" y="10" class="sb-label " transform="translate(244 8)">then</text><g transform="translate(15 30)"><g transform="translate(0 0)"><path d="M 0 3 L 3 0 L 13 0 L 16 3 L 24 3 L 27 0 L 108 0 L 111 3 L 111 19 L 108 22 L 27 22 L 24 25 L 16 25 L 13 22 L 3 22 L 0 19 Z" class="sb-variables sb-bevel"/><text x="0" y="10" class="sb-label " transform="translate(6 5)">set</text><g transform="translate(30 4)"><g width="44" height="14" class="sb-input sb-input-dropdown"><rect x="0" y="0" width="44" height="14" class="sb-variables sb-darker"/></g><text x="0" y="10" class="sb-label sb-literal-dropdown" transform="translate(4 0)">player</text><polygon points="7 0 3.5 4 0 0" fill="#000" opacity="0.6" transform="translate(34 5)"/></g><text x="0" y="10" class="sb-label " transform="translate(78 5)">to</text><g transform="translate(91 4)"><rect x="0" y="0" width="14" height="14" class="sb-input sb-input-string"/><text x="0" y="10" class="sb-label sb-literal-string" transform="translate(4 0)">1</text></g></g></g><text x="0" y="10" class="sb-label " transform="translate(6 55)">else</text><g transform="translate(15 70)"><g transform="translate(0 0)"><path d="M 0 3 L 3 0 L 13 0 L 16 3 L 24 3 L 27 0 L 108 0 L 111 3 L 111 19 L 108 22 L 27 22 L 24 25 L 16 25 L 13 22 L 3 22 L 0 19 Z" class="sb-variables sb-bevel"/><text x="0" y="10" class="sb-label " transform="translate(6 5)">set</text><g transform="translate(30 4)"><g width="44" height="14" class="sb-input sb-input-dropdown"><rect x="0" y="0" width="44" height="14" class="sb-variables sb-darker"/></g><text x="0" y="10" class="sb-label sb-literal-dropdown" transform="translate(4 0)">player</text><polygon points="7 0 3.5 4 0 0" fill="#000" opacity="0.6" transform="translate(34 5)"/></g><text x="0" y="10" class="sb-label " transform="translate(78 5)">to</text><g transform="translate(91 4)"><rect x="0" y="0" width="14" height="14" class="sb-input sb-input-string"/><text x="0" y="10" class="sb-label sb-literal-string" transform="translate(4 0)">2</text></g></g></g></g><g transform="translate(0 147)"><path d="M 0 3 L 3 0 L 13 0 L 16 3 L 24 3 L 27 0 L 143 0 L 146 3 L 146 19 L 143 22 L 27 22 L 24 25 L 16 25 L 13 22 L 3 22 L 0 19 Z" class="sb-variables sb-bevel"/><text x="0" y="10" class="sb-label " transform="translate(6 5)">set</text><g transform="translate(30 4)"><g width="79" height="14" class="sb-input sb-input-dropdown"><rect x="0" y="0" width="79" height="14" class="sb-variables sb-darker"/></g><text x="0" y="10" class="sb-label sb-literal-dropdown" transform="translate(4 0)">☁ keep alive 1</text><polygon points="7 0 3.5 4 0 0" fill="#000" opacity="0.6" transform="translate(69 5)"/></g><text x="0" y="10" class="sb-label " transform="translate(113 5)">to</text><g transform="translate(126 4)"><rect x="0" y="0" width="14" height="14" class="sb-input sb-input-string"/><text x="0" y="10" class="sb-label sb-literal-string" transform="translate(4 0)">0</text></g></g><g transform="translate(0 169)"><path d="M 0 3 L 3 0 L 13 0 L 16 3 L 24 3 L 27 0 L 143 0 L 146 3 L 146 19 L 143 22 L 27 22 L 24 25 L 16 25 L 13 22 L 3 22 L 0 19 Z" class="sb-variables sb-bevel"/><text x="0" y="10" class="sb-label " transform="translate(6 5)">set</text><g transform="translate(30 4)"><g width="79" height="14" class="sb-input sb-input-dropdown"><rect x="0" y="0" width="79" height="14" class="sb-variables sb-darker"/></g><text x="0" y="10" class="sb-label sb-literal-dropdown" transform="translate(4 0)">☁ keep alive 2</text><polygon points="7 0 3.5 4 0 0" fill="#000" opacity="0.6" transform="translate(69 5)"/></g><text x="0" y="10" class="sb-label " transform="translate(113 5)">to</text><g transform="translate(126 4)"><rect x="0" y="0" width="14" height="14" class="sb-input sb-input-string"/><text x="0" y="10" class="sb-label sb-literal-string" transform="translate(4 0)">0</text></g></g></g></g></g></g></g></g></svg>