<?xml version="1.0" encoding="UTF-8"?>
<!DOCTYPE svg PUBLIC "-//W3C//DTD SVG 1.1//EN" "http://www.w3.org/Graphics/SVG/1.1/DTD/svg11.dtd">
<!-- Creator: CorelDRAW X6 -->
<svg xmlns="http://www.w3.org/2000/svg" xml:space="preserve" width="971px" height="274px" version="1.1" style="shape-rendering:geometricPrecision; text-rendering:geometricPrecision; image-rendering:optimizeQuality; fill-rule:evenodd; clip-rule:evenodd"
viewBox="0 0 8952 2529"
 xmlns:xlink="http://www.w3.org/1999/xlink">
 <defs>
  <style type="text/css">
   <![CDATA[
    .fil1 {fill:#FEFEFE}
    .fil0 {fill:black}
    .fil2 {fill:white}
   ]]>
  </style>
 </defs>
 <g id="Layer_x0020_1">
  <metadata id="CorelCorpID_0Corel-Layer"/>
  <path class="fil0" d="M3446 1522l0 231c-2,69 -16,130 -41,183 -21,46 -53,89 -98,124 -46,37 -107,57 -190,57 -82,0 -146,-21 -192,-57 -46,-34 -76,-78 -96,-124 -25,-53 -39,-114 -41,-183l0 -991c2,-66 16,-128 41,-181 21,-46 50,-92 96,-126 46,-34 110,-57 192,-57 82,0 144,23 190,57 46,34 78,80 98,126 25,53 39,114 41,181l0 231 -231 0 0 -231c0,-46 -11,-78 -37,-105 -11,-11 -32,-18 -57,-18 -43,0 -64,32 -76,62 -7,18 -9,39 -11,62l0 991c2,48 16,80 39,105 11,12 27,18 48,18 53,0 73,-27 85,-62 7,-16 9,-37 9,-62l0 -231 231 0zm720 272c-7,121 -43,206 -123,272 -41,34 -98,50 -174,50 -149,0 -222,-82 -259,-165 -21,-48 -34,-103 -37,-165l0 -629c7,-121 43,-210 123,-279 39,-34 96,-50 172,-50 149,0 224,82 261,162 21,48 34,101 37,160l0 643zm-217 -636c2,-48 -7,-82 -30,-110 -11,-11 -30,-18 -50,-18 -44,0 -62,30 -71,64 -7,18 -9,39 -7,64l0 629c-2,48 9,82 30,107 11,11 27,18 48,18 43,0 64,-27 73,-62 7,-18 9,-39 7,-64l0 -629zm962 941l-231 0 0 -82c-39,37 -73,64 -117,85 -23,11 -46,16 -66,16 -64,0 -108,-37 -135,-85 -30,-46 -43,-107 -43,-160l0 -799c0,-53 14,-114 43,-162 28,-46 71,-82 135,-82 43,0 89,25 124,50 21,16 39,32 59,50l0 -513 231 0 0 1682zm-231 -977c0,-37 -34,-76 -69,-76 -34,0 -62,32 -62,76l0 702c0,44 27,76 62,76 34,0 69,-32 69,-76l0 -702zm995 529l0 144c-7,121 -43,206 -126,272 -41,34 -98,50 -174,50 -149,0 -224,-82 -261,-165 -21,-48 -34,-103 -37,-165l0 -629c7,-121 46,-210 128,-279 39,-34 96,-50 172,-50 149,0 224,82 261,162 21,48 34,101 37,160l0 364 -382 0 0 272c2,48 16,82 37,107 11,11 27,18 48,18 43,0 64,-27 73,-62 7,-18 9,-39 9,-64l0 -137 215 0zm-382 -316l167 0 0 -176c0,-48 -9,-82 -32,-110 -11,-11 -30,-18 -50,-18 -44,0 -62,30 -73,64 -7,18 -9,39 -11,64l0 176zm998 -249c-21,-7 -43,-9 -64,-9 -37,0 -80,5 -117,39 -44,37 -50,76 -50,114l0 870 -231 0 0 -1252 231 0 0 140c2,-16 18,-55 55,-92 37,-34 92,-66 176,-66l0 256zm101 1014l0 -1682 195 0c229,0 352,46 419,174 64,128 73,339 73,668 0,330 -9,538 -73,666 -66,128 -190,174 -419,174l-195 0zm247 -247c85,0 133,-9 158,-92 11,-39 21,-98 23,-178 2,-80 2,-188 2,-325 0,-137 0,-245 -2,-325 -2,-78 -11,-137 -23,-178 -25,-80 -73,-89 -158,-89l0 1188zm1174 -57c-7,121 -43,206 -123,272 -41,34 -98,50 -174,50 -149,0 -222,-82 -259,-165 -21,-48 -34,-103 -37,-165l0 -629c7,-121 43,-210 123,-279 39,-34 96,-50 172,-50 149,0 224,82 261,162 21,48 34,101 37,160l0 643zm-217 -636c2,-48 -7,-82 -30,-110 -11,-11 -30,-18 -50,-18 -44,0 -62,30 -71,64 -7,18 -9,39 -7,64l0 629c-2,48 9,82 30,107 11,11 27,18 48,18 43,0 64,-27 73,-62 7,-18 9,-39 7,-64l0 -629zm371 -741l231 0 0 231 -231 0 0 -231zm231 430l0 1284c0,64 0,165 -32,247 -32,85 -103,151 -233,151 -37,0 -62,-2 -78,-7 -9,-2 -16,-5 -23,-7l0 -213c7,2 14,2 21,5 16,2 30,5 44,5 39,0 57,-32 66,-71 2,-18 5,-39 5,-60 0,-21 0,-39 0,-53l0 -1281 231 0zm755 947c-7,121 -43,206 -123,272 -41,34 -98,50 -174,50 -149,0 -222,-82 -259,-165 -21,-48 -34,-103 -37,-165l0 -629c7,-121 43,-210 123,-279 39,-34 96,-50 172,-50 149,0 224,82 261,162 21,48 34,101 37,160l0 643zm-217 -636c2,-48 -7,-82 -30,-110 -11,-11 -30,-18 -50,-18 -44,0 -62,30 -71,64 -7,18 -9,39 -7,64l0 629c-2,48 9,82 30,107 11,11 27,18 48,18 43,0 64,-27 73,-62 7,-18 9,-39 7,-64l0 -629z"/>
  <g id="_833759104">
   <circle class="fil1" cx="1258" cy="1263" r="1238"/>
   <path class="fil0" d="M1263 0c697,0 1263,565 1263,1263 0,697 -565,1263 -1263,1263 -697,0 -1263,-565 -1263,-1263 0,-697 565,-1263 1263,-1263zm-13 65c-6,0 -12,0 -18,0 -653,9 -1180,542 -1180,1198 0,656 528,1189 1182,1198 -323,-8 -583,-273 -583,-599 0,-331 268,-599 599,-599 331,0 599,-268 599,-599 0,-331 -268,-599 -599,-599z"/>
   <path class="fil0" d="M1061 782l0 -446c0,-19 7,-36 21,-51 14,-14 31,-21 51,-21l233 0c19,0 36,7 50,21 14,14 21,31 21,51l0 446c0,20 -7,37 -21,51 -14,14 -31,21 -51,21l-232 0c-20,0 -37,-7 -51,-21 -14,-14 -21,-31 -21,-51zm302 -3l0 -440 -227 0 0 440 227 0z"/>
   <path class="fil2" d="M1146 2132l115 0 0 -440 -113 0c-10,0 -19,-4 -26,-11 -7,-7 -11,-16 -11,-26 0,-10 4,-19 11,-26 7,-7 16,-11 26,-11l187 0 0 515 75 0 0 -155c0,-10 4,-19 11,-26 7,-7 16,-11 26,-11 10,0 19,4 26,11 7,7 11,16 11,26l0 193c0,10 -4,19 -11,27 -7,7 -16,11 -26,11l-301 0c-10,0 -19,-4 -26,-11 -7,-8 -11,-17 -11,-27 0,-10 4,-19 11,-26 7,-7 16,-11 26,-11z"/>
  </g>
 </g>
</svg>
