<?xml version="1.0" encoding="UTF-8" standalone="no"?>
<!-- Created with Inkscape (http://www.inkscape.org/) -->

<svg
   xmlns:dc="http://purl.org/dc/elements/1.1/"
   xmlns:cc="http://creativecommons.org/ns#"
   xmlns:rdf="http://www.w3.org/1999/02/22-rdf-syntax-ns#"
   xmlns:svg="http://www.w3.org/2000/svg"
   xmlns="http://www.w3.org/2000/svg"
   xmlns:sodipodi="http://sodipodi.sourceforge.net/DTD/sodipodi-0.dtd"
   xmlns:inkscape="http://www.inkscape.org/namespaces/inkscape"
   width="39.541824mm"
   height="57.98587mm"
   viewBox="0 0 140.10883 205.46173"
   id="svg11817"
   version="1.1"
   inkscape:version="0.91 r13725"
   sodipodi:docname="coderdojo-zh-small.svg">
  <defs
     id="defs11819" />
  <sodipodi:namedview
     id="base"
     pagecolor="#ffffff"
     bordercolor="#666666"
     borderopacity="1.0"
     inkscape:pageopacity="0.0"
     inkscape:pageshadow="2"
     inkscape:zoom="1.4"
     inkscape:cx="51.165561"
     inkscape:cy="112.63371"
     inkscape:document-units="px"
     inkscape:current-layer="layer1"
     showgrid="false"
     fit-margin-top="0"
     fit-margin-left="0"
     fit-margin-right="0"
     fit-margin-bottom="0"
     inkscape:window-width="1364"
     inkscape:window-height="737"
     inkscape:window-x="0"
     inkscape:window-y="0"
     inkscape:window-maximized="0" />
  <metadata
     id="metadata11822">
    <rdf:RDF>
      <cc:Work
         rdf:about="">
        <dc:format>image/svg+xml</dc:format>
        <dc:type
           rdf:resource="http://purl.org/dc/dcmitype/StillImage" />
        <dc:title></dc:title>
      </cc:Work>
    </rdf:RDF>
  </metadata>
  <g
     inkscape:label="Layer 1"
     inkscape:groupmode="layer"
     id="layer1"
     transform="translate(-1.3741608,-151.7742)">
    <text
       xml:space="preserve"
       style="font-style:normal;font-variant:normal;font-weight:bold;font-stretch:normal;font-size:26.38312531px;line-height:125%;font-family:'DejaVu Sans Mono';-inkscape-font-specification:'DejaVu Sans Mono, Bold';text-align:start;letter-spacing:0px;word-spacing:0px;writing-mode:lr-tb;text-anchor:start;fill:#000000;fill-opacity:1;stroke:none;stroke-width:1px;stroke-linecap:butt;stroke-linejoin:miter;stroke-opacity:1"
       x="-0.10731352"
       y="323.88345"
       id="text8711-1-1"
       sodipodi:linespacing="125%"><tspan
         sodipodi:role="line"
         id="tspan8713-42-9"
         x="-0.10731352"
         y="323.88345">CoderDojo</tspan><tspan
         sodipodi:role="line"
         x="-0.10731352"
         y="356.86237"
         id="tspan8715-4-7">Zürich</tspan></text>
    <g
       id="g3778">
      <g
         transform="translate(-138.96136,-1214.8155)"
         id="g9420-3-0">
        <path
           style="fill:none;fill-rule:evenodd;stroke:#000000;stroke-width:1px;stroke-linecap:butt;stroke-linejoin:miter;stroke-opacity:1"
           d="m 169.99505,1371.2462 8.83883,2.8284 -0.7071,6.7175"
           id="path8694-8-9-7"
           inkscape:connector-curvature="0"
           sodipodi:nodetypes="ccc" />
        <path
           style="fill:none;fill-rule:evenodd;stroke:#000000;stroke-width:1px;stroke-linecap:butt;stroke-linejoin:miter;stroke-opacity:1"
           d="m 198.3604,1372.0098 -8.83883,2.8284 0.7071,6.7175"
           id="path8694-8-2-4-7"
           inkscape:connector-curvature="0"
           sodipodi:nodetypes="ccc" />
        <path
           style="fill:none;fill-rule:evenodd;stroke:#000000;stroke-width:1px;stroke-linecap:butt;stroke-linejoin:miter;stroke-opacity:1"
           d="m 187.67271,1367.0855 -8.13173,1.0606 6.71752,6.0104 -0.70711,6.7175"
           id="path8694-4-4-0"
           inkscape:connector-curvature="0"
           sodipodi:nodetypes="cccc" />
      </g>
      <path
         sodipodi:nodetypes="cccccccccc"
         inkscape:connector-curvature="0"
         id="path4157-3-2-2-5-4-7-6-5-4"
         d="m 47.815196,254.24088 -0.70717,44.6484 5.31206,0.4311 -0.12174,-45.0795 z m -18.402926,0.6037 0.45615,43.01649 5.29289,0.2935 -1.2659,-43.30999 z"
         style="fill:#e9ddaf;fill-opacity:1;fill-rule:evenodd;stroke:#000000;stroke-width:0.4269664px;stroke-linecap:butt;stroke-linejoin:miter;stroke-opacity:1" />
      <path
         sodipodi:nodetypes="ccccccccc"
         inkscape:connector-curvature="0"
         id="path8694-3-8-0"
         d="m 70.996486,217.19348 0.35355,6.3639 8.13173,4.2427 -12.37438,2.8284 11.66727,4.9497 -12.72792,3.5356 13.43503,3.5355 -8.83884,2.8284 0.70711,6.7176"
         style="fill:none;fill-rule:evenodd;stroke:#000000;stroke-width:1px;stroke-linecap:butt;stroke-linejoin:miter;stroke-opacity:1" />
      <path
         sodipodi:nodetypes="ccccccccc"
         inkscape:connector-curvature="0"
         id="path8694-0-0"
         d="m 15.64628,214.90768 -0.35355,6.3639 -8.13173,4.2427 12.37438,2.8284 -11.66727,4.9497 12.72792,3.5356 -13.43503,3.5355 8.83884,2.8284 -0.70711,6.7175"
         style="fill:none;fill-rule:evenodd;stroke:#000000;stroke-width:1px;stroke-linecap:butt;stroke-linejoin:miter;stroke-opacity:1" />
      <path
         sodipodi:nodetypes="cccccccccccccc"
         inkscape:connector-curvature="0"
         id="path4157-9-3-7-7-1-4"
         d="m 9.51923,207.33817 -1.04406,12.03828 13.06234,0.7816 -1.16178,36.55954 39.699376,-0.9881 4.1801,-33.88094 13.35857,0 -0.17947,-12.03817 -7.92758,1.2786 0.003,-0.026 -47.350696,-1.4735 0.005,-0.093 -12.64453,-2.15861 z"
         style="fill:#4d4d4d;fill-rule:evenodd;stroke:#000000;stroke-width:0.49404722px;stroke-linecap:butt;stroke-linejoin:miter;stroke-opacity:1" />
      <g
         style="fill:#008080;fill-opacity:1;stroke:#008080;stroke-opacity:1"
         transform="matrix(0.42600195,0,0,0.42600195,40.899016,223.48318)"
         inkscape:label="Gear6"
         id="g8347-8-6-6">
        <path
           inkscape:connector-curvature="0"
           d="m 12.29262,-3.31745 5.86618,-1.58312 0.28902,-0.04251 6.91236,2.63726 0,4.61164 L 18.44782,4.94308 18.1588,4.90057 12.29262,3.31745 9.0193,8.987 l 4.30412,4.2887 0.18132,0.22904 1.17225,7.30491 -3.9938,2.30582 -5.74011,-4.66765 -0.1077,-0.27156 -1.56206,-5.87182 -6.54664,0 -1.56206,5.87182 -0.1077,0.27156 -5.74011,4.66765 -3.9938,-2.30582 1.17225,-7.30491 0.18132,-0.22904 4.30412,-4.2887 -3.27332,-5.66955 -5.86618,1.58312 -0.28902,0.04251 -6.91236,-2.63726 0,-4.61164 6.91236,-2.63726 0.28902,0.04251 5.86618,1.58312 3.27332,-5.66955 -4.30412,-4.2887 -0.18132,-0.22904 -1.17225,-7.30491 3.9938,-2.30582 5.74011,4.66765 0.1077,0.27156 1.56206,5.87182 6.54664,0 1.56206,-5.87182 0.1077,-0.27156 5.74011,-4.66765 3.9938,2.30582 -1.17225,7.30491 -0.18132,0.22904 -4.30412,4.2887 z"
           style="fill:#008080;fill-opacity:1;stroke:#008080;stroke-width:1;stroke-opacity:1"
           id="path8349-39-6-5" />
        <circle
           r="5"
           cy="0"
           cx="0"
           style="fill:#008080;fill-opacity:1;stroke:#008080;stroke-width:1;stroke-opacity:1"
           id="path8351-0-2-5" />
      </g>
      <g
         style="fill:#c83737;fill-opacity:1;stroke:#c83737;stroke-opacity:1"
         transform="matrix(0.28099136,0,0,0.28099136,45.832806,240.16168)"
         inkscape:label="Gear6"
         id="g8347-0-8-7-7">
        <path
           inkscape:connector-curvature="0"
           d="m 12.29262,-3.31745 5.86618,-1.58312 0.28902,-0.04251 6.91236,2.63726 0,4.61164 L 18.44782,4.94308 18.1588,4.90057 12.29262,3.31745 9.0193,8.987 l 4.30412,4.2887 0.18132,0.22904 1.17225,7.30491 -3.9938,2.30582 -5.74011,-4.66765 -0.1077,-0.27156 -1.56206,-5.87182 -6.54664,0 -1.56206,5.87182 -0.1077,0.27156 -5.74011,4.66765 -3.9938,-2.30582 1.17225,-7.30491 0.18132,-0.22904 4.30412,-4.2887 -3.27332,-5.66955 -5.86618,1.58312 -0.28902,0.04251 -6.91236,-2.63726 0,-4.61164 6.91236,-2.63726 0.28902,0.04251 5.86618,1.58312 3.27332,-5.66955 -4.30412,-4.2887 -0.18132,-0.22904 -1.17225,-7.30491 3.9938,-2.30582 5.74011,4.66765 0.1077,0.27156 1.56206,5.87182 6.54664,0 1.56206,-5.87182 0.1077,-0.27156 5.74011,-4.66765 3.9938,2.30582 -1.17225,7.30491 -0.18132,0.22904 -4.30412,4.2887 z"
           style="fill:#c83737;fill-opacity:1;stroke:#c83737;stroke-width:1;stroke-opacity:1"
           id="path8349-3-6-3-9" />
        <circle
           r="5"
           cy="0"
           cx="0"
           style="fill:#c83737;fill-opacity:1;stroke:#c83737;stroke-width:1;stroke-opacity:1"
           id="path8351-9-0-1-5" />
      </g>
      <g
         style="fill:#d4aa00;fill-opacity:1;stroke:#d4aa00;stroke-opacity:1"
         transform="matrix(0.24160165,0,0,0.24160165,55.336716,229.97778)"
         inkscape:label="Gear6"
         id="g8347-0-6-3-9-0">
        <path
           inkscape:connector-curvature="0"
           d="m 12.29262,-3.31745 5.86618,-1.58312 0.28902,-0.04251 6.91236,2.63726 0,4.61164 L 18.44782,4.94308 18.1588,4.90057 12.29262,3.31745 9.0193,8.987 l 4.30412,4.2887 0.18132,0.22904 1.17225,7.30491 -3.9938,2.30582 -5.74011,-4.66765 -0.1077,-0.27156 -1.56206,-5.87182 -6.54664,0 -1.56206,5.87182 -0.1077,0.27156 -5.74011,4.66765 -3.9938,-2.30582 1.17225,-7.30491 0.18132,-0.22904 4.30412,-4.2887 -3.27332,-5.66955 -5.86618,1.58312 -0.28902,0.04251 -6.91236,-2.63726 0,-4.61164 6.91236,-2.63726 0.28902,0.04251 5.86618,1.58312 3.27332,-5.66955 -4.30412,-4.2887 -0.18132,-0.22904 -1.17225,-7.30491 3.9938,-2.30582 5.74011,4.66765 0.1077,0.27156 1.56206,5.87182 6.54664,0 1.56206,-5.87182 0.1077,-0.27156 5.74011,-4.66765 3.9938,2.30582 -1.17225,7.30491 -0.18132,0.22904 -4.30412,4.2887 z"
           style="fill:#d4aa00;fill-opacity:1;stroke:#d4aa00;stroke-width:1;stroke-opacity:1"
           id="path8349-3-2-5-9-2" />
        <circle
           r="5"
           cy="0"
           cx="0"
           style="fill:#d4aa00;fill-opacity:1;stroke:#d4aa00;stroke-width:1;stroke-opacity:1"
           id="path8351-9-2-7-8-8" />
      </g>
      <path
         style="fill:#e9ddaf;fill-opacity:1;fill-rule:evenodd;stroke:#000000;stroke-width:0.4269664px;stroke-linecap:butt;stroke-linejoin:miter;stroke-opacity:1"
         d="m 30.33375,165.00038 0.85393,30.74159 5.957412,0 -0.3711,14.34251 4.207223,0.21891 0,-14 3.551217,0.23985 0,14 4.015052,0.20754 -0.3836,-15.00881 7.360882,0 2.5618,-28.60669 z"
         id="path3599"
         inkscape:connector-curvature="0"
         sodipodi:nodetypes="ccccccccccccc" />
    </g>
  </g>
</svg>
