<?xml version="1.0" encoding="UTF-8" standalone="no"?>
<!-- Created with Inkscape (http://www.inkscape.org/) -->

<svg
   xmlns:dc="http://purl.org/dc/elements/1.1/"
   xmlns:cc="http://creativecommons.org/ns#"
   xmlns:rdf="http://www.w3.org/1999/02/22-rdf-syntax-ns#"
   xmlns:svg="http://www.w3.org/2000/svg"
   xmlns="http://www.w3.org/2000/svg"
   xmlns:sodipodi="http://sodipodi.sourceforge.net/DTD/sodipodi-0.dtd"
   xmlns:inkscape="http://www.inkscape.org/namespaces/inkscape"
   width="21.002298mm"
   height="28.223789mm"
   viewBox="0 0 21.002298 28.223789"
   version="1.1"
   id="svg4108"
   inkscape:version="0.92.3 (2405546, 2018-03-11)"
   sodipodi:docname="coderojo-zh-bended-01.svg">
  <defs
     id="defs4102" />
  <sodipodi:namedview
     id="base"
     pagecolor="#ffffff"
     bordercolor="#666666"
     borderopacity="1.0"
     inkscape:pageopacity="0.0"
     inkscape:pageshadow="2"
     inkscape:zoom="2.1765625"
     inkscape:cx="141.51279"
     inkscape:cy="90.034066"
     inkscape:document-units="mm"
     inkscape:current-layer="layer1"
     showgrid="false"
     fit-margin-top="0"
     fit-margin-left="0"
     fit-margin-right="0"
     fit-margin-bottom="0"
     inkscape:window-width="2078"
     inkscape:window-height="1776"
     inkscape:window-x="0"
     inkscape:window-y="22"
     inkscape:window-maximized="0" />
  <metadata
     id="metadata4105">
    <rdf:RDF>
      <cc:Work
         rdf:about="">
        <dc:format>image/svg+xml</dc:format>
        <dc:type
           rdf:resource="http://purl.org/dc/dcmitype/StillImage" />
        <dc:title></dc:title>
      </cc:Work>
    </rdf:RDF>
  </metadata>
  <g
     inkscape:label="Layer 1"
     inkscape:groupmode="layer"
     id="layer1"
     transform="translate(-43.350011,-144.43106)">
    <g
       transform="translate(-47.370618,29.292172)"
       id="g1334">
      <path
         style="fill:#e9ddaf;fill-opacity:1;fill-rule:evenodd;stroke:#000000;stroke-width:0.08742361px;stroke-linecap:butt;stroke-linejoin:miter;stroke-opacity:1"
         d="m 99.819254,140.441 1.092796,0.0874 c 0,0 -0.61153,-1.87138 -0.66095,-2.8431 -0.0519,-1.02158 0.38807,-2.83536 0.38807,-2.83536 l -0.917946,-0.20869 c 0,0 -0.503501,2.01675 -0.477727,3.04327 0.02356,0.93836 0.575757,2.75648 0.575757,2.75648 z"
         id="path1006"
         inkscape:connector-curvature="0"
         sodipodi:nodetypes="ccsccscc"
         inkscape:transform-center-x="33.995818"
         inkscape:transform-center-y="-9.901607" />
      <path
         style="fill:#e9ddaf;fill-opacity:1;fill-rule:evenodd;stroke:#000000;stroke-width:0.08742361px;stroke-linecap:butt;stroke-linejoin:miter;stroke-opacity:1"
         d="m 103.34004,140.56463 1.09279,0.0874 c 0,0 -0.52946,-1.9312 -0.54137,-2.92156 -0.013,-1.08459 0.51577,-1.93034 0.51577,-1.93034 l -0.91795,-0.19496 c 0,0 -0.59779,1.06601 -0.60957,2.17098 -0.01,0.94202 0.46033,2.78846 0.46033,2.78846 z"
         id="path1008"
         inkscape:connector-curvature="0"
         sodipodi:nodetypes="ccsccscc"
         inkscape:transform-center-x="33.995818"
         inkscape:transform-center-y="-9.901607" />
      <path
         style="fill:#e9ddaf;fill-opacity:1;fill-rule:evenodd;stroke:#000000;stroke-width:0.08742361px;stroke-linecap:butt;stroke-linejoin:miter;stroke-opacity:1"
         d="m 101.91735,140.81398 -0.13909,2.32468 -3.123461,-0.24663 0.381968,-2.23745 z"
         id="path1010"
         inkscape:connector-curvature="0"
         sodipodi:nodetypes="ccccc" />
      <path
         style="fill:#e9ddaf;fill-opacity:1;fill-rule:evenodd;stroke:#000000;stroke-width:0.08742361px;stroke-linecap:butt;stroke-linejoin:miter;stroke-opacity:1"
         d="m 105.43879,141.07798 0.0795,2.23726 -3.12346,-0.24663 0.27269,-2.21559 z"
         id="path1012"
         inkscape:connector-curvature="0"
         sodipodi:nodetypes="ccccc" />
      <path
         style="fill:none;fill-rule:evenodd;stroke:#000000;stroke-width:0.08742361;stroke-linecap:butt;stroke-linejoin:miter;stroke-miterlimit:4;stroke-dasharray:none;stroke-opacity:1"
         d="m 109.67974,129.71424 c 0,0 -0.13088,0.95579 -0.0302,1.29896 0.10064,0.34318 1.08294,0.975 1.11819,0.44104 0.0352,-0.53397 -1.72521,-0.99147 -1.9887,-0.35644 -0.2635,0.63503 1.60762,1.86834 1.72605,1.20451 0.11842,-0.66382 -1.72658,-0.79931 -1.934,-0.16514 -0.20748,0.63415 1.63473,1.74314 1.76139,1.07268 0.12667,-0.67045 -1.79553,-0.89611 -2.0152,-0.25756 -0.21974,0.63854 1.5976,1.67041 1.73726,1.03089 0.13951,-0.63955 -1.69693,-0.76846 -1.90104,-0.15631 -0.20417,0.61215 1.5215,1.68955 1.6625,1.04618 0.14138,-0.64329 -1.77921,-0.73567 -1.98462,-0.10806 -0.20539,0.62761 1.52921,1.70837 1.65368,1.07914 0.12448,-0.62923 -1.66088,-0.76594 -1.86808,-0.14748 -0.20723,0.61846 1.5927,1.6273 1.71959,1.09681 0.12729,-0.5304 -0.98455,-0.23509 -1.266,-0.0214 -0.28145,0.21368 -0.72407,0.72439 -0.72407,0.72439"
         id="path972"
         inkscape:connector-curvature="0"
         sodipodi:nodetypes="czzzzzzzzzzzzzzzc" />
      <path
         style="fill:#e9ddaf;fill-opacity:1;fill-rule:evenodd;stroke:#000000;stroke-width:0.08742361px;stroke-linecap:butt;stroke-linejoin:miter;stroke-opacity:1"
         d="m 103.25134,122.45608 4.81323,1.29018 2.02318,-5.52185 -5.3756,-1.89346 z"
         id="path974"
         inkscape:connector-curvature="0"
         sodipodi:nodetypes="ccccc" />
      <path
         style="fill:#e9ddaf;fill-opacity:1;fill-rule:evenodd;stroke:#000000;stroke-width:0.08742361px;stroke-linecap:butt;stroke-linejoin:miter;stroke-opacity:1"
         d="m 105.27563,125.54187 1.0329,0.36738 0.44759,-2.00701 -0.91452,-0.47141 z"
         id="path976"
         inkscape:connector-curvature="0"
         sodipodi:nodetypes="ccccc"
         inkscape:transform-center-x="33.995818"
         inkscape:transform-center-y="-9.901607" />
      <path
         style="fill:#e9ddaf;fill-opacity:1;fill-rule:evenodd;stroke:#000000;stroke-width:0.08742361px;stroke-linecap:butt;stroke-linejoin:miter;stroke-opacity:1"
         d="m 103.45033,125.00192 1.03291,0.36738 0.44758,-2.00701 -0.88664,-0.23767 z"
         id="path978"
         inkscape:connector-curvature="0"
         sodipodi:nodetypes="ccccc"
         inkscape:transform-center-x="33.995818"
         inkscape:transform-center-y="-9.901607" />
      <path
         style="fill:#4d4d4d;fill-rule:evenodd;stroke:#000000;stroke-width:0.08742361px;stroke-linecap:butt;stroke-linejoin:miter;stroke-opacity:1"
         d="m 98.096433,133.74756 7.856207,1.92482 3.28288,-8.53305 -8.41858,-2.52812 z"
         id="path980"
         inkscape:connector-curvature="0"
         sodipodi:nodetypes="ccccc" />
      <path
         style="fill:#4d4d4d;fill-opacity:1;fill-rule:evenodd;stroke:#000000;stroke-width:0.08742361px;stroke-linecap:butt;stroke-linejoin:miter;stroke-opacity:1"
         d="m 108.68929,129.16515 2.40961,0.64589 0.56987,-2.24897 -2.2524,-0.3523 z"
         id="path982"
         inkscape:connector-curvature="0"
         sodipodi:nodetypes="ccccc" />
      <path
         style="fill:#4d4d4d;fill-opacity:1;fill-rule:evenodd;stroke:#000000;stroke-width:0.08742361px;stroke-linecap:butt;stroke-linejoin:miter;stroke-opacity:1"
         d="m 99.903323,126.5011 -2.209401,-0.73623 0.779131,-2.19288 2.062257,0.94824 z"
         id="path984"
         inkscape:connector-curvature="0"
         sodipodi:nodetypes="ccccc" />
      <g
         style="fill:#008080;stroke-width:3.83351564;stroke-miterlimit:4;stroke-dasharray:none"
         transform="matrix(0.02202746,0.00590442,-0.00590442,0.02202746,102.57186,128.29175)"
         inkscape:label="Gear24"
         id="g992">
        <path
           inkscape:connector-curvature="0"
           d="m 69.80222,-5.62101 1.75337,-0.14119 4.67522,0.76577 6.49842,2.71905 v 4.55476 l -6.49842,2.71905 -4.67522,0.76577 -1.75337,-0.14119 -0.92363,7.01566 1.73017,0.31742 4.31772,1.94971 5.57325,4.30832 -1.17886,4.39956 -6.98074,0.94449 -4.7141,-0.47036 -1.65709,-0.59019 -2.70794,6.53755 1.58906,0.75441 3.66597,3.00079 4.26828,5.60398 -2.27739,3.94453 -6.98732,-0.89444 -4.43174,-1.67443 -1.44787,-0.99897 -4.30772,5.61393 1.33967,1.13998 2.76439,3.84736 2.67242,6.51774 -3.2207,3.2207 -6.51774,-2.67242 -3.84736,-2.76439 -1.13998,-1.33967 -5.61393,4.30772 0.99897,1.44787 1.67443,4.43174 0.89444,6.98732 -3.94453,2.27739 -5.60398,-4.26828 -3.00079,-3.66597 -0.75441,-1.58906 -6.53755,2.70794 0.59019,1.65709 0.47036,4.7141 -0.94449,6.98074 -4.39956,1.17886 -4.30832,-5.57325 -1.94971,-4.31772 -0.31742,-1.73017 -7.01566,0.92363 0.14119,1.75337 -0.76577,4.67522 -2.71905,6.49842 h -4.55476 l -2.71905,-6.49842 -0.76577,-4.67522 0.14119,-1.75337 -7.01566,-0.92363 -0.31742,1.73017 -1.94971,4.31772 -4.30832,5.57325 -4.39956,-1.17886 -0.94449,-6.98074 0.47036,-4.7141 0.59019,-1.65709 -6.53755,-2.70794 -0.75441,1.58906 -3.00079,3.66597 -5.60398,4.26828 -3.94453,-2.27739 0.89444,-6.98732 1.67443,-4.43174 0.99897,-1.44787 -5.61393,-4.30772 -1.13998,1.33967 -3.84736,2.76439 -6.51774,2.67242 -3.2207,-3.2207 2.67242,-6.51774 2.76439,-3.84736 1.33967,-1.13998 -4.30772,-5.61393 -1.44787,0.99897 -4.43174,1.67443 -6.98732,0.89444 -2.27739,-3.94453 4.26828,-5.60398 3.66597,-3.00079 1.58906,-0.75441 -2.70794,-6.53755 -1.65709,0.59019 -4.7141,0.47036 -6.98074,-0.94449 -1.17886,-4.39956 5.57325,-4.30832 4.31772,-1.94971 1.73017,-0.31742 -0.92363,-7.01566 -1.75337,0.14119 -4.67522,-0.76577 -6.49842,-2.71905 v -4.55476 l 6.49842,-2.71905 4.67522,-0.76577 1.75337,0.14119 0.92363,-7.01566 -1.73017,-0.31742 -4.31772,-1.94971 -5.57325,-4.30832 1.17886,-4.39956 6.98074,-0.94449 4.7141,0.47036 1.65709,0.59019 2.70794,-6.53755 -1.58906,-0.75441 -3.66597,-3.00079 -4.26828,-5.60398 2.27739,-3.94453 6.98732,0.89444 4.43174,1.67443 1.44787,0.99897 4.30772,-5.61393 -1.33967,-1.13998 -2.76439,-3.84736 -2.67242,-6.51774 3.2207,-3.2207 6.51774,2.67242 3.84736,2.76439 1.13998,1.33967 5.61393,-4.30772 -0.99897,-1.44787 -1.67443,-4.43174 -0.89444,-6.98732 3.94453,-2.27739 5.60398,4.26828 3.00079,3.66597 0.75441,1.58906 6.53755,-2.70794 -0.59019,-1.65709 -0.47036,-4.7141 0.94449,-6.98074 4.39956,-1.17886 4.30832,5.57325 1.94971,4.31772 0.31742,1.73017 7.01566,-0.92363 -0.14119,-1.75337 0.76577,-4.67522 2.71905,-6.49842 h 4.55476 l 2.71905,6.49842 0.76577,4.67522 -0.14119,1.75337 7.01566,0.92363 0.31742,-1.73017 1.94971,-4.31772 4.30832,-5.57325 4.39956,1.17886 0.94449,6.98074 -0.47036,4.7141 -0.59019,1.65709 6.53755,2.70794 0.75441,-1.58906 3.00079,-3.66597 5.60398,-4.26828 3.94453,2.27739 -0.89444,6.98732 -1.67443,4.43174 -0.99897,1.44787 5.61393,4.30772 1.13998,-1.33967 3.84736,-2.76439 6.51774,-2.67242 3.2207,3.2207 -2.67242,6.51774 -2.76439,3.84736 -1.33967,1.13998 4.30772,5.61393 1.44787,-0.99897 4.43174,-1.67443 6.98732,-0.89444 2.27739,3.94453 -4.26828,5.60398 -3.66597,3.00079 -1.58906,0.75441 2.70794,6.53755 1.65709,-0.59019 4.7141,-0.47036 6.98074,0.94449 1.17886,4.39956 -5.57325,4.30832 -4.31772,1.94971 -1.73017,0.31742 z"
           style="fill:#008080;stroke:#000000;stroke-width:3.83351564;stroke-miterlimit:4;stroke-dasharray:none"
           id="path988" />
        <circle
           r="10"
           cy="0"
           cx="0"
           style="fill:#008080;stroke:#000000;stroke-width:3.83351564;stroke-miterlimit:4;stroke-dasharray:none"
           id="circle990" />
      </g>
      <g
         style="fill:#c83737;stroke-width:4.86301279;stroke-miterlimit:4;stroke-dasharray:none"
         transform="matrix(0.01736426,0.00465446,-0.00465446,0.01736426,103.50332,131.7187)"
         inkscape:label="Gear24"
         id="g998">
        <path
           inkscape:connector-curvature="0"
           d="m 69.80222,-5.62101 1.75337,-0.14119 4.67522,0.76577 6.49842,2.71905 v 4.55476 l -6.49842,2.71905 -4.67522,0.76577 -1.75337,-0.14119 -0.92363,7.01566 1.73017,0.31742 4.31772,1.94971 5.57325,4.30832 -1.17886,4.39956 -6.98074,0.94449 -4.7141,-0.47036 -1.65709,-0.59019 -2.70794,6.53755 1.58906,0.75441 3.66597,3.00079 4.26828,5.60398 -2.27739,3.94453 -6.98732,-0.89444 -4.43174,-1.67443 -1.44787,-0.99897 -4.30772,5.61393 1.33967,1.13998 2.76439,3.84736 2.67242,6.51774 -3.2207,3.2207 -6.51774,-2.67242 -3.84736,-2.76439 -1.13998,-1.33967 -5.61393,4.30772 0.99897,1.44787 1.67443,4.43174 0.89444,6.98732 -3.94453,2.27739 -5.60398,-4.26828 -3.00079,-3.66597 -0.75441,-1.58906 -6.53755,2.70794 0.59019,1.65709 0.47036,4.7141 -0.94449,6.98074 -4.39956,1.17886 -4.30832,-5.57325 -1.94971,-4.31772 -0.31742,-1.73017 -7.01566,0.92363 0.14119,1.75337 -0.76577,4.67522 -2.71905,6.49842 h -4.55476 l -2.71905,-6.49842 -0.76577,-4.67522 0.14119,-1.75337 -7.01566,-0.92363 -0.31742,1.73017 -1.94971,4.31772 -4.30832,5.57325 -4.39956,-1.17886 -0.94449,-6.98074 0.47036,-4.7141 0.59019,-1.65709 -6.53755,-2.70794 -0.75441,1.58906 -3.00079,3.66597 -5.60398,4.26828 -3.94453,-2.27739 0.89444,-6.98732 1.67443,-4.43174 0.99897,-1.44787 -5.61393,-4.30772 -1.13998,1.33967 -3.84736,2.76439 -6.51774,2.67242 -3.2207,-3.2207 2.67242,-6.51774 2.76439,-3.84736 1.33967,-1.13998 -4.30772,-5.61393 -1.44787,0.99897 -4.43174,1.67443 -6.98732,0.89444 -2.27739,-3.94453 4.26828,-5.60398 3.66597,-3.00079 1.58906,-0.75441 -2.70794,-6.53755 -1.65709,0.59019 -4.7141,0.47036 -6.98074,-0.94449 -1.17886,-4.39956 5.57325,-4.30832 4.31772,-1.94971 1.73017,-0.31742 -0.92363,-7.01566 -1.75337,0.14119 -4.67522,-0.76577 -6.49842,-2.71905 v -4.55476 l 6.49842,-2.71905 4.67522,-0.76577 1.75337,0.14119 0.92363,-7.01566 -1.73017,-0.31742 -4.31772,-1.94971 -5.57325,-4.30832 1.17886,-4.39956 6.98074,-0.94449 4.7141,0.47036 1.65709,0.59019 2.70794,-6.53755 -1.58906,-0.75441 -3.66597,-3.00079 -4.26828,-5.60398 2.27739,-3.94453 6.98732,0.89444 4.43174,1.67443 1.44787,0.99897 4.30772,-5.61393 -1.33967,-1.13998 -2.76439,-3.84736 -2.67242,-6.51774 3.2207,-3.2207 6.51774,2.67242 3.84736,2.76439 1.13998,1.33967 5.61393,-4.30772 -0.99897,-1.44787 -1.67443,-4.43174 -0.89444,-6.98732 3.94453,-2.27739 5.60398,4.26828 3.00079,3.66597 0.75441,1.58906 6.53755,-2.70794 -0.59019,-1.65709 -0.47036,-4.7141 0.94449,-6.98074 4.39956,-1.17886 4.30832,5.57325 1.94971,4.31772 0.31742,1.73017 7.01566,-0.92363 -0.14119,-1.75337 0.76577,-4.67522 2.71905,-6.49842 h 4.55476 l 2.71905,6.49842 0.76577,4.67522 -0.14119,1.75337 7.01566,0.92363 0.31742,-1.73017 1.94971,-4.31772 4.30832,-5.57325 4.39956,1.17886 0.94449,6.98074 -0.47036,4.7141 -0.59019,1.65709 6.53755,2.70794 0.75441,-1.58906 3.00079,-3.66597 5.60398,-4.26828 3.94453,2.27739 -0.89444,6.98732 -1.67443,4.43174 -0.99897,1.44787 5.61393,4.30772 1.13998,-1.33967 3.84736,-2.76439 6.51774,-2.67242 3.2207,3.2207 -2.67242,6.51774 -2.76439,3.84736 -1.33967,1.13998 4.30772,5.61393 1.44787,-0.99897 4.43174,-1.67443 6.98732,-0.89444 2.27739,3.94453 -4.26828,5.60398 -3.66597,3.00079 -1.58906,0.75441 2.70794,6.53755 1.65709,-0.59019 4.7141,-0.47036 6.98074,0.94449 1.17886,4.39956 -5.57325,4.30832 -4.31772,1.94971 -1.73017,0.31742 z"
           style="fill:#c83737;stroke:#000000;stroke-width:4.86301279;stroke-miterlimit:4;stroke-dasharray:none"
           id="path994" />
        <circle
           r="10"
           cy="0"
           cx="0"
           style="fill:#c83737;stroke:#000000;stroke-width:4.86301279;stroke-miterlimit:4;stroke-dasharray:none"
           id="circle996" />
      </g>
      <g
         style="fill:#d4aa00;stroke-width:6.84169626;stroke-miterlimit:4;stroke-dasharray:none"
         transform="matrix(0.01234236,0.00330835,-0.00330835,0.01234236,105.76585,129.60516)"
         inkscape:label="Gear24"
         id="g1004">
        <path
           inkscape:connector-curvature="0"
           d="m 69.80222,-5.62101 1.75337,-0.14119 4.67522,0.76577 6.49842,2.71905 v 4.55476 l -6.49842,2.71905 -4.67522,0.76577 -1.75337,-0.14119 -0.92363,7.01566 1.73017,0.31742 4.31772,1.94971 5.57325,4.30832 -1.17886,4.39956 -6.98074,0.94449 -4.7141,-0.47036 -1.65709,-0.59019 -2.70794,6.53755 1.58906,0.75441 3.66597,3.00079 4.26828,5.60398 -2.27739,3.94453 -6.98732,-0.89444 -4.43174,-1.67443 -1.44787,-0.99897 -4.30772,5.61393 1.33967,1.13998 2.76439,3.84736 2.67242,6.51774 -3.2207,3.2207 -6.51774,-2.67242 -3.84736,-2.76439 -1.13998,-1.33967 -5.61393,4.30772 0.99897,1.44787 1.67443,4.43174 0.89444,6.98732 -3.94453,2.27739 -5.60398,-4.26828 -3.00079,-3.66597 -0.75441,-1.58906 -6.53755,2.70794 0.59019,1.65709 0.47036,4.7141 -0.94449,6.98074 -4.39956,1.17886 -4.30832,-5.57325 -1.94971,-4.31772 -0.31742,-1.73017 -7.01566,0.92363 0.14119,1.75337 -0.76577,4.67522 -2.71905,6.49842 h -4.55476 l -2.71905,-6.49842 -0.76577,-4.67522 0.14119,-1.75337 -7.01566,-0.92363 -0.31742,1.73017 -1.94971,4.31772 -4.30832,5.57325 -4.39956,-1.17886 -0.94449,-6.98074 0.47036,-4.7141 0.59019,-1.65709 -6.53755,-2.70794 -0.75441,1.58906 -3.00079,3.66597 -5.60398,4.26828 -3.94453,-2.27739 0.89444,-6.98732 1.67443,-4.43174 0.99897,-1.44787 -5.61393,-4.30772 -1.13998,1.33967 -3.84736,2.76439 -6.51774,2.67242 -3.2207,-3.2207 2.67242,-6.51774 2.76439,-3.84736 1.33967,-1.13998 -4.30772,-5.61393 -1.44787,0.99897 -4.43174,1.67443 -6.98732,0.89444 -2.27739,-3.94453 4.26828,-5.60398 3.66597,-3.00079 1.58906,-0.75441 -2.70794,-6.53755 -1.65709,0.59019 -4.7141,0.47036 -6.98074,-0.94449 -1.17886,-4.39956 5.57325,-4.30832 4.31772,-1.94971 1.73017,-0.31742 -0.92363,-7.01566 -1.75337,0.14119 -4.67522,-0.76577 -6.49842,-2.71905 v -4.55476 l 6.49842,-2.71905 4.67522,-0.76577 1.75337,0.14119 0.92363,-7.01566 -1.73017,-0.31742 -4.31772,-1.94971 -5.57325,-4.30832 1.17886,-4.39956 6.98074,-0.94449 4.7141,0.47036 1.65709,0.59019 2.70794,-6.53755 -1.58906,-0.75441 -3.66597,-3.00079 -4.26828,-5.60398 2.27739,-3.94453 6.98732,0.89444 4.43174,1.67443 1.44787,0.99897 4.30772,-5.61393 -1.33967,-1.13998 -2.76439,-3.84736 -2.67242,-6.51774 3.2207,-3.2207 6.51774,2.67242 3.84736,2.76439 1.13998,1.33967 5.61393,-4.30772 -0.99897,-1.44787 -1.67443,-4.43174 -0.89444,-6.98732 3.94453,-2.27739 5.60398,4.26828 3.00079,3.66597 0.75441,1.58906 6.53755,-2.70794 -0.59019,-1.65709 -0.47036,-4.7141 0.94449,-6.98074 4.39956,-1.17886 4.30832,5.57325 1.94971,4.31772 0.31742,1.73017 7.01566,-0.92363 -0.14119,-1.75337 0.76577,-4.67522 2.71905,-6.49842 h 4.55476 l 2.71905,6.49842 0.76577,4.67522 -0.14119,1.75337 7.01566,0.92363 0.31742,-1.73017 1.94971,-4.31772 4.30832,-5.57325 4.39956,1.17886 0.94449,6.98074 -0.47036,4.7141 -0.59019,1.65709 6.53755,2.70794 0.75441,-1.58906 3.00079,-3.66597 5.60398,-4.26828 3.94453,2.27739 -0.89444,6.98732 -1.67443,4.43174 -0.99897,1.44787 5.61393,4.30772 1.13998,-1.33967 3.84736,-2.76439 6.51774,-2.67242 3.2207,3.2207 -2.67242,6.51774 -2.76439,3.84736 -1.33967,1.13998 4.30772,5.61393 1.44787,-0.99897 4.43174,-1.67443 6.98732,-0.89444 2.27739,3.94453 -4.26828,5.60398 -3.66597,3.00079 -1.58906,0.75441 2.70794,6.53755 1.65709,-0.59019 4.7141,-0.47036 6.98074,0.94449 1.17886,4.39956 -5.57325,4.30832 -4.31772,1.94971 -1.73017,0.31742 z"
           style="fill:#d4aa00;stroke:#000000;stroke-width:6.84169626;stroke-miterlimit:4;stroke-dasharray:none"
           id="path1000" />
        <circle
           r="10"
           cy="0"
           cx="0"
           style="fill:#d4aa00;stroke:#000000;stroke-width:6.84169626;stroke-miterlimit:4;stroke-dasharray:none"
           id="circle1002" />
      </g>
      <path
         style="fill:none;fill-rule:evenodd;stroke:#000000;stroke-width:0.05204241;stroke-linecap:butt;stroke-linejoin:miter;stroke-miterlimit:4;stroke-dasharray:none;stroke-opacity:1"
         d="m 109.32517,117.92151 c 0,0 -0.25697,-0.5808 -0.37984,-0.75466 -0.12286,-0.17386 -0.0543,-0.86575 0.20776,-0.68473 0.26212,0.18102 -0.17551,1.17144 -0.56918,1.05951 -0.39368,-0.11194 -0.27702,-1.44087 0.0764,-1.25063 0.35347,0.19025 -0.26557,1.10104 -0.63818,0.96326 -0.37253,-0.13777 -0.2086,-1.40722 0.15101,-1.21836 0.3596,0.18887 -0.24599,1.16899 -0.62511,1.03532 -0.37912,-0.13368 -0.1884,-1.36301 0.16158,-1.19165 0.34997,0.17136 -0.26913,1.07576 -0.63012,0.94461 -0.36106,-0.13116 -0.22548,-1.33458 0.12679,-1.16243 0.35227,0.17215 -0.31479,1.10205 -0.68353,0.96576 -0.36874,-0.13629 -0.23141,-1.34513 0.10815,-1.1705 0.33956,0.17463 -0.25695,1.05803 -0.62205,0.92597 -0.36513,-0.13205 -0.17011,-1.34476 0.12428,-1.20778 0.2944,0.13699 -0.42247,1.01236 -0.62624,1.06463 -0.20376,0.0523 -0.53428,0.28102 -0.53428,0.28102"
         id="path1014"
         inkscape:connector-curvature="0"
         sodipodi:nodetypes="czzzzzzzzzzzzzzzc" />
      <path
         style="fill:none;fill-rule:evenodd;stroke:#000000;stroke-width:0.08742361;stroke-linecap:butt;stroke-linejoin:miter;stroke-miterlimit:4;stroke-dasharray:none;stroke-opacity:1"
         d="m 98.598203,126.56831 c 0,0 -0.431127,0.52606 -0.930957,0.90639 -0.49983,0.38033 -1.517977,-0.0857 -1.147803,-0.47867 0.370176,-0.393 1.914422,0.62466 1.52335,1.37896 -0.391074,0.75429 -2.393656,-0.15434 -2.117041,-0.56689 0.276616,-0.41256 1.834512,0.53828 1.308649,1.39258 -0.525865,0.8543 -2.334948,-0.38834 -2.026192,-0.75199 0.308755,-0.36365 1.905384,0.63498 1.299302,1.49299 -0.606081,0.85801 -2.209921,-0.43566 -1.836499,-0.97329 0.373442,-0.53763 1.499257,0.92973 0.851526,1.59444 -0.647731,0.66471 -2.106538,-0.80455 -1.598879,-1.20708 0.507658,-0.40252 1.15552,1.37495 0.359461,1.79122 -0.796059,0.41627 -1.572333,-1.07651 -1.196132,-1.59603 0.376217,-0.5195 0.971497,1.59645 -0.08135,1.73036 -1.05285,0.1339 -1.210721,-1.91553 -0.655647,-1.94218 0.555072,-0.0267 0.11597,0.90771 -0.597465,1.14578 -0.713435,0.23808 -1.017299,0.13042 -1.017299,0.13042"
         id="path986"
         inkscape:connector-curvature="0"
         sodipodi:nodetypes="czzzzzzzzzzzzzzzc" />
    </g>
  </g>
</svg>
