<?xml version="1.0" encoding="UTF-8" standalone="no"?>
<!-- Created with Inkscape (http://www.inkscape.org/) -->

<svg
   xmlns:dc="http://purl.org/dc/elements/1.1/"
   xmlns:cc="http://creativecommons.org/ns#"
   xmlns:rdf="http://www.w3.org/1999/02/22-rdf-syntax-ns#"
   xmlns:svg="http://www.w3.org/2000/svg"
   xmlns="http://www.w3.org/2000/svg"
   xmlns:sodipodi="http://sodipodi.sourceforge.net/DTD/sodipodi-0.dtd"
   xmlns:inkscape="http://www.inkscape.org/namespaces/inkscape"
   width="61.09444mm"
   height="121.91959mm"
   viewBox="0 0 216.47636 431.9985"
   id="svg10342"
   version="1.1"
   inkscape:version="0.91 r13725"
   sodipodi:docname="coderdojo-zh.svg">
  <defs
     id="defs10344" />
  <sodipodi:namedview
     id="base"
     pagecolor="#ffffff"
     bordercolor="#666666"
     borderopacity="1.0"
     inkscape:pageopacity="0.0"
     inkscape:pageshadow="2"
     inkscape:zoom="0.7"
     inkscape:cx="213.06602"
     inkscape:cy="65.390566"
     inkscape:document-units="px"
     inkscape:current-layer="layer1"
     showgrid="false"
     fit-margin-top="0"
     fit-margin-left="0"
     fit-margin-right="0"
     fit-margin-bottom="0"
     inkscape:window-width="845"
     inkscape:window-height="737"
     inkscape:window-x="0"
     inkscape:window-y="0"
     inkscape:window-maximized="0" />
  <metadata
     id="metadata10347">
    <rdf:RDF>
      <cc:Work
         rdf:about="">
        <dc:format>image/svg+xml</dc:format>
        <dc:type
           rdf:resource="http://purl.org/dc/dcmitype/StillImage" />
        <dc:title></dc:title>
      </cc:Work>
    </rdf:RDF>
  </metadata>
  <g
     inkscape:label="Layer 1"
     inkscape:groupmode="layer"
     id="layer1"
     transform="translate(132.92464,209.35134)">
    <g
       id="g11643">
      <path
         sodipodi:nodetypes="czzzzzzzzzzzzzzzc"
         inkscape:connector-curvature="0"
         id="path4136-2-5-0-5"
         d="m 14.08762,-58.90252 c 0,0 1.38444,10.9477 3.51272,14.4412 2.12828,3.49349 14.85242,7.56511 13.66059,1.56121 -1.19183,-6.0039 -21.99728,-5.84502 -23.02785,1.95151 -1.03057,7.79653 23.29497,15.88135 22.63755,8.19635 -0.65743,-7.68499 -21.44346,-3.71786 -21.85695,3.90303 -0.41349,7.62089 23.22371,14.41785 22.63755,6.63514 -0.58615,-7.7827 -22.49187,-4.58324 -23.02785,3.12242 -0.53597,7.70566 22.59831,13.72422 22.24725,6.24485 C 30.51956,-20.32619 9.84631,-16.31173 9.40399,-8.94379 8.96166,-1.57584 31.21812,5.21727 30.87063,-2.30864 30.52314,-9.83456 9.03406,-5.1675 8.62338,2.37498 8.2127,9.91747 30.57821,16.72112 30.09002,9.40043 29.60183,2.07974 9.47137,5.8567 9.01368,13.30346 8.556,20.75021 31.42995,26.5658 31.26093,20.3289 31.0919,14.092 19.68692,20.64726 17.21004,23.84163 14.73316,27.036 11.3555,33.98949 11.3555,33.98949"
         style="fill:none;fill-rule:evenodd;stroke:#000000;stroke-width:1;stroke-linecap:butt;stroke-linejoin:miter;stroke-miterlimit:4;stroke-dasharray:none;stroke-opacity:1" />
      <path
         sodipodi:nodetypes="ccccc"
         inkscape:connector-curvature="0"
         id="path4157-8-7-0-1"
         d="m -78.43208,-120.05649 56.99999,0 6,-67 -64.99999,-5 z"
         style="fill:#e9ddaf;fill-opacity:1;fill-rule:evenodd;stroke:#000000;stroke-width:1px;stroke-linecap:butt;stroke-linejoin:miter;stroke-opacity:1" />
      <path
         inkscape:transform-center-y="-9.901607"
         inkscape:transform-center-x="33.995818"
         sodipodi:nodetypes="ccccc"
         inkscape:connector-curvature="0"
         id="path4157-3-2-0-7-0-0"
         d="m -46.9279,-91.95809 12.5,1 -1,-23.5 -11.5,-2.5 z"
         style="fill:#e9ddaf;fill-opacity:1;fill-rule:evenodd;stroke:#000000;stroke-width:1px;stroke-linecap:butt;stroke-linejoin:miter;stroke-opacity:1" />
      <path
         inkscape:transform-center-y="-9.901607"
         inkscape:transform-center-x="33.995818"
         sodipodi:nodetypes="ccccc"
         inkscape:connector-curvature="0"
         id="path4157-3-2-2-7-1-9-1"
         d="m -68.69387,-92.51804 12.5,1 -1,-23.5 -10.5,0 z"
         style="fill:#e9ddaf;fill-opacity:1;fill-rule:evenodd;stroke:#000000;stroke-width:1px;stroke-linecap:butt;stroke-linejoin:miter;stroke-opacity:1" />
      <path
         sodipodi:nodetypes="ccccc"
         inkscape:connector-curvature="0"
         id="path4157-9-3-3-1-7"
         d="m -101.94605,19.96407 92.49999,-2 11,-104 -100.49999,-3 z"
         style="fill:#4d4d4d;fill-rule:evenodd;stroke:#000000;stroke-width:1px;stroke-linecap:butt;stroke-linejoin:miter;stroke-opacity:1" />
      <path
         sodipodi:nodetypes="ccccc"
         inkscape:connector-curvature="0"
         id="path4157-7-2-4-5-3"
         d="m 1.51841,-62.03593 28.53553,0 -0.36396,-26.53553 -25.92893,2.77817 z"
         style="fill:#4d4d4d;fill-opacity:1;fill-rule:evenodd;stroke:#000000;stroke-width:1px;stroke-linecap:butt;stroke-linejoin:miter;stroke-opacity:1" />
      <path
         sodipodi:nodetypes="ccccc"
         inkscape:connector-curvature="0"
         id="path4157-7-0-7-6-8-1"
         d="m -103.44322,-65.44975 -26.59099,-1.59099 2.11396,-26.53553 25.59314,4.36916 z"
         style="fill:#4d4d4d;fill-opacity:1;fill-rule:evenodd;stroke:#000000;stroke-width:1px;stroke-linecap:butt;stroke-linejoin:miter;stroke-opacity:1" />
      <path
         sodipodi:nodetypes="czzzzzzzzzzzzzzzc"
         inkscape:connector-curvature="0"
         id="path4136-7-2-9-0-1"
         d="m -114.85106,-62.44625 c 0,0 -1.38444,10.9477 -3.51272,14.4412 -2.12828,3.49349 -14.85242,7.56511 -13.66059,1.56121 1.19183,-6.0039 21.99728,-5.84502 23.02785,1.95151 1.03057,7.79653 -23.29497,15.88135 -22.63755,8.19635 0.65743,-7.68499 21.44346,-3.71786 21.85695,3.90303 0.41349,7.62089 -23.22371,14.41785 -22.63755,6.63514 0.58615,-7.7827 22.49187,-4.58324 23.02785,3.12242 0.53597,7.70566 -22.59831,13.72422 -22.24725,6.24485 0.35107,-7.47938 21.02432,-3.46492 21.46664,3.90302 0.44233,7.36795 -21.81413,14.16106 -21.46664,6.63515 0.34749,-7.52592 21.83657,-2.85886 22.24725,4.68362 0.41068,7.54249 -21.95483,14.34614 -21.46664,7.02545 0.48819,-7.32069 20.61865,-3.54373 21.07634,3.90303 0.45768,7.44675 -22.41627,13.26234 -22.24725,7.02544 0.16903,-6.2369 11.57401,0.31836 14.05089,3.51273 2.47688,3.19437 5.85454,10.14786 5.85454,10.14786"
         style="fill:none;fill-rule:evenodd;stroke:#000000;stroke-width:1;stroke-linecap:butt;stroke-linejoin:miter;stroke-miterlimit:4;stroke-dasharray:none;stroke-opacity:1" />
      <g
         id="g4317-1-7-5-4"
         inkscape:label="Gear24"
         transform="matrix(0.26085716,0,0,0.26085716,-68.65669,-53.56873)"
         style="fill:#008080;stroke-width:3.83351564;stroke-miterlimit:4;stroke-dasharray:none">
        <path
           id="path4319-8-1-7-2"
           style="fill:#008080;stroke:#000000;stroke-width:3.83351564;stroke-miterlimit:4;stroke-dasharray:none"
           d="m 69.80222,-5.62101 1.75337,-0.14119 4.67522,0.76577 6.49842,2.71905 0,4.55476 -6.49842,2.71905 -4.67522,0.76577 -1.75337,-0.14119 -0.92363,7.01566 1.73017,0.31742 4.31772,1.94971 5.57325,4.30832 -1.17886,4.39956 -6.98074,0.94449 -4.7141,-0.47036 -1.65709,-0.59019 -2.70794,6.53755 1.58906,0.75441 3.66597,3.00079 4.26828,5.60398 -2.27739,3.94453 -6.98732,-0.89444 -4.43174,-1.67443 -1.44787,-0.99897 -4.30772,5.61393 1.33967,1.13998 2.76439,3.84736 2.67242,6.51774 -3.2207,3.2207 -6.51774,-2.67242 -3.84736,-2.76439 -1.13998,-1.33967 -5.61393,4.30772 0.99897,1.44787 1.67443,4.43174 0.89444,6.98732 -3.94453,2.27739 -5.60398,-4.26828 -3.00079,-3.66597 -0.75441,-1.58906 -6.53755,2.70794 0.59019,1.65709 0.47036,4.7141 -0.94449,6.98074 -4.39956,1.17886 -4.30832,-5.57325 -1.94971,-4.31772 -0.31742,-1.73017 -7.01566,0.92363 0.14119,1.75337 -0.76577,4.67522 -2.71905,6.49842 -4.55476,0 -2.71905,-6.49842 -0.76577,-4.67522 0.14119,-1.75337 -7.01566,-0.92363 -0.31742,1.73017 -1.94971,4.31772 -4.30832,5.57325 -4.39956,-1.17886 -0.94449,-6.98074 0.47036,-4.7141 0.59019,-1.65709 -6.53755,-2.70794 -0.75441,1.58906 -3.00079,3.66597 -5.60398,4.26828 -3.94453,-2.27739 0.89444,-6.98732 1.67443,-4.43174 0.99897,-1.44787 -5.61393,-4.30772 -1.13998,1.33967 -3.84736,2.76439 -6.51774,2.67242 -3.2207,-3.2207 2.67242,-6.51774 2.76439,-3.84736 1.33967,-1.13998 -4.30772,-5.61393 -1.44787,0.99897 -4.43174,1.67443 -6.98732,0.89444 -2.27739,-3.94453 4.26828,-5.60398 3.66597,-3.00079 1.58906,-0.75441 -2.70794,-6.53755 -1.65709,0.59019 -4.7141,0.47036 -6.98074,-0.94449 -1.17886,-4.39956 5.57325,-4.30832 4.31772,-1.94971 1.73017,-0.31742 -0.92363,-7.01566 -1.75337,0.14119 -4.67522,-0.76577 -6.49842,-2.71905 0,-4.55476 6.49842,-2.71905 4.67522,-0.76577 1.75337,0.14119 0.92363,-7.01566 -1.73017,-0.31742 -4.31772,-1.94971 -5.57325,-4.30832 1.17886,-4.39956 6.98074,-0.94449 4.7141,0.47036 1.65709,0.59019 2.70794,-6.53755 -1.58906,-0.75441 -3.66597,-3.00079 -4.26828,-5.60398 2.27739,-3.94453 6.98732,0.89444 4.43174,1.67443 1.44787,0.99897 4.30772,-5.61393 -1.33967,-1.13998 -2.76439,-3.84736 -2.67242,-6.51774 3.2207,-3.2207 6.51774,2.67242 3.84736,2.76439 1.13998,1.33967 5.61393,-4.30772 -0.99897,-1.44787 -1.67443,-4.43174 -0.89444,-6.98732 3.94453,-2.27739 5.60398,4.26828 3.00079,3.66597 0.75441,1.58906 6.53755,-2.70794 -0.59019,-1.65709 -0.47036,-4.7141 0.94449,-6.98074 4.39956,-1.17886 4.30832,5.57325 1.94971,4.31772 0.31742,1.73017 7.01566,-0.92363 -0.14119,-1.75337 0.76577,-4.67522 2.71905,-6.49842 4.55476,0 2.71905,6.49842 0.76577,4.67522 -0.14119,1.75337 7.01566,0.92363 0.31742,-1.73017 1.94971,-4.31772 4.30832,-5.57325 4.39956,1.17886 0.94449,6.98074 -0.47036,4.7141 -0.59019,1.65709 6.53755,2.70794 0.75441,-1.58906 3.00079,-3.66597 5.60398,-4.26828 3.94453,2.27739 -0.89444,6.98732 -1.67443,4.43174 -0.99897,1.44787 5.61393,4.30772 1.13998,-1.33967 3.84736,-2.76439 6.51774,-2.67242 3.2207,3.2207 -2.67242,6.51774 -2.76439,3.84736 -1.33967,1.13998 4.30772,5.61393 1.44787,-0.99897 4.43174,-1.67443 6.98732,-0.89444 2.27739,3.94453 -4.26828,5.60398 -3.66597,3.00079 -1.58906,0.75441 2.70794,6.53755 1.65709,-0.59019 4.7141,-0.47036 6.98074,0.94449 1.17886,4.39956 -5.57325,4.30832 -4.31772,1.94971 -1.73017,0.31742 z"
           inkscape:connector-curvature="0" />
        <circle
           id="path4321-2-4-0-2"
           style="fill:#008080;stroke:#000000;stroke-width:3.83351564;stroke-miterlimit:4;stroke-dasharray:none"
           cx="0"
           cy="0"
           r="10" />
      </g>
      <g
         id="g4317-5-0-4-6-4"
         inkscape:label="Gear24"
         transform="matrix(0.20563384,0,0,0.20563384,-48.21647,-18.46448)"
         style="fill:#c83737;stroke-width:4.86301279;stroke-miterlimit:4;stroke-dasharray:none">
        <path
           id="path4319-4-3-8-9-4"
           style="fill:#c83737;stroke:#000000;stroke-width:4.86301279;stroke-miterlimit:4;stroke-dasharray:none"
           d="m 69.80222,-5.62101 1.75337,-0.14119 4.67522,0.76577 6.49842,2.71905 0,4.55476 -6.49842,2.71905 -4.67522,0.76577 -1.75337,-0.14119 -0.92363,7.01566 1.73017,0.31742 4.31772,1.94971 5.57325,4.30832 -1.17886,4.39956 -6.98074,0.94449 -4.7141,-0.47036 -1.65709,-0.59019 -2.70794,6.53755 1.58906,0.75441 3.66597,3.00079 4.26828,5.60398 -2.27739,3.94453 -6.98732,-0.89444 -4.43174,-1.67443 -1.44787,-0.99897 -4.30772,5.61393 1.33967,1.13998 2.76439,3.84736 2.67242,6.51774 -3.2207,3.2207 -6.51774,-2.67242 -3.84736,-2.76439 -1.13998,-1.33967 -5.61393,4.30772 0.99897,1.44787 1.67443,4.43174 0.89444,6.98732 -3.94453,2.27739 -5.60398,-4.26828 -3.00079,-3.66597 -0.75441,-1.58906 -6.53755,2.70794 0.59019,1.65709 0.47036,4.7141 -0.94449,6.98074 -4.39956,1.17886 -4.30832,-5.57325 -1.94971,-4.31772 -0.31742,-1.73017 -7.01566,0.92363 0.14119,1.75337 -0.76577,4.67522 -2.71905,6.49842 -4.55476,0 -2.71905,-6.49842 -0.76577,-4.67522 0.14119,-1.75337 -7.01566,-0.92363 -0.31742,1.73017 -1.94971,4.31772 -4.30832,5.57325 -4.39956,-1.17886 -0.94449,-6.98074 0.47036,-4.7141 0.59019,-1.65709 -6.53755,-2.70794 -0.75441,1.58906 -3.00079,3.66597 -5.60398,4.26828 -3.94453,-2.27739 0.89444,-6.98732 1.67443,-4.43174 0.99897,-1.44787 -5.61393,-4.30772 -1.13998,1.33967 -3.84736,2.76439 -6.51774,2.67242 -3.2207,-3.2207 2.67242,-6.51774 2.76439,-3.84736 1.33967,-1.13998 -4.30772,-5.61393 -1.44787,0.99897 -4.43174,1.67443 -6.98732,0.89444 -2.27739,-3.94453 4.26828,-5.60398 3.66597,-3.00079 1.58906,-0.75441 -2.70794,-6.53755 -1.65709,0.59019 -4.7141,0.47036 -6.98074,-0.94449 -1.17886,-4.39956 5.57325,-4.30832 4.31772,-1.94971 1.73017,-0.31742 -0.92363,-7.01566 -1.75337,0.14119 -4.67522,-0.76577 -6.49842,-2.71905 0,-4.55476 6.49842,-2.71905 4.67522,-0.76577 1.75337,0.14119 0.92363,-7.01566 -1.73017,-0.31742 -4.31772,-1.94971 -5.57325,-4.30832 1.17886,-4.39956 6.98074,-0.94449 4.7141,0.47036 1.65709,0.59019 2.70794,-6.53755 -1.58906,-0.75441 -3.66597,-3.00079 -4.26828,-5.60398 2.27739,-3.94453 6.98732,0.89444 4.43174,1.67443 1.44787,0.99897 4.30772,-5.61393 -1.33967,-1.13998 -2.76439,-3.84736 -2.67242,-6.51774 3.2207,-3.2207 6.51774,2.67242 3.84736,2.76439 1.13998,1.33967 5.61393,-4.30772 -0.99897,-1.44787 -1.67443,-4.43174 -0.89444,-6.98732 3.94453,-2.27739 5.60398,4.26828 3.00079,3.66597 0.75441,1.58906 6.53755,-2.70794 -0.59019,-1.65709 -0.47036,-4.7141 0.94449,-6.98074 4.39956,-1.17886 4.30832,5.57325 1.94971,4.31772 0.31742,1.73017 7.01566,-0.92363 -0.14119,-1.75337 0.76577,-4.67522 2.71905,-6.49842 4.55476,0 2.71905,6.49842 0.76577,4.67522 -0.14119,1.75337 7.01566,0.92363 0.31742,-1.73017 1.94971,-4.31772 4.30832,-5.57325 4.39956,1.17886 0.94449,6.98074 -0.47036,4.7141 -0.59019,1.65709 6.53755,2.70794 0.75441,-1.58906 3.00079,-3.66597 5.60398,-4.26828 3.94453,2.27739 -0.89444,6.98732 -1.67443,4.43174 -0.99897,1.44787 5.61393,4.30772 1.13998,-1.33967 3.84736,-2.76439 6.51774,-2.67242 3.2207,3.2207 -2.67242,6.51774 -2.76439,3.84736 -1.33967,1.13998 4.30772,5.61393 1.44787,-0.99897 4.43174,-1.67443 6.98732,-0.89444 2.27739,3.94453 -4.26828,5.60398 -3.66597,3.00079 -1.58906,0.75441 2.70794,6.53755 1.65709,-0.59019 4.7141,-0.47036 6.98074,0.94449 1.17886,4.39956 -5.57325,4.30832 -4.31772,1.94971 -1.73017,0.31742 z"
           inkscape:connector-curvature="0" />
        <circle
           id="path4321-3-93-8-6-7"
           style="fill:#c83737;stroke:#000000;stroke-width:4.86301279;stroke-miterlimit:4;stroke-dasharray:none"
           cx="0"
           cy="0"
           r="10" />
      </g>
      <g
         id="g4317-5-5-5-6-5-4"
         inkscape:label="Gear24"
         transform="matrix(0.14616258,0,0,0.14616258,-29.47815,-48.51652)"
         style="fill:#d4aa00;stroke-width:6.84169626;stroke-miterlimit:4;stroke-dasharray:none">
        <path
           id="path4319-4-2-1-9-4-4"
           style="fill:#d4aa00;stroke:#000000;stroke-width:6.84169626;stroke-miterlimit:4;stroke-dasharray:none"
           d="m 69.80222,-5.62101 1.75337,-0.14119 4.67522,0.76577 6.49842,2.71905 0,4.55476 -6.49842,2.71905 -4.67522,0.76577 -1.75337,-0.14119 -0.92363,7.01566 1.73017,0.31742 4.31772,1.94971 5.57325,4.30832 -1.17886,4.39956 -6.98074,0.94449 -4.7141,-0.47036 -1.65709,-0.59019 -2.70794,6.53755 1.58906,0.75441 3.66597,3.00079 4.26828,5.60398 -2.27739,3.94453 -6.98732,-0.89444 -4.43174,-1.67443 -1.44787,-0.99897 -4.30772,5.61393 1.33967,1.13998 2.76439,3.84736 2.67242,6.51774 -3.2207,3.2207 -6.51774,-2.67242 -3.84736,-2.76439 -1.13998,-1.33967 -5.61393,4.30772 0.99897,1.44787 1.67443,4.43174 0.89444,6.98732 -3.94453,2.27739 -5.60398,-4.26828 -3.00079,-3.66597 -0.75441,-1.58906 -6.53755,2.70794 0.59019,1.65709 0.47036,4.7141 -0.94449,6.98074 -4.39956,1.17886 -4.30832,-5.57325 -1.94971,-4.31772 -0.31742,-1.73017 -7.01566,0.92363 0.14119,1.75337 -0.76577,4.67522 -2.71905,6.49842 -4.55476,0 -2.71905,-6.49842 -0.76577,-4.67522 0.14119,-1.75337 -7.01566,-0.92363 -0.31742,1.73017 -1.94971,4.31772 -4.30832,5.57325 -4.39956,-1.17886 -0.94449,-6.98074 0.47036,-4.7141 0.59019,-1.65709 -6.53755,-2.70794 -0.75441,1.58906 -3.00079,3.66597 -5.60398,4.26828 -3.94453,-2.27739 0.89444,-6.98732 1.67443,-4.43174 0.99897,-1.44787 -5.61393,-4.30772 -1.13998,1.33967 -3.84736,2.76439 -6.51774,2.67242 -3.2207,-3.2207 2.67242,-6.51774 2.76439,-3.84736 1.33967,-1.13998 -4.30772,-5.61393 -1.44787,0.99897 -4.43174,1.67443 -6.98732,0.89444 -2.27739,-3.94453 4.26828,-5.60398 3.66597,-3.00079 1.58906,-0.75441 -2.70794,-6.53755 -1.65709,0.59019 -4.7141,0.47036 -6.98074,-0.94449 -1.17886,-4.39956 5.57325,-4.30832 4.31772,-1.94971 1.73017,-0.31742 -0.92363,-7.01566 -1.75337,0.14119 -4.67522,-0.76577 -6.49842,-2.71905 0,-4.55476 6.49842,-2.71905 4.67522,-0.76577 1.75337,0.14119 0.92363,-7.01566 -1.73017,-0.31742 -4.31772,-1.94971 -5.57325,-4.30832 1.17886,-4.39956 6.98074,-0.94449 4.7141,0.47036 1.65709,0.59019 2.70794,-6.53755 -1.58906,-0.75441 -3.66597,-3.00079 -4.26828,-5.60398 2.27739,-3.94453 6.98732,0.89444 4.43174,1.67443 1.44787,0.99897 4.30772,-5.61393 -1.33967,-1.13998 -2.76439,-3.84736 -2.67242,-6.51774 3.2207,-3.2207 6.51774,2.67242 3.84736,2.76439 1.13998,1.33967 5.61393,-4.30772 -0.99897,-1.44787 -1.67443,-4.43174 -0.89444,-6.98732 3.94453,-2.27739 5.60398,4.26828 3.00079,3.66597 0.75441,1.58906 6.53755,-2.70794 -0.59019,-1.65709 -0.47036,-4.7141 0.94449,-6.98074 4.39956,-1.17886 4.30832,5.57325 1.94971,4.31772 0.31742,1.73017 7.01566,-0.92363 -0.14119,-1.75337 0.76577,-4.67522 2.71905,-6.49842 4.55476,0 2.71905,6.49842 0.76577,4.67522 -0.14119,1.75337 7.01566,0.92363 0.31742,-1.73017 1.94971,-4.31772 4.30832,-5.57325 4.39956,1.17886 0.94449,6.98074 -0.47036,4.7141 -0.59019,1.65709 6.53755,2.70794 0.75441,-1.58906 3.00079,-3.66597 5.60398,-4.26828 3.94453,2.27739 -0.89444,6.98732 -1.67443,4.43174 -0.99897,1.44787 5.61393,4.30772 1.13998,-1.33967 3.84736,-2.76439 6.51774,-2.67242 3.2207,3.2207 -2.67242,6.51774 -2.76439,3.84736 -1.33967,1.13998 4.30772,5.61393 1.44787,-0.99897 4.43174,-1.67443 6.98732,-0.89444 2.27739,3.94453 -4.26828,5.60398 -3.66597,3.00079 -1.58906,0.75441 2.70794,6.53755 1.65709,-0.59019 4.7141,-0.47036 6.98074,0.94449 1.17886,4.39956 -5.57325,4.30832 -4.31772,1.94971 -1.73017,0.31742 z"
           inkscape:connector-curvature="0" />
        <circle
           id="path4321-3-9-3-5-2-0"
           style="fill:#d4aa00;stroke:#000000;stroke-width:6.84169626;stroke-miterlimit:4;stroke-dasharray:none"
           cx="0"
           cy="0"
           r="10" />
      </g>
      <path
         inkscape:transform-center-y="-9.901607"
         inkscape:transform-center-x="33.995818"
         sodipodi:nodetypes="ccccc"
         inkscape:connector-curvature="0"
         id="path4157-3-2-2-5-4-5-1-0"
         d="m -81.46958,88.07675 12.5,1 -3.12132,-67.34062 -10.5,0 z"
         style="fill:#e9ddaf;fill-opacity:1;fill-rule:evenodd;stroke:#000000;stroke-width:1px;stroke-linecap:butt;stroke-linejoin:miter;stroke-opacity:1" />
      <path
         inkscape:transform-center-y="-9.901607"
         inkscape:transform-center-x="33.995818"
         sodipodi:nodetypes="ccccc"
         inkscape:connector-curvature="0"
         id="path4157-3-2-2-5-5-2-4-8-6"
         d="m -41.19691,89.49088 12.49999,1 -0.29289,-70.16905 -10.49999,0 z"
         style="fill:#e9ddaf;fill-opacity:1;fill-rule:evenodd;stroke:#000000;stroke-width:1px;stroke-linecap:butt;stroke-linejoin:miter;stroke-opacity:1" />
      <path
         sodipodi:nodetypes="ccccc"
         inkscape:connector-curvature="0"
         id="path4157-7-0-3-0-7-1-7"
         d="m -57.47036,92.34305 -1.59099,26.59099 -35.72792,-2.82107 4.36916,-25.59314 z"
         style="fill:#e9ddaf;fill-opacity:1;fill-rule:evenodd;stroke:#000000;stroke-width:1px;stroke-linecap:butt;stroke-linejoin:miter;stroke-opacity:1" />
      <path
         sodipodi:nodetypes="ccccc"
         inkscape:connector-curvature="0"
         id="path4157-7-0-3-5-2-2-0-4"
         d="m -17.19026,95.36286 0.90901,25.59099 -35.72791,-2.82107 3.11916,-25.34314 z"
         style="fill:#e9ddaf;fill-opacity:1;fill-rule:evenodd;stroke:#000000;stroke-width:1px;stroke-linecap:butt;stroke-linejoin:miter;stroke-opacity:1" />
      <path
         sodipodi:nodetypes="czzzzzzzzzzzzzzzc"
         inkscape:connector-curvature="0"
         id="path4136-9-7-7-7-2"
         d="m -24.75458,-188.14475 c 0,0 -4.55911,-5.65596 -6.43148,-7.21297 -1.87237,-1.55703 -3.16421,-9.4043 0.26796,-8.18057 3.43216,1.22374 1.5302,13.46247 -3.15083,13.39171 -4.68103,-0.0708 -7.32792,-15.09903 -2.85928,-14.04389 4.46863,1.05513 0.32564,12.95141 -4.19832,12.53252 -4.52397,-0.41888 -6.47224,-14.92986 -1.93987,-13.9082 4.53236,1.02165 0.74415,13.64407 -3.84039,13.28994 -4.58452,-0.35413 -6.11811,-14.50128 -1.74394,-13.64443 4.37417,0.85684 0.21311,12.6826 -4.16439,12.30267 -4.37751,-0.37991 -6.44353,-14.07742 -2.04165,-13.21864 4.4019,0.85878 -0.2144,13.10827 -4.69194,12.69454 -4.47754,-0.41373 -6.5403,-14.17638 -2.27149,-13.25257 4.26879,0.92381 0.29477,12.45055 -4.13048,12.07282 -4.42524,-0.37773 -5.86193,-14.35392 -2.20364,-13.71228 3.65828,0.64166 -1.66969,12.43624 -3.76618,13.61724 -2.09648,1.18101 -5.07083,4.68708 -5.07083,4.68708"
         style="fill:none;fill-rule:evenodd;stroke:#000000;stroke-width:0.59529006;stroke-linecap:butt;stroke-linejoin:miter;stroke-miterlimit:4;stroke-dasharray:none;stroke-opacity:1" />
    </g>
    <text
       xml:space="preserve"
       style="font-style:normal;font-variant:normal;font-weight:bold;font-stretch:normal;font-size:40.76347733px;line-height:125%;font-family:'DejaVu Sans Mono';-inkscape-font-specification:'DejaVu Sans Mono, Bold';text-align:start;letter-spacing:0px;word-spacing:0px;writing-mode:lr-tb;text-anchor:start;fill:#000000;fill-opacity:1;stroke:none;stroke-width:1px;stroke-linecap:butt;stroke-linejoin:miter;stroke-opacity:1"
       x="-135.21361"
       y="171.11562"
       id="text8711-8-9-3"
       sodipodi:linespacing="125%"><tspan
         sodipodi:role="line"
         id="tspan8713-4-8-4"
         x="-135.21361"
         y="171.11562">CoderDojo</tspan><tspan
         sodipodi:role="line"
         x="-135.21361"
         y="222.06996"
         id="tspan8715-0-02-6">Zürich</tspan></text>
  </g>
</svg>
