<?xml version="1.0" encoding="UTF-8" standalone="no"?>
<!-- Creator: CorelDRAW X6 -->

<svg
   xmlns:dc="http://purl.org/dc/elements/1.1/"
   xmlns:cc="http://creativecommons.org/ns#"
   xmlns:rdf="http://www.w3.org/1999/02/22-rdf-syntax-ns#"
   xmlns:svg="http://www.w3.org/2000/svg"
   xmlns="http://www.w3.org/2000/svg"
   xmlns:sodipodi="http://sodipodi.sourceforge.net/DTD/sodipodi-0.dtd"
   xmlns:inkscape="http://www.inkscape.org/namespaces/inkscape"
   xml:space="preserve"
   width="669px"
   height="676px"
   version="1.1"
   style="shape-rendering:geometricPrecision; text-rendering:geometricPrecision; image-rendering:optimizeQuality; fill-rule:evenodd; clip-rule:evenodd"
   viewBox="0 0 9620 9723"
   id="svg2"
   inkscape:version="0.48.5 r10040"
   sodipodi:docname="Dojo-logo.svg"><metadata
     id="metadata23"><rdf:RDF><cc:Work
         rdf:about=""><dc:format>image/svg+xml</dc:format><dc:type
           rdf:resource="http://purl.org/dc/dcmitype/StillImage" /><dc:title /></cc:Work></rdf:RDF></metadata><sodipodi:namedview
     pagecolor="#ffffff"
     bordercolor="#666666"
     borderopacity="1"
     objecttolerance="10"
     gridtolerance="10"
     guidetolerance="10"
     inkscape:pageopacity="0"
     inkscape:pageshadow="2"
     inkscape:window-width="1364"
     inkscape:window-height="737"
     id="namedview21"
     showgrid="false"
     inkscape:zoom="0.98901497"
     inkscape:cx="113.58352"
     inkscape:cy="450.42506"
     inkscape:window-x="0"
     inkscape:window-y="0"
     inkscape:window-maximized="0"
     inkscape:current-layer="svg2" /><defs
     id="defs4"><style
       type="text/css"
       id="style6">
   
    .fil1 {fill:#FEFEFE}
    .fil0 {fill:black}
    .fil2 {fill:white}
   
  </style></defs><path
     style="fill:#000000"
     inkscape:connector-curvature="0"
     id="path10"
     d="m 1028,8153 0,361 c -3,107 -25,203 -64,286 -32,71 -82,139 -154,193 -71,57 -168,89 -296,89 -129,0 -229,-32 -300,-89 C 143,8939 96,8872 64,8800 25,8718 3,8622 0,8514 L 0,6968 c 4,-104 25,-200 64,-282 32,-71 78,-143 150,-196 71,-54 171,-89 300,-89 129,0 225,36 296,89 71,54 121,125 154,196 39,82 61,178 64,282 l 0,361 -361,0 0,-361 c 0,-71 -18,-121 -57,-164 -18,-18 -50,-29 -89,-29 -68,0 -100,50 -118,96 -11,29 -14,61 -18,97 l 0,1546 c 4,75 25,125 61,164 18,18 43,29 75,29 82,0 114,-43 132,-96 11,-25 14,-57 14,-96 l 0,-361 361,0 z m 1124,425 c -11,189 -68,321 -193,425 -64,54 -154,78 -271,78 -232,0 -346,-129 -404,-257 -32,-75 -54,-161 -57,-257 l 0,-982 c 11,-189 68,-328 193,-435 61,-54 150,-79 268,-79 232,0 350,129 407,254 32,75 54,157 57,250 l 0,1003 z m -339,-993 c 4,-75 -11,-128 -46,-171 -18,-18 -46,-29 -78,-29 -68,0 -97,46 -111,100 -11,29 -14,61 -11,100 l 0,982 c -3,75 14,129 46,168 18,18 43,29 75,29 68,0 100,-43 114,-96 11,-29 14,-61 11,-100 l 0,-982 z m 1501,1468 -361,0 0,-129 c -61,57 -114,100 -182,132 -36,18 -72,25 -104,25 -100,0 -168,-57 -211,-132 -46,-71 -68,-168 -68,-250 l 0,-1246 c 0,-82 21,-178 68,-253 43,-71 111,-129 211,-129 68,0 139,39 193,79 32,25 61,50 93,78 l 0,-800 361,0 0,2624 z M 2953,7528 c 0,-57 -54,-118 -107,-118 -54,0 -96,50 -96,118 l 0,1096 c 0,68 43,118 96,118 54,0 107,-50 107,-118 l 0,-1096 z m 1553,825 0,225 c -11,189 -68,321 -196,425 -64,54 -154,78 -271,78 -232,0 -350,-129 -407,-257 -32,-75 -54,-161 -57,-257 l 0,-982 c 11,-189 71,-328 200,-435 61,-54 150,-79 268,-79 232,0 350,129 407,254 32,75 54,157 57,250 l 0,568 -596,0 0,425 c 4,75 25,129 57,168 18,18 43,29 75,29 68,0 100,-43 114,-96 11,-29 14,-61 14,-100 l 0,-214 336,0 z m -596,-493 261,0 0,-275 c 0,-75 -14,-128 -50,-171 -18,-18 -46,-29 -78,-29 -68,0 -97,46 -114,100 -11,29 -14,61 -18,100 l 0,275 z m 1558,-389 c -32,-11 -68,-14 -100,-14 -57,0 -125,7 -182,61 -68,57 -79,118 -79,178 l 0,1357 -361,0 0,-1953 361,0 0,218 c 4,-25 29,-86 86,-143 57,-54 143,-104 275,-104 l 0,400 z m 157,1582 0,-2624 304,0 c 357,0 550,71 653,271 100,200 114,529 114,1043 0,514 -14,839 -114,1039 -103,200 -296,271 -653,271 l -304,0 z m 386,-386 c 132,0 207,-14 246,-143 18,-61 32,-154 36,-278 4,-125 4,-293 4,-507 0,-214 0,-382 -4,-507 -3,-121 -18,-214 -36,-278 -39,-125 -114,-139 -246,-139 l 0,1853 z m 1832,-89 c -11,189 -68,321 -193,425 -64,54 -154,78 -271,78 -232,0 -346,-129 -404,-257 -32,-75 -54,-161 -57,-257 l 0,-982 c 11,-189 68,-328 193,-435 61,-54 150,-79 268,-79 232,0 350,129 407,254 32,75 54,157 57,250 l 0,1003 z m -339,-993 c 4,-75 -11,-128 -46,-171 -18,-18 -46,-29 -78,-29 -68,0 -97,46 -111,100 -11,29 -14,61 -11,100 l 0,982 c -3,75 14,129 46,168 18,18 43,29 75,29 68,0 100,-43 114,-96 11,-29 14,-61 11,-100 l 0,-982 z m 579,-1157 361,0 0,361 -361,0 0,-361 z m 361,671 0,2003 c 0,100 0,257 -50,386 -50,132 -161,236 -364,236 -57,0 -96,-4 -121,-11 -14,-4 -25,-7 -36,-11 l 0,-332 c 11,3 21,3 32,7 25,4 46,7 68,7 61,0 89,-50 103,-111 4,-29 7,-61 7,-93 0,-32 0,-61 0,-82 l 0,-1999 361,0 z m 1177,1478 c -11,189 -68,321 -193,425 -64,54 -154,78 -271,78 -232,0 -346,-129 -404,-257 -32,-75 -54,-161 -57,-257 l 0,-982 c 11,-189 68,-328 193,-435 61,-54 150,-79 268,-79 232,0 350,129 407,254 32,75 54,157 57,250 l 0,1003 z m -339,-993 c 4,-75 -11,-128 -46,-171 -18,-18 -46,-29 -78,-29 -68,0 -97,46 -111,100 -11,29 -14,61 -11,100 l 0,982 c -3,75 14,129 46,168 18,18 43,29 75,29 68,0 100,-43 114,-96 11,-29 14,-61 11,-100 l 0,-982 z"
     class="fil0" /><circle
     class="fil1"
     cx="4818"
     cy="2907"
     r="2850"
     id="circle13"
     sodipodi:cx="4818"
     sodipodi:cy="2907"
     sodipodi:rx="2850"
     sodipodi:ry="2850"
     style="fill:#fefefe" /><path
     class="fil0"
     d="M 4830,0 C 6435,0 7737,1301 7737,2907 7737,4512 6436,5814 4830,5814 3225,5814 1923,4513 1923,2907 1923,1302 3224,0 4830,0 z m -29,150 c -14,0 -27,0 -41,1 -1503,22 -2716,1248 -2716,2756 0,1510 1216,2737 2721,2756 -744,-19 -1343,-629 -1343,-1378 0,-761 618,-1378 1378,-1378 761,0 1378,-618 1378,-1378 C 6178,768 5560,151 4800,151 z"
     id="path15"
     inkscape:connector-curvature="0"
     style="fill:#000000" /><path
     class="fil0"
     d="m 4366,1800 0,-1027 c 0,-45 16,-84 49,-116 33,-33 72,-49 117,-49 l 536,0 c 44,0 83,16 115,49 32,33 49,72 49,116 l 0,1027 c 0,46 -16,85 -49,117 -32,32 -71,49 -117,49 l -533,0 c -46,0 -86,-16 -118,-49 -32,-32 -48,-71 -48,-117 z m 695,-6 0,-1013 -523,0 0,1013 523,0 z"
     id="path17"
     inkscape:connector-curvature="0"
     style="fill:#000000" /><path
     class="fil2"
     d="m 4561,4906 264,0 0,-1013 -260,0 c -24,0 -44,-8 -61,-25 -17,-17 -25,-37 -25,-61 0,-24 8,-44 25,-61 17,-17 37,-25 61,-25 l 431,0 0,1185 172,0 0,-358 c 0,-23 8,-43 25,-60 17,-17 37,-26 61,-26 24,0 44,8 61,25 17,17 25,37 25,61 l 0,444 c 0,24 -8,44 -25,61 -17,17 -37,25 -61,25 l -693,0 c -24,0 -44,-9 -61,-26 -17,-17 -25,-38 -25,-62 0,-23 8,-43 25,-59 17,-16 37,-25 61,-25 z"
     id="path19"
     inkscape:connector-curvature="0"
     style="fill:#ffffff" /></svg>