<?xml version="1.0" encoding="UTF-8" standalone="no"?>
<!-- Created with Inkscape (http://www.inkscape.org/) -->

<svg
   xmlns:dc="http://purl.org/dc/elements/1.1/"
   xmlns:cc="http://creativecommons.org/ns#"
   xmlns:rdf="http://www.w3.org/1999/02/22-rdf-syntax-ns#"
   xmlns:svg="http://www.w3.org/2000/svg"
   xmlns="http://www.w3.org/2000/svg"
   xmlns:xlink="http://www.w3.org/1999/xlink"
   xmlns:sodipodi="http://sodipodi.sourceforge.net/DTD/sodipodi-0.dtd"
   xmlns:inkscape="http://www.inkscape.org/namespaces/inkscape"
   width="210mm"
   height="297mm"
   viewBox="0 0 210 297"
   version="1.1"
   id="svg8"
   inkscape:version="0.92.2 (5c3e80d, 2017-08-06)"
   sodipodi:docname="lightbot-logo.svg">
  <defs
     id="defs2">
    <linearGradient
       inkscape:collect="always"
       id="linearGradient7085">
      <stop
         style="stop-color:#00ccfe;stop-opacity:1"
         offset="0"
         id="stop7081" />
      <stop
         style="stop-color:#80e6ff;stop-opacity:1"
         offset="1"
         id="stop7083" />
    </linearGradient>
    <filter
       style="color-interpolation-filters:sRGB"
       id="filter7050"
       inkscape:label="shadow">
      <feGaussianBlur
         stdDeviation="1"
         id="feGaussianBlur7054"
         in="SourceAlpha" />
      <feOffset
         dx="1"
         dy="1"
         id="feOffset7056" />
      <feMerge
         id="feMerge7058" />
    </filter>
    <linearGradient
       inkscape:collect="always"
       xlink:href="#linearGradient7085"
       id="linearGradient7087"
       x1="266.08142"
       y1="-179.20134"
       x2="266.08142"
       y2="-365.54166"
       gradientUnits="userSpaceOnUse" />
    <linearGradient
       inkscape:collect="always"
       xlink:href="#linearGradient7085"
       id="linearGradient7095"
       gradientUnits="userSpaceOnUse"
       x1="266.08142"
       y1="-179.20134"
       x2="266.08142"
       y2="-365.54166"
       gradientTransform="translate(-156.78031,323.6634)" />
    <linearGradient
       inkscape:collect="always"
       xlink:href="#linearGradient7085"
       id="linearGradient7107"
       gradientUnits="userSpaceOnUse"
       x1="266.08142"
       y1="-179.20134"
       x2="266.08142"
       y2="-365.54166"
       gradientTransform="translate(-156.03196,547.04728)" />
  </defs>
  <sodipodi:namedview
     id="base"
     pagecolor="#ffffff"
     bordercolor="#666666"
     borderopacity="1.0"
     inkscape:pageopacity="0"
     inkscape:pageshadow="2"
     inkscape:zoom="0.70710678"
     inkscape:cx="524.04861"
     inkscape:cy="328.20117"
     inkscape:document-units="mm"
     inkscape:current-layer="layer2"
     showgrid="false"
     inkscape:window-width="2238"
     inkscape:window-height="1776"
     inkscape:window-x="0"
     inkscape:window-y="22"
     inkscape:window-maximized="0" />
  <metadata
     id="metadata5">
    <rdf:RDF>
      <cc:Work
         rdf:about="">
        <dc:format>image/svg+xml</dc:format>
        <dc:type
           rdf:resource="http://purl.org/dc/dcmitype/StillImage" />
        <dc:title></dc:title>
      </cc:Work>
    </rdf:RDF>
  </metadata>
  <g
     inkscape:label="Layer 1"
     inkscape:groupmode="layer"
     id="layer1" />
  <g
     inkscape:groupmode="layer"
     id="layer2"
     inkscape:label="vector">
    <g
       id="g7126"
       transform="translate(11.599497,15.715448)">
      <path
         style="fill:none;fill-rule:evenodd;stroke:#ffffff;stroke-width:0.26458332px;stroke-linecap:butt;stroke-linejoin:miter;stroke-opacity:1;filter:url(#filter7050)"
         d="m 210.28272,-44.58819 c -11.36125,0 -19.51302,8.57729 -19.51302,19.81067 0.01,5.6505 2.56164,11.20771 6.75307,15.0487 -43.58885,-2.78992 -60.45419,34.63647 -60.45419,53.41482 -19.42562,-9.61669 -31.33762,4.8496 -31.33762,17.67283 -2.17398,0.98186 -3.85093,2.61783 -3.85093,4.9258 v 7.22901 c -2.91769,0 -4.19256,0.93804 -5.2648,2.38745 -6.14465,-4.22403 -13.50856,-3.11505 -15.38407,-3.11505 v -6.78718 c 0,-1.58035 -2.28377,-4.83795 -5.08599,-4.83795 H 64.67196 c -3.06572,0 -5.00848,3.30284 -5.00848,5.07721 v 7.49876 h -1.67276 l -6.99027,2.24018 C 46.63182,73.61252 33.12114,67.41427 19.6835,81.35347 V 66.23915 c 0,-2.53099 -2.73485,-5.1263 -5.65547,-5.1263 H 3.24626 c -3.02674,0 -5.10977,3.31572 -5.10977,5.42396 V 79.43524 L -14.53922,62.84969 c -0.90139,-1.09921 -2.36172,-1.68465 -3.44733,-1.68465 h -11.78843 c -2.41884,0 -4.61316,3.21281 -4.61316,5.05551 0,0 0.33389,38.48346 0,58.77419 0,2.49582 2.49952,5.73918 5.65289,5.73918 0,0 43.06097,-0.0355 42.92864,0 6.10436,24.15292 44.87906,27.02585 50.76693,0 0.15008,0.15008 35.45675,0 35.45675,0 2.95149,0 4.51225,-2.17923 5.62136,-4.03438 6.50521,6.12414 14.07368,5.44522 21.88962,3.18068 3.88091,2.06797 7.73887,-0.56548 11.80962,-1.66036 11.34203,6.50682 25.13022,4.66888 33.81654,-10.03246 13.95609,21.65194 38.85133,14.2705 46.67829,0.37414 2.66254,17.74767 29.23284,15.02127 29.23284,7.43675 l 0.21032,-8.84855 c 0,-3.07524 -2.70327,-6.63124 -7.64707,-5.69785 v -9.7901 c 8.15981,1.27476 18.865,-0.54619 25.44392,-12.84727 h 9.6206 c 2.70956,0 4.78524,-3.2943 4.78524,-4.84725 0.11195,-5.98365 0,-17.52762 0,-17.52762 0,-2.54063 -2.78607,-5.46633 -5.46065,-5.46633 h -16.71526 c -2.78012,-1.87765 -6.33987,-3.17234 -9.74307,-3.60133 4.45709,-27.46095 -8.11674,-52.71854 -34.01498,-63.16669 8.40779,-2.75531 14.36896,-10.22494 14.38052,-18.98282 0,-11.23338 -8.68095,-19.81067 -20.04219,-19.81067 z"
         id="path7060"
         inkscape:connector-curvature="0"
         sodipodi:nodetypes="sccccscccssssccccssssccssccccccccccccccccsccsccccs" />
      <path
         sodipodi:nodetypes="sccccscccssssccccssssccssccccccccccccccccsccsccccs"
         inkscape:connector-curvature="0"
         id="path3353"
         d="m 210.28272,-44.58819 c -11.36125,0 -19.51302,8.57729 -19.51302,19.81067 0.01,5.6505 2.56164,11.20771 6.75307,15.0487 -43.58885,-2.78992 -60.45419,34.63647 -60.45419,53.41482 -19.42562,-9.61669 -31.33762,4.8496 -31.33762,17.67283 -2.17398,0.98186 -3.85093,2.61783 -3.85093,4.9258 v 7.22901 c -2.91769,0 -4.19256,0.93804 -5.2648,2.38745 -6.14465,-4.22403 -13.50856,-3.11505 -15.38407,-3.11505 v -6.78718 c 0,-1.58035 -2.28377,-4.83795 -5.08599,-4.83795 H 64.67196 c -3.06572,0 -5.00848,3.30284 -5.00848,5.07721 v 7.49876 h -1.67276 l -6.99027,2.24018 C 46.63182,73.61252 33.12114,67.41427 19.6835,81.35347 V 66.23915 c 0,-2.53099 -2.73485,-5.1263 -5.65547,-5.1263 H 3.24626 c -3.02674,0 -5.10977,3.31572 -5.10977,5.42396 V 79.43524 L -14.53922,62.84969 c -0.90139,-1.09921 -2.36172,-1.68465 -3.44733,-1.68465 h -11.78843 c -2.41884,0 -4.61316,3.21281 -4.61316,5.05551 0,0 0.33389,38.48346 0,58.77419 0,2.49582 2.49952,5.73918 5.65289,5.73918 0,0 43.06097,-0.0355 42.92864,0 6.10436,24.15292 44.87906,27.02585 50.76693,0 0.15008,0.15008 35.45675,0 35.45675,0 2.95149,0 4.51225,-2.17923 5.62136,-4.03438 6.50521,6.12414 14.07368,5.44522 21.88962,3.18068 3.88091,2.06797 7.73887,-0.56548 11.80962,-1.66036 11.34203,6.50682 25.13022,4.66888 33.81654,-10.03246 13.95609,21.65194 38.85133,14.2705 46.67829,0.37414 2.66254,17.74767 29.23284,15.02127 29.23284,7.43675 l 0.21032,-8.84855 c 0,-3.07524 -2.70327,-6.63124 -7.64707,-5.69785 v -9.7901 c 8.15981,1.27476 18.865,-0.54619 25.44392,-12.84727 h 9.6206 c 2.70956,0 4.78524,-3.2943 4.78524,-4.84725 0.11195,-5.98365 0,-17.52762 0,-17.52762 0,-2.54063 -2.78607,-5.46633 -5.46065,-5.46633 h -16.71526 c -2.78012,-1.87765 -6.33987,-3.17234 -9.74307,-3.60133 4.45709,-27.46095 -8.11674,-52.71854 -34.01498,-63.16669 8.40779,-2.75531 14.36896,-10.22494 14.38052,-18.98282 0,-11.23338 -8.68095,-19.81067 -20.04219,-19.81067 z"
         style="fill:#ffffff;fill-rule:evenodd;stroke:none;stroke-width:0.26458332px;stroke-linecap:butt;stroke-linejoin:miter;stroke-opacity:1" />
      <path
         sodipodi:nodetypes="cccccccccccccccccccccccscccccccccccccsccccccccc"
         inkscape:connector-curvature="0"
         id="path3322"
         d="m 251.11354,76.49072 v -6.61459 h -2.38125 -2.38125 V 68.55322 67.2303 h 6.35 6.35 v 1.32292 1.32291 h -2.38125 -2.38125 v 6.61459 6.61458 h -1.5875 -1.5875 z m 10.05417,-1.32292 v -7.9375 h 2.36881 2.36882 l 0.23728,0.8599 c 0.13052,0.47294 0.75946,2.85419 1.39766,5.29166 0.6382,2.43748 1.22335,4.43177 1.30035,4.43177 0.077,0 0.66214,-1.99429 1.30034,-4.43177 0.63821,-2.43747 1.26715,-4.81872 1.39767,-5.29166 l 0.23727,-0.8599 h 2.36882 2.36881 v 7.9375 7.9375 h -1.45034 -1.45031 l -0.071,-6.09921 -0.071,-6.09922 -1.56162,6.09922 -1.56162,6.09921 h -1.54218 c -1.46137,0 -1.55186,-0.0381 -1.72638,-0.7276 -0.10128,-0.40019 -0.80711,-3.16839 -1.56848,-6.15157 l -1.3843,-5.42396 -0.0241,6.15157 -0.0241,6.15156 h -1.45521 -1.45521 v -7.9375 z"
         style="fill:#999999;fill-opacity:1;stroke-width:0.26458335" />
      <path
         sodipodi:nodetypes="ccsccccccccssscscccccscccsccsssccsccssccscccccccccccccccccccsccccccccccccccscssccccccscccscsccsscscsssscsccccssscccsccscscccccccccccccccccccccccccccccccccccccccccccccccccccccccccsccccccccscccccccccccscccsccccccccccscsccccsccccccccscsccccsccsccssccccccccscccccccsccccccscsccssccccccccscccccccccccscsscsccscccccc"
         style="fill:url(#linearGradient7095);fill-opacity:1;stroke-width:0.26458335"
         d="m 36.27188,143.78716 c -5.19915,-1.01052 -9.70538,-3.99487 -12.59985,-8.34451 -1.1583,-1.74062 -3.27516,-5.96591 -3.27516,-6.53729 0,-0.20206 1.48437,-0.29078 4.82864,-0.28861 l 4.82865,0.003 0.90611,1.64906 c 1.22429,2.22808 3.17933,4.23779 4.86134,4.99726 1.16285,0.52506 1.80717,0.62159 4.15443,0.62241 3.27632,0.001 4.36397,-0.39091 6.54035,-2.35752 2.43043,-2.19614 3.61579,-5.47268 3.45901,-9.5613 l -0.0775,-2.02047 -1.05834,0.84532 c -2.61108,2.08553 -5.23307,2.90856 -9.26611,2.90856 -3.50715,0 -6.15225,-0.59074 -9.04489,-2.02002 -3.22868,-1.59532 -6.77534,-5.28477 -8.6134,-8.96019 -0.99065,-1.98091 -2.22397,-6.06422 -2.59009,-8.57534 -0.88221,-6.05088 0.62418,-13.65047 3.60011,-18.16232 1.4787,-2.24187 4.98962,-5.68993 6.95257,-6.82809 3.18609,-1.84737 4.43311,-2.1436 9.03994,-2.14747 3.77484,-0.003 4.25284,0.052 6.0095,0.69321 1.04965,0.38315 2.6367,1.19374 3.52676,1.80129 1.87358,1.27889 1.32937,1.31648 7.13249,-0.49263 2.25557,-0.70317 4.2025,-1.21959 4.3265,-1.14761 0.124,0.072 0.14306,10.92126 0.0423,24.1095 -0.20245,26.51168 -0.14762,25.68214 -1.95031,29.50633 -2.28293,4.84304 -6.58471,8.3017 -12.20812,9.8154 -1.68777,0.45431 -8.03255,0.78196 -9.52501,0.49188 z m 7.08192,-26.54924 c 4.66159,-2.00536 7.28835,-9.22882 6.46445,-17.7769 -0.48091,-4.98951 -1.57897,-7.8597 -3.89277,-10.17521 -2.03492,-2.03642 -3.2588,-2.58248 -5.81715,-2.59546 -1.77908,-0.009 -2.35004,0.10369 -3.57992,0.70668 -1.94294,0.95261 -3.49832,2.31901 -4.71013,4.13788 -2.09059,3.13788 -2.79567,5.76845 -2.81117,10.4881 -0.0134,4.09182 0.49775,6.63598 1.89412,9.42717 1.02682,2.05248 3.70388,5.02501 5.00022,5.5521 2.85134,1.15935 5.13711,1.23163 7.45235,0.23564 z m 72.89938,8.1844 c -3.87574,-0.50443 -6.51697,-2.70949 -7.59545,-6.34112 -0.36122,-1.21637 -0.41918,-3.5083 -0.41918,-16.57705 V 87.33863 h -3.175 -3.175 v -3.83646 -3.83645 h 3.17021 3.17021 l 0.0709,-6.28386 0.0709,-6.28385 h 4.8948 4.89479 l 0.0709,6.28385 0.0709,6.28386 h 3.30977 3.30976 l -0.0734,3.77031 -0.0734,3.77031 -3.24114,0.0743 -3.24115,0.0743 v 14.15556 c 0,15.63014 -0.003,15.59631 1.58661,16.25487 0.72472,0.30018 1.24413,0.29432 3.34468,-0.0378 1.3677,-0.21623 2.54408,-0.33579 2.61418,-0.2657 0.25707,0.25707 0.1247,6.8889 -0.14078,7.05297 -0.14752,0.0912 -1.09851,0.39586 -2.11331,0.67707 -1.93777,0.53699 -4.38453,0.61389 -7.33092,0.23041 z m 30.91426,-0.39656 c -2.38286,-0.81163 -3.06473,-1.15719 -4.60827,-2.33541 l -1.20403,-0.91906 -4.85048,1.54343 -4.85048,1.54343 -0.0681,-28.61549 c -0.0375,-15.73852 -0.0115,-28.76431 0.0578,-28.94621 0.0944,-0.2477 1.32373,-0.33073 4.89679,-0.33073 h 4.7708 v 7.9375 c 0,4.36562 0.0721,7.9375 0.16024,7.9375 0.0881,0 0.51145,-0.29552 0.94069,-0.6567 1.23218,-1.03681 3.91691,-2.43566 5.60441,-2.9201 1.19894,-0.34419 2.29774,-0.41949 4.89479,-0.33543 3.84966,0.12462 5.62184,0.6147 8.62701,2.38574 2.4806,1.46189 3.87463,2.80216 5.55826,5.3439 2.87259,4.33671 3.83503,7.75712 4.03816,14.35121 0.20732,6.73036 -0.48257,10.35962 -2.81966,14.83329 -2.16114,4.13687 -5.18939,7.00176 -9.01226,8.52608 -2.78189,1.10925 -3.95136,1.32161 -7.27604,1.32127 -2.41257,-2.4e-4 -3.24385,-0.11387 -4.85963,-0.66422 z m 7.68688,-7.72389 c 2.29087,-1.01571 4.51552,-3.95477 5.78384,-7.6412 1.15732,-3.36382 1.20189,-10.63459 0.0884,-14.42376 -1.06495,-3.62399 -3.50544,-6.78472 -6.14887,-7.96352 -1.49503,-0.66668 -5.20349,-0.57421 -6.71617,0.16747 -2.24136,1.09897 -4.37661,4.08047 -5.45245,7.61335 -0.7118,2.33744 -1.16891,6.66831 -0.95334,9.03247 0.66011,7.23937 3.2863,12.02644 7.44872,13.57765 1.38928,0.51774 4.37485,0.33586 5.94987,-0.36246 z m 37.61641,7.99164 c -7.24187,-1.58897 -13.05266,-7.31048 -15.29973,-15.06465 -2.26315,-7.80964 -0.84917,-17.32396 3.44373,-23.17206 2.37557,-3.23617 6.45437,-6.2428 10.04151,-7.40197 2.59431,-0.83834 8.71892,-1.04176 11.69859,-0.38854 2.53671,0.55611 5.75931,2.04148 7.93076,3.65549 9.00727,6.69493 11.22713,23.09731 4.5556,33.66092 -0.57545,0.91116 -1.92172,2.48825 -2.99171,3.50463 -2.91842,2.77222 -6.00614,4.41301 -9.81615,5.21624 -2.28366,0.48144 -7.34683,0.47612 -9.5626,-0.0101 z m 9.29715,-8.56596 c 3.03567,-1.49445 5.1565,-4.56625 6.51803,-9.44065 0.86357,-3.09165 0.80078,-7.32859 -0.15642,-10.55556 -1.05412,-3.5537 -2.10461,-5.48795 -3.86634,-7.119 -2.3046,-2.13366 -3.56028,-2.65221 -6.68905,-2.76238 -2.51315,-0.0885 -2.66942,-0.0602 -4.33487,0.78515 -3.38407,1.71767 -5.14097,3.93915 -6.46155,8.17019 -0.55161,1.76732 -0.61869,2.49083 -0.61329,6.61458 0.006,4.37052 0.0471,4.7473 0.73818,6.71781 0.92594,2.64028 1.78313,4.10217 3.28733,5.60637 2.17863,2.17863 4.52,3.06651 7.69262,2.91713 1.79997,-0.0847 2.50528,-0.25423 3.88536,-0.93364 z m 32.14774,8.60626 c -3.20828,-0.59448 -5.30818,-2.11613 -6.50912,-4.7167 l -0.76692,-1.66077 -0.0741,-15.80077 -0.0741,-15.80078 -3.23318,-0.0742 -3.23319,-0.0742 -0.0734,-3.77031 -0.0734,-3.77031 h 3.31456 3.31456 v -6.4823 -6.48229 h 4.89479 4.89479 v 6.48229 6.4823 h 3.30729 3.3073 v 3.83645 3.83646 h -3.3073 -3.30729 l 0.0148,13.95677 c 0.0109,10.0924 0.10239,14.20956 0.33073,14.86975 0.1947,0.56286 0.65698,1.11155 1.20547,1.43079 0.84936,0.49439 1.00803,0.50046 3.50573,0.13425 l 2.61606,-0.38358 v 3.63894 3.63894 l -1.12448,0.29172 c -0.61846,0.16044 -1.54119,0.40249 -2.05052,0.53789 -1.24909,0.33205 -4.77028,0.27047 -6.87916,-0.12029 z M -28.02188,95.93405 V 66.95378 l 4.82864,0.0721 4.82865,0.0721 0.0675,24.14323 0.0675,24.14323 h 8.60367 8.60368 l -0.0722,4.69635 -0.0723,4.69635 -13.42761,0.0686 -13.42761,0.0686 z M 4.52187,102.1553 V 79.40113 h 4.7625 4.7625 v 22.75417 22.75417 h -4.7625 -4.7625 z m 61.50533,22.42344 c -0.0693,-0.1819 -0.0953,-13.18948 -0.0578,-28.90573 l 0.0682,-28.575 4.82865,-0.0721 4.82864,-0.0721 v 6.31113 6.31113 l 1.65365,-0.34652 c 2.27271,-0.47625 9.61018,-0.45646 11.916,0.0321 5.15677,1.0927 9.43327,4.98863 10.87908,9.91093 0.3673,1.25049 0.42211,3.66385 0.42211,18.58698 v 17.1499 H 95.6784 90.79108 l -0.0736,-17.04304 -0.0736,-17.04304 -0.80405,-1.14707 c -1.65618,-2.3627 -4.53323,-3.37707 -8.2499,-2.90867 -2.18975,0.27596 -4.286,1.67438 -5.1554,3.4392 l -0.60732,1.23282 -0.0737,16.7349 -0.0737,16.7349 h -4.76323 c -3.567,0 -4.79487,-0.0831 -4.88922,-0.33073 z M 244.82969,96.16043 c -0.63143,-0.0911 -0.8599,-0.26022 -0.8599,-0.63648 0,-0.28182 0.14883,-0.51356 0.33073,-0.51498 0.1819,-0.001 0.92604,-0.28478 1.65364,-0.62968 1.83653,-0.87055 3.51891,-2.62725 3.87663,-4.04784 l 0.28723,-1.14073 h 5.31979 5.31977 l -1.97774,1.99586 c -2.448,2.4704 -3.92427,3.43652 -6.50195,4.25509 -1.99059,0.63213 -5.62073,0.98244 -7.4482,0.71876 z M 173.62175,84.36207 c -1.51738,-2.5041 -4.47471,-5.81975 -6.59989,-7.39954 -2.00384,-1.48959 -6.03832,-3.48941 -8.15917,-4.04435 -1.0302,-0.26956 -3.19911,-0.52718 -5.03967,-0.59861 l -3.23114,-0.1254 -1.45641,-2.57226 c -1.89005,-3.33812 -2.89088,-5.87504 -4.00661,-10.15615 -2.39545,-9.19133 -2.26174,-17.28536 0.4443,-26.89587 3.52212,-12.50877 11.06435,-22.45987 22.05431,-29.09812 4.23258,-2.5566 10.0306,-4.952 15.15715,-6.26204 2.68556,-0.68628 3.18463,-0.7277 8.92995,-0.74118 3.34698,-0.008 7.17263,0.0782 8.50144,0.19128 l 2.41603,0.20558 0.59751,-2.45453 c 0.32863,-1.35 0.66955,-2.5736 0.75761,-2.71912 0.0881,-0.14552 0.35329,-1.07454 0.5894,-2.0645 l 0.42929,-1.79991 -1.51221,-1.02692 c -4.89141,-3.32169 -7.33918,-9.47177 -5.93596,-14.91423 1.26623,-4.91111 4.93945,-8.49025 10.09034,-9.83188 4.03123,-1.05 9.14764,0.17257 12.18944,2.91267 2.92886,2.63838 4.2764,5.51411 4.48319,9.56741 0.1141,2.23642 0.0447,2.98982 -0.41456,4.49791 -0.6181,2.02988 -2.03401,4.54336 -3.30288,5.86317 -2.20783,2.29649 -6.26183,4.01815 -9.46154,4.01815 h -1.54732 l -0.26647,0.99219 c -0.48018,1.78796 -1.8706,7.70447 -1.8706,7.9598 0,0.13725 0.41028,0.32651 0.91174,0.42058 1.95651,0.36704 6.99704,2.11723 9.00463,3.12661 4.00331,2.0128 9.68064,5.84791 12.41402,8.38583 5.01267,4.65423 10.00842,12.6467 12.66227,20.25771 2.03163,5.82653 2.84883,10.72293 2.85478,17.10496 0.004,4.45255 -0.41524,7.8054 -1.49847,11.97977 -0.90853,3.50101 -1.0935,3.68685 -2.44996,2.46137 -0.57925,-0.52333 -1.50813,-1.07784 -2.06412,-1.23223 -1.58271,-0.4395 -14.17464,-0.37339 -15.26002,0.0801 -1.32128,0.55206 -2.71153,1.89963 -3.38995,3.28587 -0.53701,1.0973 -0.62104,1.72424 -0.7077,5.28004 l -0.0983,4.03489 h -0.77398 c -1.62976,0 -3.57035,1.1829 -4.68291,2.8545 -0.35946,0.54008 -0.69021,1.02704 -0.735,1.08214 -0.0448,0.0551 -0.65533,-0.26807 -1.35673,-0.71816 -1.86696,-1.19802 -4.98763,-2.58442 -7.37157,-3.2749 -1.88885,-0.54709 -2.62101,-0.6039 -7.64515,-0.59317 -5.27675,0.0113 -5.67322,0.048 -7.88149,0.72938 -5.89671,1.8196 -11.27884,5.70318 -14.38296,10.37833 -0.52883,0.79647 -0.97554,1.44813 -0.9927,1.44813 -0.0171,0 -0.19351,-0.26789 -0.39192,-0.59531 z m -8.92538,-15.04359 c 2.88515,-0.77641 5.13375,-2.43692 6.78536,-5.01072 2.87838,-4.48557 3.08326,-11.39833 0.49362,-16.65476 -0.89974,-1.8263 -1.56311,-2.70333 -3.51713,-4.65001 -2.16259,-2.15446 -2.59097,-2.45808 -4.19973,-2.97656 -3.94744,-1.2722 -7.54779,-0.35271 -10.64147,2.7177 -1.85216,1.83825 -3.35068,4.51305 -3.86077,6.89138 -0.80353,3.74652 -0.1587,8.7308 1.60863,12.43389 2.51813,5.27627 8.52501,8.54254 13.33149,7.24908 z m 46.46508,-3.55955 c 2.69272,-0.55989 5.02177,-1.9063 7.27604,-4.20622 3.29902,-3.36582 4.6495,-6.33052 4.83564,-10.61559 0.19842,-4.56791 -1.2252,-8.4513 -4.28346,-11.68451 -1.93969,-2.05068 -3.69075,-3.18767 -6.50841,-4.22604 -1.71637,-0.63251 -2.35271,-0.72759 -4.75939,-0.71112 -1.75814,0.012 -3.40955,0.18907 -4.49792,0.48218 -5.42114,1.46001 -10.00013,5.88783 -11.3771,11.00149 -0.49053,1.82167 -0.40851,7.00948 0.13593,8.59889 1.2968,3.78573 3.46236,6.97878 5.84478,8.61793 4.15077,2.8558 8.49416,3.7493 13.33389,2.74299 z M 4.52187,71.9928 v -4.7625 h 4.7625 4.7625 v 4.7625 4.7625 h -4.7625 -4.7625 z m 120.82979,-7.0819 c -0.30286,-1.46788 -1.63965,-3.12592 -3.11168,-3.85946 -1.34702,-0.67125 -1.58429,-0.70031 -5.719,-0.70031 h -4.31368 v -1.00274 c 0,-1.42151 0.68902,-3.88743 1.52554,-5.45974 0.91867,-1.72672 4.04359,-4.85164 5.77031,-5.77031 1.93267,-1.02825 4.12802,-1.52554 6.73464,-1.52554 4.07658,0 7.1328,1.32958 9.98325,4.34313 0.98073,1.03684 2.10664,2.48701 2.50204,3.2226 0.80879,1.50466 1.53006,4.01353 1.53006,5.32215 v 0.87045 l -4.82865,0.003 c -4.548,0.002 -4.90846,0.0397 -6.20194,0.64198 -1.47889,0.68856 -2.82911,2.24331 -3.12732,3.60106 -0.23092,1.05136 -0.56255,1.19147 -0.74357,0.31414 z"
         id="path7071"
         inkscape:connector-curvature="0" />
    </g>
    <g
       id="g7116">
      <path
         style="fill:#ffffff;fill-rule:evenodd;stroke:none;stroke-width:0.26458332px;stroke-linecap:butt;stroke-linejoin:miter;stroke-opacity:1"
         d="m 211.03107,178.79569 c -11.36125,0 -19.51302,8.57729 -19.51302,19.81067 0.01,5.6505 2.56164,11.20771 6.75307,15.0487 -43.58885,-2.78992 -60.45419,34.63647 -60.45419,53.41482 -19.42562,-9.61669 -31.33762,4.8496 -31.33762,17.67283 -2.17398,0.98186 -3.85093,2.61783 -3.85093,4.9258 v 7.22901 c -2.91769,0 -4.19256,0.93804 -5.2648,2.38745 -6.14465,-4.22403 -13.50856,-3.11505 -15.38407,-3.11505 v -6.78718 c 0,-1.58035 -2.28377,-4.83795 -5.08599,-4.83795 H 65.42031 c -3.06572,0 -5.00848,3.30284 -5.00848,5.07721 v 7.49876 h -1.67276 l -6.99027,2.24018 c -4.36863,-2.36454 -17.87931,-8.56279 -31.31695,5.37641 v -15.11432 c 0,-2.53099 -2.73485,-5.1263 -5.65547,-5.1263 H 3.99461 c -3.02674,0 -5.10977,3.31572 -5.10977,5.42396 v 12.89843 l -12.67571,-16.58555 c -0.90139,-1.09921 -2.36172,-1.68465 -3.44733,-1.68465 h -11.78843 c -2.41884,0 -4.61316,3.21281 -4.61316,5.05551 0,0 0.33389,38.48346 0,58.77419 0,2.49582 2.49952,5.73918 5.65289,5.73918 0,0 43.06097,-0.0355 42.92864,0 6.10436,24.15292 44.87906,27.02585 50.76693,0 0.15008,0.15008 35.45675,0 35.45675,0 2.95149,0 4.51225,-2.17923 5.62136,-4.03438 6.50521,6.12414 14.07368,5.44522 21.88962,3.18068 3.88091,2.06797 7.73887,-0.56548 11.80962,-1.66036 11.34203,6.50682 25.13022,4.66888 33.81654,-10.03246 13.95609,21.65194 38.85133,14.2705 46.67829,0.37414 2.66254,17.74767 29.23284,15.02127 29.23284,7.43675 l 0.21032,-8.84855 c 0,-3.07524 -2.70327,-6.63124 -7.64707,-5.69785 v -9.7901 c 8.15981,1.27476 18.865,-0.54619 25.44392,-12.84727 h 9.6206 c 2.70956,0 4.78524,-3.2943 4.78524,-4.84725 0.11195,-5.98365 0,-17.52762 0,-17.52762 0,-2.54063 -2.78607,-5.46633 -5.46065,-5.46633 h -16.71526 c -2.78012,-1.87765 -6.33987,-3.17234 -9.74307,-3.60133 4.45709,-27.46095 -8.11674,-52.71854 -34.01498,-63.16669 8.40779,-2.75531 14.36896,-10.22494 14.38052,-18.98282 0,-11.23338 -8.68095,-19.81067 -20.04219,-19.81067 z"
         id="path7099"
         inkscape:connector-curvature="0"
         sodipodi:nodetypes="sccccscccssssccccssssccssccccccccccccccccsccsccccs" />
      <path
         style="fill:#999999;fill-opacity:1;stroke-width:0.26458335"
         d="m 251.86189,299.8746 v -6.61459 h -2.38125 -2.38125 v -1.32291 -1.32292 h 6.35 6.35 v 1.32292 1.32291 h -2.38125 -2.38125 v 6.61459 6.61458 h -1.5875 -1.5875 z m 10.05417,-1.32292 v -7.9375 h 2.36881 2.36882 l 0.23728,0.8599 c 0.13052,0.47294 0.75946,2.85419 1.39766,5.29166 0.6382,2.43748 1.22335,4.43177 1.30035,4.43177 0.077,0 0.66214,-1.99429 1.30034,-4.43177 0.63821,-2.43747 1.26715,-4.81872 1.39767,-5.29166 l 0.23727,-0.8599 h 2.36882 2.36881 v 7.9375 7.9375 h -1.45034 -1.45031 l -0.071,-6.09921 -0.071,-6.09922 -1.56162,6.09922 -1.56162,6.09921 h -1.54218 c -1.46137,0 -1.55186,-0.0381 -1.72638,-0.7276 -0.10128,-0.40019 -0.80711,-3.16839 -1.56848,-6.15157 l -1.3843,-5.42396 -0.0241,6.15157 -0.0241,6.15156 h -1.45521 -1.45521 v -7.9375 z"
         id="path7101"
         inkscape:connector-curvature="0"
         sodipodi:nodetypes="cccccccccccccccccccccccscccccccccccccsccccccccc" />
      <path
         inkscape:connector-curvature="0"
         id="path7103"
         d="m 37.02023,367.17104 c -5.19915,-1.01052 -9.70538,-3.99487 -12.59985,-8.34451 -1.1583,-1.74062 -3.27516,-5.96591 -3.27516,-6.53729 0,-0.20206 1.48437,-0.29078 4.82864,-0.28861 l 4.82865,0.003 0.90611,1.64906 c 1.22429,2.22808 3.17933,4.23779 4.86134,4.99726 1.16285,0.52506 1.80717,0.62159 4.15443,0.62241 3.27632,0.001 4.36397,-0.39091 6.54035,-2.35752 2.43043,-2.19614 3.61579,-5.47268 3.45901,-9.5613 l -0.0775,-2.02047 -1.05834,0.84532 c -2.61108,2.08553 -5.23307,2.90856 -9.26611,2.90856 -3.50715,0 -6.15225,-0.59074 -9.04489,-2.02002 -3.22868,-1.59532 -6.77534,-5.28477 -8.6134,-8.96019 -0.99065,-1.98091 -2.22397,-6.06422 -2.59009,-8.57534 -0.88221,-6.05088 0.62418,-13.65047 3.60011,-18.16232 1.4787,-2.24187 4.98962,-5.68993 6.95257,-6.82809 3.18609,-1.84737 4.43311,-2.1436 9.03994,-2.14747 3.77484,-0.003 4.25284,0.052 6.0095,0.69321 1.04965,0.38315 2.6367,1.19374 3.52676,1.80129 1.87358,1.27889 1.32937,1.31648 7.13249,-0.49263 2.25557,-0.70317 4.2025,-1.21959 4.3265,-1.14761 0.124,0.072 0.14306,10.92126 0.0423,24.1095 -0.20245,26.51168 -0.14762,25.68214 -1.95031,29.50633 -2.28293,4.84304 -6.58471,8.3017 -12.20812,9.8154 -1.68777,0.45431 -8.03255,0.78196 -9.52501,0.49188 z m 7.08192,-26.54924 c 4.66159,-2.00536 7.28835,-9.22882 6.46445,-17.7769 -0.48091,-4.98951 -1.57897,-7.8597 -3.89277,-10.17521 -2.03492,-2.03642 -3.2588,-2.58248 -5.81715,-2.59546 -1.77908,-0.009 -2.35004,0.10369 -3.57992,0.70668 -1.94294,0.95261 -3.49832,2.31901 -4.71013,4.13788 -2.09059,3.13788 -2.79567,5.76845 -2.81117,10.4881 -0.0134,4.09182 0.49775,6.63598 1.89412,9.42717 1.02682,2.05248 3.70388,5.02501 5.00022,5.5521 2.85134,1.15935 5.13711,1.23163 7.45235,0.23564 z m 72.89938,8.1844 c -3.87574,-0.50443 -6.51697,-2.70949 -7.59545,-6.34112 -0.36122,-1.21637 -0.41918,-3.5083 -0.41918,-16.57705 v -15.16552 h -3.175 -3.175 v -3.83646 -3.83645 h 3.17021 3.17021 l 0.0709,-6.28386 0.0709,-6.28385 h 4.8948 4.89479 l 0.0709,6.28385 0.0709,6.28386 h 3.30977 3.30976 l -0.0734,3.77031 -0.0734,3.77031 -3.24114,0.0743 -3.24115,0.0743 v 14.15556 c 0,15.63014 -0.003,15.59631 1.58661,16.25487 0.72472,0.30018 1.24413,0.29432 3.34468,-0.0378 1.3677,-0.21623 2.54408,-0.33579 2.61418,-0.2657 0.25707,0.25707 0.1247,6.8889 -0.14078,7.05297 -0.14752,0.0912 -1.09851,0.39586 -2.11331,0.67707 -1.93777,0.53699 -4.38453,0.61389 -7.33092,0.23041 z m 30.91426,-0.39656 c -2.38286,-0.81163 -3.06473,-1.15719 -4.60827,-2.33541 l -1.20403,-0.91906 -4.85048,1.54343 -4.85048,1.54343 -0.0681,-28.61549 c -0.0375,-15.73852 -0.0115,-28.76431 0.0578,-28.94621 0.0944,-0.2477 1.32373,-0.33073 4.89679,-0.33073 h 4.7708 v 7.9375 c 0,4.36562 0.0721,7.9375 0.16024,7.9375 0.0881,0 0.51145,-0.29552 0.94069,-0.6567 1.23218,-1.03681 3.91691,-2.43566 5.60441,-2.9201 1.19894,-0.34419 2.29774,-0.41949 4.89479,-0.33543 3.84966,0.12462 5.62184,0.6147 8.62701,2.38574 2.4806,1.46189 3.87463,2.80216 5.55826,5.3439 2.87259,4.33671 3.83503,7.75712 4.03816,14.35121 0.20732,6.73036 -0.48257,10.35962 -2.81966,14.83329 -2.16114,4.13687 -5.18939,7.00176 -9.01226,8.52608 -2.78189,1.10925 -3.95136,1.32161 -7.27604,1.32127 -2.41257,-2.4e-4 -3.24385,-0.11387 -4.85963,-0.66422 z m 7.68688,-7.72389 c 2.29087,-1.01571 4.51552,-3.95477 5.78384,-7.6412 1.15732,-3.36382 1.20189,-10.63459 0.0884,-14.42376 -1.06495,-3.62399 -3.50544,-6.78472 -6.14887,-7.96352 -1.49503,-0.66668 -5.20349,-0.57421 -6.71617,0.16747 -2.24136,1.09897 -4.37661,4.08047 -5.45245,7.61335 -0.7118,2.33744 -1.16891,6.66831 -0.95334,9.03247 0.66011,7.23937 3.2863,12.02644 7.44872,13.57765 1.38928,0.51774 4.37485,0.33586 5.94987,-0.36246 z m 37.61641,7.99164 c -7.24187,-1.58897 -13.05266,-7.31048 -15.29973,-15.06465 -2.26315,-7.80964 -0.84917,-17.32396 3.44373,-23.17206 2.37557,-3.23617 6.45437,-6.2428 10.04151,-7.40197 2.59431,-0.83834 8.71892,-1.04176 11.69859,-0.38854 2.53671,0.55611 5.75931,2.04148 7.93076,3.65549 9.00727,6.69493 11.22713,23.09731 4.5556,33.66092 -0.57545,0.91116 -1.92172,2.48825 -2.99171,3.50463 -2.91842,2.77222 -6.00614,4.41301 -9.81615,5.21624 -2.28366,0.48144 -7.34683,0.47612 -9.5626,-0.0101 z m 9.29715,-8.56596 c 3.03567,-1.49445 5.1565,-4.56625 6.51803,-9.44065 0.86357,-3.09165 0.80078,-7.32859 -0.15642,-10.55556 -1.05412,-3.5537 -2.10461,-5.48795 -3.86634,-7.119 -2.3046,-2.13366 -3.56028,-2.65221 -6.68905,-2.76238 -2.51315,-0.0885 -2.66942,-0.0602 -4.33487,0.78515 -3.38407,1.71767 -5.14097,3.93915 -6.46155,8.17019 -0.55161,1.76732 -0.61869,2.49083 -0.61329,6.61458 0.006,4.37052 0.0471,4.7473 0.73818,6.71781 0.92594,2.64028 1.78313,4.10217 3.28733,5.60637 2.17863,2.17863 4.52,3.06651 7.69262,2.91713 1.79997,-0.0847 2.50528,-0.25423 3.88536,-0.93364 z m 32.14774,8.60626 c -3.20828,-0.59448 -5.30818,-2.11613 -6.50912,-4.7167 l -0.76692,-1.66077 -0.0741,-15.80077 -0.0741,-15.80078 -3.23318,-0.0742 -3.23319,-0.0742 -0.0734,-3.77031 -0.0734,-3.77031 h 3.31456 3.31456 v -6.4823 -6.48229 h 4.89479 4.89479 v 6.48229 6.4823 h 3.30729 3.3073 v 3.83645 3.83646 h -3.3073 -3.30729 l 0.0148,13.95677 c 0.0109,10.0924 0.10239,14.20956 0.33073,14.86975 0.1947,0.56286 0.65698,1.11155 1.20547,1.43079 0.84936,0.49439 1.00803,0.50046 3.50573,0.13425 l 2.61606,-0.38358 v 3.63894 3.63894 l -1.12448,0.29172 c -0.61846,0.16044 -1.54119,0.40249 -2.05052,0.53789 -1.24909,0.33205 -4.77028,0.27047 -6.87916,-0.12029 z m -261.9375,-29.39976 v -28.98027 l 4.82864,0.0721 4.82865,0.0721 0.0675,24.14323 0.0675,24.14323 h 8.60367 8.60368 l -0.0722,4.69635 -0.0723,4.69635 -13.42761,0.0686 -13.42761,0.0686 z m 32.54375,6.22125 v -22.75417 h 4.7625 4.7625 v 22.75417 22.75417 h -4.7625 -4.7625 z m 61.50533,22.42344 c -0.0693,-0.1819 -0.0953,-13.18948 -0.0578,-28.90573 l 0.0682,-28.575 4.82865,-0.0721 4.82864,-0.0721 v 6.31113 6.31113 l 1.65365,-0.34652 c 2.27271,-0.47625 9.61018,-0.45646 11.916,0.0321 5.15677,1.0927 9.43327,4.98863 10.87908,9.91093 0.3673,1.25049 0.42211,3.66385 0.42211,18.58698 v 17.1499 h -4.88733 -4.88732 l -0.0736,-17.04304 -0.0736,-17.04304 -0.80405,-1.14707 c -1.65618,-2.3627 -4.53323,-3.37707 -8.2499,-2.90867 -2.18975,0.27596 -4.286,1.67438 -5.1554,3.4392 l -0.60732,1.23282 -0.0737,16.7349 -0.0737,16.7349 h -4.76323 c -3.567,0 -4.79487,-0.0831 -4.88922,-0.33073 z m 178.80249,-28.41831 c -0.63143,-0.0911 -0.8599,-0.26022 -0.8599,-0.63648 0,-0.28182 0.14883,-0.51356 0.33073,-0.51498 0.1819,-0.001 0.92604,-0.28478 1.65364,-0.62968 1.83653,-0.87055 3.51891,-2.62725 3.87663,-4.04784 l 0.28723,-1.14073 h 5.31979 5.31977 l -1.97774,1.99586 c -2.448,2.4704 -3.92427,3.43652 -6.50195,4.25509 -1.99059,0.63213 -5.62073,0.98244 -7.4482,0.71876 z M 174.3701,307.74595 c -1.51738,-2.5041 -4.47471,-5.81975 -6.59989,-7.39954 -2.00384,-1.48959 -6.03832,-3.48941 -8.15917,-4.04435 -1.0302,-0.26956 -3.19911,-0.52718 -5.03967,-0.59861 l -3.23114,-0.1254 -1.45641,-2.57226 c -1.89005,-3.33812 -2.89088,-5.87504 -4.00661,-10.15615 -2.39545,-9.19133 -2.26174,-17.28536 0.4443,-26.89587 3.52212,-12.50877 11.06435,-22.45987 22.05431,-29.09812 4.23258,-2.5566 10.0306,-4.952 15.15715,-6.26204 2.68556,-0.68628 3.18463,-0.7277 8.92995,-0.74118 3.34698,-0.008 7.17263,0.0782 8.50144,0.19128 l 2.41603,0.20558 0.59751,-2.45453 c 0.32863,-1.35 0.66955,-2.5736 0.75761,-2.71912 0.0881,-0.14552 0.35329,-1.07454 0.5894,-2.0645 l 0.42929,-1.79991 -1.51221,-1.02692 c -4.89141,-3.32169 -7.33918,-9.47177 -5.93596,-14.91423 1.26623,-4.91111 4.93945,-8.49025 10.09034,-9.83188 4.03123,-1.05 9.14764,0.17257 12.18944,2.91267 2.92886,2.63838 4.2764,5.51411 4.48319,9.56741 0.1141,2.23642 0.0447,2.98982 -0.41456,4.49791 -0.6181,2.02988 -2.03401,4.54336 -3.30288,5.86317 -2.20783,2.29649 -6.26183,4.01815 -9.46154,4.01815 h -1.54732 l -0.26647,0.99219 c -0.48018,1.78796 -1.8706,7.70447 -1.8706,7.9598 0,0.13725 0.41028,0.32651 0.91174,0.42058 1.95651,0.36704 6.99704,2.11723 9.00463,3.12661 4.00331,2.0128 9.68064,5.84791 12.41402,8.38583 5.01267,4.65423 10.00842,12.6467 12.66227,20.25771 2.03163,5.82653 2.84883,10.72293 2.85478,17.10496 0.004,4.45255 -0.41524,7.8054 -1.49847,11.97977 -0.90853,3.50101 -1.0935,3.68685 -2.44996,2.46137 -0.57925,-0.52333 -1.50813,-1.07784 -2.06412,-1.23223 -1.58271,-0.4395 -14.17464,-0.37339 -15.26002,0.0801 -1.32128,0.55206 -2.71153,1.89963 -3.38995,3.28587 -0.53701,1.0973 -0.62104,1.72424 -0.7077,5.28004 l -0.0983,4.03489 h -0.77398 c -1.62976,0 -3.57035,1.1829 -4.68291,2.8545 -0.35946,0.54008 -0.69021,1.02704 -0.735,1.08214 -0.0448,0.0551 -0.65533,-0.26807 -1.35673,-0.71816 -1.86696,-1.19802 -4.98763,-2.58442 -7.37157,-3.2749 -1.88885,-0.54709 -2.62101,-0.6039 -7.64515,-0.59317 -5.27675,0.0113 -5.67322,0.048 -7.88149,0.72938 -5.89671,1.8196 -11.27884,5.70318 -14.38296,10.37833 -0.52883,0.79647 -0.97554,1.44813 -0.9927,1.44813 -0.0171,0 -0.19351,-0.26789 -0.39192,-0.59531 z m -8.92538,-15.04359 c 2.88515,-0.77641 5.13375,-2.43692 6.78536,-5.01072 2.87838,-4.48557 3.08326,-11.39833 0.49362,-16.65476 -0.89974,-1.8263 -1.56311,-2.70333 -3.51713,-4.65001 -2.16259,-2.15446 -2.59097,-2.45808 -4.19973,-2.97656 -3.94744,-1.2722 -7.54779,-0.35271 -10.64147,2.7177 -1.85216,1.83825 -3.35068,4.51305 -3.86077,6.89138 -0.80353,3.74652 -0.1587,8.7308 1.60863,12.43389 2.51813,5.27627 8.52501,8.54254 13.33149,7.24908 z m 46.46508,-3.55955 c 2.69272,-0.55989 5.02177,-1.9063 7.27604,-4.20622 3.29902,-3.36582 4.6495,-6.33052 4.83564,-10.61559 0.19842,-4.56791 -1.2252,-8.4513 -4.28346,-11.68451 -1.93969,-2.05068 -3.69075,-3.18767 -6.50841,-4.22604 -1.71637,-0.63251 -2.35271,-0.72759 -4.75939,-0.71112 -1.75814,0.012 -3.40955,0.18907 -4.49792,0.48218 -5.42114,1.46001 -10.00013,5.88783 -11.3771,11.00149 -0.49053,1.82167 -0.40851,7.00948 0.13593,8.59889 1.2968,3.78573 3.46236,6.97878 5.84478,8.61793 4.15077,2.8558 8.49416,3.7493 13.33389,2.74299 z M 5.27022,295.37668 v -4.7625 h 4.7625 4.7625 v 4.7625 4.7625 h -4.7625 -4.7625 z m 120.82979,-7.0819 c -0.30286,-1.46788 -1.63965,-3.12592 -3.11168,-3.85946 -1.34702,-0.67125 -1.58429,-0.70031 -5.719,-0.70031 h -4.31368 v -1.00274 c 0,-1.42151 0.68902,-3.88743 1.52554,-5.45974 0.91867,-1.72672 4.04359,-4.85164 5.77031,-5.77031 1.93267,-1.02825 4.12802,-1.52554 6.73464,-1.52554 4.07658,0 7.1328,1.32958 9.98325,4.34313 0.98073,1.03684 2.10664,2.48701 2.50204,3.2226 0.80879,1.50466 1.53006,4.01353 1.53006,5.32215 v 0.87045 l -4.82865,0.003 c -4.548,0.002 -4.90846,0.0397 -6.20194,0.64198 -1.47889,0.68856 -2.82911,2.24331 -3.12732,3.60106 -0.23092,1.05136 -0.56255,1.19147 -0.74357,0.31414 z"
         style="fill:url(#linearGradient7107);fill-opacity:1;stroke-width:0.26458335"
         sodipodi:nodetypes="ccsccccccccssscscccccscccsccsssccsccssccscccccccccccccccccccsccccccccccccccscssccccccscccscsccsscscsssscsccccssscccsccscscccccccccccccccccccccccccccccccccccccccccccccccccccccccccsccccccccscccccccccccscccsccccccccccscsccccsccccccccscsccccsccsccssccccccccscccccccsccccccscsccssccccccccscccccccccccscsscsccscccccc" />
    </g>
  </g>
</svg>
