<?xml version="1.0" encoding="UTF-8" standalone="no"?>
<!-- Created with Inkscape (http://www.inkscape.org/) -->

<svg
   xmlns:dc="http://purl.org/dc/elements/1.1/"
   xmlns:cc="http://creativecommons.org/ns#"
   xmlns:rdf="http://www.w3.org/1999/02/22-rdf-syntax-ns#"
   xmlns:svg="http://www.w3.org/2000/svg"
   xmlns="http://www.w3.org/2000/svg"
   xmlns:sodipodi="http://sodipodi.sourceforge.net/DTD/sodipodi-0.dtd"
   xmlns:inkscape="http://www.inkscape.org/namespaces/inkscape"
   width="37.981018mm"
   height="47.002747mm"
   viewBox="0 0 134.5784 166.54516"
   id="svg4852"
   version="1.1"
   inkscape:version="0.91 r13725"
   sodipodi:docname="love-logo-wale-compact.svg">
  <defs
     id="defs4854" />
  <sodipodi:namedview
     id="base"
     pagecolor="#ffffff"
     bordercolor="#666666"
     borderopacity="1.0"
     inkscape:pageopacity="0.0"
     inkscape:pageshadow="2"
     inkscape:zoom="1.979899"
     inkscape:cx="169.03587"
     inkscape:cy="35.100575"
     inkscape:document-units="px"
     inkscape:current-layer="layer1"
     showgrid="false"
     fit-margin-top="0"
     fit-margin-left="0"
     fit-margin-right="0"
     fit-margin-bottom="0"
     inkscape:window-width="1118"
     inkscape:window-height="887"
     inkscape:window-x="2080"
     inkscape:window-y="22"
     inkscape:window-maximized="0"
     showguides="true"
     inkscape:guide-bbox="true" />
  <metadata
     id="metadata4857">
    <rdf:RDF>
      <cc:Work
         rdf:about="">
        <dc:format>image/svg+xml</dc:format>
        <dc:type
           rdf:resource="http://purl.org/dc/dcmitype/StillImage" />
        <dc:title></dc:title>
      </cc:Work>
    </rdf:RDF>
  </metadata>
  <g
     inkscape:label="Layer 1"
     inkscape:groupmode="layer"
     id="layer1"
     transform="translate(439.45411,1132.8499)">
    <path
       style="fill:#25aae1;fill-opacity:1;stroke:#25aae1;stroke-opacity:1"
       d="m -305.3757,-1020.453 c 0,29.62908 -24.90894,53.64822 -55.63567,53.64822 -21.67544,0 -40.01595,-9.66537 -48.94036,-25.76064 -1.57218,-3.25311 -4.02844,-7.45748 -5.80632,-10.18628 -1.58683,-2.4355 -5.86519,-8.2059 -8.44139,-2.1888 -3.38846,7.91429 -7.22816,12.47913 -8.24065,7.38721 -0.21472,-1.07984 -0.72672,-23.27791 -0.62878,-24.34801 0.53222,-5.815 3.51187,3.507 7.84063,5.7421 2.44455,1.9518 8.89093,0.8106 9.75986,-5.4068 2.83008,-27.4898 25.71073,-52.5353 54.457,-52.5353 30.72673,0 55.63567,24.0192 55.63568,53.6483 z"
       id="path3713"
       inkscape:connector-curvature="0"
       sodipodi:nodetypes="sscssssccss" />
    <ellipse
       style="fill:#ee3897;fill-opacity:1;stroke:#ee3897;stroke-opacity:1"
       id="path3730"
       cx="-378.99271"
       cy="-1007.7316"
       rx="6.1429901"
       ry="5.9662137" />
    <ellipse
       style="fill:#ee3897;fill-opacity:1;stroke:#ee3897;stroke-opacity:1"
       id="path3730-2"
       cx="-318.84442"
       cy="-1008.041"
       rx="6.1429901"
       ry="5.9662137" />
    <ellipse
       style="fill:#000000;fill-opacity:0.62166473;stroke:#000000;stroke-width:0.29480815"
       id="path3730-2-2"
       cx="-314.24826"
       cy="-1020.4516"
       rx="1.8110036"
       ry="1.7588885" />
    <ellipse
       style="fill:#000000;fill-opacity:0.62166473;stroke:#000000;stroke-width:0.29480815"
       id="path3730-2-2-8"
       cx="-381.33502"
       cy="-1019.7966"
       rx="1.8110036"
       ry="1.7588885" />
    <path
       style="fill:none;fill-rule:evenodd;stroke:#000000;stroke-width:2;stroke-linecap:butt;stroke-linejoin:miter;stroke-miterlimit:4;stroke-dasharray:none;stroke-opacity:1"
       d="m -352.16686,-1014.4049 c -0.23324,7.302 6.47652,6.7824 6.36396,0"
       id="path3777"
       inkscape:connector-curvature="0"
       sodipodi:nodetypes="cc" />
    <path
       style="fill:#ee3897;fill-opacity:1;fill-rule:evenodd;stroke:#ee3897;stroke-width:0.61756241px;stroke-linecap:butt;stroke-linejoin:miter;stroke-opacity:1"
       d="m -438.49965,-1070.3547 c 0.73623,3.084 6.49223,13.3261 7.17562,13.3261 0.6834,0 8.60735,-5.602 11.61768,-13.8387 0.77292,-2.1148 0.22894,-4.9316 -3.40019,-6.6603 -3.77235,-1.797 -6.16731,4.781 -6.16731,4.781 -0.61623,-2.5734 -2.29129,-10.1322 -8.26145,-4.8331 -2.2832,2.0265 -1.62398,4.4618 -0.96435,7.225 z"
       id="path3696-9-9"
       inkscape:connector-curvature="0"
       sodipodi:nodetypes="sssscss" />
    <g
       id="g3529"
       transform="matrix(0.9933081,0,0,0.9933081,10.014172,-19.175525)">
      <path
         id="circle3359-3-1-7"
         d="m -396.03955,-951.23331 a 3.5919835,3.5919835 0 0 1 -3.97666,3.16083 3.5919835,3.5919835 0 0 1 -3.16083,-3.97667 3.5919835,3.5919835 0 0 1 3.97667,-3.16082 3.5919835,3.5919835 0 0 1 3.16082,3.97666 z"
         style="fill:#ea316e;fill-opacity:1;stroke:#ea316e;stroke-width:0.35919836;stroke-opacity:1"
         inkscape:connector-curvature="0" />
      <path
         id="circle3361-5-2-5"
         d="m -386.98518,-950.31948 a 3.5919835,3.5919835 0 0 1 -3.97666,3.16083 3.5919835,3.5919835 0 0 1 -3.16083,-3.97667 3.5919835,3.5919835 0 0 1 3.97667,-3.16083 3.5919835,3.5919835 0 0 1 3.16082,3.97667 z"
         style="fill:#ea316e;fill-opacity:1;stroke:#ea316e;stroke-width:0.35919836;stroke-opacity:1"
         inkscape:connector-curvature="0" />
      <path
         style="fill:#ea316e;fill-opacity:1;stroke:#ea316e;stroke-width:0.35919836;stroke-opacity:1"
         inkscape:connector-curvature="0"
         d="m -395.87021,-945.946 c -5.73837,-0.59734 -11.19677,1.3218 -14.8555,5.86353 -3.23146,4.01102 -4.387,9.56266 -3.57697,14.58698 0.85902,5.32638 4.24271,9.81406 9.14027,12.05827 5.3352,2.44499 11.92785,1.97041 16.78076,-1.2938 5.6295,-3.78609 8.00448,-11.26056 6.97529,-17.75824 -1.18157,-7.46089 -7.11211,-12.54157 -14.46385,-13.45674 -2.29955,-0.28634 -2.70533,3.28265 -0.40792,3.56875 5.21829,0.64961 9.58491,3.79699 11.01043,8.99398 1.27696,4.65577 0.20674,9.80574 -2.82496,13.55253 -3.45649,4.27164 -9.43259,5.20065 -14.46706,3.55323 -4.90444,-1.60507 -7.81646,-5.95243 -8.35147,-10.95363 -0.41498,-3.88154 0.80769,-7.90127 3.24664,-10.92838 2.76884,-3.43664 7.12223,-4.66175 11.38642,-4.21773 2.30271,0.23971 2.71312,-3.32875 0.40792,-3.56875 l 0,0 z"
         id="path3372-0-8-3" />
      <path
         style="fill:#ea316e;fill-opacity:1;stroke:#ea316e;stroke-width:0.35919836;stroke-opacity:1"
         inkscape:connector-curvature="0"
         d="m -379.16813,-941.31669 c 2.53435,8.14806 4.86305,16.46314 8.20329,24.32948 1.49285,3.51667 3.60107,8.32675 7.80084,9.13507 4.09258,0.78776 7.67206,-3.79448 9.83962,-6.53808 5.46918,-6.92231 9.8468,-14.78031 14.36741,-22.32985 1.18048,-1.97102 -1.68716,-4.1383 -2.87573,-2.15338 -4.28606,7.15805 -8.49419,14.45046 -13.47225,21.15956 -1.35431,1.82497 -2.79027,3.64314 -4.55008,5.09675 -0.61609,0.50948 -1.00712,0.76125 -1.66228,1.0432 -0.45667,0.19654 -0.77191,0.22161 -1.23913,0.15302 -0.20562,-0.0419 -0.19675,-0.0373 0.0274,0.0129 -0.1485,-0.0419 -0.29083,-0.10301 -0.43249,-0.16368 -0.0569,-0.0242 -0.25693,-0.13385 -0.58094,-0.38311 -0.53302,-0.41017 -0.96889,-0.98711 -1.44799,-1.66661 -1.31464,-1.8654 -2.19585,-4.06557 -3.04884,-6.16779 -3.03054,-7.46977 -5.2505,-15.2876 -7.64179,-22.97606 -0.6865,-2.20829 -3.96841,-0.74175 -3.28709,1.44859 l 0,0 z"
         id="path3380-0-3-5" />
      <path
         style="fill:#ea316e;fill-opacity:1;stroke:#ea316e;stroke-width:0.35919836;stroke-opacity:1"
         inkscape:connector-curvature="0"
         d="m -324.42704,-913.49537 c 5.90629,-0.68825 13.90635,-2.84507 15.35314,-9.60675 1.06355,-4.97141 -2.42563,-9.6559 -6.48801,-12.0964 -5.89938,-3.5442 -13.35126,-3.19097 -18.67421,1.24694 -5.25294,4.37902 -7.6563,12.08597 -5.66848,18.63574 1.25041,4.11948 3.69625,7.72808 7.57027,9.76057 3.48176,1.82677 7.45356,2.23521 11.32804,2.26158 2.29111,0.0153 2.72283,-3.55288 0.40791,-3.56875 -3.44639,-0.0233 -6.88892,-0.30513 -10.02941,-1.83439 -3.49807,-1.70319 -5.54198,-5.49434 -6.21368,-9.18902 -1.17152,-6.4449 2.91856,-13.88746 9.32932,-15.74077 5.1761,-1.49587 11.75905,0.8788 14.27757,5.79362 2.69207,5.25318 -2.45133,8.70546 -6.98078,9.93684 -1.5593,0.42373 -3.16491,0.66429 -4.76729,0.85134 -2.30034,0.26781 -1.7433,3.81742 0.55561,3.54945 l 0,0 z"
         id="path3391-9-0-6" />
      <path
         d="m -438.96662,-949.79141 c -3.8849,8.05134 -5.55972,18.08273 -0.69861,26.11135 4.46031,7.36638 13.0365,9.83837 21.20823,8.71636 2.29343,-0.31487 1.7411,-3.86467 -0.55522,-3.54977 -6.86374,0.94216 -14.14689,-1.00639 -17.79122,-7.33517 -4.0461,-7.02691 -2.15334,-15.71342 1.16974,-22.60084 1.00917,-2.09184 -2.33285,-3.4142 -3.33292,-1.34193 l 0,0 z"
         id="path3401-7-4-2"
         inkscape:connector-curvature="0"
         style="fill:#ea316e;fill-opacity:1;stroke:#ea316e;stroke-width:0.35919836;stroke-opacity:1" />
    </g>
  </g>
</svg>
