<?xml version="1.0" encoding="UTF-8" standalone="no"?>
<!-- Created with Inkscape (http://www.inkscape.org/) -->

<svg
   xmlns:dc="http://purl.org/dc/elements/1.1/"
   xmlns:cc="http://creativecommons.org/ns#"
   xmlns:rdf="http://www.w3.org/1999/02/22-rdf-syntax-ns#"
   xmlns:svg="http://www.w3.org/2000/svg"
   xmlns="http://www.w3.org/2000/svg"
   xmlns:sodipodi="http://sodipodi.sourceforge.net/DTD/sodipodi-0.dtd"
   xmlns:inkscape="http://www.inkscape.org/namespaces/inkscape"
   width="100.80756mm"
   height="73.32383mm"
   viewBox="0 0 357.19213 259.80884"
   id="svg4852"
   version="1.1"
   inkscape:version="0.91 r13725"
   sodipodi:docname="love-logo-wale.svg">
  <defs
     id="defs4854" />
  <sodipodi:namedview
     id="base"
     pagecolor="#ffffff"
     bordercolor="#666666"
     borderopacity="1.0"
     inkscape:pageopacity="0.0"
     inkscape:pageshadow="2"
     inkscape:zoom="0.35"
     inkscape:cx="573.59606"
     inkscape:cy="-552.9527"
     inkscape:document-units="px"
     inkscape:current-layer="layer1"
     showgrid="false"
     fit-margin-top="0"
     fit-margin-left="0"
     fit-margin-right="0"
     fit-margin-bottom="0"
     inkscape:window-width="2078"
     inkscape:window-height="1776"
     inkscape:window-x="0"
     inkscape:window-y="22"
     inkscape:window-maximized="0" />
  <metadata
     id="metadata4857">
    <rdf:RDF>
      <cc:Work
         rdf:about="">
        <dc:format>image/svg+xml</dc:format>
        <dc:type
           rdf:resource="http://purl.org/dc/dcmitype/StillImage" />
        <dc:title></dc:title>
      </cc:Work>
    </rdf:RDF>
  </metadata>
  <g
     inkscape:label="Layer 1"
     inkscape:groupmode="layer"
     id="layer1"
     transform="translate(441.45321,1226.1136)">
    <path
       style="fill:#ea316e;fill-opacity:1;stroke:#ea316e;stroke-opacity:1"
       d="m -320.12724,-1225.5597 234.451083,28.4189 c 1.92306,16.3818 1.87021,35.7276 -10.77412,73.9606 -33.033053,0.5062 -103.848953,-13.0108 -134.439073,-17.0042 l -48.8538,30.0761 15.80248,-35.3435 c -8.87474,1.5039 -44.13211,-5.0077 -63.36424,-9.7438 -3.67738,-25.662 3.36012,-47.4276 7.17767,-70.3641 z"
       id="rect3497"
       inkscape:connector-curvature="0"
       sodipodi:nodetypes="cccccccc" />
    <path
       style="fill:#ffffff;fill-rule:evenodd;stroke:#ffffff;stroke-width:1px;stroke-linecap:butt;stroke-linejoin:miter;stroke-opacity:1"
       d="m -142.98842,-1167.2358 c 1.19215,4.9939 10.51267,21.5786 11.61927,21.5786 1.1066,0 13.93761,-9.0711 18.81215,-22.4085 1.25156,-3.4245 0.37071,-7.9856 -5.50582,-10.7849 -6.10845,-2.9098 -9.98654,7.7417 -9.98654,7.7417 -0.99785,-4.167 -3.71021,-16.4067 -13.37752,-7.8261 -3.69711,3.2815 -2.62965,7.2249 -1.56154,11.6992 z"
       id="path3696-9"
       inkscape:connector-curvature="0"
       sodipodi:nodetypes="sssscss" />
    <path
       style="fill:#25aae1;fill-opacity:1;stroke:#25aae1;stroke-opacity:1"
       d="m -305.3757,-1020.453 c 0,29.62908 -24.90894,53.64822 -55.63567,53.64822 -21.67544,0 -40.01595,-9.66537 -48.94036,-25.76064 -1.57218,-3.25311 -4.02844,-7.45748 -5.80632,-10.18628 -1.58683,-2.4355 -5.86519,-8.2059 -8.44139,-2.1888 -3.38846,7.91429 -7.22816,12.47913 -8.24065,7.38721 -0.21472,-1.07984 -0.72672,-23.27791 -0.62878,-24.34801 0.53222,-5.815 3.51187,3.507 7.84063,5.7421 2.44455,1.9518 8.89093,0.8106 9.75986,-5.4068 2.83008,-27.4898 25.71073,-52.5353 54.457,-52.5353 30.72673,0 55.63567,24.0192 55.63568,53.6483 z"
       id="path3713"
       inkscape:connector-curvature="0"
       sodipodi:nodetypes="sscssssccss" />
    <ellipse
       style="fill:#ee3897;fill-opacity:1;stroke:#ee3897;stroke-opacity:1"
       id="path3730"
       cx="-378.99271"
       cy="-1007.7316"
       rx="6.1429901"
       ry="5.9662137" />
    <ellipse
       style="fill:#ee3897;fill-opacity:1;stroke:#ee3897;stroke-opacity:1"
       id="path3730-2"
       cx="-318.84442"
       cy="-1008.041"
       rx="6.1429901"
       ry="5.9662137" />
    <ellipse
       style="fill:#000000;fill-opacity:0.62166473;stroke:#000000;stroke-width:0.29480815"
       id="path3730-2-2"
       cx="-314.24826"
       cy="-1020.4516"
       rx="1.8110036"
       ry="1.7588885" />
    <ellipse
       style="fill:#000000;fill-opacity:0.62166473;stroke:#000000;stroke-width:0.29480815"
       id="path3730-2-2-8"
       cx="-381.33502"
       cy="-1019.7966"
       rx="1.8110036"
       ry="1.7588885" />
    <path
       style="fill:none;fill-rule:evenodd;stroke:#000000;stroke-width:2;stroke-linecap:butt;stroke-linejoin:miter;stroke-miterlimit:4;stroke-dasharray:none;stroke-opacity:1"
       d="m -352.16686,-1014.4049 c -0.23324,7.302 6.47652,6.7824 6.36396,0"
       id="path3777"
       inkscape:connector-curvature="0"
       sodipodi:nodetypes="cc" />
    <path
       style="fill:#ee3897;fill-opacity:1;fill-rule:evenodd;stroke:#ee3897;stroke-width:0.61756241px;stroke-linecap:butt;stroke-linejoin:miter;stroke-opacity:1"
       d="m -440.51996,-1088.0324 c 0.73623,3.084 6.49223,13.3261 7.17562,13.3261 0.6834,0 8.60735,-5.602 11.61768,-13.8387 0.77292,-2.1148 0.22894,-4.9316 -3.40019,-6.6603 -3.77235,-1.797 -6.16731,4.781 -6.16731,4.781 -0.61623,-2.5734 -2.29129,-10.1322 -8.26145,-4.8331 -2.2832,2.0265 -1.62398,4.4618 -0.96435,7.225 z"
       id="path3696-9-9"
       inkscape:connector-curvature="0"
       sodipodi:nodetypes="sssscss" />
    <g
       id="g4814"
       transform="translate(-667.18293,-774.1496)">
      <path
         id="circle3359-3-1"
         d="m 417.43541,-427.65864 a 3.5919835,3.5919835 0 0 1 -3.97666,3.16083 3.5919835,3.5919835 0 0 1 -3.16083,-3.97667 3.5919835,3.5919835 0 0 1 3.97667,-3.16082 3.5919835,3.5919835 0 0 1 3.16082,3.97666 z"
         style="fill:#ffffff;stroke:#ffffff;stroke-width:0.35919836"
         inkscape:connector-curvature="0" />
      <path
         id="circle3361-5-2"
         d="m 426.48978,-426.74481 a 3.5919835,3.5919835 0 0 1 -3.97666,3.16083 3.5919835,3.5919835 0 0 1 -3.16083,-3.97667 3.5919835,3.5919835 0 0 1 3.97667,-3.16083 3.5919835,3.5919835 0 0 1 3.16082,3.97667 z"
         style="fill:#ffffff;stroke:#ffffff;stroke-width:0.35919836"
         inkscape:connector-curvature="0" />
      <path
         style="fill:#ffffff;stroke:#ffffff;stroke-width:0.35919836"
         inkscape:connector-curvature="0"
         d="m 417.60475,-422.37133 c -5.73837,-0.59734 -11.19677,1.3218 -14.8555,5.86353 -3.23146,4.01102 -4.387,9.56266 -3.57697,14.58698 0.85902,5.32638 4.24271,9.81406 9.14027,12.05827 5.3352,2.44499 11.92785,1.97041 16.78076,-1.2938 5.6295,-3.78609 8.00448,-11.26056 6.97529,-17.75824 -1.18157,-7.46089 -7.11211,-12.54157 -14.46385,-13.45674 -2.29955,-0.28634 -2.70533,3.28265 -0.40792,3.56875 5.21829,0.64961 9.58491,3.79699 11.01043,8.99398 1.27696,4.65577 0.20674,9.80574 -2.82496,13.55253 -3.45649,4.27164 -9.43259,5.20065 -14.46706,3.55323 -4.90444,-1.60507 -7.81646,-5.95243 -8.35147,-10.95363 -0.41498,-3.88154 0.80769,-7.90127 3.24664,-10.92838 2.76884,-3.43664 7.12223,-4.66175 11.38642,-4.21773 2.30271,0.23971 2.71312,-3.32875 0.40792,-3.56875 l 0,0 z"
         id="path3372-0-8" />
      <path
         style="fill:#ffffff;stroke:#ffffff;stroke-width:0.35919836"
         inkscape:connector-curvature="0"
         d="m 434.30683,-417.74202 c 2.53435,8.14806 4.86305,16.46314 8.20329,24.32948 1.49285,3.51667 3.60107,8.32675 7.80084,9.13507 4.09258,0.78776 7.67206,-3.79448 9.83962,-6.53808 5.46918,-6.92231 9.8468,-14.78031 14.36741,-22.32985 1.18048,-1.97102 -1.68716,-4.1383 -2.87573,-2.15338 -4.28606,7.15805 -8.49419,14.45046 -13.47225,21.15956 -1.35431,1.82497 -2.79027,3.64314 -4.55008,5.09675 -0.61609,0.50948 -1.00712,0.76125 -1.66228,1.0432 -0.45667,0.19654 -0.77191,0.22161 -1.23913,0.15302 -0.20562,-0.0419 -0.19675,-0.0373 0.0274,0.0129 -0.1485,-0.0419 -0.29083,-0.10301 -0.43249,-0.16368 -0.0569,-0.0242 -0.25693,-0.13385 -0.58094,-0.38311 -0.53302,-0.41017 -0.96889,-0.98711 -1.44799,-1.66661 -1.31464,-1.8654 -2.19585,-4.06557 -3.04884,-6.16779 -3.03054,-7.46977 -5.2505,-15.2876 -7.64179,-22.97606 -0.6865,-2.20829 -3.96841,-0.74175 -3.28709,1.44859 l 0,0 z"
         id="path3380-0-3" />
      <path
         style="fill:#ffffff;stroke:#ffffff;stroke-width:0.35919836"
         inkscape:connector-curvature="0"
         d="m 489.04792,-389.9207 c 5.90629,-0.68825 13.90635,-2.84507 15.35314,-9.60675 1.06355,-4.97141 -2.42563,-9.6559 -6.48801,-12.0964 -5.89938,-3.5442 -13.35126,-3.19097 -18.67421,1.24694 -5.25294,4.37902 -7.6563,12.08597 -5.66848,18.63574 1.25041,4.11948 3.69625,7.72808 7.57027,9.76057 3.48176,1.82677 7.45356,2.23521 11.32804,2.26158 2.29111,0.0153 2.72283,-3.55288 0.40791,-3.56875 -3.44639,-0.0233 -6.88892,-0.30513 -10.02941,-1.83439 -3.49807,-1.70319 -5.54198,-5.49434 -6.21368,-9.18902 -1.17152,-6.4449 2.91856,-13.88746 9.32932,-15.74077 5.1761,-1.49587 11.75905,0.8788 14.27757,5.79362 2.69207,5.25318 -2.45133,8.70546 -6.98078,9.93684 -1.5593,0.42373 -3.16491,0.66429 -4.76729,0.85134 -2.30034,0.26781 -1.7433,3.81742 0.55561,3.54945 l 0,0 z"
         id="path3391-9-0" />
      <g
         transform="matrix(0.3568746,0.04079186,-0.04079186,0.3568746,373.50498,-436.41651)"
         id="g3395-0-1"
         style="stroke:#ffffff">
        <g
           id="g3397-2-5"
           style="stroke:#ffffff">
          <path
             d="m 10.822,29.224 c -19.854,55.69 12.757,96.622 61.59,83.698"
             id="path3399-3-5"
             inkscape:connector-curvature="0"
             style="fill:none;stroke:#ffffff" />
          <path
             d="m 6,27.895 c -8.2,23.498 -9.661,51.774 6.323,72.444 14.666,18.965 39.169,23.091 61.417,17.404 6.244,-1.596 3.594,-11.24 -2.658,-9.643 C 52.395,112.876 31.634,109.789 19.553,93.436 6.14,75.279 8.629,50.654 15.643,30.553 17.773,24.448 8.111,21.847 6,27.895 l 0,0 z"
             id="path3401-7-4"
             inkscape:connector-curvature="0"
             style="fill:#ffffff;stroke:#ffffff" />
        </g>
      </g>
    </g>
  </g>
</svg>
