<?xml version="1.0" encoding="UTF-8" standalone="no"?>
<!-- Created with Inkscape (http://www.inkscape.org/) -->

<svg
   xmlns:dc="http://purl.org/dc/elements/1.1/"
   xmlns:cc="http://creativecommons.org/ns#"
   xmlns:rdf="http://www.w3.org/1999/02/22-rdf-syntax-ns#"
   xmlns:svg="http://www.w3.org/2000/svg"
   xmlns="http://www.w3.org/2000/svg"
   xmlns:sodipodi="http://sodipodi.sourceforge.net/DTD/sodipodi-0.dtd"
   xmlns:inkscape="http://www.inkscape.org/namespaces/inkscape"
   width="120.1875"
   height="74.987289"
   id="svg3869"
   version="1.1"
   inkscape:version="0.48.5 r10040"
   sodipodi:docname="makey.svg">
  <defs
     id="defs3871" />
  <sodipodi:namedview
     id="base"
     pagecolor="#ffffff"
     bordercolor="#666666"
     borderopacity="1.0"
     inkscape:pageopacity="0.0"
     inkscape:pageshadow="2"
     inkscape:zoom="2.8284271"
     inkscape:cx="69.774949"
     inkscape:cy="42.966834"
     inkscape:document-units="px"
     inkscape:current-layer="layer1"
     showgrid="false"
     inkscape:window-width="1364"
     inkscape:window-height="737"
     inkscape:window-x="0"
     inkscape:window-y="0"
     inkscape:window-maximized="0"
     fit-margin-top="0"
     fit-margin-left="0"
     fit-margin-right="0"
     fit-margin-bottom="0" />
  <metadata
     id="metadata3874">
    <rdf:RDF>
      <cc:Work
         rdf:about="">
        <dc:format>image/svg+xml</dc:format>
        <dc:type
           rdf:resource="http://purl.org/dc/dcmitype/StillImage" />
        <dc:title></dc:title>
      </cc:Work>
    </rdf:RDF>
  </metadata>
  <g
     inkscape:label="Layer 1"
     inkscape:groupmode="layer"
     id="layer1"
     transform="translate(-284.84375,-282.75)">
    <g
       id="g4383">
      <path
         sodipodi:nodetypes="ccccccccccc"
         inkscape:connector-curvature="0"
         id="path4087-1"
         d="m 377.17329,306.99713 5.33023,3.01955 c -4.27296,7.32879 -16.39735,5.5431 -17.2981,-1.10571 l -0.37526,-6.39608 c -0.21669,-3.31134 5.4185,-8.7372 8.89069,-9.00082 l 3.44337,-0.0523 c 2.64795,0.14629 5.78835,3.39431 6.12558,5.62597 l 0.0699,5.15629 c -3.67331,0.77013 -8.52499,0.5149 -12.99947,-0.16526 l -0.50836,2.56121 c 0.002,2.89181 5.95032,2.46525 7.32142,0.35715 z"
         style="fill:#808080;stroke:#000000;stroke-width:1px;stroke-linecap:butt;stroke-linejoin:miter;stroke-opacity:1" />
      <path
         sodipodi:nodetypes="cccccccccccccc"
         inkscape:connector-curvature="0"
         id="path4081-3"
         d="m 292.80824,308.66962 6.03572,-24.39286 7.5,13.03571 12.19643,-13.60714 3.18849,4.48043 -5.17774,24.13367 -2.9929,0.56447 -2.73213,-5.26785 0.42857,-5.05358 -4.66072,3.85714 -3.80357,-4.21428 -2.16235,8.55504 -6.67694,0.24853 z"
         style="fill:#4d4d4d;stroke:#000000;stroke-width:1px;stroke-linecap:butt;stroke-linejoin:miter;stroke-opacity:1" />
      <path
         sodipodi:nodetypes="ccccccccccc"
         inkscape:connector-curvature="0"
         id="path4081"
         d="m 293.07609,307.49105 5.53572,-23.39286 7.375,12.66071 12.44643,-12.48214 -2.98215,21.92857 -3.98213,1.10715 1.17857,-11.67858 -7.78572,8.10714 -4.17857,-6.46428 -3.33929,11.67857 z"
         style="fill:#ffdd55;stroke:#1a1a1a;stroke-width:1px;stroke-linecap:butt;stroke-linejoin:miter;stroke-opacity:1" />
      <path
         sodipodi:nodetypes="ccccccccc"
         inkscape:connector-curvature="0"
         id="path4083-6"
         d="m 339.33348,292.22096 -9.28125,0.1875 c -3.18221,0.38374 -8.61495,6.14003 -8.40625,9.4375 l 0,4.71875 c -1.0746,4.69697 7.59078,10.90328 10.71875,-0.59375 l -0.0625,6.21875 5.5,-0.125 4.28762,-16.19788 z"
         style="fill:#666666;stroke:#000000;stroke-width:1px;stroke-linecap:butt;stroke-linejoin:miter;stroke-opacity:1" />
      <path
         sodipodi:nodetypes="ccccccccscccs"
         inkscape:connector-curvature="0"
         id="path4083"
         d="m 339.33056,292.1244 -9.28125,0.1875 c -3.18221,0.38374 -8.61495,6.14003 -8.40625,9.4375 l -0.25,5.09375 c 0.5504,3.19697 8.84078,3.90328 10.96875,-0.96875 l -0.1875,3.21875 2.875,0 z m -8.53125,4.6875 c 0.56616,-0.0301 1.17647,0.0326 1.8125,0.15625 0.46435,3.2442 -0.5508,5.66468 -1.75,7.5 -1.82147,1.12439 -5.67347,-0.58891 -5,-3.375 0.73237,-2.59776 2.48416,-4.15067 4.9375,-4.28125 z"
         style="fill:#ffdd55;stroke:#000000;stroke-width:1px;stroke-linecap:butt;stroke-linejoin:miter;stroke-opacity:1" />
      <path
         sodipodi:nodetypes="cccccccccccc"
         inkscape:connector-curvature="0"
         id="path4085-2"
         d="m 346.43324,284.93747 -3.53572,26.35715 6.66072,2.07142 2.21429,-9.91071 8.30357,10.14286 4.08928,-3.44643 -5.42857,-9.16072 9.58929,-8.98213 -5.875,-4.80358 -8.80357,4.57143 -0.51786,-6.35714 z"
         style="fill:#808080;stroke:#000000;stroke-width:1px;stroke-linecap:butt;stroke-linejoin:miter;stroke-opacity:1" />
      <path
         sodipodi:nodetypes="cccccccccccc"
         inkscape:connector-curvature="0"
         id="path4085"
         d="m 347.54038,284.99104 -5.16072,26.35715 4.78572,-1.05358 2.33929,-10.66071 8.42857,11.01786 3.71428,-2.44643 -7.67857,-9.28572 10.71429,-9.10713 -2.5,-2.67858 -11.42857,8.57143 1.60714,-10.35714 z"
         style="fill:#ffdd55;stroke:#000000;stroke-width:1px;stroke-linecap:butt;stroke-linejoin:miter;stroke-opacity:1" />
      <path
         sodipodi:nodetypes="sccccccccccsccsc"
         inkscape:connector-curvature="0"
         id="path4087"
         d="m 376.92431,294.21815 -3.28125,0.0625 c -3.47219,0.26362 -9.02919,4.87616 -8.8125,8.1875 l -0.0938,3.3125 c 0.10526,5.05782 11.29399,7.1825 15.125,2.59375 l -2.6875,-1.40625 c -1.37111,2.1081 -7.3105,2.51681 -7.3125,-0.375 l -0.0625,-3.6875 c 4.97448,-0.14348 11.01419,-0.6042 11.4375,-2.15625 l -0.40625,-2.3125 c -0.33723,-1.61294 -2.05379,-4.16085 -3.90625,-4.21875 z m -1.875,2.375 c 0.86915,0.0714 1.49131,0.463 2.1875,2.125 l -6,0.875 c 0,0 1.90037,-3.15711 3.8125,-3 z"
         style="fill:#ffdd55;stroke:#000000;stroke-width:1px;stroke-linecap:butt;stroke-linejoin:miter;stroke-opacity:1" />
      <path
         sodipodi:nodetypes="ccccccccc"
         inkscape:connector-curvature="0"
         id="path4089-6"
         d="m 386.1101,297.6018 3.92858,-1.96428 3.02673,6.98942 5.36612,-6.63227 5.85516,3.99004 c -8.30502,9.9028 -9.59159,19.95179 -14.49307,22.78038 -2.61675,1.62683 -8.39615,0.64351 -5.51164,-3.94392 1.62917,-2.20704 3.78491,-3.99225 4.68526,-8.5408 -0.0998,-4.64248 -1.60682,-8.25434 -2.85714,-12.67857 z"
         style="fill:#808080;stroke:#000000;stroke-width:1px;stroke-linecap:butt;stroke-linejoin:miter;stroke-opacity:1" />
      <path
         sodipodi:nodetypes="ccccccccc"
         inkscape:connector-curvature="0"
         id="path4089"
         d="m 386.11181,297.49104 3.92858,-1.96428 2.14285,9.46429 6.25,-9.10714 2.76157,1.78033 c -8.03986,10.07958 -9.67998,20.04018 -14.58146,22.86877 -2.52482,1.09118 -3.37145,7.5e-4 -2.32966,-1.8226 1.62917,-2.20704 3.78491,-3.99225 4.68526,-8.5408 -0.0998,-4.64248 -1.60682,-8.25434 -2.85714,-12.67857 z"
         style="fill:#ffdd55;stroke:#000000;stroke-width:1px;stroke-linecap:butt;stroke-linejoin:miter;stroke-opacity:1" />
      <path
         sodipodi:nodetypes="ccccccccccc"
         inkscape:connector-curvature="0"
         id="path4087-1-2"
         d="m 372.18975,339.73604 5.48425,3.19535 c -4.39643,7.75549 -16.87114,5.86583 -17.79792,-1.17008 l -0.3861,-6.76847 c -0.22295,-3.50413 5.57506,-9.24589 9.14758,-9.52486 l 3.54286,-0.0554 c 2.72446,0.15481 5.9556,3.59193 6.30258,5.95353 l 0.0719,5.45649 c -3.77945,0.81497 -8.77132,0.54488 -13.37508,-0.17488 l -0.52305,2.71033 c 0.002,3.06017 6.12225,2.60878 7.53296,0.37794 z"
         style="fill:#808080;stroke:#000000;stroke-width:1.04345489px;stroke-linecap:butt;stroke-linejoin:miter;stroke-opacity:1" />
      <path
         sodipodi:nodetypes="cccccccccccccc"
         inkscape:connector-curvature="0"
         id="path4081-3-9"
         d="m 285.38703,341.50591 6.21012,-25.81305 7.7167,13.79467 12.54884,-14.39937 3.28062,4.74129 -5.32735,25.53876 -3.07937,0.59734 -2.81108,-5.57455 0.44096,-5.34781 -4.79539,4.08171 -3.91347,-4.45964 -2.22483,9.05312 -6.86987,0.263 z"
         style="fill:#4d4d4d;stroke:#000000;stroke-width:1.04345489px;stroke-linecap:butt;stroke-linejoin:miter;stroke-opacity:1" />
      <path
         sodipodi:nodetypes="ccccccccccc"
         inkscape:connector-curvature="0"
         id="path4081-6"
         d="m 285.66262,340.25872 5.69567,-24.75483 7.58809,13.39784 12.80607,-13.20887 -3.06832,23.20528 -4.09719,1.17161 1.21262,-12.35852 -8.01068,8.57915 -4.29931,-6.84064 -3.43578,12.35851 z"
         style="fill:#ffdd55;stroke:#1a1a1a;stroke-width:1.04345489px;stroke-linecap:butt;stroke-linejoin:miter;stroke-opacity:1" />
      <path
         sodipodi:nodetypes="ccccccccc"
         inkscape:connector-curvature="0"
         id="path4083-6-7"
         d="m 333.25659,324.09958 -9.54943,0.19842 c -3.27416,0.40608 -8.86387,6.49751 -8.64914,9.98696 l 0,4.99348 c -1.10565,4.97044 7.81011,11.53809 11.02846,-0.62831 l -0.0643,6.58081 5.65892,-0.13228 4.41151,-17.14094 z"
         style="fill:#666666;stroke:#000000;stroke-width:1.04345489px;stroke-linecap:butt;stroke-linejoin:miter;stroke-opacity:1" />
      <path
         sodipodi:nodetypes="ccccccccscccs"
         inkscape:connector-curvature="0"
         id="path4083-7"
         d="m 333.25358,323.9974 -9.54942,0.19842 c -3.27416,0.40608 -8.86388,6.49751 -8.64915,9.98696 l -0.25722,5.39032 c 0.5663,3.3831 9.09623,4.13053 11.28568,-1.02516 l -0.19291,3.40615 2.95807,0 z m -8.77775,4.96041 c 0.58252,-0.0319 1.21046,0.0345 1.86487,0.16535 0.47776,3.43308 -0.56672,5.99449 -1.80057,7.93666 -1.8741,1.18985 -5.8374,-0.6232 -5.14447,-3.5715 0.75353,-2.749 2.55594,-4.39232 5.08017,-4.53051 z"
         style="fill:#ffdd55;stroke:#000000;stroke-width:1.04345489px;stroke-linecap:butt;stroke-linejoin:miter;stroke-opacity:1" />
      <path
         sodipodi:nodetypes="cccccccccccc"
         inkscape:connector-curvature="0"
         id="path4085-2-0"
         d="m 340.56149,316.39204 -3.63788,27.8917 6.85317,2.19202 2.27828,-10.48773 8.54349,10.73339 4.20744,-3.64708 -5.58543,-9.69407 9.86637,-9.50508 -6.04475,-5.08326 -9.05795,4.83759 -0.53282,-6.72726 z"
         style="fill:#808080;stroke:#000000;stroke-width:1.04345489px;stroke-linecap:butt;stroke-linejoin:miter;stroke-opacity:1" />
      <path
         sodipodi:nodetypes="cccccccccccc"
         inkscape:connector-curvature="0"
         id="path4085-0"
         d="m 341.70062,316.44873 -5.30984,27.8917 4.924,-1.11493 2.40689,-11.28139 8.67211,11.65934 3.8216,-2.58887 -7.90044,-9.82634 11.02387,-9.63736 -2.57223,-2.83453 -11.7588,9.07047 1.65358,-10.96015 z"
         style="fill:#ffdd55;stroke:#000000;stroke-width:1.04345489000000002px;stroke-linecap:butt;stroke-linejoin:miter;stroke-opacity:1" />
      <path
         sodipodi:nodetypes="sccccccccccsccsc"
         inkscape:connector-curvature="0"
         id="path4087-6"
         d="m 371.93358,326.21305 -3.37606,0.0661 c -3.57252,0.27897 -9.29008,5.16006 -9.06713,8.66419 l -0.0965,3.50536 c 0.1083,5.35229 11.62032,7.60067 15.56203,2.74476 l -2.76516,-1.48813 c -1.41072,2.23084 -7.52173,2.66335 -7.52379,-0.39683 l -0.0643,-3.90219 c 5.11821,-0.15183 11.33244,-0.63938 11.76798,-2.28179 l -0.41799,-2.44714 c -0.34698,-1.70685 -2.11314,-4.4031 -4.01912,-4.46437 z m -1.92918,2.51328 c 0.89427,0.0755 1.5344,0.48995 2.25071,2.24872 l -6.17337,0.92594 c 0,0 1.95528,-3.34092 3.92266,-3.17466 z"
         style="fill:#ffdd55;stroke:#000000;stroke-width:1.04345489px;stroke-linecap:butt;stroke-linejoin:miter;stroke-opacity:1" />
      <path
         sodipodi:nodetypes="ccccccccc"
         inkscape:connector-curvature="0"
         id="path4089-6-4"
         d="m 381.38479,329.7937 4.04209,-2.07864 3.11419,7.39635 5.52117,-7.01841 6.02434,4.22235 c -8.54499,10.47935 -9.86873,21.11341 -14.91184,24.10668 -2.69236,1.72155 -8.63875,0.68098 -5.67089,-4.17354 1.67624,-2.33553 3.89427,-4.22468 4.82063,-9.03805 -0.10268,-4.91278 -1.65324,-8.73492 -2.93969,-13.41674 z"
         style="fill:#808080;stroke:#000000;stroke-width:1.04345489px;stroke-linecap:butt;stroke-linejoin:miter;stroke-opacity:1" />
      <path
         sodipodi:nodetypes="ccccccccc"
         inkscape:connector-curvature="0"
         id="path4089-8"
         d="m 381.38655,329.67649 4.04209,-2.07864 2.20477,10.01531 6.43059,-9.63737 2.84136,1.88399 c -8.27216,10.66642 -9.95967,21.20694 -15.00278,24.20022 -2.59777,1.15471 -3.46887,7.9e-4 -2.39697,-1.92872 1.67624,-2.33553 3.89427,-4.22468 4.82063,-9.03805 -0.10268,-4.91277 -1.65324,-8.73492 -2.93969,-13.41674 z"
         style="fill:#ffdd55;stroke:#000000;stroke-width:1.04345489px;stroke-linecap:butt;stroke-linejoin:miter;stroke-opacity:1" />
    </g>
  </g>
</svg>
