<?xml version="1.0" encoding="UTF-8" standalone="no"?>
<!-- Created with Inkscape (http://www.inkscape.org/) -->

<svg
   xmlns:dc="http://purl.org/dc/elements/1.1/"
   xmlns:cc="http://creativecommons.org/ns#"
   xmlns:rdf="http://www.w3.org/1999/02/22-rdf-syntax-ns#"
   xmlns:svg="http://www.w3.org/2000/svg"
   xmlns="http://www.w3.org/2000/svg"
   version="1.1"
   width="55"
   height="55"
   id="svg2"
   xml:space="preserve"><metadata
     id="metadata11"><rdf:RDF><cc:Work
         rdf:about=""><dc:format>image/svg+xml</dc:format><dc:type
           rdf:resource="http://purl.org/dc/dcmitype/StillImage" /><dc:title></dc:title></cc:Work></rdf:RDF></metadata><defs
     id="defs9" /><g
     transform="matrix(0.18046533,0,0,-0.18046533,-20.611012,28.072139)"
     id="g24-9-8" /><g
     transform="matrix(0.18046533,0,0,-0.18046533,-19.550745,14.61582)"
     id="g28-8-7" /><path
     d="m 3.029661,38.919492 c 0,0 0.4543519,-4.73836 1.1652543,-6.991526 C 4.7908459,30.039197 5.8614687,28.333573 6.7584746,26.567797 7.2779523,25.545194 7.7081322,24.460558 8.3898305,23.538136 13.450287,16.690716 26.334746,5.3601695 26.334746,5.3601695 l 2.097457,-0.9322034 18.877119,9.5550849 1.864407,1.631356 c 0,0 3.096531,6.255477 4.194915,9.322034 0.498397,1.391466 0.686481,3.270798 -0.233051,4.427966 -3.122453,3.929396 -9.004828,11.270595 -9.004828,11.270595 0,0 -6.298745,8.298365 -10.105341,12.03449 -0.578825,0.56811 -1.588191,1.02588 -2.330509,0.699152 C 22.072224,49.133256 3.029661,38.919492 3.029661,38.919492 z"
     id="path3063"
     style="fill:#808080;fill-opacity:1;stroke:#000000;stroke-width:1px;stroke-linecap:butt;stroke-linejoin:miter;stroke-opacity:1" /><path
     d="m 8.8559322,24.936441 c 2.6757708,2.855567 8.8609688,5.870867 8.8609688,5.870867 0,0 7.089648,4.943633 11.181404,5.082523 1.326694,0.04503 2.857899,-0.396481 3.728814,-1.398306 4.543109,-5.225999 9.603033,-10.89696 14.682203,-17.012711 0.400146,-0.48181 1.015334,-1.010592 0.932203,-1.631356 C 48.212365,15.62968 47.952011,15.512104 47.775424,15.381356 42.329076,11.348776 36.40548,7.4676589 29.830508,5.8262712 29.302915,5.6945618 28.554483,5.0724496 28.010698,5.0724496 c -0.699153,0 -1.357862,0.3236383 -1.909003,0.7538216 C 20.118954,10.495991 12.675826,16.008569 9.0889831,23.305085 8.846651,23.798048 8.480338,24.535609 8.8559322,24.936441 z"
     id="path3065"
     style="fill:#e0e0e0;fill-opacity:1;stroke:#000000;stroke-width:1px;stroke-linecap:butt;stroke-linejoin:miter;stroke-opacity:1" /><path
     d="m 29.131356,32.161017 c 0.618054,-0.10133 1.015334,-1.010592 0.932203,-1.631356 -0.116658,-0.871113 -1.402346,-1.116779 -1.864406,-1.864407 -0.387449,-0.626905 -0.51429,-1.384048 -0.699153,-2.097457 -0.317214,-1.224166 -1.335947,-2.18696 -1.452975,-3.446131 -0.107834,-1.160254 0.468955,-2.648548 0.753822,-3.778446 0.280401,-1.112182 0.993375,-2.07648 1.631356,-3.029661 0.614123,-0.917536 0.909834,-1.723519 1.62632,-2.563559 0.607038,-0.711718 1.714567,-1.26833 1.864407,-2.191686 0.09477,-0.583982 0.231399,-1.164362 -0.228015,-1.537128 -0.307593,-0.2495791 -0.769468,-0.2490696 -1.165254,-0.2330504 -1.695248,0.068614 -3.025803,0.9662434 -4.517157,1.7752164 -2.081275,1.12897 -3.651402,2.548237 -4.889031,4.566789 -0.837099,1.365295 -1.926936,2.779176 -2.013304,4.378334 -0.122645,2.270844 -0.128073,4.746612 0.932204,6.758474 0.538425,1.021654 1.524423,1.826649 2.563559,2.330509 0.850368,0.41233 1.862663,0.321582 2.79661,0.466101 0.542845,0.084 1.133038,0.0019 1.631356,0.233051 0.848605,0.393582 1.174347,2.015751 2.097458,1.864407 z"
     id="path3067"
     style="fill:#e1de00;fill-opacity:1;stroke:#000000;stroke-width:1px;stroke-linecap:butt;stroke-linejoin:miter;stroke-opacity:1" /><path
     d="m 29.131356,31.694915 1.631356,-1.165254"
     id="path3069"
     style="fill:none;stroke:#000000;stroke-width:1px;stroke-linecap:butt;stroke-linejoin:miter;stroke-opacity:1" /></svg>