<svg version="1.1" xmlns="http://www.w3.org/2000/svg" xmlns:xlink="http://www.w3.org/1999/xlink" width="31.37942" height="31.39725" viewBox="0,0,31.37942,31.39725"><g transform="translate(-223.50543,-164.39542)"><g data-paper-data="{&quot;isPaintingLayer&quot;:true}" fill="none" fill-rule="evenodd" stroke="none" stroke-width="1" stroke-linecap="butt" stroke-linejoin="miter" stroke-miterlimit="10" stroke-dasharray="" stroke-dashoffset="0" font-family="none" font-weight="none" font-size="none" text-anchor="none" style="mix-blend-mode: normal"><g data-paper-data="{&quot;origPos&quot;:null}"><path d="M252.91327,187.67336c-0.68633,1.65836 -1.80703,3.10103 -3.24414,4.17617c-0.25092,0.19268 -0.51082,0.38087 -0.77519,0.5601c-3.38889,2.6801 -7.73516,3.83963 -12.00871,3.20381c-4.31955,-0.37191 -8.32096,-2.43311 -10.59276,-6.60927c-3.84433,-5.55496 -3.69954,-12.94744 0.35938,-18.3476c4.05892,-5.40016 11.11975,-7.59434 17.52446,-5.44582c6.40471,2.14852 10.71391,8.1569 10.6951,14.91235c-0.00372,2.64184 -0.67744,5.23959 -1.95814,7.55025z" id="Shape" fill="#e6781e"/><g id="Group" fill="#824600"><path d="M239.60063,195.79268h-0.39432h-0.05377c-0.08514,-10.66893 -0.00449,-22.11306 0.06273,-31.32122h0.44809c-0.06722,9.20817 -0.14787,20.64333 -0.06273,31.32123z" id="Shape"/><path d="M254.88485,179.55852c0,0.15683 0,0.31814 0,0.47945h-31.31675c0,-0.16131 0,-0.31814 0,-0.47498z" id="Shape"/><path d="M249.31514,192.11837c-0.12995,0.0941 -0.25541,0.19268 -0.38984,0.2823c-4.59736,-4.62873 -5.5025,-12.65395 -3.90283,-18.63591c0.58736,-2.35268 1.77278,-4.51362 3.4413,-6.2732c0.12547,0.08962 0.25093,0.18819 0.37192,0.28229c-1.64334,1.71124 -2.80973,3.82312 -3.38305,6.12534c-2.02983,7.60403 0.3047,14.61657 3.8625,18.21919z" id="Shape"/><path d="M229.1199,192.49925c-0.12546,-0.10156 -0.24645,-0.20911 -0.36295,-0.32262c3.69223,-3.33376 6.26873,-10.03265 4.5884,-17.85624c-0.52756,-2.53137 -1.68147,-4.89004 -3.35617,-6.8602l0.3764,-0.26885c1.70077,2.02246 2.87387,4.43485 3.41442,7.02151c0.74949,3.60421 0.64051,7.33419 -0.31815,10.8885c-0.85584,3.10524 -2.34349,5.62349 -4.34195,7.39791z" id="Shape"/></g></g></g></g></svg>