<?xml version="1.0" encoding="UTF-8"?>
<!DOCTYPE svg PUBLIC "-//W3C//DTD SVG 1.1//EN" "http://www.w3.org/Graphics/SVG/1.1/DTD/svg11.dtd">
<svg version="1.1" xmlns="http://www.w3.org/2000/svg" xmlns:xlink="http://www.w3.org/1999/xlink" x="0" y="0" width="539" height="433" viewBox="0, 0, 539, 433">
  <defs>
    <radialGradient id="Gradient_1" gradientUnits="userSpaceOnUse" cx="213.357" cy="424.337" r="303.156">
      <stop offset="0" stop-color="#CBCAC4"/>
      <stop offset="0.791" stop-color="#FFFFFE"/>
      <stop offset="1" stop-color="#FFFFFE"/>
    </radialGradient>
    <linearGradient id="Gradient_2" gradientUnits="userSpaceOnUse" x1="326.359" y1="195.579" x2="347.967" y2="200.353">
      <stop offset="0" stop-color="#932C30"/>
      <stop offset="0.418" stop-color="#985533"/>
      <stop offset="1" stop-color="#972C30"/>
    </linearGradient>
    <linearGradient id="Gradient_3" gradientUnits="userSpaceOnUse" x1="343.083" y1="204.891" x2="410.912" y2="219.877">
      <stop offset="0" stop-color="#932C30"/>
      <stop offset="0.418" stop-color="#985533"/>
      <stop offset="1" stop-color="#972C30"/>
    </linearGradient>
    <radialGradient id="Gradient_4" gradientUnits="userSpaceOnUse" cx="394.425" cy="229.569" r="11.649">
      <stop offset="0" stop-color="#8A8F8E"/>
      <stop offset="0.006" stop-color="#8A8F8E"/>
      <stop offset="0.995" stop-color="#575958"/>
      <stop offset="1" stop-color="#575958"/>
    </radialGradient>
    <linearGradient id="Gradient_5" gradientUnits="userSpaceOnUse" x1="372.929" y1="186.622" x2="416.119" y2="196.164">
      <stop offset="0" stop-color="#C52D2B"/>
      <stop offset="0.418" stop-color="#CA6937"/>
      <stop offset="1" stop-color="#C52D2B"/>
    </linearGradient>
    <radialGradient id="Gradient_6" gradientUnits="userSpaceOnUse" cx="83.15" cy="90.269" r="238.711">
      <stop offset="0" stop-color="#CA6937"/>
      <stop offset="0.011" stop-color="#CA6937"/>
      <stop offset="1" stop-color="#C52D2B"/>
    </radialGradient>
    <radialGradient id="Gradient_7" gradientUnits="userSpaceOnUse" cx="226.541" cy="306.759" r="81.846">
      <stop offset="0" stop-color="#CBCAC4"/>
      <stop offset="0.791" stop-color="#FFFFFE"/>
      <stop offset="1" stop-color="#FFFFFE"/>
    </radialGradient>
    <radialGradient id="Gradient_8" gradientUnits="userSpaceOnUse" cx="171.473" cy="297.22" r="81.488">
      <stop offset="0" stop-color="#CBCAC4"/>
      <stop offset="0.791" stop-color="#FFFFFE"/>
      <stop offset="1" stop-color="#FFFFFE"/>
    </radialGradient>
    <radialGradient id="Gradient_9" gradientUnits="userSpaceOnUse" cx="180.727" cy="303.39" r="96.603">
      <stop offset="0" stop-color="#CBCAC4"/>
      <stop offset="0.791" stop-color="#FFFFFE"/>
      <stop offset="1" stop-color="#FFFFFE"/>
    </radialGradient>
    <radialGradient id="Gradient_10" gradientUnits="userSpaceOnUse" cx="97.828" cy="234.724" r="49.779">
      <stop offset="0" stop-color="#CBCAC4"/>
      <stop offset="0.791" stop-color="#FFFFFE"/>
      <stop offset="1" stop-color="#FFFFFE"/>
    </radialGradient>
    <radialGradient id="Gradient_11" gradientUnits="userSpaceOnUse" cx="190.008" cy="146.89" r="124.032">
      <stop offset="0" stop-color="#CBCAC4"/>
      <stop offset="0.791" stop-color="#FFFFFE"/>
      <stop offset="1" stop-color="#FFFFFE"/>
    </radialGradient>
    <radialGradient id="Gradient_12" gradientUnits="userSpaceOnUse" cx="190.398" cy="189.045" r="117.182">
      <stop offset="0" stop-color="#CBCAC4"/>
      <stop offset="0.791" stop-color="#FFFFFE"/>
      <stop offset="1" stop-color="#FFFFFE"/>
    </radialGradient>
    <radialGradient id="Gradient_13" gradientUnits="userSpaceOnUse" cx="175.385" cy="325.569" r="78.867">
      <stop offset="0" stop-color="#CBCAC4"/>
      <stop offset="0.791" stop-color="#FFFFFE"/>
      <stop offset="1" stop-color="#FFFFFE"/>
    </radialGradient>
    <radialGradient id="Gradient_14" gradientUnits="userSpaceOnUse" cx="183.222" cy="313.006" r="78.808">
      <stop offset="0" stop-color="#CBCAC4"/>
      <stop offset="0.791" stop-color="#FFFFFE"/>
      <stop offset="1" stop-color="#FFFFFE"/>
    </radialGradient>
    <radialGradient id="Gradient_15" gradientUnits="userSpaceOnUse" cx="205.644" cy="294.227" r="63.082">
      <stop offset="0" stop-color="#CBCAC4"/>
      <stop offset="0.791" stop-color="#FFFFFE"/>
      <stop offset="1" stop-color="#FFFFFE"/>
    </radialGradient>
    <radialGradient id="Gradient_16" gradientUnits="userSpaceOnUse" cx="229.523" cy="273.958" r="47.104">
      <stop offset="0" stop-color="#CBCAC4"/>
      <stop offset="0.791" stop-color="#FFFFFE"/>
      <stop offset="1" stop-color="#FFFFFE"/>
    </radialGradient>
    <radialGradient id="Gradient_17" gradientUnits="userSpaceOnUse" cx="261.516" cy="259.288" r="23.822">
      <stop offset="0" stop-color="#CBCAC4"/>
      <stop offset="0.791" stop-color="#FFFFFE"/>
      <stop offset="1" stop-color="#FFFFFE"/>
    </radialGradient>
    <radialGradient id="Gradient_18" gradientUnits="userSpaceOnUse" cx="114.621" cy="261.211" r="19.839">
      <stop offset="0" stop-color="#CBCAC4"/>
      <stop offset="0.791" stop-color="#FFFFFE"/>
      <stop offset="1" stop-color="#FFFFFE"/>
    </radialGradient>
    <radialGradient id="Gradient_19" gradientUnits="userSpaceOnUse" cx="138.434" cy="274.139" r="42.877">
      <stop offset="0" stop-color="#CBCAC4"/>
      <stop offset="0.791" stop-color="#FFFFFE"/>
      <stop offset="1" stop-color="#FFFFFE"/>
    </radialGradient>
    <radialGradient id="Gradient_20" gradientUnits="userSpaceOnUse" cx="166.582" cy="290" r="62.654">
      <stop offset="0" stop-color="#CBCAC4"/>
      <stop offset="0.791" stop-color="#FFFFFE"/>
      <stop offset="1" stop-color="#FFFFFE"/>
    </radialGradient>
    <radialGradient id="Gradient_21" gradientUnits="userSpaceOnUse" cx="197.546" cy="309.576" r="73.741">
      <stop offset="0" stop-color="#CBCAC4"/>
      <stop offset="0.791" stop-color="#FFFFFE"/>
      <stop offset="1" stop-color="#FFFFFE"/>
    </radialGradient>
    <radialGradient id="Gradient_22" gradientUnits="userSpaceOnUse" cx="229.709" cy="295.551" r="91.838">
      <stop offset="0" stop-color="#CBCAC4"/>
      <stop offset="0.791" stop-color="#FFFFFE"/>
      <stop offset="1" stop-color="#FFFFFE"/>
    </radialGradient>
    <radialGradient id="Gradient_23" gradientUnits="userSpaceOnUse" cx="195.472" cy="288.233" r="165.635">
      <stop offset="0" stop-color="#CBCAC4"/>
      <stop offset="0.791" stop-color="#FFFFFE"/>
      <stop offset="1" stop-color="#FFFFFE"/>
    </radialGradient>
    <linearGradient id="Gradient_24" gradientUnits="userSpaceOnUse" x1="301.775" y1="145.899" x2="379.163" y2="162.997">
      <stop offset="0" stop-color="#C52D2B"/>
      <stop offset="0.418" stop-color="#CA6937"/>
      <stop offset="1" stop-color="#C52D2B"/>
    </linearGradient>
    <radialGradient id="Gradient_25" gradientUnits="userSpaceOnUse" cx="353.292" cy="234.697" r="11.654">
      <stop offset="0" stop-color="#8A8F8E"/>
      <stop offset="0.006" stop-color="#8A8F8E"/>
      <stop offset="0.995" stop-color="#575958"/>
      <stop offset="1" stop-color="#575958"/>
    </radialGradient>
  </defs>
  <g id="Layer_1">
    <path d="M530.749,243.057 C530.749,291.244 510.429,284.228 481.015,287.775 L289.976,306.135 C260.585,309.689 236.179,300.838 235.476,257.353 L231.452,80.908 C230.757,37.455 254.022,34.572 283.413,31.025 L485.054,7.869 C514.46,4.323 530.296,13.182 531.015,56.666 L530.749,243.057 z" fill="url(#Gradient_1)"/>
    <path d="M485.343,10.346 L283.71,33.51 C254.358,37.478 234.304,38.721 233.905,79.01 C233.905,79.588 233.921,80.189 233.952,80.853 L237.968,257.307 C238.913,294.33 255.53,303.955 278.913,304.33 C282.358,304.33 285.983,304.072 289.726,303.635 L480.702,285.283 C495.679,283.541 508.007,284.213 515.718,279.947 C523.265,275.893 528.187,266.955 528.249,243.049 L528.499,56.697 C527.374,19.065 517.046,10.01 495.679,9.635 C492.507,9.635 489.038,9.885 485.343,10.346 z M232.976,257.4 L228.944,80.978 C228.921,80.338 228.905,79.697 228.905,79.01 C228.499,35.947 254.468,31.478 283.124,28.525 L484.749,5.385 C488.577,4.924 492.218,4.619 495.679,4.619 C519.46,4.252 533.335,18.369 533.499,56.666 L533.233,243.049 C533.296,267.322 528.062,278.978 518.093,284.353 C508.28,289.51 495.749,288.439 481.249,290.244 L290.272,308.619 C286.405,309.064 282.616,309.322 278.913,309.322 C278.562,309.322 278.202,309.322 277.851,309.322 C253.233,309.322 233.187,295.596 232.976,257.4" fill="#191613"/>
    <path d="M272.327,84.041 L273.171,265.15 L479.655,245.705 L480.374,62.385 L272.327,84.041 z M256.515,283.564 C254.429,281.674 253.249,279.01 253.233,276.205 L252.312,75.103 C252.265,69.947 256.147,65.619 261.257,65.088 L489.39,41.353 C492.233,41.049 495.007,41.978 497.124,43.885 C499.257,45.807 500.429,48.486 500.405,51.353 L499.608,254.853 C499.585,260.002 495.679,264.291 490.554,264.775 L264.179,286.103 C263.858,286.135 263.53,286.15 263.21,286.15 C260.741,286.15 258.366,285.236 256.515,283.564" fill="#191613"/>
    <path d="M344.155,221.283 C344.155,221.283 329.304,221.283 325.897,212.143 C322.46,203.01 325.897,184.721 325.897,184.721 L347.608,177.869 L344.155,221.283 z" fill="url(#Gradient_2)"/>
    <path d="M326.835,200.947 C326.812,204.853 327.249,208.697 328.218,211.252 C329.733,216.416 337.819,218.072 341.858,218.564 L344.796,181.361 L328.093,186.65 C327.663,189.299 326.835,195.158 326.835,200.947 z M344.155,221.283 L344.155,218.76 L344.155,221.283 z M323.546,213.01 C322.218,209.463 321.843,205.189 321.843,200.947 C321.843,192.502 323.413,184.322 323.437,184.228 C323.601,183.33 324.257,182.603 325.132,182.322 L346.843,175.494 C347.64,175.213 348.499,175.4 349.147,175.9 C349.804,176.432 350.155,177.228 350.093,178.072 L346.64,221.463 C346.53,222.768 345.452,223.775 344.155,223.775 C344.03,223.564 328.343,224.353 323.546,213.01" fill="#191613"/>
    <path d="M408.132,244.01 L340.741,252.119 L338.452,185.213 L405.843,171.01 L408.132,244.01 z" fill="url(#Gradient_3)"/>
    <path d="M341.015,187.213 L343.132,249.307 L405.554,241.791 L403.444,174.041 L341.015,187.213 z M339.101,254.01 C338.569,253.549 338.257,252.893 338.241,252.197 L335.952,185.291 C335.905,184.088 336.749,183.01 337.929,182.76 L405.327,168.549 C406.046,168.4 406.804,168.564 407.39,169.025 C407.952,169.494 408.312,170.158 408.327,170.916 L410.624,243.908 L408.124,243.994 L410.624,243.908 C410.663,245.205 409.718,246.322 408.413,246.486 L341.03,254.588 C340.937,254.603 340.827,254.611 340.733,254.611 C340.132,254.611 339.546,254.4 339.101,254.01" fill="#191613"/>
    <path d="M399.429,229.564 C399.429,234.768 397.194,238.986 394.421,238.986 C391.671,238.986 389.421,234.768 389.421,229.564 C389.421,224.346 391.671,220.15 394.421,220.15 C397.194,220.15 399.429,224.346 399.429,229.564 z" fill="url(#Gradient_4)"/>
    <path d="M393.085,224.072 C392.405,225.283 391.913,227.307 391.913,229.557 C391.913,231.799 392.405,233.807 393.085,235.049 C393.78,236.353 394.39,236.494 394.413,236.478 C394.429,236.478 395.054,236.353 395.749,235.049 C396.421,233.807 396.929,231.799 396.929,229.557 C396.929,227.307 396.421,225.283 395.749,224.072 C395.054,222.775 394.429,222.619 394.413,222.619 C394.39,222.619 393.78,222.775 393.085,224.072 z M386.913,229.557 C387.085,223.838 388.882,218.213 394.413,217.65 C399.952,218.197 401.757,223.861 401.921,229.557 C401.757,235.236 399.952,240.908 394.413,241.478 C388.882,240.908 387.085,235.26 386.913,229.557" fill="#191613"/>
    <path d="M373.437,158.447 C376.155,159.588 412.702,172.158 412.702,172.158 L412.702,218.986 C412.702,218.986 395.577,221.283 387.562,217.853 C379.569,214.424 375.624,191.877 375.624,191.877 L373.437,158.447 z" fill="url(#Gradient_5)"/>
    <path d="M378.077,191.439 C378.093,191.439 379.03,196.916 380.968,202.791 C382.749,208.697 386.069,214.768 388.522,215.541 C391.296,216.744 396.226,217.236 400.788,217.221 C404.53,217.221 408.03,216.955 410.194,216.744 L410.194,173.939 C404.327,171.924 384.624,165.135 376.179,162.111 L378.077,191.439 z M386.569,220.135 C376.233,214.869 373.554,192.533 373.108,192.025 L370.937,158.603 L373.421,158.439 L370.937,158.603 C370.866,157.728 371.265,156.908 371.983,156.4 C372.671,155.9 373.601,155.791 374.39,156.127 C376.835,157.158 413.468,169.775 413.499,169.775 C414.507,170.127 415.202,171.072 415.202,172.15 L415.202,218.986 C415.202,220.213 414.233,221.291 413.022,221.455 C412.952,221.455 407.272,222.221 400.788,222.221 C395.897,222.197 390.624,221.838 386.569,220.135" fill="#191613"/>
    <path d="M189.726,192.744 C107.304,192.744 40.476,177.393 40.476,158.447 C40.476,139.525 107.304,124.166 189.726,124.166 C272.155,124.166 338.983,139.525 338.983,158.447 C338.983,177.393 272.155,192.744 189.726,192.744 z M189.726,107.424 C88.288,107.424 6.031,130.268 6.031,158.447 C6.031,186.619 88.288,209.478 189.726,209.478 C291.179,209.478 373.437,186.619 373.437,158.447 C373.437,130.268 291.179,107.424 189.726,107.424" fill="url(#Gradient_6)"/>
    <path d="M189.726,195.228 L189.726,190.236 C230.765,190.236 267.952,186.4 294.702,180.268 C321.647,174.385 337.304,164.846 336.491,158.439 C337.304,152.064 321.647,142.494 294.702,136.643 C267.952,130.494 230.765,126.65 189.726,126.65 C148.655,126.65 111.483,130.494 84.741,136.643 C57.78,142.494 42.124,152.064 42.968,158.439 C42.148,164.846 57.78,174.385 84.741,180.268 C111.483,186.4 148.655,190.236 189.726,190.236 L189.726,195.228 C148.343,195.228 110.897,191.385 83.632,185.111 C56.538,178.564 38.796,170.986 37.976,158.439 C38.796,145.9 56.538,138.322 83.632,131.768 C110.897,125.502 148.343,121.666 189.726,121.643 C231.093,121.666 268.546,125.502 295.819,131.768 C322.89,138.322 340.64,145.9 341.46,158.439 C340.64,170.986 322.89,178.564 295.819,185.111 C268.546,191.385 231.093,195.228 189.726,195.244 L189.726,195.228 z M59.171,196.924 C25.812,187.447 4.07,175.189 3.523,158.439 C4.07,141.682 25.812,129.424 59.171,119.947 C92.718,110.627 138.796,104.916 189.726,104.916 L189.726,109.9 C139.194,109.9 93.437,115.619 60.483,124.768 C27.359,133.775 7.968,147.002 8.531,158.439 C7.968,169.877 27.359,183.119 60.483,192.103 C93.437,201.275 139.194,206.978 189.726,206.955 C240.265,206.978 285.999,201.275 318.944,192.103 C352.093,183.119 371.46,169.877 370.921,158.439 C371.46,147.002 352.093,133.775 318.944,124.768 C285.999,115.619 240.265,109.9 189.726,109.9 L189.726,104.916 C240.632,104.916 286.733,110.627 320.288,119.947 C353.632,129.424 375.366,141.682 375.937,158.439 C375.366,175.189 353.632,187.447 320.288,196.924 C286.733,206.244 240.632,211.955 189.726,211.978 C138.796,211.955 92.718,206.244 59.171,196.924" fill="#191613"/>
    <path d="M241.015,405.166 C241.015,405.135 237.171,352.377 236.89,345.9 C236.687,340.916 239.671,275.814 240.437,236.619 C237.858,247.736 234.921,261.057 232.007,274.611 C224.726,308.721 217.593,344.377 216.39,350.51 C215.405,355.502 215.015,364.478 214.718,372.971 C214.39,381.588 214.226,389.51 213.187,394.119 C212.718,395.51 212.858,396.635 210.679,398.588 C208.726,400.049 205.866,399.799 204.265,398.025 C202.897,396.51 202.921,394.377 204.147,392.869 C204.179,392.76 204.202,392.611 204.257,392.432 C204.452,391.65 204.624,390.322 204.796,388.752 C205.108,385.525 205.288,381.135 205.468,376.377 C205.812,366.846 206.054,356.041 207.405,349.088 C209.468,338.541 228.483,243.518 236.687,214.268 C237.937,209.947 238.608,207.4 239.874,205.307 C240.437,204.877 240.343,203.478 244.046,202.838 C245.733,202.728 247.358,203.697 247.905,204.4 C248.522,205.111 248.702,205.596 248.866,206.025 C249.405,207.791 249.429,209.268 249.577,211.9 C250.663,236.682 245.749,340.385 246.015,345.502 C246.28,351.572 250.124,404.486 250.14,404.564 C250.312,406.853 248.39,408.861 245.89,409.057 L245.749,409.057 C243.288,409.15 241.179,407.447 241.015,405.166 z" fill="url(#Gradient_7)"/>
    <path d="M245.546,407.783 L245.733,407.807 L245.757,407.807 C247.577,407.635 248.921,406.213 248.89,404.807 C248.874,404.728 248.874,404.643 248.921,404.853 C248.835,404.291 245.046,351.799 244.772,345.728 C244.726,345.432 244.726,345.158 244.726,344.869 C244.726,335.885 248.476,255.275 248.476,221.455 C248.476,217.603 248.413,214.377 248.327,211.963 C248.179,209.299 248.14,207.963 247.687,206.478 C247.515,206.018 247.452,205.807 246.929,205.182 C246.694,204.814 245.358,204.01 244.28,204.041 L244.249,204.064 C240.733,204.924 242.03,204.994 240.937,205.932 C239.804,207.791 239.108,210.268 237.874,214.603 C229.702,243.728 210.679,338.791 208.632,349.307 C207.312,356.072 207.038,366.885 206.694,376.416 C206.53,381.174 206.343,385.58 206.03,388.869 C205.866,390.478 205.687,391.799 205.444,392.768 C205.421,392.893 205.397,393.01 205.062,393.705 C204.663,394.166 204.46,394.728 204.46,395.361 C204.46,395.986 204.687,396.611 205.171,397.182 C205.78,397.853 206.765,398.252 207.749,398.252 C208.546,398.252 209.327,398.018 209.843,397.65 C211.772,395.822 211.413,395.439 211.96,393.83 C212.944,389.478 213.132,381.533 213.468,372.924 C213.757,364.4 214.14,355.439 215.163,350.275 C216.358,344.111 223.483,308.471 230.78,274.338 C233.687,260.783 236.64,247.455 239.218,236.33 C239.343,235.705 239.952,235.283 240.585,235.369 C241.21,235.447 241.687,235.994 241.671,236.643 C240.913,274.525 238.101,336.713 238.101,345.197 C238.101,345.432 238.101,345.619 238.132,345.83 C238.397,352.166 242.093,402.768 242.249,405.08 C242.319,406.51 243.718,407.783 245.546,407.783 z M245.733,410.291 L245.546,410.275 C242.562,410.291 239.968,408.182 239.765,405.244 L240.999,405.166 L239.765,405.166 C239.741,405.103 235.921,352.432 235.632,345.963 C235.632,345.83 235.593,345.541 235.608,345.197 C235.608,337.424 237.866,286.744 238.882,249.041 C237.062,257.182 235.132,265.971 233.233,274.869 C225.937,308.955 218.804,344.611 217.616,350.736 C216.647,355.549 216.257,364.51 215.944,373.002 C215.624,381.611 215.476,389.533 214.374,394.502 C214.015,395.549 213.937,397.432 211.413,399.572 C210.327,400.393 209.022,400.76 207.749,400.744 C206.108,400.744 204.483,400.103 203.327,398.861 C202.429,397.853 201.96,396.611 201.96,395.361 C201.96,394.189 202.343,392.994 202.929,392.549 C202.944,392.494 202.968,392.299 203.03,392.111 C203.202,391.486 203.39,390.135 203.53,388.619 C203.858,385.447 204.038,381.064 204.202,376.338 C204.562,366.799 204.796,355.986 206.179,348.822 C208.249,338.26 227.233,243.291 235.483,213.916 C236.726,209.603 237.397,206.994 239.108,204.299 C239.155,204.338 239.218,203.939 239.905,203.228 C240.64,202.533 241.835,201.947 243.89,201.572 C243.89,201.596 243.991,201.557 244.28,201.557 C246.343,201.596 247.976,202.557 248.835,203.564 C249.569,204.4 249.858,205.158 250.046,205.658 C250.632,207.611 250.663,209.221 250.812,211.838 C250.937,214.33 250.952,217.603 250.952,221.455 C250.952,255.369 247.202,336.064 247.202,344.869 C247.202,345.119 247.226,345.244 247.241,345.432 C247.499,351.322 251.288,404.197 251.374,404.564 L251.374,404.807 C251.343,407.728 248.921,410.002 245.874,410.291 L245.733,410.291" fill="#191613"/>
    <path d="M201.913,394.799 C201.89,394.768 183.163,349.096 180.499,341.947 C179.616,339.33 179.194,334.666 178.327,326.728 C177.554,318.978 176.671,308.76 175.702,297.494 C174.116,279.041 172.358,257.76 170.64,239.924 C170.187,244.666 169.507,248.955 168.476,252.228 C166.694,257.432 162.897,284.822 159.405,313.275 C155.866,341.885 152.405,372.221 150.663,385.51 C150.132,389.455 149.929,391.4 149.538,392.869 C148.827,395.119 146.296,396.432 143.882,395.807 C141.46,395.166 140.077,392.861 140.733,390.635 C140.749,390.58 140.757,390.471 140.78,390.314 C140.835,390.01 140.905,389.588 140.983,389.057 C141.147,387.947 141.366,386.439 141.601,384.557 C142.108,380.807 142.71,375.627 143.452,369.502 C144.937,357.228 146.812,341.135 148.804,324.689 C152.858,291.635 157.085,258.103 159.733,249.807 C162.304,242.338 162.53,220.291 163.085,208.127 C163.374,203.83 163.39,201.228 164.358,198.619 C164.733,198.088 165.124,196.041 168.835,195.494 C172.858,195.791 173.093,197.689 173.647,198.228 C174.101,199.041 174.358,199.791 174.694,200.736 C176.015,204.885 177.147,213.978 178.515,226.588 C179.812,239.111 181.202,254.666 182.546,270.244 C185.194,301.26 187.772,332.853 189.038,338.713 C189.101,339.033 189.108,339.119 189.14,339.119 C191.64,345.869 210.437,391.697 210.452,391.76 C211.358,393.939 210.163,396.385 207.796,397.228 C207.343,397.393 206.851,397.494 206.382,397.525 C204.46,397.588 202.632,396.557 201.913,394.799 z" fill="url(#Gradient_8)"/>
    <path d="M206.202,396.26 L206.304,396.26 C206.64,396.244 207.015,396.166 207.351,396.057 C208.718,395.549 209.491,394.353 209.491,393.244 C209.491,392.893 209.429,392.557 209.257,392.143 C209.233,392.103 190.452,346.322 187.952,339.557 L188.022,339.533 C187.944,339.377 187.937,339.275 187.874,339.299 C187.843,339.174 187.843,339.072 187.812,338.963 C186.491,332.853 183.944,301.4 181.304,270.361 C179.937,254.775 178.562,239.221 177.265,226.713 C175.897,214.135 174.741,204.994 173.515,201.143 C173.171,200.197 172.929,199.533 172.78,199.111 C171.577,197.869 172.421,197.244 169.015,196.721 C165.741,197.393 166.124,198.275 165.515,199.041 C164.624,201.369 164.608,203.853 164.312,208.174 C163.749,220.369 163.601,242.26 160.905,250.166 C158.343,258.15 154.077,291.83 150.038,324.822 C148.046,341.275 146.179,357.353 144.694,369.65 C143.944,375.76 143.335,380.932 142.827,384.713 C142.593,386.596 142.374,388.119 142.202,389.228 C142.14,389.768 142.062,390.213 142.007,390.51 L141.89,391.064 C141.827,391.213 141.78,391.447 141.78,391.744 C141.78,392.947 142.687,394.174 144.147,394.572 C144.46,394.65 144.804,394.689 145.093,394.689 C146.577,394.689 147.937,393.775 148.319,392.541 C148.671,391.244 148.882,389.291 149.405,385.338 C151.14,372.072 154.616,341.728 158.14,313.096 C161.679,284.58 165.405,257.393 167.272,251.846 C168.249,248.721 168.944,244.494 169.382,239.791 C169.452,239.15 169.983,238.674 170.64,238.674 C171.265,238.674 171.812,239.15 171.874,239.791 C173.593,257.65 175.351,278.932 176.937,297.377 C177.905,308.643 178.788,318.861 179.569,326.588 C180.421,334.525 180.858,339.221 181.655,341.494 C184.218,348.369 201.89,391.486 202.999,394.174 L202.538,394.353 L201.913,394.799 L203.062,394.322 C203.522,395.471 204.78,396.244 206.202,396.26 z M206.202,398.752 C203.874,398.752 201.655,397.463 200.741,395.26 L200.757,395.26 C199.226,391.674 181.968,349.432 179.296,342.338 C178.343,339.424 177.944,334.799 177.069,326.838 C176.296,319.072 175.421,308.869 174.452,297.58 C173.155,282.51 171.749,265.549 170.327,250.127 C170.124,251.01 169.897,251.838 169.655,252.619 C167.952,257.455 164.108,285.041 160.632,313.416 C157.085,342.025 153.64,372.346 151.874,385.666 C151.358,389.603 151.171,391.533 150.733,393.244 C149.929,395.697 147.562,397.189 145.093,397.189 C144.546,397.189 144.038,397.119 143.562,396.994 C141.03,396.33 139.296,394.174 139.296,391.744 C139.296,391.283 139.335,390.736 139.483,390.439 L139.538,390.057 C139.585,389.799 139.663,389.4 139.733,388.853 C139.897,387.768 140.124,386.275 140.358,384.369 C140.858,380.635 141.452,375.471 142.202,369.33 C143.687,357.08 145.554,340.978 147.546,324.533 C151.624,291.432 155.796,258.049 158.53,249.4 C160.983,242.4 161.304,220.228 161.827,208.025 C162.116,203.783 162.116,201.072 163.335,197.9 C163.335,197.869 164.483,194.666 168.921,194.228 C173.28,194.322 174.452,197.353 174.741,197.603 C175.249,198.525 175.522,199.369 175.874,200.346 C177.265,204.744 178.366,213.807 179.749,226.439 C181.054,238.986 182.429,254.541 183.78,270.127 C186.413,301.103 189.03,332.838 190.265,338.486 L190.241,338.588 L190.202,338.603 L190.312,338.674 C192.796,345.416 211.562,391.135 211.608,391.283 C211.851,391.908 211.999,392.58 211.983,393.244 C211.983,395.51 210.476,397.541 208.21,398.4 C207.64,398.603 207.038,398.713 206.366,398.752 L206.202,398.752" fill="#191613"/>
    <path d="M235.952,410.127 C235.952,410.111 215.944,318.908 213.96,309.103 C213.007,304.189 211.382,284.853 209.202,263.228 C207.476,245.9 205.421,227.268 203.257,214.846 C202.483,218.916 201.671,223.721 200.835,229.088 C198.077,246.674 194.999,270.291 192.062,294.252 C186.155,342.338 180.952,390.893 179.515,396.978 C179.038,398.908 177.155,400.291 174.983,400.283 C172.819,400.268 170.983,398.861 170.577,396.908 C170.577,396.807 167.476,382.057 166.983,371.377 C166.921,370.033 166.905,368.752 166.96,367.611 C166.96,367.447 166.968,367.291 166.937,367.103 C166.733,361.15 160.976,330.439 155.343,302.002 C150.085,275.307 144.882,250.135 144.202,246.908 C143.132,244.189 134.437,222.338 127.312,209.424 C126.921,208.666 126.491,207.924 126.077,207.213 C127.874,228.627 141.046,280.471 142.304,292.619 C142.772,297.393 143.413,308.205 143.96,320.939 C144.804,340.025 145.452,363.15 144.96,376.01 C144.741,380.385 144.593,383.252 143.835,385.65 C143.062,387.846 140.499,389.088 138.085,388.393 C135.687,387.705 134.351,385.361 135.132,383.166 C135.272,382.932 135.702,379.768 135.827,375.76 C135.976,371.674 136.022,366.33 135.968,360.385 C135.866,348.463 135.39,333.978 134.827,321.338 C134.28,308.721 133.632,297.869 133.187,293.432 C132.147,282.228 117.749,226.088 116.772,205.01 C116.772,201.299 116.437,198.908 118.28,195.83 C118.968,194.689 120.843,193.252 122.999,193.213 C127.077,193.408 128.163,195.291 129.694,196.76 C131.124,198.4 132.46,200.432 133.89,202.791 C136.694,207.572 139.726,213.682 142.515,219.814 C148.14,232.08 152.905,244.268 152.929,244.322 L153.101,244.947 C153.14,245.15 170.905,330.658 175.187,359.197 C176.702,346.299 178.468,331.018 180.351,315.213 C185.132,275.103 190.655,231.057 194.905,210.15 C196.233,204.01 196.999,200.314 198.702,197.471 C199.265,196.838 199.882,195.275 203.108,194.885 C205.444,194.768 207.093,196.26 207.538,196.994 C209.093,199.221 209.726,201.682 210.632,205.228 C211.46,208.728 212.265,213.096 213.046,218.103 C214.585,228.08 216.03,240.572 217.351,253.049 C219.968,277.924 222.085,303.385 222.944,307.525 C224.89,317.088 244.897,408.322 244.921,408.432 C245.405,410.697 243.804,412.916 241.335,413.385 C241.093,413.432 240.858,413.463 240.608,413.471 C238.413,413.557 236.39,412.166 235.952,410.127 z" fill="url(#Gradient_9)"/>
    <path d="M240.397,412.197 L240.546,412.221 C240.733,412.197 240.897,412.197 241.077,412.15 C242.702,411.822 243.749,410.502 243.749,409.221 C243.749,409.033 243.726,408.838 243.687,408.635 C243.687,408.635 223.655,317.346 221.702,307.775 C220.812,303.369 218.726,278.072 216.093,253.174 C214.772,240.682 213.327,228.228 211.796,218.291 C211.022,213.307 210.218,208.963 209.413,205.525 C208.499,201.978 207.897,199.689 206.468,197.635 C206.249,197.26 204.952,196.049 203.335,196.088 L203.249,196.127 C200.397,196.588 200.483,197.346 199.749,198.096 C198.218,200.658 197.452,204.228 196.124,210.393 C191.89,231.174 186.366,275.26 181.593,315.361 C179.702,331.15 177.937,346.432 176.413,359.338 C176.343,359.963 175.827,360.439 175.194,360.439 C174.569,360.439 174.022,360.002 173.944,359.377 C169.663,330.9 151.905,245.4 151.874,245.275 L151.757,244.775 C151.726,244.713 146.968,232.557 141.358,220.322 C138.593,214.213 135.577,208.135 132.812,203.439 C131.405,201.096 130.085,199.119 128.835,197.658 C127.046,195.994 126.593,194.697 123.007,194.455 C121.413,194.424 119.765,195.705 119.327,196.486 C118.124,198.447 117.999,199.963 117.976,202.228 C117.976,203.057 118.015,203.963 118.015,204.947 C118.96,225.775 133.335,281.838 134.421,293.307 C134.858,297.807 135.515,308.635 136.062,321.275 C136.624,333.916 137.108,348.416 137.194,360.385 C137.194,361.994 137.218,363.588 137.218,365.135 C137.218,369.182 137.163,372.807 137.069,375.807 C136.851,380.057 136.671,382.658 136.265,383.666 C136.187,383.83 136.14,384.103 136.14,384.416 C136.14,385.588 136.983,386.76 138.39,387.158 C138.718,387.268 139.077,387.307 139.429,387.307 C140.897,387.307 142.241,386.432 142.632,385.26 C143.327,383.119 143.491,380.322 143.71,375.947 C143.804,372.853 143.858,369.182 143.858,365.135 C143.858,352.275 143.343,335.471 142.702,320.978 C142.155,308.275 141.499,297.447 141.046,292.736 C139.827,280.814 126.647,228.916 124.827,207.299 C124.78,206.713 125.14,206.182 125.687,205.994 C126.257,205.83 126.858,206.072 127.155,206.588 C127.554,207.275 127.999,208.049 128.39,208.822 C135.593,221.838 144.272,243.705 145.429,246.643 C146.093,249.885 151.312,275.049 156.546,301.76 C162.202,330.26 167.944,360.807 168.179,367.088 C168.179,367.088 168.179,367.213 168.179,367.385 C168.179,367.385 168.202,367.611 168.202,367.736 C168.155,368.096 168.155,368.572 168.155,369.103 C168.155,369.791 168.179,370.518 168.218,371.322 C168.718,381.963 171.757,396.275 171.78,396.635 C172.038,397.885 173.233,398.916 174.749,399.025 C174.882,399.01 174.999,399.01 175.085,399.018 C176.694,398.955 177.983,397.939 178.296,396.674 C179.671,390.869 184.921,342.135 190.812,294.096 C193.757,270.127 196.835,246.494 199.577,228.869 C200.421,223.51 201.233,218.697 202.03,214.603 C202.14,214.018 202.663,213.572 203.265,213.596 C203.858,213.596 204.382,214.041 204.491,214.635 C206.64,227.111 208.718,245.736 210.437,263.088 C212.616,284.713 214.249,304.135 215.171,308.838 C217.108,318.51 236.054,404.643 237.14,409.877 L237.163,409.869 C237.397,411.143 238.78,412.197 240.397,412.197 z M240.397,414.689 C237.749,414.689 235.28,413.01 234.718,410.369 L235.952,410.119 L234.671,410.119 C234.64,409.955 234.569,409.697 234.491,409.346 C234.343,408.697 234.124,407.705 233.858,406.439 C233.319,403.916 232.515,400.338 231.569,395.978 C229.663,387.268 227.085,375.549 224.468,363.549 C219.218,339.51 213.726,314.268 212.718,309.33 C211.733,304.228 210.14,284.978 207.937,263.338 C206.538,249.182 204.905,234.135 203.179,222.369 C202.812,224.541 202.429,226.846 202.062,229.268 C199.28,246.83 196.226,270.439 193.296,294.385 C187.39,342.51 182.218,390.893 180.733,397.26 C180.093,399.736 177.796,401.416 175.202,401.51 L174.968,401.533 C172.265,401.51 169.89,399.744 169.335,396.9 C169.351,396.877 166.21,382.135 165.733,371.432 C165.679,370.627 165.663,369.853 165.663,369.103 C165.663,368.557 165.64,368.025 165.702,367.611 L165.702,367.385 C165.702,367.353 165.679,367.26 165.679,367.135 C165.499,361.494 159.733,330.603 154.101,302.221 C148.866,275.549 143.64,250.369 143.03,247.353 C142.062,244.9 134.726,226.455 128.062,213.518 C131.366,237.299 142.358,281.213 143.546,292.478 C143.999,297.314 144.647,308.127 145.194,320.869 C145.843,335.361 146.343,352.213 146.343,365.135 C146.343,369.221 146.288,372.916 146.202,376.057 C145.968,380.432 145.843,383.369 145.007,386.064 C144.147,388.393 141.843,389.799 139.429,389.799 C138.843,389.799 138.28,389.721 137.733,389.588 C135.296,388.9 133.647,386.799 133.647,384.416 C133.647,383.908 133.71,383.338 133.983,382.682 L133.96,382.682 C133.983,382.588 133.999,382.447 134.03,382.275 C134.093,381.916 134.147,381.377 134.233,380.744 C134.358,379.447 134.507,377.689 134.569,375.713 C134.671,372.768 134.718,369.143 134.718,365.135 C134.718,363.603 134.718,361.994 134.718,360.385 C134.616,348.478 134.124,334.01 133.593,321.385 C133.022,308.783 132.374,297.932 131.929,293.525 C130.921,282.588 116.515,226.377 115.522,205.01 C115.522,204.025 115.483,203.103 115.483,202.228 C115.468,199.893 115.671,197.619 117.202,195.166 C118.171,193.65 120.265,192.041 123.046,191.955 C127.53,192.103 129.249,194.572 130.632,195.939 C132.14,197.658 133.499,199.744 134.968,202.158 C137.796,206.986 140.835,213.135 143.64,219.275 C149.304,231.596 154.062,243.807 154.116,243.978 L154.327,244.713 C154.343,244.869 169.108,315.908 174.976,350.158 C176.226,339.369 177.624,327.369 179.093,315.072 C183.89,274.924 189.405,230.908 193.671,209.877 C195.015,203.752 195.749,199.963 197.765,196.635 C198.015,196.322 199.351,193.947 202.952,193.635 C202.952,193.635 203.03,193.596 203.335,193.596 C206.101,193.635 207.874,195.244 208.554,196.275 C210.272,198.744 210.913,201.369 211.843,204.924 C212.671,208.486 213.491,212.893 214.265,217.916 C215.819,227.916 217.265,240.424 218.577,252.9 C221.21,277.76 223.335,303.369 224.155,307.268 C226.108,316.83 246.108,408.002 246.14,408.158 C246.218,408.549 246.233,408.908 246.233,409.221 C246.218,411.838 244.249,414.064 241.569,414.603 C241.28,414.65 240.968,414.689 240.601,414.713 L240.397,414.689" fill="#191613"/>
    <path d="M127.788,285.807 C127.358,284.736 123.022,277.924 117.163,269.307 C111.233,260.549 103.562,249.432 95.741,238.236 C80.108,215.83 63.835,192.924 59.858,187.635 L59.858,187.65 C58.437,185.744 58.983,183.127 61.062,181.83 C63.155,180.502 65.991,180.971 67.405,182.861 C73.601,191.135 107.062,238.4 124.929,264.846 C130.952,273.783 134.983,279.877 136.249,282.572 C137.202,284.697 136.093,287.158 133.749,288.057 C133.233,288.244 132.71,288.353 132.194,288.369 C130.343,288.447 128.546,287.494 127.788,285.807 z" fill="url(#Gradient_10)"/>
    <path d="M131.968,285.861 C131.968,285.861 132.194,285.861 132.093,285.861 C132.319,285.861 132.593,285.814 132.796,285.736 C133.679,285.369 134.077,284.658 134.077,284.143 C134.062,283.955 134.038,283.76 133.968,283.619 C132.929,281.338 128.858,275.119 122.851,266.228 C105.015,239.846 71.522,192.533 65.39,184.353 C65.03,183.853 64.382,183.541 63.671,183.541 C63.249,183.541 62.812,183.666 62.327,183.978 C61.765,184.307 61.562,184.768 61.538,185.275 C61.538,185.572 61.616,185.822 61.851,186.135 C65.89,191.486 82.124,214.377 97.78,236.791 C105.601,248.002 113.28,259.111 119.226,267.9 C125.163,276.674 129.312,283.08 130.108,284.853 L130.093,284.853 C130.358,285.369 131.077,285.861 131.968,285.861 z M131.968,290.83 C129.312,290.83 126.679,289.432 125.483,286.799 L127.78,285.791 L125.452,286.728 C125.374,286.377 120.858,279.143 115.085,270.705 C109.179,261.963 101.499,250.853 93.679,239.658 C78.257,217.541 62.163,194.893 58.007,189.322 L57.858,189.143 C56.999,188.018 56.538,186.635 56.538,185.275 C56.538,183.08 57.71,180.885 59.694,179.713 C60.89,178.939 62.272,178.541 63.671,178.541 C65.827,178.541 68.007,179.478 69.405,181.361 C75.663,189.728 109.077,236.932 126.991,263.432 C133.03,272.424 137.03,278.393 138.546,281.564 C138.89,282.4 139.077,283.283 139.062,284.143 C139.062,286.908 137.28,289.33 134.585,290.393 C133.858,290.666 133.077,290.83 132.194,290.861 L131.968,290.83" fill="#191613"/>
    <path d="M357.171,166.26 L275.663,130.478 C271.257,130.385 252.577,129.994 233.632,129.603 C212.124,129.15 189.726,128.721 189.218,128.775 C186.999,128.861 113.03,131.494 103.437,131.846 L24.437,169.166 C22.187,170.228 19.429,169.416 18.288,167.353 C17.14,165.314 18.046,162.775 20.288,161.721 L100.202,123.986 L102.124,123.525 C102.202,123.525 186.647,120.502 188.843,120.4 C191.804,120.307 276.749,122.143 276.913,122.135 L278.78,122.533 L361.171,158.705 C363.421,159.697 364.382,162.213 363.265,164.291 C362.507,165.728 360.968,166.596 359.351,166.666 C358.608,166.689 357.866,166.572 357.171,166.26 z" fill="url(#Gradient_11)"/>
    <path d="M100.718,125.103 L20.796,162.846 C19.624,163.393 19.023,164.424 19.023,165.447 C19.023,165.869 19.124,166.307 19.374,166.752 C19.882,167.697 21.07,168.361 22.312,168.361 C22.859,168.338 23.406,168.244 23.906,168.025 L103.39,130.596 C112.733,130.26 183.249,127.736 188.858,127.533 C189.015,127.455 189.101,127.471 189.155,127.494 L189.272,127.494 L189.452,127.51 C192.085,127.51 213.257,127.916 233.647,128.353 C252.593,128.728 271.28,129.135 276.155,129.322 L357.64,165.103 L357.655,165.088 C358.093,165.283 358.608,165.385 359.116,165.385 L359.28,165.4 C360.507,165.361 361.64,164.689 362.14,163.728 C362.351,163.291 362.46,162.846 362.46,162.455 C362.46,161.4 361.843,160.369 360.655,159.846 L278.515,123.744 L276.874,123.252 L276.874,123.338 L276.772,123.338 C273.624,123.283 195.944,121.619 189.218,121.619 C189.218,121.619 188.999,121.619 188.882,121.643 C186.64,121.752 102.296,124.768 102.397,124.728 L100.718,125.103 z M22.312,170.838 C20.234,170.838 18.218,169.814 17.195,167.939 C16.734,167.166 16.523,166.307 16.523,165.447 C16.523,163.408 17.742,161.486 19.749,160.58 L99.897,122.76 L102.124,122.268 C102.202,122.268 186.64,119.228 188.647,119.166 C188.812,119.143 188.983,119.119 189.218,119.119 C196.124,119.119 276.304,120.861 276.874,120.861 C276.874,120.822 277.038,120.861 277.163,120.908 C277.358,120.971 277.53,121.041 277.163,120.893 L279.265,121.369 L361.655,157.541 C363.718,158.439 364.968,160.369 364.952,162.455 C364.952,163.26 364.741,164.064 364.358,164.869 C363.358,166.728 361.405,167.822 359.351,167.9 L359.116,167.885 C358.28,167.885 357.46,167.736 356.687,167.4 L357.163,166.244 L356.671,167.4 L275.632,131.713 C271.226,131.635 252.538,131.228 233.593,130.83 C213.218,130.416 192.007,129.994 189.452,129.994 L189.421,129.994 L189.413,129.916 L189.257,130.01 C187.038,130.103 113.077,132.736 103.952,132.971 L24.96,170.291 C24.117,170.658 23.281,170.838 22.452,170.838 L22.312,170.838" fill="#191613"/>
    <path d="M98.515,130.119 L98.522,130.119 L98.515,130.119 z M158.39,223.986 L158.397,223.986 L158.39,223.986 z M284.538,250.947 C284.616,248.799 285.093,248.088 285.741,246.088 C286.444,244.275 287.397,241.955 288.569,239.197 C290.937,233.721 294.202,226.541 297.874,218.627 C305.077,203.01 313.757,184.588 319.772,171.205 C313.757,177.807 306.491,186.103 299.046,194.682 C281.983,214.338 264.28,235.189 258.358,241.119 C257.405,241.924 256.491,243.057 253.765,243.338 C250.835,243.518 248.796,241.166 248.522,240.103 C248.03,238.869 247.968,237.9 247.905,236.838 C247.616,227.666 253.405,204.135 259.405,179.971 C263.179,164.955 267.077,149.799 269.569,139.166 C266.358,143.807 262.546,149.603 258.491,155.916 C248.015,172.244 235.733,192.291 226.28,207.135 C219.905,217.103 215.093,224.455 212.116,227.697 C211.202,228.674 209.671,229.846 207.374,229.978 C204.608,230.057 202.851,228.588 201.89,227.494 C200.89,226.307 200.241,225.072 199.593,223.627 C198.335,220.752 197.304,217.088 196.312,212.705 C194.343,203.916 192.608,192.291 191.077,180.291 C189.265,165.971 187.718,150.916 186.499,140.08 C185.194,144.463 183.749,149.603 182.226,155.119 C177.562,172.213 172.343,193.096 168.241,208.307 C165.437,218.596 163.468,225.775 161.78,229.103 C161.288,230.182 159.483,231.932 157.046,232.002 C152.64,231.682 152.015,229.807 150.351,228.283 C148.905,226.588 147.405,224.416 145.741,221.728 C142.429,216.4 138.522,209.166 134.327,200.986 C125.976,184.643 116.499,164.611 109.14,149.791 C108.28,148.01 107.421,146.307 106.601,144.689 C108.413,156.697 111.538,173.432 114.647,189.557 C119.249,213.572 123.765,236.049 124.108,242.697 C124.116,242.978 124.124,243.26 124.124,243.666 C124.093,244.307 124.03,245.127 123.335,246.252 C122.702,247.4 120.733,248.541 119.233,248.51 C116.647,248.439 115.952,247.619 115.038,247.119 C114.218,246.518 113.476,245.853 112.671,245.072 C111.069,243.478 109.202,241.377 107.046,238.783 C102.772,233.603 97.39,226.51 91.53,218.572 C82.585,206.478 72.562,192.393 63.921,180.353 C66.851,186.518 70.046,193.096 73.241,199.635 C84.694,223.01 95.952,245.213 96.601,246.721 C97.499,248.877 96.304,251.291 93.944,252.135 C91.577,252.978 88.944,251.9 88.054,249.744 C87.944,249.447 78.937,231.603 69.171,211.768 C59.312,191.775 48.476,169.385 43.937,158.236 C42.64,154.893 41.827,153.072 41.624,150.775 C41.617,150.353 41.562,149.838 41.921,148.838 C42.085,147.916 43.999,145.916 46.187,145.947 C49.101,146.072 49.429,147.025 49.952,147.291 C52.007,149.111 54.491,152.432 58.515,157.775 C62.421,163.01 67.327,169.838 72.749,177.377 C83.53,192.416 96.226,210.213 106.124,223.252 C108.788,226.768 111.304,229.971 113.491,232.65 C111.749,222.51 108.718,206.9 105.64,191.049 C101.054,167.033 96.39,142.26 95.897,131.619 C95.921,129.166 95.593,127.861 96.733,125.353 C97.085,124.564 98.569,122.822 101.046,122.736 C104.741,122.947 105.233,124.572 105.991,125.268 C109.671,130.119 116.257,143.744 124.272,160.189 C132.194,176.486 141.155,195.103 148.327,208.244 C150.897,213.103 153.499,217.353 155.437,220.213 C156.233,217.697 157.187,214.424 158.171,210.783 C160.312,202.971 162.897,192.978 165.608,182.557 C171.022,161.674 176.851,139.213 180.827,128.307 C182.085,125.08 182.64,123.174 184.46,121.088 C185.007,120.588 185.89,119.588 188.171,119.4 C190.483,119.252 192.226,120.814 192.64,121.596 C193.202,122.471 193.335,123.072 193.499,123.705 C195.522,132.861 199.046,179.338 204.226,206.025 C205.21,211.51 206.538,216.307 207.608,219.244 C211.569,213.775 218.757,202.525 226.577,189.971 C236.522,174.064 247.921,155.627 256.96,141.986 C263.062,132.807 267.78,126.041 271.249,122.76 C272.374,121.924 272.843,120.853 275.991,120.432 C277.577,120.213 279.89,121.4 280.546,122.65 C281.288,123.83 281.304,124.658 281.366,125.353 C281.366,125.822 281.358,126.182 281.335,126.65 C280.522,134.447 274.312,157.775 268.312,181.775 C263.765,199.721 259.405,218.228 257.741,228.885 C265.132,220.572 276.968,206.76 288.702,193.197 C304.89,174.564 320.515,156.666 326.655,151.768 C327.78,151.127 327.89,150.353 330.921,149.916 C331.843,149.807 333.671,150.205 334.741,151.377 C335.796,152.51 335.921,153.564 335.952,154.189 C335.976,154.58 335.944,154.814 335.944,154.877 L335.905,155.197 C335.429,157.775 333.874,161.385 331.374,167.213 C328.913,172.893 325.608,180.127 321.991,187.994 C314.694,203.76 306.093,222.064 300.218,235.088 C296.569,243.103 293.882,249.885 293.671,250.869 C293.601,253.025 291.694,254.822 289.296,254.932 C286.765,255.041 284.655,253.252 284.538,250.947" fill="url(#Gradient_12)"/>
    <path d="M97.616,130.994 C97.382,130.76 97.249,130.432 97.249,130.119 C97.249,129.775 97.382,129.463 97.616,129.228 C97.858,128.986 98.179,128.861 98.515,128.861 C98.843,128.861 99.171,128.986 99.39,129.228 C99.624,129.463 99.772,129.775 99.772,130.119 C99.772,130.432 99.624,130.76 99.39,130.994 C99.171,131.221 98.843,131.369 98.515,131.369 C98.179,131.369 97.858,131.221 97.616,130.994 z M158.374,225.236 C158.054,225.236 157.718,225.08 157.483,224.853 C157.265,224.619 157.14,224.307 157.14,223.978 C157.14,223.65 157.265,223.322 157.483,223.088 C157.718,222.861 158.054,222.736 158.374,222.736 L158.397,222.736 C158.71,222.736 159.038,222.861 159.272,223.088 C159.507,223.322 159.624,223.65 159.624,223.978 C159.624,224.307 159.507,224.619 159.272,224.853 C159.038,225.08 158.71,225.236 158.397,225.236 L158.374,225.236 z M289.062,253.674 L289.226,253.674 C291.054,253.588 292.397,252.244 292.437,250.588 C292.749,249.252 295.397,242.682 299.069,234.564 C304.96,221.518 313.562,203.236 320.835,187.455 C324.46,179.588 327.765,172.377 330.21,166.713 C332.702,160.9 334.257,157.275 334.655,155.033 L334.694,154.869 C334.694,154.697 334.694,154.635 334.694,154.447 C334.694,154.353 334.694,154.275 334.694,154.228 C334.655,153.728 334.616,153.096 333.812,152.221 C333.187,151.486 331.843,151.103 331.218,151.103 L331.093,151.135 C328.218,151.635 328.866,151.908 327.421,152.744 C321.515,157.424 305.796,175.4 289.624,194.01 C277.897,207.572 266.069,221.369 258.671,229.721 C258.288,230.119 257.702,230.244 257.202,230.01 C256.694,229.791 256.405,229.244 256.491,228.697 C258.163,217.932 262.546,199.416 267.077,181.455 C273.077,157.478 279.304,134.057 280.085,126.596 C280.108,126.135 280.108,125.791 280.108,125.439 C280.046,124.697 280.062,124.291 279.429,123.236 C279.226,122.627 277.327,121.533 276.358,121.619 L276.14,121.666 C273.249,122.119 273.452,122.666 272.093,123.65 C268.812,126.744 264.077,133.518 257.999,142.658 C248.96,156.275 237.562,174.713 227.624,190.627 C219.804,203.182 212.616,214.424 208.601,219.963 C208.327,220.346 207.866,220.525 207.405,220.471 C206.968,220.416 206.569,220.088 206.421,219.65 C205.327,216.635 203.991,211.791 202.983,206.252 C197.796,179.486 194.257,132.861 192.28,124.018 C192.093,123.338 192.038,123.01 191.546,122.189 C191.405,121.846 189.999,120.549 188.444,120.619 L188.257,120.635 C186.304,120.838 185.937,121.432 185.39,121.9 C183.765,123.76 183.265,125.439 181.991,128.713 C178.062,139.51 172.218,161.994 166.804,182.861 C164.101,193.291 161.499,203.275 159.358,211.096 C158.374,214.744 157.429,218.041 156.608,220.58 C156.46,221.041 156.077,221.369 155.601,221.439 C155.124,221.518 154.655,221.307 154.39,220.908 C152.437,218.002 149.812,213.744 147.218,208.83 C140.038,195.635 131.062,177.01 123.132,160.736 C115.14,144.291 108.491,130.619 105.14,126.174 C103.921,125.057 104.327,124.33 101.069,123.963 C99.226,123.986 98.007,125.478 97.858,125.885 C97.171,127.346 97.108,128.166 97.085,129.338 C97.085,129.869 97.124,130.51 97.124,131.275 C97.124,131.307 97.124,131.416 97.124,131.564 C97.616,141.986 102.265,166.822 106.858,190.791 C109.937,206.65 112.968,222.26 114.726,232.424 C114.812,232.994 114.515,233.541 114.015,233.775 C113.483,234.018 112.858,233.869 112.507,233.432 C110.319,230.744 107.78,227.525 105.124,223.994 C95.202,210.932 82.507,193.15 71.726,178.08 C66.312,170.549 61.39,163.728 57.507,158.518 C53.483,153.182 50.984,149.877 49.374,148.4 C48.218,147.736 48.804,147.494 46.14,147.135 L46.14,147.166 L46.093,147.166 L46.023,147.158 C44.663,147.088 43.14,148.994 43.085,149.307 C42.851,149.853 42.851,150.057 42.851,150.369 C42.851,150.463 42.851,150.541 42.867,150.666 C43.031,152.689 43.765,154.385 45.077,157.76 C49.593,168.83 60.429,191.228 70.28,211.205 C80.077,231.103 88.991,248.705 89.194,249.268 C89.616,250.353 90.874,251.15 92.265,251.15 C92.687,251.15 93.101,251.096 93.483,250.947 C94.858,250.424 95.64,249.268 95.64,248.174 C95.64,247.861 95.577,247.533 95.444,247.213 C94.858,245.83 83.546,223.541 72.108,200.166 C68.921,193.627 65.71,187.041 62.788,180.869 C62.515,180.283 62.733,179.588 63.28,179.26 C63.827,178.939 64.538,179.096 64.929,179.611 C73.569,191.65 83.577,205.744 92.515,217.822 C98.39,225.752 103.757,232.846 107.999,237.978 C110.132,240.572 111.983,242.619 113.53,244.174 C114.327,244.924 115.015,245.541 115.632,246.018 C116.804,246.643 116.905,247.103 119.046,247.236 C119.14,247.228 119.202,247.221 119.257,247.228 L119.272,247.228 C120.155,247.314 121.999,246.221 122.272,245.58 C122.819,244.65 122.819,244.213 122.858,243.666 C122.858,243.275 122.858,243.018 122.858,242.744 C122.53,236.353 118.015,213.76 113.405,189.791 C110.296,173.65 107.171,156.916 105.351,144.853 C105.272,144.252 105.624,143.682 106.21,143.494 C106.796,143.314 107.429,143.572 107.702,144.119 C108.515,145.744 109.382,147.447 110.241,149.221 C117.624,164.057 127.093,184.088 135.429,200.4 C139.624,208.572 143.522,215.791 146.796,221.057 C148.437,223.721 149.921,225.838 151.179,227.346 C153.21,229.189 153.108,230.353 157.007,230.744 C158.812,230.775 160.39,229.189 160.663,228.525 C162.233,225.463 164.226,218.244 167.007,207.971 C171.124,192.783 176.343,171.9 180.999,154.775 C182.538,149.26 183.983,144.103 185.296,139.721 C185.468,139.135 186.015,138.783 186.601,138.822 C187.194,138.877 187.655,139.322 187.733,139.932 C188.952,150.775 190.507,165.814 192.312,180.119 C193.835,192.088 195.554,203.713 197.53,212.416 C198.491,216.775 199.515,220.361 200.718,223.088 C201.366,224.51 201.929,225.627 202.819,226.666 C203.632,227.557 204.976,228.713 207.14,228.713 C207.14,228.713 207.374,228.728 207.28,228.728 C209.194,228.603 210.39,227.666 211.187,226.846 C214.015,223.783 218.866,216.4 225.21,206.455 C234.655,191.611 246.937,171.588 257.429,155.244 C261.483,148.908 265.296,143.119 268.522,138.439 C268.866,137.939 269.507,137.775 270.054,138.002 C270.624,138.252 270.897,138.861 270.765,139.447 C268.28,150.103 264.39,165.244 260.601,180.268 C254.741,203.775 249.077,226.869 249.108,236.135 C249.108,236.307 249.124,236.518 249.147,236.752 C249.202,237.814 249.257,238.564 249.733,239.791 C249.733,240.08 251.39,242.197 253.444,242.088 L253.64,242.088 C256.054,241.775 256.421,241.064 257.452,240.228 C263.28,234.4 281.022,213.51 298.101,193.861 C305.546,185.275 312.819,176.978 318.843,170.346 C319.249,169.885 319.929,169.814 320.452,170.158 C320.968,170.494 321.147,171.143 320.897,171.713 C314.882,185.111 306.202,203.525 298.999,219.135 C295.327,227.057 292.062,234.228 289.718,239.682 C288.562,242.432 287.593,244.736 286.921,246.455 C286.233,248.596 285.858,249.057 285.765,250.932 C285.835,252.353 287.233,253.65 289.062,253.674 z M289.062,256.166 C286.022,256.166 283.413,253.963 283.288,250.986 L284.53,250.947 L283.288,250.9 C283.358,248.541 283.944,247.533 284.569,245.619 C285.28,243.791 286.226,241.463 287.429,238.697 C289.796,233.205 293.062,226.01 296.733,218.096 C302.687,205.182 309.647,190.353 315.288,178.041 C310.546,183.361 305.319,189.353 299.983,195.494 C282.897,215.135 265.249,235.971 259.179,242.057 C258.374,242.768 256.929,244.322 253.757,244.572 C253.64,244.572 253.554,244.572 253.444,244.572 C249.952,244.463 247.796,242.111 247.358,240.572 C246.796,239.135 246.694,237.963 246.647,236.877 C246.647,236.697 246.624,236.432 246.624,236.135 C246.647,226.135 252.312,203.252 258.163,179.658 C261.218,167.557 264.335,155.385 266.733,145.549 C264.491,148.916 262.046,152.65 259.53,156.588 C249.062,172.9 236.772,192.932 227.312,207.783 C220.937,217.783 216.155,225.111 213.03,228.549 C211.983,229.658 210.155,231.064 207.374,231.213 L207.14,231.213 C204.015,231.213 201.96,229.494 200.921,228.291 C199.812,226.978 199.101,225.603 198.437,224.119 C197.14,221.127 196.077,217.385 195.093,212.978 C193.101,204.111 191.366,192.455 189.827,180.447 C188.335,168.697 187.038,156.463 185.937,146.463 C185.132,149.291 184.28,152.299 183.413,155.432 C178.78,172.502 173.562,193.393 169.421,208.627 C166.616,218.939 164.687,226.064 162.897,229.611 C162.163,231.143 160.132,233.096 156.952,233.244 C152.163,232.994 150.819,230.393 149.39,229.072 C147.866,227.307 146.358,225.08 144.671,222.377 C141.312,216.986 137.397,209.728 133.202,201.557 C125.249,185.994 116.304,167.15 109.116,152.588 C110.937,163.447 113.405,176.564 115.858,189.299 C120.452,213.361 124.976,235.713 125.343,242.635 C125.358,242.932 125.374,243.228 125.358,243.728 C125.343,244.408 125.233,245.58 124.413,246.853 C123.413,248.471 121.468,249.58 119.46,249.721 L119.257,249.728 L119.257,249.713 L119.194,249.744 C116.366,249.728 115.062,248.557 114.28,248.119 C113.405,247.463 112.608,246.752 111.78,245.947 C110.132,244.322 108.249,242.182 106.077,239.58 C101.765,234.353 96.374,227.244 90.522,219.322 C84.343,210.963 77.663,201.674 71.28,192.768 C72.296,194.869 73.327,196.978 74.351,199.072 C85.827,222.478 97.015,244.572 97.741,246.252 C98.007,246.853 98.132,247.533 98.132,248.174 C98.132,250.424 96.608,252.432 94.343,253.291 C93.647,253.549 92.937,253.65 92.265,253.65 C89.96,253.65 87.772,252.377 86.874,250.15 C86.874,250.111 77.772,232.072 68.03,212.314 C58.179,192.307 47.343,169.924 42.765,158.682 C41.484,155.361 40.601,153.439 40.367,150.861 C40.367,150.736 40.351,150.572 40.351,150.369 C40.351,149.916 40.398,149.197 40.671,148.619 C41.171,146.791 43.179,144.853 46.124,144.689 L46.14,144.666 C46.234,144.666 46.327,144.682 46.374,144.689 C49.327,144.728 50.468,146.221 50.757,146.353 C53.022,148.338 55.476,151.674 59.499,157.025 C63.421,162.268 68.327,169.103 73.765,176.635 C84.546,191.674 97.233,209.486 107.116,222.478 C108.601,224.447 110.046,226.307 111.405,228.049 C109.616,218.135 107.038,204.799 104.405,191.275 C99.812,167.236 95.155,142.51 94.64,131.619 C94.64,131.564 94.64,131.455 94.64,131.275 C94.64,130.596 94.585,129.971 94.585,129.338 C94.569,128.018 94.733,126.572 95.593,124.853 C96.155,123.619 97.89,121.643 101.108,121.478 C105.14,121.557 106.522,124.072 106.968,124.494 C110.827,129.611 117.351,143.158 125.397,159.619 C133.312,175.939 142.265,194.541 149.421,207.658 C151.374,211.33 153.343,214.666 155.015,217.299 C155.608,215.275 156.265,212.947 156.952,210.439 C159.093,202.635 161.687,192.658 164.39,182.236 C169.804,161.353 175.632,138.9 179.663,127.822 C180.897,124.697 181.515,122.557 183.601,120.15 C184.069,119.713 185.444,118.33 188.022,118.135 C188.132,118.135 188.257,118.119 188.444,118.119 C191.202,118.182 192.999,119.799 193.687,120.908 C194.343,121.916 194.546,122.775 194.694,123.416 C196.772,132.846 200.28,179.174 205.437,205.791 C206.187,209.924 207.14,213.682 208.007,216.494 C212.093,210.58 218.569,200.463 225.507,189.299 C235.444,173.4 246.843,154.947 255.897,141.291 C262.03,132.08 266.726,125.314 270.499,121.752 C271.28,121.166 272.405,119.564 275.788,119.189 C275.843,119.189 276.03,119.119 276.358,119.119 C278.444,119.213 280.585,120.275 281.593,121.978 C282.476,123.361 282.554,124.603 282.608,125.353 C282.608,125.83 282.608,126.213 282.577,126.775 C281.718,134.814 275.515,158.049 269.507,182.072 C265.546,197.76 261.694,213.885 259.694,224.76 C267.069,216.361 277.452,204.275 287.741,192.369 C303.968,173.705 319.515,155.869 326.03,150.666 C326.687,150.338 327.53,149.057 330.655,148.697 C330.835,148.635 331.03,148.635 331.218,148.635 C332.499,148.65 334.28,149.096 335.64,150.518 C336.96,151.885 337.171,153.4 337.194,154.189 C337.194,154.275 337.194,154.353 337.194,154.447 C337.194,154.682 337.171,154.869 337.171,155.01 L337.108,155.416 C336.593,158.26 335.015,161.869 332.515,167.697 C330.046,173.4 326.757,180.635 323.124,188.51 C315.827,204.275 307.202,222.588 301.358,235.588 C297.718,243.518 294.999,250.51 294.905,250.9 C294.812,253.799 292.327,256.049 289.296,256.166 L289.062,256.166" fill="#191613"/>
    <path d="M230.89,406.682 C230.866,406.635 228.374,402.525 223.39,393.627 C221.515,390.127 209.413,375.557 197.358,361.518 C185.194,347.275 172.827,333.119 168.968,328.119 C165.202,323.197 152.069,304.666 139.249,286.603 C126.522,268.682 113.874,250.947 112.265,249.096 L112.272,249.103 C110.718,247.268 111.093,244.643 113.077,243.228 C115.062,241.768 117.937,242.088 119.483,243.916 C121.89,246.752 134.038,263.885 146.913,282.002 C159.687,300.002 172.968,318.705 176.468,323.252 C179.882,327.728 192.421,342.119 204.546,356.322 C216.827,370.682 228.452,384.408 231.53,389.768 C236.483,398.588 238.882,402.58 238.89,402.588 C240.108,404.611 239.304,407.15 237.093,408.291 C236.452,408.603 235.757,408.783 235.085,408.822 C233.413,408.877 231.765,408.103 230.89,406.682 z" fill="url(#Gradient_13)"/>
    <path d="M234.89,407.557 L234.999,407.557 C235.522,407.541 236.046,407.393 236.483,407.189 C237.593,406.572 238.179,405.549 238.179,404.564 C238.179,404.103 238.077,403.666 237.999,403.463 C237.577,402.916 235.499,399.33 230.429,390.385 C227.515,385.275 215.843,371.447 203.593,357.111 C191.46,342.916 178.952,328.564 175.476,324.018 C171.921,319.408 158.655,300.713 145.874,282.728 C133.03,264.619 120.819,247.4 118.515,244.721 C117.851,243.932 116.882,243.525 115.874,243.525 C115.163,243.525 114.429,243.76 113.757,244.26 C112.929,244.807 112.546,245.65 112.53,246.51 C112.546,247.111 112.749,247.736 113.218,248.283 L113.241,248.314 C115.124,250.557 127.593,268.049 140.265,285.869 C153.062,303.932 166.218,322.478 169.952,327.346 C173.757,332.268 186.14,346.455 198.288,360.697 C210.397,374.799 222.382,389.189 224.46,393.002 C229.077,401.228 231.421,405.103 231.937,406.018 C232.507,406.932 233.679,407.557 234.89,407.557 z M234.89,410.057 C232.874,410.057 230.913,409.096 229.819,407.338 L230.89,406.682 L229.718,407.143 C229.694,407.143 227.226,403.041 222.28,394.197 C220.601,391.041 208.413,376.307 196.405,362.307 C184.233,348.072 171.89,333.947 167.976,328.861 C164.171,323.885 151.054,305.393 138.21,287.314 C125.741,269.736 113.233,252.228 111.405,250.002 L111.374,249.978 L111.374,249.971 L111.304,249.893 C110.476,248.908 110.038,247.713 110.038,246.51 C110.038,244.846 110.843,243.197 112.312,242.213 C113.39,241.432 114.64,241.041 115.874,241.041 C117.554,241.018 119.249,241.721 120.429,243.103 C122.952,246.064 135.03,263.135 147.929,281.26 C160.687,299.252 173.991,317.978 177.452,322.478 C180.796,326.869 193.366,341.299 205.499,355.502 C217.78,369.893 229.358,383.51 232.608,389.15 C236.937,396.853 239.312,400.861 239.827,401.744 L239.538,401.924 L239.96,401.947 C240.468,402.768 240.687,403.705 240.671,404.564 C240.671,406.557 239.515,408.385 237.632,409.408 C236.843,409.791 235.983,410.01 235.077,410.057 L234.89,410.057" fill="#191613"/>
    <path d="M242.265,391.221 C242.249,391.197 236.843,380.314 230.624,368.33 C224.429,356.4 217.226,343.08 214.413,339.307 C208.757,331.439 129.421,248.697 117.124,239.814 C115.187,238.385 114.882,235.728 116.483,233.939 C118.062,232.119 120.944,231.846 122.897,233.275 C137.382,244.119 214.671,324.885 221.983,334.588 C229.046,344.26 250.476,387.549 250.585,387.705 C251.624,389.807 250.608,392.291 248.312,393.26 C247.749,393.494 247.171,393.627 246.608,393.643 C244.812,393.728 243.054,392.814 242.265,391.221 z" fill="url(#Gradient_14)"/>
    <path d="M246.358,392.385 L246.546,392.385 C246.96,392.369 247.405,392.291 247.796,392.119 C249.022,391.557 249.718,390.463 249.718,389.416 C249.718,389.018 249.624,388.619 249.538,388.408 C249.265,387.947 227.921,344.822 220.968,335.338 C213.882,325.893 136.335,244.846 122.147,234.26 C121.522,233.799 120.812,233.588 120.038,233.588 C119.03,233.588 118.062,234.01 117.374,234.807 C116.874,235.307 116.687,235.893 116.655,236.564 C116.687,237.369 117.062,238.197 117.843,238.783 C130.483,247.978 209.499,330.393 215.405,338.564 C218.343,342.525 225.507,355.76 231.718,367.744 C237.999,379.838 243.28,390.424 243.444,390.822 C243.983,391.752 245.14,392.385 246.358,392.385 z M246.358,394.885 C244.194,394.885 242.124,393.752 241.14,391.76 L242.249,391.213 L241.054,391.611 C241.03,391.596 235.671,380.783 229.507,368.9 C223.343,357.002 216.077,343.619 213.397,340.033 C207.999,332.463 128.327,249.385 116.366,240.791 C114.968,239.768 114.171,238.174 114.171,236.564 C114.171,235.322 114.608,234.025 115.53,233.103 C116.687,231.768 118.358,231.096 120.038,231.096 C121.265,231.072 122.546,231.455 123.64,232.268 C138.405,243.369 215.429,323.877 222.976,333.853 C230.163,343.674 251.546,386.947 251.694,387.15 C252.062,387.885 252.226,388.666 252.202,389.416 C252.202,391.525 250.866,393.478 248.788,394.4 C248.093,394.689 247.358,394.869 246.608,394.885 L246.358,394.885" fill="#191613"/>
    <path d="M246.015,359.189 C245.999,359.166 243.882,353.096 240.733,345.478 C237.585,337.885 233.374,328.752 229.593,323.127 C225.64,317.213 211.616,297.869 196.64,278.549 C181.726,259.291 165.39,239.619 157.897,233.728 C155.999,232.221 155.819,229.572 157.483,227.822 C159.147,226.072 162.03,225.885 163.921,227.385 C173.046,234.721 188.89,254.119 204.101,273.674 C219.218,293.166 233.179,312.424 237.397,318.705 C246.062,331.744 254.647,356.408 254.726,356.557 C255.483,358.76 254.171,361.127 251.772,361.853 C251.366,361.978 250.968,362.041 250.562,362.072 C248.554,362.15 246.679,361.01 246.015,359.189 z" fill="url(#Gradient_15)"/>
    <path d="M250.366,360.807 L250.468,360.822 C250.788,360.783 251.101,360.744 251.374,360.658 C252.796,360.197 253.655,358.986 253.655,357.807 C253.655,357.494 253.608,357.221 253.608,357.143 C253.39,356.65 244.897,332.268 236.343,319.4 C232.171,313.158 218.202,293.9 203.093,274.432 C187.929,254.9 172.038,235.478 163.132,228.361 C162.483,227.838 161.702,227.603 160.937,227.603 C159.999,227.603 159.046,227.978 158.358,228.713 C157.812,229.244 157.585,229.885 157.562,230.58 C157.585,231.361 157.921,232.15 158.671,232.736 C166.405,238.861 182.663,258.471 197.624,277.768 C212.624,297.135 226.624,316.447 230.624,322.416 C234.499,328.205 238.718,337.353 241.882,345.002 C244.921,352.353 246.991,358.236 247.163,358.752 L247.187,358.752 C247.593,359.924 248.89,360.807 250.366,360.807 z M250.366,363.307 C247.937,363.307 245.671,361.9 244.827,359.611 L245.999,359.189 L244.812,359.572 C244.812,359.572 242.694,353.518 239.546,345.947 C236.437,338.385 232.226,329.291 228.554,323.822 C224.64,317.947 210.593,298.596 195.632,279.299 C180.78,260.103 164.351,240.361 157.124,234.713 C155.78,233.666 155.062,232.111 155.085,230.58 C155.062,229.299 155.554,227.939 156.562,226.955 C157.733,225.713 159.327,225.111 160.937,225.111 C162.233,225.088 163.569,225.51 164.702,226.408 C174.03,233.932 189.827,253.314 205.085,272.9 C220.21,292.416 234.171,311.674 238.421,318.002 C247.202,331.197 255.765,355.939 255.897,356.15 C256.077,356.721 256.171,357.268 256.147,357.807 C256.147,360.182 254.507,362.268 252.108,363.049 C251.616,363.197 251.124,363.275 250.554,363.307 L250.366,363.307" fill="#191613"/>
    <path d="M250.577,325.291 C250.562,325.275 247.694,315.697 244.28,305.244 C240.976,294.924 236.796,283.228 235.272,280.822 C231.249,274.174 210.733,242.158 200.155,225.932 C198.843,223.955 199.562,221.377 201.726,220.189 C203.913,218.986 206.702,219.619 207.999,221.596 C218.647,237.939 239.069,269.76 243.257,276.728 C245.858,281.119 249.538,292.119 253.046,302.783 C256.483,313.33 259.382,323.002 259.382,323.01 C260.062,325.244 258.632,327.557 256.202,328.182 C255.843,328.26 255.483,328.33 255.155,328.33 C253.093,328.432 251.14,327.213 250.577,325.291 z" fill="url(#Gradient_16)"/>
    <path d="M254.897,327.08 L255.155,327.08 C255.296,327.08 255.593,327.033 255.866,326.978 C257.358,326.557 258.28,325.314 258.28,324.119 C258.28,323.853 258.241,323.596 258.132,323.01 L258.046,322.916 C257.968,322.635 257.843,322.221 257.671,321.689 C257.358,320.603 256.874,319.072 256.304,317.213 C255.155,313.478 253.562,308.432 251.843,303.166 C248.366,292.541 244.64,281.486 242.187,277.353 C238.015,270.439 217.585,238.603 206.937,222.268 C206.335,221.338 205.241,220.822 204.093,220.791 C203.483,220.791 202.874,220.971 202.28,221.283 C201.233,221.846 200.718,222.807 200.718,223.775 C200.718,224.252 200.866,224.736 201.202,225.236 C211.78,241.478 232.272,273.478 236.312,280.135 C238.03,282.932 242.093,294.432 245.452,304.846 C248.655,314.65 251.382,323.705 251.718,324.814 L251.202,324.971 L250.562,325.291 L251.765,324.947 C252.093,326.135 253.413,327.08 254.897,327.08 z M254.897,329.572 C252.507,329.572 250.218,328.166 249.437,325.838 L249.429,325.838 C249.265,325.385 246.538,316.166 243.085,305.619 C239.819,295.393 235.522,283.518 234.194,281.455 C230.202,274.853 209.663,242.822 199.101,226.619 C198.53,225.744 198.218,224.76 198.218,223.775 C198.218,221.885 199.272,220.041 201.093,219.072 C202.038,218.557 203.062,218.307 204.093,218.307 C205.991,218.307 207.905,219.197 209.03,220.9 C219.702,237.268 240.085,269.057 244.327,276.072 C247.069,280.744 250.687,291.682 254.218,302.393 C257.694,313.166 260.499,322.197 260.562,322.658 C260.71,323.135 260.788,323.627 260.765,324.119 C260.765,326.572 258.991,328.697 256.452,329.385 C256.077,329.486 255.64,329.572 255.155,329.572 L254.897,329.572" fill="#191613"/>
    <path d="M267.14,287.494 C264.976,286.478 264.077,284.143 265.007,282.135 C265.03,282.01 265.03,281.775 265.03,281.478 C264.921,274.533 253.733,249.072 248.999,236.213 C248.202,234.018 249.515,231.643 251.905,230.9 C254.304,230.15 256.89,231.338 257.671,233.525 C262.218,246.353 273.476,270.424 274.155,281.072 C274.179,282.502 274.187,283.869 273.288,285.603 L273.288,285.627 C272.507,287.01 270.991,287.853 269.39,287.916 C268.632,287.947 267.851,287.822 267.14,287.494 z" fill="url(#Gradient_17)"/>
    <path d="M269.108,285.4 C269.358,285.4 269.382,285.4 269.296,285.4 C270.046,285.385 270.71,285.002 271.03,284.502 C271.562,283.369 271.624,282.728 271.624,281.635 C271.624,281.369 271.64,281.182 271.64,281.174 C271.101,271.533 259.921,247.236 255.319,234.369 C255.085,233.705 254.312,233.158 253.366,233.135 C253.163,233.158 252.944,233.174 252.593,233.283 C251.671,233.557 251.249,234.268 251.249,234.877 C251.249,235.025 251.28,235.166 251.335,235.338 C256.03,248.283 267.202,273.08 267.515,281.463 C267.515,281.799 267.538,281.963 267.452,282.533 L267.226,283.26 C267.187,283.353 267.14,283.494 267.116,283.752 C267.14,284.268 267.405,284.822 268.163,285.205 L268.163,285.197 C268.397,285.322 268.757,285.4 269.108,285.4 z M269.108,290.393 C268.085,290.393 267.062,290.189 266.093,289.768 L267.14,287.478 L266.054,289.744 C263.655,288.619 262.124,286.26 262.124,283.752 C262.124,283.049 262.233,282.291 262.53,281.541 L262.53,281.51 C262.616,275.978 251.421,249.838 246.655,237.088 C246.366,236.361 246.249,235.603 246.249,234.877 C246.249,231.932 248.257,229.338 251.132,228.494 C251.812,228.291 252.577,228.15 253.366,228.15 C256.202,228.15 258.96,229.807 260.015,232.682 C264.483,245.416 275.796,269.182 276.624,281.064 C276.624,281.432 276.624,281.611 276.624,281.635 C276.624,283.002 276.483,284.775 275.522,286.697 L275.499,286.689 L275.452,286.846 C274.202,289.072 271.874,290.314 269.382,290.393 C269.124,290.393 269.108,290.393 269.108,290.393" fill="#191613"/>
    <path d="M110.562,285.736 C108.062,285.353 106.39,283.205 106.827,280.932 C106.827,280.869 112.382,251.291 113.358,240.494 C113.569,238.205 115.788,236.478 118.296,236.643 C120.819,236.83 122.687,238.853 122.468,241.15 C121.39,252.791 115.827,282.213 115.827,282.275 C115.452,284.275 113.624,285.705 111.522,285.783 C111.187,285.791 110.874,285.783 110.562,285.736 z" fill="url(#Gradient_18)"/>
    <path d="M111.288,284.502 C111.515,284.525 111.515,284.541 111.468,284.525 C113.046,284.463 114.358,283.393 114.569,282.268 C114.608,281.721 120.132,252.658 121.218,241.244 C121.202,240.986 121.218,240.822 121.218,240.783 C121.218,239.353 120.007,238.018 118.015,237.853 L117.952,237.853 C116.155,237.853 114.718,239.15 114.585,240.588 C113.632,251.408 108.015,280.885 107.999,281.338 C107.999,281.338 107.976,281.408 107.976,281.635 C107.976,282.932 109.038,284.228 110.741,284.486 C110.944,284.494 111.132,284.502 111.288,284.502 z M111.288,286.994 C110.968,286.994 110.702,286.978 110.507,286.978 L110.554,285.736 L110.358,286.955 C107.577,286.533 105.483,284.322 105.483,281.635 C105.483,281.338 105.468,280.971 105.577,280.932 C105.608,280.385 111.108,251.15 112.093,240.361 C112.39,237.432 115.007,235.361 117.952,235.361 C117.976,235.361 118.233,235.346 118.374,235.385 C121.343,235.588 123.71,237.893 123.71,240.783 C123.71,240.971 123.71,241.025 123.71,241.26 C122.624,252.916 117.015,282.221 117.038,282.494 C116.546,285.15 114.187,286.924 111.515,287.01 C111.288,287.01 111.288,286.994 111.288,286.994" fill="#191613"/>
    <path d="M118.007,325.119 C115.53,324.533 114.093,322.244 114.726,320.025 C114.741,320.002 116.054,315.494 117.421,310.15 C118.788,304.877 120.194,298.627 120.374,296.096 C120.765,292.9 122.655,288.916 125.452,282.51 C128.257,276.338 131.952,268.666 135.757,260.939 C143.405,245.478 151.515,229.697 153.562,225.518 C154.593,223.4 157.296,222.455 159.593,223.385 C161.89,224.299 162.921,226.775 161.89,228.885 C157.944,236.853 132.866,285.525 129.733,295.76 C129.546,296.361 129.483,296.611 129.483,296.619 C128.866,303.932 123.601,321.916 123.577,322.103 C123.054,323.916 121.296,325.158 119.343,325.244 C118.89,325.268 118.444,325.228 118.007,325.119 z" fill="url(#Gradient_19)"/>
    <path d="M119.116,323.978 L119.296,323.994 C120.757,323.916 122.03,322.971 122.319,321.963 C122.429,321.361 127.624,303.635 128.233,296.619 C128.312,295.908 128.327,296.166 128.522,295.385 C131.78,284.838 156.812,236.322 160.733,228.393 C160.944,227.932 161.022,227.51 161.022,227.15 C161.022,226.103 160.358,225.025 159.101,224.51 C158.655,224.33 158.218,224.26 157.741,224.26 C156.421,224.26 155.202,224.971 154.663,226.064 C152.616,230.275 144.507,246.025 136.874,261.478 C133.062,269.197 129.382,276.853 126.601,282.994 C123.765,289.416 121.929,293.4 121.608,296.182 C121.405,298.916 119.999,305.119 118.624,310.447 C117.069,316.103 116.312,319.713 115.874,320.478 C115.835,320.572 115.796,320.775 115.796,321.064 C115.796,322.26 116.687,323.478 118.21,323.869 C118.522,323.939 118.835,323.978 119.116,323.978 z M119.116,326.463 C118.624,326.463 118.179,326.408 117.78,326.338 L117.999,325.111 L117.702,326.322 C115.124,325.713 113.312,323.541 113.312,321.064 C113.312,320.728 113.319,320.307 113.593,319.619 L113.53,319.603 L113.53,319.58 L113.562,319.486 L113.577,319.424 C113.624,319.299 113.679,319.111 113.749,318.869 C113.89,318.369 114.101,317.635 114.351,316.728 C114.851,314.955 115.522,312.478 116.21,309.822 C117.554,304.611 118.952,298.291 119.116,295.932 C119.585,292.393 121.515,288.416 124.312,281.994 C127.116,275.791 130.819,268.119 134.64,260.369 C142.272,244.9 150.39,229.103 152.421,224.971 C153.421,222.9 155.546,221.768 157.741,221.768 C158.476,221.752 159.28,221.877 160.038,222.213 C162.194,223.072 163.53,225.041 163.515,227.15 C163.53,227.932 163.327,228.666 162.999,229.432 C159.062,237.369 133.944,286.197 130.921,296.135 C130.819,296.408 130.757,296.619 130.718,296.752 C130.077,304.228 124.772,322.197 124.772,322.447 C124.062,324.838 121.827,326.377 119.335,326.486 L119.116,326.463" fill="#191613"/>
    <path d="M122.585,358.861 C120.288,357.932 119.272,355.447 120.312,353.353 C120.343,353.275 125.897,341.924 129.647,335.83 C131.179,333.393 137.812,320.471 144.819,307.299 C151.937,293.963 159.374,280.346 163.835,274.611 C171.796,264.463 202.108,226.166 205.007,222.502 C206.515,220.627 209.358,220.213 211.405,221.572 C213.421,222.924 213.874,225.541 212.382,227.4 C209.515,230.994 179.155,269.369 171.226,279.455 C167.741,283.861 159.999,297.807 153.03,310.916 C145.976,324.174 139.616,336.611 137.585,339.916 C134.233,345.314 128.64,356.713 128.632,356.728 C127.89,358.228 126.304,359.135 124.64,359.221 C123.952,359.252 123.257,359.135 122.585,358.861 z" fill="url(#Gradient_20)"/>
    <path d="M124.413,357.939 L124.562,357.963 C125.835,357.9 126.991,357.189 127.507,356.166 C127.507,356.135 133.101,344.744 136.491,339.244 C138.468,336.072 144.874,323.572 151.913,310.314 C158.905,297.158 166.593,283.283 170.233,278.674 C178.171,268.572 208.522,230.205 211.366,226.65 C211.78,226.064 211.983,225.471 211.983,224.916 C211.983,224.033 211.562,223.174 210.679,222.588 C210.093,222.166 209.405,221.994 208.71,221.994 C207.64,221.994 206.616,222.463 205.983,223.275 C203.077,226.916 172.772,265.228 164.812,275.361 C160.476,280.908 153.022,294.564 145.921,307.885 C138.882,321.057 132.312,333.9 130.687,336.478 C127.03,342.4 121.46,353.752 121.39,353.955 C121.21,354.275 121.147,354.635 121.124,355.049 C121.14,356.103 121.78,357.158 123.007,357.666 C123.476,357.853 123.952,357.939 124.413,357.939 z M124.413,360.432 C123.624,360.432 122.858,360.283 122.147,360.033 L122.585,358.861 L122.108,360.01 C119.968,359.15 118.632,357.166 118.632,355.049 C118.632,354.299 118.78,353.478 119.14,352.916 C119.265,352.557 124.741,341.416 128.577,335.158 C130.03,332.853 136.702,319.869 143.718,306.689 C150.843,293.353 158.241,279.76 162.843,273.83 C170.796,263.674 201.101,225.369 204.022,221.697 C205.171,220.268 206.929,219.502 208.71,219.502 C209.843,219.486 211.054,219.799 212.077,220.525 C213.647,221.557 214.491,223.213 214.468,224.916 C214.491,226.064 214.093,227.166 213.358,228.174 C210.483,231.76 180.124,270.127 172.202,280.213 C168.874,284.408 161.062,298.416 154.124,311.51 C147.069,324.744 140.749,337.143 138.632,340.557 C135.351,345.853 129.749,357.268 129.733,357.268 C128.765,359.244 126.757,360.353 124.624,360.447 L124.413,360.432" fill="#191613"/>
    <path d="M142.999,389.385 C140.679,388.447 139.647,385.971 140.702,383.869 C141.718,381.83 151.28,366.119 161.647,348.877 C171.913,331.791 182.812,313.572 185.468,308.494 C188.812,302.236 201.444,286.166 214.827,269.541 C228.132,253.01 241.882,236.541 246.687,231.01 C248.249,229.189 251.108,228.885 253.093,230.322 C255.062,231.744 255.374,234.369 253.804,236.182 C249.179,241.541 235.39,258.049 222.155,274.478 C208.96,290.775 195.976,307.603 193.687,312.08 C190.741,317.713 179.968,335.705 169.624,352.861 C159.405,369.853 149.413,386.432 149.038,387.244 C148.296,388.752 146.726,389.658 145.046,389.728 C144.358,389.768 143.671,389.658 142.999,389.385 z" fill="url(#Gradient_21)"/>
    <path d="M144.765,388.471 C144.929,388.471 145.015,388.471 144.999,388.471 C146.249,388.408 147.397,387.736 147.89,386.728 C148.405,385.635 158.296,369.252 168.546,352.197 C178.874,335.057 189.663,317.041 192.554,311.51 C195.03,306.713 207.937,290.049 221.179,273.682 C234.421,257.236 248.21,240.744 252.819,235.385 C253.319,234.775 253.53,234.143 253.53,233.541 C253.53,232.713 253.155,231.908 252.343,231.322 C251.702,230.861 250.991,230.65 250.241,230.627 C249.257,230.627 248.265,231.049 247.624,231.822 C242.827,237.338 229.077,253.799 215.796,270.314 C202.429,286.908 189.749,303.057 186.562,309.072 C183.866,314.228 172.983,332.416 162.702,349.51 C152.351,366.721 142.733,382.541 141.765,384.502 C141.601,384.807 141.515,385.135 141.515,385.557 C141.515,386.619 142.187,387.697 143.468,388.213 L143.452,388.236 C143.882,388.393 144.335,388.471 144.765,388.471 z M144.765,390.963 C143.991,390.963 143.249,390.814 142.538,390.541 L142.983,389.385 L142.515,390.541 C140.374,389.658 138.999,387.697 139.022,385.557 C138.999,384.807 139.171,383.986 139.569,383.291 C140.679,381.096 150.171,365.502 160.562,348.236 C170.827,331.143 181.749,312.893 184.358,307.9 C187.866,301.385 200.437,285.4 213.843,268.744 C227.155,252.213 240.913,235.736 245.718,230.189 C246.89,228.853 248.562,228.135 250.241,228.135 C251.46,228.135 252.733,228.486 253.804,229.291 C255.249,230.314 256.046,231.924 256.022,233.541 C256.046,234.76 255.585,235.947 254.741,236.994 C250.132,242.338 236.358,258.83 223.101,275.26 C209.968,291.478 196.89,308.471 194.78,312.658 C191.78,318.385 181.03,336.307 170.679,353.494 C160.499,370.432 150.397,387.189 150.14,387.791 C149.171,389.744 147.171,390.885 145.038,390.963 C144.851,390.963 144.765,390.963 144.765,390.963" fill="#191613"/>
    <path d="M203.632,399.697 C201.101,399.525 199.233,397.51 199.452,395.205 C199.874,392.228 201.874,387.549 205.03,379.721 C208.179,372.15 212.39,362.478 216.835,352.611 C225.749,332.814 235.39,312.51 239.655,305.807 C247.304,293.908 275.921,254.455 283.288,243.65 C282.702,240.197 281.179,231.369 279.562,222.189 C279.437,221.541 279.327,220.9 279.218,220.244 C278.093,227.775 277.007,234.697 276.14,237.861 C273.054,247.393 260.522,256.916 253.015,266.799 C245.124,276.83 218.89,309.744 214.437,317.58 C212.233,321.338 204.46,338.697 196.679,355.807 C188.78,373.135 181.015,390.072 177.272,395.596 C175.913,397.557 173.093,398.135 170.968,396.932 C168.827,395.697 168.202,393.127 169.562,391.166 C172.28,387.307 180.515,369.697 188.249,352.635 C196.101,335.385 203.608,318.564 206.358,313.721 C211.812,304.346 237.608,272.166 245.601,261.947 C253.983,251.557 266.452,240.432 267.296,235.838 C268.749,230.783 272.147,204.197 273.78,196.072 C274.077,194.736 274.046,194.26 274.765,192.783 C275.163,192.541 274.937,191.057 278.757,190.369 C280.093,190.236 281.757,191.041 282.28,191.682 C282.929,192.291 283.085,192.689 283.288,193.119 C283.726,194.299 283.78,194.893 284.147,196.588 C284.452,198.119 284.851,200.166 285.28,202.549 C286.202,207.353 287.296,213.525 288.366,219.65 C290.546,231.869 292.585,243.822 292.585,243.822 C292.741,244.799 292.53,245.814 291.96,246.666 C286.132,255.471 255.218,298.018 247.538,310.002 C240.476,320.775 210.437,387.807 208.577,395.728 C208.554,395.83 208.554,395.83 208.562,395.83 C208.358,397.978 206.468,399.603 204.202,399.697 C204.015,399.713 203.812,399.713 203.632,399.697 z" fill="url(#Gradient_22)"/>
    <path d="M204.147,398.447 C205.843,398.361 207.187,397.15 207.327,395.596 L207.351,395.432 C209.358,387.041 239.233,320.439 246.468,309.307 C254.202,297.26 285.124,254.713 290.897,246.01 C291.21,245.478 291.374,244.916 291.374,244.416 C291.374,244.268 291.358,244.119 291.335,244.018 C291.335,243.994 289.296,232.064 287.116,219.869 C286.054,213.744 284.96,207.557 284.038,202.76 C283.624,200.393 283.218,198.353 282.905,196.846 C282.53,195.088 282.507,194.603 282.147,193.643 C281.905,193.158 281.921,193.096 281.312,192.463 C281.21,192.236 279.843,191.51 279.046,191.564 L278.96,191.588 C275.249,192.627 277.007,192.338 275.89,193.322 C275.233,194.666 275.319,194.853 274.999,196.322 C273.366,204.377 270.007,230.853 268.499,236.064 C267.241,241.713 254.882,252.275 246.577,262.689 C238.593,272.9 212.741,305.189 207.437,314.33 C204.772,319.041 197.226,335.916 189.358,353.15 C181.608,370.26 173.476,387.736 170.546,391.924 C170.202,392.369 170.054,392.853 170.054,393.4 C170.054,394.299 170.562,395.236 171.569,395.83 C172.077,396.127 172.718,396.291 173.343,396.291 C174.507,396.291 175.608,395.76 176.226,394.885 C179.827,389.58 187.64,372.58 195.53,355.268 C203.327,338.135 211.046,320.885 213.343,316.947 C217.952,308.869 244.116,276.088 252.007,266.025 C259.694,256.01 272.147,246.377 274.921,237.541 C275.757,234.51 276.843,227.557 277.976,220.049 C278.062,219.447 278.577,218.986 279.194,218.986 C279.804,218.986 280.327,219.424 280.444,220.033 C280.554,220.658 280.663,221.307 280.788,221.963 C282.397,231.143 283.937,239.971 284.515,243.432 L284.304,244.346 C276.929,255.189 248.296,294.643 240.71,306.463 C236.53,313.002 226.851,333.361 217.952,353.103 C213.546,362.978 209.327,372.635 206.179,380.166 C203.077,387.846 201.101,392.549 200.608,395.541 L200.671,395.541 C200.671,396.947 201.851,398.275 203.64,398.439 C203.812,398.439 203.905,398.447 203.913,398.447 L204.03,398.432 L204.147,398.447 z M203.913,400.939 L203.765,400.939 L203.624,399.689 L203.515,400.939 C200.546,400.736 198.171,398.432 198.171,395.541 C198.187,395.471 198.085,395.268 198.21,395.033 C198.702,391.697 200.71,387.08 203.858,379.221 C207.015,371.666 211.226,361.978 215.671,352.08 C224.624,332.244 234.226,311.994 238.593,305.119 C246.187,293.307 274.179,254.697 281.96,243.369 C281.46,240.432 280.444,234.58 279.296,227.963 C278.593,232.346 277.921,236.041 277.312,238.244 C273.952,248.393 261.335,257.807 253.991,267.549 C246.108,277.549 219.827,310.588 215.507,318.205 C213.39,321.791 205.577,339.228 197.819,356.307 C189.89,373.674 182.171,390.518 178.28,396.307 C177.124,397.939 175.241,398.783 173.343,398.783 C172.319,398.783 171.28,398.525 170.327,398.01 C168.593,397.002 167.546,395.236 167.562,393.4 C167.546,392.393 167.843,391.322 168.53,390.439 C171.062,386.853 179.39,369.119 187.108,352.103 C194.968,334.846 202.429,318.08 205.265,313.088 C210.858,303.486 236.601,271.408 244.624,261.143 C253.054,250.822 265.655,239.135 266.069,235.478 C267.476,230.705 270.897,204.018 272.546,195.775 C272.812,194.666 272.858,193.916 273.905,192.041 L273.804,191.986 L273.89,191.822 C274.015,191.603 274.226,191.228 274.577,190.869 C275.288,190.119 276.468,189.486 278.499,189.135 C278.577,189.111 278.78,189.072 279.046,189.072 C280.788,189.135 282.319,189.846 283.132,190.76 C283.913,191.455 284.249,192.189 284.452,192.682 C284.937,193.978 284.999,194.689 285.358,196.338 C285.671,197.869 286.069,199.924 286.491,202.299 C287.405,207.119 288.522,213.307 289.585,219.424 C291.772,231.643 293.804,243.596 293.804,243.635 C293.843,243.908 293.866,244.182 293.866,244.416 C293.866,245.463 293.53,246.447 292.983,247.346 C287.116,256.213 256.218,298.752 248.569,310.674 C241.687,321.096 211.483,388.541 209.804,395.932 L209.804,395.947 C209.507,398.783 207.077,400.814 204.202,400.939 C204.077,400.939 203.983,400.939 203.913,400.939" fill="#191613"/>
    <path d="M14.921,163.932 L14.898,163.932 L14.921,163.932 z M233.108,424.119 C232.265,422.947 231.874,421.9 231.538,420.822 C230.921,418.666 230.671,416.26 230.429,413.752 C230.351,412.713 230.288,411.643 230.187,410.557 C230.054,410.861 229.897,411.135 229.765,411.432 C226.937,416.611 224.147,422.744 217.819,425.994 C216.913,426.408 215.866,426.713 214.671,426.768 C212.89,426.9 210.835,426.057 209.78,424.971 C208.679,423.877 208.202,422.783 207.827,421.76 C207.163,419.697 207.007,417.588 206.913,415.283 C206.772,412.385 206.812,409.197 206.702,406.338 C206.624,403.635 206.226,401.135 205.78,399.822 C205.546,400.08 205.249,400.385 204.968,400.744 C203.671,402.377 202.108,404.978 200.507,407.814 C197.155,413.518 194.03,420.049 188.843,424.033 C187.655,424.877 186.265,425.682 184.187,425.814 C181.726,425.994 179.46,424.455 178.64,423.182 C177.694,421.885 177.304,420.666 176.952,419.408 C176.312,416.924 176.03,414.111 175.702,411.205 C175.358,406.635 174.101,401.986 173.077,400.228 C173.007,400.314 172.937,400.424 172.89,400.525 C171.983,401.978 170.913,404.424 169.78,407.111 C167.312,412.471 164.968,419.088 158.476,422.916 C157.452,423.439 156.226,423.916 154.702,423.986 C152.226,424.135 149.929,422.846 148.804,421.51 C147.577,420.158 146.921,418.752 146.358,417.221 C145.272,414.221 144.718,410.666 144.226,406.932 C143.679,402.15 143.202,396.838 142.64,393.088 C142.249,393.752 141.882,394.486 141.483,395.26 C139.147,399.721 136.616,405.338 134.038,409.666 C132.124,412.588 130.976,415.033 127.116,416.838 C126.491,417.064 125.765,417.197 125.124,417.228 C123.491,417.346 121.687,416.572 120.819,415.658 C119.874,414.736 119.468,413.877 119.171,413.088 C118.601,411.486 118.452,409.932 118.343,408.127 C117.952,398.072 121.21,378.603 121.21,367.58 C121.21,366.791 121.179,365.932 121.14,364.963 C120.397,346.955 111.796,297.736 106.937,282.814 C102.312,267.885 74.96,234.424 66.03,223.025 C59.749,214.924 36.265,187.338 22.867,172.541 C18.702,167.916 15.156,164.275 14.343,163.666 C12.452,162.557 11.671,160.338 12.624,158.408 C13.671,156.299 16.367,155.338 18.671,156.26 C20.156,156.963 20.312,157.299 20.992,157.846 C21.577,158.369 22.226,158.994 22.984,159.768 C24.492,161.275 26.413,163.314 28.64,165.76 C33.109,170.635 38.804,177.111 44.695,183.885 C56.483,197.471 68.913,212.236 73.483,218.158 C82.343,229.713 109.718,262.275 115.71,280.393 C120.921,296.822 129.382,345.166 130.28,364.541 C130.319,365.619 130.351,366.596 130.351,367.541 C130.296,377.666 127.999,393.314 127.53,403.01 C128.187,401.799 128.858,400.463 129.546,399.096 C132.499,393.275 135.062,387.268 138.468,383.572 C139.53,382.557 140.835,381.221 143.671,380.986 C145.218,380.869 147.038,381.596 147.983,382.455 C150.71,385.15 150.765,387.533 151.483,390.627 C152.015,393.674 152.374,397.236 152.741,400.807 C153.171,406.338 154.233,412.369 155.132,414.893 C158.476,411.877 161.624,402.478 164.905,396.494 C166.28,394.377 168.124,391.557 172.562,391.143 C174.562,391.049 176.405,391.768 177.772,392.705 C182.858,396.478 183.437,401.932 184.351,406.963 C184.733,409.932 185.062,413.002 185.421,415.244 C186.827,413.471 188.437,410.978 189.937,408.314 C192.421,404.033 194.812,399.4 197.608,395.861 C199.515,393.627 201.538,391.135 205.89,390.744 C207.358,390.658 208.968,391.064 210.194,391.768 C213.163,393.486 214.171,396.057 214.851,398.393 C215.483,400.791 215.702,403.361 215.819,405.947 C215.968,409.111 215.913,412.307 216.022,414.893 C216.054,415.478 216.069,416.025 216.14,416.533 C217.546,414.9 219.171,412.447 220.515,409.799 C222.929,405.369 224.53,401.064 227.28,397.963 C228.163,397.103 229.413,395.861 232.007,395.674 C232.046,395.674 232.812,395.58 233.765,395.853 L233.765,395.861 C236.187,396.525 237.038,398.127 237.499,398.986 C238.007,400.049 238.241,401.018 238.452,402.072 C238.835,404.143 239.03,406.51 239.226,408.947 C239.226,409.111 239.226,409.275 239.249,409.447 C239.78,406.721 240.327,403.518 240.89,399.971 C242.608,389.033 244.413,374.713 246.515,359.689 C250.835,329.564 255.944,297.228 265.233,281.713 C277.39,261.877 340.991,182.588 350.14,172.611 C357.327,164.814 358.257,160.244 358.335,159.838 C358.593,157.572 360.788,155.869 363.257,156.057 C365.78,156.228 367.64,158.244 367.429,160.549 C367.358,161.447 366.382,167.971 357.116,177.978 C348.788,186.916 284.312,267.4 273.187,285.76 C266.437,296.619 261.077,323.15 257.202,349.424 C253.233,375.861 250.421,402.221 247.296,415.182 C246.249,419.01 245.812,421.416 243.515,423.994 C242.343,425.088 241.015,426.322 238.312,426.541 L238.218,426.541 C235.819,426.666 233.843,425.205 233.108,424.119" fill="url(#Gradient_23)"/>
    <path d="M206.022,398.588 C206.46,398.674 206.804,398.986 206.952,399.408 C207.476,400.939 207.851,403.478 207.937,406.283 C208.062,409.182 208.015,412.377 208.14,415.228 C208.249,417.51 208.397,419.486 208.999,421.33 C209.343,422.299 209.718,423.135 210.663,424.072 C211.312,424.791 212.999,425.525 214.296,425.51 C214.405,425.51 214.546,425.51 214.608,425.51 C215.608,425.463 216.491,425.205 217.233,424.877 C223.101,421.877 225.812,416.088 228.624,410.885 C228.788,410.518 228.944,410.275 229.022,410.057 C229.233,409.533 229.804,409.221 230.366,409.307 C230.905,409.385 231.358,409.853 231.413,410.424 C231.522,411.557 231.577,412.635 231.671,413.627 C231.89,416.127 232.163,418.463 232.733,420.447 C233.054,421.478 233.366,422.353 234.116,423.393 L233.108,424.119 L234.14,423.408 C234.562,424.072 236.179,425.338 237.937,425.291 C238.022,425.275 238.101,425.275 238.202,425.291 C240.546,425.057 241.46,424.166 242.577,423.158 C244.64,420.853 245.007,418.752 246.062,414.869 C249.147,402.088 251.983,375.674 255.968,349.244 C259.858,322.885 265.132,296.408 272.116,285.103 C283.39,266.51 347.741,186.213 356.187,177.119 C365.296,167.291 366.14,161.01 366.179,160.627 C366.155,160.385 366.179,160.205 366.179,160.166 C366.179,158.744 364.96,157.424 362.929,157.26 L362.866,157.26 C361.14,157.26 359.718,158.51 359.546,160.057 C359.437,160.697 358.374,165.518 351.054,173.447 C342.03,183.275 278.288,262.728 266.288,282.346 C257.226,297.416 252.038,329.768 247.741,359.853 C245.64,374.853 243.835,389.182 242.116,400.158 C241.546,403.705 240.999,406.932 240.452,409.689 C240.351,410.275 239.804,410.713 239.179,410.674 C238.569,410.674 238.046,410.189 237.983,409.58 C237.952,409.33 237.983,409.096 237.983,409.033 C237.772,406.603 237.585,404.268 237.226,402.314 C237.015,401.275 236.804,400.447 236.382,399.572 C235.905,398.728 235.397,397.619 233.421,397.057 L233.288,397.002 C232.921,396.908 232.616,396.885 232.382,396.885 C232.124,396.908 232.46,396.885 232.085,396.908 C229.882,397.088 229.038,398.002 228.202,398.775 C225.663,401.635 224.046,405.869 221.616,410.353 C220.233,413.088 218.569,415.596 217.062,417.346 C216.749,417.697 216.249,417.861 215.78,417.713 C215.296,417.603 214.937,417.182 214.897,416.689 C214.819,416.103 214.796,415.518 214.772,414.932 C214.647,412.291 214.694,409.119 214.569,405.986 C214.437,403.447 214.226,400.963 213.64,398.728 C212.968,396.463 212.14,394.346 209.546,392.838 C208.632,392.291 207.39,391.955 206.257,391.955 C206.257,391.955 206.171,391.955 205.983,391.978 C202.124,392.353 200.507,394.385 198.577,396.635 C195.897,400.01 193.499,404.611 191.022,408.908 C189.491,411.635 187.858,414.15 186.382,416.018 C186.069,416.4 185.577,416.564 185.085,416.439 C184.608,416.307 184.249,415.916 184.171,415.432 C183.804,413.127 183.476,410.057 183.108,407.166 C182.163,402.041 181.624,397.119 177.046,393.721 C175.897,392.939 174.429,392.353 172.897,392.353 C172.897,392.353 172.858,392.353 172.663,392.377 C168.788,392.775 167.358,395.041 165.991,397.088 C162.741,402.947 159.765,412.268 155.968,415.814 C155.655,416.088 155.233,416.197 154.812,416.103 C154.413,415.994 154.077,415.682 153.952,415.307 C152.968,412.541 151.929,406.533 151.491,400.908 C151.124,397.346 150.757,393.799 150.265,390.885 C149.499,387.611 149.515,385.744 147.155,383.369 C146.522,382.783 145.054,382.182 143.983,382.197 L143.749,382.221 C141.312,382.455 140.437,383.439 139.358,384.408 C136.202,387.846 133.624,393.783 130.663,399.658 C129.968,401.018 129.296,402.369 128.624,403.596 C128.327,404.103 127.741,404.353 127.171,404.213 C126.608,404.041 126.226,403.518 126.28,402.932 C126.757,393.15 129.038,377.502 129.093,367.533 C129.093,366.611 129.069,365.65 129.022,364.588 C128.14,345.439 119.663,296.947 114.499,280.775 C108.71,263.127 81.358,230.439 72.476,218.916 C67.944,213.041 55.522,198.275 43.726,184.697 C37.859,177.924 32.171,171.455 27.702,166.596 C25.499,164.15 23.57,162.119 22.077,160.627 C21.327,159.877 20.718,159.268 20.21,158.807 C19.335,158.119 19.515,158.072 18.179,157.4 C17.734,157.213 17.296,157.15 16.835,157.135 C15.499,157.135 14.273,157.861 13.71,158.994 C13.523,159.346 13.452,159.713 13.437,160.111 C13.437,161.025 13.96,161.994 15.093,162.666 L15.117,162.689 C15.359,162.728 15.601,162.846 15.788,163.049 C15.945,163.197 16.062,163.385 16.124,163.588 C17.687,165.088 20.499,168.049 23.781,171.689 C37.226,186.525 60.679,214.072 66.999,222.26 C75.937,233.697 103.257,266.963 108.124,282.416 C113.03,297.603 121.616,346.65 122.374,364.916 C122.405,365.869 122.437,366.728 122.437,367.572 C122.437,378.127 119.538,396.025 119.538,406.307 C119.538,406.916 119.562,407.502 119.577,408.049 C119.687,409.838 119.827,411.244 120.319,412.635 C120.608,413.361 120.89,413.963 121.726,414.791 C122.163,415.307 123.632,415.994 124.78,415.978 C124.874,415.963 124.999,415.963 125.054,415.978 C125.562,415.939 126.187,415.83 126.569,415.705 C130.077,414.025 130.991,412.01 132.944,409.018 C135.483,404.775 138.007,399.174 140.351,394.682 C140.765,393.908 141.132,393.15 141.546,392.432 C141.827,391.994 142.351,391.752 142.866,391.846 C143.397,391.955 143.78,392.377 143.874,392.9 C144.437,396.697 144.905,402.025 145.452,406.768 C145.937,410.478 146.499,413.947 147.53,416.775 C148.077,418.244 148.64,419.463 149.749,420.705 C150.522,421.643 152.421,422.76 154.304,422.736 C154.413,422.713 154.562,422.713 154.647,422.736 C155.921,422.666 156.952,422.275 157.827,421.838 C163.874,418.283 166.14,412.057 168.624,406.619 C169.772,403.916 170.819,401.455 171.804,399.869 L171.991,399.572 C172.226,399.189 172.64,398.963 173.085,398.963 C173.522,398.963 173.921,399.213 174.14,399.588 C175.351,401.713 176.546,406.33 176.937,411.049 C177.265,413.963 177.554,416.728 178.14,419.064 C178.491,420.307 178.812,421.307 179.671,422.502 C180.132,423.283 181.999,424.603 183.765,424.564 C183.913,424.564 184.022,424.564 184.101,424.564 C185.89,424.432 186.968,423.799 188.085,423.025 C192.937,419.322 196.046,412.939 199.421,407.189 C201.03,404.338 202.585,401.713 203.968,399.971 C204.304,399.533 204.647,399.213 204.851,398.963 C205.085,398.705 205.437,398.564 205.788,398.564 L206.022,398.588 z M214.296,428.002 C212.194,427.978 210.163,427.119 208.882,425.838 C207.624,424.603 207.03,423.236 206.64,422.135 C205.897,419.885 205.749,417.658 205.655,415.322 C205.507,412.377 205.546,409.197 205.452,406.369 C205.421,405.033 205.28,403.721 205.116,402.627 C204.062,404.15 202.827,406.221 201.577,408.432 C198.241,414.072 195.116,420.76 189.562,425.041 C188.319,425.932 186.64,426.908 184.265,427.064 C184.077,427.064 183.89,427.064 183.765,427.064 C180.913,427.01 178.647,425.424 177.616,423.908 C176.546,422.447 176.108,421.018 175.733,419.721 C175.054,417.088 174.78,414.244 174.452,411.283 C174.233,408.33 173.569,405.236 172.905,403.103 C172.296,404.377 171.608,405.947 170.905,407.627 C168.468,412.869 166.054,419.869 159.03,424.018 C157.937,424.58 156.515,425.15 154.702,425.205 C154.562,425.205 154.429,425.205 154.304,425.205 C151.515,425.205 149.171,423.83 147.866,422.338 C146.499,420.853 145.749,419.228 145.155,417.635 C144.022,414.463 143.483,410.838 142.976,407.064 C142.608,403.76 142.249,400.236 141.905,397.15 C139.772,401.322 137.476,406.299 135.085,410.353 C133.241,413.15 131.851,416.018 127.538,418.018 C126.772,418.283 125.968,418.432 125.124,418.463 C124.999,418.463 124.89,418.463 124.78,418.463 C122.827,418.432 121.03,417.635 119.937,416.541 C118.827,415.478 118.319,414.385 117.983,413.51 C117.327,411.721 117.187,410.025 117.085,408.174 C117.069,407.588 117.038,406.955 117.038,406.307 C117.038,395.666 119.96,377.744 119.96,367.572 C119.96,366.822 119.921,365.963 119.874,365.01 C119.155,347.244 110.53,297.853 105.733,283.166 C101.343,268.791 73.96,235.135 65.03,223.791 C58.812,215.752 35.296,188.135 21.929,173.369 C17.82,168.791 14.171,165.057 13.71,164.721 C12.007,163.728 10.952,161.978 10.952,160.111 C10.937,159.377 11.101,158.557 11.499,157.846 C12.507,155.807 14.624,154.65 16.835,154.65 C17.562,154.635 18.367,154.76 19.187,155.135 C20.781,155.853 21.257,156.455 21.827,156.9 C22.437,157.463 23.101,158.088 23.867,158.869 C25.367,160.4 27.32,162.455 29.546,164.916 C34.038,169.799 39.742,176.283 45.624,183.057 C57.429,196.65 69.851,211.408 74.468,217.385 C83.312,228.947 110.679,261.408 116.89,279.994 C122.163,296.65 130.593,344.877 131.522,364.494 C131.562,365.557 131.577,366.564 131.577,367.533 C131.546,375.838 130.015,387.658 129.202,396.947 C131.827,391.65 134.249,386.299 137.585,382.658 C138.608,381.674 140.351,379.971 143.546,379.721 C143.577,379.721 143.726,379.697 143.983,379.697 C145.827,379.721 147.616,380.463 148.858,381.572 C151.89,384.525 152.015,387.447 152.71,390.4 C153.257,393.525 153.608,397.119 153.968,400.705 C154.296,404.869 155.007,409.377 155.687,412.299 C158.233,408.557 161.022,401.025 163.858,395.814 C165.171,393.697 167.437,390.314 172.46,389.893 C172.499,389.893 172.64,389.853 172.897,389.853 C175.054,389.853 176.991,390.635 178.491,391.697 C184.077,395.838 184.663,401.822 185.577,406.791 C185.812,408.564 186.022,410.353 186.218,411.986 C187.085,410.682 187.983,409.213 188.843,407.666 C191.312,403.432 193.71,398.752 196.647,395.041 C198.515,392.838 200.921,389.893 205.78,389.486 C205.835,389.486 205.999,389.455 206.257,389.455 C207.851,389.455 209.452,389.893 210.812,390.674 C214.171,392.611 215.358,395.627 216.054,398.057 C216.726,400.619 216.937,403.26 217.062,405.893 C217.171,408.361 217.171,410.83 217.218,412.978 C217.968,411.838 218.726,410.525 219.413,409.182 C221.78,404.885 223.374,400.494 226.405,397.057 C227.265,396.197 228.944,394.603 231.999,394.432 L232.108,394.408 C232.163,394.385 232.272,394.369 232.382,394.385 C232.733,394.385 233.39,394.408 234.14,394.643 L234.155,394.658 C236.999,395.463 238.155,397.525 238.608,398.439 C239.03,399.299 239.272,400.111 239.46,400.9 C239.515,400.525 239.577,400.158 239.64,399.775 C241.358,388.869 243.163,374.541 245.265,359.494 C249.624,329.33 254.64,297.01 264.147,281.049 C276.46,261.01 339.952,181.885 349.202,171.752 C356.28,164.096 357.046,159.768 357.077,159.689 C357.405,156.807 359.968,154.775 362.866,154.775 C362.905,154.775 363.202,154.736 363.327,154.799 C366.304,154.994 368.655,157.299 368.655,160.166 C368.655,160.361 368.655,160.424 368.655,160.627 C368.569,161.869 367.437,168.643 358.015,178.822 C349.827,187.588 285.21,268.26 274.233,286.416 C267.71,296.83 262.28,323.393 258.437,349.611 C254.452,376.025 251.655,402.346 248.491,415.502 C247.468,419.228 246.96,421.986 244.358,424.893 C243.21,425.986 241.46,427.557 238.296,427.775 L238.21,427.775 C238.101,427.775 238.022,427.775 237.937,427.775 C235.132,427.744 233.062,426.221 232.085,424.846 L232.085,424.853 C231.14,423.541 230.679,422.299 230.319,421.166 C229.765,419.182 229.499,417.08 229.272,414.932 C226.858,419.385 223.905,424.244 218.319,427.119 C217.296,427.603 216.101,427.939 214.671,428.002 C214.515,428.002 214.421,428.002 214.296,428.002" fill="#191613"/>
    <path d="M298.288,115.322 L298.288,133.041 C298.288,133.041 307.077,138.463 314.96,145.033 C322.858,151.596 330.741,160.182 331.64,159.893 C332.562,159.588 354.999,166.752 361.983,172.736 C368.96,178.728 375.319,188.728 375.624,191.877 C375.921,195.025 376.53,149.025 376.53,149.025 C376.53,149.025 360.062,134.838 340.741,127.619 C320.124,119.9 298.288,115.322 298.288,115.322 z" fill="url(#Gradient_24)"/>
    <path d="M297.772,117.768 L298.28,115.314 L297.772,117.768 z M331.015,157.447 L331.187,157.416 L331.312,157.393 C331.171,157.4 331.069,157.432 331.015,157.447 z M363.601,170.83 C367.374,174.197 370.858,178.26 373.476,182.072 C373.554,178.596 373.624,174.525 373.702,170.463 C373.843,161.869 373.96,153.283 374.015,150.197 C370.374,147.268 356.093,135.994 339.851,129.932 C324.022,124.025 307.421,119.955 300.78,118.432 L300.78,131.643 C303.444,133.353 310.241,137.838 316.562,143.096 C323.296,148.744 330.632,156.244 332.202,157.432 C336.78,158.213 355.812,164.502 363.601,170.83 z M373.21,192.619 C373.171,192.471 373.155,192.307 373.132,192.111 C373.257,190.65 366.874,179.978 360.351,174.635 C355.03,169.666 333.999,162.807 331.858,162.377 C331.757,162.385 331.64,162.385 331.53,162.385 C331.366,162.385 331.21,162.377 331.14,162.338 L331.147,162.268 C327.976,161.353 327.507,159.572 324.03,156.689 C320.983,153.775 317.147,150.103 313.343,146.932 C305.64,140.51 296.983,135.158 296.96,135.158 C296.233,134.697 295.78,133.908 295.78,133.041 L295.78,115.314 C295.78,114.58 296.124,113.861 296.702,113.385 C297.272,112.9 298.046,112.705 298.78,112.869 C298.866,112.869 320.765,117.471 341.608,125.275 C361.46,132.705 378.046,147.041 378.163,147.119 L379.03,149.057 C379.03,149.057 378.687,172.853 378.397,185.057 C378.187,189.572 378.483,190.978 377.921,193.041 C377.741,193.166 377.702,194.228 375.655,194.502 C374.491,194.502 373.483,193.728 373.21,192.619" fill="#191613"/>
    <path d="M358.296,234.697 C358.296,239.9 356.069,244.119 353.296,244.119 C350.546,244.119 348.288,239.9 348.288,234.697 C348.288,229.494 350.546,225.275 353.296,225.275 C356.069,225.275 358.296,229.494 358.296,234.697 z" fill="url(#Gradient_25)"/>
    <path d="M351.96,229.189 C351.288,230.447 350.757,232.447 350.757,234.689 C350.757,236.932 351.288,238.932 351.96,240.189 C352.655,241.486 353.257,241.635 353.296,241.611 C353.327,241.611 353.913,241.486 354.624,240.189 C355.296,238.947 355.796,236.932 355.796,234.689 C355.796,232.447 355.296,230.432 354.624,229.189 C353.913,227.893 353.327,227.768 353.296,227.768 C353.28,227.768 352.655,227.893 351.96,229.189 z M345.788,234.689 C345.968,228.986 347.765,223.338 353.296,222.775 C358.812,223.338 360.624,229.01 360.788,234.689 C360.624,240.369 358.812,246.041 353.296,246.603 C347.765,246.041 345.968,240.393 345.788,234.689" fill="#191613"/>
  </g>
</svg>
