<svg version="1.1" xmlns="http://www.w3.org/2000/svg" xmlns:xlink="http://www.w3.org/1999/xlink" width="43.53652" height="150.59181"><g transform="translate(-226.55798,-119.1431)"><g data-paper-data="{&quot;isPaintingLayer&quot;:true}" fill="none" fill-rule="nonzero" stroke="#000000" stroke-width="2" stroke-linecap="butt" stroke-linejoin="miter" stroke-miterlimit="10" stroke-dasharray="" stroke-dashoffset="0" font-family="none" font-weight="none" font-size="none" text-anchor="none" style="mix-blend-mode: normal"><path d="M230.14265,174.49972c0,0 22.56733,-5.40336 21.31785,-17.85072c0.65688,-10.88771 -18.80977,-28.75015 -18.80977,-28.75015" data-paper-data="{&quot;origPos&quot;:null,&quot;index&quot;:null,&quot;origRot&quot;:0}" fill="none"/><path d="M254.95722,153.78472c0,9.08642 -5.47356,16.45241 -12.22554,16.45241c-6.75198,0 -12.22555,-7.36599 -12.22555,-16.45241c0,-9.08642 5.47356,-16.45241 12.22555,-16.45241c6.75198,0 12.22554,7.36599 12.22554,16.45241z" data-paper-data="{&quot;origPos&quot;:null}" fill="#ffc9a0"/><path d="M253.70017,120.1431c0,0 17.99594,21.06913 15.07333,35.31443c-3.46401,13.42985 -18.17789,17.45518 -18.17789,17.45518" data-paper-data="{&quot;origPos&quot;:null,&quot;origRot&quot;:0}" fill="none"/><path d="M227.55798,269.19976c0,0 8.16676,-12.89162 11.01431,-23.5225c2.5934,-9.68202 2.92745,-28.52677 2.92745,-28.52677c0,0 11.66742,18.94888 15.56578,31.07712c2.63078,8.18465 1.16434,20.97214 1.16434,20.97214" data-paper-data="{&quot;origPos&quot;:null}" fill="none"/><path d="M228.57668,225.12598l5.57671,-51.24159l11.97537,0.92945l6.50616,50.31214z" data-paper-data="{&quot;origPos&quot;:null}" fill="#7800ff"/></g></g></svg>