<?xml version="1.0" encoding="UTF-8" standalone="no"?>
<svg
   xmlns:dc="http://purl.org/dc/elements/1.1/"
   xmlns:cc="http://creativecommons.org/ns#"
   xmlns:rdf="http://www.w3.org/1999/02/22-rdf-syntax-ns#"
   xmlns:svg="http://www.w3.org/2000/svg"
   xmlns="http://www.w3.org/2000/svg"
   xmlns:xlink="http://www.w3.org/1999/xlink"
   xmlns:sodipodi="http://sodipodi.sourceforge.net/DTD/sodipodi-0.dtd"
   xmlns:inkscape="http://www.inkscape.org/namespaces/inkscape"
   version="1.1"
   width="190"
   height="145"
   id="svg75"
   sodipodi:docname="02-pong-ball-bounce.svg"
   inkscape:version="0.92.3 (2405546, 2018-03-11)">
  <metadata
     id="metadata79">
    <rdf:RDF>
      <cc:Work
         rdf:about="">
        <dc:format>image/svg+xml</dc:format>
        <dc:type
           rdf:resource="http://purl.org/dc/dcmitype/StillImage" />
      </cc:Work>
    </rdf:RDF>
  </metadata>
  <sodipodi:namedview
     pagecolor="#ffffff"
     bordercolor="#666666"
     borderopacity="1"
     objecttolerance="10"
     gridtolerance="10"
     guidetolerance="10"
     inkscape:pageopacity="0"
     inkscape:pageshadow="2"
     inkscape:window-width="2078"
     inkscape:window-height="1776"
     id="namedview77"
     showgrid="false"
     inkscape:zoom="10.052226"
     inkscape:cx="94.5"
     inkscape:cy="72.5"
     inkscape:window-x="0"
     inkscape:window-y="22"
     inkscape:window-maximized="0"
     inkscape:current-layer="svg75" />
  <defs
     id="defs31">
    <g
       id="greenFlag">
      <path
         d="M 20.8,3.7 C 20.4,3.5 19.9,3.6 19.6,3.9 17.6,5.5 14.8,5.5 12.8,3.9 10.5,2 7.2,1.6 4.5,2.9 V 2.5 c 0,-0.6 -0.5,-1 -1,-1 -0.5,0 -1,0.4 -1,1 v 18.8 c 0,0.5 0.5,1 1,1 h 0.1 c 0.5,0 1,-0.5 1,-1 v -6.4 c 1,-0.7 2.1,-1.2 3.4,-1.3 1.2,0 2.4,0.4 3.4,1.2 2.9,2.3 7,2.3 9.8,0 0.3,-0.2 0.4,-0.5 0.4,-0.9 V 4.7 c 0,-0.5 -0.3,-0.9 -0.8,-1 z M 20.5,13.9 C 18,16 14.4,16 11.9,14 10.8,13.1 9.4,12.6 7.9,12.6 6.7,12.7 5.6,13.1 4.5,13.7 V 4 C 7,2.6 10,2.9 12.2,4.6 c 2.4,1.9 5.7,1.9 8.1,0 h 0.2 l 0.1,0.1 z"
         id="path2"
         inkscape:connector-curvature="0"
         style="fill:#45993d" />
      <path
         d="m 20.6,4.8 -0.1,9.1 V 14 c -2.5,2 -6.1,2 -8.6,0 -1.1,-0.9 -2.5,-1.4 -4,-1.4 -1.2,0.1 -2.3,0.5 -3.4,1.1 V 4 C 7,2.6 10,2.9 12.2,4.6 c 2.4,1.9 5.7,1.9 8.1,0 h 0.2 c 0,0.1 0.1,0.1 0.1,0.2 z"
         id="path4"
         inkscape:connector-curvature="0"
         style="fill:#4cbf56" />
    </g>
    <g
       id="dropdownArrow"
       transform="scale(0.944)">
      <path
         d="M 12.71,2.44 A 2.41,2.41 0 0 1 12,4.16 L 8.08,8.08 a 2.45,2.45 0 0 1 -3.45,0 L 0.72,4.16 A 2.42,2.42 0 0 1 0,2.44 2.48,2.48 0 0 1 0.71,0.71 C 1,0.47 1.43,0 6.36,0 11.29,0 11.75,0.46 12,0.71 a 2.44,2.44 0 0 1 0.71,1.73 z"
         id="path7"
         inkscape:connector-curvature="0"
         style="opacity:0.1;fill:#231f20" />
      <path
         d="m 6.36,7.79 a 1.43,1.43 0 0 1 -1,-0.42 L 1.42,3.45 a 1.44,1.44 0 0 1 0,-2 c 0.56,-0.56 9.31,-0.56 9.87,0 a 1.44,1.44 0 0 1 0,2 L 7.37,7.37 A 1.43,1.43 0 0 1 6.36,7.79 Z"
         id="path9"
         inkscape:connector-curvature="0"
         style="fill:#ffffff" />
    </g>
    <g
       id="turnRight">
      <path
         d="m 22.68,12.2 a 1.6,1.6 0 0 1 -1.27,0.63 H 13.72 A 1.59,1.59 0 0 1 12.56,10.25 L 13.68,8.84 A 4.82,4.82 0 0 0 10.54,8.07 4.31,4.31 0 0 0 8.54,8.87 4.25,4.25 0 0 0 7.2,10.6 5.06,5.06 0 0 0 7.74,15.22 5.58,5.58 0 0 0 12,17.74 2.2614155,2.2614155 0 0 1 11.84,22.26 10.25,10.25 0 0 1 3.74,18 10.14,10.14 0 0 1 2.25,8.78 9.7,9.7 0 0 1 5.08,4.64 9.92,9.92 0 0 1 9.66,2.5 10.66,10.66 0 0 1 17.38,4.18 l 1.08,-1.35 a 1.57,1.57 0 0 1 1.24,-0.6 1.6,1.6 0 0 1 1.54,1.21 l 1.7,7.37 a 1.57,1.57 0 0 1 -0.26,1.39 z"
         id="path12"
         inkscape:connector-curvature="0"
         style="fill:#3d79cc" />
      <path
         d="m 21.38,11.83 h -7.61 a 0.59,0.59 0 0 1 -0.43,-1 L 15.09,8.64 A 5.9,5.9 0 0 0 10.39,7.06 5.07,5.07 0 0 0 6.28,10.23 6,6 0 0 0 7,15.77 6.51,6.51 0 0 0 12,18.69 1.3106105,1.3106105 0 0 1 11.92,21.31 9.3,9.3 0 0 1 4.57,17.49 9.16,9.16 0 0 1 3.17,9.12 8.51,8.51 0 0 1 5.71,5.4 8.76,8.76 0 0 1 9.82,3.48 9.71,9.71 0 0 1 17.57,5.55 l 1.67,-2.1 a 0.59,0.59 0 0 1 1,0.21 L 22,11.08 a 0.59,0.59 0 0 1 -0.62,0.75 z"
         id="path14"
         inkscape:connector-curvature="0"
         style="fill:#ffffff" />
    </g>
    <g
       id="turnLeft">
      <path
         d="m 20.34,18.21 a 10.24,10.24 0 0 1 -8.1,4.22 2.2614155,2.2614155 0 0 1 -0.16,-4.52 5.58,5.58 0 0 0 4.25,-2.53 5.06,5.06 0 0 0 0.54,-4.62 A 4.25,4.25 0 0 0 15.55,9 4.31,4.31 0 0 0 13.55,8.2 4.82,4.82 0 0 0 10.4,9 l 1.12,1.41 A 1.59,1.59 0 0 1 10.36,13 H 2.67 A 1.56,1.56 0 0 1 1.41,12.37 1.54,1.54 0 0 1 1.13,11 L 2.85,3.57 A 1.59,1.59 0 0 1 4.38,2.4 1.57,1.57 0 0 1 5.62,3 L 6.7,4.35 A 10.66,10.66 0 0 1 14.42,2.67 9.88,9.88 0 0 1 19,4.81 9.61,9.61 0 0 1 21.83,9 10.08,10.08 0 0 1 20.34,18.21 Z"
         id="path17"
         inkscape:connector-curvature="0"
         style="fill:#3d79cc" />
      <path
         d="m 19.56,17.65 a 9.29,9.29 0 0 1 -7.35,3.83 1.3106105,1.3106105 0 0 1 -0.08,-2.62 6.53,6.53 0 0 0 5,-2.92 6.05,6.05 0 0 0 0.67,-5.51 5.32,5.32 0 0 0 -1.64,-2.16 5.21,5.21 0 0 0 -2.48,-1 A 5.86,5.86 0 0 0 9,8.84 L 10.74,11 a 0.59,0.59 0 0 1 -0.43,1 H 2.7 A 0.6,0.6 0 0 1 2.1,11.25 L 3.81,3.83 a 0.59,0.59 0 0 1 1,-0.21 l 1.67,2.1 a 9.71,9.71 0 0 1 7.75,-2.07 8.84,8.84 0 0 1 4.12,1.92 8.68,8.68 0 0 1 2.54,3.72 9.14,9.14 0 0 1 -1.33,8.36 z"
         id="path19"
         inkscape:connector-curvature="0"
         style="fill:#ffffff" />
    </g>
    <path
       d="M 0,0 4,4 0,8 Z"
       id="addInput"
       inkscape:connector-curvature="0"
       style="fill:#111111" />
    <path
       d="M 4,0 V 8 L 0,4 Z"
       id="delInput"
       inkscape:connector-curvature="0"
       style="fill:#111111" />
    <g
       id="loopArrow">
      <path
         d="m 23.3,11 c -0.3,0.6 -0.9,1 -1.5,1 h -1.6 c -0.1,1.3 -0.5,2.5 -1.1,3.6 -0.9,1.7 -2.3,3.2 -4.1,4.1 -1.7,0.9 -3.6,1.2 -5.5,0.9 C 7.7,20.3 6,19.5 4.6,18.3 3.9,17.6 3.9,16.4 4.6,15.7 5.2,15.1 6.2,15 6.9,15.5 H 7 c 0.9,0.6 1.9,0.9 2.9,0.9 1,0 1.9,-0.3 2.7,-0.9 1.1,-0.8 1.8,-2.1 1.8,-3.5 h -1.5 c -0.9,0 -1.7,-0.7 -1.7,-1.7 0,-0.4 0.2,-0.9 0.5,-1.2 l 4.4,-4.4 c 0.7,-0.6 1.7,-0.6 2.4,0 L 23,9.2 c 0.5,0.5 0.6,1.2 0.3,1.8 z"
         id="path24"
         inkscape:connector-curvature="0"
         style="fill:#cf8b17" />
      <path
         d="m 21.8,11 h -2.6 c 0,1.5 -0.3,2.9 -1,4.2 -0.8,1.6 -2.1,2.8 -3.7,3.6 C 13,19.6 11.2,19.9 9.6,19.6 8,19.4 6.4,18.6 5.2,17.5 4.8,17.2 4.8,16.6 5.1,16.3 5.4,15.9 6,15.9 6.3,16.2 c 1,0.7 2.2,1.1 3.4,1.1 1.2,0 2.3,-0.3 3.3,-1 0.9,-0.6 1.6,-1.5 2,-2.6 0.3,-0.9 0.4,-1.8 0.2,-2.8 h -2.4 c -0.4,0 -0.7,-0.3 -0.7,-0.7 0,-0.2 0.1,-0.3 0.2,-0.4 l 4.4,-4.4 c 0.3,-0.3 0.7,-0.3 0.9,0 L 22,9.8 c 0.3,0.3 0.4,0.6 0.3,0.9 C 22.2,11 22,11 21.8,11 Z"
         id="path26"
         inkscape:connector-curvature="0"
         style="fill:#ffffff" />
    </g>
    <style
       id="style29"><![CDATA[ .sb3-label {
      font: 500 12pt Helevetica Neue, Helvetica, sans-serif;
      fill: #fff;
      word-spacing: +1pt;
    }

    .sb3-motion { fill: #4c97ff; stroke: #3373cc; }
    .sb3-motion-alt { fill: #4280d7; }
    .sb3-motion-dark { fill: #4c97ff; }
    .sb3-looks { fill: #9966ff; stroke: #774dcb; }
    .sb3-looks-alt { fill: #855cd6; }
    .sb3-looks-dark { fill: #bd42bd; }
    .sb3-sound { fill: #cf63cf; stroke: #bd42bd; }
    .sb3-sound-alt { fill: #c94fc9; }
    .sb3-sound-dark { fill: #bd42bd; }
    .sb3-control { fill: #ffab19; stroke: #cf8b17; }
    .sb3-control-alt { fill: #ec9c13; }
    .sb3-control-dark { fill: #cf8b17; }
    .sb3-events { fill: #ffbf00; stroke: #cc9900; }
    .sb3-events-alt { fill: #e6ac00; }
    .sb3-events-dark { fill: #cc9900; }
    .sb3-sensing { fill: #5cb1d6; stroke: #2e8eb8; }
    .sb3-sensing-alt { fill: #47a8d1; }
    .sb3-sensing-dark { fill: #2e8eb8; }
    .sb3-pen { fill: #0fbd8c; stroke: #0b8e69; }
    .sb3-pen-alt { fill: #0da57a; }
    .sb3-pen-dark { fill: #0b8e69; }
    .sb3-operators { fill: #59c059; stroke: #389438; }
    .sb3-operators-alt { fill: #46b946; }
    .sb3-operators-dark { fill: #389438; }
    .sb3-variables { fill: #ff8c1a; stroke: #db6e00; }
    .sb3-variables-alt { fill: #ff8000; }
    .sb3-variables-dark { fill: #db6e00; }
    .sb3-list { fill: #ff661a; stroke: #e64d00; }
    .sb3-list-alt { fill: #ff5500; }
    .sb3-list-dark { fill: #e64d00; }
    .sb3-custom { fill: #ff6680; stroke: #ff3355; }
    .sb3-custom-alt { fill: #ff4d6a; }
    .sb3-custom-dark { fill: #ff3355; }
    .sb3-custom-arg { fill: #ff6680; stroke: #ff3355; }

    .sb3-obsolete { fill: #d42828; }
    .sb3-extension { fill: #4b4a60; }
    .sb3-grey { fill: #bfbfbf; stroke: #909090; }
    .sb3-grey-alt { fill: #b2b2b2; }
    .sb3-grey-dark { fill: #909090; }

    .sb3-input-color {
      stroke: #fff;
    }

    .sb3-input-number,
    .sb3-input-string {
      fill: #fff;
    }
    .sb3-literal-number,
    .sb3-literal-string,
    .sb3-literal-number-dropdown,
    .sb3-literal-dropdown {
      word-spacing: 0;
    }
    .sb3-literal-number,
    .sb3-literal-string {
      fill: #575e75;
    }

    .sb3-comment {
      fill: #ffffa5;
      stroke: #d0d1d2;
      stroke-width: 1;
    }
    .sb3-comment-line {
      fill: #ffff80;
    }
    .sb3-comment-label {
      font: 400 12pt Helevetica Neue, Helvetica, sans-serif;
      fill: #000;
      word-spacing: 0;
    }

    .sb3-diff {
      fill: none;
      stroke: #000;
    }
    .sb3-diff-ins {
      stroke-width: 2px;
    }
    .sb3-diff-del {
      stroke-width: 3px;
    }
  ]]></style>
  </defs>
  <g
     id="g73"
     transform="translate(-1.5,-0.5)">
    <g
       id="g71">
      <g
         transform="translate(2,1)"
         id="g69">
        <path
           class="sb3-control"
           d="M 0,4 A 4,4 0 0 1 4,0 h 8 c 2,0 3,1 4,2 l 4,4 c 1,1 2,2 4,2 h 12 c 2,0 3,-1 4,-2 l 4,-4 c 1,-1 2,-2 4,-2 h 122 a 4,4 0 0 1 4,4 v 32 a 4,4 0 0 1 -4,4 H 64 c -2,0 -3,1 -4,2 l -4,4 c -1,1 -2,2 -4,2 H 40 c -2,0 -3,-1 -4,-2 l -4,-4 c -1,-1 -2,-2 -4,-2 h -8 a 4,4 0 0 0 -4,4 v 72 a 4,4 0 0 0 4,4 h 8 c 2,0 3,1 4,2 l 4,4 c 1,1 2,2 4,2 h 12 c 2,0 3,-1 4,-2 l 4,-4 c 1,-1 2,-2 4,-2 h 106 a 4,4 0 0 1 4,4 v 16 a 4,4 0 0 1 -4,4 H 4 a 4,4 0 0 1 -4,-4 z"
           id="path33"
           inkscape:connector-curvature="0"
           style="fill:#ffab19;stroke:#cf8b17" />
        <text
           class="sb3-label sb3-"
           x="0"
           y="13"
           transform="translate(8,13)"
           id="text35"
           style="font-style:normal;font-variant:normal;font-weight:500;font-stretch:normal;font-size:16px;line-height:normal;font-family:'Helevetica Neue', Helvetica, sans-serif;word-spacing:1.00000003pt;fill:#ffffff">wiederhole</text>
        <text
           class="sb3-label sb3-"
           x="0"
           y="13"
           transform="translate(90,13)"
           id="text37"
           style="font-style:normal;font-variant:normal;font-weight:500;font-stretch:normal;font-size:16px;line-height:normal;font-family:'Helevetica Neue', Helvetica, sans-serif;word-spacing:1.00000003pt;fill:#ffffff">fortlaufend</text>
        <use
           xlink:href="#loopArrow"
           transform="translate(142,116)"
           id="use39"
           x="0"
           y="0"
           width="100%"
           height="100%" />
        <g
           transform="translate(16,39)"
           id="g67">
          <g
             transform="translate(0,1)"
             id="g53">
            <path
               class="sb3-motion"
               d="M 0,4 A 4,4 0 0 1 4,0 h 8 c 2,0 3,1 4,2 l 4,4 c 1,1 2,2 4,2 h 12 c 2,0 3,-1 4,-2 l 4,-4 c 1,-1 2,-2 4,-2 h 121 a 4,4 0 0 1 4,4 v 32 a 4,4 0 0 1 -4,4 H 48 c -2,0 -3,1 -4,2 l -4,4 c -1,1 -2,2 -4,2 H 24 c -2,0 -3,-1 -4,-2 L 16,42 C 15,41 14,40 12,40 H 4 A 4,4 0 0 1 0,36 Z"
               id="path41"
               inkscape:connector-curvature="0"
               style="fill:#4c97ff;stroke:#3373cc" />
            <text
               class="sb3-label sb3-"
               x="0"
               y="13"
               transform="translate(8,13)"
               id="text43"
               style="font-style:normal;font-variant:normal;font-weight:500;font-stretch:normal;font-size:16px;line-height:normal;font-family:'Helevetica Neue', Helvetica, sans-serif;word-spacing:1.00000003pt;fill:#ffffff">gehe</text>
            <g
               transform="translate(52,4)"
               id="g49">
              <rect
                 rx="16"
                 ry="16"
                 x="0"
                 y="0"
                 width="40"
                 height="32"
                 class="sb3-motion sb3-input sb3-input-number"
                 id="rect45"
                 style="fill:#ffffff;stroke:#3373cc" />
              <text
                 class="sb3-label sb3-literal-number"
                 x="0"
                 y="13"
                 transform="translate(11,9)"
                 id="text47"
                 style="font-style:normal;font-variant:normal;font-weight:500;font-stretch:normal;font-size:16px;line-height:normal;font-family:'Helevetica Neue', Helvetica, sans-serif;word-spacing:0;fill:#575e75">15</text>
            </g>
            <text
               class="sb3-label sb3-"
               x="0"
               y="13"
               transform="translate(100,13)"
               id="text51"
               style="font-style:normal;font-variant:normal;font-weight:500;font-stretch:normal;font-size:16px;line-height:normal;font-family:'Helevetica Neue', Helvetica, sans-serif;word-spacing:1.00000003pt;fill:#ffffff">er-Schritt</text>
          </g>
          <g
             transform="translate(0,41)"
             id="g65">
            <path
               class="sb3-motion"
               d="M 0,4 A 4,4 0 0 1 4,0 h 8 c 2,0 3,1 4,2 l 4,4 c 1,1 2,2 4,2 h 12 c 2,0 3,-1 4,-2 l 4,-4 c 1,-1 2,-2 4,-2 h 104 a 4,4 0 0 1 4,4 v 32 a 4,4 0 0 1 -4,4 H 48 c -2,0 -3,1 -4,2 l -4,4 c -1,1 -2,2 -4,2 H 24 c -2,0 -3,-1 -4,-2 L 16,42 C 15,41 14,40 12,40 H 4 A 4,4 0 0 1 0,36 Z"
               id="path55"
               inkscape:connector-curvature="0"
               style="fill:#4c97ff;stroke:#3373cc" />
            <text
               class="sb3-label sb3-"
               x="0"
               y="13"
               transform="translate(8,13)"
               id="text57"
               style="font-style:normal;font-variant:normal;font-weight:500;font-stretch:normal;font-size:16px;line-height:normal;font-family:'Helevetica Neue', Helvetica, sans-serif;word-spacing:1.00000003pt;fill:#ffffff">pralle</text>
            <text
               class="sb3-label sb3-"
               x="0"
               y="13"
               transform="translate(52,13)"
               id="text59"
               style="font-style:normal;font-variant:normal;font-weight:500;font-stretch:normal;font-size:16px;line-height:normal;font-family:'Helevetica Neue', Helvetica, sans-serif;word-spacing:1.00000003pt;fill:#ffffff">vom</text>
            <text
               class="sb3-label sb3-"
               x="0"
               y="13"
               transform="translate(87,13)"
               id="text61"
               style="font-style:normal;font-variant:normal;font-weight:500;font-stretch:normal;font-size:16px;line-height:normal;font-family:'Helevetica Neue', Helvetica, sans-serif;word-spacing:1.00000003pt;fill:#ffffff">Rand</text>
            <text
               class="sb3-label sb3-"
               x="0"
               y="13"
               transform="translate(130,13)"
               id="text63"
               style="font-style:normal;font-variant:normal;font-weight:500;font-stretch:normal;font-size:16px;line-height:normal;font-family:'Helevetica Neue', Helvetica, sans-serif;word-spacing:1.00000003pt;fill:#ffffff">ab</text>
          </g>
        </g>
      </g>
    </g>
  </g>
</svg>
